<svg id="Layer_1" data-name="Layer 1" xmlns="http://www.w3.org/2000/svg" viewBox="0 0 24 24"><title>iconoteka_credit_card_l_s</title><path d="M19.5,4H4.5A2.5,2.5,0,0,0,2,6.5v11A2.5,2.5,0,0,0,4.5,20h15A2.5,2.5,0,0,0,22,17.5V6.5A2.5,2.5,0,0,0,19.5,4Zm2,4H17v.5h4.5V11H17v.5h4.5v6a2,2,0,0,1-2,2H4.5a2,2,0,0,1-2-2v-6H7V11H2.5V8.5H7V8H2.5V6.5a2,2,0,0,1,2-2h15a2,2,0,0,1,2,2ZM13.55,9,9.84,15h.61l3.71-6Zm.4,3.84A1.13,1.13,0,1,0,15.08,14,1.12,1.12,0,0,0,14,12.84Zm0,1.76a.63.63,0,1,1,.63-.63A.63.63,0,0,1,14,14.6ZM11.18,10a1.13,1.13,0,1,0-1.13,1.13A1.12,1.12,0,0,0,11.18,10ZM9.42,10a.63.63,0,1,1,.63.63A.63.63,0,0,1,9.42,10Z"/></svg>