<svg id="Layer_1" data-name="Layer 1" xmlns="http://www.w3.org/2000/svg" viewBox="0 0 24 24"><title>iconoteka_gift_card__redeem_b_s</title><path d="M19.2,8h-3l.38-.14a3.29,3.29,0,0,0,1.1-5.47,3.28,3.28,0,0,0-5.38,1.47L12,5l-.33-1.12A3.27,3.27,0,0,0,5.32,5.43,3.25,3.25,0,0,0,7.38,7.86L7.77,8h-3A2.81,2.81,0,0,0,2,10.8v8.4A2.81,2.81,0,0,0,4.8,22H19.2A2.81,2.81,0,0,0,22,19.2V10.8A2.81,2.81,0,0,0,19.2,8ZM14.25,4.43a1.23,1.23,0,0,1,.88-.87,1.1,1.1,0,0,1,.35-.05A1.27,1.27,0,0,1,16.72,5a1.24,1.24,0,0,1-.8.94l-2.39.89ZM7.28,5A1.27,1.27,0,0,1,8.52,3.51a1.1,1.1,0,0,1,.35.05,1.23,1.23,0,0,1,.88.87l.72,2.44L8.08,6A1.24,1.24,0,0,1,7.28,5ZM20,19.2a.8.8,0,0,1-.8.8H4.8a.8.8,0,0,1-.8-.8V14H20ZM20,12H4V10.8a.8.8,0,0,1,.8-.8H19.2a.8.8,0,0,1,.8.8Z"/></svg>