<svg id="Layer_1" data-name="Layer 1" xmlns="http://www.w3.org/2000/svg" viewBox="0 0 24 24"><title>iconoteka_charity__donations_r_s</title><path d="M1,5V19H23V5ZM22,18H2V6H22ZM12,15.8c1.42-1,4-3.38,4-5.28A2.13,2.13,0,0,0,13.87,8.2,2.36,2.36,0,0,0,12,9.27,2.36,2.36,0,0,0,10.13,8.2,2.13,2.13,0,0,0,8,10.52C8,12.42,10.58,14.85,12,15.8ZM10.13,9.2a1.41,1.41,0,0,1,1.07.68l.8,1,.8-1a1.41,1.41,0,0,1,1.07-.68c1.05,0,1.13,1,1.13,1.32,0,1.17-1.62,3-3,4-1.38-1.08-3-2.87-3-4C9,10.21,9.08,9.2,10.13,9.2Z"/></svg>