<svg id="Layer_1" data-name="Layer 1" xmlns="http://www.w3.org/2000/svg" viewBox="0 0 24 24"><title>iconoteka_shopping_cart__grocery_store_l_s</title><path d="M18,17.55V17.5H7.09L6.46,15,20,12.36V5H4L3.49,3H1v.5H3.09l3.49,14a1.24,1.24,0,1,0,1.34,1.23A1.2,1.2,0,0,0,7.64,18h9.14a1.18,1.18,0,0,0-.28.75,1.25,1.25,0,0,0,2.5,0A1.23,1.23,0,0,0,18,17.55Zm1.5-12V12L6.34,14.47,4.73,8,4.11,5.5ZM6.67,19.5a.75.75,0,1,1,.75-.75A.76.76,0,0,1,6.67,19.5Zm11.08,0a.75.75,0,1,1,.75-.75A.76.76,0,0,1,17.75,19.5Z"/></svg>