<svg id="Layer_1" data-name="Layer 1" xmlns="http://www.w3.org/2000/svg" viewBox="0 0 24 24"><title>iconoteka_gift_card__redeem_b_s</title><path d="M18.5,9H16.77c2.44-1.42,2.55-3.06,2.48-3.72A3.28,3.28,0,0,0,16,2.45h-.05c-1.5,0-3,1-3.91,3.58-.89-2.54-2.41-3.56-3.91-3.58H8A3.28,3.28,0,0,0,4.75,5.28c-.07.66,0,2.3,2.48,3.72H5.5A2.5,2.5,0,0,0,3,11.5v7A2.5,2.5,0,0,0,5.5,21h13A2.5,2.5,0,0,0,21,18.5v-7A2.5,2.5,0,0,0,18.5,9ZM15.94,4.45h0a1.26,1.26,0,0,1,1.3,1c.11,1-1.14,2.25-4.1,3.1C13.67,5.59,14.92,4.47,15.94,4.45Zm-9.2,1a1.26,1.26,0,0,1,1.3-1h0c1,0,2.27,1.14,2.78,4.14C7.88,7.74,6.63,6.48,6.74,5.49ZM5.5,11h13a.5.5,0,0,1,.5.5V13H5V11.5A.5.5,0,0,1,5.5,11Zm13,8H5.5a.5.5,0,0,1-.5-.5V15H19v3.5A.5.5,0,0,1,18.5,19Z"/></svg>