<svg id="Layer_1" data-name="Layer 1" xmlns="http://www.w3.org/2000/svg" viewBox="0 0 24 24"><title>iconoteka_credit_card_l_f</title><path d="M10.68,10a.63.63,0,1,0-.63.63A.63.63,0,0,0,10.68,10ZM14,13.34a.63.63,0,1,0,.63.63A.63.63,0,0,0,14,13.34ZM19.5,4H4.5A2.5,2.5,0,0,0,2,6.5v11A2.5,2.5,0,0,0,4.5,20h15A2.5,2.5,0,0,0,22,17.5V6.5A2.5,2.5,0,0,0,19.5,4ZM7,11H2.5V8H7Zm1.92-1a1.13,1.13,0,1,1,1.13,1.13A1.12,1.12,0,0,1,8.92,10Zm.92,5,3.71-6h.61l-3.71,6Zm4.11.1A1.13,1.13,0,1,1,15.08,14,1.12,1.12,0,0,1,14,15.1ZM21.5,11H17V8h4.5Z"/></svg>