<svg id="Layer_1" data-name="Layer 1" xmlns="http://www.w3.org/2000/svg" viewBox="0 0 24 24"><title>iconoteka_prepaid_card_r_s</title><path d="M19.5,4H4.5A2.5,2.5,0,0,0,2,6.5v11A2.5,2.5,0,0,0,4.5,20h15A2.5,2.5,0,0,0,22,17.5V6.5A2.5,2.5,0,0,0,19.5,4ZM21,8H15.77a5.78,5.78,0,0,1,.84,1H21v2H17.4a5.47,5.47,0,0,1,.1,1H21v5.5A1.5,1.5,0,0,1,19.5,19H4.5A1.5,1.5,0,0,1,3,17.5V12H6.5a5.47,5.47,0,0,1,.1-1H3V9H7.39a5.78,5.78,0,0,1,.84-1H3V6.5A1.5,1.5,0,0,1,4.5,5h15A1.5,1.5,0,0,1,21,6.5Zm-9,.75A3.25,3.25,0,1,0,15.25,12,3.26,3.26,0,0,0,12,8.75Zm0,5.6A2.35,2.35,0,1,1,14.35,12,2.35,2.35,0,0,1,12,14.35Z"/></svg>