<svg id="Layer_1" data-name="Layer 1" xmlns="http://www.w3.org/2000/svg" viewBox="0 0 24 24"><title>iconoteka_gift_card__redeem_m_s</title><path d="M18.5,9H16c2.91-1.37,3.05-3.15,3-3.83a3.09,3.09,0,0,0-3.07-2.72h0c-1.31,0-3,.92-3.89,4-.9-3.08-2.58-4-3.89-4h0A3.09,3.09,0,0,0,5,5.17c-.06.68.08,2.46,3,3.83H5.5A2.5,2.5,0,0,0,3,11.5v7A2.5,2.5,0,0,0,5.5,21h13A2.5,2.5,0,0,0,21,18.5v-7A2.5,2.5,0,0,0,18.5,9ZM15.91,4h0a1.57,1.57,0,0,1,1.58,1.38c.1,1.13-1.22,2.56-4.65,3.35C13.36,5.23,14.75,4,15.91,4ZM6.48,5.33A1.57,1.57,0,0,1,8.06,4h0c1.16,0,2.55,1.28,3,4.73C7.7,7.89,6.38,6.46,6.48,5.33Zm-1,5.17h13a1,1,0,0,1,1,1v2H4.5v-2A1,1,0,0,1,5.5,10.5Zm13,9H5.5a1,1,0,0,1-1-1V15h15v3.5A1,1,0,0,1,18.5,19.5Z"/></svg>