<svg id="Layer_1" data-name="Layer 1" xmlns="http://www.w3.org/2000/svg" viewBox="0 0 24 24"><title>iconoteka_loan__rent__borrow_l_s</title><path d="M12,2A10,10,0,1,0,22,12,10,10,0,0,0,12,2Zm0,19.5A9.5,9.5,0,1,1,21.5,12,9.51,9.51,0,0,1,12,21.5ZM13.55,9,9.84,15h.61l3.71-6Zm.4,3.84A1.13,1.13,0,1,0,15.08,14,1.12,1.12,0,0,0,14,12.84Zm0,1.76a.63.63,0,1,1,.63-.63A.63.63,0,0,1,14,14.6ZM11.18,10a1.13,1.13,0,1,0-1.13,1.13A1.12,1.12,0,0,0,11.18,10ZM9.42,10a.63.63,0,1,1,.63.63A.63.63,0,0,1,9.42,10Z"/></svg>