<svg id="Layer_1" data-name="Layer 1" xmlns="http://www.w3.org/2000/svg" viewBox="0 0 24 24"><title>iconoteka_credit_card_r_s</title><path d="M19.5,4H4.5A2.5,2.5,0,0,0,2,6.5v11A2.5,2.5,0,0,0,4.5,20h15A2.5,2.5,0,0,0,22,17.5V6.5A2.5,2.5,0,0,0,19.5,4ZM21,8H17V9h4v2H17v1h4v5.5A1.5,1.5,0,0,1,19.5,19H4.5A1.5,1.5,0,0,1,3,17.5V12H7V11H3V9H7V8H3V6.5A1.5,1.5,0,0,1,4.5,5h15A1.5,1.5,0,0,1,21,6.5ZM13.26,9,9.55,15h1.19l3.71-6ZM14,12.82a1.21,1.21,0,1,0,1.2,1.2A1.2,1.2,0,0,0,14,12.82Zm0,1.66a.46.46,0,1,1,.45-.46A.46.46,0,0,1,14,14.48ZM11.19,10a1.2,1.2,0,1,0-1.2,1.2A1.2,1.2,0,0,0,11.19,10ZM9.54,10a.45.45,0,1,1,.45.45A.46.46,0,0,1,9.54,10Z"/></svg>