<svg id="Layer_1" data-name="Layer 1" xmlns="http://www.w3.org/2000/svg" viewBox="0 0 24 24"><title>iconoteka_travel_card_l_s</title><path d="M19,4H5A3,3,0,0,0,2,7V17a3,3,0,0,0,3,3H19a3,3,0,0,0,3-3V7A3,3,0,0,0,19,4Zm2.5,13A2.5,2.5,0,0,1,19,19.5H5A2.5,2.5,0,0,1,2.5,17V7A2.5,2.5,0,0,1,5,4.5H19A2.5,2.5,0,0,1,21.5,7Zm-9-6H10.67L9.11,8H7.72l.58,3H6.86l-.67-1h-1v4h1l.67-1H8.3l-.58,3H9.11l1.56-3H12.5a1,1,0,1,0,0-2Zm0,1.47H10.36l-.14.27L8.8,15.43H8.32l.47-2.38.12-.6H6.59l-.15.23-.52.79H5.69v-3h.23l.52.79.15.22H8.91l-.12-.6-.47-2.4H8.8l1.42,2.73.14.27H12.5a.49.49,0,1,1,0,1Z"/></svg>