<svg id="Layer_1" data-name="Layer 1" xmlns="http://www.w3.org/2000/svg" viewBox="0 0 24 24"><title>iconoteka_gift__present__charity_r_s</title><path d="M15.32,9c3.31-1.27,3.5-3.15,3.45-3.84a2.9,2.9,0,0,0-2.86-2.61h0c-1.09,0-3,.73-3.88,4.55-.87-3.81-2.79-4.54-3.88-4.55h0A2.89,2.89,0,0,0,5.23,5.16c-.05.69.14,2.57,3.45,3.84H3V21H21V9Zm.56-5.45h0a1.89,1.89,0,0,1,1.86,1.71c.1,1.29-1.3,2.88-5.2,3.61C13.05,5,14.58,3.56,15.88,3.55ZM6.23,5.26A1.89,1.89,0,0,1,8.09,3.55h0C9.42,3.56,11,5,11.43,8.87,7.53,8.14,6.13,6.55,6.23,5.26ZM4,20V10h7.5V20Zm16,0H12.5V10H20Z"/></svg>