<svg id="Layer_1" data-name="Layer 1" xmlns="http://www.w3.org/2000/svg" viewBox="0 0 24 24"><title>iconoteka_receipt_b_f</title><path d="M19.11,2a2.07,2.07,0,0,0-1.19.4,2.09,2.09,0,0,1-1.18.4,2.12,2.12,0,0,1-1.19-.4,2,2,0,0,0-2.38,0A2.12,2.12,0,0,1,12,2.8a2.09,2.09,0,0,1-1.17-.4A2,2,0,0,0,9.64,2a2.07,2.07,0,0,0-1.19.4,2.12,2.12,0,0,1-1.19.4,2.09,2.09,0,0,1-1.18-.4A2.07,2.07,0,0,0,4.89,2H4V21.8h.89a2.15,2.15,0,0,0,1.19-.4A2,2,0,0,1,7.26,21a2,2,0,0,1,1.19.4,2.15,2.15,0,0,0,1.19.4,2.15,2.15,0,0,0,1.19-.4A2,2,0,0,1,12,21a2,2,0,0,1,1.17.4,2.06,2.06,0,0,0,1.17.4,2.15,2.15,0,0,0,1.19-.4,2,2,0,0,1,1.19-.4,2,2,0,0,1,1.18.4,2.15,2.15,0,0,0,1.19.4H20V2ZM17,17H14V15h3Zm0-4H7V11H17Zm0-4H7V7H17Z"/></svg>