<svg id="Layer_1" data-name="Layer 1" xmlns="http://www.w3.org/2000/svg" viewBox="0 0 24 24"><title>iconoteka_gift__present__charity_m_s</title><path d="M16.21,9c2.72-1.35,2.86-3.06,2.8-3.73a3.09,3.09,0,0,0-3.07-2.72h0c-1.31,0-3,.92-3.89,4-.9-3.07-2.58-4-3.89-4h0A3.09,3.09,0,0,0,5,5.27c-.06.67.08,2.38,2.8,3.73H3V21H21V9Zm-.3-4.95h0a1.58,1.58,0,0,1,1.58,1.38c.1,1.13-1.22,2.56-4.65,3.35C13.36,5.33,14.75,4.06,15.91,4.05ZM6.48,5.43A1.58,1.58,0,0,1,8.06,4.05h0c1.16,0,2.55,1.28,3,4.73C7.7,8,6.38,6.56,6.48,5.43ZM4.5,19.5v-9h6.75v9Zm15,0H12.75v-9H19.5Z"/></svg>