<svg id="Layer_1" data-name="Layer 1" xmlns="http://www.w3.org/2000/svg" viewBox="0 0 24 24"><title>iconoteka_charity__donations_l_s</title><path d="M1,5V19H23V5ZM22.5,18.5H1.5V5.5h21ZM12,15.8c1.42-1,4-3.38,4-5.28A2.13,2.13,0,0,0,13.87,8.2,2.36,2.36,0,0,0,12,9.27,2.36,2.36,0,0,0,10.13,8.2,2.13,2.13,0,0,0,8,10.52C8,12.42,10.58,14.85,12,15.8ZM10.13,8.7a1.85,1.85,0,0,1,1.47.88l.4.52.4-.52a1.85,1.85,0,0,1,1.47-.88,1.64,1.64,0,0,1,1.63,1.82c0,1.43-1.95,3.54-3.5,4.67C10.45,14.06,8.5,12,8.5,10.52A1.64,1.64,0,0,1,10.13,8.7Z"/></svg>