<svg id="Layer_1" data-name="Layer 1" xmlns="http://www.w3.org/2000/svg" viewBox="0 0 24 24"><title>iconoteka_gift__present__charity_b_s</title><path d="M16.94,9c2.28-1.39,2.38-3,2.31-3.62A3.28,3.28,0,0,0,16,2.55h-.05c-1.5,0-3,1-3.91,3.58-.89-2.54-2.41-3.55-3.91-3.58H8A3.28,3.28,0,0,0,4.75,5.38C4.68,6,4.78,7.61,7.06,9H3V21H21V9Zm-1-4.45h0a1.27,1.27,0,0,1,1.3,1c.11,1-1.14,2.25-4.1,3.1C13.67,5.69,14.92,4.57,15.94,4.55ZM8,4.55h0c1,0,2.27,1.14,2.78,4.14-3-.85-4.21-2.11-4.1-3.1A1.27,1.27,0,0,1,8,4.55ZM5,19V11h6v8Zm14,0H13V11h6Z"/></svg>