<svg id="Layer_1" data-name="Layer 1" xmlns="http://www.w3.org/2000/svg" viewBox="0 0 24 24"><title>iconoteka_receipt_b_s</title><path d="M8,13h8V11H8ZM8,9h8V7H8Zm5,8h3V15H13ZM19.11,2a3.06,3.06,0,0,0-1.75.57,1,1,0,0,1-1.25,0,3,3,0,0,0-3.5,0A1.14,1.14,0,0,1,12,2.8a1.06,1.06,0,0,1-.6-.22A3,3,0,0,0,9.64,2a3,3,0,0,0-1.75.57,1,1,0,0,1-1.25,0A3.06,3.06,0,0,0,4.89,2H4V22h.89a3.06,3.06,0,0,0,1.75-.57,1,1,0,0,1,1.25,0,3,3,0,0,0,3.5,0A1.14,1.14,0,0,1,12,21.2a1.06,1.06,0,0,1,.6.22,3,3,0,0,0,1.74.58,3,3,0,0,0,1.75-.57,1,1,0,0,1,1.25,0,3.06,3.06,0,0,0,1.75.57H20V2ZM18,19.5a3,3,0,0,0-3,.28,1.09,1.09,0,0,1-.62.22,1,1,0,0,1-.6-.22A3,3,0,0,0,12,19.2a3.11,3.11,0,0,0-1.76.58,1,1,0,0,1-1.24,0,3,3,0,0,0-3-.28V4.5a3,3,0,0,0,1.26.3A3.11,3.11,0,0,0,9,4.22,1.09,1.09,0,0,1,9.64,4a1,1,0,0,1,.6.22A3,3,0,0,0,12,4.8a3.11,3.11,0,0,0,1.76-.58,1,1,0,0,1,1.24,0,3.11,3.11,0,0,0,1.76.58A3,3,0,0,0,18,4.5Z"/></svg>