<svg id="Layer_1" data-name="Layer 1" xmlns="http://www.w3.org/2000/svg" viewBox="0 0 24 24"><title>iconoteka_gift__present__charity_r_f</title><path d="M13.54,9c5-1.2,5.29-3.58,5.23-4.38A2.9,2.9,0,0,0,15.91,2h0c-1,0-3.06.64-3.88,4.75C11.18,2.65,9.15,2,8.12,2h0A2.9,2.9,0,0,0,5.23,4.62c-.06.8.2,3.18,5.23,4.38H3V21h8.5V9h1V21H21V9ZM6.23,4.72A1.89,1.89,0,0,1,8.09,3h0C9.42,3,11,4.43,11.43,8.33,7.53,7.6,6.13,6,6.23,4.72ZM15.88,3h0a1.89,1.89,0,0,1,1.86,1.71c.1,1.29-1.3,2.88-5.2,3.61C13.05,4.43,14.58,3,15.88,3Z"/></svg>