<svg id="Layer_1" data-name="Layer 1" xmlns="http://www.w3.org/2000/svg" viewBox="0 0 24 24"><title>iconoteka_gift__present__charity_m_f</title><path d="M14.22,9C18.87,7.62,19.08,5.3,19,4.5a3.09,3.09,0,0,0-3.07-2.72h0c-1.26,0-3,.84-3.89,4.17-.86-3.33-2.63-4.16-3.89-4.17h0A3.09,3.09,0,0,0,5,4.5c-.07.8.14,3.12,4.79,4.5H3V21h8.25V9h1.5V21H21V9ZM6.48,4.66A1.58,1.58,0,0,1,8.06,3.28h0c1.16,0,2.55,1.28,3,4.73C7.7,7.22,6.38,5.79,6.48,4.66Zm9.43-1.38h0a1.58,1.58,0,0,1,1.58,1.38c.1,1.13-1.22,2.56-4.65,3.35C13.36,4.56,14.75,3.29,15.91,3.28Z"/></svg>