<svg id="Layer_1" data-name="Layer 1" xmlns="http://www.w3.org/2000/svg" viewBox="0 0 24 24"><title>iconoteka_prepaid_card_m_s</title><path d="M19,4H5A3,3,0,0,0,2,7V17a3,3,0,0,0,3,3H19a3,3,0,0,0,3-3V7A3,3,0,0,0,19,4Zm1.5,5H16.61a5.66,5.66,0,0,1,.68,1.5H20.5V17A1.5,1.5,0,0,1,19,18.5H5A1.5,1.5,0,0,1,3.5,17V10.5H6.71A5.66,5.66,0,0,1,7.39,9H3.5V7A1.5,1.5,0,0,1,5,5.5H19A1.5,1.5,0,0,1,20.5,7ZM12,8.75A3.25,3.25,0,1,0,15.25,12,3.26,3.26,0,0,0,12,8.75Zm0,5.1A1.85,1.85,0,1,1,13.85,12,1.85,1.85,0,0,1,12,13.85Z"/></svg>