<svg id="Layer_1" data-name="Layer 1" xmlns="http://www.w3.org/2000/svg" viewBox="0 0 24 24"><title>iconoteka_gift_card__redeem_l_f</title><path d="M18.5,9H13.66c4.64-1.06,4.91-3.3,4.87-4a2.73,2.73,0,0,0-2.64-2.51h0c-.8,0-3.08.44-3.86,5.33-.78-4.89-3.06-5.33-3.86-5.33h0A2.73,2.73,0,0,0,5.47,5c0,.74.23,3,4.87,4H5.5A2.5,2.5,0,0,0,3,11.5v7A2.5,2.5,0,0,0,5.5,21h13A2.5,2.5,0,0,0,21,18.5v-7A2.5,2.5,0,0,0,18.5,9ZM15.86,3h0A2.22,2.22,0,0,1,18,5c.09,1.44-1.38,3.19-5.75,3.87C12.74,4.51,14.41,3,15.86,3ZM6,5A2.22,2.22,0,0,1,8.12,3h0c1.45,0,3.12,1.56,3.58,5.91C7.35,8.18,5.88,6.43,6,5ZM20.5,15H3.5V12h17Z"/></svg>