<svg id="Layer_1" data-name="Layer 1" xmlns="http://www.w3.org/2000/svg" viewBox="0 0 24 24"><title>iconoteka_prepaid_card_l_s</title><path d="M19.5,4H4.5A2.5,2.5,0,0,0,2,6.5v11A2.5,2.5,0,0,0,4.5,20h15A2.5,2.5,0,0,0,22,17.5V6.5A2.5,2.5,0,0,0,19.5,4Zm2,4H15.77a5.56,5.56,0,0,1,.47.5H21.5V11H17.4a2.74,2.74,0,0,1,.07.5h4v6a2,2,0,0,1-2,2H4.5a2,2,0,0,1-2-2v-6h4A2.74,2.74,0,0,1,6.6,11H2.5V8.5H7.76A5.56,5.56,0,0,1,8.23,8H2.5V6.5a2,2,0,0,1,2-2h15a2,2,0,0,1,2,2ZM12,8.75A3.25,3.25,0,1,0,15.25,12,3.26,3.26,0,0,0,12,8.75Zm0,6A2.75,2.75,0,1,1,14.75,12,2.75,2.75,0,0,1,12,14.75Z"/></svg>