<svg id="Layer_1" data-name="Layer 1" xmlns="http://www.w3.org/2000/svg" viewBox="0 0 24 24"><title>iconoteka_debit_card_r_s</title><path d="M12.73,11.5H11.26a.75.75,0,1,1,0-1.5H14V9H12.45V8h-.9V9h-.29a1.75,1.75,0,1,0,0,3.5h1.47a.75.75,0,0,1,0,1.5h-3v1h1.8v1.05h.9V15h.28a1.75,1.75,0,0,0,0-3.5ZM19.5,4H4.5A2.5,2.5,0,0,0,2,6.5v11A2.5,2.5,0,0,0,4.5,20h15A2.5,2.5,0,0,0,22,17.5V6.5A2.5,2.5,0,0,0,19.5,4ZM21,8H17V9h4v2H17v1h4v5.5A1.5,1.5,0,0,1,19.5,19H4.5A1.5,1.5,0,0,1,3,17.5V12H7V11H3V9H7V8H3V6.5A1.5,1.5,0,0,1,4.5,5h15A1.5,1.5,0,0,1,21,6.5Z"/></svg>