<svg id="Layer_1" data-name="Layer 1" xmlns="http://www.w3.org/2000/svg" viewBox="0 0 24 24"><title>iconoteka_gift_card__redeem_r_s</title><path d="M18.5,9H15.06c3.58-1.27,3.76-3.23,3.71-3.94a2.9,2.9,0,0,0-2.86-2.61h0c-1.09,0-3,.73-3.88,4.55-.87-3.82-2.79-4.54-3.88-4.55h0A2.89,2.89,0,0,0,5.23,5.06c-.05.71.13,2.67,3.71,3.94H5.5A2.5,2.5,0,0,0,3,11.5v7A2.5,2.5,0,0,0,5.5,21h13A2.5,2.5,0,0,0,21,18.5v-7A2.5,2.5,0,0,0,18.5,9ZM15.88,3.45h0a1.89,1.89,0,0,1,1.86,1.71c.1,1.29-1.3,2.88-5.2,3.61C13.05,4.87,14.58,3.46,15.88,3.45ZM6.23,5.16A1.89,1.89,0,0,1,8.09,3.45h0c1.3,0,2.83,1.42,3.31,5.32C7.53,8,6.13,6.45,6.23,5.16ZM20,18.5A1.5,1.5,0,0,1,18.5,20H5.5A1.5,1.5,0,0,1,4,18.5V16H20ZM20,15H4V13H20ZM4,12v-.5A1.5,1.5,0,0,1,5.5,10h13A1.5,1.5,0,0,1,20,11.5V12Z"/></svg>