<svg id="Layer_1" data-name="Layer 1" xmlns="http://www.w3.org/2000/svg" viewBox="0 0 24 24"><title>iconoteka_credit_card_r_f</title><path d="M14,13.57a.46.46,0,1,0,.45.45A.45.45,0,0,0,14,13.57ZM10.44,10a.45.45,0,1,0-.45.45A.46.46,0,0,0,10.44,10ZM19.5,4H4.5A2.5,2.5,0,0,0,2,6.5v11A2.5,2.5,0,0,0,4.5,20h15A2.5,2.5,0,0,0,22,17.5V6.5A2.5,2.5,0,0,0,19.5,4ZM7,11H3V8H7Zm1.79-1a1.2,1.2,0,1,1,1.2,1.2A1.21,1.21,0,0,1,8.79,10Zm.76,5,3.71-6h1.19l-3.71,6Zm4.46.23A1.21,1.21,0,1,1,15.21,14,1.2,1.2,0,0,1,14,15.23ZM21,11H17V8h4Z"/></svg>