<svg id="Layer_1" data-name="Layer 1" xmlns="http://www.w3.org/2000/svg" viewBox="0 0 24 24"><title>iconoteka_gift__present__charity_b_f</title><path d="M14.75,9c4.4-1.54,4.59-3.81,4.5-4.62A3.28,3.28,0,0,0,16,1.55h-.05c-1.5,0-3,1-3.91,3.58-.89-2.54-2.41-3.55-3.91-3.58H8A3.28,3.28,0,0,0,4.75,4.38c-.09.81.1,3.08,4.5,4.62H3V21h8V9h2V21h8V9Zm-8-4.41a1.27,1.27,0,0,1,1.3-1h0c1,0,2.27,1.14,2.78,4.14C7.88,6.84,6.63,5.58,6.74,4.59Zm9.2-1h0a1.27,1.27,0,0,1,1.3,1c.11,1-1.14,2.25-4.1,3.1C13.67,4.69,14.92,3.57,15.94,3.55Z"/></svg>