<svg id="Layer_1" data-name="Layer 1" xmlns="http://www.w3.org/2000/svg" viewBox="0 0 24 24"><title>iconoteka_debit_card_l_s</title><path d="M12.86,11.75H11.12a1.13,1.13,0,0,1,0-2.25H14V9H12.22V8h-.44V9h-.66a1.63,1.63,0,0,0,0,3.25h1.74a1.13,1.13,0,1,1,0,2.25H9.75V15h2v1.05h.44V15h.64a1.63,1.63,0,1,0,0-3.25ZM19.5,4H4.5A2.5,2.5,0,0,0,2,6.5v11A2.5,2.5,0,0,0,4.5,20h15A2.5,2.5,0,0,0,22,17.5V6.5A2.5,2.5,0,0,0,19.5,4Zm2,4H17v.5h4.5V11H17v.5h4.5v6a2,2,0,0,1-2,2H4.5a2,2,0,0,1-2-2v-6H7V11H2.5V8.5H7V8H2.5V6.5a2,2,0,0,1,2-2h15a2,2,0,0,1,2,2Z"/></svg>