<svg id="Layer_1" data-name="Layer 1" xmlns="http://www.w3.org/2000/svg" viewBox="0 0 24 24"><title>iconoteka_screen_rotation_m_f</title><path d="M15.5,3h-7A2.5,2.5,0,0,0,6,5.5v13A2.5,2.5,0,0,0,8.5,21h7A2.5,2.5,0,0,0,18,18.5V5.5A2.5,2.5,0,0,0,15.5,3ZM1.42,14.58l.14.14L.31,16H3.85V12.43L2.48,13.8l-.14-.14a2.4,2.4,0,0,1,0-3.32A2.3,2.3,0,0,1,4,9.65V8.35A3.61,3.61,0,0,0,1.42,9.42,3.73,3.73,0,0,0,1.42,14.58Zm21-5.3L23.69,8H20.15v3.54l1.37-1.37.14.14a2.4,2.4,0,0,1,0,3.32,2.3,2.3,0,0,1-1.66.69v1.3a3.61,3.61,0,0,0,2.58-1.07,3.73,3.73,0,0,0,0-5.16Z"/></svg>