<svg id="Layer_1" data-name="Layer 1" xmlns="http://www.w3.org/2000/svg" viewBox="0 0 24 24"><title>iconoteka_battery_unknown_b_s</title><path d="M16,3H14a2,2,0,0,0-4,0H8A3,3,0,0,0,5,6V20a3,3,0,0,0,3,3h8a3,3,0,0,0,3-3V6A3,3,0,0,0,16,3Zm1,17a1,1,0,0,1-1,1H8a1,1,0,0,1-1-1V6A1,1,0,0,1,8,5h8a1,1,0,0,1,1,1Zm-5.25-3.89a1.15,1.15,0,0,0,0,2.3,1.15,1.15,0,0,0,0-2.3ZM12,8.24a3.28,3.28,0,0,0-3.29,3.63h1.9c0-1.12.5-1.73,1.39-1.73a1.17,1.17,0,0,1,1.27,1c0,.56-.18.72-.77,1.13a3.27,3.27,0,0,0-1.69,3h1.9c0-.79.29-1,.87-1.4A3,3,0,0,0,12,8.24Z"/></svg>