<svg id="Layer_1" data-name="Layer 1" xmlns="http://www.w3.org/2000/svg" viewBox="0 0 24 24"><title>iconoteka_screen_lock_rotation_m_s</title><path d="M15.5,3h-7A2.5,2.5,0,0,0,6,5.5v13A2.5,2.5,0,0,0,8.5,21h7A2.5,2.5,0,0,0,18,18.5V5.5A2.5,2.5,0,0,0,15.5,3Zm1,15.5a1,1,0,0,1-1,1h-7a1,1,0,0,1-1-1V5.5a1,1,0,0,1,1-1h7a1,1,0,0,1,1,1ZM14,10a2,2,0,0,0-4,0v1H9v4h6V11H14Zm-2.9,0a.9.9,0,0,1,1.8,0v1H11.1Zm2.7,3.8H10.2V12.25h3.6Zm-12.38.78.14.14L.31,16H3.85V12.43L2.48,13.8l-.14-.14a2.4,2.4,0,0,1,0-3.32A2.3,2.3,0,0,1,4,9.65V8.35A3.61,3.61,0,0,0,1.42,9.42,3.73,3.73,0,0,0,1.42,14.58Zm21-5.3L23.69,8H20.15v3.54l1.37-1.37.14.14a2.4,2.4,0,0,1,0,3.32,2.3,2.3,0,0,1-1.66.69v1.3a3.61,3.61,0,0,0,2.58-1.07,3.73,3.73,0,0,0,0-5.16Z"/></svg>