<svg id="Layer_1" data-name="Layer 1" xmlns="http://www.w3.org/2000/svg" viewBox="0 0 24 24"><title>iconoteka_cell_phone_with_keyboard__old_phone_b_f</title><path d="M15.5,2h-7A2.5,2.5,0,0,0,6,4.5v15A2.5,2.5,0,0,0,8.5,22h7A2.5,2.5,0,0,0,18,19.5V4.5A2.5,2.5,0,0,0,15.5,2ZM8,5h8v5H8Zm.81,15a1,1,0,1,1,1-1A1,1,0,0,1,8.81,20Zm0-3a1,1,0,1,1,1-1A1,1,0,0,1,8.81,17Zm0-3a1,1,0,1,1,1-1A1,1,0,0,1,8.81,14ZM12,20a1,1,0,1,1,1-1A1,1,0,0,1,12,20Zm0-3a1,1,0,1,1,1-1A1,1,0,0,1,12,17Zm0-3a1,1,0,1,1,1-1A1,1,0,0,1,12,14Zm3.19,6a1,1,0,1,1,1-1A1,1,0,0,1,15.19,20Zm0-3a1,1,0,1,1,1-1A1,1,0,0,1,15.19,17Zm0-3a1,1,0,1,1,1-1A1,1,0,0,1,15.19,14Z"/></svg>