<svg id="Layer_1" data-name="Layer 1" xmlns="http://www.w3.org/2000/svg" viewBox="0 0 24 24"><title>iconoteka_power_socket_j_l_s</title><path d="M19,5H5L.57,12,5,19H19l4.47-7Zm-.27,13.5H5.31L1.16,12,5.31,5.5H18.69L22.84,12ZM12,6.59a2.28,2.28,0,1,0,2.28,2.28A2.28,2.28,0,0,0,12,6.59Zm0,4.05a1.78,1.78,0,1,1,1.78-1.77A1.78,1.78,0,0,1,12,10.64Zm5.64-.14a1.5,1.5,0,1,0,1.5,1.5A1.5,1.5,0,0,0,17.64,10.5Zm0,2.5a1,1,0,1,1,1-1A1,1,0,0,1,17.64,13ZM12,14a1.5,1.5,0,1,0,1.5,1.5A1.5,1.5,0,0,0,12,14Zm0,2.5a1,1,0,1,1,1-1A1,1,0,0,1,12,16.48Zm-5.64-6A1.5,1.5,0,1,0,7.86,12,1.5,1.5,0,0,0,6.36,10.5Zm0,2.5a1,1,0,1,1,1-1A1,1,0,0,1,6.36,13Z"/></svg>