<svg id="Layer_1" data-name="Layer 1" xmlns="http://www.w3.org/2000/svg" viewBox="0 0 24 24"><title>iconoteka_cameras__photo_fear_party_mode_l_s</title><path d="M16,19.5H4A1.5,1.5,0,0,1,2.5,18V10.33A1.5,1.5,0,0,1,4,8.83v-.5a2,2,0,0,0-2,2V18a2,2,0,0,0,2,2H16a2,2,0,0,0,2-2h-.5A1.5,1.5,0,0,1,16,19.5ZM20,4.33H18.11L16.73,2H11.27L9.89,4.33H8a2,2,0,0,0-2,2V14a2,2,0,0,0,2,2H20a2,2,0,0,0,2-2V6.33A2,2,0,0,0,20,4.33ZM21.5,14A1.5,1.5,0,0,1,20,15.5H8A1.5,1.5,0,0,1,6.5,14V6.33A1.5,1.5,0,0,1,8,4.83h2.17l.15-.24L11.56,2.5h4.88l1.24,2.09.15.24H20a1.5,1.5,0,0,1,1.5,1.5ZM14,6.66a3,3,0,1,0,3,3A3,3,0,0,0,14,6.66Zm0,5.5a2.5,2.5,0,1,1,2.5-2.5A2.51,2.51,0,0,1,14,12.16Z"/></svg>