<svg id="Layer_1" data-name="Layer 1" xmlns="http://www.w3.org/2000/svg" viewBox="0 0 24 24"><title>iconoteka_watch__analog_l_s</title><path d="M16,6.26V3a2,2,0,0,0-2-2H10A2,2,0,0,0,8,3V6.26A7,7,0,0,0,8,17.74V21a2,2,0,0,0,2,2h4a2,2,0,0,0,2-2V17.74A7,7,0,0,0,16,6.26ZM8.5,3A1.5,1.5,0,0,1,10,1.5h4A1.5,1.5,0,0,1,15.5,3V5.94a7,7,0,0,0-7,0Zm7,18A1.5,1.5,0,0,1,14,22.5H10A1.5,1.5,0,0,1,8.5,21V18.06a7,7,0,0,0,7,0ZM12,18.5A6.5,6.5,0,1,1,18.5,12,6.51,6.51,0,0,1,12,18.5ZM12.12,8h-.5v4.38h3.79v-.5H12.12Z"/></svg>