<svg id="Layer_1" data-name="Layer 1" xmlns="http://www.w3.org/2000/svg" viewBox="0 0 24 24"><title>iconoteka_keyboard_wireless_r_s</title><path d="M20.5,6H3.5A2.5,2.5,0,0,0,1,8.5v11A2.5,2.5,0,0,0,3.5,22h17A2.5,2.5,0,0,0,23,19.5V8.5A2.5,2.5,0,0,0,20.5,6ZM22,19.5A1.5,1.5,0,0,1,20.5,21H3.5A1.5,1.5,0,0,1,2,19.5V8.5A1.5,1.5,0,0,1,3.5,7h17A1.5,1.5,0,0,1,22,8.5Zm-18-8H7V9H4Zm.86-1.64H6.14v.78H4.86ZM17,11.5h3V9H17Zm.86-1.64h1.28v.78H17.86ZM11.33,9h-3v2.5h3Zm-.86,1.64H9.19V9.86h1.28Zm2.2.86h3V9h-3Zm.86-1.64h1.28v.78H13.53ZM4,19H7V16.5H4Zm.86-1.64H6.14v.78H4.86ZM17,19h3V16.5H17Zm.86-1.64h1.28v.78H17.86ZM8.33,19h7.34V16.5H8.33Zm.86-1.64h5.62v.78H9.19ZM4,15.25H7v-2.5H4Zm.86-1.64H6.14v.78H4.86ZM17,15.25h3v-2.5H17Zm.86-1.64h1.28v.78H17.86Zm-6.53-.86h-3v2.5h3Zm-.86,1.64H9.19v-.78h1.28Zm2.2.86h3v-2.5h-3Zm.86-1.64h1.28v.78H13.53ZM12,2.12a5.46,5.46,0,0,1,3.89,1.61L16.6,3A6.49,6.49,0,0,0,7.4,3l.71.7A5.46,5.46,0,0,1,12,2.12Z"/></svg>