<svg id="Layer_1" data-name="Layer 1" xmlns="http://www.w3.org/2000/svg" viewBox="0 0 24 24"><title>iconoteka_gamepad__joystick__controller_m_s</title><path d="M7.61,7.54H6.39V9.39H4.54v1.22H6.39v1.85H7.61V10.61H9.46V9.39H7.61ZM17,7.5a2.49,2.49,0,1,0,1.77.73A2.5,2.5,0,0,0,17,7.5Zm.9,3.4a1.28,1.28,0,1,1,.37-.9A1.31,1.31,0,0,1,17.9,10.9ZM18,4H6A5,5,0,0,0,1,9v8.66a3.34,3.34,0,0,0,6.47,1.16L8.5,16h7l1,2.82A3.34,3.34,0,0,0,23,17.66V9A5,5,0,0,0,18,4Zm3.5,13.66a1.84,1.84,0,0,1-3.57.62l-1-2.82-.37-1H7.47l-.37,1-1,2.82a1.84,1.84,0,0,1-3.57-.62V9A3.5,3.5,0,0,1,6,5.5H18A3.5,3.5,0,0,1,21.5,9Z"/></svg>