<svg id="Layer_1" data-name="Layer 1" xmlns="http://www.w3.org/2000/svg" viewBox="0 0 24 24"><title>iconoteka_power_settings_b_s</title><path d="M13,2H11V12h2Zm6.93,9A8.26,8.26,0,0,1,20,12,8,8,0,1,1,6.34,6.34,8.5,8.5,0,0,1,8,5.07L7,3.34A10,10,0,1,0,22,12c0-.34,0-.67-.05-1ZM21.5,4.51l1.24-.9a4.13,4.13,0,0,0-.67-1.15l-1.4.62-.84-.49-.17-1.52a3.15,3.15,0,0,0-1.32,0l-.17,1.52-.84.49-1.4-.62a4.13,4.13,0,0,0-.67,1.15l1.24.9v1l-1.24.9a4.13,4.13,0,0,0,.67,1.15l1.4-.62.84.49.17,1.52a3.15,3.15,0,0,0,1.32,0l.17-1.52.84-.49,1.4.62a4.13,4.13,0,0,0,.67-1.15l-1.24-.9ZM19,6a1,1,0,1,1,1-1A1,1,0,0,1,19,6Z"/></svg>