<svg id="Layer_1" data-name="Layer 1" xmlns="http://www.w3.org/2000/svg" viewBox="0 0 24 24"><title>iconoteka_microphone_off_alt__voice_off_m_s</title><path d="M20.53,18.31l-1.88-1.88A7.93,7.93,0,0,0,20,12V10H18.5v2a6.49,6.49,0,0,1-.94,3.35l-1.85-1.86A4.08,4.08,0,0,0,16,12V5A4,4,0,0,0,8,5v.78L4.53,2.31,3.47,3.37,8,7.9V12a4,4,0,0,0,4,4,4,4,0,0,0,2.87-1.23l1.77,1.77A6.49,6.49,0,0,1,5.5,12V10H4v2a8,8,0,0,0,7.25,8v3h1.5V20A8,8,0,0,0,17.7,17.6l1.77,1.77ZM9.5,5a2.5,2.5,0,0,1,5,0v7a2.3,2.3,0,0,1,0,.26l-5-5ZM12,14.5A2.5,2.5,0,0,1,9.5,12V9.4l4.31,4.31A2.47,2.47,0,0,1,12,14.5Z"/></svg>