<svg id="Layer_1" data-name="Layer 1" xmlns="http://www.w3.org/2000/svg" viewBox="0 0 24 24"><title>iconoteka_power_socket_j_l_f</title><path d="M12,7.09a1.78,1.78,0,1,0,1.78,1.78A1.78,1.78,0,0,0,12,7.09ZM6.36,11a1,1,0,1,0,1,1A1,1,0,0,0,6.36,11ZM12,14.48a1,1,0,1,0,1,1A1,1,0,0,0,12,14.48ZM19,5H5L.57,12,5,19H19l4.47-7ZM6.36,13.5A1.5,1.5,0,1,1,7.86,12,1.5,1.5,0,0,1,6.36,13.5ZM12,17a1.5,1.5,0,1,1,1.5-1.5A1.5,1.5,0,0,1,12,17Zm0-5.84a2.28,2.28,0,1,1,2.28-2.27A2.28,2.28,0,0,1,12,11.14Zm5.64,2.36a1.5,1.5,0,1,1,1.5-1.5A1.5,1.5,0,0,1,17.64,13.5Zm0-2.5a1,1,0,1,0,1,1A1,1,0,0,0,17.64,11Z"/></svg>