<svg id="Layer_1" data-name="Layer 1" xmlns="http://www.w3.org/2000/svg" viewBox="0 0 24 24"><title>iconoteka_cell_phone_flip_r_s</title><path d="M18,11V4a2,2,0,0,0-2-2H8A2,2,0,0,0,6,4v7a2,2,0,0,0,.69,1.5A2,2,0,0,0,6,14v6a2,2,0,0,0,2,2h8a2,2,0,0,0,2-2V14a2,2,0,0,0-.69-1.5A2,2,0,0,0,18,11ZM7,14a1,1,0,0,1,1-1H9.68v2.1H7Zm3.48,1.1V13h3v2.1Zm3,.8v2.2h-3V15.9ZM7,15.9H9.68v2.2H7ZM8,21a1,1,0,0,1-1-1V18.9H9.68V21Zm2.48,0V18.9h3V21ZM17,20a1,1,0,0,1-1,1H14.32V18.9H17Zm0-1.9H14.32V15.9H17ZM17,14v1.1H14.32V13H16A1,1,0,0,1,17,14Zm-2.68-2H8a1,1,0,0,1-1-1V4A1,1,0,0,1,8,3h8a1,1,0,0,1,1,1v7a1,1,0,0,1-1,1Z"/></svg>