<svg id="Layer_1" data-name="Layer 1" xmlns="http://www.w3.org/2000/svg" viewBox="0 0 24 24"><title>iconoteka_permission_camera_microphone_m_s</title><path d="M19,6H17.14L15.41,3H8.59L6.86,6H5A3,3,0,0,0,2,9v9a3,3,0,0,0,3,3H19a3,3,0,0,0,3-3V9A3,3,0,0,0,19,6Zm1.5,12A1.5,1.5,0,0,1,19,19.5H5A1.5,1.5,0,0,1,3.5,18V9A1.5,1.5,0,0,1,5,7.5H7.72l.44-.75L9.46,4.5h5.08l1.3,2.25.44.75H19A1.5,1.5,0,0,1,20.5,9Zm-8.62-4.35A1.15,1.15,0,0,0,13,12.5V10.17a1.16,1.16,0,0,0-2.31,0V12.5A1.15,1.15,0,0,0,11.88,13.65Zm0,1.18A2.56,2.56,0,0,1,9.34,12.5H8.14A3.76,3.76,0,0,0,11.28,16V17.5h1.19V16a3.76,3.76,0,0,0,3.14-3.47h-1.2A2.55,2.55,0,0,1,11.88,14.83Z"/></svg>