<svg id="Layer_1" data-name="Layer 1" xmlns="http://www.w3.org/2000/svg" viewBox="0 0 24 24"><title>iconoteka_gamepad_wireless__joystick__controller_b_s</title><path d="M11.83,2.12a5,5,0,0,1,3.54,1.47l1.41-1.42a7,7,0,0,0-9.9,0L8.3,3.59A4.94,4.94,0,0,1,11.83,2.12ZM7.8,8.5H6.2v1.7H4.5v1.6H6.2v1.7H7.8V11.8H9.5V10.2H7.8Zm9.2,0a2.49,2.49,0,1,0,1.77.73A2.5,2.5,0,0,0,17,8.5Zm.64,3.14A.92.92,0,1,1,17.9,11,.9.9,0,0,1,17.64,11.64ZM18,5H6a5,5,0,0,0-5,5v8.42a3.58,3.58,0,0,0,6.9,1.33L9,17h6l1.1,2.75A3.58,3.58,0,0,0,23,18.42V10A5,5,0,0,0,18,5Zm3,13.42A1.58,1.58,0,0,1,19.42,20,1.56,1.56,0,0,1,18,19l-1.1-2.75L16.35,15H7.65l-.51,1.26L6,19a1.56,1.56,0,0,1-1.46,1A1.58,1.58,0,0,1,3,18.42V10A3,3,0,0,1,6,7H18a3,3,0,0,1,3,3Z"/></svg>