<svg id="Layer_1" data-name="Layer 1" xmlns="http://www.w3.org/2000/svg" viewBox="0 0 24 24"><title>iconoteka_permission_camera_microphone_b_s</title><path d="M19,6H17.14L15.41,3H8.59L6.86,6H5A3,3,0,0,0,2,9v9a3,3,0,0,0,3,3H19a3,3,0,0,0,3-3V9A3,3,0,0,0,19,6Zm1,12a1,1,0,0,1-1,1H12.75V17.67a4.74,4.74,0,0,0,4-4.67V12h-1.5v1a3.25,3.25,0,0,1-6.5,0V12H7.25v1a4.74,4.74,0,0,0,4,4.67V19H5a1,1,0,0,1-1-1V9A1,1,0,0,1,5,8H8L9.75,5h4.5L16,8h3a1,1,0,0,1,1,1ZM12,8a2,2,0,0,0-2,2v3a2,2,0,0,0,4,0V10A2,2,0,0,0,12,8Z"/></svg>