<svg id="Layer_1" data-name="Layer 1" xmlns="http://www.w3.org/2000/svg" viewBox="0 0 24 24"><title>iconoteka_hide_keyboard_r_s</title><path d="M20.5,3H3.5A2.5,2.5,0,0,0,1,5.5v11A2.5,2.5,0,0,0,3.5,19h17A2.5,2.5,0,0,0,23,16.5V5.5A2.5,2.5,0,0,0,20.5,3ZM22,16.5A1.5,1.5,0,0,1,20.5,18H3.5A1.5,1.5,0,0,1,2,16.5V5.5A1.5,1.5,0,0,1,3.5,4h17A1.5,1.5,0,0,1,22,5.5ZM4,8.5H7V6H4Zm.86-1.64H6.14v.78H4.86ZM17,8.5h3V6H17Zm.86-1.64h1.28v.78H17.86ZM11.33,6h-3V8.5h3Zm-.86,1.64H9.19V6.86h1.28Zm2.2.86h3V6h-3Zm.86-1.64h1.28v.78H13.53ZM4,16H7V13.5H4Zm.86-1.64H6.14v.78H4.86ZM17,16h3V13.5H17Zm.86-1.64h1.28v.78H17.86ZM8.33,16h7.34V13.5H8.33Zm.86-1.64h5.62v.78H9.19ZM4,12.25H7V9.75H4Zm.86-1.64H6.14v.78H4.86ZM17,12.25h3V9.75H17Zm.86-1.64h1.28v.78H17.86Zm-6.53-.86h-3v2.5h3Zm-.86,1.64H9.19v-.78h1.28Zm2.2.86h3V9.75h-3Zm.86-1.64h1.28v.78H13.53ZM12,22.59l-2-2-.71.71L12,24l2.68-2.68L14,20.61Z"/></svg>