<svg id="Layer_1" data-name="Layer 1" xmlns="http://www.w3.org/2000/svg" viewBox="0 0 24 24"><title>iconoteka_keyboard_wire_l_s</title><path d="M20.5,5H12.25V3.25A1.76,1.76,0,0,1,14,1.5h2V1H14a2.25,2.25,0,0,0-2.25,2.25V5H3.5A2.5,2.5,0,0,0,1,7.5v11A2.5,2.5,0,0,0,3.5,21h17A2.5,2.5,0,0,0,23,18.5V7.5A2.5,2.5,0,0,0,20.5,5Zm2,13.5a2,2,0,0,1-2,2H3.5a2,2,0,0,1-2-2V7.5a2,2,0,0,1,2-2h17a2,2,0,0,1,2,2ZM4,10.5H7V8H4Zm.5-2h2V10h-2Zm12.5,2h3V8H17Zm.5-2h2V10h-2ZM11.33,8h-3v2.5h3Zm-.5,2h-2V8.5h2Zm1.84.5h3V8h-3Zm.5-2h2V10h-2ZM4,18H7V15.5H4Zm.5-2h2v1.5h-2ZM17,18h3V15.5H17Zm.5-2h2v1.5h-2ZM8.33,18h7.34V15.5H8.33Zm.5-2h6.34v1.5H8.83ZM4,14.25H7v-2.5H4Zm.5-2h2v1.5h-2Zm12.5,2h3v-2.5H17Zm.5-2h2v1.5h-2Zm-6.17-.5h-3v2.5h3Zm-.5,2h-2v-1.5h2Zm1.84.5h3v-2.5h-3Zm.5-2h2v1.5h-2Z"/></svg>