<svg id="Layer_1" data-name="Layer 1" xmlns="http://www.w3.org/2000/svg" viewBox="0 0 24 24"><title>iconoteka_voice_settings__microphone_r_s</title><path d="M9,16a4,4,0,0,0,4-4V5A4,4,0,0,0,5,5v7A4,4,0,0,0,9,16ZM6,5a3,3,0,0,1,6,0v7a3,3,0,0,1-6,0Zm10,7A7,7,0,0,1,2,12V10H1v2a8,8,0,0,0,7.5,8v3h1V20A8,8,0,0,0,17,12V10H16Zm5.66-7,1.22-.87A3.63,3.63,0,0,0,22.46,3a4,4,0,0,0-.75-.92l-1.38.62h0L20.18,1.2a3.58,3.58,0,0,0-2.36,0l-.14,1.49h0l-1.38-.62a4,4,0,0,0-.75.92,3.63,3.63,0,0,0-.42,1.12L16.34,5V5l-1.22.87A3.63,3.63,0,0,0,15.54,7a4,4,0,0,0,.75.92l1.38-.62h0l.14,1.49a3.58,3.58,0,0,0,2.36,0l.14-1.49h0l1.38.62A4,4,0,0,0,22.46,7a3.63,3.63,0,0,0,.42-1.12L21.66,5ZM22,6.19a2.46,2.46,0,0,1-.21.43,2,2,0,0,1-.27.4l-.9-.4-.36-.16-.33.2-.33.19,0,.38-.1,1a2.9,2.9,0,0,1-1,0l-.1-1-.05-.39L18,6.65l-.33-.19-.35.16-.9.4a2,2,0,0,1-.27-.4A2.46,2.46,0,0,1,16,6.19l.8-.57.31-.24V4.61l-.31-.23L16,3.81a2.46,2.46,0,0,1,.21-.43,2,2,0,0,1,.27-.4l.9.4.36.16.33-.2.33-.19,0-.38.1-1a2.9,2.9,0,0,1,1,0l.1,1,.05.39.33.19.33.19.35-.16.9-.4a2,2,0,0,1,.27.4,2.46,2.46,0,0,1,.21.43l-.8.57-.31.24v.77l.31.23ZM19,4.25a.75.75,0,1,0,.75.75A.76.76,0,0,0,19,4.25Z"/></svg>