<svg id="Layer_1" data-name="Layer 1" xmlns="http://www.w3.org/2000/svg" viewBox="0 0 24 24"><title>iconoteka_cell_phone_with_keyboard__old_phone_r_s</title><path d="M15.5,2h-7A2.5,2.5,0,0,0,6,4.5v15A2.5,2.5,0,0,0,8.5,22h7A2.5,2.5,0,0,0,18,19.5V4.5A2.5,2.5,0,0,0,15.5,2ZM7,13H9.68v2.1H7Zm3.48,2.1V13h3v2.1Zm3,.8v2.2h-3V15.9ZM7,15.9H9.68v2.2H7ZM8.5,21A1.5,1.5,0,0,1,7,19.5v-.6H9.68V21Zm2,0V18.9h3V21ZM17,19.5A1.5,1.5,0,0,1,15.5,21H14.32V18.9H17Zm0-1.4H14.32V15.9H17Zm0-3H14.32V13H17ZM7,12V4.5A1.5,1.5,0,0,1,8.5,3h7A1.5,1.5,0,0,1,17,4.5V12Z"/></svg>