<svg id="Layer_1" data-name="Layer 1" xmlns="http://www.w3.org/2000/svg" viewBox="0 0 24 24"><title>iconoteka_battery_charging_75_r_s</title><path d="M5.33,19h7.34v-.9H5.33Zm0-7.4h7.34v-.9H5.33Zm0,3.7h7.34v-.9H5.33ZM13.5,3H11A2,2,0,0,0,7,3H4.5A2.5,2.5,0,0,0,2,5.5v15A2.5,2.5,0,0,0,4.5,23h9A2.5,2.5,0,0,0,16,20.5V5.5A2.5,2.5,0,0,0,13.5,3ZM9,2a1,1,0,0,1,1,1H8A1,1,0,0,1,9,2Zm6,18.5A1.5,1.5,0,0,1,13.5,22h-9A1.5,1.5,0,0,1,3,20.5V5.5A1.5,1.5,0,0,1,4.5,4h9A1.5,1.5,0,0,1,15,5.5ZM21.21,3.83V1.17H19.7l-2,5.66H20.5V9.49H22l2-5.66Zm.2,4.81h-.06V6H18.89L20.3,2h.06V4.68h2.47Z"/></svg>