<svg id="Layer_1" data-name="Layer 1" xmlns="http://www.w3.org/2000/svg" viewBox="0 0 24 24"><title>iconoteka_gamepad_wire__joystick__controller_l_f</title><path d="M18,5H12.25V3.25A1.76,1.76,0,0,1,14,1.5h3V1H14a2.25,2.25,0,0,0-2.25,2.25V5H6a5,5,0,0,0-5,5v9.13A2.86,2.86,0,0,0,6.61,20L7.49,17h9L17.39,20A2.86,2.86,0,0,0,23,19.13V10A5,5,0,0,0,18,5ZM9.38,11.24H7.24v2.14H6.76V11.24H4.62v-.48H6.76V8.62h.48v2.14H9.38Zm9.39,1.53A2.51,2.51,0,1,1,19.5,11,2.5,2.5,0,0,1,18.77,12.77ZM17,9a2,2,0,1,0,1.41.59A2,2,0,0,0,17,9Z"/></svg>