<svg id="Layer_1" data-name="Layer 1" xmlns="http://www.w3.org/2000/svg" viewBox="0 0 24 24"><title>iconoteka_device_settings_b_f</title><path d="M12,11a1,1,0,1,0,1,1A1,1,0,0,0,12,11Zm3.5-9h-7A2.5,2.5,0,0,0,6,4.5v15A2.5,2.5,0,0,0,8.5,22h7A2.5,2.5,0,0,0,18,19.5V4.5A2.5,2.5,0,0,0,15.5,2Zm.24,11.39a4.13,4.13,0,0,1-.67,1.15l-1.4-.62-.84.49-.17,1.52a3.15,3.15,0,0,1-1.32,0l-.17-1.52-.84-.49-1.4.62a4.13,4.13,0,0,1-.67-1.15l1.24-.9v-1l-1.24-.9a4.13,4.13,0,0,1,.67-1.15l1.4.62.84-.49.17-1.52a3.15,3.15,0,0,1,1.32,0l.17,1.52.84.49,1.4-.62a4.13,4.13,0,0,1,.67,1.15l-1.24.9v1Z"/></svg>