<svg id="Layer_1" data-name="Layer 1" xmlns="http://www.w3.org/2000/svg" viewBox="0 0 24 24"><title>iconoteka_permission_camera_microphone_r_s</title><path d="M19,6H17.14L15.41,3H8.59L6.86,6H5A3,3,0,0,0,2,9v9a3,3,0,0,0,3,3H19a3,3,0,0,0,3-3V9A3,3,0,0,0,19,6Zm2,12a2,2,0,0,1-2,2H5a2,2,0,0,1-2-2V9A2,2,0,0,1,5,7H7.44l.28-.5L9.17,4h5.66l1.45,2.5.28.5H19a2,2,0,0,1,2,2Zm-9.12-3.9a1.43,1.43,0,0,0,1.42-1.42V10.44a1.43,1.43,0,0,0-2.85,0v2.24A1.43,1.43,0,0,0,11.88,14.1Zm-.53-3.66a.53.53,0,0,1,1.05,0v2.24a.53.53,0,0,1-1.05,0Zm.53,4.8a2.57,2.57,0,0,1-2.57-2.56h-.9a3.45,3.45,0,0,0,3,3.41V17.5h.91V16.09a3.45,3.45,0,0,0,3-3.41h-.9A2.56,2.56,0,0,1,11.88,15.24Z"/></svg>