<svg id="Layer_1" data-name="Layer 1" xmlns="http://www.w3.org/2000/svg" viewBox="0 0 24 24"><title>iconoteka_power_socket_d_r_s</title><path d="M12,6.59a2.28,2.28,0,1,0,2.28,2.28A2.28,2.28,0,0,0,12,6.59Zm0,3.72a1.45,1.45,0,1,1,1.44-1.44A1.44,1.44,0,0,1,12,10.31ZM12,2A10,10,0,1,0,22,12,10,10,0,0,0,12,2Zm0,19a9,9,0,1,1,9-9A9,9,0,0,1,12,21Zm4.64-8.7a1.7,1.7,0,1,0,1.7,1.7A1.7,1.7,0,0,0,16.64,12.3Zm0,2.5a.8.8,0,1,1,.8-.8A.8.8,0,0,1,16.64,14.8ZM7.36,12.3A1.7,1.7,0,1,0,9.06,14,1.7,1.7,0,0,0,7.36,12.3Zm0,2.5a.8.8,0,1,1,.8-.8A.8.8,0,0,1,7.36,14.8Z"/></svg>