<svg id="Layer_1" data-name="Layer 1" xmlns="http://www.w3.org/2000/svg" viewBox="0 0 24 24"><title>iconoteka_screen_lock_rotation_l_s</title><path d="M15.5,3h-7A2.5,2.5,0,0,0,6,5.5v13A2.5,2.5,0,0,0,8.5,21h7A2.5,2.5,0,0,0,18,18.5V5.5A2.5,2.5,0,0,0,15.5,3Zm2,15.5a2,2,0,0,1-2,2h-7a2,2,0,0,1-2-2V5.5a2,2,0,0,1,2-2h7a2,2,0,0,1,2,2ZM14,10a2,2,0,0,0-4,0v1H9v4h6V11H14Zm-3.5,0a1.5,1.5,0,0,1,3,0v1h-3Zm4,1.5v3h-5v-3ZM.75,12a3.25,3.25,0,0,0,1,2.3l.87.86H0v.5H3.44V12.22h-.5v2.61l-.88-.89A2.75,2.75,0,0,1,4,9.25v-.5A3.24,3.24,0,0,0,.75,12ZM21.43,8.84H24v-.5H20.56v3.44h.5V9.17l.88.89A2.75,2.75,0,0,1,20,14.75v.5A3.25,3.25,0,0,0,22.3,9.7Z"/></svg>