<svg id="Layer_1" data-name="Layer 1" xmlns="http://www.w3.org/2000/svg" viewBox="0 0 24 24"><title>iconoteka_cell_phone_with_qwerty_keyboard_m_s</title><path d="M16.5,2h-9A2.5,2.5,0,0,0,5,4.5v15A2.5,2.5,0,0,0,7.5,22h9A2.5,2.5,0,0,0,19,19.5V4.5A2.5,2.5,0,0,0,16.5,2Zm-9,1.5h9a1,1,0,0,1,1,1V12H6.5V4.5A1,1,0,0,1,7.5,3.5Zm3.12,12.8V13.5h2.76v2.8Zm2.76,1.4v2.8H10.62V17.7ZM9.22,16.3H6.5V13.5H9.22Zm5.56-2.8H17.5v2.8H14.78Zm-8.28,6V17.7H9.22v2.8H7.5A1,1,0,0,1,6.5,19.5Zm10,1H14.78V17.7H17.5v1.8A1,1,0,0,1,16.5,20.5Z"/></svg>