<svg id="Layer_1" data-name="Layer 1" xmlns="http://www.w3.org/2000/svg" viewBox="0 0 24 24"><title>iconoteka_gamepad_wireless__joystick__controller_m_f</title><path d="M11.83,1.87a5.24,5.24,0,0,1,3.72,1.54l1.06-1.06a6.75,6.75,0,0,0-9.55,0L8.12,3.41A5.22,5.22,0,0,1,11.83,1.87ZM18,5H6a5,5,0,0,0-5,5v9.13A2.86,2.86,0,0,0,6.61,20L7.49,17h9L17.39,20A2.86,2.86,0,0,0,23,19.13V10A5,5,0,0,0,18,5ZM9.46,11.61H7.61v1.85H6.39V11.61H4.54V10.39H6.39V8.54H7.61v1.85H9.46Zm9.38,1.23A2.61,2.61,0,1,1,19.6,11,2.59,2.59,0,0,1,18.84,12.84ZM17,9.57A1.43,1.43,0,1,0,18,10,1.42,1.42,0,0,0,17,9.57Z"/></svg>