<svg id="Layer_1" data-name="Layer 1" xmlns="http://www.w3.org/2000/svg" viewBox="0 0 24 24"><title>iconoteka_battery_charging_l_s</title><path d="M16.5,3H14a2,2,0,0,0-4,0H7.5A2.5,2.5,0,0,0,5,5.5v15A2.5,2.5,0,0,0,7.5,23h9A2.5,2.5,0,0,0,19,20.5V5.5A2.5,2.5,0,0,0,16.5,3ZM12,1.5A1.5,1.5,0,0,1,13.5,3h-3A1.5,1.5,0,0,1,12,1.5Zm6.5,19a2,2,0,0,1-2,2h-9a2,2,0,0,1-2-2V5.5a2,2,0,0,1,2-2h9a2,2,0,0,1,2,2ZM12.33,8.84h-.8L8.8,14.25h2.87v2.91h.8l2.73-5.41H12.33Zm2.06,3.41-2.22,4.4v-2.9H9.61l2.22-4.4v2.9Z"/></svg>