<svg id="Layer_1" data-name="Layer 1" xmlns="http://www.w3.org/2000/svg" viewBox="0 0 24 24"><title>iconoteka_cameras__photo_fear_party_mode_r_s</title><path d="M16,19H4a1,1,0,0,1-1-1V10.33a1,1,0,0,1,1-1v-1a2,2,0,0,0-2,2V18a2,2,0,0,0,2,2H16a2,2,0,0,0,2-2H17A1,1,0,0,1,16,19ZM20,4.33H18.11L16.73,2H11.27L9.89,4.33H8a2,2,0,0,0-2,2V14a2,2,0,0,0,2,2H20a2,2,0,0,0,2-2V6.33A2,2,0,0,0,20,4.33ZM21,14a1,1,0,0,1-1,1H8a1,1,0,0,1-1-1V6.33a1,1,0,0,1,1-1h2.46l.29-.49L11.84,3h4.32l1.09,1.84.29.49H20a1,1,0,0,1,1,1ZM14,6.66a3,3,0,1,0,3,3A3,3,0,0,0,14,6.66Zm0,5a2,2,0,1,1,2-2A2,2,0,0,1,14,11.66Z"/></svg>