<svg id="Layer_1" data-name="Layer 1" xmlns="http://www.w3.org/2000/svg" viewBox="0 0 24 24"><title>iconoteka_keyboard_r_s</title><path d="M20.5,4H3.5A2.5,2.5,0,0,0,1,6.5v11A2.5,2.5,0,0,0,3.5,20h17A2.5,2.5,0,0,0,23,17.5V6.5A2.5,2.5,0,0,0,20.5,4ZM22,17.5A1.5,1.5,0,0,1,20.5,19H3.5A1.5,1.5,0,0,1,2,17.5V6.5A1.5,1.5,0,0,1,3.5,5h17A1.5,1.5,0,0,1,22,6.5ZM4,9.5H7V7H4Zm.86-1.64H6.14v.78H4.86ZM17,9.5h3V7H17Zm.86-1.64h1.28v.78H17.86ZM11.33,7h-3V9.5h3Zm-.86,1.64H9.19V7.86h1.28Zm2.2.86h3V7h-3Zm.86-1.64h1.28v.78H13.53ZM4,17H7V14.5H4Zm.86-1.64H6.14v.78H4.86ZM17,17h3V14.5H17Zm.86-1.64h1.28v.78H17.86ZM8.33,17h7.34V14.5H8.33Zm.86-1.64h5.62v.78H9.19ZM4,13.25H7v-2.5H4Zm.86-1.64H6.14v.78H4.86ZM17,13.25h3v-2.5H17Zm.86-1.64h1.28v.78H17.86Zm-6.53-.86h-3v2.5h3Zm-.86,1.64H9.19v-.78h1.28Zm2.2.86h3v-2.5h-3Zm.86-1.64h1.28v.78H13.53Z"/></svg>