<svg id="Layer_1" data-name="Layer 1" xmlns="http://www.w3.org/2000/svg" viewBox="0 0 24 24"><title>iconoteka_power_settings_m_f</title><path d="M22.34,5.85l1.23-.91a4.28,4.28,0,0,0-.67-1.15l-1.39.62-.85-.49L20.5,2.4a3.19,3.19,0,0,0-1.33,0L19,3.92l-.84.49-1.39-.62a3.81,3.81,0,0,0-.67,1.15l1.23.91v1l-1.23.9a3.58,3.58,0,0,0,.67,1.15l1.39-.61.84.48.17,1.53a4.91,4.91,0,0,0,.66.06,4.91,4.91,0,0,0,.67-.06l.16-1.53.85-.48,1.39.61a4,4,0,0,0,.67-1.15l-1.23-.9ZM19.83,7.33a1,1,0,1,1,1-1A1,1,0,0,1,19.83,7.33ZM12.75,2h-1.5V12h1.5ZM12,20.5A8.49,8.49,0,0,1,7.75,4.65L7,3.35A10,10,0,1,0,22,12H20.5A8.51,8.51,0,0,1,12,20.5Z"/></svg>