<svg id="Layer_1" data-name="Layer 1" xmlns="http://www.w3.org/2000/svg" viewBox="0 0 24 24"><title>iconoteka_permission_camera_microphone_b_s</title><path d="M19,6H17.14L15.41,3H8.59L6.86,6H5A3,3,0,0,0,2,9v9a3,3,0,0,0,3,3H19a3,3,0,0,0,3-3V9A3,3,0,0,0,19,6Zm1,12a1,1,0,0,1-1,1H5a1,1,0,0,1-1-1V9A1,1,0,0,1,5,8H8l.58-1L9.75,5h4.5l1.16,2L16,8h3a1,1,0,0,1,1,1Zm-8.12-4.25a1.24,1.24,0,0,0,1.24-1.25V10.17a1.25,1.25,0,1,0-2.5,0V12.5A1.25,1.25,0,0,0,11.88,13.75Zm0,1.08A2.56,2.56,0,0,1,9.34,12.5H7.94a4,4,0,0,0,3.23,3.66V17.5h1.41V16.16a4,4,0,0,0,3.23-3.66h-1.4A2.55,2.55,0,0,1,11.88,14.83Z"/></svg>