<svg id="Layer_1" data-name="Layer 1" xmlns="http://www.w3.org/2000/svg" viewBox="0 0 24 24"><title>iconoteka_gamepad_wireless_b_s</title><path d="M12,2a4.07,4.07,0,0,1,2.91,1.21l1.42-1.42a6.13,6.13,0,0,0-8.66,0L9.09,3.21A4.07,4.07,0,0,1,12,2Zm6,3H6a5,5,0,0,0-5,5v8A4,4,0,0,0,8.68,19.5l1-2.5h4.64l1,2.5A4,4,0,0,0,23,18V10A5,5,0,0,0,18,5Zm3,13a2,2,0,0,1-2,2,2,2,0,0,1-1.84-1.25L15.68,15H8.32l-1.5,3.75A2,2,0,0,1,5,20a2,2,0,0,1-2-2V10A3,3,0,0,1,6,7H18a3,3,0,0,1,3,3ZM7.8,8.5H6.2v1.7H4.5v1.6H6.2v1.7H7.8V11.8H9.5V10.2H7.8Zm9.2,0A2.5,2.5,0,1,0,19.5,11,2.5,2.5,0,0,0,17,8.5ZM17,12a1,1,0,1,1,1-1A1,1,0,0,1,17,12Z"/></svg>