<svg id="Layer_1" data-name="Layer 1" xmlns="http://www.w3.org/2000/svg" viewBox="0 0 24 24"><title>iconoteka_power_socket_j_r_f</title><path d="M12,7.75a1.42,1.42,0,1,0,1.42,1.42A1.43,1.43,0,0,0,12,7.75ZM19,5H5L.57,12,5,19H19l4.47-7ZM6.56,13.7A1.7,1.7,0,1,1,8.26,12,1.7,1.7,0,0,1,6.56,13.7ZM12,17.18a1.7,1.7,0,1,1,1.7-1.7A1.7,1.7,0,0,1,12,17.18Zm0-5.8a2.22,2.22,0,1,1,2.22-2.21A2.22,2.22,0,0,1,12,11.38Zm5.44,2.32a1.7,1.7,0,1,1,1.7-1.7A1.7,1.7,0,0,1,17.44,13.7ZM6.56,11.2a.8.8,0,1,0,.8.8A.8.8,0,0,0,6.56,11.2ZM12,14.68a.8.8,0,1,0,.8.8A.8.8,0,0,0,12,14.68Zm5.44-3.48a.8.8,0,1,0,.8.8A.8.8,0,0,0,17.44,11.2Z"/></svg>