<svg id="Layer_1" data-name="Layer 1" xmlns="http://www.w3.org/2000/svg" viewBox="0 0 24 24"><title>iconoteka_cell_phone_with_qwerty_keyboard_b_f</title><path d="M16.5,2h-9A2.5,2.5,0,0,0,5,4.5v15A2.5,2.5,0,0,0,7.5,22h9A2.5,2.5,0,0,0,19,19.5V4.5A2.5,2.5,0,0,0,16.5,2ZM7,5H17v5H7Zm.71,15a.9.9,0,1,1,.9-.9A.9.9,0,0,1,7.71,20Zm0-3.1a.9.9,0,1,1,.9-.9A.9.9,0,0,1,7.71,16.9Zm0-3.1a.9.9,0,1,1,.9-.9A.9.9,0,0,1,7.71,13.8ZM10.57,20a.9.9,0,1,1,.9-.9A.9.9,0,0,1,10.57,20Zm0-3.1a.9.9,0,1,1,.9-.9A.9.9,0,0,1,10.57,16.9Zm0-3.1a.9.9,0,1,1,.9-.9A.9.9,0,0,1,10.57,13.8ZM13.43,20a.9.9,0,1,1,.9-.9A.9.9,0,0,1,13.43,20Zm0-3.1a.9.9,0,1,1,.9-.9A.9.9,0,0,1,13.43,16.9Zm0-3.1a.9.9,0,1,1,.9-.9A.9.9,0,0,1,13.43,13.8ZM16.29,20a.9.9,0,1,1,.9-.9A.9.9,0,0,1,16.29,20Zm0-3.1a.9.9,0,1,1,.9-.9A.9.9,0,0,1,16.29,16.9Zm0-3.1a.9.9,0,1,1,.9-.9A.9.9,0,0,1,16.29,13.8Z"/></svg>