<svg id="Layer_1" data-name="Layer 1" xmlns="http://www.w3.org/2000/svg" viewBox="0 0 24 24"><title>iconoteka_gamepad_wire__joystick__controller_m_f</title><path d="M18,5H12.75V3.58A1.09,1.09,0,0,1,13.83,2.5H17V1H13.83a2.59,2.59,0,0,0-2.58,2.58V5H6a5,5,0,0,0-5,5v9.13A2.86,2.86,0,0,0,6.61,20L7.49,17h9L17.39,20A2.86,2.86,0,0,0,23,19.13V10A5,5,0,0,0,18,5ZM9.46,11.61H7.61v1.85H6.39V11.61H4.54V10.39H6.39V8.54H7.61v1.85H9.46Zm9.38,1.23A2.61,2.61,0,1,1,19.6,11,2.59,2.59,0,0,1,18.84,12.84ZM17,9.57A1.43,1.43,0,1,0,18,10,1.42,1.42,0,0,0,17,9.57Z"/></svg>