<svg id="Layer_1" data-name="Layer 1" xmlns="http://www.w3.org/2000/svg" viewBox="0 0 24 24"><title>iconoteka_surround_sound_3d_sound_r_s</title><path d="M5.55,12v1a5.5,5.5,0,0,1,5.5,5.5h1A6.49,6.49,0,0,0,5.55,12ZM3.37,15l-.31,3.14-2,2,2.83,2.83,2-2L9,20.63l.85-.85L4.22,14.12Zm5.22,4.8L5.8,20l-.32,0-.23.23L3.91,21.64,2.36,20.09,3.7,18.75l.23-.23,0-.32.27-2.79ZM13,5.55H12a6.49,6.49,0,0,0,6.5,6.5v-1A5.5,5.5,0,0,1,13,5.55Zm7.14-4.47-2,2L15,3.37l-.85.85,5.66,5.66L20.63,9l.31-3.14,2-2Zm0,4.4,0,.32-.27,2.79L15.41,4.23,18.2,4l.32,0,1.57-1.57,1.55,1.55Z"/></svg>