<svg id="Layer_1" data-name="Layer 1" xmlns="http://www.w3.org/2000/svg" viewBox="0 0 24 24"><title>iconoteka_headset_with_microphone__headphones_voice_chat_l_s</title><path d="M12,2A10,10,0,0,0,2,12v4a3,3,0,0,0,3,3H7V11H5a3,3,0,0,0-2.5,1.35V12a9.5,9.5,0,0,1,19,0v.35A3,3,0,0,0,19,11H17v8h2a3,3,0,0,0,2.5-1.35V19A3.5,3.5,0,0,1,18,22.5H12V23h6a4,4,0,0,0,4-4V12A10,10,0,0,0,12,2ZM5,11.5H6.5v7H5A2.5,2.5,0,0,1,2.5,16V14A2.5,2.5,0,0,1,5,11.5ZM21.5,16A2.5,2.5,0,0,1,19,18.5H17.5v-7H19A2.5,2.5,0,0,1,21.5,14Z"/></svg>