<svg id="Layer_1" data-name="Layer 1" xmlns="http://www.w3.org/2000/svg" viewBox="0 0 24 24"><title>iconoteka_no_energy__no_power_no_battery_r_s</title><path d="M16.5,3H14a2,2,0,0,0-4,0H7.5A2.5,2.5,0,0,0,5,5.5v15A2.5,2.5,0,0,0,7.5,23h9A2.5,2.5,0,0,0,19,20.5V5.5A2.5,2.5,0,0,0,16.5,3ZM12,2a1,1,0,0,1,1,1H11A1,1,0,0,1,12,2Zm6,18.5A1.5,1.5,0,0,1,16.5,22h-9A1.5,1.5,0,0,1,6,20.5V5.5A1.5,1.5,0,0,1,7.5,4h9A1.5,1.5,0,0,1,18,5.5ZM14.08,10.21,12,12.29,9.92,10.21l-.71.71L11.29,13,9.21,15.08l.71.71L12,13.71l2.08,2.08.71-.71L12.71,13l2.08-2.08Z"/></svg>