<svg id="Layer_1" data-name="Layer 1" xmlns="http://www.w3.org/2000/svg" viewBox="0 0 24 24"><title>iconoteka_battery_unknown_r_s</title><path d="M16.5,3H14a2,2,0,0,0-4,0H7.5A2.5,2.5,0,0,0,5,5.5v15A2.5,2.5,0,0,0,7.5,23h9A2.5,2.5,0,0,0,19,20.5V5.5A2.5,2.5,0,0,0,16.5,3ZM12,2a1,1,0,0,1,1,1H11A1,1,0,0,1,12,2Zm6,18.5A1.5,1.5,0,0,1,16.5,22h-9A1.5,1.5,0,0,1,6,20.5V5.5A1.5,1.5,0,0,1,7.5,4h9A1.5,1.5,0,0,1,18,5.5Zm-6.25-3.71a.68.68,0,1,0,.69.68A.68.68,0,0,0,11.75,16.79ZM12,8.23c-1.39,0-3,.88-3,3.37h1c0-1.51.76-2.41,2-2.41a1.93,1.93,0,0,1,2.06,1.72c0,.76-.39,1.07-1.1,1.54a3.07,3.07,0,0,0-1.71,2.79h1c0-1.12.57-1.5,1.29-2a2.67,2.67,0,0,0,1.53-2.34A2.85,2.85,0,0,0,12,8.23Z"/></svg>