<svg id="Layer_1" data-name="Layer 1" xmlns="http://www.w3.org/2000/svg" viewBox="0 0 24 24"><title>iconoteka_keyboard_wireless_m_s</title><path d="M20,6H4A3,3,0,0,0,1,9V19a3,3,0,0,0,3,3H20a3,3,0,0,0,3-3V9A3,3,0,0,0,20,6Zm1.5,13A1.5,1.5,0,0,1,20,20.5H4A1.5,1.5,0,0,1,2.5,19V9A1.5,1.5,0,0,1,4,7.5H20A1.5,1.5,0,0,1,21.5,9ZM8,18h8V16H8Zm5-5H11v2h2Zm0-3H11v2h2Zm-3,3H8v2h2Zm0-3H8v2h2ZM5,15H7V13H5Zm0,3H7V16H5Zm12,0h2V16H17ZM5,12H7V10H5Zm9,3h2V13H14Zm0-3h2V10H14Zm3,3h2V13H17Zm0-3h2V10H17ZM12,2.37a5.22,5.22,0,0,1,3.71,1.54l1.06-1.06a6.74,6.74,0,0,0-9.54,0L8.29,3.91A5.22,5.22,0,0,1,12,2.37Z"/></svg>