<svg id="Layer_1" data-name="Layer 1" xmlns="http://www.w3.org/2000/svg" viewBox="0 0 24 24"><title>iconoteka_party_mode_b_s</title><path d="M4,18.5V9.05A2.5,2.5,0,0,0,2,11.5v7A2.5,2.5,0,0,0,4.5,21h11A2.5,2.5,0,0,0,18,19H4.5A.5.5,0,0,1,4,18.5ZM19.54,5H18L17.2,3H10.8L10,5H8.46A2.46,2.46,0,0,0,6,7.46v7.08A2.46,2.46,0,0,0,8.46,17H19.54A2.46,2.46,0,0,0,22,14.54V7.46A2.46,2.46,0,0,0,19.54,5ZM20,14.54a.47.47,0,0,1-.46.46H8.46A.47.47,0,0,1,8,14.54V7.46A.47.47,0,0,1,8.46,7h2.88l.81-2h3.7l.81,2h2.88a.47.47,0,0,1,.46.46ZM14,8a2.5,2.5,0,1,0,2.5,2.5A2.5,2.5,0,0,0,14,8Z"/></svg>