<svg id="Layer_1" data-name="Layer 1" xmlns="http://www.w3.org/2000/svg" viewBox="0 0 24 24"><title>iconoteka_cell_phone_with_keyboard__old_phone_l_s</title><path d="M15.5,2h-7A2.5,2.5,0,0,0,6,4.5v15A2.5,2.5,0,0,0,8.5,22h7A2.5,2.5,0,0,0,18,19.5V4.5A2.5,2.5,0,0,0,15.5,2Zm-9,10.5H9.83v2.67H6.5Zm3.83,2.67V12.5h3.34v2.67Zm3.34.5v2.66H10.33V15.67Zm-7.17,0H9.83v2.66H6.5Zm2,5.83a2,2,0,0,1-2-2v-.67H9.83V21.5Zm1.83,0V18.83h3.34V21.5Zm7.17-2a2,2,0,0,1-2,2H14.17V18.83H17.5Zm0-1.17H14.17V15.67H17.5Zm0-3.16H14.17V12.5H17.5ZM14.17,12H6.5V4.5a2,2,0,0,1,2-2h7a2,2,0,0,1,2,2V12Z"/></svg>