<svg id="Layer_1" data-name="Layer 1" xmlns="http://www.w3.org/2000/svg" viewBox="0 0 24 24"><title>iconoteka_power_socket_m_l_s</title><path d="M16.64,16.5a1.5,1.5,0,1,0-1.5-1.5A1.5,1.5,0,0,0,16.64,16.5Zm0-2.5a1,1,0,1,1-1,1A1,1,0,0,1,16.64,14ZM7.36,16.5A1.5,1.5,0,1,0,5.86,15,1.5,1.5,0,0,0,7.36,16.5Zm0-2.5a1,1,0,1,1-1,1A1,1,0,0,1,7.36,14ZM12,11.14A2.28,2.28,0,1,0,9.72,8.87,2.28,2.28,0,0,0,12,11.14Zm0-4.05a1.78,1.78,0,1,1-1.78,1.78A1.78,1.78,0,0,1,12,7.09ZM3,3V21H21V3ZM20.5,20.5H3.5V3.5h17Z"/></svg>