<svg id="Layer_1" data-name="Layer 1" xmlns="http://www.w3.org/2000/svg" viewBox="0 0 24 24"><title>iconoteka_battery_unknown_l_f</title><path d="M16,3H14a2,2,0,0,0-4,0H8A3,3,0,0,0,5,6V20a3,3,0,0,0,3,3h8a3,3,0,0,0,3-3V6A3,3,0,0,0,16,3ZM11.75,18a.45.45,0,1,1,0-.9.45.45,0,0,1,0,.9ZM13.49,13A2.51,2.51,0,0,0,12,15.24h-.5a3,3,0,0,1,1.73-2.7c.68-.45,1.26-.84,1.26-1.76a2.27,2.27,0,0,0-2.46-2c-1.14,0-2.35.72-2.35,2.74h-.5c0-2.39,1.53-3.24,2.85-3.24a2.76,2.76,0,0,1,3,2.55A2.47,2.47,0,0,1,13.49,13Z"/></svg>