<svg id="Layer_1" data-name="Layer 1" xmlns="http://www.w3.org/2000/svg" viewBox="0 0 24 24"><title>iconoteka_gamepad__joystick__controller_l_s</title><path d="M7.24,7.62H6.76V9.76H4.62v.48H6.76v2.14h.48V10.24H9.38V9.76H7.24ZM17,7.5a2.49,2.49,0,1,0,1.77.73A2.5,2.5,0,0,0,17,7.5Zm1.41,3.91A2,2,0,1,1,19,10,2,2,0,0,1,18.41,11.41ZM18,4H6A5,5,0,0,0,1,9v9.13A2.86,2.86,0,0,0,6.61,19L7.49,16h9L17.39,19A2.86,2.86,0,0,0,23,18.13V9A5,5,0,0,0,18,4Zm4.5,14.13a2.36,2.36,0,0,1-4.63.68L17,15.86l-.11-.36H7.12L7,15.86l-.88,2.95a2.36,2.36,0,0,1-4.63-.68V9A4.51,4.51,0,0,1,6,4.5H18A4.51,4.51,0,0,1,22.5,9Z"/></svg>