<svg id="Layer_1" data-name="Layer 1" xmlns="http://www.w3.org/2000/svg" viewBox="0 0 24 24"><title>iconoteka_cell_phone_with_qwerty_keyboard_r_s</title><path d="M16.5,2h-9A2.5,2.5,0,0,0,5,4.5v15A2.5,2.5,0,0,0,7.5,22h9A2.5,2.5,0,0,0,19,19.5V4.5A2.5,2.5,0,0,0,16.5,2ZM6,13H8.35v2.1H6Zm8.85,2.1H12.4V13h2.45Zm-2.45.8h2.45v2.2H12.4Zm-.8,2.2H9.15V15.9H11.6Zm0-3H9.15V13H11.6ZM6,15.9H8.35v2.2H6ZM7.5,21A1.5,1.5,0,0,1,6,19.5v-.6H8.35V21Zm1.65,0V18.9H11.6V21Zm3.25,0V18.9h2.45V21ZM18,19.5A1.5,1.5,0,0,1,16.5,21h-.85V18.9H18Zm0-1.4H15.65V15.9H18Zm0-3H15.65V13H18ZM18,12H6V4.5A1.5,1.5,0,0,1,7.5,3h9A1.5,1.5,0,0,1,18,4.5Z"/></svg>