<svg id="Layer_1" data-name="Layer 1" xmlns="http://www.w3.org/2000/svg" viewBox="0 0 24 24"><title>iconoteka_cable_s-video_b_s</title><path d="M12,2A10,10,0,1,0,22,12,10,10,0,0,0,12,2Zm0,18a8,8,0,1,1,8-8A8,8,0,0,1,12,20Zm5-9.25A1.25,1.25,0,1,0,18.21,12,1.25,1.25,0,0,0,17,10.75Zm-2.34,3.87a1.27,1.27,0,0,0,0,1.77,1.25,1.25,0,0,0,1.77-1.77A1.27,1.27,0,0,0,14.62,14.62Zm-7,0a1.25,1.25,0,0,0,1.77,1.77,1.25,1.25,0,1,0-1.77-1.77ZM8.29,12A1.25,1.25,0,1,0,7,13.25,1.25,1.25,0,0,0,8.29,12ZM13.5,7h-3a1,1,0,0,0,0,2h3a1,1,0,0,0,0-2Z"/></svg>