<svg id="Layer_1" data-name="Layer 1" xmlns="http://www.w3.org/2000/svg" viewBox="0 0 24 24"><title>iconoteka_cell_phone_flip_l_s</title><path d="M18,10.5V4a2,2,0,0,0-2-2H8A2,2,0,0,0,6,4v6.5a2,2,0,0,0,1,1.75A2,2,0,0,0,6,14v6a2,2,0,0,0,2,2h8a2,2,0,0,0,2-2V14A2,2,0,0,0,17,12.25,2,2,0,0,0,18,10.5ZM6.5,14A1.5,1.5,0,0,1,8,12.5H9.83v2.67H6.5Zm3.83,1.17V12.5h3.34v2.67Zm3.34.5v2.66H10.33V15.67Zm-7.17,0H9.83v2.66H6.5ZM8,21.5A1.5,1.5,0,0,1,6.5,20V18.83H9.83V21.5Zm2.33,0V18.83h3.34V21.5ZM17.5,20A1.5,1.5,0,0,1,16,21.5H14.17V18.83H17.5Zm0-1.67H14.17V15.67H17.5Zm0-4.33v1.17H14.17V12.5H16A1.5,1.5,0,0,1,17.5,14ZM16,12H8a1.5,1.5,0,0,1-1.5-1.5V4A1.5,1.5,0,0,1,8,2.5h8A1.5,1.5,0,0,1,17.5,4v6.5A1.5,1.5,0,0,1,16,12Z"/></svg>