<svg id="Layer_1" data-name="Layer 1" xmlns="http://www.w3.org/2000/svg" viewBox="0 0 24 24"><title>iconoteka_radio__vintage__station_reciever_r_s</title><path d="M17,18a2,2,0,1,0-2-2A2,2,0,0,0,17,18Zm0-3a1,1,0,1,1-1,1A1,1,0,0,1,17,15Zm3.33-9H6.17l12-4.35L17.88.71,3.07,6.11h0A1.68,1.68,0,0,0,2,7.67V19.33A1.67,1.67,0,0,0,3.67,21H20.33A1.67,1.67,0,0,0,22,19.33V7.67A1.67,1.67,0,0,0,20.33,6ZM3,7.67C3,7.3,3.74,7,4.11,7H15v3H3ZM21,19.33c0,.37-.74.67-1.11.67H3.67C3.3,20,3,19.29,3,18.92V11H21ZM21,10H16V7h4.33c.37,0,.67.71.67,1.08Z"/></svg>