<svg id="Layer_1" data-name="Layer 1" xmlns="http://www.w3.org/2000/svg" viewBox="0 0 24 24"><title>iconoteka_battery_100_full_r_s</title><path d="M8.33,19h7.34v-.9H8.33Zm0-11.1h7.34V7H8.33Zm0,3.7h7.34v-.9H8.33Zm0,3.7h7.34v-.9H8.33ZM16.5,3H14a2,2,0,0,0-4,0H7.5A2.5,2.5,0,0,0,5,5.5v15A2.5,2.5,0,0,0,7.5,23h9A2.5,2.5,0,0,0,19,20.5V5.5A2.5,2.5,0,0,0,16.5,3ZM12,2a1,1,0,0,1,1,1H11A1,1,0,0,1,12,2Zm6,18.5A1.5,1.5,0,0,1,16.5,22h-9A1.5,1.5,0,0,1,6,20.5V5.5A1.5,1.5,0,0,1,7.5,4h9A1.5,1.5,0,0,1,18,5.5Z"/></svg>