<svg id="Layer_1" data-name="Layer 1" xmlns="http://www.w3.org/2000/svg" viewBox="0 0 24 24"><title>iconoteka_battery_unknown_l_s</title><path d="M16.5,3H14a2,2,0,0,0-4,0H7.5A2.5,2.5,0,0,0,5,5.5v15A2.5,2.5,0,0,0,7.5,23h9A2.5,2.5,0,0,0,19,20.5V5.5A2.5,2.5,0,0,0,16.5,3ZM12,1.5A1.5,1.5,0,0,1,13.5,3h-3A1.5,1.5,0,0,1,12,1.5Zm6.5,19a2,2,0,0,1-2,2h-9a2,2,0,0,1-2-2V5.5a2,2,0,0,1,2-2h9a2,2,0,0,1,2,2Zm-6.75-3.37a.45.45,0,1,0,0,.9.45.45,0,0,0,0-.9ZM12,8.23c-1.32,0-2.85.85-2.85,3.24h.5c0-2,1.21-2.74,2.35-2.74a2.27,2.27,0,0,1,2.46,2c0,.92-.58,1.31-1.26,1.76a3,3,0,0,0-1.73,2.7H12A2.51,2.51,0,0,1,13.49,13,2.47,2.47,0,0,0,15,10.78,2.76,2.76,0,0,0,12,8.23Z"/></svg>