<svg id="Layer_1" data-name="Layer 1" xmlns="http://www.w3.org/2000/svg" viewBox="0 0 24 24"><title>iconoteka_headset_with_microphone__headphones_voice_chat_m_s</title><path d="M12,2A10,10,0,0,0,2,12v4a3,3,0,0,0,3,3H8V11H5a2.94,2.94,0,0,0-1.47.4,8.49,8.49,0,0,1,16.94,0A2.94,2.94,0,0,0,19,11H16v8h3a2.94,2.94,0,0,0,1.5-.42V19A2.5,2.5,0,0,1,18,21.5H12V23h6a4,4,0,0,0,4-4V12A10,10,0,0,0,12,2ZM5,12.5H6.5v5H5A1.5,1.5,0,0,1,3.5,16V14A1.5,1.5,0,0,1,5,12.5ZM20.5,16A1.5,1.5,0,0,1,19,17.5H17.5v-5H19A1.5,1.5,0,0,1,20.5,14Z"/></svg>