<svg id="Layer_1" data-name="Layer 1" xmlns="http://www.w3.org/2000/svg" viewBox="0 0 24 24"><title>iconoteka_power_socket_m_r_s</title><path d="M16.64,16.7a1.7,1.7,0,1,0-1.7-1.7A1.7,1.7,0,0,0,16.64,16.7Zm0-2.5a.8.8,0,1,1-.8.8A.8.8,0,0,1,16.64,14.2ZM7.36,16.7A1.7,1.7,0,1,0,5.66,15,1.7,1.7,0,0,0,7.36,16.7Zm0-2.5a.8.8,0,1,1-.8.8A.8.8,0,0,1,7.36,14.2ZM12,11.14A2.28,2.28,0,1,0,9.72,8.87,2.28,2.28,0,0,0,12,11.14Zm0-3.72a1.45,1.45,0,1,1-1.44,1.45A1.44,1.44,0,0,1,12,7.42ZM3,3V21H21V3ZM20,20H4V4H20Z"/></svg>