<svg id="Layer_1" data-name="Layer 1" xmlns="http://www.w3.org/2000/svg" viewBox="0 0 24 24"><title>iconoteka_gamepad_wire__joystick__controller_r_f</title><path d="M17,9.28a1.74,1.74,0,1,0,1.21.51A1.67,1.67,0,0,0,17,9.28ZM18,5H12.5V3.42A1.43,1.43,0,0,1,13.92,2H17V1H13.92A2.42,2.42,0,0,0,11.5,3.42V5H6a5,5,0,0,0-5,5v9.13A2.86,2.86,0,0,0,6.61,20L7.49,17h9L17.39,20A2.86,2.86,0,0,0,23,19.13V10A5,5,0,0,0,18,5ZM9.42,11.42h-2v2H6.58v-2h-2v-.84h2v-2h.84v2h2ZM18.8,12.8a2.54,2.54,0,1,1,.75-1.8A2.55,2.55,0,0,1,18.8,12.8Z"/></svg>