<svg id="Layer_1" data-name="Layer 1" xmlns="http://www.w3.org/2000/svg" viewBox="0 0 24 24"><title>iconoteka_power_socket_j_m_s</title><path d="M19,5H5L.57,12,5,19H19l4.47-7Zm-.82,12.5H5.86L2.35,12,5.86,6.5H18.14L21.65,12ZM12,7.31a2.16,2.16,0,1,0,2.15,2.16A2.16,2.16,0,0,0,12,7.31Zm0,3.21a1.06,1.06,0,1,1,1.05-1A1,1,0,0,1,12,10.52Zm5.31.33A1.15,1.15,0,1,0,18.46,12,1.14,1.14,0,0,0,17.31,10.85Zm-10.62,0A1.15,1.15,0,1,0,7.84,12,1.15,1.15,0,0,0,6.69,10.85ZM12,13.33a1.15,1.15,0,1,0,1.15,1.15A1.14,1.14,0,0,0,12,13.33Z"/></svg>