<svg id="Layer_1" data-name="Layer 1" xmlns="http://www.w3.org/2000/svg" viewBox="0 0 24 24"><title>iconoteka_gamepad__joystick__controller_b_s</title><path d="M7.8,7.5H6.2V9.2H4.5v1.6H6.2v1.7H7.8V10.8H9.5V9.2H7.8Zm9.2,0a2.49,2.49,0,1,0,1.77.73A2.5,2.5,0,0,0,17,7.5Zm.64,3.14A.92.92,0,1,1,17.9,10,.9.9,0,0,1,17.64,10.64ZM18,4H6A5,5,0,0,0,1,9v8.42a3.58,3.58,0,0,0,6.9,1.33L9,16h6l1.1,2.75A3.58,3.58,0,0,0,23,17.42V9A5,5,0,0,0,18,4Zm3,13.42A1.58,1.58,0,0,1,19.42,19,1.56,1.56,0,0,1,18,18l-1.1-2.75L16.35,14H7.65l-.51,1.26L6,18a1.56,1.56,0,0,1-1.46,1A1.58,1.58,0,0,1,3,17.42V9A3,3,0,0,1,6,6H18a3,3,0,0,1,3,3Z"/></svg>