<svg id="Layer_1" data-name="Layer 1" xmlns="http://www.w3.org/2000/svg" viewBox="0 0 24 24"><title>iconoteka_gamepad_wireless__joystick__controller_m_s</title><path d="M11.83,1.87a5.24,5.24,0,0,1,3.72,1.54l1.06-1.06a6.75,6.75,0,0,0-9.55,0L8.12,3.41A5.22,5.22,0,0,1,11.83,1.87ZM7.61,8.54H6.39v1.85H4.54v1.22H6.39v1.85H7.61V11.61H9.46V10.39H7.61ZM17,8.5a2.49,2.49,0,1,0,1.77.73A2.5,2.5,0,0,0,17,8.5Zm.9,3.4a1.28,1.28,0,1,1,.37-.9A1.31,1.31,0,0,1,17.9,11.9ZM18,5H6a5,5,0,0,0-5,5v8.66a3.34,3.34,0,0,0,6.47,1.16L8.5,17h7l1,2.82A3.34,3.34,0,0,0,23,18.66V10A5,5,0,0,0,18,5Zm3.5,13.66a1.84,1.84,0,0,1-3.57.62l-1-2.82-.37-1H7.47l-.37,1-1,2.82a1.84,1.84,0,0,1-3.57-.62V10A3.5,3.5,0,0,1,6,6.5H18A3.5,3.5,0,0,1,21.5,10Z"/></svg>