<svg id="Layer_1" data-name="Layer 1" xmlns="http://www.w3.org/2000/svg" viewBox="0 0 24 24"><title>iconoteka_battery_unknown_m_f</title><path d="M16,3H14a2,2,0,0,0-4,0H8A3,3,0,0,0,5,6V20a3,3,0,0,0,3,3h8a3,3,0,0,0,3-3V6A3,3,0,0,0,16,3ZM11.75,18.28a.92.92,0,1,1,.92-.92A.92.92,0,0,1,11.75,18.28Zm1.8-4.73c-.64.44-1.07.74-1.07,1.69H11a3.17,3.17,0,0,1,1.71-2.87c.65-.45.93-.67.93-1.34A1.55,1.55,0,0,0,12,9.66c-.51,0-1.71.2-1.71,2.07H8.87c0-2.42,1.58-3.51,3.14-3.51A3,3,0,0,1,15.12,11,2.85,2.85,0,0,1,13.55,13.55Z"/></svg>