<svg id="Layer_1" data-name="Layer 1" xmlns="http://www.w3.org/2000/svg" viewBox="0 0 24 24"><title>iconoteka_point_and_shoot_camera_r_s</title><path d="M19.5,5H4.5A2.5,2.5,0,0,0,2,7.5v9A2.5,2.5,0,0,0,4.5,19h15A2.5,2.5,0,0,0,22,16.5v-9A2.5,2.5,0,0,0,19.5,5ZM21,16.5A1.5,1.5,0,0,1,19.5,18H4.5A1.5,1.5,0,0,1,3,16.5v-9A1.5,1.5,0,0,1,4.5,6h15A1.5,1.5,0,0,1,21,7.5ZM8,3.5A.5.5,0,0,0,7.5,3h-2a.5.5,0,0,0-.5.5V4H8Zm5.69,5a3.5,3.5,0,1,0,3.5,3.5A3.5,3.5,0,0,0,13.69,8.5Zm0,6a2.5,2.5,0,1,1,2.5-2.5A2.5,2.5,0,0,1,13.69,14.5Z"/></svg>