<svg id="Layer_1" data-name="Layer 1" xmlns="http://www.w3.org/2000/svg" viewBox="0 0 24 24"><title>iconoteka_screen_rotation_b_f</title><path d="M15.5,3h-7A2.5,2.5,0,0,0,6,5.5v13A2.5,2.5,0,0,0,8.5,21h7A2.5,2.5,0,0,0,18,18.5V5.5A2.5,2.5,0,0,0,15.5,3Zm7.14,6.27L24,7.91H20v4l1.48-1.48,0,0a2.27,2.27,0,0,1,0,3.12A2.22,2.22,0,0,1,20,14.2v1.6a3.81,3.81,0,0,0,2.69-1.11,3.91,3.91,0,0,0,0-5.38ZM1.31,14.69l.05,0L0,16.09H4v-4L2.49,13.6l-.05,0a2.27,2.27,0,0,1,0-3.12A2.22,2.22,0,0,1,4,9.8V8.2A3.81,3.81,0,0,0,1.31,9.31,3.91,3.91,0,0,0,1.31,14.69Z"/></svg>