<svg id="Layer_1" data-name="Layer 1" xmlns="http://www.w3.org/2000/svg" viewBox="0 0 24 24"><title>iconoteka_controller_remote__wireless_l_s</title><path d="M13.94,6.34,14.3,6A3.27,3.27,0,0,0,9.7,6l.36.36A2.75,2.75,0,0,1,13.94,6.34ZM6.87,3.16l.36.35a6.75,6.75,0,0,1,9.54,0l.36-.35A7.26,7.26,0,0,0,6.87,3.16ZM8,21a2,2,0,0,0,2,2h4a2,2,0,0,0,2-2V9H8ZM8.5,9.5h7V21A1.5,1.5,0,0,1,14,22.5H10A1.5,1.5,0,0,1,8.5,21Zm3.5,5A1.5,1.5,0,1,0,10.5,13,1.5,1.5,0,0,0,12,14.5ZM12,12a1,1,0,1,1-1,1A1,1,0,0,1,12,12Z"/></svg>