<svg id="Layer_1" data-name="Layer 1" xmlns="http://www.w3.org/2000/svg" viewBox="0 0 24 24"><title>iconoteka_phonelink_disabled_b_f</title><path d="M21.5,7h-3A1.5,1.5,0,0,0,17,8.5v7A1.5,1.5,0,0,0,18.5,17h3A1.5,1.5,0,0,0,23,15.5v-7A1.5,1.5,0,0,0,21.5,7ZM15,15.5v-7A3.5,3.5,0,0,1,18.5,5H21V4.5A1.5,1.5,0,0,0,19.5,3H2.5A1.5,1.5,0,0,0,1,4.5v15A1.5,1.5,0,0,0,2.5,21h17A1.5,1.5,0,0,0,21,19.5V19H18.5A3.5,3.5,0,0,1,15,15.5Zm-2.93-1.07-1.14,1.14L8.5,13.13,6.07,15.57,4.93,14.43,7.37,12,4.93,9.57,6.07,8.43,8.5,10.87l2.43-2.44,1.14,1.14L9.63,12Z"/></svg>