<svg id="Layer_1" data-name="Layer 1" xmlns="http://www.w3.org/2000/svg" viewBox="0 0 24 24"><title>iconoteka_device_settings_b_s</title><path d="M16.5,2h-9A2.5,2.5,0,0,0,5,4.5v15A2.5,2.5,0,0,0,7.5,22h9A2.5,2.5,0,0,0,19,19.5V4.5A2.5,2.5,0,0,0,16.5,2ZM17,19.5a.5.5,0,0,1-.5.5h-9a.5.5,0,0,1-.5-.5V4.5A.5.5,0,0,1,7.5,4h9a.5.5,0,0,1,.5.5Zm-1.26-8.89a4.13,4.13,0,0,0-.67-1.15l-1.4.62-.84-.49-.17-1.52a3.15,3.15,0,0,0-1.32,0l-.17,1.52-.84.49-1.4-.62a4.13,4.13,0,0,0-.67,1.15l1.24.9v1l-1.24.9a4.13,4.13,0,0,0,.67,1.15l1.4-.62.84.49.17,1.52a3.15,3.15,0,0,0,1.32,0l.17-1.52.84-.49,1.4.62a4.13,4.13,0,0,0,.67-1.15l-1.24-.9v-1ZM12,13a1,1,0,1,1,1-1A1,1,0,0,1,12,13Z"/></svg>