<svg id="Layer_1" data-name="Layer 1" xmlns="http://www.w3.org/2000/svg" viewBox="0 0 24 24"><title>iconoteka_voice_settings__microphone_m_s</title><path d="M9,16a4,4,0,0,0,4-4V5A4,4,0,0,0,5,5v7A4,4,0,0,0,9,16ZM6.5,5a2.5,2.5,0,0,1,5,0v7a2.5,2.5,0,0,1-5,0Zm9,7a6.5,6.5,0,0,1-13,0V10H1v2a8,8,0,0,0,7.25,8v3h1.5V20A8,8,0,0,0,17,12V10H15.5Zm6-7.64,1.22-.8A4,4,0,0,0,22.46,3a3.52,3.52,0,0,0-.36-.5l-1.29.65L19.7,2.51l-.09-1.45a3.13,3.13,0,0,0-1.22,0L18.3,2.51l-1.11.64L15.9,2.5a3.52,3.52,0,0,0-.36.5,4,4,0,0,0-.26.56l1.22.8V5.64l-1.22.8a4,4,0,0,0,.26.56,3.52,3.52,0,0,0,.36.5l1.29-.65,1.11.64.09,1.45a3.13,3.13,0,0,0,1.22,0l.09-1.45,1.11-.64,1.29.65a3.52,3.52,0,0,0,.36-.5,4,4,0,0,0,.26-.56l-1.22-.8ZM19,6.21A1.21,1.21,0,1,1,20.21,5,1.21,1.21,0,0,1,19,6.21Z"/></svg>