<svg id="Layer_1" data-name="Layer 1" xmlns="http://www.w3.org/2000/svg" viewBox="0 0 24 24"><title>iconoteka_hide_keyboard_l_s</title><path d="M20.5,3H3.5A2.5,2.5,0,0,0,1,5.5v11A2.5,2.5,0,0,0,3.5,19h17A2.5,2.5,0,0,0,23,16.5V5.5A2.5,2.5,0,0,0,20.5,3Zm2,13.5a2,2,0,0,1-2,2H3.5a2,2,0,0,1-2-2V5.5a2,2,0,0,1,2-2h17a2,2,0,0,1,2,2ZM4,16H7V13.5H4Zm.5-2h2v1.5h-2ZM17,16h3V13.5H17Zm.5-2h2v1.5h-2ZM8.33,16h7.34V13.5H8.33Zm.5-2h6.34v1.5H8.83ZM4,12.25H7V9.75H4Zm.5-2h2v1.5h-2Zm12.5,2h3V9.75H17Zm.5-2h2v1.5h-2Zm-6.17-.5h-3v2.5h3Zm-.5,2h-2v-1.5h2Zm1.84.5h3V9.75h-3Zm.5-2h2v1.5h-2ZM4,8.5H7V6H4Zm.5-2h2V8h-2ZM17,8.5h3V6H17Zm.5-2h2V8h-2ZM11.33,6h-3V8.5h3Zm-.5,2h-2V6.5h2Zm1.84.5h3V6h-3Zm.5-2h2V8h-2ZM12,23.29,9.92,21.21l-.35.36L12,24l2.43-2.43-.35-.36Z"/></svg>