<svg id="Layer_1" data-name="Layer 1" xmlns="http://www.w3.org/2000/svg" viewBox="0 0 24 24"><title>iconoteka_power_socket_j_r_s</title><path d="M19,5H5L.57,12,5,19H19l4.47-7Zm-.54,13H5.58L1.76,12,5.58,6H18.42l3.82,6ZM12,7a2.22,2.22,0,1,0,2.22,2.22A2.22,2.22,0,0,0,12,7Zm0,3.63a1.42,1.42,0,1,1,1.42-1.41A1.42,1.42,0,0,1,12,10.58ZM6.36,10.3A1.7,1.7,0,1,0,8.06,12,1.7,1.7,0,0,0,6.36,10.3Zm0,2.5a.8.8,0,1,1,.8-.8A.8.8,0,0,1,6.36,12.8Zm11.28-2.5a1.7,1.7,0,1,0,1.7,1.7A1.7,1.7,0,0,0,17.64,10.3Zm0,2.5a.8.8,0,1,1,.8-.8A.8.8,0,0,1,17.64,12.8Zm-5.64,1a1.7,1.7,0,1,0,1.7,1.7A1.7,1.7,0,0,0,12,13.78Zm0,2.5a.8.8,0,1,1,.8-.8A.8.8,0,0,1,12,16.28Z"/></svg>