<svg id="Layer_1" data-name="Layer 1" xmlns="http://www.w3.org/2000/svg" viewBox="0 0 24 24"><title>iconoteka_compact_camera_l_s</title><path d="M19.5,5H4.5A2.5,2.5,0,0,0,2,7.5v9A2.5,2.5,0,0,0,4.5,19h15A2.5,2.5,0,0,0,22,16.5v-9A2.5,2.5,0,0,0,19.5,5ZM7.5,18.5h-3a2,2,0,0,1-2-2v-9a2,2,0,0,1,2-2h3Zm14-2a2,2,0,0,1-2,2H8V5.5H19.5a2,2,0,0,1,2,2ZM8,3.75a.25.25,0,0,0-.25-.25H5.25A.25.25,0,0,0,5,3.75V4H8ZM14.88,8a4,4,0,1,0,4,4A4,4,0,0,0,14.88,8Zm0,7.5a3.5,3.5,0,1,1,3.5-3.5A3.5,3.5,0,0,1,14.88,15.5Z"/></svg>