<svg id="Layer_1" data-name="Layer 1" xmlns="http://www.w3.org/2000/svg" viewBox="0 0 24 24"><title>iconoteka_smartwatch-square_b_s</title><path d="M16,5.14V3a2,2,0,0,0-2-2H10A2,2,0,0,0,8,3V5.14A4,4,0,0,0,5,9v6a4,4,0,0,0,3,3.86V21a2,2,0,0,0,2,2h4a2,2,0,0,0,2-2V18.86A4,4,0,0,0,19,15V9A4,4,0,0,0,16,5.14ZM10,2.85h4a.15.15,0,0,1,.15.15V5H9.85V3A.15.15,0,0,1,10,2.85Zm4,18.3H10A.15.15,0,0,1,9.85,21V19h4.3v2A.15.15,0,0,1,14,21.15ZM17,15a2,2,0,0,1-2,2H9a2,2,0,0,1-2-2V9A2,2,0,0,1,9,7h6a2,2,0,0,1,2,2Z"/></svg>