<svg id="Layer_1" data-name="Layer 1" xmlns="http://www.w3.org/2000/svg" viewBox="0 0 24 24"><title>iconoteka_camera__dsrl_local_see_photo_shoot_l_s</title><path d="M19,6H17.14L15.41,3H8.59L6.86,6H5A3,3,0,0,0,2,9v9a3,3,0,0,0,3,3H19a3,3,0,0,0,3-3V9A3,3,0,0,0,19,6Zm2.5,12A2.5,2.5,0,0,1,19,20.5H5A2.5,2.5,0,0,1,2.5,18V9A2.5,2.5,0,0,1,5,6.5H7.15l.14-.25L8.88,3.5h6.24l1.59,2.75.14.25H19A2.5,2.5,0,0,1,21.5,9ZM12,9a4,4,0,1,0,4,4A4,4,0,0,0,12,9Zm0,7.5A3.5,3.5,0,1,1,15.5,13,3.5,3.5,0,0,1,12,16.5Z"/></svg>