<svg id="Layer_1" data-name="Layer 1" xmlns="http://www.w3.org/2000/svg" viewBox="0 0 24 24"><title>iconoteka_keyboard_wire_m_s</title><path d="M20,5H12.75V3.75A1.25,1.25,0,0,1,14,2.5h2V1H14a2.75,2.75,0,0,0-2.75,2.75V5H4A3,3,0,0,0,1,8V18a3,3,0,0,0,3,3H20a3,3,0,0,0,3-3V8A3,3,0,0,0,20,5Zm1.5,13A1.5,1.5,0,0,1,20,19.5H4A1.5,1.5,0,0,1,2.5,18V8A1.5,1.5,0,0,1,4,6.5H20A1.5,1.5,0,0,1,21.5,8ZM8,17h8V15H8Zm5-5H11v2h2Zm0-3H11v2h2Zm-3,3H8v2h2Zm0-3H8v2h2ZM5,14H7V12H5Zm0,3H7V15H5Zm12,0h2V15H17ZM5,11H7V9H5Zm9,3h2V12H14Zm0-3h2V9H14Zm3,3h2V12H17Zm0-3h2V9H17Z"/></svg>