<svg id="Layer_1" data-name="Layer 1" xmlns="http://www.w3.org/2000/svg" viewBox="0 0 24 24"><title>iconoteka_keyboard_wireless_l_s</title><path d="M20.5,6H3.5A2.5,2.5,0,0,0,1,8.5v11A2.5,2.5,0,0,0,3.5,22h17A2.5,2.5,0,0,0,23,19.5V8.5A2.5,2.5,0,0,0,20.5,6Zm2,13.5a2,2,0,0,1-2,2H3.5a2,2,0,0,1-2-2V8.5a2,2,0,0,1,2-2h17a2,2,0,0,1,2,2ZM4,11.5H7V9H4Zm.5-2h2V11h-2Zm12.5,2h3V9H17Zm.5-2h2V11h-2ZM11.33,9h-3v2.5h3Zm-.5,2h-2V9.5h2Zm1.84.5h3V9h-3Zm.5-2h2V11h-2ZM4,19H7V16.5H4Zm.5-2h2v1.5h-2ZM17,19h3V16.5H17Zm.5-2h2v1.5h-2ZM8.33,19h7.34V16.5H8.33Zm.5-2h6.34v1.5H8.83ZM4,15.25H7v-2.5H4Zm.5-2h2v1.5h-2Zm12.5,2h3v-2.5H17Zm.5-2h2v1.5h-2Zm-6.17-.5h-3v2.5h3Zm-.5,2h-2v-1.5h2Zm1.84.5h3v-2.5h-3Zm.5-2h2v1.5h-2ZM12,1.87a5.71,5.71,0,0,1,4.07,1.69l.35-.36a6.25,6.25,0,0,0-8.84,0l.35.36A5.71,5.71,0,0,1,12,1.87Z"/></svg>