<svg id="Layer_1" data-name="Layer 1" xmlns="http://www.w3.org/2000/svg" viewBox="0 0 24 24"><title>iconoteka_cell_phone_with_qwerty_keyboard_l_s</title><path d="M16.5,2h-9A2.5,2.5,0,0,0,5,4.5v15A2.5,2.5,0,0,0,7.5,22h9A2.5,2.5,0,0,0,19,19.5V4.5A2.5,2.5,0,0,0,16.5,2ZM5.5,12.5H8.38v2.67H5.5Zm6.75,3.17h2.87v2.66H12.25Zm-.5,2.66H8.88V15.67h2.87Zm.5-3.16V12.5h2.87v2.67Zm-.5,0H8.88V12.5h2.87Zm-6.25.5H8.38v2.66H5.5Zm2,5.83a2,2,0,0,1-2-2v-.67H8.38V21.5Zm1.38,0V18.83h2.87V21.5Zm3.37,0V18.83h2.87V21.5Zm6.25-2a2,2,0,0,1-2,2h-.88V18.83H18.5Zm0-1.17H15.62V15.67H18.5Zm0-3.16H15.62V12.5H18.5ZM15.62,12H5.5V4.5a2,2,0,0,1,2-2h9a2,2,0,0,1,2,2V12Z"/></svg>