<svg id="Layer_1" data-name="Layer 1" xmlns="http://www.w3.org/2000/svg" viewBox="0 0 24 24"><title>iconoteka_microphone_off_alt__voice_off_r_s</title><path d="M20.35,18.65l-1.91-1.92A7.91,7.91,0,0,0,20,12V10H19v2a6.92,6.92,0,0,1-1.28,4l-2.18-2.19A4,4,0,0,0,16,12V5A4,4,0,0,0,8,5V6.29L4.35,2.65l-.7.7L8,7.71V12a4,4,0,0,0,7,2.67l2.13,2.12A7,7,0,0,1,5,12V10H4v2a8,8,0,0,0,7.5,8v3h1V20a7.94,7.94,0,0,0,5.3-2.47l1.85,1.85ZM9,5a3,3,0,0,1,6,0v7a3,3,0,0,1-.21,1.08L9,7.29Zm3,10a3,3,0,0,1-3-3V8.71L14.25,14A3,3,0,0,1,12,15Z"/></svg>