<svg id="Layer_1" data-name="Layer 1" xmlns="http://www.w3.org/2000/svg" viewBox="0 0 24 24"><title>iconoteka_device_settings_l_s</title><path d="M16.5,2h-9A2.5,2.5,0,0,0,5,4.5v15A2.5,2.5,0,0,0,7.5,22h9A2.5,2.5,0,0,0,19,19.5V4.5A2.5,2.5,0,0,0,16.5,2Zm2,17.5a2,2,0,0,1-2,2h-9a2,2,0,0,1-2-2V4.5a2,2,0,0,1,2-2h9a2,2,0,0,1,2,2Zm-2.69-8.69a3.81,3.81,0,0,0-.87-1.51l-1.28.59L13,9.51,12.87,8.1a3.83,3.83,0,0,0-1.74,0L11,9.51l-.66.38L9.06,9.3a3.81,3.81,0,0,0-.87,1.51l1.15.81v.76l-1.15.81a3.81,3.81,0,0,0,.87,1.51l1.28-.59.66.38.13,1.41a3.83,3.83,0,0,0,1.74,0L13,14.49l.66-.38,1.28.59a3.81,3.81,0,0,0,.87-1.51l-1.15-.81v-.76ZM14.4,12.75l.87.62a3.11,3.11,0,0,1-.2.41,2.68,2.68,0,0,1-.25.37l-1-.45-.21-.09-.2.11-.67.38-.2.12,0,.23-.1,1.07-.45,0-.45,0-.1-1.07,0-.23-.2-.12-.67-.38-.2-.11-.21.09-1,.45a2.26,2.26,0,0,1-.25-.38,2.49,2.49,0,0,1-.2-.4l.87-.62.19-.13V11.38l-.19-.13-.87-.62a3.11,3.11,0,0,1,.2-.41,2.68,2.68,0,0,1,.25-.37l1,.45.21.09.2-.11.67-.38.2-.12,0-.23.1-1.07.45,0,.45,0,.1,1.07,0,.23.2.12.67.38.2.11.21-.09,1-.45a2.26,2.26,0,0,1,.25.38,2.49,2.49,0,0,1,.2.4l-.87.62-.19.13v1.24ZM12,10.82A1.18,1.18,0,1,0,13.18,12,1.18,1.18,0,0,0,12,10.82Zm0,1.91a.73.73,0,1,1,.73-.73A.73.73,0,0,1,12,12.73Z"/></svg>