<svg id="Layer_1" data-name="Layer 1" xmlns="http://www.w3.org/2000/svg" viewBox="0 0 24 24"><title>iconoteka_compact_camera_b_s</title><path d="M19.5,5H4.5A2.5,2.5,0,0,0,2,7.5v9A2.5,2.5,0,0,0,4.5,19h15A2.5,2.5,0,0,0,22,16.5v-9A2.5,2.5,0,0,0,19.5,5ZM7,17H4.5a.5.5,0,0,1-.5-.5v-9A.5.5,0,0,1,4.5,7H7Zm13-.5a.5.5,0,0,1-.5.5H9V7H19.5a.5.5,0,0,1,.5.5ZM9,3.05a.76.76,0,0,0-.75-.75H5.75A.76.76,0,0,0,5,3.05V4H9ZM14.5,8.5A3.5,3.5,0,1,0,18,12,3.5,3.5,0,0,0,14.5,8.5Zm0,5A1.5,1.5,0,1,1,16,12,1.5,1.5,0,0,1,14.5,13.5Z"/></svg>