<svg id="Layer_1" data-name="Layer 1" xmlns="http://www.w3.org/2000/svg" viewBox="0 0 24 24"><title>iconoteka_cell_phone_flip_r_f</title><path d="M18,10V4a2,2,0,0,0-2-2H8A2,2,0,0,0,6,4v6a2,2,0,0,0,2,2,2,2,0,0,0-2,2v6a2,2,0,0,0,2,2h8a2,2,0,0,0,2-2V14a2,2,0,0,0-2-2A2,2,0,0,0,18,10ZM8.9,20.53a.9.9,0,1,1,.9-.9A.9.9,0,0,1,8.9,20.53Zm0-2.77a.9.9,0,1,1,.9-.9A.9.9,0,0,1,8.9,17.76ZM8.9,15a.9.9,0,1,1,.9-.9A.9.9,0,0,1,8.9,15ZM12,20.53a.9.9,0,1,1,.9-.9A.9.9,0,0,1,12,20.53Zm0-2.77a.9.9,0,1,1,.9-.9A.9.9,0,0,1,12,17.76ZM12,15a.9.9,0,1,1,.9-.9A.9.9,0,0,1,12,15Zm3.1,5.53a.9.9,0,1,1,.9-.9A.9.9,0,0,1,15.1,20.53Zm0-2.77a.9.9,0,1,1,.9-.9A.9.9,0,0,1,15.1,17.76Zm0-2.76a.9.9,0,1,1,.9-.9A.9.9,0,0,1,15.1,15ZM17,10H7V4H17Z"/></svg>