<svg id="Layer_1" data-name="Layer 1" xmlns="http://www.w3.org/2000/svg" viewBox="0 0 24 24"><title>iconoteka_power_settings_r_s</title><path d="M12,21A9,9,0,0,1,7.51,4.21L7,3.35A10,10,0,1,0,22,12H21A9,9,0,0,1,12,21ZM22.49,6.33l1.23-.88a4.35,4.35,0,0,0-.42-1.12,4.24,4.24,0,0,0-.76-.92L21.17,4h0L21,2.53a3.84,3.84,0,0,0-1.18-.2,3.78,3.78,0,0,0-1.17.2L18.51,4h0l-1.37-.62a4.24,4.24,0,0,0-.76.92A4,4,0,0,0,16,5.45l1.22.88h0L16,7.22a3.64,3.64,0,0,0,1.18,2l1.37-.62h0l.15,1.5a4.09,4.09,0,0,0,1.17.19A4.16,4.16,0,0,0,21,10.14l.15-1.5h0l1.37.62a3.81,3.81,0,0,0,.76-.92,4.16,4.16,0,0,0,.42-1.11l-1.23-.88Zm.36,1.19a2.94,2.94,0,0,1-.2.44,3.16,3.16,0,0,1-.28.39L21.48,8l-.36-.15L20.78,8l-.33.19,0,.38-.1,1a2.59,2.59,0,0,1-.48,0,2.74,2.74,0,0,1-.48,0l-.09-1-.05-.38L18.87,8l-.33-.19L18.19,8l-.89.4A3.16,3.16,0,0,1,17,8a2.19,2.19,0,0,1-.2-.44L17.61,7l.31-.24V5.94l-.31-.22-.79-.57a2,2,0,0,1,.2-.44,2.63,2.63,0,0,1,.28-.4l.89.41.36.15.34-.19.33-.2,0-.38.09-1a2.8,2.8,0,0,1,.48,0,2.61,2.61,0,0,1,.48,0l.1,1,.05.39.34.19.33.19.35-.15.89-.41a2.63,2.63,0,0,1,.28.4,2.55,2.55,0,0,1,.2.44l-.8.57L21.74,6v.77l.31.23Zm-3-1.94a.75.75,0,0,0,0,1.5.75.75,0,0,0,0-1.5ZM12.5,2h-1V12h1Z"/></svg>