<svg id="Layer_1" data-name="Layer 1" xmlns="http://www.w3.org/2000/svg" viewBox="0 0 24 24"><title>iconoteka_surround_sound_3d_sound_l_s</title><path d="M5.55,12.2v.5a5.74,5.74,0,0,1,5.75,5.75h.5A6.25,6.25,0,0,0,5.55,12.2Zm-2,2.64L3.18,18,1.49,19.68l2.83,2.83L6,20.82l3.15-.32.37-.37L3.87,14.47ZM8.73,20,6,20.32l-.18,0-.12.12L4.32,21.8,2.2,19.68l1.46-1.46,0-.18L4,15.27Zm4-14.49h-.5a6.25,6.25,0,0,0,6.25,6.25v-.5A5.74,5.74,0,0,1,12.7,5.55Zm7-4.06L18,3.18l-3.15.32-.37.37,5.66,5.66.37-.37L20.82,6l1.69-1.69Zm.78,4.17-.12.12,0,.18L20,8.73,15.27,4,18,3.68l.18,0L19.68,2.2,21.8,4.32Z"/></svg>