<svg id="Layer_1" data-name="Layer 1" xmlns="http://www.w3.org/2000/svg" viewBox="0 0 24 24"><title>iconoteka_battery_charging_0__empty_l_s</title><path d="M13.5,3H11A2,2,0,0,0,7,3H4.5A2.5,2.5,0,0,0,2,5.5v15A2.5,2.5,0,0,0,4.5,23h9A2.5,2.5,0,0,0,16,20.5V5.5A2.5,2.5,0,0,0,13.5,3ZM9,1.5A1.5,1.5,0,0,1,10.5,3h-3A1.5,1.5,0,0,1,9,1.5Zm6.5,19a2,2,0,0,1-2,2h-9a2,2,0,0,1-2-2V5.5a2,2,0,0,1,2-2h9a2,2,0,0,1,2,2ZM21.16,4.08V1.17h-.8L17.64,6.58H20.5V9.49h.8L24,4.08ZM21,9V6.08H18.45l2.21-4.39V4.58h2.56Z"/></svg>