<svg id="Layer_1" data-name="Layer 1" xmlns="http://www.w3.org/2000/svg" viewBox="0 0 24 24"><title>iconoteka_power_socket_k_l_s</title><path d="M12,2A10,10,0,1,0,22,12,10,10,0,0,0,12,2Zm0,19.5A9.5,9.5,0,1,1,21.5,12,9.51,9.51,0,0,1,12,21.5Zm4.64-11a1.5,1.5,0,1,0,1.5,1.5A1.5,1.5,0,0,0,16.64,10.5Zm0,2.5a1,1,0,1,1,1-1A1,1,0,0,1,16.64,13ZM7.36,10.5A1.5,1.5,0,1,0,8.86,12,1.5,1.5,0,0,0,7.36,10.5Zm0,2.5a1,1,0,1,1,1-1A1,1,0,0,1,7.36,13ZM12,18a2,2,0,0,0,2-2H10A2,2,0,0,0,12,18Zm0-.5a1.5,1.5,0,0,1-1.41-1h2.82A1.5,1.5,0,0,1,12,17.5Z"/></svg>