<svg id="Layer_1" data-name="Layer 1" xmlns="http://www.w3.org/2000/svg" viewBox="0 0 24 24"><title>iconoteka_microphone_off_alt__voice_off_b_s</title><path d="M20.71,18l-1.86-1.86A7.9,7.9,0,0,0,20,12V10H18v2a6,6,0,0,1-.62,2.65L15.83,13.1A4,4,0,0,0,16,12V5A4,4,0,0,0,8,5v.27L4.71,2,3.29,3.39,8,8.1V12a4,4,0,0,0,4,4,4,4,0,0,0,2.77-1.13l1.42,1.42A6,6,0,0,1,6,12V10H4v2a8,8,0,0,0,7,7.93V23h2V19.93a8,8,0,0,0,4.6-2.23l1.69,1.69ZM10,5a2,2,0,0,1,4,0v6.27l-4-4Zm2,9a2,2,0,0,1-2-2V10.1l3.36,3.36A2,2,0,0,1,12,14Z"/></svg>