<svg id="Layer_1" data-name="Layer 1" xmlns="http://www.w3.org/2000/svg" viewBox="0 0 24 24"><title>iconoteka_hide_keyboard_m_s</title><path d="M20,3H4A3,3,0,0,0,1,6V16a3,3,0,0,0,3,3H20a3,3,0,0,0,3-3V6A3,3,0,0,0,20,3Zm1.5,13A1.5,1.5,0,0,1,20,17.5H4A1.5,1.5,0,0,1,2.5,16V6A1.5,1.5,0,0,1,4,4.5H20A1.5,1.5,0,0,1,21.5,6ZM8,15h8V13H8Zm5-5H11v2h2Zm0-3H11V9h2Zm-3,3H8v2h2Zm0-3H8V9h2ZM5,12H7V10H5Zm0,3H7V13H5Zm12,0h2V13H17ZM5,9H7V7H5Zm9,3h2V10H14Zm0-3h2V7H14Zm3,3h2V10H17Zm0-3h2V7H17ZM12,24l2.5-2.5h-5Z"/></svg>