<svg id="Layer_1" data-name="Layer 1" xmlns="http://www.w3.org/2000/svg" viewBox="0 0 24 24"><title>iconoteka_cell_phone_slider_l_s</title><path d="M16,2H8A2,2,0,0,0,6,4v8a2,2,0,0,0,1,1.72V20a2,2,0,0,0,2,2h6a2,2,0,0,0,2-2V13.72A2,2,0,0,0,18,12V4A2,2,0,0,0,16,2ZM7.5,13.93A2.08,2.08,0,0,0,8,14h3.75v3.25H7.5ZM9,21.5A1.5,1.5,0,0,1,7.5,20V17.75h4.25V21.5ZM16.5,20A1.5,1.5,0,0,1,15,21.5H12.25V17.75H16.5Zm0-2.75H12.25V14H16a2.08,2.08,0,0,0,.5-.07Zm1-5.25A1.5,1.5,0,0,1,16,13.5H8A1.5,1.5,0,0,1,6.5,12V4A1.5,1.5,0,0,1,8,2.5h8A1.5,1.5,0,0,1,17.5,4Z"/></svg>