<svg id="Layer_1" data-name="Layer 1" xmlns="http://www.w3.org/2000/svg" viewBox="0 0 24 24"><title>iconoteka_gamepad_wire__joystick__controller_r_s</title><path d="M7.42,8.58H6.58v2h-2v.84h2v2h.84v-2h2v-.84h-2ZM17,8.5a2.49,2.49,0,1,0,1.77.73A2.5,2.5,0,0,0,17,8.5Zm1.15,3.65A1.62,1.62,0,1,1,18.63,11,1.59,1.59,0,0,1,18.15,12.15ZM18,5H12.5V3.42A1.43,1.43,0,0,1,13.92,2H17V1H13.92A2.42,2.42,0,0,0,11.5,3.42V5H6a5,5,0,0,0-5,5v8.9a3.1,3.1,0,0,0,6,1L8,17h8l1,2.89a3.1,3.1,0,0,0,6-1V10A5,5,0,0,0,18,5Zm4,13.9a2.1,2.1,0,0,1-4.1.64l-1-2.88L16.7,16H7.3l-.24.66-1,2.88A2.1,2.1,0,0,1,2,18.9V10A4,4,0,0,1,6,6H18a4,4,0,0,1,4,4Z"/></svg>