<svg id="Layer_1" data-name="Layer 1" xmlns="http://www.w3.org/2000/svg" viewBox="0 0 24 24"><title>iconoteka_permission_camera_microphone_l_s</title><path d="M19,6H17.14L15.41,3H8.59L6.86,6H5A3,3,0,0,0,2,9v9a3,3,0,0,0,3,3H19a3,3,0,0,0,3-3V9A3,3,0,0,0,19,6Zm2.5,12A2.5,2.5,0,0,1,19,20.5H5A2.5,2.5,0,0,1,2.5,18V9A2.5,2.5,0,0,1,5,6.5H7.15l.14-.25L8.88,3.5h6.24l1.59,2.75.14.25H19A2.5,2.5,0,0,1,21.5,9Zm-9.62-2.76a2.57,2.57,0,0,1-2.57-2.56h-.5a3,3,0,0,0,2.81,3V17.5h.5V15.71a3.05,3.05,0,0,0,2.82-3h-.5A2.56,2.56,0,0,1,11.88,15.24Zm0-1.14a1.43,1.43,0,0,0,1.42-1.42V10.44a1.43,1.43,0,0,0-2.85,0v2.24A1.43,1.43,0,0,0,11.88,14.1ZM11,10.44a.93.93,0,0,1,1.85,0v2.24a.93.93,0,0,1-1.85,0Z"/></svg>