<svg id="Layer_1" data-name="Layer 1" xmlns="http://www.w3.org/2000/svg" viewBox="0 0 24 24"><title>iconoteka_microphone_off_alt__voice_off_l_s</title><path d="M20.18,18.82l-1.89-1.88A8,8,0,0,0,20,12V10h-.5v2a7.48,7.48,0,0,1-1.57,4.58l-2.52-2.52A3.9,3.9,0,0,0,16,12V5A4,4,0,0,0,8,5V6.65L4.18,2.82l-.36.36L8,7.35V12a4,4,0,0,0,4,4,4,4,0,0,0,3.12-1.53L17.61,17A7.49,7.49,0,0,1,4.5,12V10H4v2a8,8,0,0,0,7.75,8v3h.5V20A8,8,0,0,0,18,17.32l1.86,1.86ZM8.5,5a3.5,3.5,0,0,1,7,0v7A3.34,3.34,0,0,1,15,13.69L8.5,7.15ZM12,15.5A3.5,3.5,0,0,1,8.5,12V7.85l6.27,6.27A3.5,3.5,0,0,1,12,15.5Z"/></svg>