<svg id="Layer_1" data-name="Layer 1" xmlns="http://www.w3.org/2000/svg" viewBox="0 0 24 24"><title>iconoteka_battery_unknown_r_f</title><path d="M16,3H14a2,2,0,0,0-4,0H8A3,3,0,0,0,5,6V20a3,3,0,0,0,3,3h8a3,3,0,0,0,3-3V6A3,3,0,0,0,16,3ZM11.75,18.15a.68.68,0,1,1,.69-.68A.68.68,0,0,1,11.75,18.15Zm1.77-4.9c-.72.49-1.29.87-1.29,2h-1A3.07,3.07,0,0,1,13,12.45c.71-.47,1.1-.78,1.1-1.54A1.93,1.93,0,0,0,12,9.19c-1.27,0-2,.9-2,2.41H9c0-2.49,1.61-3.37,3-3.37a2.85,2.85,0,0,1,3,2.68A2.67,2.67,0,0,1,13.52,13.25Z"/></svg>