<svg id="Layer_1" data-name="Layer 1" xmlns="http://www.w3.org/2000/svg" viewBox="0 0 24 24"><title>iconoteka_cell_phone_with_keyboard__old_phone_l_f</title><path d="M15.5,2h-7A2.5,2.5,0,0,0,6,4.5v15A2.5,2.5,0,0,0,8.5,22h7A2.5,2.5,0,0,0,18,19.5V4.5A2.5,2.5,0,0,0,15.5,2ZM8.71,20a.9.9,0,1,1,.9-.9A.9.9,0,0,1,8.71,20Zm0-3.1a.9.9,0,1,1,.9-.9A.9.9,0,0,1,8.71,16.9Zm0-3.1a.9.9,0,1,1,.9-.9A.9.9,0,0,1,8.71,13.8ZM12,20a.9.9,0,1,1,.9-.9A.9.9,0,0,1,12,20Zm0-3.1a.9.9,0,1,1,.9-.9A.9.9,0,0,1,12,16.9Zm0-3.1a.9.9,0,1,1,.9-.9A.9.9,0,0,1,12,13.8ZM15.29,20a.9.9,0,1,1,.9-.9A.9.9,0,0,1,15.29,20Zm0-3.1a.9.9,0,1,1,.9-.9A.9.9,0,0,1,15.29,16.9Zm0-3.1a.9.9,0,1,1,.9-.9A.9.9,0,0,1,15.29,13.8ZM17.5,10H6.5V5h11Z"/></svg>