<svg id="Layer_1" data-name="Layer 1" xmlns="http://www.w3.org/2000/svg" viewBox="0 0 24 24"><title>iconoteka_watch_b-s</title><path d="M16.36,6.53C16,1,15.13,1,14.5,1h-5C8.87,1,8,1,7.64,6.53a7,7,0,0,0,0,10.94C8,23,8.87,23,9.5,23h5c.63,0,1.52,0,1.86-5.53a7,7,0,0,0,0-10.94ZM10.08,3h3.84a18.57,18.57,0,0,1,.32,2.38,6.79,6.79,0,0,0-4.48,0A18.57,18.57,0,0,1,10.08,3Zm3.84,18H10.08a18.57,18.57,0,0,1-.32-2.38,6.79,6.79,0,0,0,4.48,0A18.57,18.57,0,0,1,13.92,21ZM12,17a5,5,0,1,1,5-5A5,5,0,0,1,12,17Zm.69-7.84H11V13h3.85v-1.7H12.69Z"/></svg>