<svg id="Layer_1" data-name="Layer 1" xmlns="http://www.w3.org/2000/svg" viewBox="0 0 24 24"><title>iconoteka_watch__analog_m_s</title><path d="M16,6.26V3a2,2,0,0,0-2-2H10A2,2,0,0,0,8,3V6.26A7,7,0,0,0,8,17.74V21a2,2,0,0,0,2,2h4a2,2,0,0,0,2-2V17.74A7,7,0,0,0,16,6.26ZM9.5,3a.5.5,0,0,1,.5-.5h4a.5.5,0,0,1,.5.5V5.47a6.88,6.88,0,0,0-5,0Zm5,18a.5.5,0,0,1-.5.5H10a.5.5,0,0,1-.5-.5V18.53a6.88,6.88,0,0,0,5,0ZM12,17.5A5.5,5.5,0,1,1,17.5,12,5.51,5.51,0,0,1,12,17.5Zm.59-8.73H11.14v4.09h3.61V11.41H12.59Z"/></svg>