<svg id="Layer_1" data-name="Layer 1" xmlns="http://www.w3.org/2000/svg" viewBox="0 0 24 24"><title>iconoteka_smartwatch-square_l_s</title><path d="M16,5.14V3a2,2,0,0,0-2-2H10A2,2,0,0,0,8,3V5.14A4,4,0,0,0,5,9v6a4,4,0,0,0,3,3.86V21a2,2,0,0,0,2,2h4a2,2,0,0,0,2-2V18.86A4,4,0,0,0,19,15V9A4,4,0,0,0,16,5.14ZM8.5,3A1.5,1.5,0,0,1,10,1.5h4A1.5,1.5,0,0,1,15.5,3V5.05A4.23,4.23,0,0,0,15,5H9a4.23,4.23,0,0,0-.5,0Zm7,18A1.5,1.5,0,0,1,14,22.5H10A1.5,1.5,0,0,1,8.5,21V19A4.23,4.23,0,0,0,9,19h6a4.23,4.23,0,0,0,.5-.05Zm3-6A3.5,3.5,0,0,1,15,18.5H9A3.5,3.5,0,0,1,5.5,15V9A3.5,3.5,0,0,1,9,5.5h6A3.5,3.5,0,0,1,18.5,9Z"/></svg>