<svg id="Layer_1" data-name="Layer 1" xmlns="http://www.w3.org/2000/svg" viewBox="0 0 24 24"><title>iconoteka_radio__vintage__station_reciever_m_s</title><path d="M17,17.05A1.05,1.05,0,1,0,16,16,1,1,0,0,0,17,17.05ZM20.17,6H7.67L19,2,18.5.54,3.18,6.12h0A1.84,1.84,0,0,0,2,7.83V19.17A1.83,1.83,0,0,0,3.83,21H20.17A1.83,1.83,0,0,0,22,19.17V7.83A1.83,1.83,0,0,0,20.17,6ZM3.5,7.83c0-.18,1-.33,1.22-.33H15V10H3.5Zm17,11.34c0,.18-1,.33-1.22.33H3.83c-.18,0-.33-1-.33-1.16V11.5h17Zm0-9.17h-4V7.5h3.67c.18,0,.33,1,.33,1.16Z"/></svg>