<svg id="Layer_1" data-name="Layer 1" xmlns="http://www.w3.org/2000/svg" viewBox="0 0 24 24"><title>iconoteka_voice_settings__microphone_r_f</title><path d="M9,16.5a4,4,0,0,0,4-4v-7a4,4,0,0,0-8,0v7A4,4,0,0,0,9,16.5Zm7-4a7,7,0,0,1-14,0v-2H1v2a8,8,0,0,0,7.5,8v3h1v-3a8,8,0,0,0,7.5-8v-2H16ZM21.5,4l1.24-.9A4.13,4.13,0,0,0,22.07,2l-1.4.62-.84-.49L19.66.57a3.15,3.15,0,0,0-1.32,0l-.17,1.52-.84.49L15.93,2a4.13,4.13,0,0,0-.67,1.15L16.5,4V5l-1.24.9A4.13,4.13,0,0,0,15.93,7l1.4-.62.84.49.17,1.52a3.15,3.15,0,0,0,1.32,0l.17-1.52.84-.49,1.4.62a4.13,4.13,0,0,0,.67-1.15L21.5,5ZM19,5.5a1,1,0,1,1,1-1A1,1,0,0,1,19,5.5Z"/></svg>