<svg id="Layer_1" data-name="Layer 1" xmlns="http://www.w3.org/2000/svg" viewBox="0 0 24 24"><title>iconoteka_cameras__photo_fear_party_mode_m_s</title><path d="M3.5,8.4A2,2,0,0,0,2,10.33V18a2,2,0,0,0,2,2H16a2,2,0,0,0,1.93-1.5H3.5ZM20,4.33H18.11L16.73,2H11.27L9.89,4.33H8a2,2,0,0,0-2,2V14a2,2,0,0,0,2,2H20a2,2,0,0,0,2-2V6.33A2,2,0,0,0,20,4.33ZM20.5,14a.5.5,0,0,1-.5.5H8a.5.5,0,0,1-.5-.5V6.33a.5.5,0,0,1,.5-.5h2.74l.44-.73,1-1.6h3.74l1,1.6.44.73H20a.5.5,0,0,1,.5.5ZM14,7.66a2,2,0,1,0,2,2A2,2,0,0,0,14,7.66Z"/></svg>