<svg id="Layer_1" data-name="Layer 1" xmlns="http://www.w3.org/2000/svg" viewBox="0 0 24 24"><title>iconoteka_power_socket_e_l_s</title><path d="M12,2A10,10,0,1,0,22,12,10,10,0,0,0,12,2Zm0,19.5A9.5,9.5,0,1,1,21.5,12,9.51,9.51,0,0,1,12,21.5Zm4.64-11a1.5,1.5,0,1,0,1.5,1.5A1.5,1.5,0,0,0,16.64,10.5Zm0,2.5a1,1,0,1,1,1-1A1,1,0,0,1,16.64,13ZM7.36,10.5A1.5,1.5,0,1,0,8.86,12,1.5,1.5,0,0,0,7.36,10.5Zm0,2.5a1,1,0,1,1,1-1A1,1,0,0,1,7.36,13ZM12,5.59a2.28,2.28,0,1,0,2.28,2.28A2.28,2.28,0,0,0,12,5.59Zm0,4.05a1.78,1.78,0,1,1,1.78-1.77A1.78,1.78,0,0,1,12,9.64Z"/></svg>