<svg id="Layer_1" data-name="Layer 1" xmlns="http://www.w3.org/2000/svg" viewBox="0 0 24 24"><title>iconoteka_power_settings_m_s</title><path d="M12,20.5A8.49,8.49,0,0,1,7.75,4.65L7,3.35A10,10,0,1,0,22,12H20.5A8.51,8.51,0,0,1,12,20.5ZM22.34,5.69l1.21-.8a4,4,0,0,0-.25-.56,4.54,4.54,0,0,0-.36-.5l-1.3.65-1.11-.63-.08-1.46a4.34,4.34,0,0,0-.62-.06,4.07,4.07,0,0,0-.61.06l-.08,1.46L18,4.48l-1.3-.65a3.52,3.52,0,0,0-.36.5,3.1,3.1,0,0,0-.25.56l1.21.8V7l-1.21.8a3.1,3.1,0,0,0,.25.56,3.52,3.52,0,0,0,.36.5L18,8.18l1.11.64.08,1.45a4.07,4.07,0,0,0,.61.06,4.34,4.34,0,0,0,.62-.06l.08-1.45,1.11-.64,1.3.65a4.54,4.54,0,0,0,.36-.5,4,4,0,0,0,.25-.56L22.34,7ZM19.83,7.55a1.22,1.22,0,1,1,1.22-1.22A1.22,1.22,0,0,1,19.83,7.55ZM12.75,2h-1.5V12h1.5Z"/></svg>