<svg id="Layer_1" data-name="Layer 1" xmlns="http://www.w3.org/2000/svg" viewBox="0 0 24 24"><title>iconoteka_gamepad_wireless__joystick__controller_r_f</title><path d="M11.83,1.62a5.46,5.46,0,0,1,3.89,1.61l.71-.7a6.48,6.48,0,0,0-9.19,0l.7.7A5.46,5.46,0,0,1,11.83,1.62ZM17,9.28a1.74,1.74,0,1,0,1.21.51A1.67,1.67,0,0,0,17,9.28ZM18,5H6a5,5,0,0,0-5,5v9.13A2.86,2.86,0,0,0,6.61,20L7.49,17h9L17.39,20A2.86,2.86,0,0,0,23,19.13V10A5,5,0,0,0,18,5ZM9.42,11.42h-2v2H6.58v-2h-2v-.84h2v-2h.84v2h2ZM18.8,12.8a2.54,2.54,0,1,1,.75-1.8A2.55,2.55,0,0,1,18.8,12.8Z"/></svg>