<svg id="Layer_1" data-name="Layer 1" xmlns="http://www.w3.org/2000/svg" viewBox="0 0 24 24"><title>iconoteka_cell_phone_flip_m_s</title><path d="M18,11V4a2,2,0,0,0-2-2H8A2,2,0,0,0,6,4v7a2,2,0,0,0,.69,1.5A2,2,0,0,0,6,14v6a2,2,0,0,0,2,2h8a2,2,0,0,0,2-2V14a2,2,0,0,0-.69-1.5A2,2,0,0,0,18,11ZM7.5,4A.5.5,0,0,1,8,3.5h8a.5.5,0,0,1,.5.5v7a.5.5,0,0,1-.5.5H8a.5.5,0,0,1-.5-.5Zm0,10a.5.5,0,0,1,.5-.5h3.3v2.8H7.5ZM8,20.5a.5.5,0,0,1-.5-.5V17.7h3.8v2.8Zm8.5-.5a.5.5,0,0,1-.5.5H12.7V17.7h3.8Zm-3.8-3.7V13.5H16a.5.5,0,0,1,.5.5v2.3Z"/></svg>