<svg id="Layer_1" data-name="Layer 1" xmlns="http://www.w3.org/2000/svg" viewBox="0 0 24 24"><title>iconoteka_keyboard_l_s</title><path d="M20.5,4H3.5A2.5,2.5,0,0,0,1,6.5v11A2.5,2.5,0,0,0,3.5,20h17A2.5,2.5,0,0,0,23,17.5V6.5A2.5,2.5,0,0,0,20.5,4Zm2,13.5a2,2,0,0,1-2,2H3.5a2,2,0,0,1-2-2V6.5a2,2,0,0,1,2-2h17a2,2,0,0,1,2,2ZM4,9.5H7V7H4Zm.5-2h2V9h-2ZM17,9.5h3V7H17Zm.5-2h2V9h-2ZM11.33,7h-3V9.5h3Zm-.5,2h-2V7.5h2Zm1.84.5h3V7h-3Zm.5-2h2V9h-2ZM4,17H7V14.5H4Zm.5-2h2v1.5h-2ZM17,17h3V14.5H17Zm.5-2h2v1.5h-2ZM8.33,17h7.34V14.5H8.33Zm.5-2h6.34v1.5H8.83ZM4,13.25H7v-2.5H4Zm.5-2h2v1.5h-2Zm12.5,2h3v-2.5H17Zm.5-2h2v1.5h-2Zm-6.17-.5h-3v2.5h3Zm-.5,2h-2v-1.5h2Zm1.84.5h3v-2.5h-3Zm.5-2h2v1.5h-2Z"/></svg>