<svg id="Layer_1" data-name="Layer 1" xmlns="http://www.w3.org/2000/svg" viewBox="0 0 24 24"><title>iconoteka_no_energy__no_power_no_battery_l_s</title><path d="M16.5,3H14a2,2,0,0,0-4,0H7.5A2.5,2.5,0,0,0,5,5.5v15A2.5,2.5,0,0,0,7.5,23h9A2.5,2.5,0,0,0,19,20.5V5.5A2.5,2.5,0,0,0,16.5,3ZM12,1.5A1.5,1.5,0,0,1,13.5,3h-3A1.5,1.5,0,0,1,12,1.5Zm6.5,19a2,2,0,0,1-2,2h-9a2,2,0,0,1-2-2V5.5a2,2,0,0,1,2-2h9a2,2,0,0,1,2,2ZM14.26,10.39,12,12.65,9.74,10.39l-.35.35L11.65,13,9.39,15.26l.35.35L12,13.35l2.26,2.26.35-.35L12.35,13l2.26-2.26Z"/></svg>