<svg id="Layer_1" data-name="Layer 1" xmlns="http://www.w3.org/2000/svg" viewBox="0 0 24 24"><title>iconoteka_voice_settings__microphone_b_s</title><path d="M9,16a4,4,0,0,0,4-4V5A4,4,0,0,0,5,5v7A4,4,0,0,0,9,16ZM7,5a2,2,0,0,1,4,0v7a2,2,0,0,1-4,0Zm8,7A6,6,0,0,1,3,12V10H1v2a8,8,0,0,0,7,7.93V23h2V19.93A8,8,0,0,0,17,12V10H15Zm6.5-7.49,1.24-.9a4.13,4.13,0,0,0-.67-1.15l-1.4.62-.84-.49-.17-1.52a3.15,3.15,0,0,0-1.32,0l-.17,1.52-.84.49-1.4-.62a4.13,4.13,0,0,0-.67,1.15l1.24.9v1l-1.24.9a4.13,4.13,0,0,0,.67,1.15l1.4-.62.84.49.17,1.52a3.15,3.15,0,0,0,1.32,0l.17-1.52.84-.49,1.4.62a4.13,4.13,0,0,0,.67-1.15l-1.24-.9ZM19,6a1,1,0,1,1,1-1A1,1,0,0,1,19,6Z"/></svg>