<svg id="Layer_1" data-name="Layer 1" xmlns="http://www.w3.org/2000/svg" viewBox="0 0 24 24"><title>iconoteka_compact_camera_m_s</title><path d="M19.5,5H4.5A2.5,2.5,0,0,0,2,7.5v9A2.5,2.5,0,0,0,4.5,19h15A2.5,2.5,0,0,0,22,16.5v-9A2.5,2.5,0,0,0,19.5,5ZM7.17,17.5H4.5a1,1,0,0,1-1-1v-9a1,1,0,0,1,1-1H7.17Zm13.33-1a1,1,0,0,1-1,1H8.67V6.5H19.5a1,1,0,0,1,1,1ZM9,3.1a.5.5,0,0,0-.5-.5h-3a.5.5,0,0,0-.5.5V4H9Zm5.62,5.23A3.67,3.67,0,1,0,18.29,12,3.67,3.67,0,0,0,14.62,8.33Zm0,5.84A2.17,2.17,0,1,1,16.79,12,2.17,2.17,0,0,1,14.62,14.17Z"/></svg>