<svg id="Layer_1" data-name="Layer 1" xmlns="http://www.w3.org/2000/svg" viewBox="0 0 24 24"><title>iconoteka_storage_b_f</title><path d="M19.5,2H4.5A1.5,1.5,0,0,0,3,3.5v3A1.5,1.5,0,0,0,4.5,8h15A1.5,1.5,0,0,0,21,6.5v-3A1.5,1.5,0,0,0,19.5,2ZM6,5.9A.9.9,0,1,1,6.9,5,.9.9,0,0,1,6,5.9ZM19.5,9H4.5A1.5,1.5,0,0,0,3,10.5v3A1.5,1.5,0,0,0,4.5,15h15A1.5,1.5,0,0,0,21,13.5v-3A1.5,1.5,0,0,0,19.5,9ZM6,12.9a.9.9,0,1,1,.9-.9A.9.9,0,0,1,6,12.9ZM19.5,16H4.5A1.5,1.5,0,0,0,3,17.5v3A1.5,1.5,0,0,0,4.5,22h15A1.5,1.5,0,0,0,21,20.5v-3A1.5,1.5,0,0,0,19.5,16ZM6,19.9a.9.9,0,1,1,.9-.9A.9.9,0,0,1,6,19.9Z"/></svg>