<svg id="Layer_1" data-name="Layer 1" xmlns="http://www.w3.org/2000/svg" viewBox="0 0 24 24"><title>iconoteka_old_tv_r_s</title><path d="M19,5H13.08l2.18-3H14L12,4.78,10,2H8.74l2.18,3H5A3,3,0,0,0,2,8V18a3,3,0,0,0,3,3H19a3,3,0,0,0,3-3V8A3,3,0,0,0,19,5Zm2,13a2,2,0,0,1-2,2H5a2,2,0,0,1-2-2V8A2,2,0,0,1,5,6H19a2,2,0,0,1,2,2ZM5,18H16V8H5ZM6,9h9v8H6ZM18.5,8a1.3,1.3,0,1,0,1.3,1.3A1.3,1.3,0,0,0,18.5,8Zm0,1.8a.5.5,0,1,1,.5-.5A.5.5,0,0,1,18.5,9.8Zm0,2.2a1.3,1.3,0,1,0,1.3,1.3A1.3,1.3,0,0,0,18.5,12Zm0,1.8a.5.5,0,1,1,.5-.5A.5.5,0,0,1,18.5,13.8Z"/></svg>