<svg id="Layer_1" data-name="Layer 1" xmlns="http://www.w3.org/2000/svg" viewBox="0 0 24 24"><title>iconoteka_device_settings_m_s</title><path d="M16.5,2h-9A2.5,2.5,0,0,0,5,4.5v15A2.5,2.5,0,0,0,7.5,22h9A2.5,2.5,0,0,0,19,19.5V4.5A2.5,2.5,0,0,0,16.5,2Zm1,17.5a1,1,0,0,1-1,1h-9a1,1,0,0,1-1-1V4.5a1,1,0,0,1,1-1h9a1,1,0,0,1,1,1Zm-1.78-8.94a4,4,0,0,0-.26-.56,3.52,3.52,0,0,0-.36-.5l-1.29.65L12.7,9.51l-.09-1.45A4.07,4.07,0,0,0,12,8a4.07,4.07,0,0,0-.61.06L11.3,9.51l-1.11.64L8.9,9.5a3.52,3.52,0,0,0-.36.5,4,4,0,0,0-.26.56l1.22.8v1.28l-1.22.8a4,4,0,0,0,.26.56,3.52,3.52,0,0,0,.36.5l1.29-.65,1.11.64.09,1.45A4.07,4.07,0,0,0,12,16a4.07,4.07,0,0,0,.61-.06l.09-1.45,1.11-.64,1.29.65a3.52,3.52,0,0,0,.36-.5,4,4,0,0,0,.26-.56l-1.22-.8V11.36ZM12,13.21A1.21,1.21,0,1,1,13.21,12,1.21,1.21,0,0,1,12,13.21Z"/></svg>