<svg id="Layer_1" data-name="Layer 1" xmlns="http://www.w3.org/2000/svg" viewBox="0 0 24 24"><title>iconoteka_power_settings_l_s</title><path d="M12,21.5A9.49,9.49,0,0,1,7.26,3.78L7,3.35A10,10,0,1,0,22,12h-.5A9.51,9.51,0,0,1,12,21.5ZM22.49,6l1.16-.81a4.13,4.13,0,0,0-.35-.81,3.68,3.68,0,0,0-.53-.7l-1.28.59-.66-.38-.12-1.41a4.32,4.32,0,0,0-.88-.1,4.14,4.14,0,0,0-.87.1l-.13,1.41-.66.38-1.28-.59A3.81,3.81,0,0,0,16,5.14L17.17,6v.77L16,7.53a4.32,4.32,0,0,0,.35.8,4.63,4.63,0,0,0,.52.71l1.28-.59.66.38.13,1.4a3.83,3.83,0,0,0,1.74,0l.13-1.4.66-.38L22.77,9a3.75,3.75,0,0,0,.53-.71,4.32,4.32,0,0,0,.35-.8l-1.16-.81Zm.62,1.75c-.06.14-.13.28-.2.41a4.28,4.28,0,0,1-.26.38l-1-.45-.21-.1-.2.12-.66.38-.2.11,0,.24-.09,1.06-.46,0-.45,0-.1-1.06,0-.24-.2-.11-.66-.38-.2-.12L18,8l-1,.45a4.13,4.13,0,0,1-.25-.38c-.07-.13-.14-.27-.2-.41l.87-.62L17.62,7V5.72l-.19-.14L16.56,5a3.91,3.91,0,0,1,.2-.41A4.13,4.13,0,0,1,17,4.18l1,.45.22.1.2-.12.66-.38.2-.12,0-.23.1-1.06a2.35,2.35,0,0,1,.45,0,2.45,2.45,0,0,1,.46,0l.09,1.06,0,.23.2.12.66.38.2.12.21-.1,1-.45a4.28,4.28,0,0,1,.26.38,3.91,3.91,0,0,1,.2.41l-.88.61L22,5.72V7l.19.13ZM19.83,5.15A1.19,1.19,0,1,0,21,6.33,1.18,1.18,0,0,0,19.83,5.15Zm0,1.92a.74.74,0,1,1,.74-.74A.74.74,0,0,1,19.83,7.07ZM12.25,2h-.5V12h.5Z"/></svg>