<svg id="Layer_1" data-name="Layer 1" xmlns="http://www.w3.org/2000/svg" viewBox="0 0 24 24"><title>iconoteka_smartwatch_b_s</title><path d="M16.24,5c-.4-4-1.17-4-1.74-4h-5C8.93,1,8.16,1,7.76,5A3,3,0,0,0,5,8v8a3,3,0,0,0,2.76,3c.4,4,1.17,4,1.74,4h5c.57,0,1.34,0,1.74-4A3,3,0,0,0,19,16V8A3,3,0,0,0,16.24,5ZM13.92,3a15.54,15.54,0,0,1,.29,2H9.79a15.54,15.54,0,0,1,.29-2ZM10.08,21a15.54,15.54,0,0,1-.29-2h4.42a15.54,15.54,0,0,1-.29,2ZM17,16a1,1,0,0,1-1,1H8a1,1,0,0,1-1-1V8A1,1,0,0,1,8,7h8a1,1,0,0,1,1,1Z"/></svg>