<svg id="Layer_1" data-name="Layer 1" xmlns="http://www.w3.org/2000/svg" viewBox="0 0 24 24"><title>iconoteka_surround_sound_3d_sound_m_s</title><path d="M5.55,11.7v1.5a5.26,5.26,0,0,1,5.25,5.25h1.5A6.76,6.76,0,0,0,5.55,11.7ZM3,15.31l-.13,3L1.08,20.09l2.83,2.83L5.73,21.1l3-.13,1.19-1.19L4.22,14.12Zm5.14,4.48-2.49.11-.46,0-.34.33-1,1L2.78,20.09l1-1,.33-.34,0-.46.11-2.49h0l4,4Zm5-14.24H11.7a6.76,6.76,0,0,0,6.75,6.75V10.8A5.26,5.26,0,0,1,13.2,5.55Zm6.89-4.47L18.27,2.9l-3,.13L14.12,4.22l5.66,5.66L21,8.69l.13-3,1.82-1.82Zm-.17,4.13,0,.47-.11,2.49h0l-4-4h0l2.49-.11.46,0,1.31-1.3,1.13,1.13Z"/></svg>