<svg id="Layer_1" data-name="Layer 1" xmlns="http://www.w3.org/2000/svg" viewBox="0 0 24 24"><title>iconoteka_cable_s-video_b_f</title><path d="M12,2A10,10,0,1,0,22,12,10,10,0,0,0,12,2ZM5.79,12A1.25,1.25,0,1,1,7,13.25,1.25,1.25,0,0,1,5.79,12Zm3.59,4.39a1.25,1.25,0,0,1-1.77-1.77,1.25,1.25,0,1,1,1.77,1.77ZM13.5,9h-3a1,1,0,0,1,0-2h3a1,1,0,0,1,0,2Zm2.89,7.39a1.25,1.25,0,0,1-1.77,0,1.25,1.25,0,1,1,1.77-1.77A1.25,1.25,0,0,1,16.39,16.39ZM17,13.25A1.25,1.25,0,1,1,18.21,12,1.25,1.25,0,0,1,17,13.25Z"/></svg>