<svg id="Layer_1" data-name="Layer 1" xmlns="http://www.w3.org/2000/svg" viewBox="0 0 24 24"><title>iconoteka_keyboard_wireless_m_f</title><path d="M21,5.5H3a2,2,0,0,0-2,2v12a2,2,0,0,0,2,2H21a2,2,0,0,0,2-2V7.5A2,2,0,0,0,21,5.5Zm-10,3h2v2H11Zm0,4h2v2H11Zm-4-4H9v2H7Zm0,4H9v2H7Zm-2,6H3v-2H5Zm0-4H3v-2H5Zm0-4H3v-2H5Zm12,8H7v-2H17Zm0-4H15v-2h2Zm0-4H15v-2h2Zm4,8H19v-2h2Zm0-4H19v-2h2Zm0-4H19v-2h2ZM12,1.87a5.22,5.22,0,0,1,3.71,1.54l1.06-1.06a6.74,6.74,0,0,0-9.54,0L8.29,3.41A5.22,5.22,0,0,1,12,1.87Z"/></svg>