<svg id="Layer_1" data-name="Layer 1" xmlns="http://www.w3.org/2000/svg" viewBox="0 0 24 24"><title>iconoteka_voice_settings__microphone_l_s</title><path d="M9,16a4,4,0,0,0,4-4V5A4,4,0,0,0,5,5v7A4,4,0,0,0,9,16ZM5.5,5a3.5,3.5,0,0,1,7,0v7a3.5,3.5,0,0,1-7,0Zm11,7a7.5,7.5,0,0,1-15,0V10H1v2a8,8,0,0,0,7.75,8v3h.5V20A8,8,0,0,0,17,12V10h-.5Zm5.16-7.38,1.15-.81a3.81,3.81,0,0,0-.87-1.51l-1.28.59L20,2.51,19.87,1.1a3.83,3.83,0,0,0-1.74,0L18,2.51l-.66.38L16.06,2.3a3.81,3.81,0,0,0-.87,1.51l1.15.81v.76l-1.15.81a3.81,3.81,0,0,0,.87,1.51l1.28-.59.66.38.13,1.41a3.83,3.83,0,0,0,1.74,0L20,7.49l.66-.38,1.28.59a3.81,3.81,0,0,0,.87-1.51l-1.15-.81Zm.61,1.75a3.11,3.11,0,0,1-.2.41,2.68,2.68,0,0,1-.25.37l-1-.45-.21-.09-.2.11-.67.38-.2.12,0,.23-.1,1.07-.45,0-.45,0-.1-1.07,0-.23-.2-.12-.67-.38-.2-.11-.21.09-1,.45a2.26,2.26,0,0,1-.25-.38,2.49,2.49,0,0,1-.2-.4l.87-.62.19-.13V4.38l-.19-.13-.87-.62a3.11,3.11,0,0,1,.2-.41,2.68,2.68,0,0,1,.25-.37l1,.45.21.09.2-.11.67-.38.2-.12,0-.23.1-1.07a3.39,3.39,0,0,1,.9,0l.1,1.07,0,.23.2.12.67.38.2.11.21-.09,1-.45a2.26,2.26,0,0,1,.25.38,2.49,2.49,0,0,1,.2.4l-.87.62-.19.13V5.62l.19.13ZM19,3.82A1.18,1.18,0,1,0,20.18,5,1.18,1.18,0,0,0,19,3.82Zm0,1.91A.73.73,0,1,1,19.73,5,.73.73,0,0,1,19,5.73Z"/></svg>