<svg id="Layer_1" data-name="Layer 1" xmlns="http://www.w3.org/2000/svg" viewBox="0 0 24 24"><title>iconoteka_screen_lock_rotation_r_f</title><path d="M12,8.9A1.1,1.1,0,0,0,10.9,10v1h2.2V10A1.1,1.1,0,0,0,12,8.9ZM15.5,3h-7A2.5,2.5,0,0,0,6,5.5v13A2.5,2.5,0,0,0,8.5,21h7A2.5,2.5,0,0,0,18,18.5V5.5A2.5,2.5,0,0,0,15.5,3ZM15,15H9V11h1V10a2,2,0,0,1,4,0v1h1ZM1.53,14.47,2,15H0v1H3.83V12.2h-1v2.16l-.6-.59a2.57,2.57,0,0,1,0-3.54A2.49,2.49,0,0,1,4,9.5v-1a3.42,3.42,0,0,0-2.47,1A3.56,3.56,0,0,0,1.53,14.47ZM24,8H20.17V11.8h1V9.64l.6.59a2.57,2.57,0,0,1,0,3.54A2.49,2.49,0,0,1,20,14.5v1a3.42,3.42,0,0,0,2.47-1,3.56,3.56,0,0,0,0-4.94L22,9h2Z"/></svg>