<svg id="Layer_1" data-name="Layer 1" xmlns="http://www.w3.org/2000/svg" viewBox="0 0 24 24"><title>iconoteka_gamepad__joystick__controller_r_s</title><path d="M7.42,7.58H6.58v2h-2v.84h2v2h.84v-2h2V9.58h-2ZM17,7.5a2.49,2.49,0,1,0,1.77.73A2.5,2.5,0,0,0,17,7.5Zm1.15,3.65A1.62,1.62,0,1,1,18.63,10,1.59,1.59,0,0,1,18.15,11.15ZM18,4H6A5,5,0,0,0,1,9v8.9a3.1,3.1,0,0,0,6,1L8,16h8l1,2.89a3.1,3.1,0,0,0,6-1V9A5,5,0,0,0,18,4Zm4,13.9a2.1,2.1,0,0,1-4.1.64l-1-2.88L16.7,15H7.3l-.24.66-1,2.88A2.1,2.1,0,0,1,2,17.9V9A4,4,0,0,1,6,5H18a4,4,0,0,1,4,4Z"/></svg>