<svg id="Layer_1" data-name="Layer 1" xmlns="http://www.w3.org/2000/svg" viewBox="0 0 24 24"><title>iconoteka_battery_unknown_m_s</title><path d="M16,3H13.58a1.58,1.58,0,0,0-3.16,0H8A3,3,0,0,0,5,6V20a3,3,0,0,0,3,3h8a3,3,0,0,0,3-3V6A3,3,0,0,0,16,3Zm1.5,17A1.5,1.5,0,0,1,16,21.5H8A1.5,1.5,0,0,1,6.5,20V6A1.5,1.5,0,0,1,8,4.5h8A1.5,1.5,0,0,1,17.5,6Zm-5.75-3.56a.92.92,0,1,0,.92.92A.92.92,0,0,0,11.75,16.44ZM12,8.22c-1.56,0-3.14,1.09-3.14,3.51H10.3c0-1.87,1.2-2.07,1.71-2.07A1.55,1.55,0,0,1,13.68,11c0,.67-.28.89-.93,1.34A3.17,3.17,0,0,0,11,15.24h1.44c0-1,.43-1.25,1.07-1.69A2.85,2.85,0,0,0,15.12,11,3,3,0,0,0,12,8.22Z"/></svg>