<svg id="Layer_1" data-name="Layer 1" xmlns="http://www.w3.org/2000/svg" viewBox="0 0 24 24"><title>iconoteka_gamepad_wireless__joystick__controller_b_f</title><path d="M11.83,2.12a5,5,0,0,1,3.54,1.47l1.41-1.42a7,7,0,0,0-9.9,0L8.3,3.59A4.94,4.94,0,0,1,11.83,2.12ZM17,9.85a1.16,1.16,0,1,0,.81.34A1.13,1.13,0,0,0,17,9.85ZM18,5H6a5,5,0,0,0-5,5v9.13A2.86,2.86,0,0,0,6.61,20L7.49,17h9L17.39,20A2.86,2.86,0,0,0,23,19.13V10A5,5,0,0,0,18,5ZM9.5,11.8H7.8v1.7H6.2V11.8H4.5V10.2H6.2V8.5H7.8v1.7H9.5Zm9.37,1.07A2.63,2.63,0,1,1,19.65,11,2.64,2.64,0,0,1,18.87,12.87Z"/></svg>