<svg id="Layer_1" data-name="Layer 1" xmlns="http://www.w3.org/2000/svg" viewBox="0 0 24 24"><title>iconoteka_router_l_s</title><path d="M20,11H15.25V6a.25.25,0,0,0-.5,0v5H4a2,2,0,0,0-2,2v6a2,2,0,0,0,2,2H20a2,2,0,0,0,2-2V13A2,2,0,0,0,20,11Zm1.5,8A1.5,1.5,0,0,1,20,20.5H4A1.5,1.5,0,0,1,2.5,19V13A1.5,1.5,0,0,1,4,11.5H20A1.5,1.5,0,0,1,21.5,13ZM6,15.55a.45.45,0,1,0,.45.45A.45.45,0,0,0,6,15.55Zm6.35-6.9a3.74,3.74,0,0,1,0-5.3L12,3a4.23,4.23,0,0,0,0,6ZM18,9a4.22,4.22,0,0,0,0-6l-.35.35a3.74,3.74,0,0,1,0,5.3Z"/></svg>