<svg id="Layer_1" data-name="Layer 1" xmlns="http://www.w3.org/2000/svg" viewBox="0 0 24 24"><title>iconoteka_point_and_shoot_camera_b_s</title><path d="M19.5,5H4.5A2.5,2.5,0,0,0,2,7.5v9A2.5,2.5,0,0,0,4.5,19h15A2.5,2.5,0,0,0,22,16.5v-9A2.5,2.5,0,0,0,19.5,5ZM20,16.5a.5.5,0,0,1-.5.5H4.5a.5.5,0,0,1-.5-.5v-9A.5.5,0,0,1,4.5,7h15a.5.5,0,0,1,.5.5ZM9,3.05a.76.76,0,0,0-.75-.75H5.75A.76.76,0,0,0,5,3.05V4H9ZM13.69,8.5a3.5,3.5,0,1,0,3.5,3.5A3.5,3.5,0,0,0,13.69,8.5Zm0,5a1.5,1.5,0,1,1,1.5-1.5A1.5,1.5,0,0,1,13.69,13.5Z"/></svg>