<svg id="Layer_1" data-name="Layer 1" xmlns="http://www.w3.org/2000/svg" viewBox="0 0 24 24"><title>iconoteka_radio__vintage__station_reciever_l_s</title><path d="M17,18a2,2,0,1,0-2-2A2,2,0,0,0,17,18Zm0-3.5A1.5,1.5,0,1,1,15.5,16,1.5,1.5,0,0,1,17,14.5ZM20.5,6H4.69L17.42,1.35,17.25.88,3,6.1H3A1.5,1.5,0,0,0,2,7.5v12A1.5,1.5,0,0,0,3.5,21h17A1.5,1.5,0,0,0,22,19.5V7.5A1.5,1.5,0,0,0,20.5,6ZM2.5,7.5a1,1,0,0,1,1-1H15V10H2.5Zm19,12a1,1,0,0,1-1,1H3.5a1,1,0,0,1-1-1v-9h19Zm0-9.5h-6V6.5h5a1,1,0,0,1,1,1Z"/></svg>