<svg id="Layer_1" data-name="Layer 1" xmlns="http://www.w3.org/2000/svg" viewBox="0 0 24 24"><title>iconoteka_cell_phone_with_qwerty_keyboard_r_f</title><path d="M16.5,2h-9A2.5,2.5,0,0,0,5,4.5v15A2.5,2.5,0,0,0,7.5,22h9A2.5,2.5,0,0,0,19,19.5V4.5A2.5,2.5,0,0,0,16.5,2ZM7.4,20a.9.9,0,1,1,.9-.9A.9.9,0,0,1,7.4,20Zm0-3.1a.9.9,0,1,1,.9-.9A.9.9,0,0,1,7.4,16.9Zm0-3.1a.9.9,0,1,1,.9-.9A.9.9,0,0,1,7.4,13.8ZM10.47,20a.9.9,0,1,1,.9-.9A.9.9,0,0,1,10.47,20Zm0-3.1a.9.9,0,1,1,.9-.9A.9.9,0,0,1,10.47,16.9Zm0-3.1a.9.9,0,1,1,.9-.9A.9.9,0,0,1,10.47,13.8ZM13.53,20a.9.9,0,1,1,.9-.9A.9.9,0,0,1,13.53,20Zm0-3.1a.9.9,0,1,1,.9-.9A.9.9,0,0,1,13.53,16.9Zm0-3.1a.9.9,0,1,1,.9-.9A.9.9,0,0,1,13.53,13.8ZM16.6,20a.9.9,0,1,1,.9-.9A.9.9,0,0,1,16.6,20Zm0-3.1a.9.9,0,1,1,.9-.9A.9.9,0,0,1,16.6,16.9Zm0-3.1a.9.9,0,1,1,.9-.9A.9.9,0,0,1,16.6,13.8ZM18,10H6V5H18Z"/></svg>