<svg id="Layer_1" data-name="Layer 1" xmlns="http://www.w3.org/2000/svg" viewBox="0 0 24 24"><title>iconoteka_keyboard_wireless_b_s</title><path d="M20,6H4A3,3,0,0,0,1,9V19a3,3,0,0,0,3,3H20a3,3,0,0,0,3-3V9A3,3,0,0,0,20,6Zm1,13a1,1,0,0,1-1,1H4a1,1,0,0,1-1-1V9A1,1,0,0,1,4,8H20a1,1,0,0,1,1,1ZM8,18h8V16H8Zm5-5H11v2h2Zm0-3H11v2h2Zm-3,3H8v2h2Zm0-3H8v2h2ZM5,15H7V13H5Zm0,3H7V16H5Zm12,0h2V16H17ZM5,12H7V10H5Zm9,3h2V13H14Zm0-3h2V10H14Zm3,3h2V13H17Zm0-3h2V10H17ZM12,2.62a5,5,0,0,1,3.54,1.47L17,2.67a7,7,0,0,0-9.9,0L8.46,4.09A5,5,0,0,1,12,2.62Z"/></svg>