<svg id="Layer_1" data-name="Layer 1" xmlns="http://www.w3.org/2000/svg" viewBox="0 0 24 24"><title>iconoteka_smartwatch-square_m_s</title><path d="M16,5.14V3a2,2,0,0,0-2-2H10A2,2,0,0,0,8,3V5.14A4,4,0,0,0,5,9v6a4,4,0,0,0,3,3.86V21a2,2,0,0,0,2,2h4a2,2,0,0,0,2-2V18.86A4,4,0,0,0,19,15V9A4,4,0,0,0,16,5.14ZM10,2.5h4a.5.5,0,0,1,.5.5V5h-5V3A.5.5,0,0,1,10,2.5Zm4,19H10a.5.5,0,0,1-.5-.5V19h5v2A.5.5,0,0,1,14,21.5ZM17.5,15A2.5,2.5,0,0,1,15,17.5H9A2.5,2.5,0,0,1,6.5,15V9A2.5,2.5,0,0,1,9,6.5h6A2.5,2.5,0,0,1,17.5,9Z"/></svg>