<svg id="Layer_1" data-name="Layer 1" xmlns="http://www.w3.org/2000/svg" viewBox="0 0 24 24"><title>iconoteka_gamepad_wire__joystick__controller_l_s</title><path d="M7.24,8.62H6.76v2.14H4.62v.48H6.76v2.14h.48V11.24H9.38v-.48H7.24ZM17,8.5a2.49,2.49,0,1,0,1.77.73A2.5,2.5,0,0,0,17,8.5Zm1.41,3.91A2,2,0,1,1,19,11,2,2,0,0,1,18.41,12.41ZM18,5H12.25V3.25A1.76,1.76,0,0,1,14,1.5h3V1H14a2.25,2.25,0,0,0-2.25,2.25V5H6a5,5,0,0,0-5,5v9.13A2.86,2.86,0,0,0,6.61,20L7.49,17h9L17.39,20A2.86,2.86,0,0,0,23,19.13V10A5,5,0,0,0,18,5Zm4.5,14.13a2.36,2.36,0,0,1-4.63.68L17,16.86l-.11-.36H7.12L7,16.86l-.88,2.95a2.36,2.36,0,0,1-4.63-.68V10A4.51,4.51,0,0,1,6,5.5H18A4.51,4.51,0,0,1,22.5,10Z"/></svg>