<svg id="Layer_1" data-name="Layer 1" xmlns="http://www.w3.org/2000/svg" viewBox="0 0 24 24"><title>iconoteka_old_tv_l_s</title><path d="M19,5H12.58l2.35-3h-.64L12,4.93,9.71,2H9.07l2.35,3H5A3,3,0,0,0,2,8V18a3,3,0,0,0,3,3H19a3,3,0,0,0,3-3V8A3,3,0,0,0,19,5Zm2.5,13A2.5,2.5,0,0,1,19,20.5H5A2.5,2.5,0,0,1,2.5,18V8A2.5,2.5,0,0,1,5,5.5H19A2.5,2.5,0,0,1,21.5,8ZM5,18H16V8H5Zm.5-9.5h10v9H5.5ZM18.75,8a1.3,1.3,0,1,0,1.3,1.3A1.3,1.3,0,0,0,18.75,8Zm0,2.1a.8.8,0,1,1,.8-.8A.8.8,0,0,1,18.75,10.1Zm0,1.9a1.3,1.3,0,1,0,1.3,1.3A1.3,1.3,0,0,0,18.75,12Zm0,2.1a.8.8,0,1,1,.8-.8A.8.8,0,0,1,18.75,14.1Z"/></svg>