<svg id="Layer_1" data-name="Layer 1" xmlns="http://www.w3.org/2000/svg" viewBox="0 0 24 24"><title>iconoteka_power_socket_e_r_s</title><path d="M12,2A10,10,0,1,0,22,12,10,10,0,0,0,12,2Zm0,19a9,9,0,1,1,9-9A9,9,0,0,1,12,21Zm4.64-10.7a1.7,1.7,0,1,0,1.7,1.7A1.7,1.7,0,0,0,16.64,10.3Zm0,2.5a.8.8,0,1,1,.8-.8A.8.8,0,0,1,16.64,12.8ZM7.36,10.3A1.7,1.7,0,1,0,9.06,12,1.7,1.7,0,0,0,7.36,10.3Zm0,2.5a.8.8,0,1,1,.8-.8A.8.8,0,0,1,7.36,12.8ZM12,5.59a2.28,2.28,0,1,0,2.28,2.28A2.28,2.28,0,0,0,12,5.59Zm0,3.72a1.45,1.45,0,1,1,1.44-1.44A1.44,1.44,0,0,1,12,9.31Z"/></svg>