<svg id="Layer_1" data-name="Layer 1" xmlns="http://www.w3.org/2000/svg" viewBox="0 0 24 24"><title>iconoteka_baggage_claim_m_s</title><path d="M21,19.83a1,1,0,1,0,1,1A1,1,0,0,0,21,19.83Zm-4.5,0a1,1,0,1,0,1,1A1,1,0,0,0,16.5,19.83Zm-4.5,0a1,1,0,1,0,1,1A1,1,0,0,0,12,19.83Zm-4.5,0a1,1,0,1,0,1,1A1,1,0,0,0,7.5,19.83ZM10,3.5h4c.28,0,.5,1,.5,1.25V6h-5V4.75C9.5,4.47,9.72,3.5,10,3.5Zm11,5A2.5,2.5,0,0,0,18.5,6H16V4a2,2,0,0,0-2-2H10A2,2,0,0,0,8,4V6H5.5A2.5,2.5,0,0,0,3,8.5v7A2.5,2.5,0,0,0,5.5,18h13A2.5,2.5,0,0,0,21,15.5Zm-1.5,7a1,1,0,0,1-1,1H5.5a1,1,0,0,1-1-1v-7a1,1,0,0,1,1-1h13a1,1,0,0,1,1,1ZM3,19.83a1,1,0,1,0,1,1A1,1,0,0,0,3,19.83Z"/></svg>