<svg id="Layer_1" data-name="Layer 1" xmlns="http://www.w3.org/2000/svg" viewBox="0 0 24 24"><title>iconoteka_stationery__supplies_r_s</title><path d="M19.39,3.56,16.61,2.44l-.33.83A1.62,1.62,0,0,0,15.84,3a1.54,1.54,0,0,0-.55-.11,1.51,1.51,0,0,0-1.4.95L11.43,10h-1L8.21,4.57,6,3,5.42,5.68,7.17,10H6V20a2,2,0,0,0,2,2h8a2,2,0,0,0,2-2V10H16.82Zm-2.23.18.93.37L15.74,10H14.66Zm-2.34.47a.51.51,0,0,1,.47-.32.39.39,0,0,1,.18,0,.49.49,0,0,1,.28.27.48.48,0,0,1,0,.38L13.58,10H12.51ZM6.47,5.59l.19-.89.73.52L9.33,10H8.25ZM17,20a1,1,0,0,1-1,1H8a1,1,0,0,1-1-1V11H17Z"/></svg>