<svg id="Layer_1" data-name="Layer 1" xmlns="http://www.w3.org/2000/svg" viewBox="0 0 24 24"><title>iconoteka_pin_r_s</title><path d="M15.29.91l-.65.65a1.07,1.07,0,0,0-.28.56l-.2,1.35L8.71,8.91l-2.48-.5a1.81,1.81,0,0,0-.4,0A2,2,0,0,0,4.42,9L3.27,10.11l5,5L1,22.28V23h.69l7.24-7.24,5,5L15,19.56a2,2,0,0,0,.54-1.8l-.49-2.49,5.44-5.44,1.35-.21a1,1,0,0,0,.55-.28l.65-.65Zm5.08,7.93L20,8.89l-.23.23-5.44,5.44-.38.38.11.53L14.59,18a1,1,0,0,1-.27.91l-.44.44-9.2-9.19.45-.45a1,1,0,0,1,.7-.29l.2,0,2.49.5L9,10l.38-.37,5.67-5.68.05-.32.2-1.25,6.27,6.28Z"/></svg>