<svg id="Layer_1" data-name="Layer 1" xmlns="http://www.w3.org/2000/svg" viewBox="0 0 24 24"><title>iconoteka_baggage_claim_l_f</title><path d="M21,20.3a.5.5,0,1,0,.5.5A.5.5,0,0,0,21,20.3Zm-4.5,0a.5.5,0,1,0,.5.5A.5.5,0,0,0,16.5,20.3Zm-4.5,0a.5.5,0,1,0,.5.5A.5.5,0,0,0,12,20.3Zm-4.5,0a.5.5,0,1,0,.5.5A.5.5,0,0,0,7.5,20.3ZM8.5,4A1.5,1.5,0,0,1,10,2.5h4A1.5,1.5,0,0,1,15.5,4V6h-7ZM21,8.5A2.5,2.5,0,0,0,18.5,6H16V4a2,2,0,0,0-2-2H10A2,2,0,0,0,8,4V6H5.5A2.5,2.5,0,0,0,3,8.5v7A2.5,2.5,0,0,0,5.5,18h13A2.5,2.5,0,0,0,21,15.5ZM3,20.3a.5.5,0,1,0,.5.5A.5.5,0,0,0,3,20.3Z"/></svg>