<svg id="Layer_1" data-name="Layer 1" xmlns="http://www.w3.org/2000/svg" viewBox="0 0 24 24"><title>iconoteka_baggage_claim_b_f</title><path d="M21,19.6a1.2,1.2,0,1,0,1.2,1.2A1.2,1.2,0,0,0,21,19.6Zm-4.5,0a1.2,1.2,0,1,0,1.2,1.2A1.2,1.2,0,0,0,16.5,19.6Zm-4.5,0a1.2,1.2,0,1,0,1.2,1.2A1.2,1.2,0,0,0,12,19.6Zm-4.5,0a1.2,1.2,0,1,0,1.2,1.2A1.2,1.2,0,0,0,7.5,19.6ZM10,4h4V6H10ZM21,15.5v-7A2.5,2.5,0,0,0,18.5,6H16V4a2,2,0,0,0-2-2H10A2,2,0,0,0,8,4V6H5.5A2.5,2.5,0,0,0,3,8.5v7A2.5,2.5,0,0,0,5.5,18h13A2.5,2.5,0,0,0,21,15.5ZM3,19.6a1.2,1.2,0,1,0,1.2,1.2A1.2,1.2,0,0,0,3,19.6Z"/></svg>