<svg id="Layer_1" data-name="Layer 1" xmlns="http://www.w3.org/2000/svg" viewBox="0 0 24 24"><title>iconoteka_baggage_claim_r_s</title><path d="M21,20.07a.73.73,0,1,0,.73.73A.73.73,0,0,0,21,20.07Zm-4.5,0a.73.73,0,1,0,.73.73A.73.73,0,0,0,16.5,20.07Zm-4.5,0a.73.73,0,1,0,.73.73A.73.73,0,0,0,12,20.07Zm-4.5,0a.73.73,0,1,0,.73.73A.73.73,0,0,0,7.5,20.07ZM10,3h4c.55,0,1,.82,1,1.37V6H9V4.37C9,3.82,9.45,3,10,3ZM21,8.5A2.5,2.5,0,0,0,18.5,6H16V4a2,2,0,0,0-2-2H10A2,2,0,0,0,8,4V6H5.5A2.5,2.5,0,0,0,3,8.5v7A2.5,2.5,0,0,0,5.5,18h13A2.5,2.5,0,0,0,21,15.5Zm-1,7A1.5,1.5,0,0,1,18.5,17H5.5A1.5,1.5,0,0,1,4,15.5v-7A1.5,1.5,0,0,1,5.5,7h13A1.5,1.5,0,0,1,20,8.5ZM3,20.07a.73.73,0,1,0,.73.73A.73.73,0,0,0,3,20.07Z"/></svg>