<svg id="Layer_1" data-name="Layer 1" xmlns="http://www.w3.org/2000/svg" viewBox="0 0 24 24"><title>iconoteka_pin_l_s</title><path d="M15.29.91l-.73.74a1,1,0,0,0-.28.55l-.21,1.35L8.6,9l-2.48-.5a1.72,1.72,0,0,0-.39,0,2,2,0,0,0-1.42.59l-1,1L8.4,15.23,1,22.63V23h.34l7.41-7.41,5.13,5.12,1-1a2,2,0,0,0,.55-1.8L15,15.38l5.46-5.46,1.35-.21a1,1,0,0,0,.56-.28l.73-.74ZM22,9.07a.42.42,0,0,1-.27.14l-1.35.21-.16,0-.12.11L14.62,15l-.19.19L15,18a1.54,1.54,0,0,1-.41,1.36l-.69.69L4,10.11l.69-.69A1.5,1.5,0,0,1,5.73,9,1.43,1.43,0,0,1,6,9l2.49.5.26.05,5.77-5.77,0-.16.21-1.35A.57.57,0,0,1,14.91,2l.38-.38,7.07,7.07Z"/></svg>