<svg id="Layer_1" data-name="Layer 1" xmlns="http://www.w3.org/2000/svg" viewBox="0 0 24 24"><title>iconoteka_pin_m_s</title><path d="M15.29.91,14.18,2a1,1,0,0,0-.28.55l-.21,1.35L9.14,8.48,6.66,8a2.85,2.85,0,0,0-.4,0,2,2,0,0,0-1.41.59L3.27,10.11,8,14.88l-7,7V23H2L9.1,15.94l4.78,4.77,1.58-1.57A2,2,0,0,0,16,17.33l-.49-2.49,4.54-4.54,1.35-.21A1,1,0,0,0,22,9.81l1.11-1.12Zm4.53,7.9-.48.08L19,9.23l-4.55,4.55-.56.57.15.79.5,2.48a.49.49,0,0,1-.14.45l-.51.52L5.39,10.11l.52-.52a.51.51,0,0,1,.35-.15h.1l2.49.5.78.16.57-.57L14.75,5l.35-.35.07-.48.17-1.08L20.9,8.65Z"/></svg>