<svg id="Layer_1" data-name="Layer 1" xmlns="http://www.w3.org/2000/svg" viewBox="0 0 24 24"><title>iconoteka_stationery__supplies_l_s</title><path d="M19.71,3.56,16.93,2.44l-.52,1.29A1.51,1.51,0,0,0,15.63,3a1.64,1.64,0,0,0-.56-.11,1.49,1.49,0,0,0-1.39.95L11.21,10H10.4L8.21,4.57,6,3,5.42,5.68,7.17,10H6V20a2,2,0,0,0,2,2h8a2,2,0,0,0,2-2V10h-.87Zm-2.5-.47,1.85.75L16.6,10H14.44ZM14.14,4a1,1,0,0,1,.93-.63,1.16,1.16,0,0,1,.37.07A1,1,0,0,1,16,4.76L13.9,10H11.75ZM5.94,5.64l.39-1.79,1.47,1L9.86,10H7.71ZM17.5,20A1.5,1.5,0,0,1,16,21.5H8A1.5,1.5,0,0,1,6.5,20V10.5h11Z"/></svg>