<svg id="Layer_1" data-name="Layer 1" xmlns="http://www.w3.org/2000/svg" viewBox="0 0 24 24"><title>iconoteka_help__question__faq_m_s</title><path d="M12,2A10,10,0,1,0,22,12,10,10,0,0,0,12,2Zm0,18.5A8.5,8.5,0,1,1,20.5,12,8.51,8.51,0,0,1,12,20.5Zm-.12-5.31a.92.92,0,1,0,.92.92A.92.92,0,0,0,11.88,15.19ZM12.14,7C10.58,7,9,8.06,9,10.48h1.43c0-1.87,1.19-2.07,1.71-2.07a1.55,1.55,0,0,1,1.67,1.37c0,.67-.29.89-.94,1.34A3.16,3.16,0,0,0,11.17,14H12.6c0-1,.43-1.25,1.08-1.69a2.85,2.85,0,0,0,1.56-2.52A3,3,0,0,0,12.14,7Z"/></svg>