<svg id="Layer_1" data-name="Layer 1" xmlns="http://www.w3.org/2000/svg" viewBox="0 0 24 24"><title>iconoteka_usd__dollar_b_a</title><path d="M18.57,16c0-2.5-2-4.3-5.5-5l-.62-.11-1.06-.19c-1.26-.25-3.36-1-3.36-3C8,5.2,11.1,5,12,5c.67,0,3.8.15,4.21,2.94h2c-.32-3.36-3.09-4.6-5.26-4.88V1H11V3.07C8,3.4,6,5.15,6,7.75s1.85,4.31,5,4.93l1.11.2.6.1c1.17.22,3.87.94,3.87,3,0,1.8-1.82,3-4.52,3a5.6,5.6,0,0,1-3.77-1.2,2.89,2.89,0,0,1-.82-1.89h-2a5,5,0,0,0,1.41,3.31A6.74,6.74,0,0,0,11,21V23h2V21C16.37,20.63,18.57,18.71,18.57,16Z"/></svg>