<svg id="Layer_1" data-name="Layer 1" xmlns="http://www.w3.org/2000/svg" viewBox="0 0 24 24"><defs><style>.cls-1{fill:none;}</style></defs><title>iconoteka_gif_b_s</title><rect class="cls-1" width="24" height="24"/><path d="M1,4V20H23V4ZM21,18H3V6H21Z"/><rect x="11.49" y="9" width="1.5" height="6"/><polygon points="16.37 13.11 18.42 13.11 18.42 11.73 16.37 11.73 16.37 10.38 18.87 10.38 18.87 9 16.37 9 14.87 9 14.87 10.38 14.87 11.73 14.87 13.11 14.87 15 16.37 15 16.37 13.11"/><path d="M7.29,15.06h.45A2.16,2.16,0,0,0,9.9,12.9h0V11.64H7.62v1.25h.83a.81.81,0,0,1-.74.86H7.32a.82.82,0,0,1-.75-.86V11.1a.82.82,0,0,1,.75-.86h.39a.77.77,0,0,1,.71.69l1.4-.39a2.16,2.16,0,0,0-2.08-1.6H7.29A2.16,2.16,0,0,0,5.13,11.1v1.8A2.16,2.16,0,0,0,7.29,15.06Z"/></svg>