<svg id="Layer_1" data-name="Layer 1" xmlns="http://www.w3.org/2000/svg" viewBox="0 0 24 24"><title>iconoteka_plastic_pp_l_a</title><path d="M15.46,4.1l3.32,5.75-2.14-.58-.13.49,2.95.79.79-3-.48-.13L19.2,9.58,15.9,3.85a4.5,4.5,0,0,0-7.8,0L6.31,7l.44.25L8.54,4.1a4,4,0,0,1,6.92,0ZM2,19.5a3.93,3.93,0,0,1,0-4L5.27,9.76l.58,2.14.48-.13L5.54,8.82l-3,.79.13.48,2.12-.57L1.52,15.25A4.5,4.5,0,0,0,5.42,22H9v-.5H5.42A4,4,0,0,1,2,19.5Zm20.52-4.25-1.79-3.1-.44.25L22,15.5a4,4,0,0,1-3.46,6H12l1.56-1.57-.35-.35L11,21.74l2.16,2.16.36-.35L12,22h6.61A4.5,4.5,0,0,0,22.48,15.25Zm-8.55-1.18a1.88,1.88,0,0,0-2-2,1.93,1.93,0,0,0-1.32.47l.14-2.08h2.89V10H10.33l-.2,3.22h.47a1.63,1.63,0,0,1,1.34-.62,1.43,1.43,0,0,1,1.49,1.47,1.5,1.5,0,0,1-1.5,1.55,1.59,1.59,0,0,1-1.51-.83L10,15a2,2,0,0,0,2,1.14A2,2,0,0,0,13.93,14.07Z"/></svg>