<svg id="Layer_1" data-name="Layer 1" xmlns="http://www.w3.org/2000/svg" viewBox="0 0 24 24"><title>iconoteka_closed_caption_b_f</title><path d="M1,4V20H23V4Zm10.4,7.2H9.9v-.3a.4.4,0,0,0-.4-.4H8.61A.51.51,0,0,0,8.1,11v2a.51.51,0,0,0,.51.52H9.5a.4.4,0,0,0,.4-.4v-.3h1.5v.3A1.9,1.9,0,0,1,9.5,15H8.61a2,2,0,0,1-2-2V11a2,2,0,0,1,2-2H9.5a1.9,1.9,0,0,1,1.9,1.9Zm6,0H15.9v-.3a.4.4,0,0,0-.4-.4h-.89a.51.51,0,0,0-.51.52v2a.51.51,0,0,0,.51.52h.89a.4.4,0,0,0,.4-.4v-.3h1.5v.3A1.9,1.9,0,0,1,15.5,15h-.89a2,2,0,0,1-2-2V11a2,2,0,0,1,2-2h.89a1.9,1.9,0,0,1,1.9,1.9Z"/></svg>