<svg id="Layer_1" data-name="Layer 1" xmlns="http://www.w3.org/2000/svg" viewBox="0 0 24 24"><title>iconoteka_gif__graphics_interchange_format_l_f</title><path d="M1,4V20H23V4ZM7.49,14.5H8.7a1.21,1.21,0,0,0,1.21-1.2v-.85H8.23v-.51h2.18V13.3A1.71,1.71,0,0,1,8.7,15H7.49A1.89,1.89,0,0,1,5.6,13.11V10.89A1.89,1.89,0,0,1,7.49,9H8.7a1.71,1.71,0,0,1,1.71,1.7h-.5A1.21,1.21,0,0,0,8.7,9.5H7.49A1.39,1.39,0,0,0,6.1,10.89v2.22A1.39,1.39,0,0,0,7.49,14.5Zm5.07.5h-.5V9h.5Zm6-5.5H15.1V12h3.23v.5H15.1V15h-.5V9h4Z"/></svg>