<svg id="Layer_1" data-name="Layer 1" xmlns="http://www.w3.org/2000/svg" viewBox="0 0 24 24"><title>iconoteka_plastic_pvc_m_a</title><path d="M9.4,4.6a3,3,0,0,1,5.2,0L17,8.83l-1.22.7,2.94.78.79-2.93-1.21.7L15.9,3.85a4.5,4.5,0,0,0-7.8,0l-2.29,4,1.3.75ZM2.82,19a3,3,0,0,1,0-3l2.44-4.22,1.21.7L5.69,9.54l-2.94.79L4,11,1.52,15.25A4.5,4.5,0,0,0,5.42,22H10V20.5H5.42A3,3,0,0,1,2.82,19Zm19.66-3.75-2.29-4-1.3.75,2.29,4a3,3,0,0,1-2.6,4.5H13.7V19.1l-2.15,2.15L13.7,23.4V22h4.88A4.5,4.5,0,0,0,22.48,15.25Zm-8.27-.91A1.55,1.55,0,0,0,13,12.87a1.47,1.47,0,0,0,1-1.36c0-1-1-1.63-2.08-1.63a2.14,2.14,0,0,0-2.07,1.23l.93.38a1.21,1.21,0,0,1,1.14-.7.89.89,0,0,1,1,.85.91.91,0,0,1-1,.87h-.55v.82h.6c.72,0,1.17.38,1.17.93a1.06,1.06,0,0,1-1.14,1,1.51,1.51,0,0,1-1.39-.84l-.84.39a2.17,2.17,0,0,0,2.21,1.36C13.21,16.12,14.21,15.46,14.21,14.34Z"/></svg>