<svg id="Layer_1" data-name="Layer 1" xmlns="http://www.w3.org/2000/svg" viewBox="0 0 24 24"><title>iconoteka_help__question__faq_l_s</title><path d="M11.88,15.88a.45.45,0,1,0,.45.45A.45.45,0,0,0,11.88,15.88ZM12,2A10,10,0,1,0,22,12,10,10,0,0,0,12,2Zm0,19.5A9.5,9.5,0,1,1,21.5,12,9.51,9.51,0,0,1,12,21.5ZM12.14,7c-1.31,0-2.85.85-2.85,3.24h.5c0-2,1.22-2.74,2.35-2.74a2.28,2.28,0,0,1,2.47,2c0,.92-.59,1.31-1.27,1.76A3,3,0,0,0,11.62,14h.5a2.51,2.51,0,0,1,1.5-2.29,2.48,2.48,0,0,0,1.49-2.17A2.76,2.76,0,0,0,12.14,7Z"/></svg>