<svg id="Layer_1" data-name="Layer 1" xmlns="http://www.w3.org/2000/svg" viewBox="0 0 24 24"><title>iconoteka_closed_caption_m_s</title><path d="M8.57,15h1a1.83,1.83,0,0,0,1.83-1.83V13H10.24v.2a.67.67,0,0,1-.67.66h-1a.81.81,0,0,1-.81-.8V11a.81.81,0,0,1,.81-.8h1a.67.67,0,0,1,.67.66V11H11.4v-.2A1.83,1.83,0,0,0,9.57,9h-1a2,2,0,0,0-2,2V13A2,2,0,0,0,8.57,15Zm6,0h1a1.83,1.83,0,0,0,1.83-1.83V13H16.24v.2a.67.67,0,0,1-.67.66h-1a.81.81,0,0,1-.81-.8V11a.81.81,0,0,1,.81-.8h1a.67.67,0,0,1,.67.66V11H17.4v-.2A1.83,1.83,0,0,0,15.57,9h-1a2,2,0,0,0-2,2V13A2,2,0,0,0,14.57,15ZM1,4V20H23V4ZM21.5,18.5H2.5V5.5h19Z"/></svg>