<svg id="Layer_1" data-name="Layer 1" xmlns="http://www.w3.org/2000/svg" viewBox="0 0 24 24"><title>iconoteka_closed_caption_b_s</title><path d="M2,4V20H22V4ZM20,18H4V6H20ZM8.87,15.06h.29a2.16,2.16,0,0,0,2.13-1.83l-1.4-.32a.81.81,0,0,1-.75.85H8.89a.81.81,0,0,1-.74-.86V11.1a.81.81,0,0,1,.74-.86h.25a.81.81,0,0,1,.75.85l1.4-.32A2.16,2.16,0,0,0,9.16,8.94H8.87A2.16,2.16,0,0,0,6.71,11.1v1.8A2.16,2.16,0,0,0,8.87,15.06Zm6,0h.29a2.16,2.16,0,0,0,2.13-1.83l-1.4-.32a.81.81,0,0,1-.75.85h-.25a.81.81,0,0,1-.74-.86V11.1a.81.81,0,0,1,.74-.86h.25a.81.81,0,0,1,.75.85l1.4-.32a2.16,2.16,0,0,0-2.13-1.83h-.29a2.16,2.16,0,0,0-2.16,2.16v1.8A2.16,2.16,0,0,0,14.87,15.06Z"/></svg>