<svg id="Layer_1" data-name="Layer 1" xmlns="http://www.w3.org/2000/svg" viewBox="0 0 24 24"><title>iconoteka_usd__dollar_r_a</title><path d="M18.07,16c0-2.24-1.86-3.86-5.09-4.46l-.63-.11-1.06-.19C8.9,10.73,7.53,9.47,7.53,7.75,7.53,5.35,9.86,4.5,12,4.5c.75,0,4.3.18,4.71,3.44h1c-.31-3.06-2.88-4.29-5.26-4.43V1h-1V3.53c-3,.18-5,1.78-5,4.22,0,2.21,1.7,3.87,4.56,4.44l1.09.19.61.11c2.72.51,4.28,1.77,4.28,3.48,0,2.09-2,3.51-5,3.53a6.16,6.16,0,0,1-4.13-1.34,3.5,3.5,0,0,1-1-2.25H6a4.52,4.52,0,0,0,1.26,3,6.56,6.56,0,0,0,4.28,1.62V23h1V20.47C15.84,20.3,18.07,18.54,18.07,16Z"/></svg>