<svg id="Layer_1" data-name="Layer 1" xmlns="http://www.w3.org/2000/svg" viewBox="0 0 24 24"><title>iconoteka_plastic_pvc_l_a</title><path d="M15.46,4.1l3.32,5.75-2.14-.58-.13.49,2.95.79.79-3-.48-.13L19.2,9.58,15.9,3.85a4.5,4.5,0,0,0-7.8,0L6.31,7l.44.25L8.54,4.1a4,4,0,0,1,6.92,0ZM2,19.5a3.93,3.93,0,0,1,0-4L5.27,9.76l.58,2.14.48-.13L5.54,8.82l-3,.79.13.48,2.12-.57L1.52,15.25A4.5,4.5,0,0,0,5.42,22H9v-.5H5.42A4,4,0,0,1,2,19.5Zm20.52-4.25-1.79-3.1-.44.25L22,15.5a4,4,0,0,1-3.46,6H12l1.56-1.57-.35-.35L11,21.74l2.16,2.16.36-.35L12,22h6.61A4.5,4.5,0,0,0,22.48,15.25Zm-8.61-.89a1.49,1.49,0,0,0-1.28-1.5,1.54,1.54,0,0,0,1-1.36,1.63,1.63,0,0,0-1.79-1.62A1.88,1.88,0,0,0,10,11.11l.44.21a1.51,1.51,0,0,1,1.39-.94A1.16,1.16,0,0,1,13.1,11.5a1.19,1.19,0,0,1-1.26,1.15h-.62v.51h.62c.92,0,1.5.44,1.5,1.2a1.35,1.35,0,0,1-1.49,1.26,1.71,1.71,0,0,1-1.53-1.08l-.44.22a2,2,0,0,0,2,1.36A1.83,1.83,0,0,0,13.87,14.36Z"/></svg>