<svg id="Layer_1" data-name="Layer 1" xmlns="http://www.w3.org/2000/svg" viewBox="0 0 24 24"><title>iconoteka_fiber_dvr_r_s</title><path d="M12.45,15l2.22-6h-.89L12,13.8,10.22,9H9.33l2.22,6Zm4.17-2.24H18L19.47,15h.9l-1.44-2.28a1.61,1.61,0,0,0,1.3-1.59v-.51A1.62,1.62,0,0,0,18.61,9H15.79v6h.83Zm0-2.93h2a.79.79,0,0,1,.79.79v.51a.79.79,0,0,1-.79.79h-2Zm-8,3V11.13A2.13,2.13,0,0,0,6.46,9H3.79v6H6.46A2.13,2.13,0,0,0,8.59,12.87Zm-4-3H6.46a1.3,1.3,0,0,1,1.3,1.3v1.74a1.3,1.3,0,0,1-1.3,1.3H4.62ZM0,4V20H24V4ZM22.8,19H1.2V5H22.8Z"/></svg>