<svg id="Layer_1" data-name="Layer 1" xmlns="http://www.w3.org/2000/svg" viewBox="0 0 24 24"><title>iconoteka_info_italic__more__details__information_about_r_s</title><path d="M12.49,8.22a.69.69,0,1,0-.68-.69A.68.68,0,0,0,12.49,8.22ZM12,2A10,10,0,1,0,22,12,10,10,0,0,0,12,2Zm0,19a9,9,0,1,1,9-9A9,9,0,0,1,12,21Zm.09-4.77a.37.37,0,0,1-.36-.1.41.41,0,0,1-.1-.36L12.54,12a1.32,1.32,0,0,0-.35-1.23A1.29,1.29,0,0,0,11,10.38l-1.75.38.2.92,1.75-.39a.39.39,0,0,1,.46.47l-.91,3.79a1.36,1.36,0,0,0,.34,1.23,1.3,1.3,0,0,0,.94.4,1.33,1.33,0,0,0,.28,0L14,16.78l-.19-.92Z"/></svg>