<svg id="Layer_1" data-name="Layer 1" xmlns="http://www.w3.org/2000/svg" viewBox="0 0 24 24"><title>iconoteka_closed_caption_b_s</title><path d="M8.61,15H9.5a1.9,1.9,0,0,0,1.9-1.9v-.3H9.9v.3a.4.4,0,0,1-.4.4H8.61A.51.51,0,0,1,8.1,13V11a.51.51,0,0,1,.51-.52H9.5a.4.4,0,0,1,.4.4v.3h1.5v-.3A1.9,1.9,0,0,0,9.5,9H8.61a2,2,0,0,0-2,2v2A2,2,0,0,0,8.61,15Zm6,0h.89a1.9,1.9,0,0,0,1.9-1.9v-.3H15.9v.3a.4.4,0,0,1-.4.4h-.89A.51.51,0,0,1,14.1,13V11a.51.51,0,0,1,.51-.52h.89a.4.4,0,0,1,.4.4v.3h1.5v-.3A1.9,1.9,0,0,0,15.5,9h-.89a2,2,0,0,0-2,2v2A2,2,0,0,0,14.61,15ZM1,4V20H23V4ZM21,18H3V6H21Z"/></svg>