<svg id="Layer_1" data-name="Layer 1" xmlns="http://www.w3.org/2000/svg" viewBox="0 0 24 24"><title>iconoteka_new_releases_l_s</title><path d="M21.17,9.86A4,4,0,0,1,20,7V4H17a4,4,0,0,1-2.83-1.17L12,.69,9.86,2.83A4,4,0,0,1,7,4H4V7A4,4,0,0,1,2.83,9.86L.69,12l2.14,2.14A4,4,0,0,1,4,17v3H7a4,4,0,0,1,2.83,1.17L12,23.31l2.14-2.14A4,4,0,0,1,17,20h3V17a4,4,0,0,1,1.17-2.83L23.31,12Zm-.35,3.93A4.47,4.47,0,0,0,19.5,17V19.5H17a4.47,4.47,0,0,0-3.18,1.32L12,22.61l-1.79-1.79A4.47,4.47,0,0,0,7,19.5H4.5V17a4.47,4.47,0,0,0-1.32-3.18L1.39,12l1.79-1.79A4.47,4.47,0,0,0,4.5,7V4.5H7a4.47,4.47,0,0,0,3.18-1.32L12,1.39l1.79,1.79A4.47,4.47,0,0,0,17,4.5H19.5V7a4.47,4.47,0,0,0,1.32,3.18L22.61,12Zm-8.6-1.29.13-5h-.7l.13,5ZM12,14.88a.45.45,0,1,0,.45.45A.45.45,0,0,0,12,14.88Z"/></svg>