<svg id="Layer_1" data-name="Layer 1" xmlns="http://www.w3.org/2000/svg" viewBox="0 0 24 24"><title>iconoteka_s_letter_b_a</title><path d="M13.07,11l-.7-.14-1-.21C9.06,10.16,7.8,8.87,7.8,7,7.8,3.89,11,3.65,12,3.65c.69,0,4,.18,4.39,3.6h2C18,2.86,14.26,1.65,12,1.65,8.23,1.65,5.8,3.76,5.8,7c0,2.79,1.91,4.88,5.09,5.59l1.1.22.67.14c1.52.32,4.06,1.21,4.06,3.66,0,2.23-1.85,3.69-4.72,3.71a5.46,5.46,0,0,1-3.75-1.26,3.85,3.85,0,0,1-1-2.52h-2a5.83,5.83,0,0,0,1.62,3.94A7.3,7.3,0,0,0,12,22.35H12c4,0,6.71-2.37,6.71-5.71C18.72,13.82,16.66,11.77,13.07,11Z"/></svg>