<svg id="Layer_1" data-name="Layer 1" xmlns="http://www.w3.org/2000/svg" viewBox="0 0 24 24"><title>iconoteka_recycling_l_a</title><path d="M2,19.5a3.93,3.93,0,0,1,0-4L5.27,9.76,6,12.41l.49-.13L5.54,8.82l-3.47.92.13.49,2.63-.71L1.52,15.25A4.5,4.5,0,0,0,5.42,22H9v-.5H5.42A4,4,0,0,1,2,19.5Zm20.52-4.25-1.79-3.1-.44.25L22,15.5a4,4,0,0,1-3.46,6H12l1.94-1.94-.35-.36L11,21.74l2.54,2.54.35-.36L12,22h6.61A4.5,4.5,0,0,0,22.48,15.25Zm-7-11.15,3.32,5.75-2.65-.71L16,9.62l3.46.93.93-3.47L19.91,7,19.2,9.58,15.9,3.85a4.5,4.5,0,0,0-7.8,0L6.31,7l.44.25L8.54,4.1a4,4,0,0,1,6.92,0Z"/></svg>