<svg id="Layer_1" data-name="Layer 1" xmlns="http://www.w3.org/2000/svg" viewBox="0 0 24 24"><title>iconoteka_closed_caption_l_f</title><path d="M1,4V20H23V4ZM8.49,14.5H9.7a1.2,1.2,0,0,0,1.2-1.2h.5A1.7,1.7,0,0,1,9.7,15H8.49A1.89,1.89,0,0,1,6.6,13.11V10.89A1.89,1.89,0,0,1,8.49,9H9.7a1.7,1.7,0,0,1,1.7,1.7h-.5A1.2,1.2,0,0,0,9.7,9.5H8.49A1.39,1.39,0,0,0,7.1,10.89v2.22A1.39,1.39,0,0,0,8.49,14.5Zm6,0H15.7a1.2,1.2,0,0,0,1.2-1.2h.5A1.7,1.7,0,0,1,15.7,15H14.49a1.89,1.89,0,0,1-1.89-1.89V10.89A1.89,1.89,0,0,1,14.49,9H15.7a1.7,1.7,0,0,1,1.7,1.7h-.5a1.2,1.2,0,0,0-1.2-1.2H14.49a1.39,1.39,0,0,0-1.39,1.39v2.22A1.39,1.39,0,0,0,14.49,14.5Z"/></svg>