<svg id="Layer_1" data-name="Layer 1" xmlns="http://www.w3.org/2000/svg" viewBox="0 0 24 24"><title>iconoteka_gif__graphics_interchange_format_r_f</title><path d="M1,4V20H23V4Zm9.41,6.78H9.57a.94.94,0,0,0-.93-.94H7.53a1.1,1.1,0,0,0-1.09,1.1v2.14a1.1,1.1,0,0,0,1.09,1.1H8.64a.94.94,0,0,0,.93-.94v-.68H8.17v-.72h2.24v1.4A1.77,1.77,0,0,1,8.64,15H7.53A1.93,1.93,0,0,1,5.6,13.07V10.93A1.93,1.93,0,0,1,7.53,9H8.64a1.77,1.77,0,0,1,1.77,1.77ZM12.73,15H11.9V9h.83Zm5.88-5.21H15.44v2.08h2.89v.74H15.44V15H14.6V9h4Z"/></svg>