<svg id="Layer_1" data-name="Layer 1" xmlns="http://www.w3.org/2000/svg" viewBox="0 0 24 24"><defs><style>.cls-1{fill:none;}</style></defs><title>iconoteka_help_b_s</title><rect class="cls-1" width="24" height="24"/><path d="M12,2A10,10,0,1,0,22,12,10,10,0,0,0,12,2Zm0,18a8,8,0,1,1,8-8A8,8,0,0,1,12,20Z"/><path d="M12.19,7H12a3,3,0,0,0-3,3h2a1,1,0,0,1,1-1h.19a.82.82,0,0,1,.81.88.81.81,0,0,1-.45.73A2.77,2.77,0,0,0,11,13.12v.69h2v-.69a.81.81,0,0,1,.45-.73A2.85,2.85,0,0,0,12.19,7Z"/><path d="M12,14.85A1.15,1.15,0,1,0,13.15,16,1.14,1.14,0,0,0,12,14.85Z"/></svg>