<svg id="Layer_1" data-name="Layer 1" xmlns="http://www.w3.org/2000/svg" viewBox="0 0 24 24"><defs><style>.cls-1{fill:none;}</style></defs><title>iconoteka_pin_b_s</title><rect class="cls-1" width="24" height="24"/><path d="M1,4V20H23V4ZM21,18H3V6H21Z"/><rect x="10.99" y="9" width="1.5" height="6"/><polygon points="15.65 11.65 17.42 15 18.92 15 18.92 9 17.42 9 17.42 12.31 15.65 9 14.15 9 14.15 15 15.65 15 15.65 11.65"/><path d="M6.58,13.11h1.2a2,2,0,0,0,2-2V11a2,2,0,0,0-2-2H5.08v6h1.5Zm0-2.81H7.71a.61.61,0,0,1,.53.66v.19a.61.61,0,0,1-.53.66H6.58Z"/></svg>