<svg id="Layer_1" data-name="Layer 1" xmlns="http://www.w3.org/2000/svg" viewBox="0 0 24 24"><title>iconoteka_plastic_ldpe_m_a</title><path d="M9.4,4.6a3,3,0,0,1,5.2,0L17,8.83l-1.22.7,2.94.78.79-2.93-1.21.7L15.9,3.85a4.5,4.5,0,0,0-7.8,0l-2.29,4,1.3.75ZM2.82,19a3,3,0,0,1,0-3l2.44-4.22,1.21.7L5.69,9.54l-2.94.79L4,11,1.52,15.25A4.5,4.5,0,0,0,5.42,22H10V20.5H5.42A3,3,0,0,1,2.82,19Zm19.66-3.75-2.29-4-1.3.75,2.29,4a3,3,0,0,1-2.6,4.5H13.7V19.1l-2.15,2.15L13.7,23.4V22h4.88A4.5,4.5,0,0,0,22.48,15.25ZM13.34,16V14.72h.76v-1h-.76V10H11.52L9.24,13.75v1h2.93V16Zm-2.92-2.27,1.75-2.86v2.86Z"/></svg>