<svg id="Layer_1" data-name="Layer 1" xmlns="http://www.w3.org/2000/svg" viewBox="0 0 24 24"><title>iconoteka_info_italic__more__details__information_about_r_f</title><path d="M12,2A10,10,0,1,0,22,12,10,10,0,0,0,12,2Zm.49,4.85a.69.69,0,1,1-.68.68A.68.68,0,0,1,12.49,6.85Zm-.21,10.3a1.33,1.33,0,0,1-.28,0,1.3,1.3,0,0,1-.94-.4,1.36,1.36,0,0,1-.34-1.23l.91-3.79a.39.39,0,0,0-.46-.47l-1.75.39-.2-.92L11,10.38A1.33,1.33,0,0,1,12.54,12l-.91,3.79a.41.41,0,0,0,.1.36.37.37,0,0,0,.36.1l1.76-.37.19.92Z"/></svg>