<svg id="Layer_1" data-name="Layer 1" xmlns="http://www.w3.org/2000/svg" viewBox="0 0 24 24"><title>iconoteka_recycling_m_a</title><path d="M22.48,15.25,20.62,12l-1.3.75L21.18,16a3,3,0,0,1-2.6,4.5H13.7V18.55L11,21.25,13.7,24V22h4.88A4.5,4.5,0,0,0,22.48,15.25ZM2.82,19a3,3,0,0,1,0-3l2.51-4.34,1.48.85-1-3.69-3.69,1L4,10.91,1.52,15.25A4.5,4.5,0,0,0,5.42,22H9V20.5H5.42A3,3,0,0,1,2.82,19ZM14.6,4.6,17,8.71l-1.49.85,3.7,1,1-3.69L18.27,8,15.9,3.85a4.5,4.5,0,0,0-7.8,0l-1.72,3,1.3.75,1.72-3a3,3,0,0,1,5.2,0Z"/></svg>