<svg id="Layer_1" data-name="Layer 1" xmlns="http://www.w3.org/2000/svg" viewBox="0 0 24 24"><title>iconoteka_fiber_dvr_l_f</title><path d="M19.56,11v-.49a1,1,0,0,0-1-1H16.29v2.55h2.24A1,1,0,0,0,19.56,11ZM1,4V20H23V4Zm7.59,8.87A2.13,2.13,0,0,1,6.46,15H3.79V9H6.46a2.13,2.13,0,0,1,2.13,2.13ZM12.27,15h-.53L9.48,9H10l2,5.3L14,9h.53Zm7.37,0-1.55-2.45h-1.8V15h-.5V9h2.74a1.53,1.53,0,0,1,1.53,1.53V11a1.52,1.52,0,0,1-1.45,1.52L20.17,15ZM6.46,9.5H4.29v5H6.46a1.63,1.63,0,0,0,1.63-1.63V11.13A1.63,1.63,0,0,0,6.46,9.5Z"/></svg>