<svg id="Layer_1" data-name="Layer 1" xmlns="http://www.w3.org/2000/svg" viewBox="0 0 24 24"><title>iconoteka_fiber_dvr_l_s</title><path d="M12.27,15l2.25-6H14l-2,5.3L10,9H9.48l2.26,6Zm4-2.45h1.8L19.64,15h.53l-1.56-2.46A1.52,1.52,0,0,0,20.06,11v-.49A1.53,1.53,0,0,0,18.53,9H15.79v6h.5Zm0-3.05h2.24a1,1,0,0,1,1,1V11a1,1,0,0,1-1,1H16.29Zm-7.7,3.37V11.13A2.13,2.13,0,0,0,6.46,9H3.79v6H6.46A2.13,2.13,0,0,0,8.59,12.87ZM4.29,9.5H6.46a1.63,1.63,0,0,1,1.63,1.63v1.74A1.63,1.63,0,0,1,6.46,14.5H4.29ZM0,4V20H24V4ZM23.4,19.5H.6V4.5H23.4Z"/></svg>