<svg id="Layer_1" data-name="Layer 1" xmlns="http://www.w3.org/2000/svg" viewBox="0 0 24 24"><defs><style>.cls-1{fill:none;}</style></defs><title>iconoteka_http_b_s</title><rect class="cls-1" width="24" height="24"/><rect y="18" width="24" height="2"/><rect y="4" width="24" height="2"/><polygon points="1.93 8.88 1.93 14.88 3.43 14.88 3.43 12.57 5.15 12.57 5.15 14.88 6.65 14.88 6.65 8.88 5.15 8.88 5.15 11.2 3.43 11.2 3.43 8.88 1.93 8.88"/><polygon points="14.81 14.88 14.81 10.26 16.48 10.26 16.48 8.88 14.81 8.88 13.31 8.88 12.48 8.88 11.64 8.88 10.81 8.88 9.31 8.88 7.64 8.88 7.64 10.26 9.31 10.26 9.31 14.88 10.81 14.88 10.81 10.26 11.64 10.26 12.48 10.26 13.31 10.26 13.31 14.88 14.81 14.88"/><path d="M20.11,13a2,2,0,0,0,2-2v-.18a2,2,0,0,0-2-2h-2.7v6h1.5V13Zm-1.2-2.81H20a.61.61,0,0,1,.54.67V11a.61.61,0,0,1-.54.66H18.91Z"/></svg>