<svg id="Layer_1" data-name="Layer 1" xmlns="http://www.w3.org/2000/svg" viewBox="0 0 24 24"><title>iconoteka_fiber_dvr_b_s</title><path d="M12.81,15,15,9H13.35L12,12.75,10.65,9H9l2.15,6Zm4.48-1.83H18L19.11,15h1.66l-1.26-2a1.79,1.79,0,0,0,1.06-1.64V10.8A1.8,1.8,0,0,0,18.77,9h-3v6h1.5Zm0-2.67h1.48a.3.3,0,0,1,.3.3v.57a.3.3,0,0,1-.3.3H17.29Zm-8.7,2.37V11.13A2.13,2.13,0,0,0,6.46,9H3.79v6H6.46A2.13,2.13,0,0,0,8.59,12.87ZM5.29,10.5H6.46a.63.63,0,0,1,.63.63v1.74a.63.63,0,0,1-.63.63H5.29ZM0,4V20H24V4ZM21.6,18H2.4V6H21.6Z"/></svg>