<svg id="Layer_1" data-name="Layer 1" xmlns="http://www.w3.org/2000/svg" viewBox="0 0 24 24"><title>iconoteka_plastic_hdpe_r_a</title><path d="M15,4.35l2.83,4.91-1.41-.38-.26,1,3.06.82.82-3.06-1-.26-.38,1.41L15.9,3.85a4.5,4.5,0,0,0-7.8,0L6.31,7l.87.5L9,4.35a3.5,3.5,0,0,1,6.06,0Zm7.45,10.9-1.79-3.1-.87.5,1.79,3.1a3.5,3.5,0,0,1-3,5.25H12.91l1-1-.71-.71L11,21.5l2.24,2.24L14,23l-1-1h5.67A4.5,4.5,0,0,0,22.48,15.25Zm-20.09,4a3.48,3.48,0,0,1,0-3.5l2.83-4.91.38,1.42,1-.26L5.75,8.94l-3.06.82.25,1,1.42-.38L1.52,15.25A4.5,4.5,0,0,0,5.42,22H9V21H5.42A3.46,3.46,0,0,1,2.39,19.25Zm7.63-4V16h3.9v-.78H11.11c.58-.56,1.68-1.64,2-2a2.18,2.18,0,0,0,.76-1.54A1.83,1.83,0,0,0,12,9.88a2.1,2.1,0,0,0-2,1.69l.76.16A1.36,1.36,0,0,1,12,10.63a1.08,1.08,0,0,1,1.15,1.07,1.65,1.65,0,0,1-.61,1.09C12,13.3,10,15.22,10,15.22Z"/></svg>