<svg id="Layer_1" data-name="Layer 1" xmlns="http://www.w3.org/2000/svg" viewBox="0 0 24 24"><title>iconoteka_confirmation_number_r_s</title><path d="M0,5V19H24V5ZM23,18H1V6H23ZM4.59,13.38A1.55,1.55,0,1,0,3,11.83,1.54,1.54,0,0,0,4.59,13.38Zm0-2.19a.65.65,0,1,1-.65.64A.64.64,0,0,1,4.59,11.19Zm4.94,2.19A1.55,1.55,0,1,0,8,11.83,1.54,1.54,0,0,0,9.53,13.38Zm0-2.19a.65.65,0,1,1-.65.64A.64.64,0,0,1,9.53,11.19Zm4.94,2.19a1.55,1.55,0,1,0-1.54-1.55A1.55,1.55,0,0,0,14.47,13.38Zm0-2.19a.65.65,0,1,1-.64.64A.65.65,0,0,1,14.47,11.19Zm4.94,2.19a1.55,1.55,0,1,0-1.54-1.55A1.54,1.54,0,0,0,19.41,13.38Zm0-2.19a.65.65,0,1,1-.64.64A.65.65,0,0,1,19.41,11.19Z"/></svg>