<svg id="Layer_1" data-name="Layer 1" xmlns="http://www.w3.org/2000/svg" viewBox="0 0 24 24"><title>iconoteka_hq__high_quality_r_f</title><path d="M1,4V20H23V4ZM11.29,15h-.83V12.36H7.62V15H6.79V9h.83v2.62h2.84V9h.83Zm6,.7-.86-.85a1.86,1.86,0,0,1-.75.15h-.94a1.93,1.93,0,0,1-1.93-1.93V10.93A1.93,1.93,0,0,1,14.72,9h.94a1.92,1.92,0,0,1,1.93,1.93v2.14a1.91,1.91,0,0,1-.52,1.31l.76.76ZM15.66,9.83h-.94a1.11,1.11,0,0,0-1.1,1.1v2.14a1.11,1.11,0,0,0,1.1,1.1h.94a1.1,1.1,0,0,0,1.1-1.1V10.93A1.1,1.1,0,0,0,15.66,9.83Z"/></svg>