<svg id="Layer_1" data-name="Layer 1" xmlns="http://www.w3.org/2000/svg" viewBox="0 0 24 24"><title>iconoteka_closed_caption_r_f</title><path d="M1,4V20H23V4Zm10.4,6.87h-.83v-.1a.94.94,0,0,0-.94-.94H8.53a1.1,1.1,0,0,0-1.1,1.1v2.14a1.1,1.1,0,0,0,1.1,1.1h1.1a.94.94,0,0,0,.94-.94v-.1h.83v.1A1.77,1.77,0,0,1,9.63,15H8.53A1.92,1.92,0,0,1,6.6,13.07V10.93A1.92,1.92,0,0,1,8.53,9h1.1a1.77,1.77,0,0,1,1.77,1.77Zm6,0h-.83v-.1a.94.94,0,0,0-.94-.94h-1.1a1.1,1.1,0,0,0-1.1,1.1v2.14a1.1,1.1,0,0,0,1.1,1.1h1.1a.94.94,0,0,0,.94-.94v-.1h.83v.1A1.77,1.77,0,0,1,15.63,15h-1.1a1.92,1.92,0,0,1-1.93-1.93V10.93A1.92,1.92,0,0,1,14.53,9h1.1a1.77,1.77,0,0,1,1.77,1.77Z"/></svg>