<svg id="Layer_1" data-name="Layer 1" xmlns="http://www.w3.org/2000/svg" viewBox="0 0 24 24"><title>iconoteka_plastic_ps_b_a</title><path d="M3.26,18.75a2.43,2.43,0,0,1,0-2.5l2.29-4,1.13.66L5.84,9.78l-3.16.85,1.13.65-2.29,4A4.5,4.5,0,0,0,5.42,22H10V20H5.42A2.43,2.43,0,0,1,3.26,18.75ZM9.83,4.85a2.51,2.51,0,0,1,4.34,0l2.28,4-1.13.66,3.16.84.84-3.16-1.13.66-2.29-4a4.5,4.5,0,0,0-7.8,0l-2.29,4,1.74,1Zm12.65,10.4-2.29-4-1.74,1,2.29,4A2.5,2.5,0,0,1,18.58,20H14V18.69L11.69,21,14,23.31V22h4.58A4.5,4.5,0,0,0,22.48,15.25ZM14.26,14a2,2,0,0,0-2-2,1.83,1.83,0,0,0-1.51.72c0-1,.61-1.59,1.39-1.59a2.18,2.18,0,0,1,1.35.52l.69-1a3.1,3.1,0,0,0-2-.81c-1.34,0-2.76.81-2.76,3.1,0,2.46,1.44,3.14,2.59,3.14A2.16,2.16,0,0,0,14.26,14ZM11,14a.91.91,0,0,1,1-.86.85.85,0,0,1,.92.83.89.89,0,0,1-.93.89A.86.86,0,0,1,11,14Z"/></svg>