<svg id="Layer_1" data-name="Layer 1" xmlns="http://www.w3.org/2000/svg" viewBox="0 0 24 24"><title>iconoteka_plastic_ps_r_a</title><path d="M15,4.35l2.83,4.91-1.41-.38-.26,1,3.06.82.82-3.06-1-.26-.38,1.41L15.9,3.85a4.5,4.5,0,0,0-7.8,0L6.31,7l.87.5L9,4.35a3.5,3.5,0,0,1,6.06,0ZM2.39,19.25a3.48,3.48,0,0,1,0-3.5l2.83-4.91.38,1.42,1-.26L5.75,8.94l-3.06.82.25,1,1.42-.38L1.52,15.25A4.5,4.5,0,0,0,5.42,22H9V21H5.42A3.46,3.46,0,0,1,2.39,19.25Zm20.09-4-1.79-3.1-.87.5,1.79,3.1a3.5,3.5,0,0,1-3,5.25H12.91l1-1-.71-.71L11,21.5l2.24,2.24L14,23l-1-1h5.67A4.5,4.5,0,0,0,22.48,15.25ZM14.05,14a1.91,1.91,0,0,0-2-2,1.86,1.86,0,0,0-1.64,1c0-1.91.93-2.44,1.68-2.44a1.52,1.52,0,0,1,1.25.65l.52-.51a2.14,2.14,0,0,0-1.77-.91c-1.2,0-2.49.81-2.49,3.1,0,2.46,1.27,3.14,2.34,3.14A2,2,0,0,0,14.05,14Zm-3.39,0A1.3,1.3,0,0,1,12,12.76,1.2,1.2,0,0,1,13.25,14a1.3,1.3,0,1,1-2.59.05Z"/></svg>