<svg id="Layer_1" data-name="Layer 1" xmlns="http://www.w3.org/2000/svg" viewBox="0 0 24 24"><title>iconoteka_hq__high_quality_l_s</title><path d="M7.29,12.24h3.5V15h.5V9h-.5v2.74H7.29V9h-.5v6h.5ZM14.68,15h1a1.81,1.81,0,0,0,.87-.22l.86.85.38-.38L17,14.46a1.84,1.84,0,0,0,.57-1.35V10.89A1.89,1.89,0,0,0,15.7,9h-1a1.89,1.89,0,0,0-1.89,1.89v2.22A1.89,1.89,0,0,0,14.68,15Zm-1.39-4.11A1.39,1.39,0,0,1,14.68,9.5h1a1.39,1.39,0,0,1,1.39,1.39v2.22A1.39,1.39,0,0,1,15.7,14.5h-1a1.39,1.39,0,0,1-1.39-1.39ZM1,4V20H23V4ZM22.5,19.5H1.5V4.5h21Z"/></svg>