<svg id="Layer_1" data-name="Layer 1" xmlns="http://www.w3.org/2000/svg" viewBox="0 0 24 24"><title>iconoteka_fiber_dvr_m_s</title><path d="M12.63,15l2.18-6H13.56L12,13.28,10.44,9H9.19l2.18,6ZM17,13h1l1.29,2h1.28l-1.35-2.13a1.69,1.69,0,0,0,1.18-1.62v-.54A1.71,1.71,0,0,0,18.69,9h-2.9v6H17Zm0-2.79h1.73a.55.55,0,0,1,.55.54v.54a.55.55,0,0,1-.55.55H17Zm-8.37,2.7V11.13A2.13,2.13,0,0,0,6.46,9H3.79v6H6.46A2.13,2.13,0,0,0,8.59,12.87ZM5,10.17h1.5a1,1,0,0,1,1,1v1.74a1,1,0,0,1-1,1H5ZM0,4V20H24V4ZM22.2,18.5H1.8V5.5H22.2Z"/></svg>