<svg id="Layer_1" data-name="Layer 1" xmlns="http://www.w3.org/2000/svg" viewBox="0 0 24 24"><title>iconoteka_new_releases_b_s</title><path d="M21.17,9.86A4,4,0,0,1,20,7V4H17a4,4,0,0,1-2.83-1.17L12,.69,9.86,2.83A4,4,0,0,1,7,4H4V7A4,4,0,0,1,2.83,9.86L.69,12l2.14,2.14A4,4,0,0,1,4,17v3H7a4,4,0,0,1,2.83,1.17L12,23.31l2.14-2.14A4,4,0,0,1,17,20h3V17a4,4,0,0,1,1.17-2.83L23.31,12Zm-1.41,2.87A5.93,5.93,0,0,0,18,17v1H17a5.93,5.93,0,0,0-4.24,1.76l-.73.73-.73-.73A5.93,5.93,0,0,0,7,18H6V17a5.93,5.93,0,0,0-1.76-4.24L3.51,12l.73-.73A5.93,5.93,0,0,0,6,7V6H7a5.93,5.93,0,0,0,4.24-1.76L12,3.51l.73.73A5.93,5.93,0,0,0,17,6h1V7a5.93,5.93,0,0,0,1.76,4.24l.73.73Zm-8.52-.23h1.52l.46-5H10.78ZM12,13.85A1.15,1.15,0,1,0,13.15,15,1.14,1.14,0,0,0,12,13.85Z"/></svg>