<svg id="Layer_1" data-name="Layer 1" xmlns="http://www.w3.org/2000/svg" viewBox="0 0 24 24"><defs><style>.cls-1{fill:none;}</style></defs><title>iconoteka_hq_b_s</title><rect class="cls-1" width="24" height="24"/><path d="M2,4V20H22V4ZM20,18H4V6H20Z"/><polygon points="7.98 12.69 9.7 12.69 9.7 15 11.2 15 11.2 9 9.7 9 9.7 11.31 7.98 11.31 7.98 9 6.48 9 6.48 15 7.98 15 7.98 12.69"/><path d="M14.8,15.06h.49A2.4,2.4,0,0,0,16,15l.69.93L17.83,15l-.78-.85a2.16,2.16,0,0,0,.4-1.25V11.1a2.16,2.16,0,0,0-2.16-2.16H14.8a2.16,2.16,0,0,0-2.16,2.16v1.8A2.16,2.16,0,0,0,14.8,15.06Zm-.68-4a.8.8,0,0,1,.72-.86h.41a.8.8,0,0,1,.72.86v1.8a.8.8,0,0,1-.72.86h-.41a.8.8,0,0,1-.72-.86Z"/></svg>