<svg id="Layer_1" data-name="Layer 1" xmlns="http://www.w3.org/2000/svg" viewBox="0 0 24 24"><title>iconoteka_recycling_r_a</title><path d="M22.48,15.25l-1.79-3.1-.87.5,1.79,3.1a3.5,3.5,0,0,1-3,5.25H12.91l1.63-1.63-.71-.7L11,21.5l2.83,2.83.71-.7L12.91,22h5.67A4.5,4.5,0,0,0,22.48,15.25Zm-20.09,4a3.48,3.48,0,0,1,0-3.5l2.83-4.91.6,2.22,1-.25-1-3.87L1.88,10l.26,1,2.22-.6L1.52,15.25A4.5,4.5,0,0,0,5.42,22H9V21H5.42A3.46,3.46,0,0,1,2.39,19.25ZM15,4.35l2.83,4.91-2.22-.59-.26,1,3.87,1,1-3.87-1-.26-.59,2.22L15.9,3.85a4.5,4.5,0,0,0-7.8,0L6.31,7l.87.5L9,4.35a3.5,3.5,0,0,1,6.06,0Z"/></svg>