<svg id="Layer_1" data-name="Layer 1" xmlns="http://www.w3.org/2000/svg" viewBox="0 0 24 24"><title>iconoteka_fiber_dvr_b_f</title><path d="M6.46,10.5H5.29v3H6.46a.63.63,0,0,0,.63-.63V11.13A.63.63,0,0,0,6.46,10.5Zm12.31,0H17.29v1.17h1.48a.3.3,0,0,0,.3-.3V10.8A.3.3,0,0,0,18.77,10.5ZM1,4V20H23V4Zm7.59,8.87A2.13,2.13,0,0,1,6.46,15H3.79V9H6.46a2.13,2.13,0,0,1,2.13,2.13ZM12.81,15H11.19L9,9h1.61L12,12.75,13.35,9H15Zm6.3,0L18,13.17h-.66V15h-1.5V9h3a1.8,1.8,0,0,1,1.8,1.8v.57A1.79,1.79,0,0,1,19.51,13l1.26,2Z"/></svg>