<svg id="Layer_1" data-name="Layer 1" xmlns="http://www.w3.org/2000/svg" viewBox="0 0 24 24"><title>iconoteka_plastic_ps_m_a</title><path d="M22.48,15.25l-2.29-4-1.3.75,2.29,4a3,3,0,0,1-2.6,4.5H13.7V19.1l-2.15,2.15L13.7,23.4V22h4.88A4.5,4.5,0,0,0,22.48,15.25ZM9.4,4.6a3,3,0,0,1,5.2,0L17,8.83l-1.22.7,2.94.78.79-2.93-1.21.7L15.9,3.85a4.5,4.5,0,0,0-7.8,0l-2.29,4,1.3.75ZM2.82,19a3,3,0,0,1,0-3l2.44-4.22,1.21.7L5.69,9.54l-2.94.79L4,11,1.52,15.25A4.5,4.5,0,0,0,5.42,22H10V20.5H5.42A3,3,0,0,1,2.82,19Zm11.33-5a1.94,1.94,0,0,0-2-2,1.84,1.84,0,0,0-1.57.88c0-1.47.77-2,1.53-2a1.78,1.78,0,0,1,1.3.58l.61-.76a2.58,2.58,0,0,0-1.91-.86c-1.27,0-2.63.81-2.63,3.1,0,2.46,1.36,3.14,2.47,3.14A2.09,2.09,0,0,0,14.15,14Zm-3.32,0A1.1,1.1,0,0,1,12,13a1,1,0,0,1,1.09,1A1.09,1.09,0,0,1,12,15.12,1.07,1.07,0,0,1,10.83,14Z"/></svg>