<svg id="Layer_1" data-name="Layer 1" xmlns="http://www.w3.org/2000/svg" viewBox="0 0 24 24"><defs><style>.cls-1{fill:none;}</style></defs><title>iconoteka_copyright_b_s</title><rect class="cls-1" width="24" height="24"/><path d="M12,2A10,10,0,1,0,22,12,10,10,0,0,0,12,2Zm0,18a8,8,0,1,1,8-8A8,8,0,0,1,12,20Z"/><path d="M11.5,9h1A1.5,1.5,0,0,1,14,10.5h2A3.5,3.5,0,0,0,12.5,7h-1A3.5,3.5,0,0,0,8,10.5v3A3.5,3.5,0,0,0,11.5,17h1A3.5,3.5,0,0,0,16,13.5H14A1.5,1.5,0,0,1,12.5,15h-1A1.5,1.5,0,0,1,10,13.5v-3A1.5,1.5,0,0,1,11.5,9Z"/></svg>