<svg id="Layer_1" data-name="Layer 1" xmlns="http://www.w3.org/2000/svg" viewBox="0 0 24 24"><title>iconoteka_s_letter_r_a</title><path d="M13,11.51l-.64-.13-1.14-.24c-2.54-.59-4-2.18-4-4.37C7.23,3.52,10,2.65,12,2.65a4.78,4.78,0,0,1,5,4.6h1c-.29-5.08-4.84-5.6-6-5.6C9,1.65,6.23,3.23,6.23,6.77,6.23,9.45,8,11.41,11,12.12l1.16.24.63.13c2.52.55,4.52,2,4.52,4.39,0,2.66-2.11,4.47-5.3,4.47a6,6,0,0,1-4.11-1.43,4.8,4.8,0,0,1-1.27-3.35h-1a5.77,5.77,0,0,0,1.57,4.06A6.77,6.77,0,0,0,12,22.35H12c3.74,0,6.29-2.24,6.29-5.47C18.3,14.2,16.36,12.24,13,11.51Z"/></svg>