<svg id="Layer_1" data-name="Layer 1" xmlns="http://www.w3.org/2000/svg" viewBox="0 0 24 24"><title>iconoteka_fiber_dvr_m_f</title><path d="M19.24,10.71a.55.55,0,0,0-.55-.54H17V11.8h1.73a.55.55,0,0,0,.55-.55ZM6.46,10.17H5v3.66h1.5a1,1,0,0,0,1-1V11.13A1,1,0,0,0,6.46,10.17ZM1,4V20H23V4Zm7.59,8.87A2.13,2.13,0,0,1,6.46,15H3.79V9H6.46a2.13,2.13,0,0,1,2.13,2.13Zm4,2.13H11.37L9.19,9h1.25L12,13.28,13.56,9h1.25Zm6.66,0L18,13H17v2H15.79V9h2.9a1.71,1.71,0,0,1,1.71,1.71v.54a1.69,1.69,0,0,1-1.18,1.62L20.57,15Z"/></svg>