<svg id="Layer_1" data-name="Layer 1" xmlns="http://www.w3.org/2000/svg" viewBox="0 0 24 24"><title>iconoteka_hq__high_quality_r_s</title><path d="M7.62,12.36h2.84V15h.83V9h-.83v2.62H7.62V9H6.79v6h.83ZM14.72,15h.94a1.86,1.86,0,0,0,.75-.15l.86.85.56-.56-.76-.76a1.91,1.91,0,0,0,.52-1.31V10.93A1.92,1.92,0,0,0,15.66,9h-.94a1.93,1.93,0,0,0-1.93,1.93v2.14A1.93,1.93,0,0,0,14.72,15Zm-1.1-4.07a1.11,1.11,0,0,1,1.1-1.1h.94a1.1,1.1,0,0,1,1.1,1.1v2.14a1.1,1.1,0,0,1-1.1,1.1h-.94a1.11,1.11,0,0,1-1.1-1.1ZM1,4V20H23V4ZM22,19H2V5H22Z"/></svg>