<svg id="Layer_1" data-name="Layer 1" xmlns="http://www.w3.org/2000/svg" viewBox="0 0 24 24"><title>iconoteka_plastic_hdpe_b_a</title><path d="M3.26,18.75a2.43,2.43,0,0,1,0-2.5l2.29-4,1.13.66L5.84,9.78l-3.16.85,1.13.65-2.29,4A4.5,4.5,0,0,0,5.42,22H10V20H5.42A2.43,2.43,0,0,1,3.26,18.75ZM9.83,4.85a2.51,2.51,0,0,1,4.34,0l2.28,4-1.13.66,3.16.84.84-3.16-1.13.66-2.29-4a4.5,4.5,0,0,0-7.8,0l-2.29,4,1.74,1Zm12.65,10.4-2.29-4-1.74,1,2.29,4A2.5,2.5,0,0,1,18.58,20H14V18.69L11.69,21,14,23.31V22h4.58A4.5,4.5,0,0,0,22.48,15.25ZM14,11.73A2,2,0,0,0,11.9,9.88a2,2,0,0,0-2.1,1.73l1.31.23a.78.78,0,0,1,.79-.71.7.7,0,0,1,.76.67,1.27,1.27,0,0,1-.44.83c-.53.52-2.27,2-2.27,2V16h4V14.64H11.88c.54-.49,1.18-1.09,1.49-1.4A2,2,0,0,0,14,11.73Z"/></svg>