<svg id="Layer_1" data-name="Layer 1" xmlns="http://www.w3.org/2000/svg" viewBox="0 0 24 24"><title>iconoteka_usd__dollar_l_a</title><path d="M17.82,16c0-2.1-1.78-3.64-4.89-4.22l-.62-.1-1.07-.19c-2.52-.51-4-1.86-4-3.71,0-2.58,2.46-3.5,4.76-3.5.49,0,4.53.11,5,3.69h.5c-.39-3.74-4.22-4.14-5.25-4.18V1h-.5V3.76c-2.46.08-5,1.15-5,4,0,2.11,1.59,3.64,4.36,4.2l1.09.19.61.11c2.85.52,4.48,1.88,4.48,3.72,0,2.24-2.12,3.76-5.27,3.78a6.39,6.39,0,0,1-4.3-1.41,3.74,3.74,0,0,1-1-2.43h-.5A4.23,4.23,0,0,0,7.4,18.69a6.46,6.46,0,0,0,4.35,1.55V23h.5V20.24C15.59,20.15,17.82,18.46,17.82,16Z"/></svg>