<svg id="Layer_1" data-name="Layer 1" xmlns="http://www.w3.org/2000/svg" viewBox="0 0 24 24"><title>iconoteka_recycling_b_a</title><path d="M14.17,4.85l2.28,4-1.73,1,4.1,1.1,1.1-4.1-1.73,1-2.29-4a4.5,4.5,0,0,0-7.8,0L6.31,7,8.05,8l1.78-3.1a2.51,2.51,0,0,1,4.34,0ZM3.26,18.75a2.43,2.43,0,0,1,0-2.5l2.29-4,1.73,1L6.18,9.19l-4.1,1.09,1.73,1-2.29,4A4.5,4.5,0,0,0,5.42,22H9V20H5.42A2.43,2.43,0,0,1,3.26,18.75Zm19.22-3.5-1.79-3.1-1.74,1,1.79,3.1A2.5,2.5,0,0,1,18.58,20H14V18l-3,3,3,3V22h4.58A4.5,4.5,0,0,0,22.48,15.25Z"/></svg>