<svg id="Layer_1" data-name="Layer 1" xmlns="http://www.w3.org/2000/svg" viewBox="0 0 24 24"><title>iconoteka_gif__graphics_interchange_format_r_s</title><path d="M12.73,9H11.9v6h.83Zm2.71,3.61h2.89v-.74H15.44V9.79h3.17V9h-4v6h.84ZM7.53,15H8.64a1.77,1.77,0,0,0,1.77-1.77v-1.4H8.17v.72h1.4v.68a.94.94,0,0,1-.93.94H7.53a1.1,1.1,0,0,1-1.09-1.1V10.93a1.1,1.1,0,0,1,1.09-1.1H8.64a.94.94,0,0,1,.93.94h.84A1.77,1.77,0,0,0,8.64,9H7.53A1.93,1.93,0,0,0,5.6,10.93v2.14A1.93,1.93,0,0,0,7.53,15ZM1,4V20H23V4ZM22,19H2V5H22Z"/></svg>