<svg id="Layer_1" data-name="Layer 1" xmlns="http://www.w3.org/2000/svg" viewBox="0 0 24 24"><defs><style>.cls-1{fill:#231f20;}</style></defs><title>iconoteka_copyright_b_s</title><path class="cls-1" d="M12,2A10,10,0,1,0,22,12,10,10,0,0,0,12,2Zm0,18a8,8,0,1,1,8-8A8,8,0,0,1,12,20Zm.72-13H11.4A3.4,3.4,0,0,0,8,10.4v3.2A3.4,3.4,0,0,0,11.4,17h1.32A3.28,3.28,0,0,0,16,13.72v-.08H14v.08A1.29,1.29,0,0,1,12.72,15H11.4A1.4,1.4,0,0,1,10,13.6V10.4A1.4,1.4,0,0,1,11.4,9h1.32A1.29,1.29,0,0,1,14,10.28v.08h2v-.08A3.28,3.28,0,0,0,12.72,7Z"/></svg>