<svg id="Layer_1" data-name="Layer 1" xmlns="http://www.w3.org/2000/svg" viewBox="0 0 24 24"><title>iconoteka_info_italic__more__details__information_about_l_s</title><path d="M12.49,7.75A.45.45,0,1,0,12,7.3.45.45,0,0,0,12.49,7.75ZM12,2A10,10,0,1,0,22,12,10,10,0,0,0,12,2Zm0,19.5A9.5,9.5,0,1,1,21.5,12,9.51,9.51,0,0,1,12,21.5Zm.05-4.82a.55.55,0,0,1-.54-.16.57.57,0,0,1-.15-.54l1-4.31a1.09,1.09,0,0,0-.28-1,1.12,1.12,0,0,0-1-.31l-1.88.41.11.49,1.88-.41a.58.58,0,0,1,.69.71l-1,4.31a1.09,1.09,0,0,0,1.06,1.34.83.83,0,0,0,.22,0L14,16.78l-.1-.49Z"/></svg>