<svg id="Layer_1" data-name="Layer 1" xmlns="http://www.w3.org/2000/svg" viewBox="0 0 24 24"><title>iconoteka_s_letter_m_a</title><path d="M13,11.27l-.67-.14-1.09-.22c-2.41-.56-3.75-2-3.75-4,0-3.19,3-3.75,4.48-3.75.63,0,4.33.18,4.68,4.1h1.51c-.34-4.73-4.49-5.6-6.19-5.6C8.59,1.65,6,3.5,6,6.9c0,2.73,1.82,4.76,4.92,5.47l1.13.23.65.13c2,.44,4.29,1.62,4.29,4s-2,4.08-5,4.09a5.7,5.7,0,0,1-3.93-1.34,4.34,4.34,0,0,1-1.15-2.94H5.42a5.84,5.84,0,0,0,1.59,4A7.06,7.06,0,0,0,12,22.35H12c3.85,0,6.5-2.31,6.5-5.59C18.51,14,16.51,12,13,11.27Z"/></svg>