<svg id="Layer_1" data-name="Layer 1" xmlns="http://www.w3.org/2000/svg" viewBox="0 0 24 24"><title>iconoteka_s_letter_l_a</title><path d="M12.94,11.76l-.6-.13-1.19-.25C8.48,10.74,6.94,9,6.94,6.64c0-3.31,2.61-4.48,5.06-4.48a5.11,5.11,0,0,1,5.27,5.09h.5A5.58,5.58,0,0,0,12,1.66c-2.69,0-5.56,1.3-5.56,5,0,2.62,1.68,4.53,4.6,5.22.13,0,.72.16,1.2.26l.59.12c3,.67,4.76,2.41,4.76,4.77,0,2.87-2.24,4.81-5.59,4.83a6.17,6.17,0,0,1-4.29-1.51,5.31,5.31,0,0,1-1.39-3.76h-.5a5.79,5.79,0,0,0,1.54,4.12A6.55,6.55,0,0,0,12,22.34H12c3.64,0,6.08-2.17,6.08-5.33C18.09,14.39,16.22,12.48,12.94,11.76Z"/></svg>