<svg id="Layer_1" data-name="Layer 1" xmlns="http://www.w3.org/2000/svg" viewBox="0 0 24 24"><title>iconoteka_usd__dollar_m_a</title><path d="M18.32,16c0-2.37-1.93-4.08-5.3-4.71l-.62-.11c-.43-.07-1-.16-1.06-.19-2.26-.45-3.56-1.62-3.56-3.21,0-2.78,3.26-3,4.26-3,.71,0,4.05.16,4.46,3.19H18c-.33-3.29-3.16-4.45-5.26-4.65V1h-1.5V3.3c-3,.25-5,1.93-5,4.45,0,2.34,1.78,4.09,4.76,4.69l1.1.19.61.11c1.22.22,4.07,1,4.07,3.23,0,2-1.92,3.26-4.77,3.28A5.87,5.87,0,0,1,8.1,18a3.16,3.16,0,0,1-.89-2.07H5.71A4.76,4.76,0,0,0,7,19.05a6.67,6.67,0,0,0,4.21,1.67V23h1.5V20.72C16.11,20.48,18.32,18.63,18.32,16Z"/></svg>