<svg id="Layer_1" data-name="Layer 1" xmlns="http://www.w3.org/2000/svg" viewBox="0 0 24 24"><title>iconoteka_closed_caption_l_s</title><path d="M8.49,15H9.7a1.7,1.7,0,0,0,1.7-1.7h-.5a1.2,1.2,0,0,1-1.2,1.2H8.49A1.39,1.39,0,0,1,7.1,13.11V10.89A1.39,1.39,0,0,1,8.49,9.5H9.7a1.2,1.2,0,0,1,1.2,1.2h.5A1.7,1.7,0,0,0,9.7,9H8.49A1.89,1.89,0,0,0,6.6,10.89v2.22A1.89,1.89,0,0,0,8.49,15Zm6,0H15.7a1.7,1.7,0,0,0,1.7-1.7h-.5a1.2,1.2,0,0,1-1.2,1.2H14.49a1.39,1.39,0,0,1-1.39-1.39V10.89A1.39,1.39,0,0,1,14.49,9.5H15.7a1.2,1.2,0,0,1,1.2,1.2h.5A1.7,1.7,0,0,0,15.7,9H14.49a1.89,1.89,0,0,0-1.89,1.89v2.22A1.89,1.89,0,0,0,14.49,15ZM1,4V20H23V4ZM22.5,19.5H1.5V4.5h21Z"/></svg>