<svg id="Layer_1" data-name="Layer 1" xmlns="http://www.w3.org/2000/svg" viewBox="0 0 24 24"><title>iconoteka_closed_caption_m_f</title><path d="M1,4V20H23V4Zm10.4,7H10.24v-.2a.67.67,0,0,0-.67-.66h-1a.81.81,0,0,0-.81.8V13a.81.81,0,0,0,.81.8h1a.67.67,0,0,0,.67-.66V13H11.4v.2A1.83,1.83,0,0,1,9.57,15h-1a2,2,0,0,1-2-2V11a2,2,0,0,1,2-2h1a1.83,1.83,0,0,1,1.83,1.83Zm6,0H16.24v-.2a.67.67,0,0,0-.67-.66h-1a.81.81,0,0,0-.81.8V13a.81.81,0,0,0,.81.8h1a.67.67,0,0,0,.67-.66V13H17.4v.2A1.83,1.83,0,0,1,15.57,15h-1a2,2,0,0,1-2-2V11a2,2,0,0,1,2-2h1a1.83,1.83,0,0,1,1.83,1.83Z"/></svg>