<svg id="Layer_1" data-name="Layer 1" xmlns="http://www.w3.org/2000/svg" viewBox="0 0 24 24"><title>iconoteka_plastic_other_b_a</title><path d="M9.83,4.85a2.51,2.51,0,0,1,4.34,0l2.28,4-1.13.66,3.16.84.84-3.16-1.13.66-2.29-4a4.5,4.5,0,0,0-7.8,0l-2.29,4,1.74,1ZM3.26,18.75a2.43,2.43,0,0,1,0-2.5l2.29-4,1.13.66L5.84,9.78l-3.16.85,1.13.65-2.29,4A4.5,4.5,0,0,0,5.42,22H10V20H5.42A2.43,2.43,0,0,1,3.26,18.75Zm19.22-3.5-2.29-4-1.74,1,2.29,4A2.5,2.5,0,0,1,18.58,20H14V18.69L11.69,21,14,23.31V22h4.58A4.5,4.5,0,0,0,22.48,15.25ZM11.74,16l2.47-4.59V10H9.74v1.38h3L10.14,16Z"/></svg>