<svg id="Layer_1" data-name="Layer 1" xmlns="http://www.w3.org/2000/svg" viewBox="0 0 24 24"><title>iconoteka_closed_caption_r_s</title><path d="M8.53,15h1.1a1.77,1.77,0,0,0,1.77-1.77v-.1h-.83v.1a.94.94,0,0,1-.94.94H8.53a1.1,1.1,0,0,1-1.1-1.1V10.93a1.1,1.1,0,0,1,1.1-1.1h1.1a.94.94,0,0,1,.94.94v.1h.83v-.1A1.77,1.77,0,0,0,9.63,9H8.53A1.92,1.92,0,0,0,6.6,10.93v2.14A1.92,1.92,0,0,0,8.53,15Zm6,0h1.1a1.77,1.77,0,0,0,1.77-1.77v-.1h-.83v.1a.94.94,0,0,1-.94.94h-1.1a1.1,1.1,0,0,1-1.1-1.1V10.93a1.1,1.1,0,0,1,1.1-1.1h1.1a.94.94,0,0,1,.94.94v.1h.83v-.1A1.77,1.77,0,0,0,15.63,9h-1.1a1.92,1.92,0,0,0-1.93,1.93v2.14A1.92,1.92,0,0,0,14.53,15ZM1,4V20H23V4ZM22,19H2V5H22Z"/></svg>