<svg id="Layer_1" data-name="Layer 1" xmlns="http://www.w3.org/2000/svg" viewBox="0 0 24 24"><title>iconoteka_plastic_ps_l_a</title><path d="M2,19.5a3.93,3.93,0,0,1,0-4L5.27,9.76l.58,2.14.48-.13L5.54,8.82l-3,.79.13.48,2.12-.57L1.52,15.25A4.5,4.5,0,0,0,5.42,22H9v-.5H5.42A4,4,0,0,1,2,19.5ZM15.46,4.1l3.32,5.75-2.14-.58-.13.49,2.95.79.79-3-.48-.13L19.2,9.58,15.9,3.85a4.5,4.5,0,0,0-7.8,0L6.31,7l.44.25L8.54,4.1a4,4,0,0,1,6.92,0Zm7,11.15-1.79-3.1-.44.25L22,15.5a4,4,0,0,1-3.46,6H12l1.56-1.57-.35-.35L11,21.74l2.16,2.16.36-.35L12,22h6.61A4.5,4.5,0,0,0,22.48,15.25ZM13.94,14a1.88,1.88,0,0,0-1.93-2,1.83,1.83,0,0,0-1.71,1.19c0-2.36,1.1-2.87,1.83-2.87a1.33,1.33,0,0,1,1.2.72l.43-.26a1.8,1.8,0,0,0-1.63-1c-1.14,0-2.35.82-2.35,3.1,0,2.46,1.17,3.14,2.21,3.14A2,2,0,0,0,13.94,14Zm-3.44.06A1.51,1.51,0,0,1,12,12.56,1.39,1.39,0,0,1,13.44,14a1.47,1.47,0,1,1-2.94.06Z"/></svg>