<svg id="Layer_1" data-name="Layer 1" xmlns="http://www.w3.org/2000/svg" viewBox="0 0 24 24"><defs><style>.cls-1{fill:none;}</style></defs><title>iconoteka_new_b_s</title><rect class="cls-1" width="24" height="24"/><path d="M0,4V20H24V4ZM22,18H2V6H22Z"/><polygon points="12.95 15 12.95 13.63 10.44 13.63 10.44 12.6 12.38 12.6 12.38 11.38 10.44 11.38 10.44 10.38 12.95 10.38 12.95 9 10.44 9 8.94 9 8.94 10.38 8.94 11.38 8.94 12.6 8.94 13.63 8.94 15 10.44 15 12.95 15"/><polygon points="4.58 11.65 6.35 15 7.85 15 7.85 9 6.35 9 6.35 12.31 4.58 9 3.08 9 3.08 15 4.58 15 4.58 11.65"/><polygon points="15.26 14.98 16.45 14.98 17.45 11.9 18.45 14.98 19.64 14.98 19.7 14.98 21.4 9 19.78 9 18.97 12.62 17.96 9 17.67 9 17.23 9 16.94 9 15.92 12.62 15.12 9 13.49 9 15.2 14.98 15.26 14.98"/></svg>