<svg id="Layer_1" data-name="Layer 1" xmlns="http://www.w3.org/2000/svg" viewBox="0 0 24 24"><title>iconoteka_gif_b_s</title><path d="M16.37,13.11h2.05V11.73H16.37V10.38h2.5V9h-4v6h1.5ZM13,9h-1.5v6H13ZM1,4V20H23V4ZM21,18H3V6H21ZM5.44,14a2.15,2.15,0,0,0,1.85,1.06h.45A2.13,2.13,0,0,0,9.58,14h0a2.17,2.17,0,0,0,.31-1.1V11.64H7.62v1.25h.83a.81.81,0,0,1-.74.86H7.32a.82.82,0,0,1-.75-.86V11.1a.82.82,0,0,1,.75-.86h.39a.77.77,0,0,1,.71.69l1.4-.39a2.16,2.16,0,0,0-2.08-1.6H7.29A2.16,2.16,0,0,0,5.13,11.1v1.8A2.12,2.12,0,0,0,5.44,14Z"/></svg>