<svg id="Layer_1" data-name="Layer 1" xmlns="http://www.w3.org/2000/svg" viewBox="0 0 24 24"><title>iconoteka_new_releases_m_s</title><path d="M21.17,9.86A4,4,0,0,1,20,7V4H17a4,4,0,0,1-2.83-1.17L12,.69,9.86,2.83A4,4,0,0,1,7,4H4V7A4,4,0,0,1,2.83,9.86L.69,12l2.14,2.14A4,4,0,0,1,4,17v3H7a4,4,0,0,1,2.83,1.17L12,23.31l2.14-2.14A4,4,0,0,1,17,20h3V17a4,4,0,0,1,1.17-2.83L23.31,12Zm-1.06,3.22A5.46,5.46,0,0,0,18.5,17V18.5H17a5.46,5.46,0,0,0-3.89,1.61L12,21.19l-1.08-1.08A5.46,5.46,0,0,0,7,18.5H5.5V17a5.46,5.46,0,0,0-1.61-3.89L2.81,12l1.08-1.08A5.46,5.46,0,0,0,5.5,7V5.5H7a5.46,5.46,0,0,0,3.89-1.61L12,2.81l1.08,1.08A5.46,5.46,0,0,0,17,5.5H18.5V7a5.46,5.46,0,0,0,1.61,3.89L21.19,12Zm-8.7-.58h1.18l.36-5h-1.9ZM12,14.19a.92.92,0,1,0,.92.92A.92.92,0,0,0,12,14.19Z"/></svg>