<svg id="Layer_1" data-name="Layer 1" xmlns="http://www.w3.org/2000/svg" viewBox="0 0 24 24"><title>iconoteka_hq__high_quality_l_f</title><path d="M1,4V20H23V4ZM11.29,15h-.5V12.24H7.29V15h-.5V9h.5v2.74h3.5V9h.5Zm6.14.63-.86-.85a1.81,1.81,0,0,1-.87.22h-1a1.89,1.89,0,0,1-1.89-1.89V10.89A1.89,1.89,0,0,1,14.68,9h1a1.89,1.89,0,0,1,1.89,1.89v2.22A1.84,1.84,0,0,1,17,14.46l.79.79Zm-.34-4.74A1.39,1.39,0,0,0,15.7,9.5h-1a1.39,1.39,0,0,0-1.39,1.39v2.22a1.39,1.39,0,0,0,1.39,1.39h1a1.39,1.39,0,0,0,1.39-1.39Z"/></svg>