<svg id="Layer_1" data-name="Layer 1" xmlns="http://www.w3.org/2000/svg" viewBox="0 0 24 24"><defs><style>.cls-1{fill:#231f20;}</style></defs><title>iconoteka_copyright_r_s</title><path class="cls-1" d="M12,2A10,10,0,1,0,22,12,10,10,0,0,0,12,2Zm0,19a9,9,0,1,1,9-9A9,9,0,0,1,12,21Zm.62-14H11.5a3.22,3.22,0,0,0-3.22,3.22v3.56A3.22,3.22,0,0,0,11.5,17h1.12a3.1,3.1,0,0,0,3.1-3.1v-.26h-1v.26a2.1,2.1,0,0,1-2.1,2.1H11.5a2.22,2.22,0,0,1-2.22-2.22V10.22A2.22,2.22,0,0,1,11.5,8h1.12a2.1,2.1,0,0,1,2.1,2.1v.26h1V10.1A3.1,3.1,0,0,0,12.62,7Z"/></svg>