<svg id="Layer_1" data-name="Layer 1" xmlns="http://www.w3.org/2000/svg" viewBox="0 0 24 24"><title>iconoteka_info_italic__more__details__information_about_m_s</title><path d="M12.49,8.68a.92.92,0,1,0-.92-.91A.92.92,0,0,0,12.49,8.68ZM12,2A10,10,0,1,0,22,12,10,10,0,0,0,12,2Zm0,18.5A8.5,8.5,0,1,1,20.5,12,8.51,8.51,0,0,1,12,20.5Zm.12-4.72a.17.17,0,0,1-.17,0,.18.18,0,0,1,0-.17l.77-3.27a1.55,1.55,0,0,0-1.84-1.88l-1.63.35L9.5,12.1l1.63-.35a.17.17,0,0,1,.18.05.16.16,0,0,1,0,.17l-.77,3.27A1.55,1.55,0,0,0,11,16.69a1.58,1.58,0,0,0,1.11.47,1.86,1.86,0,0,0,.33,0l1.64-.34-.28-1.34Z"/></svg>