<svg id="Layer_1" data-name="Layer 1" xmlns="http://www.w3.org/2000/svg" viewBox="0 0 24 24"><title>iconoteka_confirmation_number_l_s</title><path d="M0,5V19H24V5ZM23.5,18.5H.5V5.5h23ZM4.59,13.38A1.55,1.55,0,1,0,3,11.83,1.54,1.54,0,0,0,4.59,13.38Zm0-2.59a1,1,0,1,1-1,1A1,1,0,0,1,4.59,10.79Zm4.94,2.59A1.55,1.55,0,1,0,8,11.83,1.54,1.54,0,0,0,9.53,13.38Zm0-2.59a1,1,0,1,1-1,1A1,1,0,0,1,9.53,10.79Zm4.94,2.59a1.55,1.55,0,1,0-1.54-1.55A1.55,1.55,0,0,0,14.47,13.38Zm0-2.59a1,1,0,1,1-1,1A1,1,0,0,1,14.47,10.79Zm4.94,2.59a1.55,1.55,0,1,0-1.54-1.55A1.54,1.54,0,0,0,19.41,13.38Zm0-2.59a1,1,0,1,1-1,1A1,1,0,0,1,19.41,10.79Z"/></svg>