<svg id="Layer_1" data-name="Layer 1" xmlns="http://www.w3.org/2000/svg" viewBox="0 0 24 24"><title>iconoteka_plastic_pp_b_a</title><path d="M3.26,18.75a2.43,2.43,0,0,1,0-2.5l2.29-4,1.13.66L5.84,9.78l-3.16.85,1.13.65-2.29,4A4.5,4.5,0,0,0,5.42,22H10V20H5.42A2.43,2.43,0,0,1,3.26,18.75ZM9.83,4.85a2.51,2.51,0,0,1,4.34,0l2.28,4-1.13.66,3.16.84.84-3.16-1.13.66-2.29-4a4.5,4.5,0,0,0-7.8,0l-2.29,4,1.74,1Zm12.65,10.4-2.29-4-1.74,1,2.29,4A2.5,2.5,0,0,1,18.58,20H14V18.69L11.69,21,14,23.31V22h4.58A4.5,4.5,0,0,0,22.48,15.25Zm-8.22-1.34a1.86,1.86,0,0,0-2-1.9,2.12,2.12,0,0,0-1.21.37l.1-1.1H14V10H10l-.27,3.46H11a1.12,1.12,0,0,1,.92-.42.89.89,0,0,1,.91.93.88.88,0,0,1-1,.9,1,1,0,0,1-1-.68l-1.23.57a2.23,2.23,0,0,0,2.25,1.36A2.24,2.24,0,0,0,14.26,13.91Z"/></svg>