<svg id="Layer_1" data-name="Layer 1" xmlns="http://www.w3.org/2000/svg" viewBox="0 0 24 24"><defs><style>.cls-1{fill:none;}</style></defs><title>iconoteka_fiber_dvr_b_s</title><rect class="cls-1" width="24" height="24"/><path d="M0,4V20H24V4ZM22,18H2V6H22Z"/><polygon points="11.13 14.98 12.54 14.98 12.63 14.98 14.59 9 12.96 9 11.83 12.68 10.71 9 9.08 9 11.04 14.98 11.13 14.98"/><path d="M8.65,12.81V11.19A2.19,2.19,0,0,0,6.46,9H4v6H6.46A2.19,2.19,0,0,0,8.65,12.81Zm-3.13.89V10.3h.91a.82.82,0,0,1,.71.89v1.62a.82.82,0,0,1-.71.89Z"/><path d="M17,13h.64l1,2h1.86L19.2,12.76a2,2,0,0,0,1-1.69V11a2,2,0,0,0-2-2H15.52v6H17Zm0-2.73h1.16a.62.62,0,0,1,.56.66v.11a.61.61,0,0,1-.56.66H17Z"/></svg>