<svg id="Layer_1" data-name="Layer 1" xmlns="http://www.w3.org/2000/svg" viewBox="0 0 24 24"><title>iconoteka_closed_caption_b_f</title><path d="M2,4V20H22V4Zm6.89,9.76h.25a.81.81,0,0,0,.75-.85l1.4.32a2.16,2.16,0,0,1-2.13,1.83H8.87A2.16,2.16,0,0,1,6.71,12.9V11.1A2.16,2.16,0,0,1,8.87,8.94h.29a2.16,2.16,0,0,1,2.13,1.83l-1.4.32a.81.81,0,0,0-.75-.85H8.89a.81.81,0,0,0-.74.86v1.8A.81.81,0,0,0,8.89,13.76Zm6,0h.25a.81.81,0,0,0,.75-.85l1.4.32a2.16,2.16,0,0,1-2.13,1.83h-.29a2.16,2.16,0,0,1-2.16-2.16V11.1a2.16,2.16,0,0,1,2.16-2.16h.29a2.16,2.16,0,0,1,2.13,1.83l-1.4.32a.81.81,0,0,0-.75-.85h-.25a.81.81,0,0,0-.74.86v1.8A.81.81,0,0,0,14.89,13.76Z"/></svg>