<svg id="Layer_1" data-name="Layer 1" xmlns="http://www.w3.org/2000/svg" viewBox="0 0 24 24"><defs><style>.cls-1{fill:none;}</style></defs><title>iconoteka_hd_b_s</title><rect class="cls-1" width="24" height="24"/><path d="M2,4V20H22V4ZM20,18H4V6H20Z"/><polygon points="7.88 12.69 9.6 12.69 9.6 15 11.1 15 11.1 9 9.6 9 9.6 11.31 7.88 11.31 7.88 9 6.38 9 6.38 15 7.88 15 7.88 12.69"/><path d="M17.62,12.81V11.19A2.19,2.19,0,0,0,15.43,9H13v6h2.44A2.19,2.19,0,0,0,17.62,12.81Zm-3.13.89V10.3h.91a.82.82,0,0,1,.71.89v1.62a.82.82,0,0,1-.71.89Z"/></svg>