<svg id="Layer_1" data-name="Layer 1" xmlns="http://www.w3.org/2000/svg" viewBox="0 0 24 24"><title>iconoteka_info_italic__more__details__information_about_m_f</title><path d="M12,2A10,10,0,1,0,22,12,10,10,0,0,0,12,2Zm.49,4.85a.92.92,0,1,1-.92.92A.92.92,0,0,1,12.49,6.85Zm-.08,10.27a1.86,1.86,0,0,1-.33,0A1.58,1.58,0,0,1,11,16.69a1.55,1.55,0,0,1-.39-1.45L11.35,12a.16.16,0,0,0,0-.17.17.17,0,0,0-.18-.05L9.5,12.1l-.29-1.34,1.63-.35a1.55,1.55,0,0,1,1.84,1.88l-.77,3.27a.18.18,0,0,0,0,.17.17.17,0,0,0,.17,0l1.65-.34.28,1.34Z"/></svg>