<svg id="Layer_1" data-name="Layer 1" xmlns="http://www.w3.org/2000/svg" viewBox="0 0 24 24"><title>iconoteka_gif__graphics_interchange_format_l_s</title><path d="M12.56,9h-.5v6h.5Zm2.54,3.49h3.23V12H15.1V9.5h3.51V9h-4v6h.5ZM7.49,15H8.7a1.71,1.71,0,0,0,1.71-1.7V11.94H8.23v.51H9.91v.85A1.21,1.21,0,0,1,8.7,14.5H7.49A1.39,1.39,0,0,1,6.1,13.11V10.89A1.39,1.39,0,0,1,7.49,9.5H8.7a1.21,1.21,0,0,1,1.21,1.2h.5A1.71,1.71,0,0,0,8.7,9H7.49A1.89,1.89,0,0,0,5.6,10.89v2.22A1.89,1.89,0,0,0,7.49,15ZM1,4V20H23V4ZM22.5,19.5H1.5V4.5h21Z"/></svg>