<svg id="Layer_1" data-name="Layer 1" xmlns="http://www.w3.org/2000/svg" viewBox="0 0 24 24"><title>iconoteka_plastic_pvc_b_a</title><path d="M3.26,18.75a2.43,2.43,0,0,1,0-2.5l2.29-4,1.13.66L5.84,9.78l-3.16.85,1.13.65-2.29,4A4.5,4.5,0,0,0,5.42,22H10V20H5.42A2.43,2.43,0,0,1,3.26,18.75ZM9.83,4.85a2.51,2.51,0,0,1,4.34,0l2.28,4-1.13.66,3.16.84.84-3.16-1.13.66-2.29-4a4.5,4.5,0,0,0-7.8,0l-2.29,4,1.74,1Zm12.65,10.4-2.29-4-1.74,1,2.29,4A2.5,2.5,0,0,1,18.58,20H14V18.69L11.69,21,14,23.31V22h4.58A4.5,4.5,0,0,0,22.48,15.25Zm-8.1-.92a1.61,1.61,0,0,0-1.17-1.46,1.43,1.43,0,0,0,.95-1.35c0-1-1-1.64-2.23-1.64a2.28,2.28,0,0,0-2.2,1.23l1.17.46a1.09,1.09,0,0,1,1-.57.73.73,0,1,1,0,1.44h-.53v1H12c.62,0,1,.34,1,.78A.93.93,0,0,1,12,15a1.41,1.41,0,0,1-1.31-.73l-1.05.48A2.26,2.26,0,0,0,12,16.12C13.35,16.12,14.38,15.44,14.38,14.33Z"/></svg>