<svg id="Layer_1" data-name="Layer 1" xmlns="http://www.w3.org/2000/svg" viewBox="0 0 24 24"><title>iconoteka_new_releases_r_s</title><path d="M21.17,9.86A4,4,0,0,1,20,7V4H17a4,4,0,0,1-2.83-1.17L12,.69,9.86,2.83A4,4,0,0,1,7,4H4V7A4,4,0,0,1,2.83,9.86L.69,12l2.14,2.14A4,4,0,0,1,4,17v3H7a4,4,0,0,1,2.83,1.17L12,23.31l2.14-2.14A4,4,0,0,1,17,20h3V17a4,4,0,0,1,1.17-2.83L23.31,12Zm-.71,3.57A5,5,0,0,0,19,17v2H17a5,5,0,0,0-3.54,1.46L12,21.9l-1.43-1.44A5,5,0,0,0,7,19H5V17a5,5,0,0,0-1.46-3.54L2.1,12l1.44-1.43A5,5,0,0,0,5,7V5H7a5,5,0,0,0,3.54-1.46L12,2.1l1.43,1.44A5,5,0,0,0,17,5h2V7a5,5,0,0,0,1.46,3.54L21.9,12Zm-8-.93.25-5H11.33l.25,5Zm-.42,2a.68.68,0,1,0,.68.68A.67.67,0,0,0,12,14.54Z"/></svg>