<svg id="Hot_2" data-name="Hot 2" xmlns="http://www.w3.org/2000/svg" viewBox="0 0 24 24"><title>iconoteka_bicycle_m_a</title><path d="M19,10a4.87,4.87,0,0,0-.55.06l-1.87-7H13.26a.75.75,0,0,0,0,1.5h2.17l.73,2.7H7.59L7.2,5.84l1.47-.7V4.5H4.55a.75.75,0,0,0,0,1.5H5.69l.47,1.76-.61,2.3A4.87,4.87,0,0,0,5,10a5,5,0,1,0,4.92,5.75h2.26l1.87-7h2.51L17,10.42A5,5,0,1,0,19,10ZM5,18.5a3.5,3.5,0,0,1,0-7l.16,0-.88,3.29a.75.75,0,0,0,.72.94H8.41A3.5,3.5,0,0,1,5,18.5Zm1.6-6.59a3.47,3.47,0,0,1,1.81,2.34H6ZM11,14.25H9.92A5,5,0,0,0,7,10.42l.44-1.64h5.05Zm8,4.25A3.5,3.5,0,0,1,15.5,15a3.47,3.47,0,0,1,1.9-3.09l.88,3.28a.74.74,0,0,0,.72.56.63.63,0,0,0,.19,0,.74.74,0,0,0,.53-.91l-.88-3.29.16,0a3.5,3.5,0,0,1,0,7Z"/></svg>