<svg id="Hot_2" data-name="Hot 2" xmlns="http://www.w3.org/2000/svg" viewBox="0 0 24 24"><title>iconoteka_baby_carriage__buggy__stroller__child_friendly_r_s</title><path d="M15.5,2H14V8H5.15L4.34,5H2V6H3.59l1.62,6a4,4,0,0,0,3.86,3H15.5a6.5,6.5,0,0,0,0-13Zm0,12H9.07a3,3,0,0,1-2.9-2.22L5.43,9H15V3h.5a5.5,5.5,0,0,1,0,11Zm-7,3A2.5,2.5,0,1,0,11,19.5,2.5,2.5,0,0,0,8.5,17Zm0,4A1.5,1.5,0,1,1,10,19.5,1.5,1.5,0,0,1,8.5,21Zm9-4A2.5,2.5,0,1,0,20,19.5,2.5,2.5,0,0,0,17.5,17Zm0,4A1.5,1.5,0,1,1,19,19.5,1.5,1.5,0,0,1,17.5,21Z"/></svg>