<svg id="Hot_2" data-name="Hot 2" xmlns="http://www.w3.org/2000/svg" viewBox="0 0 24 24"><defs><style>.cls-1{fill:none;}</style></defs><title>iconoteka_car_wash_b_s</title><rect class="cls-1" width="24" height="24"/><path d="M21.47,13H20l-.91-3.52A2,2,0,0,0,17.14,8H6.86A2,2,0,0,0,4.93,9.48L4,12.82V13H2.53a.53.53,0,0,0-.53.53V14a.69.69,0,0,0,.51.66L4,15v4H4v3.34a.67.67,0,0,0,.66.66h.68A.67.67,0,0,0,6,22.34V21H18v1.34a.67.67,0,0,0,.66.66h.68a.67.67,0,0,0,.66-.66V15l1.49-.4A.69.69,0,0,0,22,14v-.44A.53.53,0,0,0,21.47,13Zm-4.33-3,.8,3H6.06l.8-3ZM6,19V15H18v4Z"/><path d="M8,16.15a.85.85,0,1,0,.85.85A.85.85,0,0,0,8,16.15Z"/><path d="M16,16.15a.85.85,0,1,0,.85.85A.85.85,0,0,0,16,16.15Z"/><path d="M12,6a1.36,1.36,0,0,0,1.36-1.36A9.3,9.3,0,0,0,12,1.4a9.3,9.3,0,0,0-1.36,3.24A1.36,1.36,0,0,0,12,6Z"/><path d="M6,6A1.36,1.36,0,0,0,7.36,4.64,9.3,9.3,0,0,0,6,1.4,9.3,9.3,0,0,0,4.64,4.64,1.36,1.36,0,0,0,6,6Z"/><path d="M18,6a1.36,1.36,0,0,0,1.36-1.36A9.3,9.3,0,0,0,18,1.4a9.3,9.3,0,0,0-1.36,3.24A1.36,1.36,0,0,0,18,6Z"/></svg>