<svg id="Hot_2" data-name="Hot 2" xmlns="http://www.w3.org/2000/svg" viewBox="0 0 24 24"><title>iconoteka_bicycle_b_a</title><path d="M19,10l-.3,0L16.82,3H13.39a1,1,0,0,0,0,2h1.89l.55,2h-8L7.43,5.74,9,4.86V4H4.39a1,1,0,1,0,0,2h1L5.9,7.76,5.3,10,5,10a5,5,0,1,0,4.9,6h2.47l1.87-7h2.13l.4,1.52A5,5,0,1,0,19,10ZM7.82,14H6.3l.4-1.47A3.1,3.1,0,0,1,7.82,14ZM5,18a3,3,0,0,1-.24-6L4,14.74A1,1,0,0,0,5,16H7.82A3,3,0,0,1,5,18Zm5.84-4H9.9a5,5,0,0,0-2.67-3.45L7.63,9h4.54ZM19,18a3,3,0,0,1-1.7-5.47L18,15.26A1,1,0,0,0,19,16l.26,0A1,1,0,0,0,20,14.74L19.24,12A3,3,0,0,1,19,18Z"/></svg>