<svg id="Hot_2" data-name="Hot 2" xmlns="http://www.w3.org/2000/svg" viewBox="0 0 24 24"><defs><style>.cls-1{fill:none;}</style></defs><title>iconoteka_truck_b_s</title><path d="M24,14,23,9.87A2.5,2.5,0,0,0,20.53,8H17a2,2,0,0,0-2-2H0V21H3.18a3,3,0,0,0,5.64,0h6.36a3,3,0,0,0,5.64,0H24Zm-3.47-4a.48.48,0,0,1,.48.37L21.7,13H17V10ZM2,8H15V19H8.82a3,3,0,0,0-5.64,0H2ZM6,21a1,1,0,1,1,1-1A1,1,0,0,1,6,21Zm12,0a1,1,0,1,1,1-1A1,1,0,0,1,18,21Zm2.82-2A3,3,0,0,0,17,17.18V15h5v4Z"/><rect class="cls-1" width="24" height="24"/></svg>