<svg id="Hot_2" data-name="Hot 2" xmlns="http://www.w3.org/2000/svg" viewBox="0 0 24 24"><defs><style>.cls-1{fill:none;}</style></defs><title>iconoteka_satellite_b_s</title><rect class="cls-1" width="24" height="24"/><path d="M17.53,4,16,5.53V4a2,2,0,0,0-2-2H10A2,2,0,0,0,8,4V5.53L6.47,4H0v7H6.47L8,9.47V11a2,2,0,0,0,2,2h4a2,2,0,0,0,2-2V9.47L17.53,11H24V4ZM5.64,9H2V6H5.64l1.5,1.5ZM10,11V4h4v7ZM22,9H18.36l-1.5-1.5L18.36,6H22Z"/><path d="M5.62,18.38,4.2,19.8a11.06,11.06,0,0,0,15.6,0l-1.42-1.42A9,9,0,0,1,5.62,18.38Z"/><path d="M16.27,16.27l-1.41-1.41a4.06,4.06,0,0,1-5.72,0L7.73,16.27a6,6,0,0,0,8.54,0Z"/></svg>