<svg id="Hot_2" data-name="Hot 2" xmlns="http://www.w3.org/2000/svg" viewBox="0 0 24 24"><title>iconoteka_airplane__mode_off_l_s</title><path d="M17.74,6.61,20,4.35l2.26,2.26.35-.35L20.35,4l2.26-2.26-.35-.35L20,3.65,17.74,1.39l-.35.35L19.65,4,17.39,6.26ZM21,10H15.24L11.12,2H7.69l2.14,8H5.67L3.93,7H1l1.34,5L1,17H3.93l1.74-3H9.83L7.69,22h3.43l4.12-8H21a2,2,0,0,0,0-4Zm0,3.5H14.93l-.14.27-4,7.73H8.34l2-7.37.17-.63H5.38l-.15.25L3.64,16.5h-2l1.17-4.37,0-.13,0-.13L1.65,7.5h2l1.59,2.75.15.25h5.11l-.17-.63-2-7.37h2.48l4,7.73.14.27H21a1.5,1.5,0,0,1,0,3Z"/></svg>