<svg id="Hot_2" data-name="Hot 2" xmlns="http://www.w3.org/2000/svg" viewBox="0 0 24 24"><defs><style>.cls-1{fill:none;}</style></defs><title>iconoteka_bus_shuttle_b_s</title><rect class="cls-1" width="24" height="24"/><rect class="cls-1" x="20" width="24" height="24"/><path d="M11,6H3A3,3,0,0,0,0,9V22.34A.67.67,0,0,0,.66,23h.68A.67.67,0,0,0,2,22.34V21H12v1.34a.67.67,0,0,0,.66.66h.68a.67.67,0,0,0,.66-.66V9A3,3,0,0,0,11,6ZM3,8h8a1,1,0,0,1,1,1v4H2V9A1,1,0,0,1,3,8ZM2,19V15H12v4Z"/><path d="M4,16.15a.85.85,0,1,0,.85.85A.85.85,0,0,0,4,16.15Z"/><path d="M10,16.15a.85.85,0,1,0,.85.85A.85.85,0,0,0,10,16.15Z"/><polygon points="20 4 22 4 19 1 16 4 18 4 18 8 16 8 19 11 22 8 20 8 20 4"/></svg>