<svg id="Hot_2" data-name="Hot 2" xmlns="http://www.w3.org/2000/svg" viewBox="0 0 24 24"><defs><style>.cls-1{fill:none;}</style></defs><title>iconoteka_flight_land_b_s</title><rect class="cls-1" width="24" height="24"/><path d="M19.94,17.05a3,3,0,0,0,2.9-2.22,3,3,0,0,0-.3-2.28,3,3,0,0,0-1.82-1.4L15.54,9.76,13.76,3.08,9,1.8V8L7.24,7.54l-.6-2.23L2.15,4.11v8.28l17,4.56A3,3,0,0,0,19.94,17.05ZM4.15,6.71,5,6.94l.6,2.23L11,10.61V4.41l1.13.3,1.79,6.69,6.29,1.68a1,1,0,0,1,.61.47,1,1,0,0,1,.1.76,1,1,0,0,1-1.23.71L4.15,10.85Z"/><rect y="19" width="24" height="2"/></svg>