<svg id="Hot_2" data-name="Hot 2" xmlns="http://www.w3.org/2000/svg" viewBox="0 0 24 24"><defs><style>.cls-1{fill:none;}</style></defs><title>iconoteka_rollerblade_b_s</title><rect class="cls-1" width="24" height="24"/><path d="M21.23,15.27l.38-1.41a3,3,0,0,0-2.13-3.67L14,8.73V2H10.85a3,3,0,0,0-2.16.91L7.64,4H3v9.29a3.66,3.66,0,0,0,.63,2.06A3,3,0,0,0,2,18a3,3,0,0,0,5.5,1.65,3,3,0,0,0,5,0,3,3,0,0,0,5,0,3,3,0,1,0,3.73-4.38ZM5,6H8.49l1.64-1.7a1,1,0,0,1,.72-.3H12v6.27l7,1.85a1,1,0,0,1,.61.47,1,1,0,0,1,.1.76L19.23,15H6.71A1.72,1.72,0,0,1,5,13.29ZM5,19a1,1,0,1,1,1-1A1,1,0,0,1,5,19Zm5,0a1,1,0,1,1,1-1A1,1,0,0,1,10,19Zm5,0a1,1,0,1,1,1-1A1,1,0,0,1,15,19Zm5,0a1,1,0,1,1,1-1A1,1,0,0,1,20,19Z"/></svg>