<svg id="Hot_2" data-name="Hot 2" xmlns="http://www.w3.org/2000/svg" viewBox="0 0 24 24"><defs><style>.cls-1{fill:none;}</style></defs><title>iconoteka_motorcycle_b_s</title><path d="M19,11l-.3,0L16.82,4H13.39a1,1,0,0,0,0,2h1.9l.26,1H13.11A4,4,0,0,0,9.65,9H4v2.1A5,5,0,1,0,9.9,17h4.2A5,5,0,1,0,19,11ZM5,19a3,3,0,1,1,2.82-4H4v2H7.82A3,3,0,0,1,5,19Zm9.1-4H9.9A5,5,0,0,0,6,11.1V11h4.8l.58-1a2,2,0,0,1,1.73-1h3l.68,2.55A5,5,0,0,0,14.1,15ZM19,19a3,3,0,0,1-1.7-5.47L18,16.26h0A1,1,0,0,0,20,16a1,1,0,0,0-.05-.25h0L19.24,13A3,3,0,0,1,19,19Z"/><path d="M20.54,9.25H21V6.75h-.46a1.25,1.25,0,0,0,0,2.5Z"/><rect class="cls-1" width="24" height="24"/></svg>