<svg id="Hot_2" data-name="Hot 2" xmlns="http://www.w3.org/2000/svg" viewBox="0 0 24 24"><defs><style>.cls-1{fill:none;}</style></defs><title>iconoteka_child_friendly_b_s</title><rect class="cls-1" width="24" height="24"/><path d="M9,17a3,3,0,1,0,3,3A3,3,0,0,0,9,17Zm0,4a1,1,0,1,1,1-1A1,1,0,0,1,9,21Z"/><path d="M17,17a3,3,0,1,0,3,3A3,3,0,0,0,17,17Zm0,4a1,1,0,1,1,1-1A1,1,0,0,1,17,21Z"/><path d="M11.2,16H15A7,7,0,0,0,15,2H14V8H5.77L5,5H2.25a1,1,0,0,0,0,2h1.2L4,9.25H4l.39,1.51A7,7,0,0,0,11.2,16Zm8.69-8H16V4.1A5,5,0,0,1,19.89,8Zm0,2A5,5,0,0,1,15,14H11.2a5,5,0,0,1-4.84-3.74L6.29,10Z"/></svg>