<svg id="Hot_2" data-name="Hot 2" xmlns="http://www.w3.org/2000/svg" viewBox="0 0 24 24"><defs><style>.cls-1{fill:none;}</style></defs><title>iconoteka_bicycle_b_s</title><path d="M19,11l-.3,0L16.82,4H13.38a1,1,0,0,0,0,2h1.89l.55,2h-8L7.43,6.74,9,5.86V5H4.39a1,1,0,1,0,0,2h1L5.9,8.76,5.3,11,5,11a5,5,0,1,0,4.9,6h2.47l1.87-7h2.13l.4,1.52A5,5,0,1,0,19,11ZM7.82,15H6.3l.4-1.47A3.1,3.1,0,0,1,7.82,15ZM5,19a3,3,0,0,1-.24-6L4,15.74h0A.94.94,0,0,0,5,17H7.82A3,3,0,0,1,5,19Zm5.84-4H9.9a5,5,0,0,0-2.67-3.45L7.63,10h4.54ZM19,19a3,3,0,0,1-1.7-5.47L18,16.26h0A1,1,0,0,0,20,16a1,1,0,0,0-.05-.25h0L19.24,13A3,3,0,0,1,19,19Z"/><rect class="cls-1" width="24" height="24"/></svg>