<svg id="Hot_2" data-name="Hot 2" xmlns="http://www.w3.org/2000/svg" viewBox="0 0 24 24"><defs><style>.cls-1{fill:none;}</style></defs><title>iconoteka_automobile_van_b_s</title><path d="M24,12.73,21.56,8.5A3,3,0,0,0,19,7H0V19l3.12.84a3,3,0,0,0,5.7.2h6.36a3,3,0,0,0,5.7-.2L24,19ZM19,9a1,1,0,0,1,.86.5L21.27,12H2V9ZM6,20a1,1,0,1,1,1-1A1,1,0,0,1,6,20Zm12,0a1,1,0,1,1,1-1A1,1,0,0,1,18,20Zm2.73-2.23a3,3,0,0,0-5.55.23H8.82a3,3,0,0,0-5.55-.23L2,17.43V14H22v3.43Z"/><rect class="cls-1" width="24" height="24"/></svg>