<svg id="Hot_2" data-name="Hot 2" xmlns="http://www.w3.org/2000/svg" viewBox="0 0 24 24"><defs><style>.cls-1{fill:none;}</style></defs><title>iconoteka_airplane__mode_off_b_s</title><polygon points="18.6 6.6 20.5 4.7 22.4 6.6 23.6 5.4 21.7 3.5 23.6 1.6 22.4 0.4 20.5 2.3 18.6 0.4 17.4 1.6 19.3 3.5 17.4 5.4 18.6 6.6"/><path d="M21,8.84H16.11l-4.19-8H6.75l2.14,8H6.51l-1.74-3H0l1.61,6L0,17.84H4.77l1.74-3H8.89l-2.14,8h5.17l4.19-8H21a3,3,0,0,0,0-6Zm0,4H14.89l-4.18,8H9.36l2.14-8H5.36l-1.74,3h-1l1.07-4-1.07-4h1l1.74,3H11.5l-2.14-8h1.35l4.18,8H21a1,1,0,0,1,0,2Z"/><rect class="cls-1" width="24" height="24"/></svg>