<svg id="Hot_2" data-name="Hot 2" xmlns="http://www.w3.org/2000/svg" viewBox="0 0 24 24"><title>iconoteka_airplane__mode_off_m_s</title><path d="M18.06,6.93,20,5l1.94,1.94,1-1L21,4l1.94-1.94-1-1L20,3,18.06,1.07l-1,1L19,4,17.07,5.94Zm2.78,1.91H16.11l-4.19-8H6.75l2.14,8H6.51l-1.74-3H-.15l1.61,6-1.61,6H4.77l1.74-3H8.89l-2.14,8h5.17l4.19-8h4.73a3,3,0,0,0,0-6Zm0,4.5H15.2l-.42.81L11,21.34H8.7l1.64-6.11.51-1.89H5.65l-.43.75L3.91,16.34H1.81l1.1-4.11.1-.39-.1-.38L1.81,7.34h2.1L5.22,9.6l.43.74h5.2l-.51-1.88L8.7,2.34H11l3.77,7.2.42.8h5.64a1.5,1.5,0,0,1,0,3Z"/></svg>