<svg id="Hot_2" data-name="Hot 2" xmlns="http://www.w3.org/2000/svg" viewBox="0 0 24 24"><defs><style>.cls-1{fill:none;}</style></defs><title>iconoteka_skateboard_b_s</title><rect class="cls-1" width="24" height="24"/><path d="M23.74,9.89a1,1,0,0,0-1.36-.37l-2,1.15a2.38,2.38,0,0,1-1.22.33h-14A2.38,2.38,0,0,1,4,10.67L2,9.52a1,1,0,0,0-1.37.37A1,1,0,0,0,1,11.25L3,12.4A3.83,3.83,0,0,0,5,13H5v.18A3,3,0,1,0,9,16a3,3,0,0,0-1.21-2.39L9,13h6l1.21.61A3,3,0,0,0,15,16a3,3,0,1,0,4-2.82V13h.16a4.43,4.43,0,0,0,2.22-.6l2-1.15A1,1,0,0,0,23.74,9.89ZM6,17a1,1,0,1,1,1-1A1,1,0,0,1,6,17Zm12,0a1,1,0,1,1,1-1A1,1,0,0,1,18,17Z"/></svg>