<svg id="Hot_2" data-name="Hot 2" xmlns="http://www.w3.org/2000/svg" viewBox="0 0 24 24"><defs><style>.cls-1{fill:none;}</style></defs><title>iconoteka_taxi_front_b_s</title><path d="M22.4,11H20.74l-1-3.78A3,3,0,0,0,16.86,5H15l-.8-3H9.83L9,5H7.14A3,3,0,0,0,4.25,7.22L3.23,11H1.6a.6.6,0,0,0-.6.6v.48a.78.78,0,0,0,.57.75L3,13.22,3,18H3v3.34a.67.67,0,0,0,.66.66h.68A.67.67,0,0,0,5,21.34V20H19v1.34a.67.67,0,0,0,.66.66h.68a.67.67,0,0,0,.66-.66V13.21l1.43-.38a.78.78,0,0,0,.57-.75V11.6A.6.6,0,0,0,22.4,11Zm-11-7h1.28l.27,1H11.09ZM7.14,7h9.72a1,1,0,0,1,1,.74L18.7,11H5.3l.88-3.26A1,1,0,0,1,7.14,7ZM5,18V13H19v5Z"/><path d="M16.2,14.4a1.1,1.1,0,1,0,1.1,1.1A1.1,1.1,0,0,0,16.2,14.4Z"/><path d="M7.8,14.4a1.1,1.1,0,1,0,1.1,1.1A1.1,1.1,0,0,0,7.8,14.4Z"/><rect class="cls-1" width="24" height="24"/></svg>