<svg id="Hot_2" data-name="Hot 2" xmlns="http://www.w3.org/2000/svg" viewBox="0 0 24 24"><defs><style>.cls-1{fill:none;}</style></defs><title>iconoteka_automobile_electric_b_s</title><rect class="cls-1" width="24" height="24"/><path d="M19.15,12.12,17.06,8.5A3,3,0,0,0,14.46,7H4.73L3.39,12H0v7l3.12.84a3,3,0,0,0,5.7.2h6.36a3,3,0,0,0,5.7-.2L24,19V13.2ZM6.27,9h8.19a1,1,0,0,1,.86.5L16.77,12H5.46ZM6,20a1,1,0,1,1,1-1A1,1,0,0,1,6,20Zm12,0a1,1,0,1,1,1-1A1,1,0,0,1,18,20Zm4-2.57-1.27.34a3,3,0,0,0-5.55.23H8.82a3,3,0,0,0-5.55-.23L2,17.43V14H18.39l3.61.8Z"/><polygon points="20 9 23 4 20 4 20 1 17 6 20 6 20 9"/></svg>