<svg id="Hot_2" data-name="Hot 2" xmlns="http://www.w3.org/2000/svg" viewBox="0 0 24 24"><defs><style>.cls-1{fill:none;}</style></defs><title>iconoteka_automobile_convertable_b_s</title><path d="M24,13.17,18.13,12.1,15.74,8H13.43l2.33,4H0v7l3.12.84a3,3,0,0,0,5.7.2h6.36a3,3,0,0,0,5.7-.2L24,19ZM6,20a1,1,0,1,1,1-1A1,1,0,0,1,6,20Zm12,0a1,1,0,1,1,1-1A1,1,0,0,1,18,20Zm4-2.57-1.27.34a3,3,0,0,0-5.55.23H8.82a3,3,0,0,0-5.55-.23L2,17.43V14H17.41l4.59.83Z"/><rect class="cls-1" width="24" height="24"/></svg>