<svg id="Hot_2" data-name="Hot 2" xmlns="http://www.w3.org/2000/svg" viewBox="0 0 24 24"><defs><style>.cls-1{fill:none;}</style></defs><title>iconoteka_directions_boat_b_s</title><rect class="cls-1" width="24" height="24"/><path d="M22.63,18A4.56,4.56,0,0,0,21,17.16V14a3,3,0,0,0-2-2.83h0V5H13V3H11V5H5v6.12H5A3,3,0,0,0,3,14v3.21A4.56,4.56,0,0,0,1.37,18,2.13,2.13,0,0,1,0,18.58v2a4.16,4.16,0,0,0,2.63-1A2.21,2.21,0,0,1,4,19h.1a2.21,2.21,0,0,1,1.32.57,3.93,3.93,0,0,0,5.26,0A2.21,2.21,0,0,1,12,19h.1a2.21,2.21,0,0,1,1.32.57,3.93,3.93,0,0,0,5.26,0A2.21,2.21,0,0,1,20,19h.1a2.21,2.21,0,0,1,1.32.57,4.16,4.16,0,0,0,2.63,1v-2A2.13,2.13,0,0,1,22.63,18ZM7,7H17v3.4L12,8.6,7,10.4ZM9.37,18a1.91,1.91,0,0,1-2.74,0A4.56,4.56,0,0,0,5,17.16V14A1,1,0,0,1,5.66,13L11,11.09v6.07A4.56,4.56,0,0,0,9.37,18Zm8,0a1.91,1.91,0,0,1-2.74,0A4.56,4.56,0,0,0,13,17.16V11.09L18.34,13A1,1,0,0,1,19,14v3.21A4.56,4.56,0,0,0,17.37,18Z"/></svg>