<svg id="Hot_2" data-name="Hot 2" xmlns="http://www.w3.org/2000/svg" viewBox="0 0 24 24"><defs><style>.cls-1{fill:none;}</style></defs><title>iconoteka_train__front_directions_transit_b_s</title><path d="M16,3H8A4,4,0,0,0,4,7V18a3,3,0,0,0,3,3H8.15L6.42,24H8.73l1.73-3h3.08l1.73,3h2.31l-1.73-3H17a3,3,0,0,0,3-3V7A4,4,0,0,0,16,3ZM8,5h8a2,2,0,0,1,2,2v5H6V7A2,2,0,0,1,8,5Zm9,14H7a1,1,0,0,1-1-1V14H18v4A1,1,0,0,1,17,19Z"/><path d="M15.2,15.4a1.1,1.1,0,1,0,1.1,1.1A1.1,1.1,0,0,0,15.2,15.4Z"/><path d="M8.8,15.4a1.1,1.1,0,1,0,1.1,1.1A1.1,1.1,0,0,0,8.8,15.4Z"/><rect class="cls-1" width="24" height="24"/></svg>