<svg id="Hot_2" data-name="Hot 2" xmlns="http://www.w3.org/2000/svg" viewBox="0 0 24 24"><defs><style>.cls-1{fill:none;}</style></defs><title>iconoteka_trolleybus_front_b_s</title><path d="M17,3H15.27L17,0H14.69L13,3H10.27L12,0H9.69L8,3H7A4,4,0,0,0,3,7V22.34a.67.67,0,0,0,.66.66h.68A.67.67,0,0,0,5,22.34V21H19v1.34a.67.67,0,0,0,.66.66h.68a.67.67,0,0,0,.66-.66V7A4,4,0,0,0,17,3ZM7,5H17a2,2,0,0,1,2,2v5H5V7A2,2,0,0,1,7,5ZM5,19V14H19v5Z"/><path d="M16.2,15.4a1.1,1.1,0,1,0,1.1,1.1A1.1,1.1,0,0,0,16.2,15.4Z"/><path d="M7.8,15.4a1.1,1.1,0,1,0,1.1,1.1A1.1,1.1,0,0,0,7.8,15.4Z"/><rect class="cls-1" width="24" height="24"/></svg>