<svg id="Hot_2" data-name="Hot 2" xmlns="http://www.w3.org/2000/svg" viewBox="0 0 24 24"><defs><style>.cls-1{fill:none;}</style></defs><title>iconoteka_subway_front__directions_subway_b_s</title><path d="M18,17.3V10.5A3.5,3.5,0,0,0,14.5,7h-5A3.5,3.5,0,0,0,6,10.5v6.8A2.7,2.7,0,0,0,8.58,20L7.42,22H9.73l1.15-2h2.24l1.15,2h2.31l-1.16-2A2.7,2.7,0,0,0,18,17.3ZM9.5,9h5A1.5,1.5,0,0,1,16,10.5V12H8V10.5A1.5,1.5,0,0,1,9.5,9Zm5.8,9H8.7a.7.7,0,0,1-.7-.7V14h8v3.3A.7.7,0,0,1,15.3,18Z"/><path d="M14.15,15.15A.85.85,0,1,0,15,16,.85.85,0,0,0,14.15,15.15Z"/><path d="M9.85,15.15a.85.85,0,1,0,.85.85A.85.85,0,0,0,9.85,15.15Z"/><path d="M12,2A12,12,0,0,0,3.08,22H6A10,10,0,1,1,18,22h3A12,12,0,0,0,12,2Z"/><rect class="cls-1" width="24" height="24"/></svg>