<svg id="Hot_2" data-name="Hot 2" xmlns="http://www.w3.org/2000/svg" viewBox="0 0 24 24"><defs><style>.cls-1{fill:none;}</style></defs><title>iconoteka_bus_double_decker_b_s</title><path d="M24,14,21.68,5.22A3,3,0,0,0,18.79,3H0V21H3.18a3,3,0,0,0,5.64,0h6.36a3,3,0,0,0,5.64,0H24Zm-2.3-1H2V9.88H20.86ZM18.79,5a1,1,0,0,1,1,.74l.57,2.14H2V5ZM6,21a1,1,0,1,1,1-1A1,1,0,0,1,6,21Zm12,0a1,1,0,1,1,1-1A1,1,0,0,1,18,21Zm2.82-2a3,3,0,0,0-5.64,0H8.82a3,3,0,0,0-5.64,0H2V15H22v4Z"/><rect class="cls-1" width="24" height="24"/></svg>