<svg id="Hot_2" data-name="Hot 2" xmlns="http://www.w3.org/2000/svg" viewBox="0 0 24 24"><title>iconoteka_bicycle_l_a</title><path d="M19,10a5.19,5.19,0,0,0-1.05.11L16.11,3.25H13a.25.25,0,0,0-.25.25.26.26,0,0,0,.25.25h2.71l1.08,4H7.2L6.72,6,8,5.71V5.5H4.89a.25.25,0,0,0,0,.5H6.21l.48,1.78h0l-.62,2.33A5.19,5.19,0,0,0,5,10a5,5,0,1,0,5,5.25H11.8l1.86-7h3.28l.53,2A4.95,4.95,0,1,0,19,10ZM5,19.5a4.5,4.5,0,0,1,0-9,4,4,0,0,1,.92.1L4.76,14.94a.24.24,0,0,0,.24.31H9.47A4.49,4.49,0,0,1,5,19.5Zm1.4-8.76a4.47,4.47,0,0,1,3.07,4H5.33Zm5,4H10a5,5,0,0,0-3.44-4.49l.53-2h6.09ZM19,19.5a4.49,4.49,0,0,1-1.4-8.76l1.16,4.32a.24.24,0,0,0,.24.19h.06a.24.24,0,0,0,.18-.3L18.08,10.6a4,4,0,0,1,.92-.1,4.5,4.5,0,0,1,0,9Z"/></svg>