<svg id="Hot_2" data-name="Hot 2" xmlns="http://www.w3.org/2000/svg" viewBox="0 0 24 24"><defs><style>.cls-1{fill:none;}</style></defs><title>iconoteka_automobile_sports_b_s</title><path d="M24,14.23,17.9,12.6,12.46,9.4A3,3,0,0,0,11,9H6.59l-3.8,3.79L1,11H0v8l3.12.84a3,3,0,0,0,5.7.2h6.36a3,3,0,0,0,5.7-.2L24,19ZM7.41,11H11a.91.91,0,0,1,.48.13L14.64,13H5.41ZM6,20a1,1,0,1,1,1-1A1,1,0,0,1,6,20Zm12,0a1,1,0,1,1,1-1A1,1,0,0,1,18,20Zm4-2.57-1.27.34a3,3,0,0,0-5.55.23H8.82a3,3,0,0,0-5.55-.23L2,17.43V15H19.21l2.79.77Z"/><rect class="cls-1" width="24" height="24"/></svg>