<svg id="Hot_2" data-name="Hot 2" xmlns="http://www.w3.org/2000/svg" viewBox="0 0 24 24"><title>iconoteka_baby_carriage__buggy__stroller__child_friendly_l_s</title><path d="M15.5,2H14V8H4.64L3.83,5H2v.5H3.45L5.21,12a4,4,0,0,0,3.86,3H15.5a6.5,6.5,0,0,0,0-13Zm0,12.5H9.07a3.51,3.51,0,0,1-3.38-2.59L4.78,8.5H14.5v-6h1a6,6,0,0,1,0,12ZM8.5,17A2.5,2.5,0,1,0,11,19.5,2.5,2.5,0,0,0,8.5,17Zm0,4.5a2,2,0,1,1,2-2A2,2,0,0,1,8.5,21.5Zm9-4.5A2.5,2.5,0,1,0,20,19.5,2.5,2.5,0,0,0,17.5,17Zm0,4.5a2,2,0,1,1,2-2A2,2,0,0,1,17.5,21.5Z"/></svg>