<svg id="Hot_2" data-name="Hot 2" xmlns="http://www.w3.org/2000/svg" viewBox="0 0 24 24"><defs><style>.cls-1{fill:none;}</style></defs><title>iconoteka_automobile_suv_b_s</title><path d="M24,12.18l-5.19-1L18,7.87A2.5,2.5,0,0,0,15.53,6h-14L0,11.75l0,6.46L2.55,19a3.48,3.48,0,0,0,6.9,0h4.1a3.48,3.48,0,0,0,6.91-.09L24,18ZM15.53,8a.48.48,0,0,1,.48.37L16.7,11H2.3l.79-3ZM6,20a1.5,1.5,0,1,1,1.5-1.5A1.5,1.5,0,0,1,6,20Zm11,0a1.5,1.5,0,1,1,1.5-1.5A1.5,1.5,0,0,1,17,20Zm5-3.57-1.89.5a3.48,3.48,0,0,0-6.26.07H9.15a3.48,3.48,0,0,0-6.28,0L2,16.72V13H17.9l4.1.82Z"/><rect class="cls-1" width="24" height="24"/></svg>