<svg id="Hot_2" data-name="Hot 2" xmlns="http://www.w3.org/2000/svg" viewBox="0 0 24 24"><title>iconoteka_airplane__mode_off_b_s</title><path d="M18.13,7,20,5.13,21.87,7,23,5.87,21.13,4,23,2.13,21.87,1,20,2.87,18.13,1,17,2.13,18.87,4,17,5.87Zm2.71,1.84H16.11l-4.19-8H6.75l2.14,8H6.51l-1.74-3H-.15l1.61,6-1.61,6H4.77l1.74-3H8.89l-2.14,8h5.17l4.19-8h4.73a3,3,0,0,0,0-6Zm0,4.15H15l-.52,1L10.8,21H9.16l1.52-5.67L11.31,13H5.45l-.54.93L3.71,16H2.26l1-3.67.13-.48-.13-.48-1-3.67H3.71l1.2,2.08.54.92h5.86l-.63-2.33L9.16,2.69H10.8l3.67,7,.52,1h5.85a1.15,1.15,0,0,1,0,2.3Z"/></svg>