<svg id="Hot_2" data-name="Hot 2" xmlns="http://www.w3.org/2000/svg" viewBox="0 0 24 24"><defs><style>.cls-1{fill:none;}</style></defs><title>iconoteka_drive_eta_b_s</title><rect class="cls-1" width="24" height="24"/><path d="M18.47,13H17l-.91-3.52A2,2,0,0,0,14.14,8H4.86A2,2,0,0,0,2.93,9.48L2,12.82V13H.53a.53.53,0,0,0-.53.53V14a.69.69,0,0,0,.51.66L2,15v4H2v3.34a.67.67,0,0,0,.66.66h.68A.67.67,0,0,0,4,22.34V21H15v1.34a.67.67,0,0,0,.66.66h.68a.67.67,0,0,0,.66-.66V15l1.49-.4A.69.69,0,0,0,19,14v-.44A.53.53,0,0,0,18.47,13Zm-4.33-3,.8,3H4.06l.8-3ZM4,19V15H15v4Z"/><path d="M20,1a4,4,0,1,0,4,4A4,4,0,0,0,20,1Zm0,6.5a2.5,2.5,0,0,1,0-5V5h2.5A2.5,2.5,0,0,1,20,7.5Z"/><path d="M6,16.15a.85.85,0,1,0,.85.85A.85.85,0,0,0,6,16.15Z"/><path d="M13,16.15a.85.85,0,1,0,.85.85A.85.85,0,0,0,13,16.15Z"/></svg>