<svg id="Hot_2" data-name="Hot 2" xmlns="http://www.w3.org/2000/svg" viewBox="0 0 24 24"><title>iconoteka_baby_carriage__buggy__stroller__child_friendly_m_s</title><path d="M15.5,2H14V8H5.68L4.87,5H2V6.5H3.72L5.21,12a4,4,0,0,0,3.86,3H15.5a6.5,6.5,0,0,0,0-13Zm0,11.5H9.07a2.51,2.51,0,0,1-2.42-1.85L6.08,9.5H15.5v-6a5,5,0,0,1,0,10ZM9,16a3,3,0,1,0,3,3A3,3,0,0,0,9,16Zm0,4.5A1.5,1.5,0,1,1,10.5,19,1.5,1.5,0,0,1,9,20.5ZM17,16a3,3,0,1,0,3,3A3,3,0,0,0,17,16Zm0,4.5A1.5,1.5,0,1,1,18.5,19,1.5,1.5,0,0,1,17,20.5Z"/></svg>