<svg id="Hot_2" data-name="Hot 2" xmlns="http://www.w3.org/2000/svg" viewBox="0 0 24 24"><title>iconoteka_bicycle_r_a</title><path d="M19,10a5.29,5.29,0,0,0-.8.08L16.35,3.16H13.14a.51.51,0,0,0-.5.5.5.5,0,0,0,.5.5h2.44l.9,3.37H7.4L7,5.92l1.37-.49V5H4.72a.5.5,0,1,0,0,1H6l.47,1.76L5.8,10.08A5.29,5.29,0,0,0,5,10,5,5,0,1,0,10,15.5h2l1.86-7h2.9l.48,1.81A5,5,0,1,0,19,10ZM5,19a4,4,0,0,1,0-8,4.93,4.93,0,0,1,.54.05l-1,3.83A.49.49,0,0,0,5,15.5H9A4,4,0,0,1,5,19Zm1.51-7.7A4,4,0,0,1,9,14.5H5.65Zm4.71,3.2H10a5,5,0,0,0-3.18-4.16l.48-1.81h5.57ZM19,19a4,4,0,0,1-1.51-7.7l1,3.83a.5.5,0,0,0,.48.37l.13,0a.49.49,0,0,0,.35-.61l-1-3.82A4.93,4.93,0,0,1,19,11a4,4,0,0,1,0,8Z"/></svg>