<svg id="Hot_2" data-name="Hot 2" xmlns="http://www.w3.org/2000/svg" viewBox="0 0 24 24"><defs><style>.cls-1{fill:none;}</style></defs><title>iconoteka_flight_takeoff_b_s</title><rect class="cls-1" width="24" height="24"/><path d="M21.35,12.66A3,3,0,0,0,23.47,9a3,3,0,0,0-1.4-1.82,3,3,0,0,0-2.28-.3L14.62,8.26,9.73,3.35,5,4.63,8.06,10l-1.74.47L4.68,8.85.2,10.05l4.14,7.17ZM4.08,11.08l1.64,1.63,5.37-1.44L8,5.89l1.13-.31L14,10.49,20.31,8.8a1,1,0,1,1,.52,1.93L5.3,14.89,3.23,11.31Z"/><rect y="19" width="24" height="2"/></svg>