<svg id="Layer_1" data-name="Layer 1" xmlns="http://www.w3.org/2000/svg" viewBox="0 0 24 24"><title>iconoteka_sync_disabled_m_a</title><path d="M20,7.61l-1.79-1.8A8.74,8.74,0,0,0,3.49,10H5A7.35,7.35,0,0,1,6.87,6.87a7.27,7.27,0,0,1,10.26,0l1.79,1.8L17.69,9.91h3.53V6.37Zm-2.85,9.52a7.27,7.27,0,0,1-10.26,0l-1.79-1.8,1.23-1.24H2.78v3.54L4,16.39l1.79,1.8A8.74,8.74,0,0,0,20.51,14H19A7.35,7.35,0,0,1,17.13,17.13Zm-7.07-2.2L12,13l1.94,1.94,1-1L13,12l1.94-1.94-1-1L12,11,10.06,9.07l-1,1L11,12,9.07,13.94Z"/></svg>