<svg id="Layer_1" data-name="Layer 1" xmlns="http://www.w3.org/2000/svg" viewBox="0 0 24 24"><title>iconoteka_shuffle_l_a</title><path d="M8.15,9.7l.26-.45a5.28,5.28,0,0,0-3.67-1.5H2v.5H4.74A4.76,4.76,0,0,1,8.15,9.7Zm7.91-1.45h5L18.4,10.9l.35.35L22,8,18.75,4.75l-.35.35L21,7.75h-5a5.25,5.25,0,0,0-4.54,2.63l-2.89,5a4.77,4.77,0,0,1-4.11,2.37H2v.5H4.52a5.25,5.25,0,0,0,4.54-2.63l2.89-5A4.76,4.76,0,0,1,16.06,8.25ZM18.4,15.1,21,17.75H15.89A3.92,3.92,0,0,1,12.59,16l-.26.46a4.38,4.38,0,0,0,3.56,1.78H21L18.4,20.9l.35.35L22,18l-3.25-3.25Z"/></svg>