<svg id="Layer_1" data-name="Layer 1" xmlns="http://www.w3.org/2000/svg" viewBox="0 0 24 24"><title>iconoteka_sync_disabled_l_a</title><path d="M6.52,6.52a7.75,7.75,0,0,1,11,0l1.91,1.91H16.81v.5h3.44V5.5h-.5V8.08L17.83,6.17A8.25,8.25,0,0,0,3.75,12h.5A7.71,7.71,0,0,1,6.52,6.52ZM19.75,12A7.75,7.75,0,0,1,6.52,17.48L4.61,15.57H7.19v-.51H3.75V18.5h.5V15.92l1.92,1.91A8.25,8.25,0,0,0,20.25,12ZM14.26,9.39,12,11.65,9.74,9.39l-.35.35L11.65,12,9.39,14.26l.35.35L12,12.35l2.26,2.26.35-.35L12.35,12l2.26-2.26Z"/></svg>