<svg id="Layer_1" data-name="Layer 1" xmlns="http://www.w3.org/2000/svg" viewBox="0 0 24 24"><title>iconoteka_shuffle_r_a</title><path d="M8,8.93,8.54,8A5.54,5.54,0,0,0,4.74,6.5H2v1H4.74A4.48,4.48,0,0,1,8,8.93Zm8-1.43h4L17.68,9.91l.7.71L22,7,18.38,3.38l-.7.71L20.09,6.5h-4A5.5,5.5,0,0,0,11.3,9.25l-2.89,5A4.5,4.5,0,0,1,4.52,16.5H2v1H4.52a5.51,5.51,0,0,0,4.76-2.75l2.89-5A4.5,4.5,0,0,1,16.06,7.5Zm1.62,6.59,2.41,2.41h-4.2a3.7,3.7,0,0,1-3.16-1.73l-.54.93a4.62,4.62,0,0,0,3.7,1.8h4.2l-2.41,2.41.7.71L22,17l-3.62-3.62Z"/></svg>