<svg id="Layer_1" data-name="Layer 1" xmlns="http://www.w3.org/2000/svg" viewBox="0 0 24 24"><title>iconoteka_sync_disabled_l_a</title><path d="M6.52,7.52a7.75,7.75,0,0,1,11,0l1.91,1.91H16.81v.5h3.44V6.5h-.5V9.08L17.83,7.17A8.25,8.25,0,0,0,3.75,13h.5A7.71,7.71,0,0,1,6.52,7.52ZM19.75,13A7.75,7.75,0,0,1,6.52,18.48L4.61,16.57H7.19v-.51H3.75V19.5h.5V16.92l1.92,1.91A8.25,8.25,0,0,0,20.25,13Zm-5.49-2.61L12,12.65,9.74,10.39l-.35.35L11.65,13,9.39,15.26l.35.35L12,13.35l2.26,2.26.35-.35L12.35,13l2.26-2.26Z"/></svg>