<svg id="Layer_1" data-name="Layer 1" xmlns="http://www.w3.org/2000/svg" viewBox="0 0 24 24"><title>iconoteka_sync_disabled_b_a</title><path d="M19.78,7.05,18.36,5.64a9,9,0,0,0-12.72,0A8.87,8.87,0,0,0,3.23,10H5.3A7,7,0,0,1,17,7.05l1.41,1.41L16.92,9.91h4.3V5.61Zm-9.65,8L12,13.13,13.87,15,15,13.87,13.13,12,15,10.13,13.87,9,12,10.87,10.13,9,9,10.13,10.87,12,9,13.87ZM17,17a7,7,0,0,1-9.9,0L5.64,15.54l1.44-1.45H2.78v4.3L4.22,17l1.42,1.41a9,9,0,0,0,12.72,0A8.87,8.87,0,0,0,20.77,14H18.7A7,7,0,0,1,17,17Z"/></svg>