<svg id="Layer_1" data-name="Layer 1" xmlns="http://www.w3.org/2000/svg" viewBox="0 0 24 24"><title>iconoteka_shuffle_m_a</title><path d="M7.89,9.16l.78-1.35A5.79,5.79,0,0,0,4.74,6.25H2v1.5H4.74A4.27,4.27,0,0,1,7.89,9.16Zm8.17-1.41h2.72v2.47L22,7,18.78,3.78V6.25H16.06a5.77,5.77,0,0,0-5,2.87l-2.88,5a4.25,4.25,0,0,1-3.68,2.13H2v1.5H4.52a5.79,5.79,0,0,0,5-2.87l2.88-5A4.25,4.25,0,0,1,16.06,7.75Zm2.72,8.5H15.89a3.45,3.45,0,0,1-3-1.72l-.81,1.4a4.82,4.82,0,0,0,3.83,1.82h2.89v2.47L22,17l-3.22-3.22Z"/></svg>