<svg id="Layer_1" data-name="Layer 1" xmlns="http://www.w3.org/2000/svg" viewBox="0 0 24 24"><title>iconoteka_drooling_m_s</title><path d="M12,2A10,10,0,1,0,22,12,10,10,0,0,0,12,2Zm0,18.5A8.5,8.5,0,1,1,20.5,12,8.51,8.51,0,0,1,12,20.5ZM15.54,9.4a1.6,1.6,0,0,0-1.6,1.6h3.2A1.6,1.6,0,0,0,15.54,9.4Zm-7.08,0A1.6,1.6,0,0,0,6.86,11h3.2A1.6,1.6,0,0,0,8.46,9.4Zm7.07,6.21a4.73,4.73,0,0,0,.87-1.47l-1.23-.43a3.36,3.36,0,0,1-6.34,0l-1.23.43A4.69,4.69,0,0,0,12,17.26a4.61,4.61,0,0,0,1.92-.43l.83.83a1,1,0,0,0,1.42,0,1,1,0,0,0,0-1.41Z"/></svg>