<svg id="Layer_1" data-name="Layer 1" xmlns="http://www.w3.org/2000/svg" viewBox="0 0 24 24"><title>iconoteka_nirvana_b_s</title><path d="M16.34,7.88,15.28,8.94,14.22,7.88,13.16,8.94,14.22,10l-1.06,1.06,1.06,1.06,1.06-1.06,1.06,1.06,1.07-1.06L16.34,10l1.07-1.06ZM7.66,12.12l1.06-1.06,1.06,1.06,1.06-1.06L9.78,10l1.06-1.06L9.78,7.88,8.72,8.94,7.66,7.88,6.59,8.94,7.66,10,6.59,11.06ZM12,2A10,10,0,1,0,22,12,10,10,0,0,0,12,2Zm0,18a8,8,0,1,1,8-8A8,8,0,0,1,12,20Zm3-6.36a3.15,3.15,0,0,1-6,0l-1.61.57A4.9,4.9,0,0,0,12,17.46,4.7,4.7,0,0,0,14.07,17l.68.68a1,1,0,0,0,1.42,0,1,1,0,0,0,0-1.41l-.5-.5a4.89,4.89,0,0,0,.92-1.54Z"/></svg>