<svg id="Layer_1" data-name="Layer 1" xmlns="http://www.w3.org/2000/svg" viewBox="0 0 24 24"><title>iconoteka_grin__sentiment_very_satisfied__grinning_face_with_smiling_eyes_r_s</title><path d="M12,17.5A4.65,4.65,0,0,0,16.5,14h-9A4.65,4.65,0,0,0,12,17.5Zm3.13-2.6a3.73,3.73,0,0,1-6.26,0Zm.41-6.19A2.3,2.3,0,0,0,13.25,11h.9a1.4,1.4,0,0,1,2.79,0h.9A2.3,2.3,0,0,0,15.54,8.71ZM9.85,11h.9a2.3,2.3,0,0,0-4.59,0h.9a1.4,1.4,0,0,1,2.79,0ZM12,2A10,10,0,1,0,22,12,10,10,0,0,0,12,2Zm0,19a9,9,0,1,1,9-9A9,9,0,0,1,12,21Z"/></svg>