<svg id="Layer_1" data-name="Layer 1" xmlns="http://www.w3.org/2000/svg" viewBox="0 0 24 24"><title>iconoteka_nirvana_m_f</title><path d="M12,2A10,10,0,1,0,22,12,10,10,0,0,0,12,2ZM5.67,11.13,6.8,10,5.67,8.87,6.58,8,7.72,9.08,8.85,8l.92.92L8.64,10l1.13,1.13-.92.92L7.72,10.92,6.58,12.05Zm10.5,6.12a1,1,0,0,1,0,1.41,1,1,0,0,1-1.42,0l-.8-.8a5.09,5.09,0,0,1-6.79-3l1.23-.44a3.82,3.82,0,0,0,7.22,0l1.23.44a5.17,5.17,0,0,1-1.2,1.89Zm2.16-6.12-.91.92-1.14-1.13-1.13,1.13-.92-.92L15.36,10,14.23,8.87,15.15,8l1.13,1.13L17.42,8l.91.92L17.2,10Z"/></svg>