<svg id="Layer_1" data-name="Layer 1" xmlns="http://www.w3.org/2000/svg" viewBox="0 0 24 24"><title>iconoteka_dizzy__sentiment_very_dissatisfied_r_f</title><path d="M12,2A10,10,0,1,0,22,12,10,10,0,0,0,12,2ZM5.81,10.93,7.08,9.65,5.81,8.38l.63-.64L7.72,9,9,7.74l.64.64L8.36,9.65l1.27,1.28L9,11.56,7.72,10.29,6.44,11.56ZM7.5,16.5a4.64,4.64,0,0,1,9,0Zm10.69-5.57-.63.63-1.28-1.27L15,11.56l-.64-.63,1.27-1.28L14.37,8.38,15,7.74,16.28,9l1.28-1.27.63.64L16.92,9.65ZM12,13.9a3.74,3.74,0,0,0-3.13,1.7h6.26A3.74,3.74,0,0,0,12,13.9Z"/></svg>