<svg id="Layer_1" data-name="Layer 1" xmlns="http://www.w3.org/2000/svg" viewBox="0 0 24 24"><title>iconoteka_sentiment_very_dissatisfied__dizzy_face_b_s</title><path d="M12,2A10,10,0,1,0,22,12,10,10,0,0,0,12,2Zm0,18a8,8,0,1,1,8-8A8,8,0,0,1,12,20Zm0-6a4,4,0,0,0-3.86,3h7.72A4,4,0,0,0,12,14Zm4.42-6L15.28,9.08,14.15,8l-.92.92L14.36,10l-1.13,1.13.92.92,1.13-1.13,1.14,1.13.91-.92L16.2,10l1.13-1.13Zm-6.57,4.1.92-.92L9.64,10l1.13-1.13L9.85,8,8.72,9.08,7.58,8l-.91.92L7.8,10,6.67,11.13l.91.92,1.14-1.13Z"/></svg>