<svg id="Layer_1" data-name="Layer 1" xmlns="http://www.w3.org/2000/svg" viewBox="0 0 24 24"><title>iconoteka_nirvana_r_f</title><path d="M15.41,16.24a4.89,4.89,0,0,1-.74.55l.76.76a.45.45,0,0,0,.64-.64ZM12,2A10,10,0,1,0,22,12,10,10,0,0,0,12,2ZM5.81,10.93,7.08,9.65,5.81,8.38l.63-.64L7.72,9,9,7.74l.64.64L8.36,9.65l1.27,1.28L9,11.56,7.72,10.29,6.44,11.56Zm10.9,7.26a1.39,1.39,0,0,1-1,.39,1.35,1.35,0,0,1-1-.39l-1-1a5.16,5.16,0,0,1-1.88.37A5.27,5.27,0,0,1,7,14.09L8,13.76a4.23,4.23,0,0,0,8,0l.94.33a5.23,5.23,0,0,1-.84,1.5l.68.68A1.38,1.38,0,0,1,16.71,18.19Zm1.48-7.26-.63.63-1.28-1.27L15,11.56l-.64-.63,1.27-1.28L14.37,8.38,15,7.74,16.28,9l1.28-1.27.63.64L16.92,9.65Z"/></svg>