<svg id="Layer_1" data-name="Layer 1" xmlns="http://www.w3.org/2000/svg" viewBox="0 0 24 24"><title>iconoteka_nirvana_l_s</title><path d="M16.7,7.88,15.28,9.3,13.86,7.88l-.35.35,1.42,1.42-1.42,1.42.35.35L15.28,10l1.42,1.42.35-.35L15.63,9.65l1.42-1.42ZM7.3,11.42,8.72,10l1.42,1.42.35-.35L9.07,9.65l1.42-1.42-.35-.35L8.72,9.3,7.3,7.88,7,8.23,8.37,9.65,7,11.07ZM12,2A10,10,0,1,0,22,12,10,10,0,0,0,12,2Zm0,19.5A9.5,9.5,0,1,1,21.5,12,9.51,9.51,0,0,1,12,21.5Zm3.72-5.93A5.08,5.08,0,0,0,16.63,14l-.47-.17a4.47,4.47,0,0,1-8.44,0L7.25,14A4.92,4.92,0,0,0,13.83,17L14.93,18a1.14,1.14,0,0,0,.82.34,1.12,1.12,0,0,0,.81-.34,1.15,1.15,0,0,0,0-1.63Zm.49,2.12a.65.65,0,0,1-.93,0l-1-1a4.87,4.87,0,0,0,1.08-.78l.82.82A.65.65,0,0,1,16.21,17.69Z"/></svg>