<svg id="Layer_1" data-name="Layer 1" xmlns="http://www.w3.org/2000/svg" viewBox="0 0 24 24"><title>iconoteka_grin__sentiment_very_satisfied__grinning_face_with_smiling_eyes_l_s</title><path d="M12,17.5A4.65,4.65,0,0,0,16.5,14h-9A4.65,4.65,0,0,0,12,17.5Zm0-.5a4.14,4.14,0,0,1-3.8-2.5h7.6A4.14,4.14,0,0,1,12,17Zm3.54-8.09A2.1,2.1,0,0,0,13.45,11H14a1.6,1.6,0,0,1,3.19,0h.5A2.1,2.1,0,0,0,15.54,8.91ZM10.05,11h.5a2.1,2.1,0,0,0-4.19,0h.5a1.6,1.6,0,0,1,3.19,0ZM12,2A10,10,0,1,0,22,12,10,10,0,0,0,12,2Zm0,19.5A9.5,9.5,0,1,1,21.5,12,9.51,9.51,0,0,1,12,21.5Z"/></svg>