<svg id="Layer_1" data-name="Layer 1" xmlns="http://www.w3.org/2000/svg" viewBox="0 0 24 24"><title>iconoteka_drooling_l_f</title><path d="M12,2A10,10,0,1,0,22,12,10,10,0,0,0,12,2ZM5.86,11h-.5a2.1,2.1,0,0,1,4.19,0h-.5a1.6,1.6,0,0,0-3.19,0Zm10.7,7a1.12,1.12,0,0,1-.81.34,1.14,1.14,0,0,1-.82-.34L13.83,17A4.92,4.92,0,0,1,7.25,14l.47-.17a4.47,4.47,0,0,0,8.44,0l.47.17a5.08,5.08,0,0,1-.91,1.56l.84.84A1.14,1.14,0,0,1,16.56,18Zm1.58-7A1.6,1.6,0,0,0,15,11h-.5a2.1,2.1,0,0,1,4.19,0Zm-2.75,4.94a4.87,4.87,0,0,1-1.08.78l1,1a.66.66,0,1,0,.93-.93Z"/></svg>