<svg id="Layer_1" data-name="Layer 1" xmlns="http://www.w3.org/2000/svg" viewBox="0 0 24 24"><title>iconoteka_nirvana_r_s</title><path d="M16.56,7.74,15.28,9,14,7.74l-.64.63,1.27,1.28-1.27,1.28.64.63,1.27-1.27,1.28,1.27.63-.63L15.92,9.65l1.27-1.28ZM7.44,11.56l1.28-1.27L10,11.56l.64-.63L9.36,9.65l1.27-1.28L10,7.74,8.72,9,7.44,7.74l-.63.63L8.08,9.65,6.81,10.93ZM12,2A10,10,0,1,0,22,12,10,10,0,0,0,12,2Zm0,19a9,9,0,1,1,9-9A9,9,0,0,1,12,21Zm4-5.41a5.23,5.23,0,0,0,.84-1.5l-.94-.33a4.23,4.23,0,0,1-8,0L7,14.09a5.27,5.27,0,0,0,4.93,3.5,5.16,5.16,0,0,0,1.88-.37l1,1a1.35,1.35,0,0,0,1,.39,1.35,1.35,0,0,0,1-2.31Zm0,2a.45.45,0,0,1-.64,0l-.76-.76a4.89,4.89,0,0,0,.74-.55l.66.67A.45.45,0,0,1,16.07,17.55Z"/></svg>