<svg id="Layer_1" data-name="Layer 1" xmlns="http://www.w3.org/2000/svg" viewBox="0 0 24 24"><title>iconoteka_nirvana_b_f</title><path d="M12,2A10,10,0,1,0,22,12,10,10,0,0,0,12,2ZM5.59,11.06,6.66,10,5.59,8.94,6.66,7.88,7.72,8.94,8.78,7.88,9.84,8.94,8.78,10l1.06,1.06L8.78,12.12,7.72,11.06,6.66,12.12Zm10.9,6.33A1.13,1.13,0,1,1,14.89,19L14,18.06a5.25,5.25,0,0,1-2,.4A5.36,5.36,0,0,1,7,14.9l1.61-.57a3.62,3.62,0,0,0,6.84,0L17,14.9a5.46,5.46,0,0,1-1.16,1.87Zm1.92-6.33-1.07,1.06-1.06-1.06-1.06,1.06-1.06-1.06L15.22,10,14.16,8.94l1.06-1.06,1.06,1.06,1.06-1.06,1.07,1.06L17.34,10Z"/></svg>