<svg id="Layer_1" data-name="Layer 1" xmlns="http://www.w3.org/2000/svg" viewBox="0 0 24 24"><title>iconoteka_drooling_b_s</title><path d="M12,2A10,10,0,1,0,22,12,10,10,0,0,0,12,2Zm0,18a8,8,0,1,1,8-8A8,8,0,0,1,12,20Zm3-6.36a3.15,3.15,0,0,1-6,0l-1.61.57A4.9,4.9,0,0,0,12,17.46,4.7,4.7,0,0,0,14.07,17l.68.68a1,1,0,0,0,1.42,0,1,1,0,0,0,0-1.41l-.5-.5a4.89,4.89,0,0,0,.92-1.54Zm.56-4.48A1.84,1.84,0,0,0,13.7,11h3.69A1.84,1.84,0,0,0,15.54,9.16Zm-7.08,0A1.84,1.84,0,0,0,6.61,11H10.3A1.84,1.84,0,0,0,8.46,9.16Z"/></svg>