<svg id="Layer_1" data-name="Layer 1" xmlns="http://www.w3.org/2000/svg" viewBox="0 0 24 24"><title>iconoteka_dizzy__sentiment_very_dissatisfied_l_s</title><path d="M16.7,7.88,15.28,9.3,13.86,7.88l-.35.35,1.42,1.42-1.42,1.42.35.35L15.28,10l1.42,1.42.35-.35L15.63,9.65l1.42-1.42Zm-6.56,3.54.35-.35L9.07,9.65l1.42-1.42-.35-.35L8.72,9.3,7.3,7.88,7,8.23,8.37,9.65,7,11.07l.35.35L8.72,10ZM12,13a4.65,4.65,0,0,0-4.5,3.5h9A4.65,4.65,0,0,0,12,13ZM8.2,16a4.14,4.14,0,0,1,7.6,0ZM12,2A10,10,0,1,0,22,12,10,10,0,0,0,12,2Zm0,19.5A9.5,9.5,0,1,1,21.5,12,9.51,9.51,0,0,1,12,21.5Z"/></svg>