<svg id="Layer_1" data-name="Layer 1" xmlns="http://www.w3.org/2000/svg" viewBox="0 0 24 24"><title>iconoteka_nirvana_l_f</title><path d="M15.39,15.94a4.87,4.87,0,0,1-1.08.78l1,1a.66.66,0,1,0,.93-.93ZM12,2A10,10,0,1,0,22,12,10,10,0,0,0,12,2ZM6,11.07,7.37,9.65,6,8.23l.35-.35L7.72,9.3,9.14,7.88l.35.35L8.07,9.65l1.42,1.42-.35.35L7.72,10,6.3,11.42Zm10.61,7a1.12,1.12,0,0,1-.81.34,1.14,1.14,0,0,1-.82-.34L13.83,17A4.92,4.92,0,0,1,7.25,14l.47-.17a4.47,4.47,0,0,0,8.44,0l.47.17a5.08,5.08,0,0,1-.91,1.56l.84.84A1.14,1.14,0,0,1,16.56,18Zm1.49-7-.35.35L16.28,10l-1.42,1.42-.35-.35,1.42-1.42L14.51,8.23l.35-.35L16.28,9.3,17.7,7.88l.35.35L16.63,9.65Z"/></svg>