<svg id="Layer_1" data-name="Layer 1" xmlns="http://www.w3.org/2000/svg" viewBox="0 0 24 24"><title>iconoteka_drooling_r_s</title><path d="M12,2A10,10,0,1,0,22,12,10,10,0,0,0,12,2Zm0,19a9,9,0,1,1,9-9A9,9,0,0,1,12,21ZM15.54,8.71A2.3,2.3,0,0,0,13.25,11h.9a1.4,1.4,0,0,1,2.79,0h.9A2.3,2.3,0,0,0,15.54,8.71Zm-7.08.9A1.39,1.39,0,0,1,9.85,11h.9a2.3,2.3,0,0,0-4.59,0h.9A1.4,1.4,0,0,1,8.46,9.61Zm7.57,6a5.23,5.23,0,0,0,.84-1.5l-.94-.33a4.23,4.23,0,0,1-8,0L7,14.09a5.27,5.27,0,0,0,4.93,3.5,5.16,5.16,0,0,0,1.88-.37l1,1a1.35,1.35,0,0,0,1,.39,1.35,1.35,0,0,0,1-2.31Zm0,2a.45.45,0,0,1-.64,0l-.76-.76a4.89,4.89,0,0,0,.74-.55l.66.67A.45.45,0,0,1,16.07,17.55Z"/></svg>