<svg id="Layer_1" data-name="Layer 1" xmlns="http://www.w3.org/2000/svg" viewBox="0 0 24 24"><title>iconoteka_drooling_r_f</title><path d="M15.41,16.24a4.89,4.89,0,0,1-.74.55l.76.76a.45.45,0,0,0,.64-.64ZM12,2A10,10,0,1,0,22,12,10,10,0,0,0,12,2ZM6.11,11h-1A2.35,2.35,0,0,1,9.8,11h-1a1.35,1.35,0,0,0-2.69,0Zm10.6,7.19a1.39,1.39,0,0,1-1,.39,1.35,1.35,0,0,1-1-.39l-1-1a5.16,5.16,0,0,1-1.88.37A5.27,5.27,0,0,1,7,14.09L8,13.76a4.23,4.23,0,0,0,8,0l.94.33a5.23,5.23,0,0,1-.84,1.5l.68.68A1.38,1.38,0,0,1,16.71,18.19ZM17.89,11a1.35,1.35,0,0,0-2.69,0h-1a2.35,2.35,0,0,1,4.69,0Z"/></svg>