<svg id="Layer_1" data-name="Layer 1" xmlns="http://www.w3.org/2000/svg" viewBox="0 0 24 24"><title>iconoteka_dizzy__sentiment_very_dissatisfied_b_s</title><path d="M12,14a4,4,0,0,0-3.86,3h7.72A4,4,0,0,0,12,14Zm4.34-6.12L15.28,8.94,14.22,7.88,13.16,8.94,14.22,10l-1.06,1.06,1.06,1.06,1.06-1.06,1.06,1.06,1.07-1.06L16.34,10l1.07-1.06ZM9.78,12.12l1.06-1.06L9.78,10l1.06-1.06L9.78,7.88,8.72,8.94,7.66,7.88,6.59,8.94,7.66,10,6.59,11.06l1.07,1.06,1.06-1.06ZM12,2A10,10,0,1,0,22,12,10,10,0,0,0,12,2Zm0,18a8,8,0,1,1,8-8A8,8,0,0,1,12,20Z"/></svg>