<svg id="Layer_1" data-name="Layer 1" xmlns="http://www.w3.org/2000/svg" viewBox="0 0 24 24"><title>iconoteka_nirvana_m_s</title><path d="M16.42,8,15.28,9.08,14.15,8l-.92.92L14.36,10l-1.13,1.13.92.92,1.13-1.13,1.14,1.13.91-.92L16.2,10l1.13-1.13Zm-6.57,4.1.92-.92L9.64,10l1.13-1.13L9.85,8,8.72,9.08,7.58,8l-.91.92L7.8,10,6.67,11.13l.91.92,1.14-1.13ZM12,2A10,10,0,1,0,22,12,10,10,0,0,0,12,2Zm0,18.5A8.5,8.5,0,1,1,20.5,12,8.51,8.51,0,0,1,12,20.5Zm3.53-4.89a4.73,4.73,0,0,0,.87-1.47l-1.23-.43a3.36,3.36,0,0,1-6.34,0l-1.23.43A4.69,4.69,0,0,0,12,17.26a4.61,4.61,0,0,0,1.92-.43l.83.83a1,1,0,0,0,1.42,0,1,1,0,0,0,0-1.41Z"/></svg>