<svg id="Layer_1" data-name="Layer 1" xmlns="http://www.w3.org/2000/svg" viewBox="0 0 24 24"><title>iconoteka_dizzy__sentiment_very_dissatisfied_r_s</title><path d="M16.56,7.74,15.28,9,14,7.74l-.64.63,1.27,1.28-1.27,1.28.64.63,1.27-1.27,1.28,1.27.63-.63L15.92,9.65l1.27-1.28ZM10,11.56l.64-.63L9.36,9.65l1.27-1.28L10,7.74,8.72,9,7.44,7.74l-.63.63L8.08,9.65,6.81,10.93l.63.63,1.28-1.27ZM12,13a4.65,4.65,0,0,0-4.5,3.5h9A4.65,4.65,0,0,0,12,13ZM8.87,15.6a3.73,3.73,0,0,1,6.26,0ZM12,2A10,10,0,1,0,22,12,10,10,0,0,0,12,2Zm0,19a9,9,0,1,1,9-9A9,9,0,0,1,12,21Z"/></svg>