<svg id="Layer_1" data-name="Layer 1" xmlns="http://www.w3.org/2000/svg" viewBox="0 0 24 24"><title>iconoteka_bug_report_b_s</title><path d="M15.41,2H4V22H20V6.59ZM18,20H6V4h8.59L18,7.41Zm-3.84-9A2.11,2.11,0,0,0,15.6,9V8.5H14.4V9a.9.9,0,0,1-.61.85l-.79.26V9.5a1,1,0,0,0-2,0v.62l-.79-.26A.9.9,0,0,1,9.6,9V8.5H8.4V9a2.11,2.11,0,0,0,1.44,2l1.16.39H8v1.2h3L9.84,13A2.11,2.11,0,0,0,8.4,15v.51H9.6V15a.9.9,0,0,1,.61-.85l.95-.32a1,1,0,0,0,1.68,0l.95.32a.9.9,0,0,1,.61.85v.51h1.2V15a2.11,2.11,0,0,0-1.44-2L13,12.61h3V11.4H13Z"/></svg>