<svg id="Layer_1" data-name="Layer 1" xmlns="http://www.w3.org/2000/svg" viewBox="0 0 24 24"><title>iconoteka_cloud_synced_b_s</title><path d="M22.14,11.22A5.71,5.71,0,0,0,22.28,10a5.94,5.94,0,0,0-5.93-5.93,5.76,5.76,0,0,0-2,.38c-.27-.2-.55-.39-.83-.56a7.34,7.34,0,0,0-10,2.68,7.25,7.25,0,0,0-1,4.19A5,5,0,0,0,5,20.09H19a5,5,0,0,0,3.14-8.87ZM19,18.09H5a3,3,0,0,1-1-5.8L4.73,12l-.15-.82A5.32,5.32,0,0,1,9.83,4.91a5.23,5.23,0,0,1,2.65.72,5.08,5.08,0,0,1,1,.72l.51.48.63-.32a3.89,3.89,0,0,1,1.76-.44A3.89,3.89,0,0,1,20,11.3l-.28.78.72.42A3,3,0,0,1,22,15.09,3,3,0,0,1,19,18.09Zm-7.6-5.54L9.27,10.42l-1.21,1.2L11.4,15l4.72-4.73L14.92,9Z"/></svg>