<svg id="Layer_1" data-name="Layer 1" xmlns="http://www.w3.org/2000/svg" viewBox="0 0 24 24"><title>iconoteka_bug_report_m_f</title><path d="M15.41,2H4V22H20V6.59ZM16,12.55H12.8v0l1.35.45A2,2,0,0,1,15.55,15v.51h-1.1V15a1,1,0,0,0-.65-.9l-1.05-.35a.78.78,0,0,1-1.5,0l-1.05.35a1,1,0,0,0-.65.9v.51H8.45V15a2,2,0,0,1,1.4-1.94l1.35-.45v0H8v-1.1h3.2v0L9.85,11A2,2,0,0,1,8.45,9V8.5h1.1V9a1,1,0,0,0,.65.9l1,.33V9.3a.8.8,0,0,1,1.6,0v.94l1-.33a1,1,0,0,0,.65-.9V8.5h1.1V9A2,2,0,0,1,14.15,11l-1.35.45v0H16Z"/></svg>