<svg id="Layer_1" data-name="Layer 1" xmlns="http://www.w3.org/2000/svg" viewBox="0 0 24 24"><title>iconoteka_personal_assignment_l_s</title><path d="M12,12a1.71,1.71,0,1,0-1.7-1.7A1.7,1.7,0,0,0,12,12Zm0-2.91a1.21,1.21,0,1,1-1.2,1.21A1.21,1.21,0,0,1,12,9.09ZM8.5,14.83V17h7V14.83a4.95,4.95,0,0,0-7,0ZM15,16.5H9V15a4.46,4.46,0,0,1,6,0ZM14,3V2.5a2,2,0,0,0-4,0V3H4V22H20V3Zm-3.5-.5a1.5,1.5,0,0,1,3,0V3h-3Zm6.7,1L17,4.39A1.5,1.5,0,0,1,15.51,5.5h-7A1.5,1.5,0,0,1,7,4.39L6.8,3.5Zm2.3,18H4.5V3.5H6.28l.28,1A2,2,0,0,0,8.49,6h7a2,2,0,0,0,1.93-1.48l.28-1H19.5Z"/></svg>