<svg id="Layer_1" data-name="Layer 1" xmlns="http://www.w3.org/2000/svg" viewBox="0 0 24 24"><title>iconoteka_bug_report_l_f</title><path d="M15.41,2H4V22H20V6.59ZM16,12.25H13.35V13a.5.5,0,0,1,0,.13l.73.24A1.75,1.75,0,0,1,15.25,15v.51h-.5V15a1.24,1.24,0,0,0-.85-1.18l-.71-.24a1.33,1.33,0,0,1-2.38,0l-.71.24A1.24,1.24,0,0,0,9.25,15v.51h-.5V15A1.75,1.75,0,0,1,10,13.33l.73-.24a.5.5,0,0,1,0-.13v-.71H8v-.5h2.65V10.9l-.7-.23A1.75,1.75,0,0,1,8.75,9V8.5h.5V9a1.24,1.24,0,0,0,.85,1.18l.55.18V9.85a1.35,1.35,0,0,1,2.7,0v.52l.55-.18A1.24,1.24,0,0,0,14.75,9V8.5h.5V9a1.75,1.75,0,0,1-1.2,1.66l-.7.23v.85H16Z"/></svg>