<svg id="Layer_1" data-name="Layer 1" xmlns="http://www.w3.org/2000/svg" viewBox="0 0 24 24"><title>iconoteka_personal_assignment_r_s</title><path d="M12,12a1.71,1.71,0,1,0-1.7-1.7A1.7,1.7,0,0,0,12,12Zm0-2.51a.81.81,0,1,1-.8.81A.8.8,0,0,1,12,9.49ZM8.5,14.7V17h7V14.7a4.95,4.95,0,0,0-7,0Zm6.1,1.4H9.4v-1a4.07,4.07,0,0,1,5.2,0ZM14,3V2.5a2,2,0,0,0-4,0V3H4V22H20V3Zm-3-.5a1,1,0,0,1,2,0V3H11ZM16.55,4l-.34,1.26a1,1,0,0,1-1,.74H8.76a1,1,0,0,1-1-.74L7.45,4ZM19,21H5V4H6.42l.4,1.52A2,2,0,0,0,8.76,7h6.48a2,2,0,0,0,1.94-1.48L17.58,4H19Z"/></svg>