<svg id="Layer_1" data-name="Layer 1" xmlns="http://www.w3.org/2000/svg" viewBox="0 0 24 24"><title>iconoteka_music_video_l_s</title><path d="M2,4V20H22V4ZM21.5,19.5H2.5V4.5h19ZM9,15.5a1.43,1.43,0,0,0,1.52-1.38V9H15v5a2.33,2.33,0,0,0-1.2-.31.94.94,0,0,0-1,.9c0,.48.43.9,1.15.9a1.43,1.43,0,0,0,1.52-1.38V8.5H10V14a2.33,2.33,0,0,0-1.2-.31.94.94,0,0,0-1,.9C7.8,15.08,8.23,15.5,9,15.5Zm5-.5c-.38,0-.65-.17-.65-.4a.45.45,0,0,1,.47-.4,1.68,1.68,0,0,1,1.06.32l0,0A1,1,0,0,1,14,15Zm-5.18-.8a1.68,1.68,0,0,1,1.06.32l0,0A1,1,0,0,1,9,15c-.38,0-.65-.17-.65-.4A.45.45,0,0,1,8.77,14.2Z"/></svg>