<svg id="Layer_1" data-name="Layer 1" xmlns="http://www.w3.org/2000/svg" viewBox="0 0 24 24"><title>iconoteka_library_music_l_s</title><path d="M3,7V21H21V7ZM20.5,20.5H3.5V7.5h17ZM19,3H5v.5H19ZM9,17.5a1.43,1.43,0,0,0,1.52-1.38V11H15v5a2.33,2.33,0,0,0-1.2-.31.94.94,0,0,0-1,.9c0,.48.43.9,1.15.9a1.43,1.43,0,0,0,1.52-1.38V10.5H10V16a2.33,2.33,0,0,0-1.2-.31.94.94,0,0,0-1,.9C7.8,17.08,8.23,17.5,9,17.5Zm5-.5c-.38,0-.65-.17-.65-.4a.45.45,0,0,1,.47-.4,1.68,1.68,0,0,1,1.06.32l0,0A1,1,0,0,1,14,17Zm-5.18-.8a1.68,1.68,0,0,1,1.06.32l0,0A1,1,0,0,1,9,17c-.38,0-.65-.17-.65-.4A.45.45,0,0,1,8.77,16.2Z"/></svg>