<svg id="Layer_1" data-name="Layer 1" xmlns="http://www.w3.org/2000/svg" viewBox="0 0 24 24"><title>iconoteka_bug_report_r_f</title><path d="M15.41,2H4V22H20V6.59ZM16,12.45H13.5v.36s0,.08,0,.12l.63.21A2,2,0,0,1,15.45,15v.51h-.9V15a1,1,0,0,0-.72-1l-.68-.23a1.49,1.49,0,0,1-2.3,0l-.68.23a1,1,0,0,0-.72,1v.51h-.9V15a2,2,0,0,1,1.33-1.85l.63-.21s0-.08,0-.12v-.36H8v-.9h2.5v-.49l-.62-.2A2,2,0,0,1,8.55,9V8.5h.9V9a1,1,0,0,0,.72,1l.33.11V10a1.5,1.5,0,0,1,3,0v.11l.33-.11a1,1,0,0,0,.72-1V8.5h.9V9a2,2,0,0,1-1.33,1.85l-.62.2v.49H16Z"/></svg>