<svg id="Layer_1" data-name="Layer 1" xmlns="http://www.w3.org/2000/svg" viewBox="0 0 24 24"><title>iconoteka_cloud_b_s</title><path d="M19,20H5a5,5,0,0,1-2.48-9.33,7.22,7.22,0,0,1,1-4.18,7.32,7.32,0,0,1,10-2.68,7.11,7.11,0,0,1,.83.56,5.55,5.55,0,0,1,2-.38,5.93,5.93,0,0,1,5.93,5.92,5.71,5.71,0,0,1-.14,1.22A5,5,0,0,1,19,20ZM9.83,4.83a5.32,5.32,0,0,0-5.25,6.26l.15.82L4,12.2A3,3,0,0,0,5,18H19a3,3,0,0,0,3-3,3,3,0,0,0-1.52-2.59L19.76,12l.28-.79A3.88,3.88,0,0,0,16.35,6a3.76,3.76,0,0,0-1.76.44L14,6.74l-.51-.47a4.74,4.74,0,0,0-1-.73A5.32,5.32,0,0,0,9.83,4.83Z"/></svg>