<svg id="Layer_1" data-name="Layer 1" xmlns="http://www.w3.org/2000/svg" viewBox="0 0 24 24"><title>iconoteka_cloud_done_b_s</title><path d="M11.3,12.78,9.14,10.63l-1.2,1.2,3.36,3.36,4.76-4.77-1.2-1.2Zm10.84-1.65a5.71,5.71,0,0,0,.14-1.22A5.93,5.93,0,0,0,16.35,4a5.55,5.55,0,0,0-2,.38,7.11,7.11,0,0,0-.83-.56,7.33,7.33,0,0,0-10,2.68,7.22,7.22,0,0,0-1,4.18A5,5,0,0,0,5,20H19a5,5,0,0,0,3.14-8.87ZM19,18H5a3,3,0,0,1-1-5.8l.78-.29-.15-.82a5.33,5.33,0,0,1,7.9-5.55,4.74,4.74,0,0,1,1,.73l.51.47.63-.31A3.76,3.76,0,0,1,16.35,6,3.88,3.88,0,0,1,20,11.21l-.28.79.72.41A3,3,0,0,1,22,15,3,3,0,0,1,19,18Z"/></svg>