<svg id="Layer_1" data-name="Layer 1" xmlns="http://www.w3.org/2000/svg" viewBox="0 0 24 24"><title>iconoteka_folder_shared_r_s</title><path d="M14.7,10.6a.45.45,0,1,1-.45.45.45.45,0,0,1,.45-.45m-5.4,0a.45.45,0,1,1-.45.45.45.45,0,0,1,.45-.45m5.4,3.34a2,2,0,0,1,1.15.37v.89h-2.3v-.89a2,2,0,0,1,1.15-.37m-5.4,0a2,2,0,0,1,1.15.37v.89H8.15v-.89a2,2,0,0,1,1.15-.37M8,3H2V21H22V5H10L8,3ZM3,20V4H7.54l2,2H21V20ZM14.7,9.8A1.25,1.25,0,1,0,16,11.05,1.25,1.25,0,0,0,14.7,9.8Zm-5.4,0a1.25,1.25,0,1,0,1.25,1.25A1.25,1.25,0,0,0,9.3,9.8Zm5.4,3.34a2.74,2.74,0,0,0-1.95.81V16h3.9V14a2.74,2.74,0,0,0-1.95-.81Zm-5.4,0a2.74,2.74,0,0,0-2,.81V16h3.9V14a2.74,2.74,0,0,0-1.95-.81Z"/></svg>