<svg id="Layer_1" data-name="Layer 1" xmlns="http://www.w3.org/2000/svg" viewBox="0 0 24 24"><title>iconoteka_cloud_sync_r_f</title><path d="M21.79,11.86a5.26,5.26,0,0,0,.33-1.78,5.38,5.38,0,0,0-5.37-5.37,5.32,5.32,0,0,0-2.42.6,7.38,7.38,0,0,0-1.26-.94A6.89,6.89,0,0,0,2.84,11.56,4.36,4.36,0,0,0,4.36,20H19.64a4.35,4.35,0,0,0,2.15-8.14Zm-5.8,0H12.2v-1h2.16l-.59-.6a2.57,2.57,0,0,0-3.54,0,2.5,2.5,0,0,0,3.54,3.54,2.65,2.65,0,0,0,.33-.42l.84.55a3.17,3.17,0,0,1-.47.57A3.49,3.49,0,1,1,9.53,9.53a3.56,3.56,0,0,1,4.94,0L15,10V8h1Z"/></svg>