<svg id="Layer_1" data-name="Layer 1" xmlns="http://www.w3.org/2000/svg" viewBox="0 0 24 24"><title>iconoteka_cloud_sync_m_f</title><path d="M21.79,11.86a5.26,5.26,0,0,0,.33-1.78,5.38,5.38,0,0,0-5.37-5.37,5.32,5.32,0,0,0-2.42.6,7.38,7.38,0,0,0-1.26-.94A6.89,6.89,0,0,0,2.84,11.56,4.36,4.36,0,0,0,4.36,20H19.64a4.35,4.35,0,0,0,2.15-8.14Zm-5.82,0H12.43l1.37-1.37-.14-.14a2.4,2.4,0,0,0-3.32,0,2.35,2.35,0,1,0,3.32,3.32,2.35,2.35,0,0,0,.36-.47l1.12.67a3.49,3.49,0,0,1-.56.72A3.65,3.65,0,1,1,9.42,9.42a3.73,3.73,0,0,1,5.16,0l.14.14L16,8.31Z"/></svg>