<svg id="Layer_1" data-name="Layer 1" xmlns="http://www.w3.org/2000/svg" viewBox="0 0 24 24"><title>iconoteka_bug_report_b_s</title><path d="M15.41,2H4V22H20V6.59ZM18,20H6V4h8.59L18,7.41ZM14.25,9.62a.76.76,0,0,1-.75.76H13V9.77a1,1,0,0,0-2,0v.61h-.5a.76.76,0,0,1-.75-.76A.63.63,0,0,0,9.12,9H8.25v.5a2.25,2.25,0,0,0,2.25,2.25H8.56a.76.76,0,0,0-.75.75v.75H10.5A2.25,2.25,0,0,0,8.25,15.5V16h.87a.63.63,0,0,0,.63-.62.76.76,0,0,1,.75-.76h3a.76.76,0,0,1,.75.76.63.63,0,0,0,.63.62h.87v-.5a2.25,2.25,0,0,0-2.25-2.25h2.69V12.5a.76.76,0,0,0-.75-.75H13.5A2.25,2.25,0,0,0,15.75,9.5V9h-.87A.63.63,0,0,0,14.25,9.62Z"/></svg>