<svg id="Layer_1" data-name="Layer 1" xmlns="http://www.w3.org/2000/svg" viewBox="0 0 24 24"><title>iconoteka_bug_report_r_s</title><path d="M15.41,2H4V22H20V6.59ZM19,21H5V3H15l4,4ZM14.12,10.86A2,2,0,0,0,15.45,9V8.5h-.9V9a1,1,0,0,1-.72,1l-.33.11V10a1.5,1.5,0,0,0-3,0v.11L10.17,10a1,1,0,0,1-.72-1V8.5h-.9V9a2,2,0,0,0,1.33,1.85l.62.2v.49H8v.9h2.5v.36s0,.08,0,.12l-.63.21A2,2,0,0,0,8.55,15v.51h.9V15a1,1,0,0,1,.72-1l.68-.23a1.49,1.49,0,0,0,2.3,0l.68.23a1,1,0,0,1,.72,1v.51h.9V15a2,2,0,0,0-1.33-1.85l-.63-.21s0-.08,0-.12v-.36H16v-.9H13.5v-.49Zm-1.52,2a.6.6,0,0,1-1.2,0V10a.6.6,0,0,1,1.2,0Z"/></svg>