<svg id="Layer_1" data-name="Layer 1" xmlns="http://www.w3.org/2000/svg" viewBox="0 0 24 24"><title>iconoteka_folder_shared_l_s</title><path d="M14.7,10.3a.75.75,0,1,1-.75.75.76.76,0,0,1,.75-.75m-5.4,0a.75.75,0,1,1-.75.75.76.76,0,0,1,.75-.75m5.4,3.34a2.25,2.25,0,0,1,1.45.53V15.5h-2.9V14.17a2.25,2.25,0,0,1,1.45-.53m-5.4,0a2.25,2.25,0,0,1,1.45.53V15.5H7.85V14.17a2.25,2.25,0,0,1,1.45-.53M8,3H2V21H22V5H10L8,3ZM2.5,20.5V3.5H7.75L9.6,5.35l.15.15H21.5v15ZM14.7,9.8A1.25,1.25,0,1,0,16,11.05,1.25,1.25,0,0,0,14.7,9.8Zm-5.4,0a1.25,1.25,0,1,0,1.25,1.25A1.25,1.25,0,0,0,9.3,9.8Zm5.4,3.34a2.74,2.74,0,0,0-1.95.81V16h3.9V14a2.74,2.74,0,0,0-1.95-.81Zm-5.4,0a2.74,2.74,0,0,0-2,.81V16h3.9V14a2.74,2.74,0,0,0-1.95-.81Z"/></svg>