<svg id="Layer_1" data-name="Layer 1" xmlns="http://www.w3.org/2000/svg" viewBox="0 0 24 24"><title>iconoteka_bug_report_b_f</title><path d="M15.41,2H4V22H20V6.59ZM16,12.6H13l1.16.39a2.11,2.11,0,0,1,1.44,2v.51H14.4V15a.9.9,0,0,0-.61-.85l-.95-.32a1,1,0,0,1-1.68,0l-.95.32A.9.9,0,0,0,9.6,15v.51H8.4V15a2.11,2.11,0,0,1,1.44-2L11,12.61H8V11.4h3L9.84,11A2.11,2.11,0,0,1,8.4,9V8.5H9.6V9a.9.9,0,0,0,.61.85l.79.26V9.5a1,1,0,0,1,2,0v.62l.79-.26A.9.9,0,0,0,14.4,9V8.5h1.2V9a2.11,2.11,0,0,1-1.44,2L13,11.39h3Z"/></svg>