<svg id="Layer_1" data-name="Layer 1" xmlns="http://www.w3.org/2000/svg" viewBox="0 0 24 24"><title>iconoteka_extension_b_f</title><path d="M22.24,10.11a2.49,2.49,0,0,0-1.58,0A.5.5,0,0,1,20,9.68V4H13.82a.5.5,0,0,1-.47-.66A2.5,2.5,0,1,0,8.5,2.5a2.36,2.36,0,0,0,.15.84A.49.49,0,0,1,8.18,4H2V9.68a.5.5,0,0,0,.66.47,2.49,2.49,0,0,1,1.58,0,2.45,2.45,0,0,1,1.68,1.75A2.5,2.5,0,0,1,3.5,15a2.36,2.36,0,0,1-.84-.15.49.49,0,0,0-.66.47V22H8.68a.5.5,0,0,0,.47-.66A2.5,2.5,0,1,1,14,20.5a2.36,2.36,0,0,1-.15.84.49.49,0,0,0,.47.66H20V15.32a.49.49,0,0,1,.66-.47,2.36,2.36,0,0,0,.84.15,2.5,2.5,0,0,0,2.42-3.14A2.45,2.45,0,0,0,22.24,10.11Z"/></svg>