<svg id="Layer_1" data-name="Layer 1" xmlns="http://www.w3.org/2000/svg" viewBox="0 0 24 24"><title>iconoteka_puzzle__extension_r_s</title><path d="M21,10a3,3,0,0,0-1,.18V4H13.82A3,3,0,1,0,8.18,4H2v7.6l1.33-.47A1.89,1.89,0,0,1,4,11a2,2,0,0,1,0,4,1.89,1.89,0,0,1-.67-.13L2,14.4V22H9.6l-.47-1.33A1.89,1.89,0,0,1,9,20a2,2,0,0,1,4,0,1.89,1.89,0,0,1-.13.67L12.4,22H20V15.82A3,3,0,1,0,21,10Zm0,5a1.89,1.89,0,0,1-.67-.13L19,14.4V21H13.82a3,3,0,1,0-5.64,0H3V15.82a3,3,0,1,0,0-5.64V5H9.6L9.13,3.67A1.89,1.89,0,0,1,9,3a2,2,0,0,1,4,0,1.89,1.89,0,0,1-.13.67L12.4,5H19v6.6l1.33-.47A1.89,1.89,0,0,1,21,11a2,2,0,0,1,0,4Z"/></svg>