<svg id="Layer_1" data-name="Layer 1" xmlns="http://www.w3.org/2000/svg" viewBox="0 0 24 24"><title>iconoteka_bug_report_l_s</title><path d="M15.41,2H4V22H20V6.59ZM19.5,21.5H4.5V2.5H15.21L19.5,6.79ZM14.05,10.67A1.75,1.75,0,0,0,15.25,9V8.5h-.5V9a1.24,1.24,0,0,1-.85,1.18l-.55.18V9.85a1.35,1.35,0,0,0-2.7,0v.52l-.55-.18A1.24,1.24,0,0,1,9.25,9V8.5h-.5V9A1.75,1.75,0,0,0,10,10.67l.7.23v.85H8v.5h2.65V13a.5.5,0,0,0,0,.13l-.73.24A1.75,1.75,0,0,0,8.75,15v.51h.5V15a1.24,1.24,0,0,1,.85-1.18l.71-.24a1.33,1.33,0,0,0,2.38,0l.71.24A1.24,1.24,0,0,1,14.75,15v.51h.5V15a1.75,1.75,0,0,0-1.2-1.66l-.73-.24a.5.5,0,0,0,0-.13v-.71H16v-.5H13.35V10.9ZM12.85,13a.85.85,0,0,1-1.7,0V9.85a.85.85,0,0,1,1.7,0Z"/></svg>