<svg id="Layer_1" data-name="Layer 1" xmlns="http://www.w3.org/2000/svg" viewBox="0 0 24 24"><title>iconoteka_cloud_sync_r_s</title><path d="M21.79,11.86a5.26,5.26,0,0,0,.33-1.78,5.38,5.38,0,0,0-5.37-5.37,5.32,5.32,0,0,0-2.42.6,7.38,7.38,0,0,0-1.26-.94A6.89,6.89,0,0,0,2.84,11.56,4.36,4.36,0,0,0,4.36,20H19.64a4.35,4.35,0,0,0,2.15-8.14ZM19.64,19H4.36a3.35,3.35,0,0,1-1.17-6.5L4,12.21l-.15-.83a5.89,5.89,0,0,1,8.75-6.14,5.68,5.68,0,0,1,1.08.8l.51.48.62-.32a4.34,4.34,0,0,1,6.34,3.88,4.3,4.3,0,0,1-.27,1.45l-.28.79.73.41A3.35,3.35,0,0,1,19.64,19ZM15,10l-.52-.51a3.56,3.56,0,0,0-4.94,0,3.49,3.49,0,1,0,4.94,4.94,3.17,3.17,0,0,0,.47-.57l-.84-.55a2.65,2.65,0,0,1-.33.42,2.5,2.5,0,0,1-3.54-3.54,2.57,2.57,0,0,1,3.54,0l.59.6H12.2v1H16V8H15Z"/></svg>