<svg id="Layer_1" data-name="Layer 1" xmlns="http://www.w3.org/2000/svg" viewBox="0 0 24 24"><title>iconoteka_bug_report_m_s</title><path d="M15.41,2H4V22H20V6.59ZM18.5,20.5H5.5V3.5h9.29L18.5,7.21ZM14.15,11A2,2,0,0,0,15.55,9V8.5h-1.1V9a1,1,0,0,1-.65.9l-1,.33V9.3a.8.8,0,0,0-1.6,0v.94l-1-.33A1,1,0,0,1,9.55,9V8.5H8.45V9A2,2,0,0,0,9.85,11l1.35.45v0H8v1.1h3.2v0l-1.35.45A2,2,0,0,0,8.45,15v.51h1.1V15a1,1,0,0,1,.65-.9l1.05-.35a.78.78,0,0,0,1.5,0l1.05.35a1,1,0,0,1,.65.9v.51h1.1V15a2,2,0,0,0-1.4-1.94L12.8,12.6v0H16v-1.1H12.8v0Z"/></svg>