<svg id="Layer_1" data-name="Layer 1" xmlns="http://www.w3.org/2000/svg" viewBox="0 0 24 24"><title>iconoteka_bug_report_b_f</title><path d="M15.41,2H4V22H20V6.59Zm.78,11.25H13.5a2.25,2.25,0,0,1,2.25,2.25V16h-.87a.63.63,0,0,1-.63-.62.76.76,0,0,0-.75-.76h-3a.76.76,0,0,0-.75.76.63.63,0,0,1-.63.62H8.25v-.5a2.25,2.25,0,0,1,2.25-2.25H7.81V12.5a.76.76,0,0,1,.75-.75H10.5A2.25,2.25,0,0,1,8.25,9.5V9h.87a.63.63,0,0,1,.63.62.76.76,0,0,0,.75.76H11V9.77a1,1,0,0,1,2,0v.61h.5a.76.76,0,0,0,.75-.76A.63.63,0,0,1,14.88,9h.87v.5a2.25,2.25,0,0,1-2.25,2.25h1.94a.76.76,0,0,1,.75.75Z"/></svg>