<svg id="Layer_1" data-name="Layer 1" xmlns="http://www.w3.org/2000/svg" viewBox="0 0 24 24"><title>iconoteka_puzzle__extension_m_s</title><path d="M2,5.5H9.6L9.22,3.69a2.33,2.33,0,0,1,0-.37,1.82,1.82,0,0,1,3.64,0,2.33,2.33,0,0,1,0,.37L12.4,5.5H20V4H14.25a3.82,3.82,0,0,0,.07-.68,3.32,3.32,0,0,0-6.64,0A3.82,3.82,0,0,0,7.75,4H2Z"/><path d="M2,22H9.6l-.38-1.81a2.33,2.33,0,0,1,0-.37,1.82,1.82,0,0,1,3.64,0,2.33,2.33,0,0,1,0,.37L12.4,22H20V20.5H14.25a3.82,3.82,0,0,0,.07-.68,3.32,3.32,0,0,0-6.64,0,3.82,3.82,0,0,0,.07.68H2Z"/><path d="M18.5,4v7.6l1.81-.38a2.33,2.33,0,0,1,.37,0,1.82,1.82,0,0,1,0,3.64,2.33,2.33,0,0,1-.37,0L18.5,14.4V22H20V16.25a3.82,3.82,0,0,0,.68.07,3.32,3.32,0,0,0,0-6.64,3.82,3.82,0,0,0-.68.07V4Z"/><path d="M2,4v7.6l1.81-.38a2.33,2.33,0,0,1,.37,0,1.82,1.82,0,0,1,0,3.64,2.33,2.33,0,0,1-.37,0L2,14.4V22H3.5V16.25a3.82,3.82,0,0,0,.68.07,3.32,3.32,0,0,0,0-6.64,3.82,3.82,0,0,0-.68.07V4Z"/></svg>