<svg id="Layer_1" data-name="Layer 1" xmlns="http://www.w3.org/2000/svg" viewBox="0 0 24 24"><title>iconoteka_extension_b_s</title><path d="M23.89,11.62A3.48,3.48,0,0,0,20,9V4H14.46A3.48,3.48,0,0,0,11.88.11,3.5,3.5,0,0,0,7.5,3.5a2.74,2.74,0,0,0,0,.5H2V9.68a1.5,1.5,0,0,0,2,1.41,1.47,1.47,0,0,1,1,0,1.5,1.5,0,1,1-1,2.84,1.5,1.5,0,0,0-2,1.41V22H8.68a1.5,1.5,0,0,0,1.23-.64A1.47,1.47,0,0,0,10.09,20a1.49,1.49,0,0,1,2.33-1.68A1.48,1.48,0,0,1,13,19.5a1.37,1.37,0,0,1-.09.49,1.5,1.5,0,0,0,1.41,2H20V16a3.49,3.49,0,0,0,3.89-4.34Zm-2.21,1.8a1.49,1.49,0,0,1-1.67.49,1.5,1.5,0,0,0-2,1.41V20H15a2.81,2.81,0,0,0,0-.5A3.5,3.5,0,1,0,8,20H4V16a3.49,3.49,0,0,0,3.89-4.34A3.48,3.48,0,0,0,4,9V6H8.18A1.5,1.5,0,0,0,9.59,4,1.37,1.37,0,0,1,9.5,3.5a1.48,1.48,0,0,1,.58-1.18A1.49,1.49,0,0,1,12.41,4a1.47,1.47,0,0,0,.18,1.36A1.5,1.5,0,0,0,13.82,6H18V9.68a1.5,1.5,0,0,0,2,1.41,1.47,1.47,0,0,1,.95,0,1.49,1.49,0,0,1,.72,2.35Z"/></svg>