<svg id="Layer_1" data-name="Layer 1" xmlns="http://www.w3.org/2000/svg" viewBox="0 0 24 24"><title>iconoteka_puzzle__extension_b_s</title><path d="M20.41,9.41a2.87,2.87,0,0,0-.41.05V6h0V4H14.54a2.87,2.87,0,0,0,.05-.41,3.59,3.59,0,0,0-7.18,0,2.87,2.87,0,0,0,0,.41H2v7.7l2.23-.26.15,0h.07a1.59,1.59,0,0,1,0,3.18H4.38l-.15,0L2,14.3V22H9.7l-.26-2.23,0-.15v-.07a1.59,1.59,0,0,1,3.18,0v.07l0,.15L12.3,22H20V20h0V16.54a2.87,2.87,0,0,0,.41.05,3.59,3.59,0,0,0,0-7.18Zm0,5.18h-.07l-.15,0L18,14.3V20H14.54a2.87,2.87,0,0,0,.05-.41,3.59,3.59,0,0,0-7.18,0,2.87,2.87,0,0,0,0,.41H4V16.54a2.87,2.87,0,0,0,.41.05,3.59,3.59,0,0,0,0-7.18A2.87,2.87,0,0,0,4,9.46V6H9.7L9.44,3.77l0-.15V3.55a1.59,1.59,0,0,1,3.18,0v.07l0,.15L12.3,6H18v5.7l2.23-.26.15,0h.07a1.59,1.59,0,0,1,0,3.18Z"/></svg>