<svg id="Layer_1" data-name="Layer 1" xmlns="http://www.w3.org/2000/svg" viewBox="0 0 24 24"><title>iconoteka_cloud_synced_m_s</title><path d="M21.79,11.86a5.26,5.26,0,0,0,.33-1.78,5.38,5.38,0,0,0-5.37-5.37,5.32,5.32,0,0,0-2.42.6,7.38,7.38,0,0,0-1.26-.94A6.89,6.89,0,0,0,2.84,11.56,4.36,4.36,0,0,0,4.36,20H19.64a4.35,4.35,0,0,0,2.15-8.14ZM19.64,18.5H4.36A2.86,2.86,0,0,1,1.5,15.64,2.83,2.83,0,0,1,3.36,13l1.17-.44L4.31,11.3a5.4,5.4,0,0,1,8-5.63,5.61,5.61,0,0,1,1,.74l.77.71L15,6.65a3.81,3.81,0,0,1,1.74-.44,3.88,3.88,0,0,1,3.87,3.87,3.79,3.79,0,0,1-.24,1.28L20,12.54l1.09.63a2.82,2.82,0,0,1,1.45,2.47A2.86,2.86,0,0,1,19.64,18.5ZM11.4,12.8,9.14,10.54l-1,1,3.21,3.21,4.6-4.6-.95-1Z"/></svg>