<svg id="Layer_1" data-name="Layer 1" xmlns="http://www.w3.org/2000/svg" viewBox="0 0 24 24"><title>iconoteka_cloud_sync_b_f</title><path d="M21.79,11.86a5.26,5.26,0,0,0,.33-1.78,5.38,5.38,0,0,0-5.37-5.37,5.32,5.32,0,0,0-2.42.6,7.38,7.38,0,0,0-1.26-.94A6.89,6.89,0,0,0,2.84,11.56,4.36,4.36,0,0,0,4.36,20H19.64a4.35,4.35,0,0,0,2.15-8.14Zm-5.7.11h-4.3l1.63-1.64a2.27,2.27,0,0,0-3,.11,2.22,2.22,0,0,0,0,3.12,2.27,2.27,0,0,0,3.12,0h0a2,2,0,0,0,.29-.36l1.35.86a4,4,0,0,1-.51.64A3.8,3.8,0,0,1,9.31,9.31a3.9,3.9,0,0,1,5.24-.11l1.54-1.54Z"/></svg>