<svg id="Layer_1" data-name="Layer 1" xmlns="http://www.w3.org/2000/svg" viewBox="0 0 24 24"><title>iconoteka_cloud_queue_l_s</title><path d="M21.79,11.86a5.26,5.26,0,0,0,.33-1.78,5.38,5.38,0,0,0-5.37-5.37,5.32,5.32,0,0,0-2.42.6,7.38,7.38,0,0,0-1.26-.94A6.89,6.89,0,0,0,2.84,11.56,4.36,4.36,0,0,0,4.36,20H19.64a4.35,4.35,0,0,0,2.15-8.14ZM19.64,19.4H4.36a3.76,3.76,0,0,1-1.31-7.28L3.52,12l-.09-.49a6.3,6.3,0,0,1,9.34-6.57,6.15,6.15,0,0,1,1.15.86l.31.29.37-.19a4.66,4.66,0,0,1,2.15-.54,4.72,4.72,0,0,1,4.48,6.35l-.17.48.44.25a3.75,3.75,0,0,1-1.86,7ZM8,10.5h8V10H8ZM8,14h8v-.5H8Z"/></svg>