<svg id="Layer_1" data-name="Layer 1" xmlns="http://www.w3.org/2000/svg" viewBox="0 0 24 24"><title>iconoteka_table_tennis__ping-pong_l_s</title><path d="M8,5A3,3,0,1,0,5,8,3,3,0,0,0,8,5ZM5,7.5A2.5,2.5,0,1,1,7.5,5,2.5,2.5,0,0,1,5,7.5Zm15.07-.21A5.79,5.79,0,0,0,15.9,5.5a8.14,8.14,0,0,0-5.6,2.62A6.32,6.32,0,0,0,8.42,14.5a4,4,0,0,1-1,4L5,20.88l1.45,1.46,2.41-2.4a4,4,0,0,1,2.82-1.17,4.17,4.17,0,0,1,1.16.17,5.87,5.87,0,0,0,1.67.25,6.66,6.66,0,0,0,4.71-2.12C22.18,14.14,22.93,10.15,20.07,7.29ZM13,18.46a4.75,4.75,0,0,0-1.3-.19,4.5,4.5,0,0,0-3.18,1.31l-2,2.05-.75-.75,2.05-2.05A4.48,4.48,0,0,0,8.9,14.35a5.59,5.59,0,0,1-.2-1.28l5.6,5.6A5.19,5.19,0,0,1,13,18.46Zm5.89-1.75A6.29,6.29,0,0,1,15,18.66L8.71,12.38a6.38,6.38,0,0,1,1.94-3.91A7.64,7.64,0,0,1,15.9,6a5.33,5.33,0,0,1,3.82,1.65C22.57,10.49,21.36,14.25,18.9,16.71Z"/></svg>