<svg id="Layer_1" data-name="Layer 1" xmlns="http://www.w3.org/2000/svg" viewBox="0 0 24 24"><title>iconoteka_table_tennis__ping-pong_r_s</title><path d="M8,5A3,3,0,1,0,5,8,3,3,0,0,0,8,5ZM5,7A2,2,0,1,1,7,5,2,2,0,0,1,5,7Zm15.07.29A5.79,5.79,0,0,0,15.9,5.5a8.14,8.14,0,0,0-5.6,2.62,6.2,6.2,0,0,0-1.37,7.59,2,2,0,0,1-.34,2.36L5.4,21.26l.7.71,3.19-3.19a2,2,0,0,1,2.33-.36,6,6,0,0,0,2.91.77,6.7,6.7,0,0,0,4.72-2.12C22.18,14.14,22.93,10.15,20.07,7.29Zm-1.53,9.07a5.67,5.67,0,0,1-4,1.83,5.28,5.28,0,0,1-3.72-1.63,5.25,5.25,0,0,1-1.63-3.7,5.65,5.65,0,0,1,1.83-4A7.11,7.11,0,0,1,15.9,6.5,4.79,4.79,0,0,1,19.37,8C22,10.6,20.83,14.07,18.54,16.36Z"/></svg>