<svg id="Layer_1" data-name="Layer 1" xmlns="http://www.w3.org/2000/svg" viewBox="0 0 24 24"><title>iconoteka_cup__prize__competitions_r_s</title><path d="M22,5H19V3H5V5H2A1,1,0,0,0,1,6V8a5,5,0,0,0,4.67,5,7,7,0,0,0,4.83,3.86v.28A2,2,0,0,1,9,19.05l-2.49.62V22h11V19.67L15,19.05a2,2,0,0,1-1.51-1.94v-.28A7,7,0,0,0,18.33,13,5,5,0,0,0,23,8V6A1,1,0,0,0,22,5ZM2,8V6H5v4a7,7,0,0,0,.27,1.9A4,4,0,0,1,2,8ZM14.77,20l1.73.43V21h-9v-.55L9.23,20a3,3,0,0,0,2.27-2.91V17a4.18,4.18,0,0,0,1,0v.14A3,3,0,0,0,14.77,20ZM12,16a6,6,0,0,1-6-6V4H18v6A6,6,0,0,1,12,16ZM22,8a4,4,0,0,1-3.27,3.9A7,7,0,0,0,19,10V6h3Z"/></svg>