<svg id="Layer_1" data-name="Layer 1" xmlns="http://www.w3.org/2000/svg" viewBox="0 0 24 24"><title>iconoteka_american_football_ball_l_f</title><path d="M22.31,5.09a4,4,0,0,0-3.4-3.4A15.41,15.41,0,0,0,1.69,18.91a4,4,0,0,0,3.4,3.4A15.41,15.41,0,0,0,22.31,5.09Zm-5.15,5.7a.25.25,0,0,1-.36,0L15.18,9.17,12.35,12,14,13.62a.25.25,0,0,1-.35.35L12,12.35,9.17,15.18l1.62,1.62a.25.25,0,0,1,0,.36.26.26,0,0,1-.35,0l-3.6-3.6a.26.26,0,0,1,0-.35.25.25,0,0,1,.36,0l1.62,1.62L11.65,12,10,10.38a.25.25,0,0,1,.35-.35L12,11.65l2.83-2.83L13.21,7.2a.25.25,0,0,1,0-.36.26.26,0,0,1,.35,0l3.6,3.6A.26.26,0,0,1,17.16,10.79Z"/></svg>