<svg id="Layer_1" data-name="Layer 1" xmlns="http://www.w3.org/2000/svg" viewBox="0 0 24 24"><title>iconoteka_rugby_ball_b_s</title><path d="M7.68,7.68c2.81-2.82,6.19-4.32,8.79-4.18A25,25,0,0,0,8.9,8.9a25,25,0,0,0-5.4,7.57C3.36,13.87,4.86,10.49,7.68,7.68Zm8.64,8.64c-2.81,2.82-6.19,4.32-8.79,4.18a25,25,0,0,0,7.57-5.4,25,25,0,0,0,5.4-7.57C20.64,10.13,19.14,13.51,16.32,16.32Zm-2.76-2.76c-4,4-7.87,6.46-8.73,5.61s1.66-4.77,5.61-8.73S18.31,4,19.17,4.83,17.51,9.6,13.56,13.56ZM6.14,6.14C1.41,10.87.2,17.33,3.43,20.57s9.7,2,14.43-2.71S23.8,6.67,20.57,3.43,10.87,1.41,6.14,6.14Z"/></svg>