<svg id="Layer_1" data-name="Layer 1" xmlns="http://www.w3.org/2000/svg" viewBox="0 0 24 24"><title>iconoteka_boxing_glove__box_r_s</title><path d="M16,2H10A4,4,0,0,0,6,6s0,0,0,.06A2.52,2.52,0,0,0,4,8.52V9.69a8,8,0,0,0,2.34,5.65L8,17v5H18V17a6.84,6.84,0,0,0,2-4.83V6A4,4,0,0,0,16,2ZM10,3h6a3,3,0,0,1,3,3c0,1.2-.29,4-3,4H11A4,4,0,0,1,7,6,3,3,0,0,1,10,3Zm7,18H9V17.5h8Zm2-8.83a5.79,5.79,0,0,1-1.71,4.12l-.2.21H8.91l-.2-.21L7.05,14.64a7,7,0,0,1-2-5V8.52A1.53,1.53,0,0,1,6.12,7.06,5,5,0,0,0,11,11h5a3.56,3.56,0,0,0,3-1.43Z"/></svg>