<svg id="Layer_1" data-name="Layer 1" xmlns="http://www.w3.org/2000/svg" viewBox="0 0 24 24"><title>iconoteka_football_ball__soccer_ball_b_s</title><path d="M12,2A10,10,0,1,0,22,12,10,10,0,0,0,12,2Zm7.26,5.89a8.22,8.22,0,0,1,1,3.17L18.62,9.85ZM12,3.65a8.55,8.55,0,0,1,1.68.17L12,5,10.32,3.82A8.55,8.55,0,0,1,12,3.65ZM4.74,7.89l.64,2L3.71,11.06A8.22,8.22,0,0,1,4.74,7.89Zm1.12,9.74H7.91l.63,2A8.4,8.4,0,0,1,5.86,17.63Zm9.6,2,.63-2h2.06A8.55,8.55,0,0,1,15.46,19.59ZM19.34,16H14.89L13.52,20.2a7.78,7.78,0,0,1-3,0L9.11,16H4.66a8.17,8.17,0,0,1-.93-2.89l3.59-2.61L6,6.26A8.41,8.41,0,0,1,8.41,4.47L12,7.08l3.59-2.61a8.41,8.41,0,0,1,2.46,1.79l-1.37,4.22,3.59,2.61A8.17,8.17,0,0,1,19.34,16ZM8.49,10.86,9.83,15h4.34l1.34-4.13L12,8.31ZM13,13.34H11l-.6-1.85L12,10.35l1.57,1.14Z"/></svg>