<svg id="Layer_1" data-name="Layer 1" xmlns="http://www.w3.org/2000/svg" viewBox="0 0 24 24"><title>iconoteka_cricket_l_s</title><path d="M20.94,4.05a6.77,6.77,0,0,0-2.61-1.64L6,14.7l1,1.05a.51.51,0,0,1,0,.71L3.8,19.75l1.43,1.44,3.29-3.3a.51.51,0,0,1,.71,0l1,1.05L22.58,6.65A7,7,0,0,0,20.94,4.05ZM5.23,20.48l-.73-.73,3.3-3.29.72.73ZM6.74,14.7,18.46,3A6.45,6.45,0,0,1,20.58,4.4,6.3,6.3,0,0,1,22,6.52L10.28,18.24ZM8,5A3,3,0,1,0,5,8,3,3,0,0,0,8,5ZM2.5,5A2.5,2.5,0,1,1,5,7.5,2.5,2.5,0,0,1,2.5,5Z"/></svg>