<svg id="Layer_1" data-name="Layer 1" xmlns="http://www.w3.org/2000/svg" viewBox="0 0 24 24"><title>iconoteka_american_football_ball_m_s</title><path d="M22.31,5.09a4,4,0,0,0-3.4-3.4A15.79,15.79,0,0,0,17,1.57,15.4,15.4,0,0,0,1.69,18.91a4,4,0,0,0,3.4,3.4A15.79,15.79,0,0,0,7,22.43,15.4,15.4,0,0,0,22.31,5.09ZM16.86,16.86A13.77,13.77,0,0,1,7,20.93a14.68,14.68,0,0,1-1.75-.11,2.44,2.44,0,0,1-2.1-2.1A13.9,13.9,0,0,1,17,3.07a14.68,14.68,0,0,1,1.75.11,2.44,2.44,0,0,1,2.1,2.1A13.83,13.83,0,0,1,16.86,16.86Zm-3-9.7a.7.7,0,0,0-1,1l.95.95L12,11,11,10a.7.7,0,1,0-1,1L11,12,9.1,13.84l-.95-.95a.7.7,0,0,0-1,1l3,3a.7.7,0,0,0,1-1l-.95-.95L12,13,13,14a.7.7,0,1,0,1-1L13,12l1.87-1.88.95.95a.7.7,0,0,0,1-1Z"/></svg>