<svg id="Layer_1" data-name="Layer 1" xmlns="http://www.w3.org/2000/svg" viewBox="0 0 24 24"><title>iconoteka_table_tennis__ping-pong_m_s</title><path d="M8,5A3,3,0,1,0,5,8,3,3,0,0,0,8,5ZM5,6.55A1.55,1.55,0,1,1,6.55,5,1.56,1.56,0,0,1,5,6.55Zm15.07.74A5.79,5.79,0,0,0,15.9,5.5a8.14,8.14,0,0,0-5.6,2.62A6.26,6.26,0,0,0,8.6,15,3,3,0,0,1,8,18.29L5.22,21.08l1.06,1.07L9,19.42a3,3,0,0,1,3.21-.71,5.8,5.8,0,0,0,2.31.48,6.7,6.7,0,0,0,4.72-2.12C22.18,14.14,22.93,10.15,20.07,7.29ZM18.19,16a5.2,5.2,0,0,1-3.66,1.68,4.81,4.81,0,0,1-3.37-1.48,4.8,4.8,0,0,1-1.48-3.35,5.14,5.14,0,0,1,1.68-3.68A6.62,6.62,0,0,1,15.9,7,4.28,4.28,0,0,1,19,8.35C21.53,10.87,20.14,14.05,18.19,16Z"/></svg>