<svg id="Layer_1" data-name="Layer 1" xmlns="http://www.w3.org/2000/svg" viewBox="0 0 24 24"><title>iconoteka_american_football_helmet_r_f</title><path d="M10,13.21a1.1,1.1,0,1,0,1.1,1.1A1.1,1.1,0,0,0,10,13.21Zm4.93,2.11A5.29,5.29,0,0,0,15,14.26v-.94a1,1,0,0,1,1-1h4V10.39a9,9,0,0,0-9-9h-.07a9,9,0,0,0-8.93,9v.47a9.32,9.32,0,0,0,.86,3.91l.87.25a2.6,2.6,0,0,1,1.63,1.41A5.07,5.07,0,0,0,10,19.32a5,5,0,0,0,3.78-1.74l2.69,4.66,5.58.08v-7Zm-4.93,1a2,2,0,1,1,2-2A2,2,0,0,1,10,16.31Zm11.09,5L17,21.3l-1.16-2h5.24Zm0-3H15.26l-.93-1.61a5.2,5.2,0,0,0,.25-.46h6.47Z"/></svg>