<svg id="Layer_1" data-name="Layer 1" xmlns="http://www.w3.org/2000/svg" viewBox="0 0 24 24"><title>iconoteka_boxing_glove__box_b_s</title><path d="M16,2H10A4,4,0,0,0,6,6a.43.43,0,0,0,0,0A2.53,2.53,0,0,0,4,8.52V9.69a8,8,0,0,0,2.34,5.65L8,17v5H18V17a6.84,6.84,0,0,0,2-4.83V6A4,4,0,0,0,16,2ZM10,4h6a2,2,0,0,1,2,2c0,2-.67,3-2,3H11A3,3,0,0,1,8,6,2,2,0,0,1,10,4Zm6,16H10V18h6Zm.59-4.41-.42.41H9.83l-.42-.41L7.76,13.93A5.93,5.93,0,0,1,6,9.69V8.52A.51.51,0,0,1,6.43,8,5,5,0,0,0,11,11h5a3.79,3.79,0,0,0,2-.53v1.7A4.83,4.83,0,0,1,16.59,15.59Z"/></svg>