<svg id="Layer_1" data-name="Layer 1" xmlns="http://www.w3.org/2000/svg" viewBox="0 0 24 24"><title>iconoteka_basketball_ball_r_f</title><path d="M19.17,5A10,10,0,0,0,12.5,2V11.5h4A10.39,10.39,0,0,1,19.17,5ZM7.47,11.5h4V2A10,10,0,0,0,4.83,5,10.39,10.39,0,0,1,7.47,11.5Zm14.5,0a9.88,9.88,0,0,0-2.14-5.71,9.43,9.43,0,0,0-2.3,5.71Zm-2.14,6.71A9.88,9.88,0,0,0,22,12.5H17.53A9.43,9.43,0,0,0,19.83,18.21ZM4.83,19a10,10,0,0,0,6.67,3V12.5h-4A10.39,10.39,0,0,1,4.83,19ZM2,12.5a9.88,9.88,0,0,0,2.14,5.71,9.43,9.43,0,0,0,2.3-5.71Zm10.47,0V22a10,10,0,0,0,6.67-3,10.39,10.39,0,0,1-2.64-6.47ZM4.17,5.79A9.88,9.88,0,0,0,2,11.5H6.47A9.43,9.43,0,0,0,4.17,5.79Z"/></svg>