<svg id="Layer_1" data-name="Layer 1" xmlns="http://www.w3.org/2000/svg" viewBox="0 0 24 24"><title>iconoteka_basketball_ball_r_s</title><path d="M12,2A10,10,0,1,0,22,12,10,10,0,0,0,12,2Zm.5,9.5V3A8.91,8.91,0,0,1,18,5.27a10.46,10.46,0,0,0-2.43,6.23Zm-1,0h-3A10.46,10.46,0,0,0,6.05,5.27,8.91,8.91,0,0,1,11.5,3Zm-4,0H3A8.87,8.87,0,0,1,5.34,6,9.47,9.47,0,0,1,7.48,11.5Zm0,1A9.47,9.47,0,0,1,5.34,18,8.92,8.92,0,0,1,3,12.5Zm1,0h3V21a8.91,8.91,0,0,1-5.45-2.24A10.46,10.46,0,0,0,8.48,12.5Zm4,0h3A10.46,10.46,0,0,0,18,18.73,8.91,8.91,0,0,1,12.5,21Zm4,0H21A8.92,8.92,0,0,1,18.66,18,9.47,9.47,0,0,1,16.52,12.5Zm0-1A9.47,9.47,0,0,1,18.66,6,8.87,8.87,0,0,1,21,11.5Z"/></svg>