<svg id="Layer_1" data-name="Layer 1" xmlns="http://www.w3.org/2000/svg" viewBox="0 0 24 24"><title>iconoteka_ice_hockey_l_s</title><path d="M6.5,7.5c1.44,0,3-.47,3-1.5V4h0c0-1-1.56-1.47-3-1.47S3.53,3,3.51,4h0V6C3.5,7,5.06,7.5,6.5,7.5ZM6.5,3C7.88,3,9,3.45,9,4S7.88,5,6.5,5,4,4.55,4,4,5.12,3,6.5,3ZM4,4.87a4.44,4.44,0,0,0,2.5.63A4.44,4.44,0,0,0,9,4.87V6c0,.55-1.12,1-2.5,1S4,6.55,4,6ZM19.16,3.73l-9,12.74-7,0L3.87,21h5.2a3,3,0,0,0,2.45-1.27L21.59,5.41Zm-8,15.71a2.53,2.53,0,0,1-2,1.06H4.3l-.57-3.57,6.44,0h.27l.15-.21L19.28,4.43l1.61,1.11Z"/></svg>