<svg id="Layer_1" data-name="Layer 1" xmlns="http://www.w3.org/2000/svg" viewBox="0 0 24 24"><title>iconoteka_tennis_b_s</title><path d="M20.34,6.28a5.23,5.23,0,0,0-3.71-1.56A6.7,6.7,0,0,0,12,6.88c-2.49,2.5-3.19,6-1.81,8.2L4.3,20.91l1.42,1.41,5.83-5.83a4.93,4.93,0,0,0,2.61.7,8.13,8.13,0,0,0,5.58-2.52C22.55,11.86,22.49,8.44,20.34,6.28Zm-2,7a6.18,6.18,0,0,1-4.17,1.93,2.79,2.79,0,0,1-2-.73,3.07,3.07,0,0,1-.7-2.57,6.46,6.46,0,0,1,1.9-3.59,4.68,4.68,0,0,1,3.26-1.58,3.23,3.23,0,0,1,2.3,1,3.14,3.14,0,0,1,1,2.44A4.81,4.81,0,0,1,18.33,13.26ZM8,5A3,3,0,1,0,5,8,3,3,0,0,0,8,5ZM3.7,5A1.3,1.3,0,1,1,5,6.3,1.3,1.3,0,0,1,3.7,5Z"/></svg>