<svg id="Layer_1" data-name="Layer 1" xmlns="http://www.w3.org/2000/svg" viewBox="0 0 24 24"><title>iconoteka_tennis_r_s</title><path d="M20.34,6.28a5.23,5.23,0,0,0-3.71-1.56A6.7,6.7,0,0,0,12,6.88c-2.26,2.27-3,5.32-2.15,7.54a2,2,0,0,1-.44,2.14l-4.7,4.7.7.71,4.72-4.71a1.94,1.94,0,0,1,2.14-.44,5.19,5.19,0,0,0,1.94.37,8.13,8.13,0,0,0,5.58-2.52C22.55,11.86,22.49,8.44,20.34,6.28ZM19,14a7.18,7.18,0,0,1-4.87,2.22,3.73,3.73,0,0,1-2.7-1C9.7,13.41,10.24,10,12.66,7.59a5.71,5.71,0,0,1,4-1.87,4.34,4.34,0,0,1,4.27,4.46A5.81,5.81,0,0,1,19,14ZM8,5A3,3,0,1,0,5,8,3,3,0,0,0,8,5ZM3,5A2,2,0,1,1,5,7,2,2,0,0,1,3,5Z"/></svg>