<svg id="Layer_1" data-name="Layer 1" xmlns="http://www.w3.org/2000/svg" viewBox="0 0 24 24"><title>iconoteka_football_ball__soccer_ball_l_s</title><path d="M12,2A10,10,0,1,0,22,12,10,10,0,0,0,12,2Zm9.49,9.83-2.77-2,1.06-3.26A9.41,9.41,0,0,1,21.49,11.83ZM12,2.5a9.45,9.45,0,0,1,2.78.42L12,4.94l-2.78-2A9.45,9.45,0,0,1,12,2.5ZM4.22,6.56,5.28,9.82l-2.77,2A9.41,9.41,0,0,1,4.22,6.56Zm.21,11.15H7.85L8.91,21A9.53,9.53,0,0,1,4.43,17.71ZM15.09,21l1.06-3.26h3.42A9.53,9.53,0,0,1,15.09,21Zm4.84-3.76H15.79l-1.28,3.94a9.18,9.18,0,0,1-5,0L8.21,17.21H4.07a9.41,9.41,0,0,1-1.55-4.77L5.87,10,4.59,6.07A9.58,9.58,0,0,1,8.65,3.12L12,5.55l3.35-2.43a9.58,9.58,0,0,1,4.06,3L18.13,10l3.35,2.43A9.41,9.41,0,0,1,19.93,17.21ZM8.49,10.86,9.83,15h4.34l1.34-4.13L12,8.31Zm5.32,3.63H10.19L9.08,11.05,12,8.93l2.92,2.12Z"/></svg>