<svg id="Layer_1" data-name="Layer 1" xmlns="http://www.w3.org/2000/svg" viewBox="0 0 24 24"><title>iconoteka_cup__prize__competitions_m_s</title><path d="M22,5H19V3H5V5H2A1,1,0,0,0,1,6V8a5,5,0,0,0,4.27,4.93,7,7,0,0,0,6,5v.69a2,2,0,0,1-1.52,1.94l-2.48.62V22h9.52v-.79l-2.48-.62a2,2,0,0,1-1.52-1.94V18a7,7,0,0,0,6-5A5,5,0,0,0,23,8V6A1,1,0,0,0,22,5ZM2.5,8V6.5H5V11c0,.11,0,.22,0,.34A3.49,3.49,0,0,1,2.5,8Zm15,3a5.5,5.5,0,0,1-11,0V4.5h11Zm4-3A3.49,3.49,0,0,1,19,11.34c0-.12,0-.23,0-.34V6.5h2.5Z"/></svg>