<svg id="Layer_1" data-name="Layer 1" xmlns="http://www.w3.org/2000/svg" viewBox="0 0 24 24"><title>iconoteka_cup__prize__competitions_l_s</title><path d="M22,5H19V3H5V5H2A1,1,0,0,0,1,6V8a5,5,0,0,0,4.67,5,7,7,0,0,0,4.83,3.87v.84A2,2,0,0,1,9,19.61l-2.49.62V22h11V20.23L15,19.61a2,2,0,0,1-1.51-1.94v-.84A7,7,0,0,0,18.33,13,5,5,0,0,0,23,8V6A1,1,0,0,0,22,5ZM1.5,8V6A.5.5,0,0,1,2,5.5H5V10a7,7,0,0,0,.44,2.43A4.48,4.48,0,0,1,1.5,8ZM14.89,20.09l2.11.53v.88H7v-.88l2.11-.53A2.49,2.49,0,0,0,11,17.67v-.75a6.29,6.29,0,0,0,2,0v.75A2.49,2.49,0,0,0,14.89,20.09ZM12,16.5A6.51,6.51,0,0,1,5.5,10V3.5h13V10A6.51,6.51,0,0,1,12,16.5ZM22.5,8a4.48,4.48,0,0,1-3.94,4.43A7,7,0,0,0,19,10V5.5h3a.5.5,0,0,1,.5.5Z"/></svg>