<svg id="Layer_1" data-name="Layer 1" xmlns="http://www.w3.org/2000/svg" viewBox="0 0 24 24"><title>iconoteka_american_football_ball_b_f</title><path d="M22.31,5.09a4,4,0,0,0-3.4-3.4A15.41,15.41,0,0,0,1.69,18.91a4,4,0,0,0,3.4,3.4A15.41,15.41,0,0,0,22.31,5.09ZM16.7,11.25a.91.91,0,0,1-1.28,0l-.7-.7L13.27,12l.7.7A.9.9,0,1,1,12.7,14l-.7-.7-1.45,1.45.7.7a.91.91,0,0,1,0,1.28.9.9,0,0,1-1.27,0L7.3,14a.9.9,0,0,1,0-1.27.91.91,0,0,1,1.28,0l.7.7L10.73,12l-.7-.7A.9.9,0,1,1,11.3,10l.7.7,1.45-1.45-.7-.7a.91.91,0,0,1,0-1.28A.9.9,0,0,1,14,7.3L16.7,10A.9.9,0,0,1,16.7,11.25Z"/></svg>