<svg id="Layer_1" data-name="Layer 1" xmlns="http://www.w3.org/2000/svg" viewBox="0 0 24 24"><title>iconoteka_american_football_helmet_b_s</title><path d="M15,14.32s0,0,0-.06v-.94a1,1,0,0,1,1-1h4V10.39a9,9,0,0,0-9-9h-.07a9,9,0,0,0-8.93,9v.47a9.32,9.32,0,0,0,.86,3.91l.87.25a2.6,2.6,0,0,1,1.63,1.41A5.07,5.07,0,0,0,10,19.32a5,5,0,0,0,3.78-1.74l2.69,4.66,5.58.08v-8Zm-2-1v.94a3.05,3.05,0,0,1-5.82,1.29,4.59,4.59,0,0,0-2.82-2.46A7.35,7.35,0,0,1,4,10.81v-.45a7,7,0,0,1,6.94-7H11a7,7,0,0,1,7,6.93H16A3,3,0,0,0,13,13.32Zm7.3,7.27-2.89,0-.8-1.38H20.3Zm0-3.12H15.62L14.79,16H20.3ZM10,13.16a1.15,1.15,0,1,0,1.12,1.15A1.15,1.15,0,0,0,10,13.16Z"/></svg>