<svg id="Layer_1" data-name="Layer 1" xmlns="http://www.w3.org/2000/svg" viewBox="0 0 24 24"><title>iconoteka_tennis_m_s</title><path d="M20.34,6.28a5.23,5.23,0,0,0-3.71-1.56A6.7,6.7,0,0,0,12,6.88a7.62,7.62,0,0,0-2.36,6.88,3.06,3.06,0,0,1-.75,3L4.48,21.08l1.06,1.07L9.9,17.79a3.09,3.09,0,0,1,3-.75,5.4,5.4,0,0,0,1.28.15,8.13,8.13,0,0,0,5.58-2.52C22.55,11.86,22.49,8.44,20.34,6.28Zm-1.66,7.33a6.69,6.69,0,0,1-4.52,2.08,3.23,3.23,0,0,1-2.34-.88,3.45,3.45,0,0,1-.84-3,6.88,6.88,0,0,1,2-3.88,5.21,5.21,0,0,1,3.62-1.72,3.84,3.84,0,0,1,3.77,3.94A5.29,5.29,0,0,1,18.68,13.61ZM8,5A3,3,0,1,0,5,8,3,3,0,0,0,8,5ZM3.45,5A1.55,1.55,0,1,1,5,6.55,1.56,1.56,0,0,1,3.45,5Z"/></svg>