<svg id="Layer_1" data-name="Layer 1" xmlns="http://www.w3.org/2000/svg" viewBox="0 0 24 24"><title>iconoteka_rugby_ball_l_s</title><path d="M6.49,6.49c4-4,9.2-5.4,12.48-3.63-2.43,0-6.47,2.22-10.18,5.93S2.81,16.54,2.86,19C1.09,15.69,2.51,10.46,6.49,6.49Zm11,11c-4,4-9.2,5.4-12.48,3.63,2.43.05,6.47-2.21,10.18-5.93s6-7.75,5.93-10.18C22.91,8.31,21.49,13.54,17.51,17.51ZM20.22,3.78c1.68,1.69-1.47,7.2-5.36,11.08s-9.39,7-11.08,5.36S5.25,13,9.14,9.14,18.53,2.1,20.22,3.78ZM6.14,6.14C1.41,10.87.2,17.33,3.43,20.57s9.7,2,14.43-2.71S23.8,6.67,20.57,3.43,10.87,1.41,6.14,6.14Z"/></svg>