<svg id="Layer_1" data-name="Layer 1" xmlns="http://www.w3.org/2000/svg" viewBox="0 0 24 24"><title>iconoteka_american_football_ball_r_f</title><path d="M22.31,5.09a4,4,0,0,0-3.4-3.4A15.41,15.41,0,0,0,1.69,18.91a4,4,0,0,0,3.4,3.4A15.41,15.41,0,0,0,22.31,5.09ZM17,11a.51.51,0,0,1-.71,0L15,9.7,12.71,12,14,13.27a.49.49,0,1,1-.7.7L12,12.71,9.7,15,11,16.27a.5.5,0,0,1-.71.71L7,13.74A.5.5,0,0,1,7.73,13L9,14.3l2.3-2.3L10,10.73a.49.49,0,1,1,.7-.7L12,11.29,14.3,9,13,7.73A.5.5,0,0,1,13.74,7L17,10.26A.51.51,0,0,1,17,11Z"/></svg>