<svg id="Layer_1" data-name="Layer 1" xmlns="http://www.w3.org/2000/svg" viewBox="0 0 24 24"><title>iconoteka_american_football_helmet_l_f</title><path d="M14.89,15.32A5.29,5.29,0,0,0,15,14.26v-.94a1,1,0,0,1,1-1h4V10.39a9,9,0,0,0-9-9h-.07a9,9,0,0,0-8.93,9v.47a9.32,9.32,0,0,0,.86,3.91l.87.25a2.6,2.6,0,0,1,1.63,1.41A5.07,5.07,0,0,0,10,19.32a5,5,0,0,0,3.78-1.74l2.69,4.66,5.58.08v-7Zm-4.93,1a2,2,0,1,1,2-2A2,2,0,0,1,10,16.31Zm11.55,5.5-4.8-.06-1.55-2.69h6.35Zm0-3.24H14.87l-.8-1.4a5,5,0,0,0,.66-1.36h6.78ZM10,12.81a1.5,1.5,0,1,0,1.5,1.5A1.5,1.5,0,0,0,10,12.81Z"/></svg>