<svg id="Layer_1" data-name="Layer 1" xmlns="http://www.w3.org/2000/svg" viewBox="0 0 24 24"><title>iconoteka_football_ball__soccer_ball_m_s</title><path d="M12,2A10,10,0,1,0,22,12,10,10,0,0,0,12,2Zm7.34,5.45a8.66,8.66,0,0,1,1.28,3.91L18.56,9.87ZM12,3.35a8.74,8.74,0,0,1,2.06.26L12,5.1,9.94,3.61A8.74,8.74,0,0,1,12,3.35ZM4.66,7.45l.78,2.42L3.38,11.36A8.66,8.66,0,0,1,4.66,7.45ZM5.4,17.58H8L8.73,20A8.79,8.79,0,0,1,5.4,17.58ZM15.27,20l.78-2.43H18.6A8.79,8.79,0,0,1,15.27,20Zm4.27-3.78H15.07l-1.38,4.25a8.49,8.49,0,0,1-3.38,0L8.93,16.23H4.46a8.6,8.6,0,0,1-1-3.22L7,10.38,5.65,6.15a8.61,8.61,0,0,1,2.74-2L12,6.77l3.61-2.62a8.61,8.61,0,0,1,2.74,2L17,10.38,20.59,13A8.6,8.6,0,0,1,19.54,16.23Zm-11-5.37L9.83,15h4.34l1.34-4.13L12,8.31Zm4.7,2.78H10.81l-.73-2.27L12,10l1.92,1.39Z"/></svg>