<svg id="Layer_1" data-name="Layer 1" xmlns="http://www.w3.org/2000/svg" viewBox="0 0 24 24"><title>iconoteka_basketball_ball_b_f</title><path d="M7.81,11.15h3.34V2A10,10,0,0,0,5.08,4.79,10.78,10.78,0,0,1,7.81,11.15ZM18.92,4.79A10,10,0,0,0,12.85,2v9.11h3.34A10.78,10.78,0,0,1,18.92,4.79ZM4,6.07A10,10,0,0,0,2,11.15H6.11A9.13,9.13,0,0,0,4,6.07Zm18,5.08A10,10,0,0,0,20,6.07a9.13,9.13,0,0,0-2.15,5.08ZM2,12.85A10,10,0,0,0,4,17.93a9.13,9.13,0,0,0,2.15-5.08Zm3,6.36A10,10,0,0,0,11.15,22V12.85H7.81A10.78,10.78,0,0,1,5.08,19.21Zm15-1.28A10,10,0,0,0,22,12.85H17.89A9.13,9.13,0,0,0,20,17.93Zm-7.19-5.08V22a10,10,0,0,0,6.07-2.75,10.78,10.78,0,0,1-2.73-6.36Z"/></svg>