<svg id="Layer_1" data-name="Layer 1" xmlns="http://www.w3.org/2000/svg" viewBox="0 0 24 24"><title>iconoteka_rugby_ball_r_s</title><path d="M6.88,6.88c3.59-3.58,8.2-5,11.26-3.81-2.37.27-6,2.42-9.31,5.76s-5.49,6.94-5.76,9.31C1.85,15.09,3.29,10.47,6.88,6.88ZM17.12,17.12c-3.59,3.59-8.2,5-11.26,3.81,2.37-.27,6-2.42,9.31-5.76s5.49-6.94,5.76-9.3C22.15,8.92,20.71,13.53,17.12,17.12Zm-2.69-2.69c-3.91,3.91-8.88,6.85-10.3,5.44s1.53-6.39,5.44-10.3,8.88-6.85,10.3-5.44S18.34,10.52,14.43,14.43ZM6.14,6.14C1.41,10.87.2,17.33,3.43,20.57s9.7,2,14.43-2.71S23.8,6.67,20.57,3.43,10.87,1.41,6.14,6.14Z"/></svg>