<svg id="Layer_1" data-name="Layer 1" xmlns="http://www.w3.org/2000/svg" viewBox="0 0 24 24"><title>iconoteka_basketball_ball_m_s</title><path d="M12,2A10,10,0,1,0,22,12,10,10,0,0,0,12,2Zm.67,9.33V3.38a8.63,8.63,0,0,1,4.93,2,10.55,10.55,0,0,0-2.24,5.91Zm-1.34,0H8.64A10.55,10.55,0,0,0,6.4,5.42a8.63,8.63,0,0,1,4.93-2Zm-4,0H3.38A8.73,8.73,0,0,1,5.43,6.38,9.25,9.25,0,0,1,7.29,11.33Zm0,1.34a9.25,9.25,0,0,1-1.86,5,8.73,8.73,0,0,1-2-5Zm1.35,0h2.69v8a8.63,8.63,0,0,1-4.93-2A10.57,10.57,0,0,0,8.64,12.67Zm4,0h2.69a10.57,10.57,0,0,0,2.24,5.91,8.63,8.63,0,0,1-4.93,2Zm4,0h3.91a8.73,8.73,0,0,1-2.05,5A9.25,9.25,0,0,1,16.71,12.67Zm0-1.34a9.25,9.25,0,0,1,1.86-4.95,8.73,8.73,0,0,1,2.05,5Z"/></svg>