<svg id="Layer_1" data-name="Layer 1" xmlns="http://www.w3.org/2000/svg" viewBox="0 0 24 24"><title>iconoteka_basketball_ball_l_s</title><path d="M12,2A10,10,0,1,0,22,12,10,10,0,0,0,12,2Zm9.49,9.75H16.26a9.64,9.64,0,0,1,2.57-6.34A9.51,9.51,0,0,1,21.49,11.75Zm-9.24,0V2.51a9.49,9.49,0,0,1,6.22,2.55,10.16,10.16,0,0,0-2.71,6.69Zm-.5,0H8.24A10.16,10.16,0,0,0,5.53,5.06a9.49,9.49,0,0,1,6.22-2.55Zm0,.5v9.24a9.49,9.49,0,0,1-6.22-2.55,10.21,10.21,0,0,0,2.71-6.69Zm.5,0h3.51a10.21,10.21,0,0,0,2.71,6.69,9.49,9.49,0,0,1-6.22,2.55ZM5.17,5.41a9.64,9.64,0,0,1,2.57,6.34H2.51A9.51,9.51,0,0,1,5.17,5.41ZM2.51,12.25H7.74a9.69,9.69,0,0,1-2.57,6.34A9.51,9.51,0,0,1,2.51,12.25Zm16.32,6.34a9.69,9.69,0,0,1-2.57-6.34h5.23A9.51,9.51,0,0,1,18.83,18.59Z"/></svg>