<svg id="Layer_1" data-name="Layer 1" xmlns="http://www.w3.org/2000/svg" viewBox="0 0 24 24"><title>iconoteka_basketball_ball_m_f</title><path d="M4,6a10,10,0,0,0-2,5.31h4.2A9.23,9.23,0,0,0,4,6Zm3.66,5.31h3.59V2A9.94,9.94,0,0,0,5,4.87,10.72,10.72,0,0,1,7.69,11.28Zm14.27,0A10,10,0,0,0,20,6a9.23,9.23,0,0,0-2.21,5.31ZM19,4.87A9.94,9.94,0,0,0,12.72,2v9.24h3.59A10.72,10.72,0,0,1,19,4.87ZM5,19.13A9.94,9.94,0,0,0,11.28,22V12.72H7.69A10.72,10.72,0,0,1,5,19.13ZM20,18a10,10,0,0,0,2-5.31h-4.2A9.23,9.23,0,0,0,20,18Zm-7.25-5.31V22A9.94,9.94,0,0,0,19,19.13a10.72,10.72,0,0,1-2.7-6.41ZM2,12.72A10,10,0,0,0,4,18a9.23,9.23,0,0,0,2.21-5.31Z"/></svg>