<svg id="Layer_1" data-name="Layer 1" xmlns="http://www.w3.org/2000/svg" viewBox="0 0 24 24"><title>iconoteka_boxing_glove__box_m_s</title><path d="M16,2H10A4,4,0,0,0,6,6a.43.43,0,0,0,0,0A2.53,2.53,0,0,0,4,8.52V9.69a8,8,0,0,0,2.34,5.65L8,17v5H18V17a6.84,6.84,0,0,0,2-4.83V6A4,4,0,0,0,16,2ZM10,3.5h6A2.5,2.5,0,0,1,18.5,6c0,2.89-1.36,3.5-2.5,3.5H11A3.5,3.5,0,0,1,7.5,6,2.5,2.5,0,0,1,10,3.5Zm6.5,17h-7V17.75h7Zm2-8.33a5.29,5.29,0,0,1-1.56,3.77l-.31.31H9.37l-2-2A6.49,6.49,0,0,1,5.5,9.69V8.52a1,1,0,0,1,.77-1A5,5,0,0,0,11,11h5a3.67,3.67,0,0,0,2.5-.88Z"/></svg>