<svg id="Layer_1" data-name="Layer 1" xmlns="http://www.w3.org/2000/svg" viewBox="0 0 24 24"><title>iconoteka_cup__prize__competitions_l_f</title><path d="M22,5H19V3H5V5H2A1,1,0,0,0,1,6V8a5,5,0,0,0,4.27,4.93,7,7,0,0,0,5.73,5v.52a2,2,0,0,1-1.51,1.94L7,21v1H17V21l-2.49-.62A2,2,0,0,1,13,18.44v-.52a7,7,0,0,0,5.73-5A5,5,0,0,0,23,8V6A1,1,0,0,0,22,5ZM1.5,8V6A.5.5,0,0,1,2,5.5H5V11a7.25,7.25,0,0,0,.14,1.41A4.5,4.5,0,0,1,1.5,8Zm21,0a4.5,4.5,0,0,1-3.64,4.41A7.25,7.25,0,0,0,19,11V5.5h3a.5.5,0,0,1,.5.5Z"/></svg>