<svg id="Layer_1" data-name="Layer 1" xmlns="http://www.w3.org/2000/svg" viewBox="0 0 24 24"><title>iconoteka_american_football_ball_r_s</title><path d="M22.31,5.09a4,4,0,0,0-3.4-3.4A15.79,15.79,0,0,0,17,1.57,15.4,15.4,0,0,0,1.69,18.91a4,4,0,0,0,3.4,3.4A15.79,15.79,0,0,0,7,22.43,15.4,15.4,0,0,0,22.31,5.09Zm-5.1,12.12A14.28,14.28,0,0,1,7,21.43a15.7,15.7,0,0,1-1.81-.11,3,3,0,0,1-2.54-2.54A14.41,14.41,0,0,1,17,2.57a15.7,15.7,0,0,1,1.81.11,3,3,0,0,1,2.54,2.54A14.3,14.3,0,0,1,17.21,17.21ZM13.74,7a.5.5,0,0,0-.71.71L14.3,9,12,11.29,10.73,10a.49.49,0,1,0-.7.7L11.29,12,9,14.3,7.73,13a.5.5,0,0,0-.71.71L10.26,17a.5.5,0,0,0,.71-.71L9.7,15l2.3-2.3L13.27,14a.49.49,0,1,0,.7-.7L12.71,12,15,9.7,16.27,11a.5.5,0,0,0,.71-.71Z"/></svg>