<svg id="Layer_1" data-name="Layer 1" xmlns="http://www.w3.org/2000/svg" viewBox="0 0 24 24"><title>iconoteka_table_tennis__ping-pong_b_s</title><path d="M8,5A3,3,0,1,0,5,8,3,3,0,0,0,8,5ZM5,6.3A1.3,1.3,0,1,1,6.3,5,1.3,1.3,0,0,1,5,6.3Zm15.07,1A5.79,5.79,0,0,0,15.9,5.5a8.14,8.14,0,0,0-5.6,2.62,6.24,6.24,0,0,0-1.76,6.71A3,3,0,0,1,7.91,18L5,20.91l1.42,1.41,2.86-2.86a2.85,2.85,0,0,1,3-.69,5.94,5.94,0,0,0,2.17.42,6.7,6.7,0,0,0,4.72-2.12C22.18,14.14,22.93,10.15,20.07,7.29Zm-2.23,8.36a4.71,4.71,0,0,1-3.31,1.54,4.33,4.33,0,0,1-3-1.34c-1.86-1.86-1.78-4.34.2-6.32a6.25,6.25,0,0,1,4.19-2,3.78,3.78,0,0,1,2.76,1.21C20.92,11,19.63,13.86,17.84,15.65Z"/></svg>