<svg id="Layer_1" data-name="Layer 1" xmlns="http://www.w3.org/2000/svg" viewBox="0 0 24 24"><title>iconoteka_tennis_b_f</title><path d="M20.34,6.28a5.23,5.23,0,0,0-3.71-1.56A6.7,6.7,0,0,0,12,6.88a7.65,7.65,0,0,0-2.39,6.74,3,3,0,0,1-.77,2.8L4.3,20.91l1.42,1.41,4.48-4.48a3.08,3.08,0,0,1,2.85-.76,5.8,5.8,0,0,0,1.11.11,8.13,8.13,0,0,0,5.58-2.52C22.55,11.86,22.49,8.44,20.34,6.28Zm-2,7a6.18,6.18,0,0,1-4.17,1.93,2.79,2.79,0,0,1-2-.73,3.07,3.07,0,0,1-.7-2.57,6.46,6.46,0,0,1,1.9-3.59,4.68,4.68,0,0,1,3.26-1.58,3.23,3.23,0,0,1,2.3,1,3.14,3.14,0,0,1,1,2.44A4.81,4.81,0,0,1,18.33,13.26ZM8,5A3,3,0,1,0,5,8,3,3,0,0,0,8,5Z"/></svg>