<svg id="Layer_1" data-name="Layer 1" xmlns="http://www.w3.org/2000/svg" viewBox="0 0 24 24"><title>iconoteka_american_football_ball_l_s</title><path d="M22.31,5.09a4,4,0,0,0-3.4-3.4A15.79,15.79,0,0,0,17,1.57,15.4,15.4,0,0,0,1.69,18.91a4,4,0,0,0,3.4,3.4A15.79,15.79,0,0,0,7,22.43,15.4,15.4,0,0,0,22.31,5.09ZM17.57,17.57A14.82,14.82,0,0,1,7,21.93a14.68,14.68,0,0,1-1.87-.12,3.46,3.46,0,0,1-3-3A14.89,14.89,0,0,1,17,2.07a14.68,14.68,0,0,1,1.87.12,3.46,3.46,0,0,1,3,3A14.81,14.81,0,0,1,17.57,17.57Zm-4-10.73a.26.26,0,0,0-.35,0,.25.25,0,0,0,0,.36l1.62,1.62L12,11.65,10.38,10a.25.25,0,0,0-.35.35L11.65,12,8.82,14.83,7.2,13.21a.25.25,0,0,0-.36,0,.26.26,0,0,0,0,.35l3.6,3.6a.26.26,0,0,0,.35,0,.25.25,0,0,0,0-.36L9.17,15.18,12,12.35,13.62,14a.25.25,0,0,0,.35-.35L12.35,12l2.83-2.83,1.62,1.62a.25.25,0,0,0,.36,0,.26.26,0,0,0,0-.35Z"/></svg>