<svg id="Layer_1" data-name="Layer 1" xmlns="http://www.w3.org/2000/svg" viewBox="0 0 24 24"><title>iconoteka_rugby_ball_m_s</title><path d="M7.28,7.28c3.2-3.2,7.2-4.68,10-4C15,3.88,11.83,5.9,8.87,8.87S3.88,15,3.29,17.3C2.6,14.48,4.08,10.48,7.28,7.28Zm9.44,9.44c-3.2,3.2-7.2,4.68-10,4,2.29-.6,5.47-2.62,8.43-5.59s5-6.14,5.59-8.43C21.4,9.52,19.92,13.52,16.72,16.72ZM14,14c-3.93,3.93-8.37,6.66-9.51,5.53S6.08,13.94,10,10s8.37-6.66,9.51-5.53S17.92,10.06,14,14ZM6.14,6.14C1.41,10.87.2,17.33,3.43,20.57s9.7,2,14.43-2.71S23.8,6.67,20.57,3.43,10.87,1.41,6.14,6.14Z"/></svg>