<svg id="Layer_1" data-name="Layer 1" xmlns="http://www.w3.org/2000/svg" viewBox="0 0 24 24"><title>iconoteka_american_football_ball_b_s</title><path d="M22.31,5.09a4,4,0,0,0-3.4-3.4A15.79,15.79,0,0,0,17,1.57,15.4,15.4,0,0,0,1.69,18.91a4,4,0,0,0,3.4,3.4A15.79,15.79,0,0,0,7,22.43,15.4,15.4,0,0,0,22.31,5.09Zm-5.8,11.42A13.32,13.32,0,0,1,7,20.43a13.69,13.69,0,0,1-1.69-.1,2,2,0,0,1-1.67-1.67A13.4,13.4,0,0,1,17,3.57a13.69,13.69,0,0,1,1.69.1,2,2,0,0,1,1.67,1.67A13.37,13.37,0,0,1,16.51,16.51ZM16,9.28h0L15.68,9,14,7.3a.9.9,0,0,0-1.27,0,.91.91,0,0,0,0,1.28l.7.7L12,10.73l-.7-.7A.9.9,0,1,0,10,11.3l.7.7L9.28,13.45l-.7-.7a.91.91,0,0,0-1.28,0A.9.9,0,0,0,7.3,14L10,16.7a.9.9,0,0,0,1.27,0,.91.91,0,0,0,0-1.28l-.7-.7L12,13.27l.7.7A.9.9,0,1,0,14,12.7l-.7-.7,1.45-1.45.7.7a.91.91,0,0,0,1.28,0,.9.9,0,0,0,0-1.27Z"/></svg>