<svg id="Layer_1" data-name="Layer 1" xmlns="http://www.w3.org/2000/svg" viewBox="0 0 24 24"><title>iconoteka_ice_hockey_r_s</title><path d="M6.5,8C8.59,8,10,7.2,10,6V4h0c0-1.18-1.42-2-3.5-2S3,2.79,3,4H3V6C3,7.2,4.41,8,6.5,8Zm0-5C7.88,3,9,3.45,9,4S7.88,5,6.5,5,4,4.55,4,4,5.12,3,6.5,3ZM4,5.46A5.21,5.21,0,0,0,6.5,6,5.21,5.21,0,0,0,9,5.46V6c0,.55-1.12,1-2.5,1S4,6.55,4,6Zm14.67-2L9.94,15.88l-6.87,0L3.88,21h5.5a3.32,3.32,0,0,0,2.73-1.42L21.86,5.69ZM11.32,19a2.37,2.37,0,0,1-1.94,1H4.71L4.2,16.82l5.74,0h.5l.29-.41L18.91,4.82l1.6,1.11Z"/></svg>