<svg id="Layer_1" data-name="Layer 1" xmlns="http://www.w3.org/2000/svg" viewBox="0 0 24 24"><title>iconoteka_american_football_helmet_m_f</title><path d="M15,14.32s0,0,0-.06V12.32a1,1,0,0,1,1-1h4v-.93a9,9,0,0,0-9-9h-.07a9,9,0,0,0-8.93,9v.47a9.32,9.32,0,0,0,.86,3.91l.87.25a2.6,2.6,0,0,1,1.63,1.41A5.07,5.07,0,0,0,10,19.32a5,5,0,0,0,3.78-1.74l2.69,4.66,5.58.08v-8Zm-5,.76A1.08,1.08,0,1,1,11.08,14,1.09,1.09,0,0,1,10,15.08ZM20.6,20.9l-3.37,0L16.17,19H20.6Zm0-3.28H15.36l-.78-1.36a3.42,3.42,0,0,0,.18-.54H20.6Z"/></svg>