<svg id="Layer_1" data-name="Layer 1" xmlns="http://www.w3.org/2000/svg" viewBox="0 0 24 24"><title>iconoteka_boxing_glove__box_l_s</title><path d="M16,2H10A4,4,0,0,0,6,6s0,0,0,.08A2.5,2.5,0,0,0,4,8.52V9.69a8,8,0,0,0,2.34,5.65L8,17v5H18V17a6.84,6.84,0,0,0,2-4.83V6A4,4,0,0,0,16,2Zm-6,.5h6A3.5,3.5,0,0,1,19.5,6c0,1.06-.25,4.5-3.5,4.5H11A4.51,4.51,0,0,1,6.5,6,3.5,3.5,0,0,1,10,2.5Zm7.5,19h-9V17.25h9Zm2-9.33a6.33,6.33,0,0,1-1.85,4.48l-.11.1H8.46l-.11-.1L6.7,15a7.44,7.44,0,0,1-2.2-5.3V8.52A2,2,0,0,1,6.06,6.57,5,5,0,0,0,11,11h5a3.57,3.57,0,0,0,3.5-2.31Z"/></svg>