<svg id="Layer_1" data-name="Layer 1" xmlns="http://www.w3.org/2000/svg" viewBox="0 0 24 24"><title>iconoteka_american_football_helmet_m_s</title><path d="M15,14.32s0,0,0-.06v-.94a1,1,0,0,1,1-1h4V10.39a9,9,0,0,0-9-9h-.07a9,9,0,0,0-8.93,9v.47a9.32,9.32,0,0,0,.86,3.91l.87.25a2.6,2.6,0,0,1,1.63,1.41A5.07,5.07,0,0,0,10,19.32a5,5,0,0,0,3.78-1.74l2.69,4.66,5.58.08v-8Zm-1.39-1v.94a3.65,3.65,0,0,1-7,1.54,4,4,0,0,0-2.51-2.16l-.23-.07a8.06,8.06,0,0,1-.49-2.76v-.46a7.63,7.63,0,0,1,7.54-7.56H11a7.61,7.61,0,0,1,7.6,7.6v.53H16A2.4,2.4,0,0,0,13.6,13.32Zm7,7.58-3.37,0L16.17,19H20.6Zm0-3.28H15.36l-.78-1.36a3.42,3.42,0,0,0,.18-.54H20.6ZM10,13.31a1,1,0,1,0,1,1A1,1,0,0,0,10,13.31Z"/></svg>