<svg id="Layer_1" data-name="Layer 1" xmlns="http://www.w3.org/2000/svg" viewBox="0 0 24 24"><title>iconoteka_football_ball__soccer_ball_r_s</title><path d="M12,2A10,10,0,1,0,22,12,10,10,0,0,0,12,2Zm7.6,5.2A9,9,0,0,1,21,11.42L18.75,9.81ZM12,3a9,9,0,0,1,2.22.29L12,4.9,9.78,3.29A9,9,0,0,1,12,3ZM4.4,7.2l.85,2.61L3,11.42A9,9,0,0,1,4.4,7.2Zm.68,10.54H7.83l.85,2.62A9.07,9.07,0,0,1,5.08,17.74Zm10.24,2.62.85-2.62h2.75A9.07,9.07,0,0,1,15.32,20.36Zm4.31-3.62H15.45l-1.3,4a8.7,8.7,0,0,1-4.3,0l-1.3-4H4.37A8.81,8.81,0,0,1,3,12.65l3.39-2.46-1.29-4A9,9,0,0,1,8.6,3.67L12,6.14l3.4-2.47A9,9,0,0,1,18.87,6.2l-1.29,4L21,12.65A8.81,8.81,0,0,1,19.63,16.74ZM8.49,10.86,9.83,15h4.34l1.34-4.13L12,8.31ZM13.44,14H10.56l-.9-2.75L12,9.54l2.34,1.7Z"/></svg>