<svg id="Layer_1" data-name="Layer 1" xmlns="http://www.w3.org/2000/svg" viewBox="0 0 24 24"><title>iconoteka_basketball_ball_b_s</title><path d="M12,2A10,10,0,1,0,22,12,10,10,0,0,0,12,2Zm.83,9.17V3.69a8.3,8.3,0,0,1,4.48,1.87,10.77,10.77,0,0,0-2.1,5.61Zm-1.66,0H8.79a10.77,10.77,0,0,0-2.1-5.61,8.3,8.3,0,0,1,4.48-1.87Zm-4,0H3.69A8.29,8.29,0,0,1,5.52,6.75,9.23,9.23,0,0,1,7.14,11.17Zm0,1.66a9.23,9.23,0,0,1-1.62,4.42,8.29,8.29,0,0,1-1.83-4.42Zm1.65,0h2.38v7.48a8.3,8.3,0,0,1-4.48-1.87A10.77,10.77,0,0,0,8.79,12.83Zm4,0h2.38a10.77,10.77,0,0,0,2.1,5.61,8.3,8.3,0,0,1-4.48,1.87Zm4,0h3.45a8.29,8.29,0,0,1-1.83,4.42A9.23,9.23,0,0,1,16.86,12.83Zm0-1.66a9.23,9.23,0,0,1,1.62-4.42,8.29,8.29,0,0,1,1.83,4.42Z"/></svg>