<svg id="Layer_1" data-name="Layer 1" xmlns="http://www.w3.org/2000/svg" viewBox="0 0 24 24"><title>iconoteka_tennis_l_s</title><path d="M20.34,6.28a5.23,5.23,0,0,0-3.71-1.56A6.7,6.7,0,0,0,12,6.88a8,8,0,0,0-2.5,6,6.12,6.12,0,0,1-1.9,4.73L4.29,20.88l1.45,1.46L9,19.07a6.25,6.25,0,0,1,4.35-1.91h.38l.43,0a8.11,8.11,0,0,0,5.57-2.52C22.55,11.86,22.49,8.44,20.34,6.28ZM8.66,18.72,5.74,21.63,5,20.88,7.91,18a7,7,0,0,0,1.93-3.52,4.14,4.14,0,0,0,2.3,2.34A6.93,6.93,0,0,0,8.66,18.72Zm10.73-4.4a7.62,7.62,0,0,1-5.22,2.37H14.1a4.18,4.18,0,0,1-3-1.16A4.15,4.15,0,0,1,10,12.86h0a7.43,7.43,0,0,1,2.36-5.61,6.16,6.16,0,0,1,4.32-2A4.67,4.67,0,0,1,20,6.64C22.07,8.72,21.83,11.88,19.39,14.32ZM8,5A3,3,0,1,0,5,8,3,3,0,0,0,8,5ZM2.5,5A2.5,2.5,0,1,1,5,7.5,2.5,2.5,0,0,1,2.5,5Z"/></svg>