<svg id="Layer_1" data-name="Layer 1" xmlns="http://www.w3.org/2000/svg" viewBox="0 0 24 24"><title>iconoteka_american_football_helmet_l_s</title><path d="M10,12.81a1.5,1.5,0,1,0,1.5,1.5A1.5,1.5,0,0,0,10,12.81Zm0,2.5a1,1,0,1,1,1-1A1,1,0,0,1,10,15.31Zm4.93,0A5.29,5.29,0,0,0,15,14.26v-.94a1,1,0,0,1,1-1h4V10.39a9,9,0,0,0-9-9h-.07a9,9,0,0,0-8.93,9v.47a9.32,9.32,0,0,0,.86,3.91l.87.25a2.6,2.6,0,0,1,1.63,1.41A5.07,5.07,0,0,0,10,19.32a5,5,0,0,0,3.78-1.74l2.69,4.66,5.58.08v-7ZM10,18.82a4.57,4.57,0,0,1-4.13-2.64A3.13,3.13,0,0,0,3.87,14.5l-.65-.19a8.77,8.77,0,0,1-.72-3.5v-.46a8.53,8.53,0,0,1,8.43-8.46H11a8.51,8.51,0,0,1,8.5,8.5v1.43H16a1.5,1.5,0,0,0-1.5,1.5v.94A4.56,4.56,0,0,1,10,18.82Zm11.56,3-4.8-.06-1.55-2.69h6.35Zm0-3.24H14.87l-.8-1.4a5,5,0,0,0,.66-1.36h6.78Z"/></svg>