<svg id="Layer_1" data-name="Layer 1" xmlns="http://www.w3.org/2000/svg" viewBox="0 0 24 24"><title>iconoteka_thunderstorm_with_hail_l_s</title><path d="M3.37,20.53,5,23l1.61-2.47L5,18.06ZM5,22.09,4,20.53,5,19l1,1.56Zm12.36-1.56L19,23l1.61-2.47L19,18.06ZM19,22.09l-1-1.56L19,19l1,1.56ZM20.64,8.36c0-.1,0-.2,0-.3a5,5,0,0,0-4.94-5,4.87,4.87,0,0,0-2.4.65A5.67,5.67,0,0,0,3.56,7.67q0,.3,0,.6A4,4,0,0,0,5,16h6.44l-1,3.89h3.1l-.9,3.51,1.63-4H11L11.94,16H19a4,4,0,0,0,1.64-7.64ZM19,15.5H5A3.49,3.49,0,0,1,3.77,8.74l.36-.14,0-.38a5.07,5.07,0,0,1,0-.55A5.18,5.18,0,0,1,9.23,2.5,5.11,5.11,0,0,1,13,4.1l.27.29.34-.19a4.36,4.36,0,0,1,2.16-.59,4.45,4.45,0,0,1,4.44,4.45.34.34,0,0,1,0,.1c0,.06,0,.11,0,.17l0,.34.32.15A3.49,3.49,0,0,1,19,15.5Z"/></svg>