<svg id="Layer_1" data-name="Layer 1" xmlns="http://www.w3.org/2000/svg" viewBox="0 0 24 24"><title>iconoteka_partly_cloudy_r_s</title><path d="M9.5,2h-1V5h1ZM5.11,6.4,3,4.28,2.28,5,4.4,7.11ZM3,10.5H0v1H3ZM2.28,17l.71.71L5.11,15.6l-.71-.71ZM15.5,4.76l-.73-.68-2,2.19.73.68Zm5.63,7.42A4.66,4.66,0,0,0,12.8,9.82a4,4,0,1,0-5.53,4.76A3.94,3.94,0,0,0,7,16a4,4,0,0,0,4,4h9a4,4,0,0,0,1.13-7.82ZM6,11a3,3,0,0,1,6,0,2.78,2.78,0,0,1-.19,1H11a4,4,0,0,0-3.27,1.7A3,3,0,0,1,6,11Zm14,8H11a3,3,0,0,1,0-6h1.72l.13-.85a3.67,3.67,0,0,1,7.28.14l.08.66.64.19A3,3,0,0,1,23,16,3,3,0,0,1,20,19Z"/></svg>