<svg id="Layer_1" data-name="Layer 1" xmlns="http://www.w3.org/2000/svg" viewBox="0 0 24 24"><title>iconoteka_cloud__cloudy_b_s</title><path d="M9.5,5a4.44,4.44,0,0,1,2.86,1l.94.77,1.12-.48A4.06,4.06,0,0,1,16,6a4,4,0,0,1,3.94,4.64l-.19,1.21,1,.73A3,3,0,0,1,22,15a3,3,0,0,1-3,3H5a3,3,0,0,1-1.16-5.77l1.42-.59-.21-1.52A5.28,5.28,0,0,1,5,9.5,4.51,4.51,0,0,1,9.5,5m0-2a6.44,6.44,0,0,0-6.43,7.39A5,5,0,0,0,5,20H19a5,5,0,0,0,2.92-9A5.89,5.89,0,0,0,22,10a6,6,0,0,0-6-6,5.8,5.8,0,0,0-2.36.49A6.49,6.49,0,0,0,9.5,3Z"/></svg>