<svg id="Layer_1" data-name="Layer 1" xmlns="http://www.w3.org/2000/svg" viewBox="0 0 24 24"><title>iconoteka_thunderstorm_with_rain_m_f</title><path d="M4.15,22.15a.85.85,0,1,0,1.7,0,38.3,38.3,0,0,0-.85-4A38.3,38.3,0,0,0,4.15,22.15Zm14,0a.85.85,0,0,0,1.7,0,38.3,38.3,0,0,0-.85-4A38.3,38.3,0,0,0,18.15,22.15ZM20.64,8.36c0-.1,0-.2,0-.3a5,5,0,0,0-4.94-5,4.87,4.87,0,0,0-2.4.65A5.67,5.67,0,0,0,3.56,7.67q0,.3,0,.6A4,4,0,0,0,5,16h6l-1,4h2.38l-.91,3.52,3.2-5H11.87L12.52,16H19a4,4,0,0,0,1.64-7.64Z"/></svg>