<svg id="Layer_1" data-name="Layer 1" xmlns="http://www.w3.org/2000/svg" viewBox="0 0 24 24"><title>iconoteka_thunderstorm_with_snow_m_f</title><path d="M20.94,18.86l-1.49.86V18h-.9v1.72l-1.49-.86-.45.78,1.49.86-1.49.86.45.78,1.49-.86V23h.9V21.28l1.49.86.45-.78L19.9,20.5l1.49-.86Zm-14,0-1.49.86V18h-.9v1.72l-1.49-.86-.45.78,1.49.86-1.49.86.45.78,1.49-.86V23h.9V21.28l1.49.86.45-.78L5.9,20.5l1.49-.86Zm13.7-10.5c0-.1,0-.2,0-.3a5,5,0,0,0-4.94-5,4.87,4.87,0,0,0-2.4.65A5.67,5.67,0,0,0,3.56,7.67q0,.3,0,.6A4,4,0,0,0,5,16h6l-1,4h2.38l-.91,3.52,3.2-5H11.87L12.52,16H19a4,4,0,0,0,1.64-7.64Z"/></svg>