<svg id="Layer_1" data-name="Layer 1" xmlns="http://www.w3.org/2000/svg" viewBox="0 0 24 24"><title>iconoteka_snowflake__snow__ac_unit__air_conditioner_m_a</title><polygon points="22 11.24 17.23 11.24 20.45 8.02 19.55 7.11 15.41 11.24 12.76 11.24 12.76 8.59 16.89 4.45 15.98 3.55 12.76 6.77 12.76 2 11.24 2 11.24 6.77 8.02 3.55 7.11 4.45 11.24 8.59 11.24 11.24 8.59 11.24 4.45 7.11 3.55 8.02 6.77 11.24 2 11.24 2 12.76 6.77 12.76 3.55 15.98 4.45 16.89 8.59 12.76 11.24 12.76 11.24 15.41 7.11 19.55 8.02 20.45 11.24 17.23 11.24 22 12.76 22 12.76 17.23 15.98 20.45 16.89 19.55 12.76 15.41 12.76 12.76 15.41 12.76 19.55 16.89 20.45 15.98 17.23 12.76 22 12.76 22 11.24"/></svg>