<svg id="Layer_1" data-name="Layer 1" xmlns="http://www.w3.org/2000/svg" viewBox="0 0 24 24"><title>iconoteka_show_heavy_r_f</title><path d="M20.64,8.36c0-.1,0-.2,0-.3a5,5,0,0,0-4.94-5,4.87,4.87,0,0,0-2.4.65A5.67,5.67,0,0,0,3.56,7.67q0,.3,0,.6A4,4,0,0,0,5,16H19a4,4,0,0,0,1.64-7.64ZM14,18.9l-1.56.91V18h-.8v1.81L10,18.9l-.41.7,1.57.9-1.57.9.41.7,1.56-.91V23h.8V21.19L14,22.1l.41-.7-1.57-.9,1.57-.9Zm7,0-1.56.91V18h-.8v1.81L17,18.9l-.41.7,1.57.9-1.57.9.41.7,1.56-.91V23h.8V21.19L21,22.1l.41-.7-1.57-.9,1.57-.9Zm-14,0-1.56.91V18H4.6v1.81L3,18.9l-.41.7,1.57.9-1.57.9.41.7,1.56-.91V23h.8V21.19L7,22.1l.41-.7L5.8,20.5l1.57-.9Z"/></svg>