<svg id="Layer_1" data-name="Layer 1" xmlns="http://www.w3.org/2000/svg" viewBox="0 0 24 24"><title>iconoteka_cloud__cloudy_m_s</title><path d="M9.33,4.5a4.75,4.75,0,0,1,3.26,1.28l.73.62.86-.4a4.17,4.17,0,0,1,2-.5,4.29,4.29,0,0,1,4.24,5.17l-.16.93.76.55A3.46,3.46,0,0,1,22.5,15,3.5,3.5,0,0,1,19,18.5H5a3.5,3.5,0,0,1-1.32-6.74l1.07-.45-.17-1.15a5,5,0,0,1-.08-.83A4.84,4.84,0,0,1,9.33,4.5m0-1.5A6.34,6.34,0,0,0,3,9.33a6,6,0,0,0,.1,1.05A5,5,0,0,0,5,20H19a5,5,0,0,0,2.88-9.07A5,5,0,0,0,22,9.83,5.83,5.83,0,0,0,16.17,4a5.6,5.6,0,0,0-2.61.64A6.24,6.24,0,0,0,9.33,3Z"/></svg>