<svg id="Layer_1" data-name="Layer 1" xmlns="http://www.w3.org/2000/svg" viewBox="0 0 24 24"><title>iconoteka_fire__hot_m_s</title><path d="M13.51,4.62a12,12,0,0,1,5,9.57,6.69,6.69,0,0,1-13.38.15h0v-.16A8.5,8.5,0,0,1,7.44,8.83,7.9,7.9,0,0,0,8.21,12a3.28,3.28,0,0,0,1.25,1.37,2.16,2.16,0,0,0,1,.33h.28a2.82,2.82,0,0,0,1.91-.86,4.18,4.18,0,0,0,1-1.53,11.25,11.25,0,0,0-.15-6.68M10.5,1c2.95,5,2.94,11.19.1,11.19-2,0-2-4.69-1.54-7-2.69,1.74-5.44,5.33-5.44,9h0a8.19,8.19,0,0,0,16.38,0h0C20,7.72,15.42,2.88,10.5,1Z"/></svg>