<svg id="Layer_1" data-name="Layer 1" xmlns="http://www.w3.org/2000/svg" viewBox="0 0 24 24"><title>iconoteka_rain_light_m_s</title><path d="M20.64,8.36c0-.1,0-.2,0-.3a5,5,0,0,0-4.94-5,4.87,4.87,0,0,0-2.4.65A5.67,5.67,0,0,0,3.56,7.67q0,.3,0,.6A4,4,0,0,0,5,16H19a4,4,0,0,0,1.64-7.64ZM19,14.5H5a2.49,2.49,0,0,1-.88-4.83l1.09-.41L5.08,8.11c0-.15,0-.29,0-.44A4.17,4.17,0,0,1,9.23,3.5a4.13,4.13,0,0,1,3,1.3l.8.84,1-.57A3.4,3.4,0,0,1,19.17,8h0l0,.25-.06,1,.94.43a2.49,2.49,0,0,1-1,4.77Zm-7.85,7.65a.85.85,0,0,0,1.7,0,38.3,38.3,0,0,0-.85-4A38.3,38.3,0,0,0,11.15,22.15Z"/></svg>