<svg id="Layer_1" data-name="Layer 1" xmlns="http://www.w3.org/2000/svg" viewBox="0 0 24 24"><title>iconoteka_hail_medium_r_s</title><path d="M20.64,8.36c0-.1,0-.2,0-.3a5,5,0,0,0-4.94-5,4.87,4.87,0,0,0-2.4.65A5.67,5.67,0,0,0,3.56,7.67q0,.3,0,.6A4,4,0,0,0,5,16H19a4,4,0,0,0,1.64-7.64ZM19,15H5a3,3,0,0,1-3-3A3,3,0,0,1,4,9.2l.72-.27-.08-.77a4,4,0,0,1,0-.49A4.67,4.67,0,0,1,9.23,3,4.6,4.6,0,0,1,12.6,4.45l.54.56.68-.38a3.89,3.89,0,0,1,1.91-.52A4,4,0,0,1,19.67,8v.05l0,.21,0,.69.63.28A3,3,0,0,1,19,15ZM7.37,20.53,9,23l1.61-2.47L9,18.06Zm1.64,1-.7-1L9,19.48l.68,1.05Zm4.36-1L15,23l1.61-2.47L15,18.06Zm1.64,1-.7-1,.7-1.05.68,1.05Z"/></svg>