<svg id="Layer_1" data-name="Layer 1" xmlns="http://www.w3.org/2000/svg" viewBox="0 0 24 24"><title>iconoteka_rain_light_l_s</title><path d="M20.64,8.36c0-.1,0-.2,0-.3a5,5,0,0,0-4.94-5,4.87,4.87,0,0,0-2.4.65A5.67,5.67,0,0,0,3.56,7.67q0,.3,0,.6A4,4,0,0,0,5,16H19a4,4,0,0,0,1.64-7.64ZM19,15.5H5A3.49,3.49,0,0,1,3.77,8.74l.36-.14,0-.38a5.07,5.07,0,0,1,0-.55A5.18,5.18,0,0,1,9.23,2.5,5.11,5.11,0,0,1,13,4.1l.27.29.34-.19a4.36,4.36,0,0,1,2.16-.59,4.45,4.45,0,0,1,4.44,4.45.34.34,0,0,1,0,.1c0,.06,0,.11,0,.17l0,.34.32.15A3.49,3.49,0,0,1,19,15.5Zm-8.37,6.13a1.37,1.37,0,0,0,2.74,0A12,12,0,0,0,12,18.06,12,12,0,0,0,10.63,21.63Zm2.24,0a.87.87,0,0,1-1.74,0A8,8,0,0,1,12,19.15,8,8,0,0,1,12.87,21.63Z"/></svg>