<svg id="Layer_1" data-name="Layer 1" xmlns="http://www.w3.org/2000/svg" viewBox="0 0 24 24"><title>iconoteka_thunderstorm_with_snow_l_s</title><path d="M21.07,19.08,19.2,20.15V18h-.4v2.15l-1.87-1.07-.19.34L18.6,20.5l-1.86,1.08.19.34,1.87-1.07V23h.4V20.85l1.87,1.07.19-.34L19.4,20.5l1.86-1.08Zm-14,0L5.2,20.15V18H4.8v2.15L2.93,19.08l-.19.34L4.6,20.5,2.74,21.58l.19.34L4.8,20.85V23h.4V20.85l1.87,1.07.19-.34L5.4,20.5l1.86-1.08ZM20.64,8.36c0-.1,0-.2,0-.3a5,5,0,0,0-4.94-5,4.87,4.87,0,0,0-2.4.65A5.67,5.67,0,0,0,3.56,7.67q0,.3,0,.6A4,4,0,0,0,5,16h6.44l-1,3.89h3.1l-.9,3.51,1.63-4H11L11.94,16H19a4,4,0,0,0,1.64-7.64ZM19,15.5H5A3.49,3.49,0,0,1,3.77,8.74l.36-.14,0-.38a5.07,5.07,0,0,1,0-.55A5.18,5.18,0,0,1,9.23,2.5,5.11,5.11,0,0,1,13,4.1l.27.29.34-.19a4.36,4.36,0,0,1,2.16-.59,4.45,4.45,0,0,1,4.44,4.45.34.34,0,0,1,0,.1c0,.06,0,.11,0,.17l0,.34.32.15A3.49,3.49,0,0,1,19,15.5Z"/></svg>