<svg id="Layer_1" data-name="Layer 1" xmlns="http://www.w3.org/2000/svg" viewBox="0 0 24 24"><title>iconoteka_show_heavy_m_f</title><path d="M20.64,8.36c0-.1,0-.2,0-.3a5,5,0,0,0-4.94-5,4.87,4.87,0,0,0-2.4.65A5.67,5.67,0,0,0,3.56,7.67q0,.3,0,.6A4,4,0,0,0,5,16H19a4,4,0,0,0,1.64-7.64ZM13.92,18.82l-1.42.81V18h-1v1.63l-1.42-.81-.5.86L11,20.5l-1.42.82.5.86,1.42-.81V23h1V21.37l1.42.81.5-.86L13,20.5l1.42-.82Zm7,0-1.42.81V18h-1v1.63l-1.42-.81-.5.86L18,20.5l-1.42.82.5.86,1.42-.81V23h1V21.37l1.42.81.5-.86L20,20.5l1.42-.82Zm-14,0-1.42.81V18h-1v1.63l-1.42-.81-.5.86L4,20.5l-1.42.82.5.86,1.42-.81V23h1V21.37l1.42.81.5-.86L6,20.5l1.42-.82Z"/></svg>