<svg id="Layer_1" data-name="Layer 1" xmlns="http://www.w3.org/2000/svg" viewBox="0 0 24 24"><defs><style>.cls-1{fill-rule:evenodd;}</style></defs><title>iconoteka_smog_b_a</title><path class="cls-1" d="M4.2,3.8A1.2,1.2,0,1,0,5.4,5,1.2,1.2,0,0,0,4.2,3.8ZM15.8,6.2A1.2,1.2,0,1,0,14.6,5,1.2,1.2,0,0,0,15.8,6.2Zm-7.73,0A1.2,1.2,0,1,0,6.87,5,1.2,1.2,0,0,0,8.07,6.2Zm3.86,0A1.2,1.2,0,1,0,10.73,5,1.2,1.2,0,0,0,11.93,6.2ZM8.2,8.8A1.2,1.2,0,1,0,9.4,10,1.2,1.2,0,0,0,8.2,8.8Zm11.6,2.4A1.2,1.2,0,1,0,18.6,10,1.2,1.2,0,0,0,19.8,11.2ZM12.07,8.8a1.2,1.2,0,1,0,1.2,1.2A1.2,1.2,0,0,0,12.07,8.8Zm3.86,0a1.2,1.2,0,1,0,1.2,1.2A1.2,1.2,0,0,0,15.93,8.8ZM4.2,13.8A1.2,1.2,0,1,0,5.4,15,1.2,1.2,0,0,0,4.2,13.8Zm11.6,2.4A1.2,1.2,0,1,0,14.6,15,1.2,1.2,0,0,0,15.8,16.2Zm-7.73,0A1.2,1.2,0,1,0,6.87,15,1.2,1.2,0,0,0,8.07,16.2Zm3.86,0a1.2,1.2,0,1,0-1.2-1.2A1.2,1.2,0,0,0,11.93,16.2ZM8.2,18.8A1.2,1.2,0,1,0,9.4,20,1.2,1.2,0,0,0,8.2,18.8Zm11.6,0A1.2,1.2,0,1,0,21,20,1.2,1.2,0,0,0,19.8,18.8Zm-7.73,0a1.2,1.2,0,1,0,1.2,1.2A1.2,1.2,0,0,0,12.07,18.8Zm3.86,0a1.2,1.2,0,1,0,1.2,1.2A1.2,1.2,0,0,0,15.93,18.8Z"/></svg>