<svg id="Layer_1" data-name="Layer 1" xmlns="http://www.w3.org/2000/svg" viewBox="0 0 24 24"><title>iconoteka_snowflake__snow__ac_unit__air_conditioner_b_a</title><polygon points="22 11 17.77 11 20.6 8.16 19.4 6.96 15.36 11 13 11 13 8.64 17.04 4.6 15.84 3.4 13 6.24 13 2 11 2 11 6.24 8.16 3.4 6.96 4.6 11 8.64 11 11 8.64 11 4.6 6.96 3.4 8.16 6.24 11 2 11 2 13 6.24 13 3.4 15.84 4.6 17.04 8.64 13 11 13 11 15.36 6.96 19.4 8.16 20.6 11 17.77 11 22 13 22 13 17.77 15.84 20.6 17.04 19.4 13 15.36 13 13 15.36 13 19.4 17.04 20.6 15.84 17.77 13 22 13 22 11"/></svg>