<svg id="Layer_1" data-name="Layer 1" xmlns="http://www.w3.org/2000/svg" viewBox="0 0 24 24"><title>iconoteka_hail_low_b_s</title><path d="M20.64,8.36c0-.1,0-.2,0-.3a5,5,0,0,0-4.94-5,4.87,4.87,0,0,0-2.4.65A5.67,5.67,0,0,0,3.56,7.67q0,.3,0,.6A4,4,0,0,0,5,16H19a4,4,0,0,0,1.64-7.64ZM19,14H5a2,2,0,0,1-2-2,2,2,0,0,1,1.3-1.86l1.44-.55L5.58,8.06c0-.13,0-.26,0-.39A3.68,3.68,0,0,1,9.23,4a3.61,3.61,0,0,1,2.65,1.14L13,6.26,14.3,5.5A2.91,2.91,0,0,1,18.67,8a2.28,2.28,0,0,0,0,.26l-.09,1.37,1.26.57A2,2,0,0,1,19,14Zm-8.64,6.53L12,23l1.61-2.47L12,18.06Z"/></svg>