<svg id="Layer_1" data-name="Layer 1" xmlns="http://www.w3.org/2000/svg" viewBox="0 0 24 24"><title>iconoteka_sleet_r_s</title><path d="M20.64,8.36c0-.1,0-.2,0-.3a5,5,0,0,0-4.94-5,4.87,4.87,0,0,0-2.4.65A5.67,5.67,0,0,0,3.56,7.67q0,.3,0,.6A4,4,0,0,0,5,16H19a4,4,0,0,0,1.64-7.64ZM19,15H5a3,3,0,0,1-3-3A3,3,0,0,1,4,9.2l.72-.27-.08-.77a4,4,0,0,1,0-.49A4.67,4.67,0,0,1,9.23,3,4.6,4.6,0,0,1,12.6,4.45l.54.56.68-.38a3.89,3.89,0,0,1,1.91-.52A4,4,0,0,1,19.67,8v.05l0,.21,0,.69.63.28A3,3,0,0,1,19,15Zm-1.52,3.93-1.61.92V18h-.75v1.85l-1.6-.92-.37.64,1.6.93-1.6.93.37.64,1.6-.92V23h.75V21.15l1.61.92.37-.64-1.6-.93,1.6-.93ZM6.4,21.4a1.6,1.6,0,0,0,3.2,0c0-1.28-1.6-3.77-1.6-3.77S6.4,20.12,6.4,21.4Zm1.6.82a.82.82,0,0,1-.82-.82A6.31,6.31,0,0,1,8,19.18a6.31,6.31,0,0,1,.82,2.22A.82.82,0,0,1,8,22.22Z"/></svg>