<svg id="Layer_1" data-name="Layer 1" xmlns="http://www.w3.org/2000/svg" viewBox="0 0 24 24"><title>iconoteka_show_heavy_r_s</title><path d="M20.64,8.36c0-.1,0-.2,0-.3a5,5,0,0,0-4.94-5,4.87,4.87,0,0,0-2.4.65A5.67,5.67,0,0,0,3.56,7.67q0,.3,0,.6A4,4,0,0,0,5,16H19a4,4,0,0,0,1.64-7.64ZM19,15H5a3,3,0,0,1-3-3A3,3,0,0,1,4,9.2l.72-.27-.08-.77a4,4,0,0,1,0-.49A4.67,4.67,0,0,1,9.23,3,4.6,4.6,0,0,1,12.6,4.45l.54.56.68-.38a3.89,3.89,0,0,1,1.91-.52A4,4,0,0,1,19.67,8v.05l0,.21,0,.69.63.28A3,3,0,0,1,19,15ZM14,19l-1.64.94V18h-.7v1.89L10,19l-.35.6,1.64.95-1.64.95.35.6,1.64-.94V23h.7V21.11l1.64.94.35-.6L12.7,20.5l1.64-.95Zm7,0-1.64.94V18h-.7v1.89L17,19l-.35.6,1.64.95-1.64.95.35.6,1.64-.94V23h.7V21.11l1.64.94.35-.6L19.7,20.5l1.64-.95ZM7,19l-1.64.94V18h-.7v1.89L3,19l-.35.6,1.64.95-1.64.95.35.6,1.64-.94V23h.7V21.11L7,22.05l.35-.6L5.7,20.5l1.64-.95Z"/></svg>