<svg id="Layer_1" data-name="Layer 1" xmlns="http://www.w3.org/2000/svg" viewBox="0 0 24 24"><title>iconoteka_thunderstorm_with_rain_l_f</title><path d="M3.63,21.63a1.37,1.37,0,0,0,2.74,0A12,12,0,0,0,5,18.06,12,12,0,0,0,3.63,21.63Zm2.24,0a.87.87,0,0,1-1.74,0A8,8,0,0,1,5,19.15,8,8,0,0,1,5.87,21.63Zm11.76,0a1.37,1.37,0,0,0,2.74,0A12,12,0,0,0,19,18.06,12,12,0,0,0,17.63,21.63Zm2.24,0a.87.87,0,0,1-1.74,0A8,8,0,0,1,19,19.15,8,8,0,0,1,19.87,21.63Zm.77-13.27c0-.1,0-.2,0-.3a5,5,0,0,0-4.94-5,4.87,4.87,0,0,0-2.4.65A5.67,5.67,0,0,0,3.56,7.67q0,.3,0,.6A4,4,0,0,0,5,16h6.44l-1,3.89h3.1l-.9,3.51,1.63-4H11L11.94,16H19a4,4,0,0,0,1.64-7.64Z"/></svg>