<svg id="Layer_1" data-name="Layer 1" xmlns="http://www.w3.org/2000/svg" viewBox="0 0 24 24"><title>iconoteka_snow_medium_r_f</title><path d="M20.64,8.36c0-.1,0-.2,0-.3a5,5,0,0,0-4.94-5,4.87,4.87,0,0,0-2.4.65A5.67,5.67,0,0,0,3.56,7.67q0,.3,0,.6A4,4,0,0,0,5,16H19a4,4,0,0,0,1.64-7.64ZM10.46,18.9l-1.56.91V18H8.1v1.81L6.54,18.9l-.41.7,1.57.9-1.57.9.41.7,1.56-.91V23h.8V21.19l1.56.91.41-.7L9.3,20.5l1.57-.9Zm7,0-1.56.91V18h-.8v1.81l-1.56-.91-.41.7,1.57.9-1.57.9.41.7,1.56-.91V23h.8V21.19l1.56.91.41-.7-1.57-.9,1.57-.9Z"/></svg>