<svg id="Layer_1" data-name="Layer 1" xmlns="http://www.w3.org/2000/svg" viewBox="0 0 24 24"><title>iconoteka_thunderstorm_with_snow_b_f</title><path d="M20.89,18.77l-1.34.78V18h-1.1v1.55l-1.34-.78-.55,1,1.34.77-1.34.77.55,1,1.34-.78V23h1.1V21.45l1.34.78.55-1L20.1,20.5l1.34-.77Zm-14,0-1.34.78V18H4.45v1.55l-1.34-.78-.55,1,1.34.77-1.34.77.55,1,1.34-.78V23h1.1V21.45l1.34.78.55-1L6.1,20.5l1.34-.77ZM20.64,8.36c0-.1,0-.2,0-.3a5,5,0,0,0-4.94-5,4.87,4.87,0,0,0-2.4.65A5.67,5.67,0,0,0,3.56,7.67q0,.3,0,.6A4,4,0,0,0,5,16h5.82l-1,4h2l-.91,3.51,4-5.51H12.3l.52-2H19a4,4,0,0,0,1.64-7.64Z"/></svg>