<svg id="Layer_1" data-name="Layer 1" xmlns="http://www.w3.org/2000/svg" viewBox="0 0 24 24"><title>iconoteka_thunderstorm_with_snow_r_f</title><path d="M21,19l-1.64.94V18h-.7v1.89L17,19l-.35.6,1.64.95-1.64.95.35.6,1.64-.94V23h.7V21.11l1.64.94.35-.6L19.7,20.5l1.64-.95ZM7,19l-1.64.94V18h-.7v1.89L3,19l-.35.6,1.64.95-1.64.95.35.6,1.64-.94V23h.7V21.11L7,22.05l.35-.6L5.7,20.5l1.64-.95ZM20.64,8.36c0-.1,0-.2,0-.3a5,5,0,0,0-4.94-5,4.87,4.87,0,0,0-2.4.65A5.67,5.67,0,0,0,3.56,7.67q0,.3,0,.6A4,4,0,0,0,5,16h6.23l-1,3.93h2.74L12,23.44l2.41-4.51h-3L12.23,16H19a4,4,0,0,0,1.64-7.64Z"/></svg>