<svg id="Layer_1" data-name="Layer 1" xmlns="http://www.w3.org/2000/svg" viewBox="0 0 24 24"><title>iconoteka_snowflake__snow__ac_unit__air_conditioner_r_a</title><polygon points="22 11.48 16.69 11.48 20.31 7.87 19.69 7.26 15.47 11.48 12.52 11.48 12.52 8.53 16.74 4.31 16.13 3.69 12.52 7.31 12.52 2 11.48 2 11.48 7.31 7.87 3.69 7.26 4.31 11.48 8.53 11.48 11.48 8.53 11.48 4.31 7.26 3.69 7.87 7.31 11.48 2 11.48 2 12.52 7.31 12.52 3.69 16.13 4.31 16.74 8.53 12.52 11.48 12.52 11.48 15.47 7.26 19.69 7.87 20.31 11.48 16.69 11.48 22 12.52 22 12.52 16.69 16.13 20.31 16.74 19.69 12.52 15.47 12.52 12.52 15.47 12.52 19.69 16.74 20.31 16.13 16.69 12.52 22 12.52 22 11.48"/></svg>