<svg id="Layer_1" data-name="Layer 1" xmlns="http://www.w3.org/2000/svg" viewBox="0 0 24 24"><title>iconoteka_cloud__cloudy_l_s</title><path d="M9,3.5a5.52,5.52,0,0,1,4.05,1.79l.29.31.36-.24a5,5,0,0,1,2.8-.86,5,5,0,0,1,5,5,5.42,5.42,0,0,1-.16,1.25l-.09.34.29.2A4.5,4.5,0,0,1,19,19.5H5a4.5,4.5,0,0,1-1.65-8.68l.39-.15-.09-.42A5.48,5.48,0,0,1,9,3.5M9,3A6,6,0,0,0,3,9a6.1,6.1,0,0,0,.16,1.36A5,5,0,0,0,5,20H19a5,5,0,0,0,2.82-9.13A5.59,5.59,0,0,0,22,9.5,5.5,5.5,0,0,0,13.41,5,5.93,5.93,0,0,0,9,3Z"/></svg>