<svg id="Layer_1" data-name="Layer 1" xmlns="http://www.w3.org/2000/svg" viewBox="0 0 24 24"><title>iconoteka_cloud__cloudy_r_s</title><path d="M9.17,4a5.13,5.13,0,0,1,3.65,1.53l.51.47.61-.32A4.48,4.48,0,0,1,16.33,5,4.67,4.67,0,0,1,21,9.67a4.29,4.29,0,0,1-.13,1l-.12.63.52.38A4,4,0,0,1,19,19H5a4,4,0,0,1-1.49-7.71l.74-.3-.14-.79a5.39,5.39,0,0,1-.11-1A5.18,5.18,0,0,1,9.17,4m0-1A6.17,6.17,0,0,0,3,9.17a6,6,0,0,0,.13,1.2A5,5,0,0,0,5,20H19a5,5,0,0,0,2.85-9.1A5.59,5.59,0,0,0,22,9.67,5.67,5.67,0,0,0,16.33,4a5.48,5.48,0,0,0-2.84.79A6.12,6.12,0,0,0,9.17,3Z"/></svg>