<svg id="Layer_1" data-name="Layer 1" xmlns="http://www.w3.org/2000/svg" viewBox="0 0 24 24"><title>iconoteka_snow_medium_m_f</title><path d="M20.64,8.36c0-.1,0-.2,0-.3a5,5,0,0,0-4.94-5,4.87,4.87,0,0,0-2.4.65A5.67,5.67,0,0,0,3.56,7.67q0,.3,0,.6A4,4,0,0,0,5,16H19a4,4,0,0,0,1.64-7.64ZM10.42,18.82,9,19.63V18H8v1.63l-1.42-.81-.5.86,1.42.82-1.42.82.5.86L8,21.37V23H9V21.37l1.42.81.5-.86L9.5,20.5l1.42-.82Zm7,0L16,19.63V18H15v1.63l-1.42-.81-.5.86,1.42.82-1.42.82.5.86L15,21.37V23h1V21.37l1.42.81.5-.86L16.5,20.5l1.42-.82Z"/></svg>