<svg id="Layer_1" data-name="Layer 1" xmlns="http://www.w3.org/2000/svg" viewBox="0 0 24 24"><title>iconoteka_snow_medium_b_f</title><path d="M20.64,8.36c0-.1,0-.2,0-.3a5,5,0,0,0-4.94-5,4.87,4.87,0,0,0-2.4.65A5.67,5.67,0,0,0,3.56,7.67q0,.3,0,.6A4,4,0,0,0,5,16H19a4,4,0,0,0,1.64-7.64ZM10.37,18.73l-1.27.73V18H7.9v1.46l-1.27-.73-.59,1,1.26.73L6,21.23l.59,1,1.27-.73V23H9.1V21.54l1.27.73.59-1L9.7,20.5,11,19.77Zm7,0-1.27.73V18H14.9v1.46l-1.27-.73-.59,1,1.26.73L13,21.23l.59,1,1.27-.73V23h1.2V21.54l1.27.73.59-1L16.7,20.5,18,19.77Z"/></svg>