<svg id="Layer_1" data-name="Layer 1" xmlns="http://www.w3.org/2000/svg" viewBox="0 0 24 24"><title>iconoteka_snowflake__snow__ac_unit__air_conditioner_l_a</title><polygon points="22 11.72 16.16 11.72 20.16 7.72 19.84 7.4 15.52 11.72 12.28 11.72 12.28 8.48 16.6 4.16 16.28 3.84 12.28 7.84 12.28 2 11.72 2 11.72 7.84 7.72 3.84 7.4 4.16 11.72 8.48 11.72 11.72 8.48 11.72 4.16 7.4 3.84 7.72 7.84 11.72 2 11.72 2 12.28 7.84 12.28 3.84 16.28 4.16 16.6 8.48 12.28 11.72 12.28 11.72 15.52 7.4 19.84 7.72 20.16 11.72 16.16 11.72 22 12.28 22 12.28 16.16 16.28 20.16 16.6 19.84 12.28 15.52 12.28 12.28 15.52 12.28 19.84 16.6 20.16 16.28 16.16 12.28 22 12.28 22 11.72"/></svg>