<svg id="Layer_1" data-name="Layer 1" xmlns="http://www.w3.org/2000/svg" viewBox="0 0 24 24"><title>iconoteka_partly_cloudy_b_s</title><path d="M10,2H8V5h2ZM5.46,6.05,3.34,3.93,1.93,5.34,4.05,7.46ZM3,10H0v2H3ZM1.93,16.66l1.41,1.41L5.46,16,4.05,14.54ZM15.87,5.1,14.41,3.74,12.36,5.93l1.46,1.36Zm4.86,6.09a4.65,4.65,0,0,0-8-1.53A4,4,0,1,0,7.12,14.5a4.8,4.8,0,0,0-.12,1A4.49,4.49,0,0,0,11.5,20h8a4.49,4.49,0,0,0,1.23-8.81ZM8,12.72A2,2,0,1,1,11,11s0,0,0,.05A4.42,4.42,0,0,0,8,12.72ZM19.5,18h-8a2.5,2.5,0,0,1,0-5h1.81l.49-1.28a2.67,2.67,0,0,1,5,.12l.34,1,1,.29A2.49,2.49,0,0,1,19.5,18Z"/></svg>