<svg id="Layer_1" data-name="Layer 1" xmlns="http://www.w3.org/2000/svg" viewBox="0 0 24 24"><title>iconoteka_thunderstorm_with_rain_r_f</title><path d="M3.63,21.63a1.37,1.37,0,0,0,2.74,0A12,12,0,0,0,5,18.06,12,12,0,0,0,3.63,21.63Zm2,0a.59.59,0,0,1-1.18,0A5.87,5.87,0,0,1,5,19.81,5.87,5.87,0,0,1,5.59,21.63Zm12,0a1.37,1.37,0,0,0,2.74,0A12,12,0,0,0,19,18.06,12,12,0,0,0,17.63,21.63Zm2,0a.59.59,0,0,1-1.18,0A5.87,5.87,0,0,1,19,19.81,5.87,5.87,0,0,1,19.59,21.63ZM20.64,8.36c0-.1,0-.2,0-.3a5,5,0,0,0-4.94-5,4.87,4.87,0,0,0-2.4.65A5.67,5.67,0,0,0,3.56,7.67q0,.3,0,.6A4,4,0,0,0,5,16h6.23l-1,3.93h2.74L12,23.44l2.41-4.51h-3L12.23,16H19a4,4,0,0,0,1.64-7.64Z"/></svg>