<svg id="Layer_1" data-name="Layer 1" xmlns="http://www.w3.org/2000/svg" viewBox="0 0 24 24"><title>iconoteka_partly_cloudy_m_s</title><path d="M9.75,2H8.25V5h1.5ZM5.29,6.23,3.17,4.11,2.11,5.17,4.23,7.29ZM3,10.25H0v1.5H3Zm-.89,6.58,1.06,1.06,2.12-2.12L4.23,14.71ZM15.69,4.93l-1.1-1L12.54,6.1l1.1,1Zm5,6.26a4.65,4.65,0,0,0-8-1.52A4,4,0,1,0,7.12,14.5a4.72,4.72,0,0,0-.12,1A4.49,4.49,0,0,0,11.5,20h8a4.49,4.49,0,0,0,1.23-8.81Zm-13,1.93A2.49,2.49,0,1,1,11.5,11,4.47,4.47,0,0,0,7.7,13.12ZM19.5,18.5h-8a3,3,0,0,1,0-6H13l.37-1a3.17,3.17,0,0,1,6,.13l.25.75.76.21a3,3,0,0,1-.82,5.87Z"/></svg>