<svg id="Layer_1" data-name="Layer 1" xmlns="http://www.w3.org/2000/svg" viewBox="0 0 24 24"><title>iconoteka_fire__hot_r_s</title><path d="M12.56,3.33A12.78,12.78,0,0,1,19,14.19a7.19,7.19,0,0,1-14.38.14h0v-.15a9.72,9.72,0,0,1,3.3-6.63A10.65,10.65,0,0,0,8.33,11a3.76,3.76,0,0,0,1,1.7,2,2,0,0,0,1.05.48l.29,0a2.44,2.44,0,0,0,2-1,4.58,4.58,0,0,0,.78-1.76,12.9,12.9,0,0,0-.86-7.06M10.5,1c2.95,5,2.94,11.19.1,11.19-2,0-2-4.69-1.54-7-2.69,1.74-5.44,5.33-5.44,9h0a8.19,8.19,0,0,0,16.38,0h0C20,7.72,15.42,2.88,10.5,1Z"/></svg>