<svg id="Layer_1" data-name="Layer 1" xmlns="http://www.w3.org/2000/svg" viewBox="0 0 24 24"><defs><style>.cls-1{fill-rule:evenodd;}</style></defs><title>iconoteka_smog_m_a</title><path class="cls-1" d="M3.9,3.6a.9.9,0,1,0,.9.9A.9.9,0,0,0,3.9,3.6ZM8,3.6a.9.9,0,1,0,.9.9A.9.9,0,0,0,8,3.6ZM12,3.6a.9.9,0,1,0,.9.9A.9.9,0,0,0,12,3.6Zm4.05,0a.9.9,0,1,0,.9.9A.9.9,0,0,0,16.05,3.6ZM8,8.6a.9.9,0,1,0,.9.9A.9.9,0,0,0,8,8.6ZM12,8.6a.9.9,0,1,0,.9.9A.9.9,0,0,0,12,8.6Zm4.05,0a.9.9,0,1,0,.9.9A.9.9,0,0,0,16.05,8.6Zm4.05,1.8a.9.9,0,1,0-.9-.9A.9.9,0,0,0,20.1,10.4ZM3.9,13.6a.9.9,0,1,0,.9.9A.9.9,0,0,0,3.9,13.6ZM8,13.6a.9.9,0,1,0,.9.9A.9.9,0,0,0,8,13.6Zm4.05,0a.9.9,0,1,0,.9.9A.9.9,0,0,0,12,13.6Zm4.05,0a.9.9,0,1,0,.9.9A.9.9,0,0,0,16.05,13.6ZM8,18.6a.9.9,0,1,0,.9.9A.9.9,0,0,0,8,18.6Zm4.05,0a.9.9,0,1,0,.9.9A.9.9,0,0,0,12,18.6Zm4.05,0a.9.9,0,1,0,.9.9A.9.9,0,0,0,16.05,18.6Zm4.05,0a.9.9,0,1,0,.9.9A.9.9,0,0,0,20.1,18.6Z"/></svg>