<svg id="Layer_1" data-name="Layer 1" xmlns="http://www.w3.org/2000/svg" viewBox="0 0 24 24"><defs><style>.cls-1{fill-rule:evenodd;}</style></defs><title>iconoteka_smog_l_a</title><path class="cls-1" d="M3.4,4.1a.4.4,0,1,0,.4.4A.4.4,0,0,0,3.4,4.1Zm4.3,0a.4.4,0,1,0,.4.4A.4.4,0,0,0,7.7,4.1Zm4.3,0a.4.4,0,1,0,.4.4A.4.4,0,0,0,12,4.1Zm4.3,0a.4.4,0,1,0,.4.4A.4.4,0,0,0,16.3,4.1Zm-8.6,5a.4.4,0,1,0,.4.4A.4.4,0,0,0,7.7,9.1Zm4.3,0a.4.4,0,1,0,.4.4A.4.4,0,0,0,12,9.1Zm4.3,0a.4.4,0,1,0,.4.4A.4.4,0,0,0,16.3,9.1Zm4.3.8a.4.4,0,1,0-.4-.4A.4.4,0,0,0,20.6,9.9ZM3.4,14.1a.4.4,0,1,0,.4.4A.4.4,0,0,0,3.4,14.1Zm4.3,0a.4.4,0,1,0,.4.4A.4.4,0,0,0,7.7,14.1Zm4.3,0a.4.4,0,1,0,.4.4A.4.4,0,0,0,12,14.1Zm4.3,0a.4.4,0,1,0,.4.4A.4.4,0,0,0,16.3,14.1Zm-8.6,5a.4.4,0,1,0,.4.4A.4.4,0,0,0,7.7,19.1Zm4.3,0a.4.4,0,1,0,.4.4A.4.4,0,0,0,12,19.1Zm4.3,0a.4.4,0,1,0,.4.4A.4.4,0,0,0,16.3,19.1Zm4.3,0a.4.4,0,1,0,.4.4A.4.4,0,0,0,20.6,19.1Z"/></svg>