<svg id="Layer_1" data-name="Layer 1" xmlns="http://www.w3.org/2000/svg" viewBox="0 0 24 24"><title>iconoteka_partly_cloudy_l_s</title><path d="M9.25,2h-.5V5h.5ZM2.46,4.81,4.58,6.93l.35-.35L2.81,4.46ZM3,10.75H0v.5H3Zm-.54,6.44.35.35,2.12-2.12-.35-.35ZM15.32,4.59,15,4.25,12.91,6.44l.36.34Zm5.62,7.53a4.66,4.66,0,0,0-8.2-2.45,4,4,0,1,0-5.47,4.92A3.89,3.89,0,0,0,7,16a4,4,0,0,0,4,4h9a4,4,0,0,0,.94-7.88ZM5.5,11a3.48,3.48,0,0,1,6.87-.82A4.84,4.84,0,0,0,11.68,12H11a4,4,0,0,0-3.52,2.14A3.5,3.5,0,0,1,5.5,11ZM20,19.5H11a3.5,3.5,0,0,1,0-7h1.11l.07-.43a4.17,4.17,0,0,1,8.27.11l0,.35.33.08A3.49,3.49,0,0,1,20,19.5Z"/></svg>