<svg id="Layer_1" data-name="Layer 1" xmlns="http://www.w3.org/2000/svg" viewBox="0 0 24 24"><defs><style>.cls-1{fill:none;}</style></defs><title>iconoteka_smoke_free_b_s</title><rect class="cls-1" width="24" height="24"/><polygon points="3.94 9.15 5.94 7.15 7.93 9.15 9.06 8.02 7.07 6.02 9.06 4.02 7.93 2.89 5.94 4.89 3.94 2.89 2.81 4.02 4.81 6.02 2.81 8.02 3.94 9.15"/><path d="M3,21H21V16H3Zm16.2-1.8H16.9V17.8h2.3ZM4.8,17.8H15.1v1.4H4.8Z"/><path d="M14.65,11.05a.88.88,0,0,1,.48.79V14h2V11.84a2.9,2.9,0,0,0-1.54-2.56A4.88,4.88,0,0,1,13,5V3H11V5A6.9,6.9,0,0,0,14.65,11.05Z"/><path d="M17.47,5.75A.89.89,0,0,1,17,5V3H15V5a2.91,2.91,0,0,0,1.53,2.56,4.89,4.89,0,0,1,2.6,4.32V14h2V11.84A6.89,6.89,0,0,0,17.47,5.75Z"/></svg>