<svg id="Layer_1" data-name="Layer 1" xmlns="http://www.w3.org/2000/svg" viewBox="0 0 24 24"><defs><style>.cls-1{fill:none;}</style></defs><title>iconoteka_smoking_rooms_b_s</title><rect class="cls-1" width="24" height="24"/><path d="M3,21H21V16H3Zm16.2-1.8H16.9V17.8h2.3ZM4.8,17.8H15.1v1.4H4.8Z"/><path d="M14.05,11.22a1.63,1.63,0,0,1,1.08,1.54V14h2V12.76a3.65,3.65,0,0,0-2.4-3.42A5.65,5.65,0,0,1,11,4V3H9V4A7.64,7.64,0,0,0,14.05,11.22Z"/><path d="M16.08,5.58A1.64,1.64,0,0,1,15,4V3H13V4a3.65,3.65,0,0,0,2.4,3.42,5.65,5.65,0,0,1,3.73,5.3V14h2V12.76A7.64,7.64,0,0,0,16.08,5.58Z"/></svg>