<svg id="Hot_2" data-name="Hot 2" xmlns="http://www.w3.org/2000/svg" viewBox="0 0 24 24"><title>iconoteka_earth_america__planet_b_f</title><path d="M12,2A10,10,0,1,0,22,12,10,10,0,0,0,12,2Zm0,18.3a8.26,8.26,0,0,1-6.06-2.65A2.2,2.2,0,0,0,7,15.76a2.25,2.25,0,0,0-2.25-2.25,2.43,2.43,0,0,0-.88.18A8.57,8.57,0,0,1,3.7,12,8.33,8.33,0,0,1,6.12,6.14a.92.92,0,0,0,.79.48H7a1,1,0,0,1,1,1v2.8a3,3,0,0,0,.88,2.12l2.7,2.7,0,3.57h1.68a2,2,0,0,0,1.88-1.32l1.1-3a2,2,0,0,0-1.88-2.68h-3a1,1,0,0,1,0-2h2.89a1,1,0,0,0,.93-.66l.61-1.66A2,2,0,0,0,13.9,4.81h-6a8.25,8.25,0,0,1,10.6,2l-.54,1.49A2,2,0,0,0,19.82,11h.41A8.23,8.23,0,0,1,12,20.3Z"/></svg>