<svg id="Hot_2" data-name="Hot 2" xmlns="http://www.w3.org/2000/svg" viewBox="0 0 24 24"><title>iconoteka_pool_b_r_a</title><path d="M14.82,20.11a4.16,4.16,0,0,0-5.64,0A3.39,3.39,0,0,1,7,21a3.39,3.39,0,0,1-2.18-.89A4.45,4.45,0,0,0,2,19v1a3.39,3.39,0,0,1,2.18.89A4.45,4.45,0,0,0,7,22a4.45,4.45,0,0,0,2.82-1.11,3.09,3.09,0,0,1,4.36,0A4.45,4.45,0,0,0,17,22a4.45,4.45,0,0,0,2.82-1.11A3.39,3.39,0,0,1,22,20V19a4.45,4.45,0,0,0-2.82,1.11A3.09,3.09,0,0,1,14.82,20.11Zm4.36-4.5a3.07,3.07,0,0,1-3.18.7V4a2,2,0,0,0-2-2H13V3h1a1,1,0,0,1,1,1V6H9V4A2,2,0,0,0,7,2H6V3H7A1,1,0,0,1,8,4V16.31a2.91,2.91,0,0,1-1,.19,3.39,3.39,0,0,1-2.18-.89A4.45,4.45,0,0,0,2,14.5v1a3.39,3.39,0,0,1,2.18.89A4.45,4.45,0,0,0,7,17.5a4.45,4.45,0,0,0,2.82-1.11,3.09,3.09,0,0,1,4.36,0A4.45,4.45,0,0,0,17,17.5a4.45,4.45,0,0,0,2.82-1.11A3.39,3.39,0,0,1,22,15.5v-1A4.45,4.45,0,0,0,19.18,15.61ZM15,15.74l-.18-.13a4.16,4.16,0,0,0-5.64,0L9,15.74V13h6ZM15,12H9V10h6Zm0-3H9V7h6Z"/></svg>