<svg id="Hot_2" data-name="Hot 2" xmlns="http://www.w3.org/2000/svg" viewBox="0 0 24 24"><defs><style>.cls-1{fill:#231f20;}</style></defs><title>iconoteka_drop_pin_location_place_r_s</title><path class="cls-1" d="M11.33,18.93l.67.6.67-.6C12.93,18.7,19,13.18,19,8A7,7,0,0,0,5,8C5,13.18,11.07,18.7,11.33,18.93ZM12,2a6,6,0,0,1,6,6c0,4.75-5.94,10.13-6,10.19h0C11.94,18.13,6,12.75,6,8A6,6,0,0,1,12,2ZM4,22v1H20V22ZM13.5,8A1.5,1.5,0,1,0,12,9.5,1.5,1.5,0,0,0,13.5,8ZM11.4,8a.6.6,0,1,1,.6.6A.6.6,0,0,1,11.4,8Z"/></svg>