<svg id="Hot_2" data-name="Hot 2" xmlns="http://www.w3.org/2000/svg" viewBox="0 0 24 24"><title>iconoteka_dice__casino_b_f</title><path d="M18.33,3h-12a3,3,0,0,0-3,3V18a3,3,0,0,0,3,3h12a3,3,0,0,0,3-3V6A3,3,0,0,0,18.33,3Zm-10,14.35A1.35,1.35,0,1,1,9.68,16,1.35,1.35,0,0,1,8.33,17.35Zm0-8A1.35,1.35,0,1,1,9.68,8,1.35,1.35,0,0,1,8.33,9.35Zm4,4A1.35,1.35,0,1,1,13.68,12,1.35,1.35,0,0,1,12.33,13.35Zm4,4A1.35,1.35,0,1,1,17.68,16,1.35,1.35,0,0,1,16.33,17.35Zm0-8A1.35,1.35,0,1,1,17.68,8,1.35,1.35,0,0,1,16.33,9.35Z"/></svg>