<svg id="Hot_2" data-name="Hot 2" xmlns="http://www.w3.org/2000/svg" viewBox="0 0 24 24"><title>iconoteka_beach__vacation__umbrella_r_s</title><path d="M12.49,11.87l9.3-2.49A11,11,0,0,0,11.81,2a9.72,9.72,0,0,0-2.43.32C4.29,3.72,1.24,9.06,2.14,14.64l5.1-1.36h0l4.28-1.15L13.37,19,13,19a15.45,15.45,0,0,0-9,3H21.94a15.81,15.81,0,0,0-7.52-2.92ZM8,12c-.8-4.66,0-8.29,1.61-8.71h0a1.12,1.12,0,0,1,.32,0c1.59,0,3.92,2.68,5.43,6.78l-3,.8ZM20.41,8.71l-4,1.09c-1.25-3.4-3-5.82-4.78-6.75l.22,0A9.83,9.83,0,0,1,20.41,8.71ZM3,13.38A9.74,9.74,0,0,1,7.79,4.07c-1,1.68-1.35,4.68-.74,8.22ZM7.9,21a13.38,13.38,0,0,1,10.15,0Z"/></svg>