<svg id="Hot_2" data-name="Hot 2" xmlns="http://www.w3.org/2000/svg" viewBox="0 0 24 24"><title>iconoteka_planet__earth_b_s</title><path d="M12,2A10,10,0,1,0,22,12,10,10,0,0,0,12,2Zm6.35,5.15h-2.3a.16.16,0,0,1-.13-.07.14.14,0,0,1,0-.15l.79-1.38A8,8,0,0,1,18.35,7.15ZM5.89,6.85H9.27a.14.14,0,0,1,.13.08.14.14,0,0,1,0,.15L8.2,9.15h-2a2.35,2.35,0,0,0-2,1.12A8.05,8.05,0,0,1,5.89,6.85Zm.26,10.59a8,8,0,0,1-2.13-5,2.37,2.37,0,0,0,2.13,1.44ZM12,20a7.89,7.89,0,0,1-4.11-1.15h1.6l2.28-3.92a1.86,1.86,0,0,0-1.6-2.78h-4a.65.65,0,1,1,0-1.3h3l1.69-2.92a1.85,1.85,0,0,0,0-1.85,1.82,1.82,0,0,0-1.6-.93H7.89a7.93,7.93,0,0,1,7.35-.46l-.8,1.39a1.85,1.85,0,0,0,1.61,2.77h3.29a8.28,8.28,0,0,1,.44,1.3H16.5a2.35,2.35,0,0,0-.36,4.67v3h1.29A8,8,0,0,1,12,20ZM7.85,17.15v-3.3h2.32a.14.14,0,0,1,.13.08.14.14,0,0,1,0,.15L8.51,17.15Zm11-1h-1l0-3H16.5a.65.65,0,0,1,0-1.3H20c0,.05,0,.1,0,.15A7.93,7.93,0,0,1,18.83,16.15Z"/></svg>