<svg id="Hot_2" data-name="Hot 2" xmlns="http://www.w3.org/2000/svg" viewBox="0 0 24 24"><title>iconoteka_theaters__entertainment_b_s</title><path d="M13.73,17.25h4.5a2.25,2.25,0,0,0-4.5,0Zm4.47-4.84a1.2,1.2,0,1,0-1.2-1.2A1.2,1.2,0,0,0,18.2,12.41ZM15,6V2H1v9a7,7,0,0,0,7,7,7.16,7.16,0,0,0,1.61-.19A7,7,0,0,0,23,15V6ZM8,16.1A5.11,5.11,0,0,1,2.9,11V3.9H13.1V11A5.11,5.11,0,0,1,8,16.1ZM21.1,15a5.08,5.08,0,0,1-9.71,2.12A7,7,0,0,0,15,11V7.9h6.1ZM8,13.25A2.25,2.25,0,0,0,10.23,11H5.73A2.25,2.25,0,0,0,8,13.25ZM10.2,6a1.2,1.2,0,1,0,1.2,1.2A1.2,1.2,0,0,0,10.2,6ZM7,7.21a1.2,1.2,0,1,0-2.4,0,1.2,1.2,0,1,0,2.4,0Z"/></svg>