<svg id="Hot_2" data-name="Hot 2" xmlns="http://www.w3.org/2000/svg" viewBox="0 0 24 24"><title>iconoteka_pharmacy_b_s</title><path d="M21.54,12.46a5,5,0,1,0,0,7.08A5,5,0,0,0,21.54,12.46ZM14.7,16A3.31,3.31,0,0,1,18,12.7a3.31,3.31,0,0,1,1.64.45l-4.49,4.49A3.31,3.31,0,0,1,14.7,16Zm5.63,2.33a3.24,3.24,0,0,1-2.33,1,3.31,3.31,0,0,1-1.64-.45l4.49-4.49A3.31,3.31,0,0,1,21.3,16,3.24,3.24,0,0,1,20.33,18.33ZM6.5,3A4.51,4.51,0,0,0,2,7.5v9a4.5,4.5,0,0,0,9,0v-9A4.51,4.51,0,0,0,6.5,3ZM9,16.5a2.5,2.5,0,0,1-5,0V13H9ZM9,11H4V7.5a2.5,2.5,0,0,1,5,0Z"/></svg>