<svg id="Hot_2" data-name="Hot 2" xmlns="http://www.w3.org/2000/svg" viewBox="0 0 24 24"><title>iconoteka_all_inclusive__infinity_b_a</title><path d="M20.49,3.51a6.61,6.61,0,0,0-4-1.93A4.81,4.81,0,0,0,12.61,2.9c-2,2-1.93,6.13-1.76,8C9,10.68,4.94,10.58,2.9,12.61s-1.72,5.54.61,7.88a6.61,6.61,0,0,0,4,1.93l.54,0a4.71,4.71,0,0,0,3.37-1.34c2-2,1.93-6.14,1.76-8,.46,0,1.07.08,1.75.08,2,0,4.68-.32,6.2-1.84C23.1,9.39,22.82,5.85,20.49,3.51ZM10,19.68a2.77,2.77,0,0,1-2.3.74,4.5,4.5,0,0,1-2.74-1.35c-1.56-1.56-1.84-3.82-.61-5,1-1,3.07-1.26,4.8-1.26a17.73,17.73,0,0,1,2,.11C11.31,14.52,11.42,18.24,10,19.68ZM19.68,10c-1.44,1.45-5.15,1.34-6.8,1.15-.19-1.64-.3-5.36,1.15-6.8a2.77,2.77,0,0,1,2.3-.74,4.5,4.5,0,0,1,2.74,1.35C20.63,6.49,20.91,8.75,19.68,10Z"/></svg>