<svg id="Hot_2" data-name="Hot 2" xmlns="http://www.w3.org/2000/svg" viewBox="0 0 24 24"><defs><style>.cls-1{fill:none;}</style></defs><title>iconoteka_place_favorite_b_s</title><rect class="cls-1" width="24" height="24"/><path d="M12,0A9,9,0,0,0,3,9c0,6.77,8,14,8.32,14.34l.67.6.67-.6C13,23,21,15.76,21,9A9,9,0,0,0,12,0Zm0,21.2C10.13,19.35,5,13.83,5,9A7,7,0,1,1,19,9C19,13.82,13.87,19.35,12,21.2Z"/><polygon points="13.03 8.03 12 4.87 10.97 8.03 7.66 8.03 10.34 9.97 9.31 13.13 12 11.18 14.69 13.13 13.66 9.97 16.34 8.03 13.03 8.03"/></svg>