<svg id="Hot_2" data-name="Hot 2" xmlns="http://www.w3.org/2000/svg" viewBox="0 0 24 24"><defs><style>.cls-1{fill:none;}</style></defs><title>iconoteka_gavel_b_s</title><rect class="cls-1" width="24" height="24"/><path d="M13.23,11.32l.36-.36a2.44,2.44,0,0,0,.69-1.42,2.48,2.48,0,0,0,1.43-.7l.7-.7a2.49,2.49,0,0,0,0-3.54L14.29,2.48a2.56,2.56,0,0,0-3.53,0l-.71.71a2.49,2.49,0,0,0-.7,1.42,2.46,2.46,0,0,0-1.42.7L5.81,7.43a2.45,2.45,0,0,0-.7,1.44,2.4,2.4,0,0,0-1.42.68L3,10.26a2.5,2.5,0,0,0,0,3.53L5.1,15.91a2.49,2.49,0,0,0,3.54,0l.7-.7a2.46,2.46,0,0,0,.7-1.43,2.45,2.45,0,0,0,1.42-.69l.36-.36,8.9,8.9,1.41-1.41ZM11.46,4.6l.71-.71a.52.52,0,0,1,.71,0L15,6a.51.51,0,0,1,.15.36.49.49,0,0,1-.15.35l-.71.71a.5.5,0,0,1-.7,0h0L12.53,6.37,11.46,5.31a.52.52,0,0,1,0-.71ZM7.22,8.84,9.34,6.72a.5.5,0,0,1,.36-.14.47.47,0,0,1,.35.14l2.12,2.12h0a.5.5,0,0,1,0,.71l-2.12,2.12a.5.5,0,0,1-.71,0L7.22,9.55a.48.48,0,0,1-.14-.35A.49.49,0,0,1,7.22,8.84Zm.71,4.95-.71.71a.51.51,0,0,1-.71,0L4.39,12.38a.52.52,0,0,1,0-.71L5.1,11a.52.52,0,0,1,.71,0l2.12,2.13a.48.48,0,0,1,0,.7Z"/><rect x="3" y="20" width="12" height="2"/></svg>