<svg id="Hot_2" data-name="Hot 2" xmlns="http://www.w3.org/2000/svg" viewBox="0 0 24 24"><title>iconoteka_food__dining__restaurant_l_s</title><path d="M9.4,3V7H8.78V3H7.22V7H6.6V3H5.24L4.85,7.88a1.74,1.74,0,0,0,.92,1.67l.87.46-.47,9.06a1.83,1.83,0,1,0,3.66,0L9.36,10l.87-.46a1.74,1.74,0,0,0,.92-1.67L10.76,3ZM10,9.11l-.87.46-.28.15,0,.32.47,9.06a1.3,1.3,0,0,1-.36,1,1.33,1.33,0,0,1-1.94,0,1.3,1.3,0,0,1-.36-1L7.14,10l0-.32-.28-.15L6,9.11a1.22,1.22,0,0,1-.66-1.19L5.7,3.5h.4v4H7.72v-4h.56v4H9.9v-4h.4l.35,4.42A1.22,1.22,0,0,1,10,9.11ZM17.49,3A1.51,1.51,0,0,0,16,4.08L14,10.92a2,2,0,0,0,1.21,2.45l1.12.42-.6,5.37a1.65,1.65,0,1,0,3.29.19V4.51A1.52,1.52,0,0,0,17.49,3Zm1,16.35a1.15,1.15,0,0,1-2,.77,1.18,1.18,0,0,1-.29-.9l.6-5.37.05-.39-.37-.14-1.11-.41a1.51,1.51,0,0,1-.91-1.84l2.06-6.85a1,1,0,0,1,2,.29Z"/></svg>