<svg id="Hot_2" data-name="Hot 2" xmlns="http://www.w3.org/2000/svg" viewBox="0 0 24 24"><title>iconoteka_toys__toy_shop__childrens_room_l_s</title><path d="M22.34,17.79a14.57,14.57,0,0,1-1.25.94c-.34.23-.7.44-1.06.65l-1.52-3.45A5.94,5.94,0,0,1,18,13.51V8h2.23a1.53,1.53,0,0,0,1.52-1.36A1.59,1.59,0,0,0,20.58,5L18,4.22V2h-.6a3.28,3.28,0,0,0-3.26,2.88L13.5,10h-7a2.64,2.64,0,0,0-2.42,1.58l-.87,2,.46.21.87-2A2.12,2.12,0,0,1,6,10.57v2.94a5.94,5.94,0,0,1-.51,2.42L4,19.38c-.36-.21-.72-.42-1.06-.65a14.57,14.57,0,0,1-1.25-.94l-.32.39a15.41,15.41,0,0,0,1.29,1A14.93,14.93,0,0,0,4,20c.48.26,1,.5,1.46.71s1,.4,1.55.56a15.73,15.73,0,0,0,1.6.42c.55.11,1.11.19,1.67.25a16.29,16.29,0,0,0,3.42,0c.56-.06,1.12-.14,1.67-.25a15.73,15.73,0,0,0,1.6-.42c.52-.16,1-.35,1.55-.56s1-.45,1.46-.71a14.93,14.93,0,0,0,1.38-.84,15.41,15.41,0,0,0,1.29-1ZM6,16.13a6.55,6.55,0,0,0,.55-2.62v-3h7.44l.7-5.56A2.79,2.79,0,0,1,17.4,2.5h.1V4.59l2.93.88a1.09,1.09,0,0,1,.82,1.11,1,1,0,0,1-1,.92H17.5v6a6.55,6.55,0,0,0,.55,2.62l1.54,3.49c-.29.16-.59.29-.88.43L17.36,17a2.51,2.51,0,0,0-2.29-1.49H8.93A2.51,2.51,0,0,0,6.64,17L5.29,20.05c-.29-.14-.59-.27-.88-.43Zm10.89,4.65c-.52.16-1.05.29-1.56.4a14.71,14.71,0,0,1-1.62.24,15.35,15.35,0,0,1-3.32,0,14.71,14.71,0,0,1-1.62-.24c-.51-.11-1-.24-1.56-.4s-1-.33-1.41-.52L7.1,17.19A2,2,0,0,1,8.93,16h6.14a2,2,0,0,1,1.83,1.19l1.35,3.07C17.79,20.45,17.31,20.63,16.84,20.78Z"/></svg>