<svg id="Hot_2" data-name="Hot 2" xmlns="http://www.w3.org/2000/svg" viewBox="0 0 24 24"><defs><style>.cls-1{fill:none;}</style></defs><title>iconoteka_pharmacy_b_s</title><rect class="cls-1" width="24" height="24"/><path d="M21.54,12.46a5,5,0,1,0,0,7.08A5,5,0,0,0,21.54,12.46Zm-5.87,1.21a3.24,3.24,0,0,1,2.33-1,3.31,3.31,0,0,1,1.64.45l-4.49,4.49A3.31,3.31,0,0,1,14.7,16,3.24,3.24,0,0,1,15.67,13.67Zm4.66,4.66a3.24,3.24,0,0,1-2.33,1,3.31,3.31,0,0,1-1.64-.45l4.49-4.49A3.31,3.31,0,0,1,21.3,16,3.24,3.24,0,0,1,20.33,18.33Z"/><path d="M6.5,3A4.51,4.51,0,0,0,2,7.5v9a4.5,4.5,0,0,0,9,0v-9A4.51,4.51,0,0,0,6.5,3Zm0,2A2.5,2.5,0,0,1,9,7.5V11H4V7.5A2.5,2.5,0,0,1,6.5,5Zm0,14A2.5,2.5,0,0,1,4,16.5V13H9v3.5A2.5,2.5,0,0,1,6.5,19Z"/></svg>