<svg id="Hot_2" data-name="Hot 2" xmlns="http://www.w3.org/2000/svg" viewBox="0 0 24 24"><title>iconoteka_fitness_center__gym__sport__dumbbell_r_s</title><path d="M21.9,7.76,16.24,2.1,14.83,3.51,13.41,2.1,11.29,4.22,14.47,7.4,7.4,14.47,4.22,11.29,2.1,13.41l1.41,1.42L2.1,16.24,7.76,21.9l1.41-1.41,1.42,1.41,2.12-2.12L9.53,16.6,16.6,9.53l3.18,3.18,2.12-2.12L20.49,9.17ZM16.24,3.51l4.25,4.25-.71.7L15.54,4.22Zm-8.48,17L3.51,16.24l.71-.7,4.24,4.24Zm3.53-.71-.7.71L4.22,14.12h0l-.71-.71.71-.7ZM8.82,15.89l-.71-.71,7.07-7.07.71.71Zm11.67-5.3-.71.7L12.71,4.22l.7-.71,6.37,6.37h0Z"/></svg>