<svg id="Hot_2" data-name="Hot 2" xmlns="http://www.w3.org/2000/svg" viewBox="0 0 24 24"><defs><style>.cls-1{fill:none;}</style></defs><title>iconoteka_traffic light_b_s</title><rect class="cls-1" width="24" height="24"/><path d="M12,8a1.4,1.4,0,1,0-1.4-1.4A1.4,1.4,0,0,0,12,8Z"/><path d="M12,13a1.4,1.4,0,1,0-1.4-1.4A1.4,1.4,0,0,0,12,13Z"/><path d="M12,18a1.4,1.4,0,1,0-1.4-1.4A1.4,1.4,0,0,0,12,18Z"/><path d="M18.53,13c1.11,0,2-1.34,2-3H18V8h.53c1.11,0,2-1.34,2-3H18V1H6V5H3.47c0,1.66.89,3,2,3H6v2H3.47c0,1.66.89,3,2,3H6v2H3.47c0,1.66.89,3,2,3H6v4H18V18h.53c1.11,0,2-1.34,2-3H18V13ZM16,20H8V3h8Z"/></svg>