<svg id="Hot_2" data-name="Hot 2" xmlns="http://www.w3.org/2000/svg" viewBox="0 0 24 24"><title>iconoteka_earth_australia__planet_b_s</title><path d="M12,2A10,10,0,1,0,22,12,10,10,0,0,0,12,2Zm0,1.8h.2V7A1.2,1.2,0,0,1,11,8.2H8.94A2.25,2.25,0,0,0,9,7.62,2.34,2.34,0,0,0,7.28,5.31,8.12,8.12,0,0,1,12,3.8ZM5.52,7H6.61A.57.57,0,0,1,7,7.18a.56.56,0,0,1,.17.43.6.6,0,0,1-.6.59H4.74A7.7,7.7,0,0,1,5.52,7ZM3.8,12a8.24,8.24,0,0,1,.26-2H7.21v2.59A1.2,1.2,0,0,1,6,13.79H4A8.18,8.18,0,0,1,3.8,12ZM12,20.2a8.21,8.21,0,0,1-7.36-4.61H6a3,3,0,0,0,3-3V10h2a3,3,0,0,0,3-3V4.06A8.19,8.19,0,0,1,12,20.2ZM15.34,11h-.05a3,3,0,0,0-2.17.94L11.67,13.5V17h3.67a3,3,0,0,0,3-3h0A3,3,0,0,0,15.34,11Zm0,4.18H13.47v-1l1-1a1.24,1.24,0,0,1,.91-.37h0a1.19,1.19,0,1,1,0,2.38Z"/></svg>