<svg id="Hot_2" data-name="Hot 2" xmlns="http://www.w3.org/2000/svg" viewBox="0 0 24 24"><title>iconoteka_dice__casino_l_s</title><path d="M18.33,3h-12a3,3,0,0,0-3,3V18a3,3,0,0,0,3,3h12a3,3,0,0,0,3-3V6A3,3,0,0,0,18.33,3Zm2.5,15a2.5,2.5,0,0,1-2.5,2.5h-12A2.5,2.5,0,0,1,3.83,18V6a2.5,2.5,0,0,1,2.5-2.5h12A2.5,2.5,0,0,1,20.83,6ZM16.33,7.5a.5.5,0,0,0,0,1,.5.5,0,0,0,0-1Zm-4,4a.5.5,0,1,0,0,1,.5.5,0,0,0,0-1Zm-4-4a.5.5,0,1,0,0,1,.5.5,0,0,0,0-1Zm8,8a.5.5,0,0,0,0,1,.5.5,0,0,0,0-1Zm-8,0a.5.5,0,1,0,0,1,.5.5,0,0,0,0-1Z"/></svg>