<svg id="Hot_2" data-name="Hot 2" xmlns="http://www.w3.org/2000/svg" viewBox="0 0 24 24"><title>iconoteka_planet__earth_america_b_s</title><path d="M12,2A10,10,0,1,0,22,12,10,10,0,0,0,12,2Zm7.7,7.85a7,7,0,0,1,.25,1.3H19.5a.65.65,0,0,1,0-1.3ZM5.5,16.15H5.17a7.58,7.58,0,0,1-.53-1l.56-.28h.3a.65.65,0,1,1,0,1.3ZM12,20a8,8,0,0,1-5.63-2.32,2.35,2.35,0,0,0-.87-4.53H4.8l-.66.33A7.94,7.94,0,0,1,6.69,6v.81A1.16,1.16,0,0,1,7.84,8v3.5a2.35,2.35,0,0,0,2.35,2.35h1v5h3.34l2.28-3.92a1.86,1.86,0,0,0-1.6-2.78h-5a.65.65,0,1,1,0-1.3h3l1.69-2.92a1.85,1.85,0,0,0,0-1.85,1.82,1.82,0,0,0-1.6-.93H7.89A7.89,7.89,0,0,1,12,4a8,8,0,0,1,7,4.2,2.35,2.35,0,0,0,.46,4.65H20A8,8,0,0,1,12,20ZM9.29,6.85h4a.14.14,0,0,1,.13.08.14.14,0,0,1,0,.15L12.2,9.15h-2a2.27,2.27,0,0,0-.65.09V8A2.76,2.76,0,0,0,9.29,6.85Zm3.56,10.3v-3.3h2.32a.14.14,0,0,1,.13.08.14.14,0,0,1,0,.15l-1.79,3.07Z"/></svg>