<svg id="Hot_2" data-name="Hot 2" xmlns="http://www.w3.org/2000/svg" viewBox="0 0 24 24"><title>iconoteka_hinduism_l_a</title><path d="M16.22,2.52,15.8,2.1l-.43.42L15.8,3Zm3.57,2.7-.35-.35c-2.34,2.33-5,2-7.92-.88l-.36.35c1.72,1.72,3.4,2.58,5,2.58A5.09,5.09,0,0,0,19.79,5.22ZM17.58,9.74A5.57,5.57,0,0,0,14,11.29a6,6,0,0,1-5.54,1.43h0L8,12.62c1.15-.52,2.56-1.46,2.65-3A2.79,2.79,0,0,0,9.94,7.5a2.86,2.86,0,0,0-2.11-.87A5.56,5.56,0,0,0,4.11,8.41l.35.35A5.11,5.11,0,0,1,7.83,7.13a2.38,2.38,0,0,1,1.75.71,2.33,2.33,0,0,1,.59,1.75c-.13,2.19-3.69,3.05-3.73,3.06l.1.49A3.87,3.87,0,0,1,9.82,14a4.06,4.06,0,0,1,1.45,3,4,4,0,0,1-3.85,3.76c-1.92,0-4.17-1.39-4.17-5.31h-.5c0,4,2.35,5.81,4.67,5.81A4.42,4.42,0,0,0,11.77,17a4.6,4.6,0,0,0-1.62-3.4c-.13-.1-.27-.21-.42-.31a6.18,6.18,0,0,0,4.61-1.6,5.08,5.08,0,0,1,3.24-1.44,3.43,3.43,0,0,1,3.61,3.7c0,2.48-1.32,4.27-3.14,4.27a2.68,2.68,0,0,1-2.88-2.77h-.5a3.19,3.19,0,0,0,3.38,3.27c2.11,0,3.64-2,3.64-4.77A3.93,3.93,0,0,0,17.58,9.74Z"/></svg>