<svg id="Hot_2" data-name="Hot 2" xmlns="http://www.w3.org/2000/svg" viewBox="0 0 24 24"><title>iconoteka_atheism_l_a</title><path d="M18.67,12c2.11-2,3.12-4,2.42-5.25a2.83,2.83,0,0,0-2.6-1,11.65,11.65,0,0,0-3.15.52C14.62,3.38,13.4,1.5,12,1.5S9.38,3.38,8.66,6.22a12,12,0,0,0-3.15-.51,2.84,2.84,0,0,0-2.6,1C2.21,8,3.22,10,5.33,12c-2.11,2-3.12,4-2.42,5.25a2.83,2.83,0,0,0,2.6,1,11.65,11.65,0,0,0,3.15-.52C9.38,20.62,10.6,22.5,12,22.5s2.62-1.88,3.34-4.73a11.65,11.65,0,0,0,3.15.52,2.84,2.84,0,0,0,2.6-1C21.79,16,20.78,14,18.67,12Zm-.18-5.79c1.1,0,1.87.28,2.17.79.41.72,0,2-1.21,3.42a14.28,14.28,0,0,1-1.14,1.24,22.12,22.12,0,0,0-2.4-1.91,23.74,23.74,0,0,0-.46-3A11.43,11.43,0,0,1,18.49,6.21ZM13.75,15c-.58.34-1.17.64-1.75.92-.58-.28-1.17-.58-1.75-.92s-1.14-.69-1.68-1c0-.63-.07-1.29-.07-2s0-1.35.07-2c.54-.36,1.1-.72,1.68-1s1.17-.64,1.75-.92c.58.28,1.17.58,1.75.92s1.14.69,1.68,1c0,.63.07,1.29.07,2s0,1.35-.07,2C14.89,14.34,14.33,14.7,13.75,15Zm1.62-.42a21.85,21.85,0,0,1-.4,2.54,23.25,23.25,0,0,1-2.39-.92c.47-.24.94-.49,1.42-.77S14.93,14.9,15.37,14.61Zm-3.95,1.62A23.25,23.25,0,0,1,9,17.15a21.85,21.85,0,0,1-.4-2.54c.44.29.89.58,1.37.85S11,16,11.42,16.23ZM8.05,13.61a20.79,20.79,0,0,1-2-1.61,20.79,20.79,0,0,1,2-1.61C8,10.92,8,11.45,8,12S8,13.08,8.05,13.61Zm.58-4.22A21.85,21.85,0,0,1,9,6.85a23.25,23.25,0,0,1,2.39.92c-.47.24-.94.49-1.42.77S9.07,9.1,8.63,9.39Zm3.95-1.62A23.25,23.25,0,0,1,15,6.85a21.85,21.85,0,0,1,.4,2.54c-.44-.29-.89-.58-1.37-.85S13.05,8,12.58,7.77ZM16,10.39a20.79,20.79,0,0,1,2,1.61,20.79,20.79,0,0,1-2,1.61c0-.53.05-1.06.05-1.61S16,10.92,16,10.39ZM12,2c1.05,0,2.17,1.66,2.86,4.37A21.4,21.4,0,0,0,12,7.5,21.4,21.4,0,0,0,9.14,6.37C9.83,3.66,11,2,12,2ZM4.55,10.42C3.36,9,2.93,7.72,3.34,7c.3-.51,1.07-.79,2.17-.79a11.43,11.43,0,0,1,3,.5,23.74,23.74,0,0,0-.46,3,22.12,22.12,0,0,0-2.4,1.91A14.28,14.28,0,0,1,4.55,10.42Zm1,7.37c-1.1,0-1.87-.28-2.17-.79-.41-.72,0-2,1.21-3.42a14.28,14.28,0,0,1,1.14-1.24,22.12,22.12,0,0,0,2.4,1.91,23.74,23.74,0,0,0,.46,3A11.43,11.43,0,0,1,5.51,17.79ZM12,22C11,22,9.83,20.34,9.14,17.63A21.4,21.4,0,0,0,12,16.5a21.4,21.4,0,0,0,2.86,1.13C14.17,20.34,13.05,22,12,22Zm8.66-5c-.3.51-1.07.79-2.17.79a11.43,11.43,0,0,1-3-.5,23.74,23.74,0,0,0,.46-3,22.12,22.12,0,0,0,2.4-1.91,14.28,14.28,0,0,1,1.14,1.24C20.64,15,21.07,16.28,20.66,17Z"/></svg>