<svg id="Hot_2" data-name="Hot 2" xmlns="http://www.w3.org/2000/svg" viewBox="0 0 24 24"><title>iconoteka_pool_b_m_a</title><path d="M15,19.67a4.38,4.38,0,0,0-5.94,0,3.2,3.2,0,0,1-2,.83,3.2,3.2,0,0,1-2-.83A4.65,4.65,0,0,0,2,18.5V20a3.2,3.2,0,0,1,2,.83A4.65,4.65,0,0,0,7,22a4.65,4.65,0,0,0,3-1.17,2.87,2.87,0,0,1,4.06,0A4.65,4.65,0,0,0,17,22a4.65,4.65,0,0,0,3-1.17A3.2,3.2,0,0,1,22,20V18.5a4.65,4.65,0,0,0-3,1.17A2.87,2.87,0,0,1,15,19.67ZM19,15.42a2.82,2.82,0,0,1-3,.63V5a3,3,0,0,0-3-3H12V3.5h1A1.5,1.5,0,0,1,14.5,5V6h-5V5a3,3,0,0,0-3-3h-1V3.5h1A1.5,1.5,0,0,1,8,5V6H8V7.5H8V10H8v1.5H8V14H8v1.5H8v.55a2.7,2.7,0,0,1-1,.2,3.2,3.2,0,0,1-2-.83,4.65,4.65,0,0,0-3-1.17v1.5a3.2,3.2,0,0,1,2,.83,4.65,4.65,0,0,0,3,1.17,4.65,4.65,0,0,0,3-1.17,2.87,2.87,0,0,1,4.06,0,4.65,4.65,0,0,0,3,1.17,4.65,4.65,0,0,0,3-1.17,3.2,3.2,0,0,1,2-.83v-1.5A4.65,4.65,0,0,0,19,15.42ZM14.5,14h-5V11.5h5Zm0-4h-5V7.5h5Z"/></svg>