<svg id="Hot_2" data-name="Hot 2" xmlns="http://www.w3.org/2000/svg" viewBox="0 0 24 24"><title>iconoteka_earth_america__planet_m_s</title><path d="M12,2A10,10,0,1,0,22,12,10,10,0,0,0,12,2Zm6.58,6.78.52-1.44a8.54,8.54,0,0,1,1.06,2.29h-1a.63.63,0,0,1-.59-.85ZM4.8,16.5a8.42,8.42,0,0,1-1-2.34,1.42,1.42,0,0,1,.45-.08h0A1.27,1.27,0,0,1,4.8,16.5Zm7.2,4a8.49,8.49,0,0,1-6.38-2.9,2.64,2.64,0,0,0-1.37-4.89h0a2.38,2.38,0,0,0-.7.11c0-.27,0-.54,0-.82A8.46,8.46,0,0,1,6.39,5.63s0,0,0,.08a.9.9,0,0,0,.9.91h0A.72.72,0,0,1,8,7.36v3.06a3.05,3.05,0,0,0,.82,2.07l.09.08,1.57,1.57.1.16,0,4.68.3.16h2a3,3,0,0,0,2.82-2l.9-2.48c0-.13.13-.44.15-.56a2,2,0,0,0-2-2.32H11.61a.5.5,0,0,1-.5-.5.5.5,0,0,1,.5-.5h2.26a1,1,0,0,0,.94-.66l1-2.66A2,2,0,0,0,13.9,4.81H7.49A8.38,8.38,0,0,1,12,3.5a8.5,8.5,0,0,1,6.1,2.59l-.81,2.23A2,2,0,0,0,19.17,11h1.27c0,.33.06.66.06,1A8.51,8.51,0,0,1,12,20.5Zm-2.25-9a1.63,1.63,0,0,1-.38-1.05V7.36A2.11,2.11,0,0,0,9,6.17H13.9a.63.63,0,0,1,.59.85l-.88,2.42h-2a1.82,1.82,0,0,0-1.32.55,1.86,1.86,0,0,0-.55,1.32S9.75,11.42,9.75,11.47Zm2,2.12-.1-.16-.08-.14-.12-.12h3.34a.57.57,0,0,1,.43.19.76.76,0,0,1,.18.56c0,.06-.06.24-.08.3L14.4,16.7a1.63,1.63,0,0,1-1.53,1.07h-.95l0-3.46v-.39Z"/></svg>