<svg id="Hot_2" data-name="Hot 2" xmlns="http://www.w3.org/2000/svg" viewBox="0 0 24 24"><title>iconoteka_earth_australia__planet_l_s</title><path d="M12,2A10,10,0,1,0,22,12,10,10,0,0,0,12,2ZM3.94,7H6A.6.6,0,0,1,6,8.2H3.3A8.6,8.6,0,0,1,3.94,7ZM2.5,12a9.52,9.52,0,0,1,.6-3.3H6A1.1,1.1,0,1,0,6,6.5H4.27A9.47,9.47,0,0,1,12,2.5a9.29,9.29,0,0,1,1.5.13V7A2.5,2.5,0,0,1,11,9.5H7.5v3.59a2,2,0,0,1-2,2H3A9.33,9.33,0,0,1,2.5,12ZM12,21.5a9.51,9.51,0,0,1-8.79-5.91H5.5A2.5,2.5,0,0,0,8,13.09V10h3a3,3,0,0,0,3-3V2.72A9.5,9.5,0,0,1,12,21.5ZM15.34,11h-.05a3,3,0,0,0-2.17.94L11.67,13.5V17h3.67a3,3,0,0,0,0-6Zm0,5.48H12.17V13.7l1.31-1.4a2.56,2.56,0,0,1,1.86-.78h0a2.49,2.49,0,0,1,0,5Z"/></svg>