<svg id="Hot_2" data-name="Hot 2" xmlns="http://www.w3.org/2000/svg" viewBox="0 0 24 24"><title>iconoteka_earth_america__planet_b_s</title><path d="M12,2A10,10,0,1,0,22,12,10,10,0,0,0,12,2Zm6.45,6.93.48-1.3A8.17,8.17,0,0,1,19.7,9.2H18.64a.18.18,0,0,1-.16-.09A.22.22,0,0,1,18.45,8.93ZM4.91,16.11a8.11,8.11,0,0,1-.8-1.92,1,1,0,0,1,.38-.08h0a1,1,0,0,1,.41,2ZM12,20.2a8.16,8.16,0,0,1-6-2.64A2.84,2.84,0,0,0,4.5,12.31h0a3,3,0,0,0-.67.09c0-.13,0-.26,0-.4A8.18,8.18,0,0,1,6.43,6a.89.89,0,0,0,.85.62h0A.72.72,0,0,1,8,7.36v3.06a3,3,0,0,0,.88,2.13l1.7,1.69,0,4.57H13a3,3,0,0,0,2.82-2l.85-2.34a2,2,0,0,0-1.88-2.68H11.61a.5.5,0,0,1-.5-.5.5.5,0,0,1,.5-.5h2.26a1,1,0,0,0,.94-.66l1-2.66A2,2,0,0,0,13.9,4.81H8.07A8.16,8.16,0,0,1,17.6,6l-.84,2.3A2,2,0,0,0,18.64,11h1.49A8.13,8.13,0,0,1,12,20.2ZM9.69,6.61H13.9a.19.19,0,0,1,.16.08.2.2,0,0,1,0,.19L13.31,9h-1.7A2.31,2.31,0,0,0,10,9.68l-.18.21V7.36A2.72,2.72,0,0,0,9.69,6.61ZM12.36,17l0-2.76v-.64h2.4a.17.17,0,0,1,.16.08.2.2,0,0,1,0,.19l-.85,2.34A1.22,1.22,0,0,1,13,17Z"/></svg>