<svg id="Hot_2" data-name="Hot 2" xmlns="http://www.w3.org/2000/svg" viewBox="0 0 24 24"><title>iconoteka_toys__toy_shop__childrens_room_l_f</title><path d="M22.34,17.79a14.57,14.57,0,0,1-1.25.94c-.4.27-.83.53-1.26.77l-1.32-3A6,6,0,0,1,18,14.08V8h2.23a1.53,1.53,0,0,0,1.52-1.36A1.59,1.59,0,0,0,20.58,5L18,4.22V2h-.5A3.5,3.5,0,0,0,14,5.5V9H6.47a2.64,2.64,0,0,0-2.42,1.58l-.87,2,.46.21.87-2A2.12,2.12,0,0,1,6,9.57v4.51a6,6,0,0,1-.51,2.42l-1.32,3c-.43-.24-.86-.5-1.26-.77a14.57,14.57,0,0,1-1.25-.94l-.32.39a15.41,15.41,0,0,0,1.29,1A14.93,14.93,0,0,0,4,20c.48.26,1,.5,1.46.71s1,.4,1.55.56a15.73,15.73,0,0,0,1.6.42c.55.11,1.11.19,1.67.25a16.29,16.29,0,0,0,3.42,0c.56-.06,1.12-.14,1.67-.25a15.73,15.73,0,0,0,1.6-.42c.52-.16,1-.35,1.55-.56s1-.45,1.46-.71a14.93,14.93,0,0,0,1.38-.84,15.41,15.41,0,0,0,1.29-1Zm-5.5,3c-.52.16-1.05.29-1.56.4a14.71,14.71,0,0,1-1.62.24,15.35,15.35,0,0,1-3.32,0,14.71,14.71,0,0,1-1.62-.24c-.51-.11-1-.24-1.56-.4s-1-.34-1.49-.55l-.13-.06,1.31-3A2,2,0,0,1,8.68,16h6.64a2,2,0,0,1,1.83,1.19l1.31,3-.13.06C17.84,20.44,17.34,20.62,16.84,20.78Z"/></svg>