<svg id="Hot_2" data-name="Hot 2" xmlns="http://www.w3.org/2000/svg" viewBox="0 0 24 24"><title>iconoteka_earth_map_b_s</title><path d="M6.94,13.15H3.19a.65.65,0,1,1,0-1.3h3L7.87,8.93a1.85,1.85,0,0,0,0-1.85,1.82,1.82,0,0,0-1.6-.93H0v1.7H.24a.6.6,0,0,1,.6.6V12.5a2.35,2.35,0,0,0,2.31,2.35v5H6.49l2.16-3.73a1.93,1.93,0,0,0,0-2A2,2,0,0,0,6.94,13.15Zm-.67-5.3a.14.14,0,0,1,.13.08.14.14,0,0,1,0,.15L5.2,10.15h-2a2.27,2.27,0,0,0-.65.09V8.45a2.35,2.35,0,0,0-.08-.6Zm.92,7.42L5.51,18.15H4.85v-3.3H6.94a.29.29,0,0,1,.25.14A.27.27,0,0,1,7.19,15.27ZM21.85,10.5V5.15H12.56L11.44,7.08a1.85,1.85,0,0,0,1.61,2.77h2.1v1.3H12.5a2.35,2.35,0,0,0-.36,4.67v3H14.5a2.35,2.35,0,0,0,2.35-2.35V12.85H19.5A2.35,2.35,0,0,0,21.85,10.5Zm-6.7,6a.65.65,0,0,1-.65.65h-.65l0-3H12.5a.65.65,0,0,1,0-1.3h2.65Zm-2.1-8.35a.16.16,0,0,1-.13-.07.14.14,0,0,1,0-.15l.62-1.08h6.61V10.5a.65.65,0,0,1-.65.65H16.85v-3Zm8.45,6h-.85l-1.5,1.5v3.2H21.5a2.35,2.35,0,1,0,0-4.7Zm0,3h-.65v-.8l.5-.5h.15a.65.65,0,0,1,0,1.3Z"/></svg>