<svg id="Hot_2" data-name="Hot 2" xmlns="http://www.w3.org/2000/svg" viewBox="0 0 24 24"><title>iconoteka_earth_planet_l_f</title><path d="M12,2A10,10,0,1,0,22,12,10,10,0,0,0,12,2ZM4.56,17.89A9.49,9.49,0,0,1,2.5,12.07a2.89,2.89,0,0,0,.38.47l1.7,1.7ZM12,21.5a9.48,9.48,0,0,1-5.4-1.69h.64a2,2,0,0,0,1.88-1.32l1.46-4A2,2,0,0,0,8.7,11.81H3.76a1,1,0,0,1,0-2H8.24a1,1,0,0,0,.93-.66l.61-1.66A2,2,0,0,0,7.9,4.81H5.81A9.44,9.44,0,0,1,17.1,4h-.88a2,2,0,0,0-1.88,1.32L13.73,7a1.5,1.5,0,0,0,1.41,2h3.31a.5.5,0,0,1,0,1H16.5A2.5,2.5,0,0,0,14,12.5v1A1.5,1.5,0,0,0,15.5,15h1a.5.5,0,0,1,.5.5v1.59a1.5,1.5,0,0,0,1.5,1.5h.33A9.48,9.48,0,0,1,12,21.5Z"/></svg>