<svg id="Hot_2" data-name="Hot 2" xmlns="http://www.w3.org/2000/svg" viewBox="0 0 24 24"><title>iconoteka_earth_eurasia_africa__planet_r_s</title><path d="M12,2A10,10,0,1,0,22,12,10,10,0,0,0,12,2Zm0,19A9,9,0,0,1,12,3a8.91,8.91,0,0,1,5.64,2h-8A2,2,0,0,0,7.76,6.32L7.16,8a1.49,1.49,0,0,0,1.41,2h.79a.6.6,0,1,1,0,1.2H8a2,2,0,0,0-2,2v1.13a1,1,0,0,0,1,1H8v1.84a.83.83,0,0,0,.83.83h.84a2.66,2.66,0,0,0,2.66-2.67V13h3A2.66,2.66,0,0,0,18,10.33v-5A9,9,0,0,1,21,12a8.69,8.69,0,0,1-.13,1.45,2.33,2.33,0,0,0-1.2-.34h0a2.54,2.54,0,0,0-1.85.8l-1.15,1.23V18h2A9,9,0,0,1,12,21ZM7,14.33V13.2a1,1,0,0,1,1-1H9.36a1.6,1.6,0,1,0,0-3.2H8.57a.5.5,0,0,1-.47-.67l.6-1.67A1,1,0,0,1,9.64,6H17v4.33A1.67,1.67,0,0,1,15.33,12h-4v3.33A1.66,1.66,0,0,1,9.67,17H9V14.33Zm12.43,2.74H17.6V15.51l.9-1A1.62,1.62,0,0,1,19.67,14h0a1.5,1.5,0,0,1,1,.38A9,9,0,0,1,19.43,17.07Z"/></svg>