<svg id="Hot_2" data-name="Hot 2" xmlns="http://www.w3.org/2000/svg" viewBox="0 0 24 24"><title>iconoteka_spa_m_s</title><path d="M23,10c-.23,0-.46,0-.7,0a10.92,10.92,0,0,0-5.77,1.65A13.44,13.44,0,0,0,12,1.92a13.44,13.44,0,0,0-4.48,9.73A10.92,10.92,0,0,0,1.75,10c-.24,0-.47,0-.7,0,0,.31-.05.63-.05,1a11,11,0,0,0,22,0C23,10.67,23,10.35,23,10ZM9,12A12,12,0,0,1,12,4,12,12,0,0,1,15,12c0,.27,0,.54,0,.82A11,11,0,0,0,12,17a11,11,0,0,0-3-4.25C9,12.5,9,12.23,9,12Zm-6.49-.43a9.53,9.53,0,0,1,8.73,8.94A9.53,9.53,0,0,1,2.51,11.53Zm10.25,8.94a9.53,9.53,0,0,1,8.73-8.94A9.53,9.53,0,0,1,12.76,20.47Z"/></svg>