<svg id="Hot_2" data-name="Hot 2" xmlns="http://www.w3.org/2000/svg" viewBox="0 0 24 24"><title>iconoteka_traffic light_a_f</title><path d="M4.55,7.32A1,1,0,0,0,5.5,8H6V5H3.78Zm14.9,0L20.22,5H18V8h.5A1,1,0,0,0,19.45,7.32Zm-14.9,5a1,1,0,0,0,1,.68H6V10H3.78ZM15,2H9A2,2,0,0,0,7,4V20a2,2,0,0,0,2,2h6a2,2,0,0,0,2-2V4A2,2,0,0,0,15,2ZM12,18.6A1.6,1.6,0,1,1,13.6,17,1.6,1.6,0,0,1,12,18.6Zm0-5A1.6,1.6,0,1,1,13.6,12,1.6,1.6,0,0,1,12,13.6Zm0-5A1.6,1.6,0,1,1,13.6,7,1.6,1.6,0,0,1,12,8.6ZM4.55,17.32a1,1,0,0,0,1,.68H6V15H3.78ZM18,13h.5a1,1,0,0,0,.95-.68L20.22,10H18Zm0,5h.5a1,1,0,0,0,.95-.68L20.22,15H18Z"/></svg>