<svg id="Hot_2" data-name="Hot 2" xmlns="http://www.w3.org/2000/svg" viewBox="0 0 24 24"><title>iconoteka_theaters__entertainment_r_s</title><path d="M15,6V2H1v9a7,7,0,0,0,7,7,7.18,7.18,0,0,0,1.62-.19A7,7,0,0,0,23,15V6ZM8,17a6,6,0,0,1-6-6V3H14v8A6,6,0,0,1,8,17Zm14-2a6,6,0,0,1-11.43,2.5A7,7,0,0,0,15,11V7h7Zm-8.52,3.25h5a2.5,2.5,0,0,0-5,0ZM16,16.6a1.64,1.64,0,0,1,1.41.8H14.56A1.66,1.66,0,0,1,16,16.6ZM18.2,12a.75.75,0,1,0-.75-.75A.75.75,0,0,0,18.2,12ZM8,13.75A2.75,2.75,0,0,0,10.73,11H5.23A2.75,2.75,0,0,0,8,13.75Zm1.7-1.9a1.9,1.9,0,0,1-3.4,0Zm.52-5.39a.75.75,0,1,0,.75.75A.75.75,0,0,0,10.2,6.46Zm-3.7.75a.75.75,0,0,0-1.5,0,.75.75,0,1,0,1.5,0Z"/></svg>