<svg id="Hot_2" data-name="Hot 2" xmlns="http://www.w3.org/2000/svg" viewBox="0 0 24 24"><title>iconoteka_all_inclusive__infinity_l_a</title><path d="M20.49,3.51a6.22,6.22,0,0,0-3.74-1.82,4.3,4.3,0,0,0-3.52,1.17c-2.43,2.43-1.59,8.43-1.55,8.69l0,.15-.15,0c-.26,0-6.25-.89-8.69,1.55a4.29,4.29,0,0,0-1.17,3.52,6.37,6.37,0,0,0,5.56,5.56,4.18,4.18,0,0,0,.5,0,4.19,4.19,0,0,0,3-1.19c2.43-2.43,1.59-8.43,1.55-8.69l0-.15.15,0a21.52,21.52,0,0,0,2.66.17c2,0,4.61-.3,6-1.72a4.29,4.29,0,0,0,1.17-3.52A6.22,6.22,0,0,0,20.49,3.51ZM10.41,20.79a3.77,3.77,0,0,1-3.11,1,5.57,5.57,0,0,1-3.43-1.68A5.57,5.57,0,0,1,2.19,16.7a3.79,3.79,0,0,1,1-3.11C4.51,12.29,7,12,8.85,12a18.06,18.06,0,0,1,2.62.18l.31,0,.05.31C11.86,12.77,12.67,18.53,10.41,20.79ZM20.79,10.41c-2.27,2.27-8,1.45-8.26,1.41l-.31,0-.05-.31c0-.24-.84-6,1.42-8.26a3.77,3.77,0,0,1,3.11-1,5.62,5.62,0,0,1,3.43,1.68A5.57,5.57,0,0,1,21.81,7.3,3.79,3.79,0,0,1,20.79,10.41Z"/></svg>