<svg id="Hot_2" data-name="Hot 2" xmlns="http://www.w3.org/2000/svg" viewBox="0 0 24 24"><title>iconoteka_scales__judge__justice__courthouse_m_s</title><path d="M18.5,4H12.75V2.75a.75.75,0,0,0-1.5,0V4H5.5L1,14H1A4.68,4.68,0,0,0,5.5,17.2,4.68,4.68,0,0,0,10,14h0L6.18,5.5h5.07v14L7,20.12V21H17v-.88l-4.25-.66V5.5h5.07L14,14h0a4.76,4.76,0,0,0,9,0h0ZM5.5,15.7A3.19,3.19,0,0,1,2.64,14H8.36A3.19,3.19,0,0,1,5.5,15.7ZM3.27,12.6,5.5,7.65,7.73,12.6Zm17.46,0H16.27L18.5,7.65ZM18.5,15.7A3.19,3.19,0,0,1,15.64,14h5.72A3.19,3.19,0,0,1,18.5,15.7Z"/></svg>