<svg id="Hot_2" data-name="Hot 2" xmlns="http://www.w3.org/2000/svg" viewBox="0 0 24 24"><title>iconoteka_earth_eurasia_africa__planet_b_f</title><path d="M12,2A10,10,0,1,0,22,12,10,10,0,0,0,12,2Zm0,18.3A8.3,8.3,0,1,1,16.44,5H9.31A2,2,0,0,0,7.43,6.32L6.82,8a1.5,1.5,0,0,0,1.41,2H10a.6.6,0,0,1,0,1.2H8a2,2,0,0,0-2,2V14a1,1,0,0,0,1,1H8v2a1,1,0,0,0,1,1h.5A2.5,2.5,0,0,0,12,15.5V13h3.5A2.5,2.5,0,0,0,18,10.5V6.28A8.26,8.26,0,0,1,20.3,12a8.52,8.52,0,0,1-.1,1.24,1.61,1.61,0,0,0-.84-.24,1.65,1.65,0,0,0-1.15.47L17,14.67V17h1.61A8.29,8.29,0,0,1,12,20.3Z"/></svg>