<svg id="Hot_2" data-name="Hot 2" xmlns="http://www.w3.org/2000/svg" viewBox="0 0 24 24"><title>iconoteka_hostel_l_s</title><path d="M6.49,9a2,2,0,1,0-2-2A2,2,0,0,0,6.49,9Zm0-3.5A1.5,1.5,0,1,1,5,7,1.5,1.5,0,0,1,6.49,5.5Zm0,11.5a2,2,0,1,0-2-2A2,2,0,0,0,6.49,17Zm0-3.5A1.5,1.5,0,1,1,5,15,1.5,1.5,0,0,1,6.49,13.5ZM21.5,3v7.5H19V8a3,3,0,0,0-3-3H10v5.5H2.5V3H2V21h.5V19h19v2H22V3Zm-11,2.5H16A2.5,2.5,0,0,1,18.5,8v2.5h-8Zm8,13h-8v-5H16A2.5,2.5,0,0,1,18.5,16Zm3,0H19V16a3,3,0,0,0-3-3H10v5.5H2.5V11h19Z"/></svg>