<svg id="Hot_2" data-name="Hot 2" xmlns="http://www.w3.org/2000/svg" viewBox="0 0 24 24"><title>iconoteka_traffic light_r_s</title><path d="M12,10a2,2,0,1,0,2,2A2,2,0,0,0,12,10Zm0,3.1A1.1,1.1,0,1,1,13.1,12,1.1,1.1,0,0,1,12,13.1Zm5.47.9a1.33,1.33,0,0,0,1.26-.91l1-3.09H17V9h.47a1.33,1.33,0,0,0,1.26-.91l1-3.09H17V4.5A2.5,2.5,0,0,0,14.5,2h-5A2.5,2.5,0,0,0,7,4.5V5H4.24l1,3.09A1.33,1.33,0,0,0,6.53,9H7v1H4.24l1,3.09A1.33,1.33,0,0,0,6.53,14H7v1H4.24l1,3.09A1.33,1.33,0,0,0,6.53,19H7v.5A2.5,2.5,0,0,0,9.5,22h5A2.5,2.5,0,0,0,17,19.5V19h.47a1.33,1.33,0,0,0,1.26-.91l1-3.09H17V14ZM17,6h1.37l-.59,1.77a.32.32,0,0,1-.31.23H17Zm0,5h1.37l-.59,1.77a.32.32,0,0,1-.31.23H17ZM7,18H6.53a.32.32,0,0,1-.31-.23L5.63,16H7Zm0-5H6.53a.32.32,0,0,1-.31-.23L5.63,11H7ZM7,8H6.53a.32.32,0,0,1-.31-.23L5.63,6H7Zm9,11.5A1.5,1.5,0,0,1,14.5,21h-5A1.5,1.5,0,0,1,8,19.5V4.5A1.5,1.5,0,0,1,9.5,3h5A1.5,1.5,0,0,1,16,4.5ZM18.37,16l-.59,1.77a.32.32,0,0,1-.31.23H17V16ZM12,5a2,2,0,1,0,2,2A2,2,0,0,0,12,5Zm0,3.1A1.1,1.1,0,1,1,13.1,7,1.1,1.1,0,0,1,12,8.1ZM12,15a2,2,0,1,0,2,2A2,2,0,0,0,12,15Zm0,3.1A1.1,1.1,0,1,1,13.1,17,1.1,1.1,0,0,1,12,18.1Z"/></svg>