<svg id="Hot_2" data-name="Hot 2" xmlns="http://www.w3.org/2000/svg" viewBox="0 0 24 24"><title>iconoteka_toys__toy_shop__childrens_room_b_f</title><path d="M21.87,16.46c-.38.31-.79.61-1.2.89s-.8.51-1.21.74l-.95-2.16A5.94,5.94,0,0,1,18,13.51V8h2.23a1.53,1.53,0,0,0,1.52-1.36A1.59,1.59,0,0,0,20.58,5L18,4.22V2h-.5A3.5,3.5,0,0,0,14,5.5V9H6.86A4,4,0,0,0,3.2,11.39l-.86,2,1.83.8.86-2a2,2,0,0,1,1-1v2.29a5.94,5.94,0,0,1-.51,2.42l-1,2.16c-.41-.23-.82-.48-1.21-.74s-.82-.58-1.2-.89L.86,18c.43.36.88.69,1.35,1s1,.61,1.44.88,1,.51,1.53.73,1.07.42,1.61.59a15.35,15.35,0,0,0,1.68.43,17,17,0,0,0,1.74.27c.6.06,1.2.09,1.79.09s1.19,0,1.79-.09a17,17,0,0,0,1.74-.27,15.35,15.35,0,0,0,1.68-.43c.54-.17,1.08-.37,1.61-.59s1-.46,1.53-.73,1-.57,1.44-.88.92-.65,1.35-1ZM16.61,19.3a13.4,13.4,0,0,1-1.48.38,13.67,13.67,0,0,1-1.54.24,15.36,15.36,0,0,1-3.18,0,13.67,13.67,0,0,1-1.54-.24,13.4,13.4,0,0,1-1.48-.38c-.36-.11-.71-.25-1-.38l.76-1.73A2,2,0,0,1,8.93,16h6.14a2,2,0,0,1,1.83,1.19l.76,1.73C17.32,19.05,17,19.19,16.61,19.3Z"/></svg>