<svg id="Hot_2" data-name="Hot 2" xmlns="http://www.w3.org/2000/svg" viewBox="0 0 24 24"><title>iconoteka_buddhism_m_a</title><path d="M20.85,11.3a8.87,8.87,0,0,0-2.09-5.07l1.51-1.51-1-1L17.77,5.24A8.87,8.87,0,0,0,12.7,3.15V1H11.3V3.15A8.87,8.87,0,0,0,6.23,5.24L4.72,3.73l-1,1L5.24,6.23A8.87,8.87,0,0,0,3.15,11.3H1v1.4H3.15a8.87,8.87,0,0,0,2.09,5.07L3.73,19.28l1,1,1.51-1.51a8.87,8.87,0,0,0,5.07,2.09V23h1.4V20.85a8.87,8.87,0,0,0,5.07-2.09l1.51,1.51,1-1-1.51-1.51a8.87,8.87,0,0,0,2.09-5.07H23V11.3ZM12.7,4.55a7.36,7.36,0,0,1,4.07,1.69L12.7,10.31Zm-1.4,0v5.76L7.23,6.24A7.36,7.36,0,0,1,11.3,4.55ZM6.24,7.23l4.07,4.07H4.55A7.36,7.36,0,0,1,6.24,7.23ZM4.55,12.7h5.76L6.24,16.77A7.36,7.36,0,0,1,4.55,12.7Zm6.75,6.75a7.36,7.36,0,0,1-4.07-1.69l4.07-4.07ZM12,13.1A1.1,1.1,0,1,1,13.1,12,1.1,1.1,0,0,1,12,13.1Zm.7,6.35V13.69l4.07,4.07A7.36,7.36,0,0,1,12.7,19.45Zm5.06-2.68L13.69,12.7h5.76A7.36,7.36,0,0,1,17.76,16.77ZM13.69,11.3l4.07-4.07a7.36,7.36,0,0,1,1.69,4.07Z"/></svg>