<svg id="Hot_2" data-name="Hot 2" xmlns="http://www.w3.org/2000/svg" viewBox="0 0 24 24"><title>iconoteka_food__dining__restaurant_r_s</title><path d="M9.87,3V7H8.48V3h-1V7H6.13V3H5.24L4.85,7.88a1.74,1.74,0,0,0,.92,1.67l.87.46-.47,9.06a1.83,1.83,0,1,0,3.66,0L9.36,10l.87-.46a1.74,1.74,0,0,0,.92-1.67L10.76,3ZM9.76,8.67l-.87.46-.56.3,0,.63.47,9.06a.84.84,0,0,1-.23.62.82.82,0,0,1-1.2,0,.84.84,0,0,1-.23-.62l.47-9.06,0-.63-.56-.3-.87-.46A.72.72,0,0,1,5.85,8h4.3A.72.72,0,0,1,9.76,8.67ZM17.49,3A1.51,1.51,0,0,0,16,4.08L14,10.92a2,2,0,0,0,1.21,2.45l1.12.42-.6,5.37a1.65,1.65,0,1,0,3.29.19V4.51A1.52,1.52,0,0,0,17.49,3ZM18,19.35a.65.65,0,1,1-1.3-.08l.6-5.37.09-.77-.73-.28-1.12-.41a1,1,0,0,1-.61-1.23L17,4.37a.53.53,0,0,1,.5-.37.51.51,0,0,1,.51.51Z"/></svg>