<svg id="Hot_2" data-name="Hot 2" xmlns="http://www.w3.org/2000/svg" viewBox="0 0 24 24"><title>iconoteka_traffic light_l_s</title><path d="M12,10a2,2,0,1,0,2,2A2,2,0,0,0,12,10Zm0,3.5A1.5,1.5,0,1,1,13.5,12,1.5,1.5,0,0,1,12,13.5Zm5.47.5a1.33,1.33,0,0,0,1.26-.91l1-3.09H17V9h.47a1.33,1.33,0,0,0,1.26-.91l1-3.09H17V4.5A2.5,2.5,0,0,0,14.5,2h-5A2.5,2.5,0,0,0,7,4.5V5H4.24l1,3.09A1.33,1.33,0,0,0,6.53,9H7v1H4.24l1,3.09A1.33,1.33,0,0,0,6.53,14H7v1H4.24l1,3.09A1.33,1.33,0,0,0,6.53,19H7v.5A2.5,2.5,0,0,0,9.5,22h5A2.5,2.5,0,0,0,17,19.5V19h.47a1.33,1.33,0,0,0,1.26-.91l1-3.09H17V14ZM17,5.5h2.07l-.81,2.43a.83.83,0,0,1-.79.57H17Zm0,5h2.07l-.81,2.43a.83.83,0,0,1-.79.57H17Zm-10,8H6.53a.83.83,0,0,1-.79-.57L4.93,15.5H7Zm0-5H6.53a.83.83,0,0,1-.79-.57L4.93,10.5H7Zm0-5H6.53a.83.83,0,0,1-.79-.57L4.93,5.5H7ZM16.5,5h0V9h0v1h0v4h0v1h0v4h0v.5a2,2,0,0,1-2,2h-5a2,2,0,0,1-2-2V19h0V15h0V14h0V10h0V9h0V5h0V4.5a2,2,0,0,1,2-2h5a2,2,0,0,1,2,2Zm2.57,10.5-.81,2.43a.83.83,0,0,1-.79.57H17v-3ZM12,5a2,2,0,1,0,2,2A2,2,0,0,0,12,5Zm0,3.5A1.5,1.5,0,1,1,13.5,7,1.5,1.5,0,0,1,12,8.5ZM12,15a2,2,0,1,0,2,2A2,2,0,0,0,12,15Zm0,3.5A1.5,1.5,0,1,1,13.5,17,1.5,1.5,0,0,1,12,18.5Z"/></svg>