<svg id="Hot_2" data-name="Hot 2" xmlns="http://www.w3.org/2000/svg" viewBox="0 0 24 24"><title>iconoteka_theaters_b_s</title><path d="M8,13.25A2.25,2.25,0,0,0,10.23,11H5.73A2.25,2.25,0,0,0,8,13.25ZM22.89,6h-8l0-4H1v9a7,7,0,0,0,7,7,7.16,7.16,0,0,0,1.61-.19A7,7,0,0,0,23,15ZM8,16a5,5,0,0,1-5-5V4h9.91L13,11a5,5,0,0,1-5,5Zm11.53,2.53A4.94,4.94,0,0,1,16,20a5,5,0,0,1-4.54-2.92,7.1,7.1,0,0,0,1.49-1.14,7,7,0,0,0,2-5l0-3h6L21,15A5,5,0,0,1,19.51,18.53ZM10.2,6a1.2,1.2,0,1,0,1.2,1.2A1.2,1.2,0,0,0,10.2,6ZM7,7.21a1.2,1.2,0,1,0-2.4,0,1.2,1.2,0,1,0,2.4,0ZM16.08,15a2.25,2.25,0,0,0-2.25,2.25h4.5A2.25,2.25,0,0,0,16.08,15Zm2.22-5a1.2,1.2,0,1,0,1.2,1.2A1.2,1.2,0,0,0,18.3,10Z"/></svg>