<svg id="Hot_2" data-name="Hot 2" xmlns="http://www.w3.org/2000/svg" viewBox="0 0 24 24"><defs><style>.cls-1{fill:#231f20;}</style></defs><title>iconoteka_location__place_r_s</title><path d="M12,1a8,8,0,0,1,8,8c0,6.33-7.91,13.52-8,13.59h0C11.92,22.51,4,15.32,4,9a8,8,0,0,1,8-8m0-1A9,9,0,0,0,3,9c0,6.77,8,14,8.32,14.34l.67.6.67-.6C13,23,21,15.76,21,9a9,9,0,0,0-9-9Z"/><path class="cls-1" d="M12,6.65A2.35,2.35,0,1,1,9.65,9,2.35,2.35,0,0,1,12,6.65m0-.9A3.25,3.25,0,1,0,15.25,9,3.26,3.26,0,0,0,12,5.75Z"/></svg>