<svg id="Hot_2" data-name="Hot 2" xmlns="http://www.w3.org/2000/svg" viewBox="0 0 24 24"><title>iconoteka_planet__earth_eurasia_africa_b_s</title><path d="M12,2A10,10,0,1,0,22,12,10,10,0,0,0,12,2ZM10.05,8.15a.16.16,0,0,1-.13-.07.14.14,0,0,1,0-.15l.62-1.08h5.61V10.5a.65.65,0,0,1-.65.65H12.85v-3ZM4,12a8,8,0,0,1,8-8,7.89,7.89,0,0,1,4.11,1.15H9.56L8.44,7.08a1.85,1.85,0,0,0,1.61,2.77h1.1v1.3H8.5a2.35,2.35,0,0,0-.36,4.67v3H10.5a2.35,2.35,0,0,0,2.35-2.35V12.85H15.5a2.35,2.35,0,0,0,2.35-2.35V6.56A8,8,0,0,1,20,12a8.77,8.77,0,0,1-.09,1.15H18.8l-2.65,1.32v3.38h1.29A8,8,0,0,1,4,12Zm7.15.85V16.5a.65.65,0,0,1-.65.65H9.85l0-3H8.5a.65.65,0,0,1,0-1.3Zm6.7,3.3v-.62l1.35-.68h.27a8.26,8.26,0,0,1-.64,1.3Z"/></svg>