<svg id="Hot_2" data-name="Hot 2" xmlns="http://www.w3.org/2000/svg" viewBox="0 0 24 24"><title>iconoteka_all_inclusive__infinity_r_a</title><path d="M20.49,3.51C18.25,1.28,14.91,1,13,2.88c-2.28,2.28-1.75,7.5-1.62,8.53-1.16-.15-6.26-.66-8.53,1.62a4.43,4.43,0,0,0-1.23,3.64,6.4,6.4,0,0,0,1.86,3.82,6.22,6.22,0,0,0,4.32,1.88A4.34,4.34,0,0,0,11,21.12c2.28-2.28,1.75-7.5,1.62-8.53a20.58,20.58,0,0,0,2.48.16c2,0,4.6-.32,6.05-1.78a4.43,4.43,0,0,0,1.23-3.64A6.4,6.4,0,0,0,20.49,3.51ZM10.27,20.42c-1.49,1.49-4.2,1.2-6-.64a5.32,5.32,0,0,1-1.57-3.2,3.46,3.46,0,0,1,.93-2.85C4.73,12.58,7,12.26,9,12.26a18.25,18.25,0,0,1,2.45.16l.11,0,0,.11C11.58,12.61,12.4,18.29,10.27,20.42ZM20.42,10.27c-1.7,1.69-5.89,1.59-7.87,1.31l-.11,0,0-.11c0-.06-.82-5.74,1.31-7.87,1.49-1.49,4.21-1.2,6.05.64a5.32,5.32,0,0,1,1.57,3.2A3.46,3.46,0,0,1,20.42,10.27Z"/></svg>