<svg id="Hot_2" data-name="Hot 2" xmlns="http://www.w3.org/2000/svg" viewBox="0 0 24 24"><title>iconoteka_dice__casino_r_s</title><path d="M18.33,3h-12a3,3,0,0,0-3,3V18a3,3,0,0,0,3,3h12a3,3,0,0,0,3-3V6A3,3,0,0,0,18.33,3Zm2,15a2,2,0,0,1-2,2h-12a2,2,0,0,1-2-2V6a2,2,0,0,1,2-2h12a2,2,0,0,1,2,2Zm-4-10.75a.75.75,0,1,0,.75.75A.76.76,0,0,0,16.33,7.25Zm-4,4a.75.75,0,1,0,.75.75A.76.76,0,0,0,12.33,11.25Zm-4-4A.75.75,0,1,0,9.08,8,.76.76,0,0,0,8.33,7.25Zm8,8a.75.75,0,1,0,.75.75A.76.76,0,0,0,16.33,15.25Zm-8,0a.75.75,0,1,0,.75.75A.76.76,0,0,0,8.33,15.25Z"/></svg>