<svg id="Hot_2" data-name="Hot 2" xmlns="http://www.w3.org/2000/svg" viewBox="0 0 24 24"><title>iconoteka_earth_eurasia_africa__planet_b_s</title><path d="M12,2A10,10,0,1,0,22,12,10,10,0,0,0,12,2ZM4,10.41A8.19,8.19,0,0,1,16.25,5H10.31A2,2,0,0,0,8.43,6.32L7.82,8a1.5,1.5,0,0,0,1.41,2h1.38a.57.57,0,0,1,.43.18.56.56,0,0,1,.17.43.6.6,0,0,1-.6.59H8a2,2,0,0,0-2,2v1A1.81,1.81,0,0,0,7.8,16H8v1.5a.5.5,0,0,0,.5.5H10a3,3,0,0,0,3-3V13h2a3,3,0,0,0,3-3V6.43A8.16,8.16,0,0,1,20.2,12c0,.13,0,.27,0,.4a2.59,2.59,0,0,0-.68-.09h0a2.94,2.94,0,0,0-2.14.92L16,14.67V18h1.57A8.19,8.19,0,0,1,4,10.41Zm8.37-1.5a2.39,2.39,0,0,0-1.71-.71H9.66l.46-1.27a.21.21,0,0,1,.19-.13H16.2V10A1.2,1.2,0,0,1,15,11.2H12.94a2.25,2.25,0,0,0,.07-.58A2.39,2.39,0,0,0,12.32,8.91ZM7.8,14.2v-1A.2.2,0,0,1,8,13h3.2v2A1.2,1.2,0,0,1,10,16.2H9.8V14.7a.5.5,0,0,0-.5-.5ZM19,16.2H17.8v-.82l.86-.91a1.15,1.15,0,0,1,.83-.36h0a.86.86,0,0,1,.39.09A8.28,8.28,0,0,1,19,16.2Z"/></svg>