<svg id="Hot_2" data-name="Hot 2" xmlns="http://www.w3.org/2000/svg" viewBox="0 0 24 24"><defs><style>.cls-1{fill:none;}</style></defs><title>iconoteka_planet__language_public_b_s</title><rect class="cls-1" width="24" height="24"/><path d="M12,2A10,10,0,1,0,22,12,10,10,0,0,0,12,2Zm7.93,9H16.46a17.37,17.37,0,0,0-1.34-6.37A8,8,0,0,1,19.93,11ZM12,20c-.79,0-2.27-2.46-2.46-7h4.92C14.27,17.54,12.79,20,12,20ZM9.54,11C9.73,6.46,11.21,4,12,4s2.27,2.46,2.46,7ZM8.88,4.63A17.37,17.37,0,0,0,7.54,11H4.07A8,8,0,0,1,8.88,4.63ZM4.07,13H7.54a17.37,17.37,0,0,0,1.34,6.37A8,8,0,0,1,4.07,13Zm11,6.37A17.37,17.37,0,0,0,16.46,13h3.47A8,8,0,0,1,15.12,19.37Z"/></svg>