<svg id="Hot_2" data-name="Hot 2" xmlns="http://www.w3.org/2000/svg" viewBox="0 0 24 24"><title>iconoteka_beach__vacation__umbrella_m_s</title><path d="M15.08,20.55l-2.35-8.74,9.06-2.43A11,11,0,0,0,11.81,2a9.72,9.72,0,0,0-2.43.32C4.29,3.72,1.24,9.06,2.14,14.64l5.1-1.36h0l4-1.09,2.23,8.3A26.67,26.67,0,0,0,4,22H21.94a25.62,25.62,0,0,0-6.88-1.44ZM9.77,3.8l.19,0c1.16,0,3.25,2.12,4.76,5.94L8.44,11.4C7.8,7.08,8.67,4.1,9.77,3.8Zm9.91,4.59-3.49.94a12.64,12.64,0,0,0-4-5.77A9.34,9.34,0,0,1,19.68,8.39ZM3.48,12.73A9.29,9.29,0,0,1,7.53,4.8a12.68,12.68,0,0,0-.55,7Z"/></svg>