<svg id="Hot_2" data-name="Hot 2" xmlns="http://www.w3.org/2000/svg" viewBox="0 0 24 24"><title>iconoteka_theaters__entertainment_m_s</title><path d="M14,17.25h4a2,2,0,0,0-4,0Zm4.22-5a1,1,0,1,0-1-1A1,1,0,0,0,18.2,12.21ZM15,6V2H1v9a7,7,0,0,0,7,7,7.16,7.16,0,0,0,1.61-.19A7,7,0,0,0,23,15V6ZM8,16.5A5.51,5.51,0,0,1,2.5,11V3.5h11V11A5.51,5.51,0,0,1,8,16.5ZM21.5,15A5.49,5.49,0,0,1,11,17.31,7,7,0,0,0,15,11V7.5h6.5ZM8,13a2,2,0,0,0,2-2H6A2,2,0,0,0,8,13ZM10.2,6.21a1,1,0,1,0,1,1A1,1,0,0,0,10.2,6.21Zm-3.45,1a1,1,0,0,0-2,0,1,1,0,0,0,2,0Z"/></svg>