<svg id="Hot_2" data-name="Hot 2" xmlns="http://www.w3.org/2000/svg" viewBox="0 0 24 24"><title>iconoteka_fitness_center__gym__sport__dumbbell_l_s</title><path d="M21.9,7.76,16.24,2.1,14.65,3.69,13.24,2.28l-2,1.94L14.47,7.4,7.4,14.47,4.22,11.29l-1.94,2,1.41,1.41L2.1,16.24,7.76,21.9l1.59-1.59,1.41,1.41,2-1.94L9.53,16.6,16.6,9.53l3.18,3.18,1.94-2L20.31,9.35ZM9,20,7.76,21.19l-4.95-5L4.05,15l2.47,2.47ZM10.76,21,3,13.24,4.22,12,12,19.78ZM9.17,16.24,7.76,14.83l7.07-7.07,1.41,1.41ZM15,4.05l1.23-1.24,5,4.95L20,9,17.48,6.52Zm6,6.71L19.78,12,12,4.22,13.24,3Z"/></svg>