<svg id="Hot_2" data-name="Hot 2" xmlns="http://www.w3.org/2000/svg" viewBox="0 0 24 24"><title>iconoteka_earth_eurasia_africa__planet_l_s</title><path d="M12,2A10,10,0,1,0,22,12,10,10,0,0,0,12,2Zm7.73,15.5H17.5V15.57l.93-1A1.79,1.79,0,0,1,19.75,14h0a1.71,1.71,0,0,1,1.35.68A9.32,9.32,0,0,1,19.73,17.5Zm0-4h0a2.35,2.35,0,0,0-1.69.73L17,15.37V18h2.36a9.5,9.5,0,1,1,2.14-6,9.16,9.16,0,0,1-.25,2.11A2.2,2.2,0,0,0,19.76,13.51ZM7.43,6.32,6.82,8a1.5,1.5,0,0,0,1.41,2h2.1a.6.6,0,0,1,0,1.2H8a2,2,0,0,0-2,2V14a1,1,0,0,0,1,1H8v2a1,1,0,0,0,1,1h.5A2.5,2.5,0,0,0,12,15.5V13h3.5A2.5,2.5,0,0,0,18,10.5V5H9.31A2,2,0,0,0,7.43,6.32ZM17.5,10.5a2,2,0,0,1-2,2h-4v3a2,2,0,0,1-2,2H9a.5.5,0,0,1-.5-.5V14.5H7a.5.5,0,0,1-.5-.5v-.8A1.5,1.5,0,0,1,8,11.7h2.33a1.1,1.1,0,0,0,0-2.2H8.23a1,1,0,0,1-.82-.43,1,1,0,0,1-.12-.91L7.9,6.49a1.51,1.51,0,0,1,1.41-1H17.5Z"/></svg>