<svg id="Hot_2" data-name="Hot 2" xmlns="http://www.w3.org/2000/svg" viewBox="0 0 24 24"><title>iconoteka_earth_eurasia_africa__planet_m_s</title><path d="M12,2A10,10,0,1,0,22,12,10,10,0,0,0,12,2Zm7.12,14.63H17.7V15.45l.88-.94a1.35,1.35,0,0,1,1-.43h0a1.24,1.24,0,0,1,.61.17A8.68,8.68,0,0,1,19.12,16.63ZM12,20.5A8.5,8.5,0,1,1,16.81,5H10A2,2,0,0,0,8.1,6.32L7.49,8A1.5,1.5,0,0,0,8.9,10h1.51a.68.68,0,0,1,.6.6.6.6,0,0,1-.6.6H8a2,2,0,0,0-2,2v1.47a1,1,0,0,0,1,1H8v1.66a.67.67,0,0,0,.67.67H9.83a2.84,2.84,0,0,0,2.84-2.83V13h2.5A2.83,2.83,0,0,0,18,10.17V6a8.39,8.39,0,0,1,2.45,6.89,2.49,2.49,0,0,0-.87-.17h0a2.71,2.71,0,0,0-2,.86L16.33,14.9V18H18A8.47,8.47,0,0,1,12,20.5Zm-1.59-12H8.9l.61-1.67A.5.5,0,0,1,10,6.5H16.5v3.67a1.34,1.34,0,0,1-1.33,1.33H12.31a2,2,0,0,0,.2-.88A2.09,2.09,0,0,0,10.41,8.5ZM7.5,14.17v-1a.5.5,0,0,1,.5-.5h2.41a2.14,2.14,0,0,0,.76-.14v2.61A1.34,1.34,0,0,1,9.83,16.5H9.5V14.17Z"/></svg>