<svg id="Hot_2" data-name="Hot 2" xmlns="http://www.w3.org/2000/svg" viewBox="0 0 24 24"><title>iconoteka_hinduism_m_a</title><path d="M16.86,2.52,15.8,1.46,14.73,2.52,15.8,3.58Zm3.29,3.06L19.09,4.51c-2.14,2.14-4.5,1.85-7.22-.88L10.81,4.7c1.81,1.81,3.63,2.72,5.35,2.72A5.64,5.64,0,0,0,20.15,5.58ZM17.58,9.24a6,6,0,0,0-3.86,1.65,5.4,5.4,0,0,1-4.4,1.58,3.73,3.73,0,0,0,1.85-2.82,3.25,3.25,0,0,0-.87-2.49,3.31,3.31,0,0,0-2.47-1A6,6,0,0,0,3.76,8.06L4.82,9.12a4.55,4.55,0,0,1,3-1.49,1.9,1.9,0,0,1,1.38.55,1.83,1.83,0,0,1,.46,1.38c-.1,1.79-3.31,2.59-3.34,2.6l.29,1.47a3.43,3.43,0,0,1,2.88.73A3.55,3.55,0,0,1,10.77,17a3.44,3.44,0,0,1-3.35,3.26c-1.69,0-3.67-1.26-3.67-4.81H2.25c0,4.36,2.6,6.31,5.17,6.31A4.94,4.94,0,0,0,12.27,17a5.06,5.06,0,0,0-1.35-3.34,6.58,6.58,0,0,0,3.72-1.57,4.66,4.66,0,0,1,2.94-1.34,2.93,2.93,0,0,1,3.11,3.2c0,1.87-.91,3.77-2.64,3.77a2.19,2.19,0,0,1-2.38-2.27h-1.5a3.67,3.67,0,0,0,3.88,3.77c2.4,0,4.14-2.22,4.14-5.27A4.41,4.41,0,0,0,17.58,9.24Z"/></svg>