<svg id="Hot_2" data-name="Hot 2" xmlns="http://www.w3.org/2000/svg" viewBox="0 0 24 24"><title>iconoteka_casino_b_s</title><path d="M18,3H6A3,3,0,0,0,3,6V18a3,3,0,0,0,3,3H18a3,3,0,0,0,3-3V6A3,3,0,0,0,18,3Zm1,15a1,1,0,0,1-1,1H6a1,1,0,0,1-1-1V6A1,1,0,0,1,6,5H18a1,1,0,0,1,1,1Zm-7-7.35A1.35,1.35,0,1,0,13.35,12,1.34,1.34,0,0,0,12,10.65Zm4-4A1.35,1.35,0,1,0,17.35,8,1.34,1.34,0,0,0,16,6.65Zm-8,0A1.35,1.35,0,1,0,9.35,8,1.34,1.34,0,0,0,8,6.65Zm8,8A1.35,1.35,0,1,0,17.35,16,1.34,1.34,0,0,0,16,14.65Zm-8,0A1.35,1.35,0,1,0,9.35,16,1.34,1.34,0,0,0,8,14.65Z"/></svg>