<svg id="Hot_2" data-name="Hot 2" xmlns="http://www.w3.org/2000/svg" viewBox="0 0 24 24"><title>iconoteka_fitness_center_b_f</title><path d="M21.9,7.76,19.78,5.64l1.41-1.42L19.78,2.81,18.36,4.22,16.24,2.1a2,2,0,0,0-2.83,0L12,3.51a2,2,0,0,0,0,2.83l1.77,1.77L8.11,13.77,6.34,12a2,2,0,0,0-2.83,0L2.1,13.41a2,2,0,0,0,0,2.83l2.12,2.12L2.81,19.78l1.41,1.41,1.42-1.41L7.76,21.9a2,2,0,0,0,1.41.58,2,2,0,0,0,1.42-.58L12,20.49a2,2,0,0,0,0-2.83l-1.77-1.77,5.66-5.66L17.66,12a2,2,0,0,0,1.41.58A2,2,0,0,0,20.49,12l1.41-1.41A2,2,0,0,0,21.9,7.76Z"/></svg>