<svg id="Hot_2" data-name="Hot 2" xmlns="http://www.w3.org/2000/svg" viewBox="0 0 24 24"><title>iconoteka_earth_eurasia_africa__planet_l_f</title><path d="M12,2A10,10,0,1,0,22,12,10,10,0,0,0,12,2Zm8.36,11a1.65,1.65,0,0,0-1.15.47L18,14.67V17h2.06a9.48,9.48,0,1,1,1.44-5,10.55,10.55,0,0,1-.11,1.38A1.58,1.58,0,0,0,20.36,13ZM6.43,6.32,5.82,8a1.5,1.5,0,0,0,1.41,2H9a.6.6,0,0,1,0,1.2H7a2,2,0,0,0-2,2V14a1,1,0,0,0,1,1H7v2.5a.5.5,0,0,0,.5.5A2.5,2.5,0,0,0,10,15.5V12h5.5A2.5,2.5,0,0,0,18,9.5V5H8.31A2,2,0,0,0,6.43,6.32Z"/></svg>