<svg id="Hot_2" data-name="Hot 2" xmlns="http://www.w3.org/2000/svg" viewBox="0 0 24 24"><title>iconoteka_location_edit_l_s</title><path d="M12,0A9,9,0,0,0,3,9c0,6.77,8,14,8.32,14.34l.67.6.67-.6C13,23,21,15.76,21,9A9,9,0,0,0,12,0Zm.33,23-.33.3L11.67,23c-.34-.29-8.16-7.41-8.16-14a8.49,8.49,0,0,1,17,0C20.49,15.54,12.67,22.66,12.33,23Zm2.25-17a.73.73,0,0,0-.52-.21.77.77,0,0,0-.53.21L9,10.46V12h1.54l4.54-4.53a.76.76,0,0,0,0-1ZM10.33,11.5H9.5v-.83l3.39-3.39.83.83Zm4.39-4.39-.65.65-.83-.83.65-.65a.24.24,0,0,1,.17-.07.25.25,0,0,1,.17.07l.49.49a.25.25,0,0,1,.07.17A.24.24,0,0,1,14.72,7.11Z"/></svg>