<svg id="Hot_2" data-name="Hot 2" xmlns="http://www.w3.org/2000/svg" viewBox="0 0 24 24"><title>iconoteka_ev_charging_station_l_s</title><path d="M22.5,3V6.39a2.78,2.78,0,0,1-3,0V3H19V6.65a3.29,3.29,0,0,0,1.75.66V18.94a1.56,1.56,0,1,1-3.11,0V15.81a2.06,2.06,0,0,0-2.06-2.06H14V6a3,3,0,0,0-3-3H5A3,3,0,0,0,2,6V21H14V14.25h1.58a1.56,1.56,0,0,1,1.56,1.56v3.13a2.06,2.06,0,1,0,4.11,0V7.31A3.29,3.29,0,0,0,23,6.65V3Zm-9,17.5H2.5V6A2.5,2.5,0,0,1,5,3.5h6A2.5,2.5,0,0,1,13.5,6ZM8.33,6.84h-.8L4.8,12.25H7.67v2.91h.8L11.2,9.75H8.33Zm2.06,3.41-2.22,4.4v-2.9H5.61l2.22-4.4v2.9Z"/></svg>