<svg id="Hot_2" data-name="Hot 2" xmlns="http://www.w3.org/2000/svg" viewBox="0 0 24 24"><title>iconoteka_beach__vacation__umbrella_l_f</title><path d="M8,13.08l3.79-1L16,10.94c-1.57-5-4.15-8.64-6.16-8.64a1.93,1.93,0,0,0-.42.05C7.32,2.91,6.75,7.59,8,13.08Zm8.45-2.29v0l5.35-1.43c-1.82-4.81-6.38-7.8-11-7.28C12.79,2.94,15,6.24,16.43,10.79Zm-2,9.15-2-7.52-.48.13,2,7.36A20.06,20.06,0,0,0,4,22H21.94A20,20,0,0,0,14.39,19.94ZM7.5,13.19c-.93-4.12-1-8.44.49-10.33C3.75,4.75,1.32,9.6,2.14,14.64L7.5,13.21Z"/></svg>