<svg id="Hot_2" data-name="Hot 2" xmlns="http://www.w3.org/2000/svg" viewBox="0 0 24 24"><title>iconoteka_buddhism_r_a</title><path d="M20.86,11.5a8.83,8.83,0,0,0-2.24-5.42l1.51-1.5-.71-.71-1.5,1.51A8.83,8.83,0,0,0,12.5,3.14V1h-1V3.14A8.83,8.83,0,0,0,6.08,5.38L4.58,3.87l-.71.71,1.51,1.5A8.83,8.83,0,0,0,3.14,11.5H1v1H3.14a8.83,8.83,0,0,0,2.24,5.42l-1.51,1.5.71.71,1.5-1.51a8.83,8.83,0,0,0,5.42,2.24V23h1V20.86a8.83,8.83,0,0,0,5.42-2.24l1.5,1.51.71-.71-1.51-1.5a8.83,8.83,0,0,0,2.24-5.42H23v-1ZM12.5,4.14a7.86,7.86,0,0,1,4.71,2L13,10.28a2.28,2.28,0,0,0-.51-.21Zm-1,0v5.93a2.28,2.28,0,0,0-.51.21L6.79,6.09A7.86,7.86,0,0,1,11.5,4.14ZM6.09,6.79,10.28,11a2.28,2.28,0,0,0-.21.51H4.14A7.86,7.86,0,0,1,6.09,6.79ZM4.14,12.5h5.93a2.28,2.28,0,0,0,.21.51l-4.19,4.2A7.86,7.86,0,0,1,4.14,12.5Zm7.36,7.36a7.86,7.86,0,0,1-4.71-1.95L11,13.72a2.28,2.28,0,0,0,.51.21ZM12,13.2A1.2,1.2,0,1,1,13.2,12,1.2,1.2,0,0,1,12,13.2Zm.5,6.66V13.93a2.28,2.28,0,0,0,.51-.21l4.2,4.19A7.86,7.86,0,0,1,12.5,19.86Zm5.41-2.65L13.72,13a2.28,2.28,0,0,0,.21-.51h5.93A7.86,7.86,0,0,1,17.91,17.21Zm-4-5.71a2.28,2.28,0,0,0-.21-.51l4.19-4.2a7.86,7.86,0,0,1,1.95,4.71Z"/></svg>