<svg id="Hot_2" data-name="Hot 2" xmlns="http://www.w3.org/2000/svg" viewBox="0 0 24 24"><title>iconoteka_beach__vacation__umbrella_b_s</title><path d="M13,11.74l8.82-2.36A11,11,0,0,0,11.81,2a9.72,9.72,0,0,0-2.43.32C4.29,3.72,1.24,9.06,2.14,14.64l5.1-1.36h0l3.8-1,2.05,7.63A20,20,0,0,0,4,22H21.94a20.09,20.09,0,0,0-6.75-2ZM9.9,4.28H10c.74,0,2.59,1.56,4.1,5.1l-5.21,1.4C8.37,6.8,9.28,4.45,9.9,4.28Zm9,3.8L16,8.86A12.34,12.34,0,0,0,12.78,4.1,8.83,8.83,0,0,1,18.9,8.08ZM4,12.07A8.8,8.8,0,0,1,7.3,5.59a12.6,12.6,0,0,0-.39,5.71Z"/></svg>