<svg id="Hot_2" data-name="Hot 2" xmlns="http://www.w3.org/2000/svg" viewBox="0 0 24 24"><title>iconoteka_theaters__entertainment_l_s</title><path d="M13.48,18.25h5a2.5,2.5,0,0,0-5,0Zm2.5-2a2,2,0,0,1,1.94,1.5H14A2,2,0,0,1,16,16.25Zm2.22-4.54a.5.5,0,0,0,.5-.5.5.5,0,0,0-.5-.5.5.5,0,0,0-.5.5A.51.51,0,0,0,18.2,11.71ZM15,6V2H1v9a7,7,0,0,0,7,7,7.16,7.16,0,0,0,1.61-.19A7,7,0,0,0,23,15V6ZM8,17.5A6.51,6.51,0,0,1,1.5,11V2.5h13V11A6.51,6.51,0,0,1,8,17.5ZM22.5,15a6.49,6.49,0,0,1-12.4,2.68A7,7,0,0,0,15,11V6.5h7.5ZM8,13.75A2.75,2.75,0,0,0,10.73,11H5.23A2.75,2.75,0,0,0,8,13.75Zm0-.5a2.26,2.26,0,0,1-2.2-1.75h4.39A2.25,2.25,0,0,1,8,13.25ZM10.2,7.71a.5.5,0,0,0,.5-.5.5.5,0,0,0-.5-.5.5.5,0,0,0-.5.5A.51.51,0,0,0,10.2,7.71Zm-4.45,0a.5.5,0,0,0,.5-.5.5.5,0,0,0-.5-.5.5.5,0,0,0-.5.5A.51.51,0,0,0,5.75,7.71Z"/></svg>