<svg id="Hot_2" data-name="Hot 2" xmlns="http://www.w3.org/2000/svg" viewBox="0 0 24 24"><title>iconoteka_earth_america__planet_r_f</title><path d="M12,2A10,10,0,1,0,22,12,10,10,0,0,0,12,2Zm0,19a8.94,8.94,0,0,1-6.91-3.25,2.22,2.22,0,0,0,1.24-2,2.24,2.24,0,0,0-2.24-2.25,2.33,2.33,0,0,0-.92.2A8.7,8.7,0,0,1,3,12,9,9,0,0,1,19,6.29l-.74,2A2,2,0,0,0,20.09,11h.85A8.26,8.26,0,0,1,21,12,9,9,0,0,1,12,21Zm2.57-9.19H10.29a1,1,0,0,1,0-2h4a1,1,0,0,0,.93-.66l.61-1.66A2,2,0,0,0,13.9,4.81h-7a.91.91,0,1,0,0,1.81H7a1,1,0,0,1,1,1v2.8a3,3,0,0,0,.88,2.12l2.7,2.7,0,4.23h1.69a2,2,0,0,0,1.87-1.31l1.34-3.67A2,2,0,0,0,14.57,11.81Z"/></svg>