<svg id="Hot_2" data-name="Hot 2" xmlns="http://www.w3.org/2000/svg" viewBox="0 0 24 24"><title>iconoteka_earth_eurasia_africa__planet_m_f</title><path d="M12,2A10,10,0,1,0,22,12,10,10,0,0,0,12,2Zm0,18.4A8.4,8.4,0,1,1,16.63,5H9A2,2,0,0,0,7.1,6.32L6.49,8A1.5,1.5,0,0,0,7.9,10H9.68a.6.6,0,1,1,0,1.2h-2a2,2,0,0,0-2,2V14a1,1,0,0,0,1,1h1v2.17A.83.83,0,0,0,8.5,18h.33a2.5,2.5,0,0,0,2.5-2.5V12.67H15.5a2.5,2.5,0,0,0,2.5-2.5v-4A8.4,8.4,0,0,1,20.4,12a7.83,7.83,0,0,1-.11,1.29,1.63,1.63,0,0,0-.93-.29,1.65,1.65,0,0,0-1.15.47L17,14.67V17h1.73A8.37,8.37,0,0,1,12,20.4Z"/></svg>