<svg id="Hot_2" data-name="Hot 2" xmlns="http://www.w3.org/2000/svg" viewBox="0 0 24 24"><title>iconoteka_earth_america__planet_l_s</title><path d="M12,2A10,10,0,1,0,22,12,10,10,0,0,0,12,2Zm9.37,8.5H20.23A1.46,1.46,0,0,1,19,9.86a1.49,1.49,0,0,1-.18-1.37l.78-2.16A9.44,9.44,0,0,1,21.37,10.5ZM2.79,14.3a1.83,1.83,0,0,1,1-.29h0a1.74,1.74,0,0,1,.45,3.42A9.67,9.67,0,0,1,2.79,14.3ZM12,21.5a9.48,9.48,0,0,1-7.47-3.65,2.24,2.24,0,0,0-.77-4.34h0a2.24,2.24,0,0,0-1.07.3A9,9,0,0,1,2.5,12,9.49,9.49,0,0,1,19.24,5.87l-.89,2.45A2,2,0,0,0,20.23,11h1.22c0,.33.05.66.05,1A9.51,9.51,0,0,1,12,21.5Zm2.78-9.69h-4.2a.51.51,0,0,1-.5-.5.5.5,0,0,1,.5-.5h3.29a1,1,0,0,0,.94-.66l1-2.66A2,2,0,0,0,13.9,4.81H7.28a.91.91,0,0,0,0,1.81A.72.72,0,0,1,8,7.34v3.08a3,3,0,0,0,.88,2.13l1.7,1.69,0,5.57h2.08a3,3,0,0,0,2.82-2l1.22-3.34A2,2,0,0,0,14.78,11.81Zm1.41,2.51L15,17.66a2.49,2.49,0,0,1-2.35,1.65H11.05l0-5.07V14l-.15-.15-1.7-1.69a2.49,2.49,0,0,1-.73-1.77V7.34A1.22,1.22,0,0,0,7.28,6.12a.41.41,0,0,1,0-.81H13.9a1.5,1.5,0,0,1,1.41,2l-1,2.66a.51.51,0,0,1-.47.33H10.58a1,1,0,0,0-.7.29,1,1,0,0,0,.7,1.71h4.2A1.46,1.46,0,0,1,16,13,1.48,1.48,0,0,1,16.19,14.32Z"/></svg>