<svg id="Hot_2" data-name="Hot 2" xmlns="http://www.w3.org/2000/svg" viewBox="0 0 24 24"><title>iconoteka_earth_planet_r_s</title><path d="M12,2A10,10,0,1,0,22,12,10,10,0,0,0,12,2Zm6.45,16.25a.73.73,0,0,1-.74-.73V16a1.36,1.36,0,0,0-1.36-1.36h-.94a.71.71,0,0,1-.7-.7v-.8a1.5,1.5,0,0,1,1.5-1.5h2.07a1.5,1.5,0,0,0,0-3H14.85a.47.47,0,0,1-.4-.22A.48.48,0,0,1,14.38,8l.73-2a1,1,0,0,1,.94-.66h2a9,9,0,0,1,.44,12.92ZM6.67,12.81H9a1,1,0,0,1,.82.42,1,1,0,0,1,.12.92l-1.09,3a2,2,0,0,1-1.88,1.31h-1l0-4.22v-.42l-.3-.3L3.06,11A8.93,8.93,0,0,1,5.49,5.81H7.9a1,1,0,0,1,.82.42,1,1,0,0,1,.12.92l-1,2.66H6.67a1.46,1.46,0,0,0-1.06.44,1.5,1.5,0,0,0,1.06,2.56ZM4.89,17.5A9,9,0,0,1,3,12.35l1.89,1.89Zm2.1,2a3,3,0,0,0,2.76-2l1.09-3A2,2,0,0,0,9,11.81H6.67a.51.51,0,0,1-.5-.5.5.5,0,0,1,.5-.5h1.2a1,1,0,0,0,.94-.66l1-2.66A2,2,0,0,0,7.9,4.81H6.61a8.93,8.93,0,0,1,10.08-.48h-.64a2,2,0,0,0-1.88,1.32l-.72,2a1.5,1.5,0,0,0,1.4,2h3.43a.5.5,0,0,1,.5.5.5.5,0,0,1-.5.5H16.21a2.5,2.5,0,0,0-2.5,2.5V14a1.7,1.7,0,0,0,1.7,1.7h.94a.36.36,0,0,1,.36.36v1.49a1.74,1.74,0,0,0,.9,1.51A9,9,0,0,1,7,19.47Z"/></svg>