<svg id="Hot_2" data-name="Hot 2" xmlns="http://www.w3.org/2000/svg" viewBox="0 0 24 24"><title>iconoteka_earth_america__planet_r_s</title><path d="M12,2A10,10,0,1,0,22,12,10,10,0,0,0,12,2Zm7.35,4.83a8.87,8.87,0,0,1,1.44,3.24H19.7a1.05,1.05,0,0,1-.87-.46,1,1,0,0,1-.13-1ZM4.51,17a8.73,8.73,0,0,1-1.22-2.75A1.59,1.59,0,0,1,4,14H4A1.51,1.51,0,0,1,4.51,17ZM12,21a9,9,0,0,1-6.93-3.26A2.44,2.44,0,0,0,4,13.11H4a2.33,2.33,0,0,0-.9.18A9.22,9.22,0,0,1,3,12,9,9,0,0,1,18.67,6l-.85,2.34A2,2,0,0,0,19.7,11h1.24A8.26,8.26,0,0,1,21,12,9,9,0,0,1,12,21Zm2.78-9.26H11.61A.44.44,0,0,1,11.3,11a.46.46,0,0,1,.31-.13h2.26a1.06,1.06,0,0,0,1-.7l1-2.66A2.07,2.07,0,0,0,13.9,4.74H7.7a1,1,0,0,0-.25,2,.66.66,0,0,1,.48.64v3.07a3.11,3.11,0,0,0,.87,2.14l.08.08,1.63,1.62,0,4.27a1,1,0,0,0,1,1h1.27a3.08,3.08,0,0,0,2.88-2l.95-2.62c0-.06.13-.37.17-.5a.69.69,0,0,0,0-.13,2.29,2.29,0,0,0-.48-1.84A2,2,0,0,0,14.78,11.74Zm1,2.38-.15.44-1,2.62a2.08,2.08,0,0,1-1.94,1.36H11.48l0-4.69L9.59,11.93l-.06-.06a2.12,2.12,0,0,1-.6-1.45V7.35A1.65,1.65,0,0,0,7.7,5.74h6.2a1.05,1.05,0,0,1,.87.46,1,1,0,0,1,.13,1l-1,2.66a.05.05,0,0,1-.06,0H11.61a1.42,1.42,0,0,0-1.43,1.44,1.43,1.43,0,0,0,1.43,1.43h3.17a.91.91,0,0,1,.74.34A1.32,1.32,0,0,1,15.79,14.12Z"/></svg>