<svg id="Hot_2" data-name="Hot 2" xmlns="http://www.w3.org/2000/svg" viewBox="0 0 24 24"><defs><style>.cls-1{fill:none;}</style></defs><title>iconoteka_pool_b_s</title><rect class="cls-1" width="24" height="24"/><path d="M18.87,15.23a2.56,2.56,0,0,1-2.87.54V5a3,3,0,0,0-3-3H12V4h1a1,1,0,0,1,1,1V6H10V5A3,3,0,0,0,7,2H6V4H7A1,1,0,0,1,8,5V15.77A2.43,2.43,0,0,1,7,16a3,3,0,0,1-1.87-.77A4.87,4.87,0,0,0,2,14v2a3,3,0,0,1,1.87.77A4.87,4.87,0,0,0,7,18a4.87,4.87,0,0,0,3.13-1.23,3,3,0,0,1,1.8-.77h.14a3,3,0,0,1,1.8.77A4.87,4.87,0,0,0,17,18a4.87,4.87,0,0,0,3.13-1.23A3,3,0,0,1,22,16V14A4.87,4.87,0,0,0,18.87,15.23ZM14,14H10V12h4Zm0-6v2H10V8Z"/><path d="M15.13,19.22a4.62,4.62,0,0,0-6.26,0A2.91,2.91,0,0,1,7,20a2.91,2.91,0,0,1-1.87-.78A4.87,4.87,0,0,0,2,18v2a2.91,2.91,0,0,1,1.87.78A4.87,4.87,0,0,0,7,22a4.87,4.87,0,0,0,3.13-1.23,2.61,2.61,0,0,1,3.74,0A4.87,4.87,0,0,0,17,22a4.87,4.87,0,0,0,3.13-1.23A2.91,2.91,0,0,1,22,20V18a4.87,4.87,0,0,0-3.13,1.23A2.61,2.61,0,0,1,15.13,19.22Z"/></svg>