<svg id="Hot_2" data-name="Hot 2" xmlns="http://www.w3.org/2000/svg" viewBox="0 0 24 24"><title>iconoteka_beach__vacation__umbrella_r_f</title><path d="M8,13.06,15.9,11c-1.57-5-4.12-8.66-6.12-8.66a1.83,1.83,0,0,0-.4.05C7.34,2.9,6.8,7.57,8,13.06Zm8.82-2.4v0l4.92-1.32A10.89,10.89,0,0,0,11.44,2.05C13.57,3.21,15.57,6.53,16.86,10.66Zm-9.8,2.62c-.87-3.87-1-7.95.32-10.13A10.92,10.92,0,0,0,2.14,14.64l4.93-1.32ZM14.66,20l-1.91-7.12-1,.26,1.83,6.8A20.09,20.09,0,0,0,4,22H21.94A20,20,0,0,0,14.66,20Z"/></svg>