<svg id="Hot_2" data-name="Hot 2" xmlns="http://www.w3.org/2000/svg" viewBox="0 0 24 24"><title>iconoteka_pool_b_a</title><path d="M15.13,19.23a4.62,4.62,0,0,0-6.26,0A3,3,0,0,1,7,20a3,3,0,0,1-1.87-.77A4.87,4.87,0,0,0,2,18v2a3,3,0,0,1,1.87.77A4.87,4.87,0,0,0,7,22a4.87,4.87,0,0,0,3.13-1.23,2.63,2.63,0,0,1,3.74,0A4.87,4.87,0,0,0,17,22a4.87,4.87,0,0,0,3.13-1.23A3,3,0,0,1,22,20V18a4.87,4.87,0,0,0-3.13,1.23A2.63,2.63,0,0,1,15.13,19.23Zm3.74-4a2.56,2.56,0,0,1-2.87.54V5a3,3,0,0,0-3-3H12V4h1a1,1,0,0,1,1,1V6H10V5A3,3,0,0,0,7,2H6V4H7A1,1,0,0,1,8,5V15.77A2.43,2.43,0,0,1,7,16a3,3,0,0,1-1.87-.77A4.87,4.87,0,0,0,2,14v2a3,3,0,0,1,1.87.77A4.87,4.87,0,0,0,7,18a4.87,4.87,0,0,0,3.13-1.23,3,3,0,0,1,1.8-.77h.14a3,3,0,0,1,1.8.77A4.87,4.87,0,0,0,17,18a4.87,4.87,0,0,0,3.13-1.23A3,3,0,0,1,22,16V14A4.87,4.87,0,0,0,18.87,15.23ZM14,14H10V12h4Zm0-4H10V8h4Z"/></svg>