<svg id="Hot_2" data-name="Hot 2" xmlns="http://www.w3.org/2000/svg" viewBox="0 0 24 24"><defs><style>.cls-1{fill:none;}</style></defs><title>iconoteka_beach_access_b_s</title><rect class="cls-1" width="24" height="24"/><path d="M13,11.73l8.75-2.34-.4-1a10,10,0,0,0-19.2,5.14l.17,1.11L11,12.25l2.05,7.64A20,20,0,0,0,4,22H21.94a20.09,20.09,0,0,0-6.75-2Zm-3-7.46a.93.93,0,0,1,.24,0c1.13,0,2.92,1.93,4.14,5.07L8.67,10.82C8.12,7.25,8.83,4.56,9.93,4.27Zm9,3.79-2.72.73a14.68,14.68,0,0,0-2.62-4.62A8,8,0,0,1,19,8.06ZM6.69,6a14.64,14.64,0,0,0,0,5.32L4,12.07A8,8,0,0,1,6.69,6Z"/></svg>