<svg id="Hot_2" data-name="Hot 2" xmlns="http://www.w3.org/2000/svg" viewBox="0 0 24 24"><title>iconoteka_spa_l_s</title><path d="M23,11c0-.33,0-.66-.05-1h-.2A11,11,0,0,0,16.5,12a13.45,13.45,0,0,0-4.5-10A13.45,13.45,0,0,0,7.5,12,11,11,0,0,0,1.25,10h-.2c0,.33-.05.66-.05,1A11,11,0,0,0,11.8,22h.4A11,11,0,0,0,23,11ZM8,12A13,13,0,0,1,12,2.6,13,13,0,0,1,16,12c0,.13,0,.25,0,.38a11,11,0,0,0-4,6.34,11,11,0,0,0-4-6.34C8,12.21,8,12.09,8,12ZM1.5,11c0-.16,0-.32,0-.5A10.52,10.52,0,0,1,11.75,21c0,.16,0,.32,0,.5A10.52,10.52,0,0,1,1.5,11ZM12.26,21.5c0-.18,0-.34,0-.5A10.52,10.52,0,0,1,22.49,10.5c0,.18,0,.34,0,.5A10.52,10.52,0,0,1,12.26,21.5Z"/></svg>