<svg id="Hot_2" data-name="Hot 2" xmlns="http://www.w3.org/2000/svg" viewBox="0 0 24 24"><defs><style>.cls-1{fill:#231f20;}</style></defs><title>iconoteka_location__place_l_s</title><path d="M12,.5A8.5,8.5,0,0,1,20.49,9c0,6.55-7.82,13.67-8.16,14l-.33.3L11.67,23c-.34-.29-8.16-7.41-8.16-14A8.5,8.5,0,0,1,12,.5M12,0A9,9,0,0,0,3,9c0,6.77,8,14,8.32,14.34l.67.6.67-.6C13,23,21,15.76,21,9a9,9,0,0,0-9-9Z"/><path class="cls-1" d="M12,6.25A2.75,2.75,0,1,1,9.25,9,2.75,2.75,0,0,1,12,6.25m0-.5A3.25,3.25,0,1,0,15.25,9,3.26,3.26,0,0,0,12,5.75Z"/></svg>