<svg id="Hot_2" data-name="Hot 2" xmlns="http://www.w3.org/2000/svg" viewBox="0 0 24 24"><title>iconoteka_theaters__entertainment_a_f</title><path d="M13,2H1v9a6,6,0,0,0,12,0ZM3.17,7.21a1.2,1.2,0,1,1,1.2,1.2A1.2,1.2,0,0,1,3.17,7.21Zm3.81,6A2.25,2.25,0,0,1,4.73,11h4.5A2.25,2.25,0,0,1,7,13.25ZM9.59,8.41a1.2,1.2,0,1,1,1.2-1.2A1.2,1.2,0,0,1,9.59,8.41ZM15,6.16V11a8,8,0,0,1-3.41,6.55,6,6,0,0,0,11.49-2.39v-9Zm-.17,11.09a2.25,2.25,0,0,1,4.5,0Zm4.84-4.69a1.2,1.2,0,1,1,1.2-1.2A1.2,1.2,0,0,1,19.67,12.56Z"/></svg>