<svg id="Hot_2" data-name="Hot 2" xmlns="http://www.w3.org/2000/svg" viewBox="0 0 24 24"><title>iconoteka_earth_eurasia_africa__planet_r_f</title><path d="M12,2A10,10,0,1,0,22,12,10,10,0,0,0,12,2Zm0,19A9,9,0,0,1,12,3a8.91,8.91,0,0,1,5.64,2h-9A2,2,0,0,0,6.76,6.32L6.16,8a1.49,1.49,0,0,0,1.41,2H9.35a.6.6,0,0,1,0,1.2h-2a2,2,0,0,0-2,2V14a1,1,0,0,0,1,1h1v2.33A.67.67,0,0,0,8,18h.17a2.5,2.5,0,0,0,2.5-2.5V12.33H15.5A2.5,2.5,0,0,0,18,9.83V5.31A9,9,0,0,1,21,12a8.85,8.85,0,0,1-.2,1.87A1.63,1.63,0,0,0,19.36,13a1.65,1.65,0,0,0-1.15.47L17,14.67V17h2.49A9,9,0,0,1,12,21Z"/></svg>