<svg id="Hot_2" data-name="Hot 2" xmlns="http://www.w3.org/2000/svg" viewBox="0 0 24 24"><title>iconoteka_capsule_hotel_l_s</title><path d="M6.49,10.25a2,2,0,1,0-2-2A2,2,0,0,0,6.49,10.25Zm0-3.5A1.5,1.5,0,1,1,5,8.25,1.5,1.5,0,0,1,6.49,6.75ZM2,3V21H22V3ZM18.5,20.5h-8v-5H16A2.5,2.5,0,0,1,18.5,18Zm3,0H19V18a3,3,0,0,0-3-3H10v5.5H2.5V12.25h19Zm-11-8.75v-5H16a2.5,2.5,0,0,1,2.5,2.5v2.5Zm11,0H19V9.25a3,3,0,0,0-3-3H10v5.5H2.5V3.5h19ZM6.49,19a2,2,0,1,0-2-2A2,2,0,0,0,6.49,19Zm0-3.5A1.5,1.5,0,1,1,5,17,1.5,1.5,0,0,1,6.49,15.5Z"/></svg>