<svg id="Hot_2" data-name="Hot 2" xmlns="http://www.w3.org/2000/svg" viewBox="0 0 24 24"><title>iconoteka_scales__judge__justice__courthouse_r_s</title><path d="M18.5,4h-6V2.5a.5.5,0,0,0-1,0V4h-6L1,14H1A4.68,4.68,0,0,0,5.5,17.2,4.68,4.68,0,0,0,10,14h0L6,5H11.5V19.93l-4.5.5V21H17v-.57l-4.5-.5V5h5.55L14,14h0a4.76,4.76,0,0,0,9,0h0ZM5.5,16.2A3.68,3.68,0,0,1,2.08,14v0H8.91v0A3.68,3.68,0,0,1,5.5,16.2Zm-3-3.2,3-6.56,3,6.56Zm18.92,0H15.54l3-6.56Zm-3,3.2A3.68,3.68,0,0,1,15.08,14v0h6.82v0A3.68,3.68,0,0,1,18.5,16.2Z"/></svg>