<svg id="Hot_2" data-name="Hot 2" xmlns="http://www.w3.org/2000/svg" viewBox="0 0 24 24"><title>iconoteka_earth_america__planet_l_f</title><path d="M12,2A10,10,0,1,0,22,12,10,10,0,0,0,12,2Zm0,19.5a9.48,9.48,0,0,1-7.47-3.65,2.23,2.23,0,1,0-1.85-4A9,9,0,0,1,2.5,12,9.49,9.49,0,0,1,19.24,5.87l-.89,2.45A2,2,0,0,0,20.23,11h1.22c0,.33.05.66.05,1A9.51,9.51,0,0,1,12,21.5Zm2.7-9.69H9.76a1,1,0,0,1,0-2h4.48a1,1,0,0,0,.93-.66l.61-1.66A2,2,0,0,0,13.9,4.81h-7a.91.91,0,1,0,0,1.81H7a1,1,0,0,1,1,1v2.8a3,3,0,0,0,.88,2.12l2.7,2.7,0,4.57h1.69a2,2,0,0,0,1.88-1.32l1.46-4A2,2,0,0,0,14.7,11.81Z"/></svg>