<svg id="Hot_2" data-name="Hot 2" xmlns="http://www.w3.org/2000/svg" viewBox="0 0 24 24"><title>iconoteka_gavel_b_s</title><path d="M14,20H4a1,1,0,0,0-1,1v1H15V21A1,1,0,0,0,14,20Zm-.06-8L15,11a1.48,1.48,0,0,0,0-2.05l2.59-.77a1.08,1.08,0,0,0,.47-.28,1.1,1.1,0,0,0,0-1.57L14,2.2a1.14,1.14,0,0,0-.79-.32,1.11,1.11,0,0,0-.78.32,1.07,1.07,0,0,0-.28.48L11.4,5.26a1.53,1.53,0,0,0-1-.39,1.48,1.48,0,0,0-1.06.44L5.81,8.84a1.49,1.49,0,0,0,0,2.06l-2.58.77A1.07,1.07,0,0,0,2.7,12a1.12,1.12,0,0,0,0,1.57L6.79,17.6a1.1,1.1,0,0,0,1.57,0,1.08,1.08,0,0,0,.28-.47l.77-2.59a1.47,1.47,0,0,0,1,.4,1.49,1.49,0,0,0,1.06-.44l1.07-1.06L20,20.92a1,1,0,0,0,1.41,0h0a1,1,0,0,0,0-1.41Zm-6.79,3.1-2-2,2.19-.65.43.44Zm3.25-2.4-.35-.35h0L7.58,9.9,10.4,7.08l.36.35h0l1.06,1.06L13.23,9.9ZM13,6.86l.65-2.19,2,2-2.18.64Z"/></svg>