<svg id="Hot_2" data-name="Hot 2" xmlns="http://www.w3.org/2000/svg" viewBox="0 0 24 24"><title>iconoteka_earth_australia__planet_m_s</title><path d="M12,2A10,10,0,1,0,22,12,10,10,0,0,0,12,2Zm0,1.5c.17,0,.33,0,.5,0V7A1.5,1.5,0,0,1,11,8.5H8.31a2,2,0,0,0,.2-.88A1.78,1.78,0,0,0,8.16,6.5a2,2,0,0,0-1.64-1A8.46,8.46,0,0,1,12,3.5ZM5.14,7H6.41a.53.53,0,0,1,.49.32A.38.38,0,0,1,7,7.6a.6.6,0,0,1-.6.6h-2A8.18,8.18,0,0,1,5.14,7ZM3.5,12a8.69,8.69,0,0,1,.32-2.3H6.41a2.14,2.14,0,0,0,.76-.14v3.19a1.34,1.34,0,0,1-1.34,1.34H3.77A8.49,8.49,0,0,1,3.5,12ZM12,20.5a8.5,8.5,0,0,1-7.69-4.91H5.83a2.84,2.84,0,0,0,2.84-2.84V10H11a3,3,0,0,0,3-3V3.75A8.49,8.49,0,0,1,12,20.5ZM15.34,11h-.05a3,3,0,0,0-2.17.94L11.67,13.5V17h3.67a3,3,0,0,0,0-6Zm0,4.61H13V14l1.08-1.14a1.7,1.7,0,0,1,1.23-.52h0a1.63,1.63,0,1,1,0,3.25Z"/></svg>