<svg id="Hot_2" data-name="Hot 2" xmlns="http://www.w3.org/2000/svg" viewBox="0 0 24 24"><defs><style>.cls-1{fill:none;}</style></defs><title>iconoteka_spa_b_s</title><rect class="cls-1" width="24" height="24"/><path d="M22,9a10.91,10.91,0,0,0-5.53,1.51,13.08,13.08,0,0,0-3.76-8.22L12,1.59l-.71.7a13.08,13.08,0,0,0-3.76,8.22A10.91,10.91,0,0,0,2,9H1v1A11,11,0,0,0,11,21V21h2V21A11,11,0,0,0,23,10V9ZM12,4.48A11,11,0,0,1,14.5,12,10.88,10.88,0,0,0,12,15.44,11,11,0,0,0,9.5,12,11,11,0,0,1,12,4.48ZM3.06,11.06a9,9,0,0,1,7.88,7.88A9,9,0,0,1,3.06,11.06Zm10,7.88a9,9,0,0,1,7.88-7.88A9,9,0,0,1,13.06,18.94Z"/></svg>