<svg id="Hot_2" data-name="Hot 2" xmlns="http://www.w3.org/2000/svg" viewBox="0 0 24 24"><title>iconoteka_place_favorite_l_s</title><path d="M12,0A9,9,0,0,0,3,9c0,6.77,8,14,8.32,14.34l.67.6.67-.6C13,23,21,15.76,21,9A9,9,0,0,0,12,0Zm.33,23-.33.3L11.67,23c-.34-.29-8.16-7.41-8.16-14a8.49,8.49,0,0,1,17,0C20.49,15.54,12.67,22.66,12.33,23ZM13,7.73l-1-3.2-1,3.2H7.6l2.72,2-1,3.19,2.72-2,2.72,2-1-3.19,2.72-2Zm.21,2.11.61,1.88-1.6-1.16-.26-.2-.26.2-1.6,1.16.61-1.88.1-.31-.26-.19L9,8.18h2.3l.1-.32L12,6l.61,1.87.1.32H15l-1.6,1.16-.26.19Z"/></svg>