<svg id="Hot_2" data-name="Hot 2" xmlns="http://www.w3.org/2000/svg" viewBox="0 0 24 24"><title>iconoteka_place_favorite_r_s</title><path d="M12,0A9,9,0,0,0,3,9c0,6.77,8,14,8.32,14.34l.67.6.67-.6C13,23,21,15.76,21,9A9,9,0,0,0,12,0Zm0,22.58h0C11.92,22.51,4,15.32,4,9A8,8,0,0,1,20,9C20,15.32,12.08,22.51,12,22.58ZM13.12,7.63,12,4.19,10.88,7.63H7.27l2.92,2.12L9.07,13.19,12,11.07l2.93,2.12L13.81,9.75l2.92-2.12ZM13.05,10l.35,1.1-.93-.68L12,10.08l-.47.34-.93.68L11,10l.18-.55-.47-.34-.93-.68h1.73l.18-.56L12,6.78l.36,1.09.18.56h1.73l-.93.68-.47.34Z"/></svg>