<svg id="Hot_2" data-name="Hot 2" xmlns="http://www.w3.org/2000/svg" viewBox="0 0 24 24"><title>iconoteka_toys__toy_shop__childrens_room_m_s</title><path d="M22,16.9c-.39.32-.8.63-1.22.91s-.83.53-1.26.77l-1-2.37A6,6,0,0,1,18,13.79v-4h.92a2.67,2.67,0,0,0,2.47-1.56,2.55,2.55,0,0,0-1.81-3.48L18,4.31V2H16.45a3.6,3.6,0,0,0-3.56,3.09L12.33,9H7.52a4.79,4.79,0,0,0-4.36,2.86l-.43,1,1.37.61.43-1A3.28,3.28,0,0,1,6,10.89v2.9a6,6,0,0,1-.51,2.42l-1,2.37c-.43-.24-.86-.5-1.26-.77S2.36,17.22,2,16.9L1,18.06a16.38,16.38,0,0,0,1.33,1c.45.31.93.6,1.42.87s1,.51,1.51.73,1,.41,1.59.58a16,16,0,0,0,1.65.42,16.2,16.2,0,0,0,1.72.26,17.25,17.25,0,0,0,3.52,0,16.2,16.2,0,0,0,1.72-.26,16,16,0,0,0,1.65-.42c.54-.17,1.07-.36,1.59-.58s1-.46,1.51-.73,1-.56,1.42-.87a16.38,16.38,0,0,0,1.33-1Zm-8.4-6.4.19-1.29.56-3.91a2.09,2.09,0,0,1,2.07-1.8h.05v2l1.13.28,1.58.4h.05a1.11,1.11,0,0,1,.71.54,1.08,1.08,0,0,1,0,.91,1.16,1.16,0,0,1-1.08.63H16.5v5.54a8.46,8.46,0,0,0,.05.87,3.66,3.66,0,0,0-1.05-.16h-7a3.66,3.66,0,0,0-1,.16,8.46,8.46,0,0,0,0-.87V10.5Zm3.06,9.29a14,14,0,0,1-1.51.39,13.5,13.5,0,0,1-1.57.24,15.75,15.75,0,0,1-3.22,0,13.5,13.5,0,0,1-1.57-.24,14,14,0,0,1-1.51-.39c-.48-.15-1-.33-1.45-.53l-.08,0,.89-2A2,2,0,0,1,8.5,16h7a2,2,0,0,1,1.83,1.19l.89,2-.08,0C17.66,19.46,17.17,19.64,16.69,19.79Z"/></svg>