<svg id="Hot_2" data-name="Hot 2" xmlns="http://www.w3.org/2000/svg" viewBox="0 0 24 24"><title>iconoteka_traffic light_m_s</title><path d="M12,10.75A1.25,1.25,0,1,0,13.25,12,1.25,1.25,0,0,0,12,10.75Zm0,5A1.25,1.25,0,1,0,13.25,17,1.25,1.25,0,0,0,12,15.75Zm0-10A1.25,1.25,0,1,0,13.25,7,1.25,1.25,0,0,0,12,5.75Zm6.84,6.64.8-2.39H18V8a.89.89,0,0,0,.84-.61L19.64,5H18a3,3,0,0,0-3-3H9A3,3,0,0,0,6,5H4.36l.8,2.39A.89.89,0,0,0,6,8v2H4.36l.8,2.39A.89.89,0,0,0,6,13v2H4.36l.8,2.39A.89.89,0,0,0,6,18v1a3,3,0,0,0,3,3h6a3,3,0,0,0,3-3V18a.89.89,0,0,0,.84-.61l.8-2.39H18V13A.89.89,0,0,0,18.84,12.39ZM16.5,19A1.5,1.5,0,0,1,15,20.5H9A1.5,1.5,0,0,1,7.5,19V5A1.5,1.5,0,0,1,9,3.5h6A1.5,1.5,0,0,1,16.5,5Z"/></svg>