<svg id="Hot_2" data-name="Hot 2" xmlns="http://www.w3.org/2000/svg" viewBox="0 0 24 24"><defs><style>.cls-1{fill:none;}</style></defs><title>iconoteka_fitness_center_b_s</title><rect class="cls-1" width="24" height="24"/><path d="M21.9,7.76,19.78,5.64l1.41-1.42L19.78,2.81,18.36,4.22,16.24,2.1a2,2,0,0,0-2.83,0L12,3.51a2,2,0,0,0,0,2.83l2.12,2.12L8.46,14.12,6.34,12a2,2,0,0,0-2.83,0L2.1,13.41a2,2,0,0,0,0,2.83l2.12,2.12L2.81,19.78l1.41,1.41,1.42-1.41L7.76,21.9a2,2,0,0,0,1.41.58,2,2,0,0,0,1.42-.58L12,20.49a2,2,0,0,0,0-2.83L9.88,15.54l5.66-5.66L17.66,12a2,2,0,0,0,1.41.58A2,2,0,0,0,20.49,12l1.41-1.41A2,2,0,0,0,21.9,7.76ZM9.17,20.49,3.51,14.83l1.42-1.42,5.66,5.66Zm9.9-9.9L13.41,4.93l1.42-1.42,5.66,5.66Z"/></svg>