<svg id="Hot_2" data-name="Hot 2" xmlns="http://www.w3.org/2000/svg" viewBox="0 0 24 24"><title>iconoteka_earth_planet_b_s</title><path d="M12,2A10,10,0,1,0,22,12,10,10,0,0,0,12,2Zm6.33,4.8a8.26,8.26,0,0,1,1.75,3.83A2.31,2.31,0,0,0,18,9.2H14.71l.82-2.27a.21.21,0,0,1,.19-.13ZM7.9,6.61a.19.19,0,0,1,.16.08.2.2,0,0,1,0,.19L7.31,9H5.61a2.25,2.25,0,0,0-1.42.5,8,8,0,0,1,1.65-2.9ZM3.82,12.49l1.76,1.75,0,2.81A8.14,8.14,0,0,1,3.82,12.49Zm3.61,6.32h.11a3,3,0,0,0,2.81-2l.86-2.34a2,2,0,0,0-1.88-2.68H5.61a.5.5,0,0,1-.5-.5.5.5,0,0,1,.5-.5H7.87a1,1,0,0,0,.94-.66l1-2.66A2,2,0,0,0,8,4.82,8.16,8.16,0,0,1,16.25,5h-.53a2,2,0,0,0-1.88,1.32L12.87,9a1.5,1.5,0,0,0,1.41,2H18a.5.5,0,0,1,0,1H15.64a2.5,2.5,0,0,0-2.5,2.5v.4a2.1,2.1,0,0,0,2.1,2.1H16a.1.1,0,0,1,.1.1v1.29a2.17,2.17,0,0,0,.1.62,8.18,8.18,0,0,1-8.81-.2ZM7.36,17l0-2.76v-.64h2a.19.19,0,0,1,.16.08.24.24,0,0,1,0,.19l-.86,2.34A1.2,1.2,0,0,1,7.54,17Zm10.58.63V17.1A1.91,1.91,0,0,0,16,15.2h-.8a.29.29,0,0,1-.3-.3v-.4a.7.7,0,0,1,.7-.7H18A2.3,2.3,0,0,0,20.2,12v0A8.14,8.14,0,0,1,17.94,17.64Z"/></svg>