<svg id="Hot_2" data-name="Hot 2" xmlns="http://www.w3.org/2000/svg" viewBox="0 0 24 24"><title>iconoteka_ev_charging_station_r_s</title><path d="M8.35,6.84H6.85l-2,5.66H7.65v2.66h1.5l2-5.66H8.35ZM10,10.35l-1.42,4H8.5V11.65H6l1.42-4h0v2.66ZM22,3V6.1a2.29,2.29,0,0,1-2,0V3H19V6.65a3.31,3.31,0,0,0,1.5.64V18.94a1.31,1.31,0,1,1-2.61,0V15.81a2.31,2.31,0,0,0-2.31-2.31H14V6a3,3,0,0,0-3-3H5A3,3,0,0,0,2,6V21H14V14.5h1.58a1.31,1.31,0,0,1,1.31,1.31v3.13a2.31,2.31,0,1,0,4.61,0V7.29A3.31,3.31,0,0,0,23,6.65V3ZM13,20H3V6A2,2,0,0,1,5,4h6a2,2,0,0,1,2,2Z"/></svg>