<svg id="Hot_2" data-name="Hot 2" xmlns="http://www.w3.org/2000/svg" viewBox="0 0 24 24"><defs><style>.cls-1{fill:#231f20;}</style></defs><title>iconoteka_drop_pin_location_place_l_s</title><path class="cls-1" d="M11.33,18.93l.67.6.67-.6C12.93,18.7,19,13.18,19,8A7,7,0,0,0,5,8C5,13.18,11.07,18.7,11.33,18.93ZM12,1.5A6.51,6.51,0,0,1,18.5,8c0,5-5.91,10.33-6.17,10.56l-.33.3-.33-.3C11.41,18.33,5.5,13,5.5,8A6.51,6.51,0,0,1,12,1.5Zm-8,21V23H20v-.5ZM13.5,8A1.5,1.5,0,1,0,12,9.5,1.5,1.5,0,0,0,13.5,8ZM11,8a1,1,0,1,1,1,1A1,1,0,0,1,11,8Z"/></svg>