<svg id="Hot_2" data-name="Hot 2" xmlns="http://www.w3.org/2000/svg" viewBox="0 0 24 24"><title>iconoteka_location_user_l_s</title><path d="M12,0A9,9,0,0,0,3,9c0,6.77,8,14,8.32,14.34l.67.6.67-.6C13,23,21,15.76,21,9A9,9,0,0,0,12,0Zm.33,23-.33.3L11.67,23c-.34-.29-8.16-7.41-8.16-14a8.49,8.49,0,0,1,17,0C20.49,15.54,12.67,22.66,12.33,23ZM12,8.79a1.6,1.6,0,1,0-1.6-1.6A1.6,1.6,0,0,0,12,8.79Zm0-2.7a1.1,1.1,0,1,1-1.1,1.1A1.1,1.1,0,0,1,12,6.09ZM8.5,11.15V13h7V11.15a4.95,4.95,0,0,0-7,0ZM15,12.5H9V11.36a4.46,4.46,0,0,1,6,0Z"/></svg>