<svg id="Hot_2" data-name="Hot 2" xmlns="http://www.w3.org/2000/svg" viewBox="0 0 24 24"><title>iconoteka_beach__vacation__umbrella_l_s</title><path d="M12.25,11.94l9.54-2.56A11,11,0,0,0,11.81,2a9.72,9.72,0,0,0-2.43.32C4.29,3.72,1.24,9.06,2.14,14.64l5.1-1.36h0l4.53-1.22,2.1,7.85q-.45,0-.9,0A20.07,20.07,0,0,0,4,22H21.94a20,20,0,0,0-7.55-2.06ZM9.51,2.84A1.74,1.74,0,0,1,10,2.78c2,0,4.58,3.24,6.09,7.62L7.63,12.66C6.65,7.65,7.45,3.39,9.51,2.84ZM21.12,9l-4.59,1.23c-1.39-4-3.56-7-5.6-7.68.3,0,.59-.06.88-.06A10.43,10.43,0,0,1,21.12,9ZM2.56,14A10.23,10.23,0,0,1,8.14,3.34c-1.4,1.64-1.81,5.25-1,9.44Zm3.9,7.49a19.51,19.51,0,0,1,13,0Z"/></svg>