<svg id="Hot_2" data-name="Hot 2" xmlns="http://www.w3.org/2000/svg" viewBox="0 0 24 24"><title>iconoteka_earth_planet_r_f</title><path d="M12,2A10,10,0,1,0,22,12,10,10,0,0,0,12,2ZM4.89,17.5A8.91,8.91,0,0,1,3,12.7l1.87,1.87Zm2.1,2h.25a2,2,0,0,0,1.87-1.31l1.34-3.67a2,2,0,0,0-1.88-2.68H4.29a1,1,0,0,1,0-2h4a1,1,0,0,0,.93-.66l.61-1.66A2,2,0,0,0,7.9,4.81H6.61A8.94,8.94,0,0,1,16.13,4a2,2,0,0,0-1.79,1.31L13.73,7a1.5,1.5,0,0,0,1.41,2h3.31a.5.5,0,0,1,0,1H16.5A2.5,2.5,0,0,0,14,12.5v1A1.5,1.5,0,0,0,15.5,15h1a.5.5,0,0,1,.5.5v1.59a1.51,1.51,0,0,0,1.16,1.46A9,9,0,0,1,12,21,8.9,8.9,0,0,1,7,19.47Z"/></svg>