<svg id="Hot_2" data-name="Hot 2" xmlns="http://www.w3.org/2000/svg" viewBox="0 0 24 24"><defs><style>.cls-1{fill:none;}</style></defs><title>iconoteka_toys__toy_shop_b_s</title><rect class="cls-1" width="24" height="24"/><path d="M21.93,16.53a15.94,15.94,0,0,1-2.86,1.8L18,15.84l0,0V11h.75a3.25,3.25,0,0,0,.79-6.4L18,4.22V2H16a4,4,0,0,0-4,4V9H6a4,4,0,0,0-4,4v1H4V13a2,2,0,0,1,2-2v4.81l0,0-1,2.48a16.58,16.58,0,0,1-2.86-1.81L.83,18.1a17.95,17.95,0,0,0,22.34,0ZM8,11h4a2,2,0,0,0,2-2V6a2,2,0,0,1,2-2V5.78l3.06.76A1.25,1.25,0,0,1,18.75,9H16v5H8ZM6.77,19.12l1.05-2.48A1,1,0,0,1,8.73,16l6.52,0h0a1,1,0,0,1,.92.62l1.06,2.5a16,16,0,0,1-10.46,0Z"/></svg>