<svg id="Hot_2" data-name="Hot 2" xmlns="http://www.w3.org/2000/svg" viewBox="0 0 24 24"><title>iconoteka_food__dining__restaurant_b_s</title><path d="M10.3,3V8H8.75V3H7.25V8H5.7V3H4.5L4.1,8a2,2,0,0,0,1,1.89l2.08,1.2L6.6,19.5a1.4,1.4,0,1,0,2.8,0l-.57-8.39,2.08-1.2A2,2,0,0,0,11.9,8l-.4-5Zm7,0-.25,0a1.75,1.75,0,0,0-1.41,1.34l-1.86,7A2,2,0,0,0,15,13.76l2.26.87-.47,5.17A1.12,1.12,0,0,0,17.9,21,1.1,1.1,0,0,0,19,19.9V4.7A1.7,1.7,0,0,0,17.3,3Zm-.1,9.68-1.55-.6a.19.19,0,0,1-.13-.23l1.16-4.39.52-2Z"/></svg>