<svg id="Hot_2" data-name="Hot 2" xmlns="http://www.w3.org/2000/svg" viewBox="0 0 24 24"><defs><style>.cls-1{fill:none;}</style></defs><title>iconoteka_theaters_b_s</title><rect class="cls-1" width="24" height="24"/><path d="M8,13.25A2.25,2.25,0,0,0,10.23,11H5.73A2.25,2.25,0,0,0,8,13.25Z"/><path d="M22.89,6h-8l0-4H1v9a7,7,0,0,0,7,7,7.16,7.16,0,0,0,1.61-.19A7,7,0,0,0,23,15ZM3,11V4h9.91L13,11A5,5,0,1,1,3,11Zm16.51,7.51A4.94,4.94,0,0,1,16,20a5,5,0,0,1-4.54-2.92,7.1,7.1,0,0,0,1.49-1.14,7,7,0,0,0,2-5l0-3h6L21,15A5,5,0,0,1,19.51,18.53Z"/><circle cx="10.2" cy="7.21" r="1.2"/><path d="M7,7.21a1.2,1.2,0,1,0-2.4,0,1.2,1.2,0,1,0,2.4,0Z"/><path d="M16.08,15a2.25,2.25,0,0,0-2.25,2.25h4.5A2.25,2.25,0,0,0,16.08,15Z"/><path d="M18.3,10a1.2,1.2,0,1,0,1.2,1.2A1.2,1.2,0,0,0,18.3,10Z"/></svg>