<svg id="Hot_2" data-name="Hot 2" xmlns="http://www.w3.org/2000/svg" viewBox="0 0 24 24"><title>iconoteka_all_inclusive__infinity_m_a</title><path d="M20.49,3.51C18.2,1.23,14.76,1,12.82,2.89,10.7,5,11,9.53,11.13,11.13,9.54,11,5,10.69,2.89,12.82,1,14.76,1.23,18.2,3.51,20.49A6.36,6.36,0,0,0,7.92,22.4a4.53,4.53,0,0,0,3.26-1.29C13.3,19,13,14.47,12.87,12.87A17.82,17.82,0,0,0,15,13c2,0,4.65-.32,6.13-1.81C23.05,9.24,22.77,5.8,20.49,3.51ZM10.12,20.05c-1.36,1.36-3.84,1.08-5.54-.63s-2-4.18-.63-5.54c1.06-1.07,3.22-1.37,5.1-1.37a18,18,0,0,1,2.29.15C11.6,14.59,11.67,18.5,10.12,20.05Zm9.93-9.93c-1.56,1.56-5.46,1.48-7.39,1.22C12.4,9.41,12.33,5.5,13.88,4c1.36-1.36,3.84-1.08,5.54.63S21.41,8.76,20.05,10.12Z"/></svg>