<svg id="Hot_2" data-name="Hot 2" xmlns="http://www.w3.org/2000/svg" viewBox="0 0 24 24"><title>iconoteka_dice__casino_b_s</title><path d="M18.33,3h-12a3,3,0,0,0-3,3V18a3,3,0,0,0,3,3h12a3,3,0,0,0,3-3V6A3,3,0,0,0,18.33,3Zm1,15a1,1,0,0,1-1,1h-12a1,1,0,0,1-1-1V6a1,1,0,0,1,1-1h12a1,1,0,0,1,1,1Zm-3-11.35A1.35,1.35,0,1,0,17.68,8,1.35,1.35,0,0,0,16.33,6.65Zm-4,4A1.35,1.35,0,1,0,13.68,12,1.35,1.35,0,0,0,12.33,10.65Zm-4-4A1.35,1.35,0,1,0,9.68,8,1.35,1.35,0,0,0,8.33,6.65Zm8,8A1.35,1.35,0,1,0,17.68,16,1.35,1.35,0,0,0,16.33,14.65Zm-8,0A1.35,1.35,0,1,0,9.68,16,1.35,1.35,0,0,0,8.33,14.65Z"/></svg>