<svg id="Hot_2" data-name="Hot 2" xmlns="http://www.w3.org/2000/svg" viewBox="0 0 24 24"><title>iconoteka_earth_planet_l_s</title><path d="M12,2A10,10,0,1,0,22,12,10,10,0,0,0,12,2Zm9.5,10a9.41,9.41,0,0,1-2.22,6.09H18.5a1,1,0,0,1-1-1V15.5a1,1,0,0,0-1-1h-1a1,1,0,0,1-1-1v-1a2,2,0,0,1,2-2h2.81a1,1,0,0,0,0-2H15.14a1,1,0,0,1-.82-.43,1,1,0,0,1-.12-.91l.61-1.67a1.51,1.51,0,0,1,1.41-1h1.59A9.48,9.48,0,0,1,21.5,12ZM4.55,17.88a9.49,9.49,0,0,1-2-5.71l2.07,2.07Zm.5.58,0-4.22V14l-.15-.14-2.4-2.41A9.42,9.42,0,0,1,5.27,5.31H7.9a1.5,1.5,0,0,1,1.41,2L8.34,10a.51.51,0,0,1-.47.33H4.78a1,1,0,0,0-.71.29,1,1,0,0,0-.29.71,1,1,0,0,0,1,1h4A1.46,1.46,0,0,1,10,13a1.48,1.48,0,0,1,.18,1.37L9,17.66a2.49,2.49,0,0,1-2.35,1.65H5.94A10.25,10.25,0,0,1,5.05,18.46Zm7,3a9.48,9.48,0,0,1-5.4-1.69h0a3,3,0,0,0,2.82-2l1.22-3.34a2,2,0,0,0-1.88-2.68h-4a.51.51,0,0,1-.5-.5.5.5,0,0,1,.5-.5H7.87a1,1,0,0,0,.94-.66l1-2.66A2,2,0,0,0,7.9,4.81H5.81A9.44,9.44,0,0,1,17.1,4h-.88a2,2,0,0,0-1.88,1.32L13.73,7a1.5,1.5,0,0,0,1.41,2h4.17a.5.5,0,0,1,0,1H16.5A2.5,2.5,0,0,0,14,12.5v1A1.5,1.5,0,0,0,15.5,15h1a.5.5,0,0,1,.5.5v1.59a1.5,1.5,0,0,0,1.5,1.5h.33A9.48,9.48,0,0,1,12,21.5Z"/></svg>