<svg id="Hot_2" data-name="Hot 2" xmlns="http://www.w3.org/2000/svg" viewBox="0 0 24 24"><title>iconoteka_earth_planet_m_s</title><path d="M12,2A10,10,0,1,0,22,12,10,10,0,0,0,12,2ZM7.9,6.31a.49.49,0,0,1,.41.21A.51.51,0,0,1,8.37,7L7.52,9.31H5.66a2,2,0,0,0-1.41.58,2,2,0,0,0-.48.76l-.13-.14a8.42,8.42,0,0,1,2.07-4.2ZM3.53,12.52l1.72,1.72,0,2.87A8.44,8.44,0,0,1,3.53,12.52Zm5.62.79a.47.47,0,0,1,.4.21.5.5,0,0,1,.07.46l-1,2.67a1.5,1.5,0,0,1-1.41,1H6.72l0-3.39v-.94ZM7.39,19.13a3,3,0,0,0,2.66-2l1-2.68a2,2,0,0,0-1.87-2.68H5.66a.51.51,0,0,1-.5-.5.5.5,0,0,1,.5-.5H7.87a1,1,0,0,0,.94-.66l1-2.66A2,2,0,0,0,7.9,4.81H7.49a8.42,8.42,0,0,1,8.79-.14h-.39A2,2,0,0,0,14,6l-.85,2.34a1.5,1.5,0,0,0,1.41,2h3a.5.5,0,0,1,.5.5.5.5,0,0,1-.5.5H15.92a2.5,2.5,0,0,0-2.5,2.5v.6a1.91,1.91,0,0,0,1.91,1.9h.86a.23.23,0,0,1,.23.24V18A1.91,1.91,0,0,0,16.77,19a8.46,8.46,0,0,1-9.38.1ZM18,18.06a.35.35,0,0,1,0-.11V16.57a1.73,1.73,0,0,0-1.73-1.74h-.86a.4.4,0,0,1-.41-.4v-.6a1,1,0,0,1,1-1h1.61a2,2,0,0,0,0-4h-3l.85-2.33a.5.5,0,0,1,.47-.33h2.28A8.47,8.47,0,0,1,18,18.06Z"/></svg>