<svg id="Hot_2" data-name="Hot 2" xmlns="http://www.w3.org/2000/svg" viewBox="0 0 24 24"><title>iconoteka_earth_planet_b_f</title><path d="M12,2A10,10,0,1,0,22,12,10,10,0,0,0,12,2ZM4,13.63l1.62,1.61,0,1.82A8.15,8.15,0,0,1,4,13.63ZM7.4,18.78a2,2,0,0,0,1.71-1.29l1.1-3a2,2,0,0,0-1.88-2.68h-3a1,1,0,0,1,0-2H8.24a1,1,0,0,0,.93-.66l.61-1.66A2,2,0,0,0,8,4.82a8.17,8.17,0,0,1,7-.43,2,2,0,0,0-.7.93L13.73,7a1.5,1.5,0,0,0,1.41,2h3.31a.5.5,0,0,1,0,1H16.5A2.5,2.5,0,0,0,14,12.5v1A1.5,1.5,0,0,0,15.5,15h1a.5.5,0,0,1,.5.5v1.59a1.47,1.47,0,0,0,.43,1A8.19,8.19,0,0,1,12,20.2,8.08,8.08,0,0,1,7.4,18.78Z"/></svg>