<svg id="Hot_2" data-name="Hot 2" xmlns="http://www.w3.org/2000/svg" viewBox="0 0 24 24"><title>iconoteka_toys__toy_shop__childrens_room_r_f</title><path d="M22.19,17.35c-.4.32-.81.63-1.24.92s-.82.52-1.24.76l-1.2-2.72A6,6,0,0,1,18,13.89V8h2.23a1.53,1.53,0,0,0,1.52-1.36A1.59,1.59,0,0,0,20.58,5L18,4.22V2h-.5A3.5,3.5,0,0,0,14,5.5V9H6.83a3.45,3.45,0,0,0-3.16,2.06L3,12.69l.92.41.72-1.63A2.42,2.42,0,0,1,6,10.16v3.73a6,6,0,0,1-.51,2.42L4.29,19c-.42-.24-.84-.49-1.24-.76s-.84-.6-1.24-.92l-.63.77c.42.35.86.67,1.31,1s.92.59,1.4.85a15.73,15.73,0,0,0,1.49.72c.51.21,1,.41,1.56.57s1.08.31,1.63.42,1.13.2,1.69.26A16.76,16.76,0,0,0,12,22a16.76,16.76,0,0,0,1.74-.08c.56-.06,1.13-.15,1.69-.26s1.1-.26,1.63-.42,1.05-.36,1.56-.57A15.73,15.73,0,0,0,20.11,20c.48-.26.95-.55,1.4-.85s.89-.63,1.31-1Zm-5.43,2.94q-.75.23-1.53.39a14.54,14.54,0,0,1-1.59.24,16.34,16.34,0,0,1-3.28,0,14.54,14.54,0,0,1-1.59-.24q-.78-.16-1.53-.39c-.48-.15-1-.33-1.44-.53l1.13-2.57A2,2,0,0,1,8.76,16h6.48a2,2,0,0,1,1.83,1.19l1.13,2.57C17.73,20,17.24,20.14,16.76,20.29Z"/></svg>