<svg id="Hot_2" data-name="Hot 2" xmlns="http://www.w3.org/2000/svg" viewBox="0 0 24 24"><title>iconoteka_dice__casino_m_s</title><path d="M18.33,3h-12a3,3,0,0,0-3,3V18a3,3,0,0,0,3,3h12a3,3,0,0,0,3-3V6A3,3,0,0,0,18.33,3Zm1.5,15a1.5,1.5,0,0,1-1.5,1.5h-12A1.5,1.5,0,0,1,4.83,18V6a1.5,1.5,0,0,1,1.5-1.5h12A1.5,1.5,0,0,1,19.83,6ZM16.33,7a1,1,0,1,0,1,1A1,1,0,0,0,16.33,7Zm-4,4a1,1,0,1,0,1,1A1,1,0,0,0,12.33,11Zm-4-4a1,1,0,1,0,1,1A1,1,0,0,0,8.33,7Zm8,8a1,1,0,1,0,1,1A1,1,0,0,0,16.33,15Zm-8,0a1,1,0,1,0,1,1A1,1,0,0,0,8.33,15Z"/></svg>