<svg id="Hot_2" data-name="Hot 2" xmlns="http://www.w3.org/2000/svg" viewBox="0 0 24 24"><title>iconoteka_islam_l_s</title><path d="M8,12a8,8,0,0,1,8-8,7.87,7.87,0,0,1,2.49.4,10,10,0,1,0,0,15.2A7.87,7.87,0,0,1,16,20,8,8,0,0,1,8,12Zm4,9.5a9.5,9.5,0,1,1,4.24-18H16a8.5,8.5,0,0,0,0,17h.24A9.54,9.54,0,0,1,12,21.5ZM22.4,10.73H19l-1-3.2-1,3.2H13.6l2.72,2-1,3.19,2.72-2,2.72,2-1-3.19Zm-2.54,4-1.6-1.16-.26-.2-.26.2-1.6,1.16.61-1.88.1-.31-.26-.19L15,11.18h2.3l.1-.32L18,9l.61,1.87.1.32H21l-1.6,1.16-.26.19.1.31Z"/></svg>