<svg id="Hot_2" data-name="Hot 2" xmlns="http://www.w3.org/2000/svg" viewBox="0 0 24 24"><title>iconoteka_traffic light_b_s</title><path d="M12,10.5A1.5,1.5,0,1,0,13.5,12,1.5,1.5,0,0,0,12,10.5Zm0,5A1.5,1.5,0,1,0,13.5,17,1.5,1.5,0,0,0,12,15.5Zm0-10A1.5,1.5,0,1,0,13.5,7,1.5,1.5,0,0,0,12,5.5ZM18.28,13a1,1,0,0,0,.95-.68L20,10H18V8h.28a1,1,0,0,0,.95-.68L20,5H18a3,3,0,0,0-3-3H9A3,3,0,0,0,6,5H4l.77,2.32a1,1,0,0,0,1,.68H6v2H4l.77,2.32a1,1,0,0,0,1,.68H6v2H4l.77,2.32a1,1,0,0,0,1,.68H6v1a3,3,0,0,0,3,3h6a3,3,0,0,0,3-3V18h.28a1,1,0,0,0,.95-.68L20,15H18V13ZM16,19a1,1,0,0,1-1,1H9a1,1,0,0,1-1-1V5A1,1,0,0,1,9,4h6a1,1,0,0,1,1,1Z"/></svg>