<svg id="Hot_2" data-name="Hot 2" xmlns="http://www.w3.org/2000/svg" viewBox="0 0 24 24"><title>iconoteka_toys__toy_shop__childrens_room_b_s</title><path d="M21.87,16.46c-.38.31-.78.61-1.2.89s-.71.45-1.08.66l-1.08-2.46A5.89,5.89,0,0,1,18,13.14V10.62h.44a3.07,3.07,0,0,0,3.07-2.94,3.16,3.16,0,0,0-2.62-3.15L18,4.35V2H16a3.48,3.48,0,0,0-3.44,3L12,9H6.86A4,4,0,0,0,3.2,11.39l-.86,2,1.83.81.86-2a2,2,0,0,1,1-1v1.92a5.89,5.89,0,0,1-.51,2.41L4.41,18c-.37-.21-.74-.42-1.08-.66s-.82-.58-1.2-.89L.86,18c.42.35.88.69,1.35,1s1,.61,1.44.88,1,.51,1.53.73a16.41,16.41,0,0,0,1.61.59,16.55,16.55,0,0,0,1.68.43,17.44,17.44,0,0,0,1.74.27,17.85,17.85,0,0,0,3.58,0,17.44,17.44,0,0,0,1.74-.27,16.55,16.55,0,0,0,1.68-.43,16.41,16.41,0,0,0,1.61-.59c.52-.22,1-.47,1.53-.73s1-.57,1.44-.88.93-.66,1.35-1ZM13.73,11,14,9.28l.57-4A1.5,1.5,0,0,1,16,4V6l1.62.32.88.17a1.17,1.17,0,0,1,1,1.11,1.07,1.07,0,0,1-1.07,1H16v4.52a7.46,7.46,0,0,0,.06.95,4,4,0,0,0-.85-.09H8.79a4,4,0,0,0-.85.09A7.46,7.46,0,0,0,8,13.14V11Zm2.88,8.3a14.58,14.58,0,0,1-1.48.38,13.67,13.67,0,0,1-1.54.24,15.36,15.36,0,0,1-3.18,0c-.51-.05-1-.13-1.54-.23s-1-.24-1.48-.39a11.66,11.66,0,0,1-1.17-.43L7,17.19A2,2,0,0,1,8.79,16h6.42A2,2,0,0,1,17,17.19l.74,1.68A11.66,11.66,0,0,1,16.61,19.3Z"/></svg>