<svg id="Hot_2" data-name="Hot 2" xmlns="http://www.w3.org/2000/svg" viewBox="0 0 24 24"><defs><style>.cls-1{fill:none;}</style></defs><title>iconoteka_casino_b_s</title><rect class="cls-1" width="24" height="24"/><path d="M18,3H6A3,3,0,0,0,3,6V18a3,3,0,0,0,3,3H18a3,3,0,0,0,3-3V6A3,3,0,0,0,18,3Zm1,15a1,1,0,0,1-1,1H6a1,1,0,0,1-1-1V6A1,1,0,0,1,6,5H18a1,1,0,0,1,1,1Z"/><circle cx="12" cy="12" r="1.35"/><circle cx="16" cy="8" r="1.35"/><circle cx="8" cy="8" r="1.35"/><circle cx="16" cy="16" r="1.35"/><circle cx="8" cy="16" r="1.35"/></svg>