<svg id="Hot_2" data-name="Hot 2" xmlns="http://www.w3.org/2000/svg" viewBox="0 0 24 24"><title>iconoteka_toys__toy_shop__childrens_room_m_f</title><path d="M22,16.9c-.39.32-.8.63-1.22.91s-.8.51-1.23.75l-1.07-2.44A6,6,0,0,1,18,13.7V8h2.23a1.53,1.53,0,0,0,1.52-1.36A1.59,1.59,0,0,0,20.58,5L18,4.22V2h-.5A3.5,3.5,0,0,0,14,5.5V9H7.54a4.77,4.77,0,0,0-4.38,2.86l-.43,1,1.37.61.43-1A3.28,3.28,0,0,1,6,10.89V13.7a6,6,0,0,1-.51,2.42L4.42,18.56c-.43-.24-.85-.49-1.23-.75S2.36,17.22,2,16.9L1,18.06a16.38,16.38,0,0,0,1.33,1,15.36,15.36,0,0,0,1.42.87c.49.27,1,.51,1.51.73s1,.41,1.59.58a16,16,0,0,0,1.65.42,14.59,14.59,0,0,0,1.72.26,17.25,17.25,0,0,0,3.52,0,14.59,14.59,0,0,0,1.72-.26,16,16,0,0,0,1.65-.42c.54-.17,1.07-.36,1.59-.58s1-.46,1.51-.73a15.36,15.36,0,0,0,1.42-.87,16.38,16.38,0,0,0,1.33-1Zm-5.34,2.89a14,14,0,0,1-1.51.39,14.19,14.19,0,0,1-1.57.24,15.75,15.75,0,0,1-3.22,0,14.19,14.19,0,0,1-1.57-.24,14,14,0,0,1-1.51-.39c-.42-.13-.83-.28-1.24-.45L7,17.19A2,2,0,0,1,8.84,16h6.32A2,2,0,0,1,17,17.19l.94,2.15C17.52,19.51,17.11,19.66,16.69,19.79Z"/></svg>