<svg id="Hot_2" data-name="Hot 2" xmlns="http://www.w3.org/2000/svg" viewBox="0 0 24 24"><title>iconoteka_planet__earth_australia_b_s</title><path d="M14.5,13.15h-.7l-2.65,1.32v3.38H14.5a2.35,2.35,0,1,0,0-4.7Zm0,3H12.85v-.62l1.35-.68h.3a.65.65,0,0,1,0,1.3ZM12,2A10,10,0,1,0,22,12,10,10,0,0,0,12,2Zm-.85,2.05V9.5a.65.65,0,0,1-.65.65H7.85v-3H5.65A8,8,0,0,1,11.15,4.05Zm-5,11a1.14,1.14,0,0,1-1,1.12A8,8,0,0,1,4,12c0-.05,0-.1,0-.15H6.15Zm0-4.85H4.22a8.25,8.25,0,0,1,.43-1.3h1.5ZM12,20a8,8,0,0,1-5.75-2.45A2.86,2.86,0,0,0,7.85,15V11.85H10.5A2.35,2.35,0,0,0,12.85,9.5V4.05A8,8,0,0,1,12,20Z"/></svg>