<svg id="Hot_2" data-name="Hot 2" xmlns="http://www.w3.org/2000/svg" viewBox="0 0 24 24"><title>iconoteka_scales__judge__justice__courthouse_b_s</title><path d="M18.5,4H13V3a1,1,0,0,0-2,0V4H5.5L1,14H1A4.68,4.68,0,0,0,5.5,17.2,4.68,4.68,0,0,0,10,14h0L6.4,6H11V19l-4,.8V21H17V19.81L13,19V6h4.6L14,14h0a4.76,4.76,0,0,0,9,0h0ZM5.5,15.4A2.89,2.89,0,0,1,3,14H8A2.89,2.89,0,0,1,5.5,15.4ZM3.74,12.3,5.5,8.38,7.26,12.3Zm16.52,0H16.74L18.5,8.38ZM18.5,15.4A2.89,2.89,0,0,1,16,14h5A2.89,2.89,0,0,1,18.5,15.4Z"/></svg>