<svg id="Hot_2" data-name="Hot 2" xmlns="http://www.w3.org/2000/svg" viewBox="0 0 24 24"><title>iconoteka_scales__judge__justice__courthouse_l_s</title><path d="M18.5,4H12.25V2.25a.25.25,0,0,0-.5,0V4H5.5L1,14A4.68,4.68,0,0,0,5.5,17.2,4.68,4.68,0,0,0,10,14L5.73,4.5h6V20.42L7,20.74V21H17v-.26l-4.75-.32V4.5h6L14,14a4.76,4.76,0,0,0,9,0ZM5.5,16.7a4.16,4.16,0,0,1-4-2.69H9.46A4.16,4.16,0,0,1,5.5,16.7ZM1.77,13.5,5.5,5.22,9.23,13.5Zm20.46,0H14.77L18.5,5.22ZM18.5,16.7a4.16,4.16,0,0,1-4-2.69h7.92A4.16,4.16,0,0,1,18.5,16.7Z"/></svg>