<svg id="Hot_2" data-name="Hot 2" xmlns="http://www.w3.org/2000/svg" viewBox="0 0 24 24"><title>iconoteka_toys__toy_shop__childrens_room_r_s</title><path d="M22.19,17.35c-.4.32-.81.63-1.24.92-.2.14-.43.26-.64.39l-1.8-4.1A5.89,5.89,0,0,1,18,12.15V8.88h1.55a2.1,2.1,0,0,0,1.86-1.06,2,2,0,0,0-1.29-3L18,4.26V2H17a3.28,3.28,0,0,0-3.26,2.88L13.14,10H6.83a3.45,3.45,0,0,0-3.16,2.06L3,13.69l.92.41.72-1.63A2.42,2.42,0,0,1,6,11.16v1a5.89,5.89,0,0,1-.51,2.41l-1.8,4.1c-.21-.13-.44-.25-.64-.39-.43-.29-.84-.6-1.24-.92l-.63.77c.41.34.86.67,1.31,1a16.28,16.28,0,0,0,1.4.85c.48.26,1,.5,1.49.72s1,.41,1.56.57,1.08.31,1.63.42,1.13.2,1.69.26a16.87,16.87,0,0,0,3.48,0c.56-.06,1.13-.15,1.69-.26s1.1-.26,1.63-.42,1.05-.36,1.56-.57,1-.46,1.49-.72a16.28,16.28,0,0,0,1.4-.85c.45-.31.9-.64,1.31-1ZM6.41,15A7,7,0,0,0,7,12.15V11h7l.75-6A2.29,2.29,0,0,1,17,3V5l2.88.81a1,1,0,0,1,.7.59,1,1,0,0,1,0,.93,1.11,1.11,0,0,1-1,.53H17v4.27A7,7,0,0,0,17.59,15l1.85,4.2c-.32.17-.64.33-1,.47l-1.25-2.84A3,3,0,0,0,14.47,15H9.53a3,3,0,0,0-2.75,1.79L5.53,19.63c-.33-.14-.65-.3-1-.47Zm10.35,5.33q-.75.23-1.53.39a14.54,14.54,0,0,1-1.59.24,16.34,16.34,0,0,1-3.28,0,14.54,14.54,0,0,1-1.59-.24q-.78-.16-1.53-.39L6.46,20,7.7,17.19A2,2,0,0,1,9.53,16h4.94a2,2,0,0,1,1.83,1.19L17.54,20Z"/></svg>