<svg id="Hot_2" data-name="Hot 2" xmlns="http://www.w3.org/2000/svg" viewBox="0 0 24 24"><title>iconoteka_spa_b_s</title><path d="M23,11c0-.32,0-.64-.05-.95-.31,0-.63-.05-.95-.05a10.86,10.86,0,0,0-5.52,1.5A13.43,13.43,0,0,0,12,1.92,13.43,13.43,0,0,0,7.52,11.5,10.86,10.86,0,0,0,2,10c-.32,0-.64,0-.95.05,0,.31-.05.63-.05.95A11,11,0,0,0,11.05,22h0c.31,0,.63.05.95.05s.64,0,.95-.05h0A11,11,0,0,0,23,11ZM9.5,12A11.47,11.47,0,0,1,12,4.82,11.47,11.47,0,0,1,14.5,12c0,.36,0,.72-.07,1.07A11.17,11.17,0,0,0,12,16.44,11.17,11.17,0,0,0,9.57,13C9.54,12.68,9.5,12.32,9.5,12Zm-6.44.1a9,9,0,0,1,7.88,7.88A9,9,0,0,1,3.06,12.06Zm10,7.88a9,9,0,0,1,7.88-7.88A9,9,0,0,1,13.06,19.94Z"/></svg>