<svg id="Hot_2" data-name="Hot 2" xmlns="http://www.w3.org/2000/svg" viewBox="0 0 24 24"><title>iconoteka_earth_america__planet_m_f</title><path d="M12,2A10,10,0,1,0,22,12,10,10,0,0,0,12,2Zm0,18.4a8.38,8.38,0,0,1-6.27-2.83,2.22,2.22,0,0,0,.94-1.81,2.25,2.25,0,0,0-2.25-2.25,2.4,2.4,0,0,0-.66.11A8.64,8.64,0,0,1,3.6,12,8.34,8.34,0,0,1,6.07,6.06a.91.91,0,0,0,.84.56H7a1,1,0,0,1,1,1v2.8a3,3,0,0,0,.88,2.12l2.7,2.7,0,3.9h1.69a2,2,0,0,0,1.87-1.31l1.22-3.34a2,2,0,0,0-1.88-2.68H10.82a1,1,0,0,1,0-2h3.42a1,1,0,0,0,.93-.66l.61-1.66A2,2,0,0,0,13.9,4.81H7.68a8.36,8.36,0,0,1,10.94,2l-.54,1.48A2,2,0,0,0,20,11h.37a8.26,8.26,0,0,1,.07,1A8.41,8.41,0,0,1,12,20.4Z"/></svg>