<svg id="Hot_2" data-name="Hot 2" xmlns="http://www.w3.org/2000/svg" viewBox="0 0 24 24"><title>iconoteka_earth_australia__planet_r_s</title><path d="M12,2A10,10,0,1,0,22,12,10,10,0,0,0,12,2ZM4.52,7h.92a.6.6,0,0,1,0,1.2H3.85A10,10,0,0,1,4.52,7ZM3,12a8.93,8.93,0,0,1,.45-2.8h2a1.6,1.6,0,0,0,0-3.2H5.31A9,9,0,0,1,12,3a8.26,8.26,0,0,1,1,.06V7a2,2,0,0,1-2,2H7.33v3.92a1.66,1.66,0,0,1-1.66,1.67H3.38A9.22,9.22,0,0,1,3,12Zm9,9a9,9,0,0,1-8.25-5.41H5.67a2.67,2.67,0,0,0,2.66-2.67V10H11a3,3,0,0,0,3-3V3.23A9,9,0,0,1,12,21Zm3.34-10h-.05a3,3,0,0,0-2.17.94L11.67,13.5V17h3.67a3,3,0,0,0,3-3h0A3,3,0,0,0,15.34,11Zm0,5.05H12.6v-2.2l1.2-1.27A2.08,2.08,0,0,1,15.34,12h0a2.06,2.06,0,0,1,0,4.12Z"/></svg>