<svg id="Hot_2" data-name="Hot 2" xmlns="http://www.w3.org/2000/svg" viewBox="0 0 24 24"><title>iconoteka_spa_r_s</title><path d="M23,10l-.45,0a11,11,0,0,0-6,1.79A13.43,13.43,0,0,0,12,1.92a13.43,13.43,0,0,0-4.49,9.87A11,11,0,0,0,1.5,10l-.45,0c0,.33-.05.65-.05,1a11,11,0,0,0,22,0C23,10.67,23,10.35,23,10ZM8.5,12A12.5,12.5,0,0,1,12,3.31,12.5,12.5,0,0,1,15.5,12c0,.19,0,.39,0,.58A11,11,0,0,0,12,17.71a11,11,0,0,0-3.47-5.17C8.52,12.35,8.5,12.15,8.5,12ZM2,11a10,10,0,0,1,9.5,10A10,10,0,0,1,2,11ZM12.5,21A10,10,0,0,1,22,11,10,10,0,0,1,12.5,21Z"/></svg>