<svg id="Hot_2" data-name="Hot 2" xmlns="http://www.w3.org/2000/svg" viewBox="0 0 24 24"><title>iconoteka_microphone__concerts__sing__r_s</title><path d="M19.71,4.18a4.94,4.94,0,0,0-7,0,4.87,4.87,0,0,0-1.4,4l-8.8,10,3.24,3.24,10-8.79a4.22,4.22,0,0,0,.49,0,4.94,4.94,0,0,0,3.5-8.43ZM3.89,18.08l1.36-1.54,2.1,2.09L5.8,20ZM8.09,18,5.91,15.79l5.94-6.72,3,3ZM19,10.45a3.88,3.88,0,0,1-2.78,1.16,3.41,3.41,0,0,1-.46,0L12.32,8.13a3.73,3.73,0,0,1,0-.46,3.93,3.93,0,0,1,3.94-3.94A3.91,3.91,0,0,1,19,4.88a4,4,0,0,1,1.15,2.79A3.91,3.91,0,0,1,19,10.45Z"/></svg>