<svg id="Hot_2" data-name="Hot 2" xmlns="http://www.w3.org/2000/svg" viewBox="0 0 24 24"><title>iconoteka_gavel_b_f</title><path d="M14,20H4a1,1,0,0,0-1,1v1H15V21A1,1,0,0,0,14,20ZM17.29,7.14a.83.83,0,0,0,.32-.2.8.8,0,0,0,0-1.14L13.8,2a.8.8,0,0,0-1.14,0,.83.83,0,0,0-.2.32l-.64,1.94,3.53,3.53Zm-9.85,10a.83.83,0,0,0,.2-.32l.64-1.94L4.75,11.32,2.81,12a.83.83,0,0,0-.32.2.8.8,0,0,0,0,1.14L6.3,17.11A.8.8,0,0,0,7.44,17.11Zm14,2.4-8.19-8.19.71-.71a1,1,0,0,0,0-1.41L10.4,5.66A1,1,0,0,0,9,5.66L6.16,8.49a1,1,0,0,0,0,1.41L9.7,13.44a1,1,0,0,0,1.41,0l.71-.71L20,20.92a1,1,0,1,0,1.41-1.41Z"/></svg>