<svg id="Hot_2" data-name="Hot 2" xmlns="http://www.w3.org/2000/svg" viewBox="0 0 24 24"><title>iconoteka_buddhism_l_a</title><path d="M20.88,11.75A8.87,8.87,0,0,0,18.45,5.9L20,4.4,19.6,4,18.1,5.55a8.87,8.87,0,0,0-5.85-2.43V1h-.5V3.12A8.87,8.87,0,0,0,5.9,5.55L4.4,4,4,4.4,5.55,5.9a8.87,8.87,0,0,0-2.43,5.85H1v.5H3.12A8.87,8.87,0,0,0,5.55,18.1L4,19.6,4.4,20l1.5-1.51a8.87,8.87,0,0,0,5.85,2.43V23h.5V20.88a8.87,8.87,0,0,0,5.85-2.43L19.6,20,20,19.6l-1.51-1.5a8.87,8.87,0,0,0,2.43-5.85H23v-.5ZM17.74,5.9l-4.52,4.53a1.9,1.9,0,0,0-1-.4V3.62A8.38,8.38,0,0,1,17.74,5.9ZM12,13.5A1.5,1.5,0,1,1,13.5,12,1.5,1.5,0,0,1,12,13.5Zm-.25-9.88V10a1.9,1.9,0,0,0-1,.4L6.26,5.9A8.38,8.38,0,0,1,11.75,3.62ZM5.9,6.26l4.53,4.52a1.9,1.9,0,0,0-.4,1H3.62A8.38,8.38,0,0,1,5.9,6.26Zm-2.28,6H10a1.9,1.9,0,0,0,.4,1L5.9,17.74A8.38,8.38,0,0,1,3.62,12.25ZM6.26,18.1l4.52-4.53a1.9,1.9,0,0,0,1,.4v6.41A8.38,8.38,0,0,1,6.26,18.1Zm6,2.28V14a1.9,1.9,0,0,0,1-.4l4.52,4.53A8.38,8.38,0,0,1,12.25,20.38Zm5.85-2.64-4.53-4.52a1.9,1.9,0,0,0,.4-1h6.41A8.38,8.38,0,0,1,18.1,17.74Zm-4.13-6a1.9,1.9,0,0,0-.4-1L18.1,6.26a8.38,8.38,0,0,1,2.28,5.49Z"/></svg>