<svg id="Hot_2" data-name="Hot 2" xmlns="http://www.w3.org/2000/svg" viewBox="0 0 24 24"><title>iconoteka_taoism_m_s</title><path d="M12,2A10,10,0,1,0,22,12,10,10,0,0,0,12,2ZM3.4,12A8.61,8.61,0,0,1,12,3.4h0a4,4,0,0,1,3.95,4c0,2.05-1.66,3.68-4,4-3.2.38-5.27,2.48-5.27,5.35a5.29,5.29,0,0,0,.68,2.56A8.59,8.59,0,0,1,3.4,12ZM12,20.6h0a4,4,0,0,1-3.95-4c0-2.15,1.54-3.66,4-3.95,3.1-.37,5.27-2.56,5.27-5.35a5.29,5.29,0,0,0-.68-2.56A8.59,8.59,0,0,1,12,20.6Zm0-5.1a1,1,0,1,0,1,1A1,1,0,0,0,12,15.5Zm0-7a1,1,0,1,0-1-1A1,1,0,0,0,12,8.5Z"/></svg>