<svg id="Hot_2" data-name="Hot 2" xmlns="http://www.w3.org/2000/svg" viewBox="0 0 24 24"><title>iconoteka_hinduism_r_a</title><path d="M16.5,2.52l-.7-.7-.71.7.71.71ZM20,5.4l-.71-.71c-2.25,2.25-4.72,2-7.57-.88l-.7.71c1.77,1.77,3.51,2.66,5.16,2.66A5.38,5.38,0,0,0,20,5.4ZM17.58,9.49a5.72,5.72,0,0,0-3.7,1.6,5.47,5.47,0,0,1-5.13,1.44,3.75,3.75,0,0,0,2.17-2.9,3,3,0,0,0-.8-2.3,3.1,3.1,0,0,0-2.29-1,5.85,5.85,0,0,0-3.9,1.85l.71.71A4.84,4.84,0,0,1,7.83,7.38,2.08,2.08,0,0,1,9.39,8a2,2,0,0,1,.53,1.56c-.12,2-3.5,2.83-3.54,2.83l.2,1a3.63,3.63,0,0,1,3.08.79A3.78,3.78,0,0,1,11,17a3.7,3.7,0,0,1-3.6,3.51c-1.81,0-3.92-1.32-3.92-5.06h-1C2.5,19.63,5,21.5,7.42,21.5A4.68,4.68,0,0,0,12,17a4.82,4.82,0,0,0-1.59-3.47,6.41,6.41,0,0,0,4.06-1.64,4.8,4.8,0,0,1,3.09-1.39,3.19,3.19,0,0,1,3.36,3.45c0,2.33-1.22,4-2.89,4a2.45,2.45,0,0,1-2.63-2.52h-1A3.43,3.43,0,0,0,18.05,19c2.25,0,3.89-2.11,3.89-5A4.18,4.18,0,0,0,17.58,9.49Z"/></svg>