<svg id="Hot_2" data-name="Hot 2" xmlns="http://www.w3.org/2000/svg" viewBox="0 0 24 24"><title>iconoteka_taoism_l_s</title><path d="M12,2A10,10,0,1,0,22,12,10,10,0,0,0,12,2ZM2.5,12A9.51,9.51,0,0,1,12,2.5a4.63,4.63,0,0,1,4.63,4.63c0,2.4-1.92,4.3-4.66,4.62-3.09.36-5.09,2.37-5.09,5.13A5.08,5.08,0,0,0,9,21,9.49,9.49,0,0,1,2.5,12ZM12,21.5a4.63,4.63,0,0,1-4.62-4.62c0-2.49,1.82-4.3,4.65-4.63,3-.35,5.1-2.46,5.1-5.12A5.1,5.1,0,0,0,15,3a9.49,9.49,0,0,1-3,18.5ZM12,15a1.9,1.9,0,1,0,1.9,1.9A1.9,1.9,0,0,0,12,15Zm0,3.3a1.4,1.4,0,1,1,1.4-1.4A1.4,1.4,0,0,1,12,18.28ZM12,9a1.9,1.9,0,1,0-1.9-1.89A1.9,1.9,0,0,0,12,9Zm0-3.29a1.4,1.4,0,1,1-1.4,1.4A1.4,1.4,0,0,1,12,5.73Z"/></svg>