<svg id="Hot_2" data-name="Hot 2" xmlns="http://www.w3.org/2000/svg" viewBox="0 0 24 24"><title>iconoteka_taoism_b_s</title><path d="M12,2A10,10,0,1,0,22,12,10,10,0,0,0,12,2ZM6.71,18A8,8,0,0,1,12,4a3.5,3.5,0,0,1,3.5,3.5c0,2.13-1.82,3.3-3.62,3.51-3.27.38-5.38,2.53-5.38,5.49A5.57,5.57,0,0,0,6.71,18ZM12,20a3.5,3.5,0,0,1-3.5-3.5c0-1.9,1.39-3.25,3.62-3.51,3.17-.37,5.38-2.63,5.38-5.49A5.57,5.57,0,0,0,17.29,6,8,8,0,0,1,12,20Zm0-4.85a1.35,1.35,0,1,0,1.35,1.35A1.34,1.34,0,0,0,12,15.15Zm0-6.3A1.35,1.35,0,1,0,10.65,7.5,1.34,1.34,0,0,0,12,8.85Z"/></svg>