<svg id="Hot_2" data-name="Hot 2" xmlns="http://www.w3.org/2000/svg" viewBox="0 0 24 24"><title>iconoteka_satanism_b_a</title><path d="M12,2A10,10,0,1,0,22,12,10,10,0,0,0,12,2Zm8.2,10c0,.21,0,.41,0,.62l-3.11-2.26L18.25,6.7A8.19,8.19,0,0,1,20.2,12Zm-9.43,4.3h2.46L12,20.09Zm-.59-1.8L9.06,11,12,8.9,14.94,11,13.82,14.5ZM7.24,5.44l3.23,2.35-2,1.46Zm1,9.06h-4l3.24-2.35Zm5.24-6.71,3.23-2.35-1.23,3.8Zm2.94,4.36,3.24,2.35h-4ZM15.11,4.42,12,6.68,8.89,4.42a8.11,8.11,0,0,1,6.22,0ZM5.75,6.7l1.19,3.66L3.83,12.62c0-.21,0-.41,0-.62A8.19,8.19,0,0,1,5.75,6.7ZM5,16.3H8.88L10.06,20A8.21,8.21,0,0,1,5,16.3ZM13.94,20l1.19-3.66H19A8.21,8.21,0,0,1,13.94,20Z"/></svg>