<svg id="Hot_2" data-name="Hot 2" xmlns="http://www.w3.org/2000/svg" viewBox="0 0 24 24"><title>iconoteka_buddhism_b_a</title><path d="M20.84,11.1a8.9,8.9,0,0,0-1.95-4.72l1.53-1.52L19.14,3.59,17.62,5.11A8.9,8.9,0,0,0,12.9,3.16V1H11.1V3.16a8.9,8.9,0,0,0-4.72,2L4.86,3.59,3.58,4.86,5.11,6.38A8.9,8.9,0,0,0,3.16,11.1H1v1.8H3.16a8.9,8.9,0,0,0,2,4.72L3.58,19.14l1.28,1.27,1.52-1.52a8.9,8.9,0,0,0,4.72,1.95V23h1.8V20.84a8.9,8.9,0,0,0,4.72-1.95l1.52,1.52,1.28-1.27-1.53-1.52a8.9,8.9,0,0,0,1.95-4.72H23V11.1ZM12.9,5A7.1,7.1,0,0,1,16.33,6.4L12.9,9.83ZM11.1,5V9.83L7.67,6.4A7.1,7.1,0,0,1,11.1,5ZM6.4,7.67,9.83,11.1H5A7.1,7.1,0,0,1,6.4,7.67ZM5,12.9H9.83L6.4,16.33A7.1,7.1,0,0,1,5,12.9ZM11.1,19A7.1,7.1,0,0,1,7.67,17.6l3.43-3.43ZM12,13.1A1.1,1.1,0,1,1,13.1,12,1.1,1.1,0,0,1,12,13.1ZM12.9,19V14.17l3.43,3.43A7.1,7.1,0,0,1,12.9,19Zm4.7-2.7L14.17,12.9H19A7.1,7.1,0,0,1,17.6,16.33ZM14.17,11.1,17.6,7.67A7.1,7.1,0,0,1,19,11.1Z"/></svg>