<svg id="Hot_2" data-name="Hot 2" xmlns="http://www.w3.org/2000/svg" viewBox="0 0 24 24"><title>iconoteka_satanism_m_a</title><path d="M12,2A10,10,0,1,0,22,12,10,10,0,0,0,12,2Zm8.6,10a9.2,9.2,0,0,1-.12,1.39l-3.94-2.87L18,5.89A8.56,8.56,0,0,1,20.6,12Zm-9.93,3.86h2.66L12,20Zm-.46-1.4-1.1-3.4L12,9l2.89,2.1-1.1,3.4ZM8.65,9.66,7.32,5.56l3.49,2.53Zm.09,4.8H4.43l3.49-2.54Zm4.45-6.37,3.49-2.53-1.33,4.1Zm2.89,3.83,3.49,2.54H15.26Zm-.14-7.56L12,7.23,8.06,4.36a8.57,8.57,0,0,1,7.88,0ZM6,5.89l1.5,4.63L3.52,13.39A9.2,9.2,0,0,1,3.4,12,8.56,8.56,0,0,1,6,5.89Zm-1.64,10H9.2l1.5,4.63A8.62,8.62,0,0,1,4.32,15.86Zm9,4.63,1.5-4.63h4.88A8.64,8.64,0,0,1,13.3,20.49Z"/></svg>