<svg id="Hot_2" data-name="Hot 2" xmlns="http://www.w3.org/2000/svg" viewBox="0 0 24 24"><title>iconoteka_hinduism_b_a</title><path d="M17.27,2.52,15.8,1.05,14.32,2.52,15.8,4Zm3.05,3.23L18.91,4.34c-1.28,1.28-3.39,2.59-6.86-.88L10.63,4.87c1.87,1.87,3.75,2.81,5.53,2.81A5.82,5.82,0,0,0,20.32,5.75ZM17.58,9a6.29,6.29,0,0,0-4,1.7c-1.07.83-2.05,1.75-3.77,1.73a3.74,3.74,0,0,0,1.62-2.76A3.58,3.58,0,0,0,10.49,7a3.63,3.63,0,0,0-2.66-1.1,6.3,6.3,0,0,0-4.25,2L5,9.29A4.3,4.3,0,0,1,7.83,7.88,1.63,1.63,0,0,1,9,8.35a1.58,1.58,0,0,1,.39,1.19c-.08,1.35-2.36,2.19-3.15,2.38l.39,2a3.17,3.17,0,0,1,2.68.67A3.29,3.29,0,0,1,10.52,17a3.22,3.22,0,0,1-3.1,3C5.77,20,4,18.8,4,15.44H2C2,20,4.72,22,7.42,22a5.18,5.18,0,0,0,5.1-5,5.29,5.29,0,0,0-1.12-3.16,6.76,6.76,0,0,0,3.4-1.56A4.4,4.4,0,0,1,17.58,11a2.7,2.7,0,0,1,2.86,2.95c0,1.75-.82,3.52-2.39,3.52a2,2,0,0,1-2.13-2h-2a4,4,0,0,0,4.13,4c2.54,0,4.39-2.32,4.39-5.52A4.7,4.7,0,0,0,17.58,9Z"/></svg>