<svg id="Hot_2" data-name="Hot 2" xmlns="http://www.w3.org/2000/svg" viewBox="0 0 24 24"><title>iconoteka_satanism_l_a</title><path d="M12,2A10,10,0,1,0,22,12,10,10,0,0,0,12,2Zm9.5,10a9.42,9.42,0,0,1-.39,2.67l-5.36-3.89,2-6.27v0A9.46,9.46,0,0,1,21.5,12ZM10.21,15.19h3.58L12,20.71Zm-.17-.5L8.83,11,12,8.67,15.17,11,14,14.69Zm-.52,0H3.71l4.7-3.41ZM6.88,5l4.69,3.41-2.9,2.11Zm5.55,3.41L17.12,5l-1.79,5.52Zm3.16,2.92,4.7,3.41H14.48Zm1.77-7.12L12,8.05,6.67,4.18h0a9.48,9.48,0,0,1,10.73,0ZM6.2,4.49l2.05,6.29L2.92,14.65l0,0A9.46,9.46,0,0,1,6.2,4.49ZM3.06,15.19H9.68l2,6.27v0A9.53,9.53,0,0,1,3.06,15.19Zm9.21,6.3,2.05-6.3h6.62A9.51,9.51,0,0,1,12.27,21.49Z"/></svg>