<svg id="Hot_2" data-name="Hot 2" xmlns="http://www.w3.org/2000/svg" viewBox="0 0 24 24"><title>iconoteka_satanism_r_a</title><path d="M12,2A10,10,0,1,0,22,12,10,10,0,0,0,12,2Zm9,10a9,9,0,0,1-.3,2.27l-4.85-3.52,1.86-5.7A9,9,0,0,1,21,12ZM10.67,15.28h2.66L12,19.37Zm-.33-1-1-3.15,2.68-2,2.68,2-1,3.15ZM9,10.13,7.67,6l3.48,2.53Zm.29,4.15H5l3.48-2.53Zm3.56-5.72L16.33,6,15,10.13Zm2.68,3.19L19,14.28h-4.3Zm1.31-7.32L12,8,7.16,4.43a8.91,8.91,0,0,1,9.68,0ZM6.29,5.05l1.86,5.7L3.3,14.27a8.93,8.93,0,0,1,3-9.22ZM3.63,15.28h6L11.47,21A9,9,0,0,1,3.63,15.28ZM12.53,21l1.85-5.69h6A9,9,0,0,1,12.53,21Z"/></svg>