<svg id="Hot_2" data-name="Hot 2" xmlns="http://www.w3.org/2000/svg" viewBox="0 0 24 24"><title>iconoteka_atheism_r_a</title><path d="M18.67,12c2.11-2,3.12-4,2.42-5.25a2.83,2.83,0,0,0-2.6-1,11.65,11.65,0,0,0-3.15.52C14.62,3.38,13.4,1.5,12,1.5S9.38,3.38,8.66,6.22a12,12,0,0,0-3.15-.51,2.84,2.84,0,0,0-2.6,1C2.21,8,3.22,10,5.33,12c-2.11,2-3.12,4-2.42,5.25a2.83,2.83,0,0,0,2.6,1,12,12,0,0,0,3.15-.51C9.38,20.62,10.6,22.5,12,22.5s2.62-1.88,3.34-4.72a12,12,0,0,0,3.15.51,2.84,2.84,0,0,0,2.6-1C21.79,16,20.78,14,18.67,12Zm-.18-5.29c.89,0,1.54.2,1.73.54s.06,1.37-1.15,2.86a13.89,13.89,0,0,1-1.13,1.21,23,23,0,0,0-2-1.57c-.08-.9-.2-1.75-.35-2.55A11.17,11.17,0,0,1,18.49,6.71Zm-5,7.89c-.5.28-1,.54-1.5.79-.5-.25-1-.51-1.5-.79s-1-.59-1.44-.9C9,13.15,9,12.59,9,12s0-1.15.06-1.7q.69-.46,1.44-.9c.5-.28,1-.54,1.5-.79.5.25,1,.51,1.5.79s1,.59,1.44.9c0,.55.06,1.11.06,1.7s0,1.15-.06,1.7Q14.25,14.17,13.5,14.6Zm1.33.36c-.06.54-.14,1.05-.23,1.53a15.35,15.35,0,0,1-1.44-.57c.28-.14.56-.29.84-.46Zm-4,1a15.35,15.35,0,0,1-1.44.57c-.09-.48-.17-1-.23-1.53l.83.5C10.28,15.63,10.56,15.78,10.84,15.92ZM8,13c-.43-.32-.83-.64-1.21-1,.38-.33.78-.65,1.21-1,0,.32,0,.64,0,1S8,12.65,8,13ZM9.17,9c.06-.54.14-1,.23-1.53a15.35,15.35,0,0,1,1.44.57c-.28.14-.56.29-.84.46Zm4-1a15.35,15.35,0,0,1,1.44-.57c.09.48.17,1,.23,1.53L14,8.54C13.72,8.37,13.44,8.22,13.16,8.08ZM16,11c.43.32.83.64,1.21,1-.38.33-.78.65-1.21,1,0-.32,0-.64,0-1S16,11.35,16,11ZM12,2.5c.77,0,1.76,1.48,2.39,4A22,22,0,0,0,12,7.5a22,22,0,0,0-2.39-1C10.24,4,11.23,2.5,12,2.5ZM4.93,10.11C3.72,8.62,3.55,7.64,3.78,7.25s.84-.54,1.73-.54a11.17,11.17,0,0,1,2.93.49c-.15.8-.27,1.65-.35,2.55a23,23,0,0,0-2,1.57A13.89,13.89,0,0,1,4.93,10.11Zm.58,7.18c-.89,0-1.54-.2-1.73-.54s-.06-1.37,1.15-2.86a13.89,13.89,0,0,1,1.13-1.21,23,23,0,0,0,2,1.57c.08.9.2,1.75.35,2.55A11.17,11.17,0,0,1,5.51,17.29ZM12,21.5c-.77,0-1.76-1.48-2.39-4a22,22,0,0,0,2.39-1,22,22,0,0,0,2.39,1C13.76,20,12.77,21.5,12,21.5Zm8.22-4.75c-.19.34-.84.54-1.73.54a11.17,11.17,0,0,1-2.93-.49c.15-.8.27-1.65.35-2.55a23,23,0,0,0,2-1.57,13.89,13.89,0,0,1,1.13,1.21C20.28,15.38,20.45,16.36,20.22,16.75Z"/></svg>