<svg id="Hot_2" data-name="Hot 2" xmlns="http://www.w3.org/2000/svg" viewBox="0 0 24 24"><title>iconoteka_islam_r_s</title><path d="M8,12a8,8,0,0,1,8-8,7.87,7.87,0,0,1,2.49.4,10,10,0,1,0,0,15.2A7.87,7.87,0,0,1,16,20,8,8,0,0,1,8,12Zm4,9A9,9,0,0,1,12,3a8.87,8.87,0,0,1,2,.23,9,9,0,0,0,0,17.54A8.87,8.87,0,0,1,12,21ZM22.73,10.63H19.12L18,7.19l-1.12,3.44H13.27l2.92,2.12-1.12,3.44L18,14.07l2.93,2.12-1.12-3.44Zm-4.26,2.79L18,13.08l-.47.34-.93.68L17,13l.18-.55-.47-.34-.93-.68h1.73l.18-.56L18,9.78l.36,1.09.18.56h1.73l-.93.68-.47.34.18.55.35,1.1Z"/></svg>