<svg id="Layer_1" data-name="Layer 1" xmlns="http://www.w3.org/2000/svg" viewBox="0 0 24 24"><title>iconoteka_phone_b_s</title><path d="M16.74,22a4.41,4.41,0,0,1-.89-.09A17.65,17.65,0,0,1,2.13,8.15a4.91,4.91,0,0,1,3.18-5.5l2.51-.83,3,6L8.6,10A12.62,12.62,0,0,0,14,15.4l2.2-2.2,6,3-.83,2.51A4.94,4.94,0,0,1,16.74,22ZM6.81,4.26l-.87.29a2.9,2.9,0,0,0-1.85,3.2A15.66,15.66,0,0,0,16.25,19.91a2.91,2.91,0,0,0,3.2-1.85l.29-.87-3.13-1.56L14.43,17.8l-.63-.28A14.66,14.66,0,0,1,6.48,10.2L6.2,9.57,8.37,7.39Z"/></svg>