<svg id="Layer_1" data-name="Layer 1" xmlns="http://www.w3.org/2000/svg" viewBox="0 0 24 24"><title>iconoteka_chat__question_answer_r_s</title><path d="M16,6.5v-3A2.5,2.5,0,0,0,13.5,1h-9A2.5,2.5,0,0,0,2,3.5v9.87L6.37,9H13.5A2.5,2.5,0,0,0,16,6.5ZM6,8l-.3.29L3,11V3.5A1.5,1.5,0,0,1,4.5,2h9A1.5,1.5,0,0,1,15,3.5v3A1.5,1.5,0,0,1,13.5,8ZM19.5,11h-9A2.5,2.5,0,0,0,8,13.5v3A2.5,2.5,0,0,0,10.5,19h7.13L22,23.37V13.5A2.5,2.5,0,0,0,19.5,11ZM21,21l-2.66-2.67L18,18H10.5A1.5,1.5,0,0,1,9,16.5v-3A1.5,1.5,0,0,1,10.5,12h9A1.5,1.5,0,0,1,21,13.5Z"/></svg>