<svg id="Layer_1" data-name="Layer 1" xmlns="http://www.w3.org/2000/svg" viewBox="0 0 24 24"><title>iconoteka_phone_message_r_s</title><path d="M20.5,8A1.5,1.5,0,0,0,22,6.5v-3A1.5,1.5,0,0,0,20.5,2h-5A1.5,1.5,0,0,0,14,3.5v7.31L16.81,8Zm-4.4-.71L15,8.39V3.5a.5.5,0,0,1,.5-.5h5a.5.5,0,0,1,.5.5v3a.5.5,0,0,1-.5.5H16.39Zm.43,6.29-2.64,2.64a13.68,13.68,0,0,1-6.11-6.11l2.64-2.64L7.53,2l-2.42.77A4.46,4.46,0,0,0,2.06,7.87,18.48,18.48,0,0,0,16.13,21.94a4.46,4.46,0,0,0,5.14-3.05L22,16.47Zm3.78,5a3.46,3.46,0,0,1-4,2.38A17.55,17.55,0,0,1,3,7.66a3.46,3.46,0,0,1,2.38-4L7,3.17,9.19,7.28,7.07,9.4l-.51.52.33.64a14.55,14.55,0,0,0,6.55,6.55l.64.33.52-.51,2.12-2.12L20.83,17Z"/></svg>