<svg id="Layer_1" data-name="Layer 1" xmlns="http://www.w3.org/2000/svg" viewBox="0 0 24 24"><title>iconoteka_vpn_r_s</title><path d="M21,12a8.81,8.81,0,0,1-.53,3H16.53a20.54,20.54,0,0,0,.22-3h-1a18.75,18.75,0,0,1-.23,3h-7a18.75,18.75,0,0,1-.23-3,18.75,18.75,0,0,1,.23-3H12V8H8.67C9.34,4.93,10.72,3,12,3V2A10,10,0,1,0,22,12ZM9.64,3.32A11,11,0,0,0,7.65,8H4A9,9,0,0,1,9.64,3.32ZM3,12a8.81,8.81,0,0,1,.53-3H7.47a20.56,20.56,0,0,0,0,6H3.53A8.81,8.81,0,0,1,3,12Zm1,4h3.7a11,11,0,0,0,2,4.68A9,9,0,0,1,4,16ZM12,21c-1.28,0-2.66-1.93-3.33-5h6.66C14.66,19.07,13.28,21,12,21Zm2.36-.32a11,11,0,0,0,2-4.68h3.7A9,9,0,0,1,14.36,20.68ZM21,5H19.75V3.75a1.75,1.75,0,0,0-3.5,0V5H15V9h6ZM17.15,3.75a.85.85,0,0,1,1.7,0V5h-1.7Zm3,4.35H15.9V5.9h4.2Z"/></svg>