<svg id="Layer_1" data-name="Layer 1" xmlns="http://www.w3.org/2000/svg" viewBox="0 0 24 24"><title>iconoteka_phone_missed_b_s</title><path d="M20.22,14.48a14.78,14.78,0,0,0-16.44,0,4.11,4.11,0,0,0-1.33,5.25l1,2.09L9,20V17.71a10.22,10.22,0,0,1,6,0V20l5.5,1.83,1.05-2.09A4.11,4.11,0,0,0,20.22,14.48Zm-.46,4.36-.27.54L17,18.55V16.3l-.65-.24a12.3,12.3,0,0,0-8.7,0L7,16.3v2.25l-2.49.83-.27-.54a2.1,2.1,0,0,1,.65-2.69,12.75,12.75,0,0,1,14.22,0A2.1,2.1,0,0,1,19.76,18.84Zm-8.1-8.77,6.2-6.21L16.45,2.45,11.66,7.24,8.22,3.81,10,2H5V7L6.81,5.22Z"/></svg>