<svg id="Layer_1" data-name="Layer 1" xmlns="http://www.w3.org/2000/svg" viewBox="0 0 24 24"><title>iconoteka_rate_review_r_s</title><path d="M19,2H5A3,3,0,0,0,2,5V24l6-6H19a3,3,0,0,0,3-3V5A3,3,0,0,0,19,2Zm2,13a2,2,0,0,1-2,2H7.59l-.3.29L3,21.59V5A2,2,0,0,1,5,3H19a2,2,0,0,1,2,2ZM13.12,8.63,12,5.19,10.88,8.63H7.27l2.92,2.12L9.07,14.19,12,12.07l2.93,2.12-1.12-3.44,2.92-2.12ZM13.05,11l.35,1.1-.93-.68L12,11.08l-.47.34-.93.68L11,11l.18-.55-.47-.34-.93-.68h1.73l.18-.56L12,7.78l.36,1.09.18.56h1.73l-.93.68-.47.34Z"/></svg>