<svg id="Layer_1" data-name="Layer 1" xmlns="http://www.w3.org/2000/svg" viewBox="0 0 24 24"><title>iconoteka_vpn_l_f</title><path d="M16.5,12a24.22,24.22,0,0,1-.25,3.5h5.11A9.93,9.93,0,0,0,22,12ZM12,8V2C10.36,2,9,4.47,8.34,8Zm-3.74.5A22.84,22.84,0,0,0,8,12a22.84,22.84,0,0,0,.26,3.5h7.48A22.84,22.84,0,0,0,16,12H12V8.5Zm2.19-6.37A10,10,0,0,0,2.84,8h5C8.3,5.26,9.25,3.13,10.45,2.13Zm3.1,19.74A10,10,0,0,0,21.16,16h-5C15.7,18.74,14.75,20.87,13.55,21.87ZM8.34,16c.61,3.53,2,6,3.66,6s3.05-2.47,3.66-6Zm-.51,0h-5a10,10,0,0,0,7.61,5.87C9.25,20.87,8.3,18.74,7.83,16ZM7.5,12a24.22,24.22,0,0,1,.25-3.5H2.64a9.89,9.89,0,0,0,0,7H7.75A24.22,24.22,0,0,1,7.5,12ZM21,5H19.5V3.5a1.5,1.5,0,0,0-3,0V5H15V9h6ZM19,5H17V3.5a1,1,0,0,1,2,0Z"/></svg>