<svg id="Layer_1" data-name="Layer 1" xmlns="http://www.w3.org/2000/svg" viewBox="0 0 24 24"><title>iconoteka_internet_b_s</title><path d="M12,2A10,10,0,1,0,22,12,10,10,0,0,0,12,2Zm6.92,6H16.13a13.92,13.92,0,0,0-1-3.37A8.14,8.14,0,0,1,18.92,8ZM20,12a8.24,8.24,0,0,1-.26,2H16.4c.05-.66.08-1.33.08-2s0-1.34-.08-2h3.34A8.24,8.24,0,0,1,20,12Zm-8,8c-.59,0-1.57-1.39-2.1-4h4.2C13.57,18.61,12.59,20,12,20ZM9.61,14c-.06-.62-.09-1.29-.09-2s0-1.38.09-2h4.78c.06.62.09,1.29.09,2s0,1.38-.09,2ZM4,12a8.24,8.24,0,0,1,.26-2H7.6c0,.66-.08,1.33-.08,2s0,1.34.08,2H4.26A8.24,8.24,0,0,1,4,12Zm8-8c.59,0,1.57,1.39,2.1,4H9.9C10.43,5.39,11.41,4,12,4Zm-3.12.63A13.92,13.92,0,0,0,7.87,8H5.08A8.14,8.14,0,0,1,8.88,4.63ZM5.08,16H7.87a13.92,13.92,0,0,0,1,3.37A8.14,8.14,0,0,1,5.08,16Zm10,3.37a13.49,13.49,0,0,0,1-3.37h2.79A8.14,8.14,0,0,1,15.12,19.37Z"/></svg>