<svg id="Layer_1" data-name="Layer 1" xmlns="http://www.w3.org/2000/svg" viewBox="0 0 24 24"><title>iconoteka_freehand__gesture_m_a</title><path d="M12.67,21.74a7.65,7.65,0,0,1-5.46-2.11,6.64,6.64,0,0,1-1.88-5.39L5,13.89A6.86,6.86,0,0,1,3.07,8.38,11.47,11.47,0,0,1,6.71,1.47L7.77,2.53a10.09,10.09,0,0,0-3.21,6,5.34,5.34,0,0,0,1.14,4A13,13,0,0,1,9.07,7.27,9.65,9.65,0,0,1,13.8,4.44a4,4,0,0,1,3.68.93c1.43,1.43,1.62,4.31-1.33,7.26-3.22,3.21-6.77,3.68-9.34,2.53a5.06,5.06,0,0,0,1.46,3.41c2.46,2.45,7.56,2.56,12.19-2.06l1.06,1.06C18.57,20.52,15.41,21.74,12.67,21.74ZM7,13.56c2,1.19,5.1,1,8.13-2,2.12-2.13,2.28-4.19,1.33-5.14a2.53,2.53,0,0,0-2.33-.52,8.08,8.08,0,0,0-4,2.42A11,11,0,0,0,7,13.56Z"/></svg>