<svg id="Layer_1" data-name="Layer 1" xmlns="http://www.w3.org/2000/svg" viewBox="0 0 24 24"><title>iconoteka_phone__call_r_s</title><path d="M7.75,16.25A17.48,17.48,0,0,1,3,7.66a3.46,3.46,0,0,1,2.38-4L7,3.17,9.19,7.28,7.07,9.4l-.51.52.33.64a14.55,14.55,0,0,0,6.55,6.55l.64.33.52-.51,2.12-2.12L20.83,17l-.52,1.63a3.46,3.46,0,0,1-4,2.38,17.48,17.48,0,0,1-8.59-4.72M7,17a18.39,18.39,0,0,0,9.09,5,4.46,4.46,0,0,0,5.14-3.05L22,16.47l-5.51-2.89-2.64,2.64a13.68,13.68,0,0,1-6.11-6.11l2.64-2.64L7.53,2l-2.42.77A4.46,4.46,0,0,0,2.06,7.87,18.39,18.39,0,0,0,7,17Z"/></svg>