<svg id="Layer_1" data-name="Layer 1" xmlns="http://www.w3.org/2000/svg" viewBox="0 0 24 24"><title>iconoteka_phone_settings_a_f</title><path d="M14.26,7.39a4.13,4.13,0,0,0,.67,1.15l1.4-.62.84.49.17,1.52a3.15,3.15,0,0,0,1.32,0l.17-1.52.84-.49,1.4.62a4.13,4.13,0,0,0,.67-1.15l-1.24-.9v-1l1.24-.9a4.13,4.13,0,0,0-.67-1.15l-1.4.62-.84-.49-.17-1.52a3.15,3.15,0,0,0-1.32,0l-.17,1.52-.84.49-1.4-.62a4.13,4.13,0,0,0-.67,1.15l1.24.9v1ZM18,5a1,1,0,1,1-1,1A1,1,0,0,1,18,5Zm-1.14,9.74-2.38,2.38a15,15,0,0,1-4.55-3.05,15,15,0,0,1-3-4.55L9.26,7.14l-2.49-5-1.6.51a4.46,4.46,0,0,0-3,5.14A18.48,18.48,0,0,0,16.19,21.88a4.46,4.46,0,0,0,5.14-3.05l.51-1.6Z"/></svg>