<svg id="Layer_1" data-name="Layer 1" xmlns="http://www.w3.org/2000/svg" viewBox="0 0 24 24"><title>iconoteka_phone_settings_r_s</title><path d="M16.53,13.58l-2.64,2.64a13.68,13.68,0,0,1-6.11-6.11l2.64-2.64L7.53,2l-2.42.77A4.46,4.46,0,0,0,2.06,7.87,18.48,18.48,0,0,0,16.13,21.94a4.46,4.46,0,0,0,5.14-3.05L22,16.47Zm3.78,5a3.46,3.46,0,0,1-4,2.38A17.55,17.55,0,0,1,3,7.66a3.46,3.46,0,0,1,2.38-4L7,3.17,9.19,7.28,7.07,9.4l-.51.52.33.64a14.55,14.55,0,0,0,6.55,6.55l.64.33.52-.51,2.12-2.12L20.83,17ZM14.12,6.88A3.63,3.63,0,0,0,14.54,8a4,4,0,0,0,.75.92l1.38-.62h0l.14,1.49a3.58,3.58,0,0,0,2.36,0l.14-1.49h0l1.38.62A4,4,0,0,0,21.46,8a3.63,3.63,0,0,0,.42-1.12L20.66,6V6l1.22-.87A3.63,3.63,0,0,0,21.46,4a4,4,0,0,0-.75-.92l-1.38.62h0L19.18,2.2a3.58,3.58,0,0,0-2.36,0l-.14,1.49h0l-1.38-.62a4,4,0,0,0-.75.92,3.63,3.63,0,0,0-.42,1.12L15.34,6V6Zm1.66-1.5L15,4.81a2.46,2.46,0,0,1,.21-.43,2,2,0,0,1,.27-.4l.9.4.36.16.33-.2.33-.19,0-.38.1-1a2.9,2.9,0,0,1,1,0l.1,1,.05.39.33.19.33.19.35-.16.9-.4a2,2,0,0,1,.27.4,2.46,2.46,0,0,1,.21.43l-.8.57-.31.24v.77l.31.23.8.57a2.46,2.46,0,0,1-.21.43,2,2,0,0,1-.27.4l-.9-.4-.36-.16-.33.2-.33.19,0,.38-.1,1a2.9,2.9,0,0,1-1,0l-.1-1-.05-.39L17,7.65l-.33-.19-.35.16-.9.4a2,2,0,0,1-.27-.4A2.46,2.46,0,0,1,15,7.19l.8-.57.31-.24V5.61ZM18,6.75A.75.75,0,1,0,17.25,6,.76.76,0,0,0,18,6.75Z"/></svg>