<svg id="Layer_1" data-name="Layer 1" xmlns="http://www.w3.org/2000/svg" viewBox="0 0 24 24"><title>iconoteka_phone__call_l_s</title><path d="M7.46,16.54A17.82,17.82,0,0,1,2.61,7.7,4,4,0,0,1,5.32,3.15L7,2.62,9.45,7.38,6.87,10l-.25.26.16.32a14.9,14.9,0,0,0,6.69,6.69l.32.16.26-.25,2.57-2.58L21.38,17l-.53,1.64a4,4,0,0,1-4.55,2.71,17.82,17.82,0,0,1-8.84-4.85m-.36.36a18.39,18.39,0,0,0,9.09,5,4.46,4.46,0,0,0,5.14-3.05l.65-2-5.45-2.85-2.84,2.83a14.55,14.55,0,0,1-3.76-2.7,14.55,14.55,0,0,1-2.7-3.76l2.83-2.84L7.21,2l-2,.65a4.46,4.46,0,0,0-3,5.14,18.39,18.39,0,0,0,5,9.09Z"/></svg>