<svg id="Layer_1" data-name="Layer 1" xmlns="http://www.w3.org/2000/svg" viewBox="0 0 24 24"><title>iconoteka_freehand__gesture_r_a</title><path d="M12.67,21.49a7.37,7.37,0,0,1-5.28-2,6.39,6.39,0,0,1-1.8-5.29v0a6,6,0,0,1-.46-.42A6.57,6.57,0,0,1,3.32,8.4,11.23,11.23,0,0,1,6.88,1.65l.71.7A10.34,10.34,0,0,0,4.31,8.49,5.52,5.52,0,0,0,5.81,13,12.53,12.53,0,0,1,9.25,7.45a9.34,9.34,0,0,1,4.6-2.76,3.76,3.76,0,0,1,3.46.86c1.34,1.34,1.49,4.07-1.34,6.9-3.41,3.41-7,3.63-9.42,2.32a5.3,5.3,0,0,0,1.55,4c2.54,2.54,7.8,2.69,12.53-2l.71.7C18.45,20.29,15.34,21.49,12.67,21.49Zm-6-7.81C8.77,15,12.06,15,15.26,11.74,17.61,9.4,17.6,7.26,16.6,6.26A2.75,2.75,0,0,0,14,5.67,8.19,8.19,0,0,0,10,8.15,11.13,11.13,0,0,0,6.68,13.68Z"/></svg>