<svg id="Layer_1" data-name="Layer 1" xmlns="http://www.w3.org/2000/svg" viewBox="0 0 24 24"><title>iconoteka_phone_message_l_s</title><path d="M20.5,2h-5A1.5,1.5,0,0,0,14,3.5v7.31L16.81,8H20.5A1.5,1.5,0,0,0,22,6.5v-3A1.5,1.5,0,0,0,20.5,2Zm1,4.5a1,1,0,0,1-1,1H16.6L14.5,9.6V3.5a1,1,0,0,1,1-1h5a1,1,0,0,1,1,1ZM13.69,16.77a14.55,14.55,0,0,1-3.76-2.7,14.55,14.55,0,0,1-2.7-3.76l2.83-2.84L7.21,2l-2,.65a4.46,4.46,0,0,0-3,5.14A18.48,18.48,0,0,0,16.19,21.88a4.46,4.46,0,0,0,5.14-3.05l.65-2-5.45-2.85Zm7.69.27-.53,1.64a4,4,0,0,1-4.55,2.71,17.82,17.82,0,0,1-8.84-4.85A17.82,17.82,0,0,1,2.61,7.7,4,4,0,0,1,5.32,3.15L7,2.62,9.45,7.38,6.62,10.21l.16.32a14.9,14.9,0,0,0,6.69,6.69l.32.16,2.83-2.83Z"/></svg>