<svg id="Layer_1" data-name="Layer 1" xmlns="http://www.w3.org/2000/svg" viewBox="0 0 24 24"><title>iconoteka_vpn_m_f</title><path d="M12,8V2C10.46,2,9.14,4.47,8.56,8ZM8.37,9.5c-.07.8-.12,1.64-.12,2.5s.05,1.7.12,2.5h7.26c.07-.8.12-1.64.12-2.5H12V9.5Zm.54-7A10.06,10.06,0,0,0,2.84,8H7A13.25,13.25,0,0,1,8.91,2.49ZM17.25,12c0,.89,0,1.72-.1,2.5h4.52A9.85,9.85,0,0,0,22,12ZM2.84,16a10.06,10.06,0,0,0,6.07,5.51A13.25,13.25,0,0,1,7,16Zm5.72,0c.58,3.53,1.9,6,3.44,6s2.86-2.47,3.44-6ZM6.75,12c0-.89,0-1.72.1-2.5H2.33a9.63,9.63,0,0,0,0,5H6.85C6.79,13.72,6.75,12.89,6.75,12Zm8.34,9.51A10.06,10.06,0,0,0,21.16,16H17A13.25,13.25,0,0,1,15.09,21.51ZM21,5H20V4.1a2,2,0,1,0-4,0V5H15V9h6ZM18.8,5H17.2V4.1a.81.81,0,1,1,1.6,0Z"/></svg>