<svg id="Layer_1" data-name="Layer 1" xmlns="http://www.w3.org/2000/svg" viewBox="0 0 24 24"><title>iconoteka_planet__earth__internet__public_m_s</title><path d="M12,2A10,10,0,1,0,22,12,10,10,0,0,0,12,2Zm7.5,6H16.33a11.11,11.11,0,0,0-1.66-4.06A8.52,8.52,0,0,1,19.5,8Zm1,4a8.27,8.27,0,0,1-.38,2.5H16.59a20.07,20.07,0,0,0,.16-2.5,20.07,20.07,0,0,0-.16-2.5h3.53A8.27,8.27,0,0,1,20.5,12ZM12,20.5c-1.22,0-2.28-1.82-2.82-4.5h5.64C14.28,18.68,13.22,20.5,12,20.5Zm-3.06-6a22.39,22.39,0,0,1,0-5h6.12A22.16,22.16,0,0,1,15.2,12a22.16,22.16,0,0,1-.14,2.5ZM3.5,12a8.27,8.27,0,0,1,.38-2.5H7.41a19.61,19.61,0,0,0,0,5H3.88A8.27,8.27,0,0,1,3.5,12ZM12,3.5c1.22,0,2.28,1.82,2.82,4.5H9.18C9.72,5.32,10.78,3.5,12,3.5Zm-2.67.44A11.11,11.11,0,0,0,7.67,8H4.5A8.52,8.52,0,0,1,9.33,3.94ZM4.5,16H7.67a11.11,11.11,0,0,0,1.66,4.06A8.52,8.52,0,0,1,4.5,16Zm10.17,4.06A11.11,11.11,0,0,0,16.33,16H19.5A8.52,8.52,0,0,1,14.67,20.06Z"/></svg>