<svg id="Layer_1" data-name="Layer 1" xmlns="http://www.w3.org/2000/svg" viewBox="0 0 24 24"><title>iconoteka_freehand__gesture_l_a</title><path d="M12.66,21.24a7.08,7.08,0,0,1-5.09-2,6.1,6.1,0,0,1-1.73-5.09s0-.1,0-.16a6.44,6.44,0,0,1-.56-.48A6.27,6.27,0,0,1,3.57,8.42a11,11,0,0,1,3.49-6.6l.35.36A10.49,10.49,0,0,0,4.07,8.47a5.75,5.75,0,0,0,1.59,4.71,2.68,2.68,0,0,0,.3.28A12,12,0,0,1,9.42,7.62,9.25,9.25,0,0,1,13.9,4.93a3.53,3.53,0,0,1,3.23.8C18.38,7,18.5,9.57,15.79,12.27c-3.48,3.49-7.1,3.55-9.46,2.08a5.61,5.61,0,0,0,1.59,4.57c2.63,2.62,8,2.8,12.89-2.06l.36.36C18.32,20.06,15.28,21.24,12.66,21.24ZM6.4,13.8c2.17,1.49,5.66,1.5,9-1.88,2.47-2.46,2.42-4.76,1.34-5.84A3,3,0,0,0,14,5.42,8.64,8.64,0,0,0,9.78,8,11.17,11.17,0,0,0,6.4,13.8Z"/></svg>