<svg id="Layer_1" data-name="Layer 1" xmlns="http://www.w3.org/2000/svg" viewBox="0 0 24 24"><title>iconoteka_phone_in_talk_r_s</title><path d="M16.53,13.58l-2.64,2.64a13.68,13.68,0,0,1-6.11-6.11l2.64-2.64L7.53,2l-2.42.77A4.46,4.46,0,0,0,2.06,7.87,18.48,18.48,0,0,0,16.13,21.94a4.46,4.46,0,0,0,5.14-3.05L22,16.47Zm3.78,5a3.46,3.46,0,0,1-4,2.38A17.55,17.55,0,0,1,3,7.66a3.46,3.46,0,0,1,2.38-4L7,3.17,9.19,7.28,7.07,9.4l-.51.52.33.64a14.55,14.55,0,0,0,6.55,6.55l.64.33.52-.51,2.12-2.12L20.83,17ZM16.5,10h1A3.5,3.5,0,0,0,14,6.5v1A2.5,2.5,0,0,1,16.5,10Zm4,0h1A7.5,7.5,0,0,0,14,2.5v1A6.51,6.51,0,0,1,20.5,10Z"/></svg>