<svg id="Layer_1" data-name="Layer 1" xmlns="http://www.w3.org/2000/svg" viewBox="0 0 24 24"><title>iconoteka_freehand__gesture_b_a</title><path d="M12.67,22A7.86,7.86,0,0,1,7,19.8a6.88,6.88,0,0,1-2-5.46l-.29-.27A7.13,7.13,0,0,1,2.82,8.35,11.78,11.78,0,0,1,6.53,1.29L7.94,2.71A9.84,9.84,0,0,0,4.81,8.54a5.21,5.21,0,0,0,.8,3.4A13.86,13.86,0,0,1,8.89,7.09c3.67-3.66,7.12-3.55,8.77-1.9s1.74,4.54-1.34,7.61-6.6,3.73-9.22,2.75a4.72,4.72,0,0,0,1.35,2.84c2.37,2.37,7.32,2.45,11.83-2.06l1.42,1.42C18.7,20.74,15.47,22,12.67,22ZM7.25,13.44c1.93,1,4.82.79,7.66-2,2-2,2.19-3.93,1.34-4.78-1-1-3.37-.68-5.94,1.9A10.84,10.84,0,0,0,7.25,13.44Z"/></svg>