<svg id="Layer_1" data-name="Layer 1" xmlns="http://www.w3.org/2000/svg" viewBox="0 0 24 24"><title>iconoteka_planet__earth__internet__public_m_f</title><path d="M6.75,12c0-.89,0-1.72.1-2.5H2.33a9.63,9.63,0,0,0,0,5H6.85C6.79,13.72,6.75,12.89,6.75,12Zm1.5,0c0,.86.05,1.7.12,2.5h7.26c.07-.8.12-1.64.12-2.5s-.05-1.7-.12-2.5H8.37C8.3,10.3,8.25,11.14,8.25,12ZM21.16,8a10.06,10.06,0,0,0-6.07-5.51A13.25,13.25,0,0,1,17,8Zm.51,1.5H17.15c.06.78.1,1.61.1,2.5s0,1.72-.1,2.5h4.52a9.63,9.63,0,0,0,0-5ZM8.56,16c.58,3.53,1.9,6,3.44,6s2.86-2.47,3.44-6ZM2.84,16a10.06,10.06,0,0,0,6.07,5.51A13.25,13.25,0,0,1,7,16Zm12.25,5.51A10.06,10.06,0,0,0,21.16,16H17A13.25,13.25,0,0,1,15.09,21.51ZM15.44,8c-.58-3.53-1.9-6-3.44-6S9.14,4.47,8.56,8ZM8.91,2.49A10.06,10.06,0,0,0,2.84,8H7A13.25,13.25,0,0,1,8.91,2.49Z"/></svg>