<svg id="Layer_1" data-name="Layer 1" xmlns="http://www.w3.org/2000/svg" viewBox="0 0 24 24"><title>iconoteka_vpn_l_s</title><path d="M21.5,12a9.25,9.25,0,0,1-.68,3.5H16.44a19.48,19.48,0,0,0,.31-3.5h-.5a19.48,19.48,0,0,1-.31,3.5H8.06a19.91,19.91,0,0,1,0-7H12V8H8.17C8.86,4.79,10.33,2.5,12,2.5V2A10,10,0,1,0,22,12ZM10.32,2.66A9.32,9.32,0,0,0,7.65,8H3.4A9.5,9.5,0,0,1,10.32,2.66ZM2.5,12a9.25,9.25,0,0,1,.68-3.5H7.56a19.91,19.91,0,0,0,0,7H3.18A9.25,9.25,0,0,1,2.5,12Zm.9,4H7.65a9.32,9.32,0,0,0,2.67,5.34A9.5,9.5,0,0,1,3.4,16Zm4.77,0h7.66c-.69,3.21-2.16,5.5-3.83,5.5S8.86,19.21,8.17,16Zm5.51,5.34A9.32,9.32,0,0,0,16.35,16H20.6A9.5,9.5,0,0,1,13.68,21.34ZM21,5H19.5V3.5a1.5,1.5,0,0,0-3,0V5H15V9h6ZM17,3.5a1,1,0,0,1,2,0V5H17Zm3.5,5h-5v-3h5Z"/></svg>