<svg id="Layer_1" data-name="Layer 1" xmlns="http://www.w3.org/2000/svg" viewBox="0 0 24 24"><title>iconoteka_phone_missed_m_s</title><path d="M19.9,14.31a14.66,14.66,0,0,0-15.8,0A3.52,3.52,0,0,0,2.93,18.9L4,21,8.76,19.5V17a10.55,10.55,0,0,1,6.48,0V19.5L20,21l1.07-2.09A3.52,3.52,0,0,0,19.9,14.31Zm0,4-.55,1.06-2.71-.85V16l-.94-.31a11.84,11.84,0,0,0-7.32,0L7.4,16v2.45l-2.71.85-.55-1.06a2.17,2.17,0,0,1,.69-2.82,13.34,13.34,0,0,1,14.34,0A2.17,2.17,0,0,1,19.86,18.28ZM12,10.06l6.6-6.6L17.54,2.4,12,7.94,7.8,3.74,9.55,2H5V6.55L6.74,4.8Z"/></svg>