<svg id="Layer_1" data-name="Layer 1" xmlns="http://www.w3.org/2000/svg" viewBox="0 0 24 24"><title>iconoteka_link__chain_l_a</title><path d="M20.49,3.51a5,5,0,0,0-7.08,0l-2.19,2.2c.23,0,.45,0,.68,0l1.87-1.87a4.5,4.5,0,0,1,6.36,6.36l-4.24,4.24a4.49,4.49,0,0,1-6.36,0,4.37,4.37,0,0,1-1.23-2.3l-.41.4a4.94,4.94,0,0,0,1.28,2.26,5,5,0,0,0,7.07,0l4.25-4.24A5,5,0,0,0,20.49,3.51ZM10.23,20.13a4.5,4.5,0,0,1-6.36-6.36L8.11,9.53a4.49,4.49,0,0,1,6.36,0,4.37,4.37,0,0,1,1.23,2.3l.41-.4a4.94,4.94,0,0,0-1.28-2.26,5,5,0,0,0-7.07,0L3.51,13.41a5,5,0,0,0,7.08,7.08l2.19-2.2c-.23,0-.45,0-.68,0Z"/></svg>