<svg id="Layer_1" data-name="Layer 1" xmlns="http://www.w3.org/2000/svg" viewBox="0 0 24 24"><title>iconoteka_voice_message_r_s</title><path d="M19,2H5A3,3,0,0,0,2,5V24l6-6H19a3,3,0,0,0,3-3V5A3,3,0,0,0,19,2Zm2,13a2,2,0,0,1-2,2H7.59l-.3.29L3,21.59V5A2,2,0,0,1,5,3H19a2,2,0,0,1,2,2Zm-9-3.26A2.56,2.56,0,0,1,9.44,9.18h-.9a3.44,3.44,0,0,0,3,3.41V14h.9V12.59a3.44,3.44,0,0,0,3-3.41h-.9A2.56,2.56,0,0,1,12,11.74Zm0-1.14a1.42,1.42,0,0,0,1.42-1.42V6.94a1.42,1.42,0,1,0-2.84,0V9.18A1.42,1.42,0,0,0,12,10.6Zm-.52-3.66a.52.52,0,1,1,1,0V9.18a.52.52,0,0,1-1,0Z"/></svg>