<svg id="Layer_1" data-name="Layer 1" xmlns="http://www.w3.org/2000/svg" viewBox="0 0 24 24"><title>iconoteka_voice_message_m_s</title><path d="M19,2H5A3,3,0,0,0,2,5V24l6-6H19a3,3,0,0,0,3-3V5A3,3,0,0,0,19,2Zm1.5,13A1.5,1.5,0,0,1,19,16.5H7.38l-.44.44L3.5,20.38V5A1.5,1.5,0,0,1,5,3.5H19A1.5,1.5,0,0,1,20.5,5ZM12,11.33A2.56,2.56,0,0,1,9.46,9H8.26a3.76,3.76,0,0,0,3.14,3.47V14h1.2V12.47A3.76,3.76,0,0,0,15.74,9h-1.2A2.56,2.56,0,0,1,12,11.33Zm0-1.18A1.16,1.16,0,0,0,13.15,9V6.67a1.15,1.15,0,1,0-2.3,0V9A1.16,1.16,0,0,0,12,10.15Z"/></svg>