<svg id="Layer_1" data-name="Layer 1" xmlns="http://www.w3.org/2000/svg" viewBox="0 0 24 24"><title>iconoteka_planet__earth__internet__public_b_f</title><path d="M21.16,8a10,10,0,0,0-5.48-5.29A16,16,0,0,1,17.23,8Zm.64,2H17.43c.05.66.07,1.33.07,2s0,1.34-.07,2H21.8a10.1,10.1,0,0,0,0-4ZM12,22c1.43,0,2.67-2.47,3.21-6H8.79C9.33,19.53,10.57,22,12,22ZM8.57,10c-.05.65-.07,1.32-.07,2s0,1.35.07,2h6.86c.05-.65.07-1.32.07-2s0-1.35-.07-2ZM2.84,16a10,10,0,0,0,5.48,5.29A16,16,0,0,1,6.77,16Zm12.84,5.29A10,10,0,0,0,21.16,16H17.23A16,16,0,0,1,15.68,21.29ZM2.84,8H6.77A16,16,0,0,1,8.32,2.71,10,10,0,0,0,2.84,8ZM6.5,12c0-.67,0-1.34.07-2H2.2a10.1,10.1,0,0,0,0,4H6.57C6.52,13.34,6.5,12.67,6.5,12ZM12,2C10.57,2,9.33,4.47,8.79,8h6.42C14.67,4.47,13.43,2,12,2Z"/></svg>