<svg id="Layer_1" data-name="Layer 1" xmlns="http://www.w3.org/2000/svg" viewBox="0 0 24 24"><title>iconoteka_planet__earth__internet__public_l_f</title><path d="M7.5,12a24.22,24.22,0,0,1,.25-3.5H2.64a9.89,9.89,0,0,0,0,7H7.75A24.22,24.22,0,0,1,7.5,12Zm.84,4c.61,3.53,2,6,3.66,6s3.05-2.47,3.66-6ZM8,12a22.84,22.84,0,0,0,.26,3.5h7.48A22.84,22.84,0,0,0,16,12a22.84,22.84,0,0,0-.26-3.5H8.26A22.84,22.84,0,0,0,8,12ZM21.36,8.5H16.25A24.22,24.22,0,0,1,16.5,12a24.22,24.22,0,0,1-.25,3.5h5.11a9.89,9.89,0,0,0,0-7ZM16.17,8h5a10,10,0,0,0-7.61-5.87C14.75,3.13,15.7,5.26,16.17,8Zm-.51,0c-.61-3.53-2-6-3.66-6S9,4.47,8.34,8ZM13.55,21.87A10,10,0,0,0,21.16,16h-5C15.7,18.74,14.75,20.87,13.55,21.87ZM7.83,16h-5a10,10,0,0,0,7.61,5.87C9.25,20.87,8.3,18.74,7.83,16ZM10.45,2.13A10,10,0,0,0,2.84,8h5C8.3,5.26,9.25,3.13,10.45,2.13Z"/></svg>