<svg id="Layer_1" data-name="Layer 1" xmlns="http://www.w3.org/2000/svg" viewBox="0 0 24 24"><title>iconoteka_planet__earth__internet__public_r_f</title><path d="M8.34,16c.61,3.53,2,6,3.66,6s3.05-2.47,3.66-6Zm13.2-7H16.82A25,25,0,0,1,17,12a25,25,0,0,1-.18,3h4.72a10,10,0,0,0,0-6Zm-.38-1a10,10,0,0,0-6.7-5.68A12.36,12.36,0,0,1,16.67,8ZM8,12a24,24,0,0,0,.18,3h7.64A24,24,0,0,0,16,12a24,24,0,0,0-.18-3H8.18A24,24,0,0,0,8,12Zm6.46,9.68A10,10,0,0,0,21.16,16H16.67A12.36,12.36,0,0,1,14.46,21.68ZM7,12a25,25,0,0,1,.18-3H2.46a10,10,0,0,0,0,6H7.18A25,25,0,0,1,7,12ZM2.84,16a10,10,0,0,0,6.7,5.68A12.36,12.36,0,0,1,7.33,16ZM9.54,2.32A10,10,0,0,0,2.84,8H7.33A12.36,12.36,0,0,1,9.54,2.32ZM15.66,8c-.61-3.53-2-6-3.66-6S9,4.47,8.34,8Z"/></svg>