<svg id="Layer_1" data-name="Layer 1" xmlns="http://www.w3.org/2000/svg" viewBox="0 0 24 24"><title>iconoteka_vpn_b_f</title><path d="M6.5,12c0-.67,0-1.34.07-2H2.2a10.1,10.1,0,0,0,0,4H6.57C6.52,13.34,6.5,12.67,6.5,12ZM2.84,16a10,10,0,0,0,5.48,5.29A16,16,0,0,1,6.77,16ZM12,2C10.57,2,9.33,4.47,8.79,8H12Zm0,8H8.57c-.05.65-.07,1.32-.07,2s0,1.35.07,2h6.86c.05-.65.07-1.32.07-2H12Zm3.68,11.29A10,10,0,0,0,21.16,16H17.23A16,16,0,0,1,15.68,21.29ZM2.84,8H6.77A16,16,0,0,1,8.32,2.71,10,10,0,0,0,2.84,8ZM17.5,12c0,.67,0,1.34-.07,2H21.8a10.2,10.2,0,0,0,.2-2ZM12,22c1.43,0,2.67-2.47,3.21-6H8.79C9.33,19.53,10.57,22,12,22ZM21,5H20V4a2,2,0,0,0-4,0V5H15V9h6ZM18.7,5H17.3V4a.7.7,0,1,1,1.4,0Z"/></svg>