<svg id="Layer_1" data-name="Layer 1" xmlns="http://www.w3.org/2000/svg" viewBox="0 0 24 24"><title>iconoteka_gesture_b_s</title><path d="M20.29,17.4c-3.74,3.74-7,3.13-8.67,1.46a5.26,5.26,0,0,1-1.12-1.68,11.23,11.23,0,0,0,8.21-3.37C21.62,10.9,21.45,7.69,19.78,6s-5.1-2-8.49,1.38A10.38,10.38,0,0,0,8,14.67a5.35,5.35,0,0,1-1.79-1.14C4.85,12.15,5,10.39,6.71,8.71c2-2,2-3.89,1.25-5s-2.9-2-6.33-.67l.74,1.86c2.16-.87,3.55-.65,3.92-.09s.09,1.37-1,2.45C2.82,9.76,2.63,12.77,4.81,15a7.8,7.8,0,0,0,3.48,1.92,7.54,7.54,0,0,0,1.92,3.41,6.43,6.43,0,0,0,4.59,1.89c2.11,0,4.51-1,6.91-3.36ZM10,15.16a8.34,8.34,0,0,1,2.68-6.35c2.42-2.42,4.63-2.41,5.66-1.38s1,2.89-1.08,5A8.94,8.94,0,0,1,10,15.16Z"/></svg>