<svg id="Layer_1" data-name="Layer 1" xmlns="http://www.w3.org/2000/svg" viewBox="0 0 24 24"><title>iconoteka_vpn_r_f</title><path d="M12,8V2C10.36,2,9,4.47,8.34,8ZM9.54,2.32A10,10,0,0,0,2.84,8H7.33A12.36,12.36,0,0,1,9.54,2.32ZM8.18,9A24,24,0,0,0,8,12a24,24,0,0,0,.18,3h7.64A24,24,0,0,0,16,12H12V9ZM17,12a25,25,0,0,1-.18,3h4.72A9.91,9.91,0,0,0,22,12ZM8.34,16c.61,3.53,2,6,3.66,6s3.05-2.47,3.66-6Zm6.12,5.68A10,10,0,0,0,21.16,16H16.67A12.36,12.36,0,0,1,14.46,21.68ZM7,12a25,25,0,0,1,.18-3H2.46a10,10,0,0,0,0,6H7.18A25,25,0,0,1,7,12ZM2.84,16a10,10,0,0,0,6.7,5.68A12.36,12.36,0,0,1,7.33,16ZM21,5H19.75V3.75a1.75,1.75,0,0,0-3.5,0V5H15V9h6ZM18.85,5h-1.7V3.75a.85.85,0,0,1,1.7,0Z"/></svg>