<svg id="Layer_1" data-name="Layer 1" xmlns="http://www.w3.org/2000/svg" viewBox="0 0 24 24"><title>iconoteka_phone_settings_b_s</title><path d="M16.21,13.2,14,15.4A12.62,12.62,0,0,1,8.6,10l2.21-2.2-3-6-2.51.83a4.91,4.91,0,0,0-3.18,5.5A17.65,17.65,0,0,0,15.85,21.87a4.41,4.41,0,0,0,.89.09,4.94,4.94,0,0,0,4.61-3.27l.83-2.51Zm3.24,4.86a2.9,2.9,0,0,1-3.2,1.85A15.66,15.66,0,0,1,4.09,7.75a2.9,2.9,0,0,1,1.85-3.2l.87-.29L8.37,7.39,6.2,9.57l.28.63a14.66,14.66,0,0,0,7.32,7.32l.63.28,2.18-2.17,3.13,1.56ZM14.26,7.39a4.13,4.13,0,0,0,.67,1.15l1.4-.62.84.49.17,1.52a3.15,3.15,0,0,0,1.32,0l.17-1.52.84-.49,1.4.62a4.13,4.13,0,0,0,.67-1.15l-1.24-.9v-1l1.24-.9a4.13,4.13,0,0,0-.67-1.15l-1.4.62-.84-.49-.17-1.52a3.15,3.15,0,0,0-1.32,0l-.17,1.52-.84.49-1.4-.62a4.13,4.13,0,0,0-.67,1.15l1.24.9v1ZM18,5a1,1,0,1,1-1,1A1,1,0,0,1,18,5Z"/></svg>