<svg id="Layer_1" data-name="Layer 1" xmlns="http://www.w3.org/2000/svg" viewBox="0 0 24 24"><title>iconoteka_link__chain_m_a</title><path d="M20.49,3.51a5,5,0,0,0-7.08,0l-2.19,2.2A5.79,5.79,0,0,1,13.06,6l1.41-1.41a3.5,3.5,0,0,1,5,4.95l-4.24,4.24a3.51,3.51,0,0,1-4.95,0,3.32,3.32,0,0,1-.79-1.33L8.32,13.56a4,4,0,0,0,.85,1.27,5,5,0,0,0,7.07,0l4.25-4.24A5,5,0,0,0,20.49,3.51Zm-11,15.91a3.5,3.5,0,0,1-4.95-5l4.24-4.24a3.51,3.51,0,0,1,4.95,0,3.32,3.32,0,0,1,.79,1.33l1.12-1.12a4,4,0,0,0-.85-1.27,5,5,0,0,0-7.07,0L3.51,13.41a5,5,0,0,0,7.08,7.08l2.19-2.2A5.79,5.79,0,0,1,10.94,18Z"/></svg>