<svg id="Layer_1" data-name="Layer 1" xmlns="http://www.w3.org/2000/svg" viewBox="0 0 24 24"><title>iconoteka_phone__call_m_s</title><path d="M8,16A17,17,0,0,1,3.46,7.61a3,3,0,0,1,2-3.38l1.62-.52L8.93,7.18,7.27,8.85l-.77.77.49,1A14.65,14.65,0,0,0,13.41,17l1,.49.77-.77,1.67-1.66,3.47,1.81-.52,1.62a3,3,0,0,1-3.38,2A17,17,0,0,1,8,16M7,17a18.49,18.49,0,0,0,9.09,5A4.45,4.45,0,0,0,21.2,19l.9-2.82-5.57-2.91-2.44,2.44A13.08,13.08,0,0,1,8.33,9.91l2.44-2.44L7.86,1.9,5,2.8A4.45,4.45,0,0,0,2,7.93,18.49,18.49,0,0,0,7,17Z"/></svg>