<svg id="Layer_1" data-name="Layer 1" xmlns="http://www.w3.org/2000/svg" viewBox="0 0 24 24"><title>iconoteka_vpn_lock_b_s</title><path d="M19.93,11A6.63,6.63,0,0,1,20,12a8.24,8.24,0,0,1-.26,2H16.4c.05-.66.08-1.33.08-2,0-.34,0-.67,0-1h-2c0,.32,0,.66,0,1,0,.71,0,1.38-.09,2H9.61c-.06-.62-.09-1.29-.09-2s0-1.38.09-2H13V8H9.9c.53-2.61,1.51-4,2.1-4,.28,0,.64.32,1,.91V2.05c-.33,0-.66,0-1,0A10,10,0,1,0,22,12c0-.34,0-.67-.05-1ZM4.26,14a7.82,7.82,0,0,1,0-4H7.6c0,.66-.08,1.33-.08,2s0,1.34.08,2Zm.82,2H7.87a13.92,13.92,0,0,0,1,3.37A8.14,8.14,0,0,1,5.08,16ZM7.87,8H5.08a8.14,8.14,0,0,1,3.8-3.37A13.92,13.92,0,0,0,7.87,8ZM12,20c-.59,0-1.57-1.39-2.1-4h4.2C13.57,18.61,12.59,20,12,20Zm3.12-.63a13.49,13.49,0,0,0,1-3.37h2.79A8.14,8.14,0,0,1,15.12,19.37ZM21,4V3a2,2,0,0,0-4,0V4H16V8h6V4ZM19.8,4H18.2V3a.8.8,0,0,1,1.6,0Z"/></svg>