<svg id="Layer_1" data-name="Layer 1" xmlns="http://www.w3.org/2000/svg" viewBox="0 0 24 24"><title>iconoteka_vpn_lock_b_f</title><path d="M3.35,17a10.12,10.12,0,0,0,5,4.29A15,15,0,0,1,6.93,17Zm0-10H6.93A15,15,0,0,1,8.32,2.71,10.12,10.12,0,0,0,3.35,7ZM6.5,12a29.69,29.69,0,0,1,.15-3H2.46a10,10,0,0,0,0,6H6.65A29.69,29.69,0,0,1,6.5,12ZM13,2.42A1.55,1.55,0,0,0,12,2C10.71,2,9.58,4,9,7h4ZM13,11V9H8.66a28.21,28.21,0,0,0,0,6h6.68a28.61,28.61,0,0,0,.16-3c0-.34,0-.67,0-1Zm4.48,0c0,.33,0,.67,0,1a29.69,29.69,0,0,1-.15,3h4.19A10,10,0,0,0,22,12c0-.34,0-.67-.05-1ZM12,22c1.29,0,2.42-2,3-5H9C9.58,20,10.71,22,12,22Zm3.68-.71a10.12,10.12,0,0,0,5-4.29H17.07A15,15,0,0,1,15.68,21.29ZM21,4V3a2,2,0,0,0-4,0V4H16V8h6V4ZM19.8,4H18.2V3a.8.8,0,0,1,1.6,0Z"/></svg>