<svg id="Layer_1" data-name="Layer 1" xmlns="http://www.w3.org/2000/svg" viewBox="0 0 24 24"><title>iconoteka_phone_settings_b_f</title><path d="M16.93,14.71l-2.44,2.44a15.21,15.21,0,0,1-7.6-7.6L9.33,7.11,6.8,2l-1.88.63a4.33,4.33,0,0,0-2.8,4.84A18.58,18.58,0,0,0,16.53,21.92a4.33,4.33,0,0,0,4.84-2.8L22,17.24ZM14.26,7.39a4.13,4.13,0,0,0,.67,1.15l1.4-.62.84.49.17,1.52a3.15,3.15,0,0,0,1.32,0l.17-1.52.84-.49,1.4.62a4.13,4.13,0,0,0,.67-1.15l-1.24-.9v-1l1.24-.9a4.13,4.13,0,0,0-.67-1.15l-1.4.62-.84-.49-.17-1.52a3.15,3.15,0,0,0-1.32,0l-.17,1.52-.84.49-1.4-.62a4.13,4.13,0,0,0-.67,1.15l1.24.9v1ZM18,5a1,1,0,1,1-1,1A1,1,0,0,1,18,5Z"/></svg>