<svg id="Layer_1" data-name="Layer 1" xmlns="http://www.w3.org/2000/svg" viewBox="0 0 24 24"><title>iconoteka_link__chain_b_a</title><path d="M20.49,3.51a5,5,0,0,0-7.08,0l-2.19,2.2a6.92,6.92,0,0,1,2.42.41l1.19-1.19a3,3,0,0,1,4.24,4.24l-4.24,4.24a3,3,0,0,1-4.24,0,2.77,2.77,0,0,1-.58-.83L8.54,14.05a5.13,5.13,0,0,0,.63.78,5,5,0,0,0,7.07,0l4.25-4.24A5,5,0,0,0,20.49,3.51ZM9.17,19.07a3,3,0,0,1-4.24-4.24l4.24-4.24a3,3,0,0,1,4.24,0,2.77,2.77,0,0,1,.58.83L15.46,10a4.68,4.68,0,0,0-.63-.78,5,5,0,0,0-7.07,0L3.51,13.41a5,5,0,0,0,7.08,7.08l2.19-2.2a6.92,6.92,0,0,1-2.42-.41Z"/></svg>