<svg id="Layer_1" data-name="Layer 1" xmlns="http://www.w3.org/2000/svg" viewBox="0 0 24 24"><title>iconoteka_phone_missed_l_s</title><path d="M19.92,14.32a14.68,14.68,0,0,0-15.84,0,3.53,3.53,0,0,0-1.18,4.6l.78,1.52L8.36,19v-3.2a11.52,11.52,0,0,1,7.28,0V19l4.68,1.46.78-1.52A3.53,3.53,0,0,0,19.92,14.32Zm.73,4.37-.59,1.15-3.92-1.23V15.42l-.34-.11a12,12,0,0,0-7.6,0l-.34.11v3.19L3.94,19.84l-.59-1.15a3,3,0,0,1,1-4,14.18,14.18,0,0,1,15.3,0A3,3,0,0,1,20.65,18.69ZM5.5,2.85,12,9.35,18.25,3.1l-.35-.35L12,8.65,5.85,2.5H9.6V2H5V6.6h.5Z"/></svg>