<svg id="Layer_1" data-name="Layer 1" xmlns="http://www.w3.org/2000/svg" viewBox="0 0 24 24"><title>iconoteka_link__chain_r_a</title><path d="M20.49,3.51a5,5,0,0,0-7.08,0l-2.19,2.2a5.36,5.36,0,0,1,1.26.15l1.64-1.64a4,4,0,0,1,5.66,5.66l-4.24,4.24a4,4,0,0,1-5.66,0,3.8,3.8,0,0,1-1-1.82l-.76.76a4.26,4.26,0,0,0,1.06,1.77,5,5,0,0,0,7.07,0l4.25-4.24A5,5,0,0,0,20.49,3.51ZM9.88,19.78a4,4,0,0,1-5.66-5.66L8.46,9.88a4,4,0,0,1,5.66,0,3.8,3.8,0,0,1,1,1.82l.76-.76a4.26,4.26,0,0,0-1.06-1.77,5,5,0,0,0-7.07,0L3.51,13.41a5,5,0,0,0,7.08,7.08l2.19-2.2a5.36,5.36,0,0,1-1.26-.15Z"/></svg>