<svg id="Layer_1" data-name="Layer 1" xmlns="http://www.w3.org/2000/svg" viewBox="0 0 24 24"><title>iconoteka_phone_paused_l_s</title><path d="M16.53,13.94l-2.84,2.83a14.55,14.55,0,0,1-3.76-2.7,14.55,14.55,0,0,1-2.7-3.76l2.83-2.84L7.21,2l-2,.65a4.46,4.46,0,0,0-3,5.14A18.48,18.48,0,0,0,16.19,21.88a4.46,4.46,0,0,0,5.14-3.05l.65-2Zm4.32,4.74a4,4,0,0,1-4.55,2.71,17.82,17.82,0,0,1-8.84-4.85A17.82,17.82,0,0,1,2.61,7.7,4,4,0,0,1,5.32,3.15L7,2.62,9.45,7.38,6.62,10.21l.16.32a14.9,14.9,0,0,0,6.69,6.69l.32.16,2.83-2.83L21.38,17ZM19.5,3H19V9h.5ZM17,3h-.5V9H17Z"/></svg>