<svg id="Layer_1" data-name="Layer 1" xmlns="http://www.w3.org/2000/svg" viewBox="0 0 24 24"><title>iconoteka_rate_review_l_s</title><path d="M19,2H5A3,3,0,0,0,2,5V24l6-6H19a3,3,0,0,0,3-3V5A3,3,0,0,0,19,2Zm2.5,13A2.5,2.5,0,0,1,19,17.5H7.79L2.5,22.79V5A2.5,2.5,0,0,1,5,2.5H19A2.5,2.5,0,0,1,21.5,5ZM13,8.73l-1-3.2-1,3.2H7.6l2.72,2-1,3.19,2.72-2,2.72,2-1-3.19,2.72-2Zm.21,2.11.61,1.88-1.6-1.16-.26-.2-.26.2-1.6,1.16.61-1.88.1-.31-.26-.19L9,9.18h2.3l.1-.32L12,7l.61,1.87.1.32H15l-1.6,1.16-.26.19Z"/></svg>