<svg id="Layer_1" data-name="Layer 1" xmlns="http://www.w3.org/2000/svg" viewBox="0 0 24 24"><title>iconoteka_phone_locked_m_s</title><path d="M16.53,13.23l-2.44,2.44A13.08,13.08,0,0,1,8.33,9.91l2.44-2.44L7.86,1.9,5,2.8A4.45,4.45,0,0,0,2,7.93,18.54,18.54,0,0,0,16.07,22,4.45,4.45,0,0,0,21.2,19l.9-2.82Zm3.24,5.27a3,3,0,0,1-3.38,2A17,17,0,0,1,3.46,7.61a3,3,0,0,1,2-3.38l1.62-.52L8.93,7.18,7.27,8.85l-.77.77.49,1A14.65,14.65,0,0,0,13.41,17l1,.49.77-.77,1.67-1.66,3.47,1.81ZM21,5H20V4a2,2,0,0,0-4,0V5H15V9h6ZM17.1,4a.9.9,0,1,1,1.8,0V5H17.1Zm2.7,3.8H16.2V6.25h3.6Z"/></svg>