<svg id="Layer_1" data-name="Layer 1" xmlns="http://www.w3.org/2000/svg" viewBox="0 0 24 24"><title>iconoteka_planet__earth__internet__public_l_s</title><path d="M12,2A10,10,0,1,0,22,12,10,10,0,0,0,12,2Zm0,19.5c-1.67,0-3.14-2.29-3.83-5.5h7.66C15.14,19.21,13.67,21.5,12,21.5Zm-3.94-6a19.91,19.91,0,0,1,0-7h7.88a19.48,19.48,0,0,1,.31,3.5,19.48,19.48,0,0,1-.31,3.5ZM12,2.5c1.67,0,3.14,2.29,3.83,5.5H8.17C8.86,4.79,10.33,2.5,12,2.5Zm4.44,6h4.38a9.35,9.35,0,0,1,0,7H16.44a19.48,19.48,0,0,0,.31-3.5A19.48,19.48,0,0,0,16.44,8.5ZM20.6,8H16.35a9.32,9.32,0,0,0-2.67-5.34A9.5,9.5,0,0,1,20.6,8ZM10.32,2.66A9.32,9.32,0,0,0,7.65,8H3.4A9.5,9.5,0,0,1,10.32,2.66ZM3.18,8.5H7.56a19.91,19.91,0,0,0,0,7H3.18a9.35,9.35,0,0,1,0-7ZM3.4,16H7.65a9.32,9.32,0,0,0,2.67,5.34A9.5,9.5,0,0,1,3.4,16Zm10.28,5.34A9.32,9.32,0,0,0,16.35,16H20.6A9.5,9.5,0,0,1,13.68,21.34Z"/></svg>