<svg id="Layer_1" data-name="Layer 1" xmlns="http://www.w3.org/2000/svg" viewBox="0 0 24 24"><title>iconoteka_planet__earth__internet__public__r_s</title><path d="M12,2A10,10,0,1,0,22,12,10,10,0,0,0,12,2Zm8.05,6h-3.7a11,11,0,0,0-2-4.68A9,9,0,0,1,20.05,8Zm-4.3,4a18.75,18.75,0,0,1-.23,3h-7a18.75,18.75,0,0,1-.23-3,18.75,18.75,0,0,1,.23-3h7A18.75,18.75,0,0,1,15.75,12ZM12,21c-1.28,0-2.66-1.93-3.33-5h6.66C14.66,19.07,13.28,21,12,21ZM8.67,8C9.34,4.93,10.72,3,12,3s2.66,1.93,3.33,5Zm1-4.68A11,11,0,0,0,7.65,8H4A9,9,0,0,1,9.64,3.32ZM3.53,9H7.47a20.56,20.56,0,0,0,0,6H3.53a8.76,8.76,0,0,1,0-6ZM4,16h3.7a11,11,0,0,0,2,4.68A9,9,0,0,1,4,16Zm10.41,4.68a11,11,0,0,0,2-4.68h3.7A9,9,0,0,1,14.36,20.68ZM20.47,15H16.53a20.54,20.54,0,0,0,.22-3,20.54,20.54,0,0,0-.22-3h3.94a8.76,8.76,0,0,1,0,6Z"/></svg>