<svg id="Layer_1" data-name="Layer 1" xmlns="http://www.w3.org/2000/svg" viewBox="0 0 24 24"><title>iconoteka_internet_b_f</title><path d="M12,22c1.29,0,2.42-2,3-5H9C9.58,20,10.71,22,12,22ZM8.66,9a28.21,28.21,0,0,0,0,6h6.68a28.61,28.61,0,0,0,.16-3,28.61,28.61,0,0,0-.16-3ZM21.54,9H17.35a29.69,29.69,0,0,1,.15,3,29.69,29.69,0,0,1-.15,3h4.19a10,10,0,0,0,0-6Zm-.89-2a10.12,10.12,0,0,0-5-4.29A15,15,0,0,1,17.07,7ZM3.35,17a10.12,10.12,0,0,0,5,4.29A15,15,0,0,1,6.93,17Zm12.33,4.29a10.12,10.12,0,0,0,5-4.29H17.07A15,15,0,0,1,15.68,21.29ZM6.5,12a29.69,29.69,0,0,1,.15-3H2.46a10,10,0,0,0,0,6H6.65A29.69,29.69,0,0,1,6.5,12ZM12,2C10.71,2,9.58,4,9,7H15C14.42,4,13.29,2,12,2ZM3.35,7H6.93A15,15,0,0,1,8.32,2.71,10.12,10.12,0,0,0,3.35,7Z"/></svg>