<svg id="Layer_1" data-name="Layer 1" xmlns="http://www.w3.org/2000/svg" viewBox="0 0 24 24"><title>iconoteka_phone_settings_m_s</title><path d="M16.53,13.23l-2.44,2.44A13.08,13.08,0,0,1,8.33,9.91l2.44-2.44L7.86,1.9,5,2.8A4.45,4.45,0,0,0,2,7.93,18.54,18.54,0,0,0,16.07,22,4.45,4.45,0,0,0,21.2,19l.9-2.82Zm3.24,5.27a3,3,0,0,1-3.38,2A17,17,0,0,1,3.46,7.61a3,3,0,0,1,2-3.38l1.62-.52L8.93,7.18,7.27,8.85l-.77.77.49,1A14.65,14.65,0,0,0,13.41,17l1,.49.77-.77,1.67-1.66,3.47,1.81ZM14.28,7.44a4,4,0,0,0,.26.56,3.52,3.52,0,0,0,.36.5l1.29-.65,1.11.64.09,1.45A4.07,4.07,0,0,0,18,10a4.07,4.07,0,0,0,.61-.06l.09-1.45,1.11-.64,1.29.65a3.52,3.52,0,0,0,.36-.5,4,4,0,0,0,.26-.56l-1.22-.8V5.36l1.22-.8A4,4,0,0,0,21.46,4a3.52,3.52,0,0,0-.36-.5l-1.29.65L18.7,3.51l-.09-1.45A4.07,4.07,0,0,0,18,2a4.07,4.07,0,0,0-.61.06L17.3,3.51l-1.11.64L14.9,3.5a3.52,3.52,0,0,0-.36.5,4,4,0,0,0-.26.56l1.22.8V6.64ZM18,4.79A1.21,1.21,0,1,1,16.79,6,1.21,1.21,0,0,1,18,4.79Z"/></svg>