<svg id="Layer_1" data-name="Layer 1" xmlns="http://www.w3.org/2000/svg" viewBox="0 0 24 24"><title>iconoteka_phone_missed_r_s</title><path d="M19.91,14.31a14.7,14.7,0,0,0-15.82,0,3.54,3.54,0,0,0-1.18,4.6l.93,1.8,4.72-1.47V16.41a10.85,10.85,0,0,1,6.88,0v2.83l4.72,1.47.93-1.8A3.54,3.54,0,0,0,19.91,14.31Zm.35,4.18-.57,1.1-3.32-1V15.73l-.64-.21a11.89,11.89,0,0,0-7.46,0l-.64.21v2.82l-3.32,1-.57-1.1a2.63,2.63,0,0,1,.85-3.39,13.79,13.79,0,0,1,14.82,0A2.63,2.63,0,0,1,20.26,18.49ZM6,3.71l6,6,6.43-6.43-.71-.71L12,8.29,6.71,3h3.41V2H5V7.12H6Z"/></svg>