<svg id="Layer_1" data-name="Layer 1" xmlns="http://www.w3.org/2000/svg" viewBox="0 0 24 24"><title>iconoteka_vpn_m_s</title><path d="M20.5,12a8.27,8.27,0,0,1-.38,2.5H16.59a20.07,20.07,0,0,0,.16-2.5H15.2a22.16,22.16,0,0,1-.14,2.5H8.94a22.39,22.39,0,0,1,0-5H12V8H9.18c.54-2.68,1.6-4.5,2.82-4.5V2A10,10,0,1,0,22,12ZM9.33,3.94A11.11,11.11,0,0,0,7.67,8H4.5A8.52,8.52,0,0,1,9.33,3.94ZM3.5,12a8.27,8.27,0,0,1,.38-2.5H7.41a19.61,19.61,0,0,0,0,5H3.88A8.27,8.27,0,0,1,3.5,12Zm1,4H7.67a11.11,11.11,0,0,0,1.66,4.06A8.52,8.52,0,0,1,4.5,16ZM12,20.5c-1.22,0-2.28-1.82-2.82-4.5h5.64C14.28,18.68,13.22,20.5,12,20.5Zm2.67-.44A11.11,11.11,0,0,0,16.33,16H19.5A8.52,8.52,0,0,1,14.67,20.06ZM21,5H20V4.1a2,2,0,1,0-4,0V5H15V9h6Zm-3.8-.9a.81.81,0,1,1,1.6,0V5H17.2Zm2.6,3.7H16.2V6.2h3.6Z"/></svg>