<svg id="Layer_1" data-name="Layer 1" xmlns="http://www.w3.org/2000/svg" viewBox="0 0 24 24"><title>iconoteka_phone_settings_l_s</title><path d="M16.53,13.94l-2.84,2.83a14.55,14.55,0,0,1-3.76-2.7,14.55,14.55,0,0,1-2.7-3.76l2.83-2.84L7.21,2l-2,.65a4.46,4.46,0,0,0-3,5.14A18.48,18.48,0,0,0,16.19,21.88a4.46,4.46,0,0,0,5.14-3.05l.65-2Zm4.32,4.74a4,4,0,0,1-4.55,2.71,17.82,17.82,0,0,1-8.84-4.85A17.82,17.82,0,0,1,2.61,7.7,4,4,0,0,1,5.32,3.15L7,2.62,9.45,7.38,6.62,10.21l.16.32a14.9,14.9,0,0,0,6.69,6.69l.32.16,2.83-2.83L21.38,17ZM14.19,7.19a3.81,3.81,0,0,0,.87,1.51l1.28-.59.66.38.13,1.41a3.83,3.83,0,0,0,1.74,0L19,8.49l.66-.38,1.28.59a3.81,3.81,0,0,0,.87-1.51l-1.15-.81V5.62l1.15-.81a3.81,3.81,0,0,0-.87-1.51l-1.28.59L19,3.51,18.87,2.1a3.83,3.83,0,0,0-1.74,0L17,3.51l-.66.38L15.06,3.3a3.81,3.81,0,0,0-.87,1.51l1.15.81v.76ZM15.6,5.25l-.87-.62a3.11,3.11,0,0,1,.2-.41,2.68,2.68,0,0,1,.25-.37l1,.45.21.09.2-.11.67-.38.2-.12,0-.23.1-1.07a3.39,3.39,0,0,1,.9,0l.1,1.07,0,.23.2.12.67.38.2.11.21-.09,1-.45a2.26,2.26,0,0,1,.25.38,2.49,2.49,0,0,1,.2.4l-.87.62-.19.13V6.62l.19.13.87.62a3.11,3.11,0,0,1-.2.41,2.68,2.68,0,0,1-.25.37l-1-.45-.21-.09-.2.11-.67.38-.2.12,0,.23-.1,1.07-.45,0-.45,0-.1-1.07,0-.23-.2-.12-.67-.38-.2-.11-.21.09-1,.45a2.26,2.26,0,0,1-.25-.38,2.49,2.49,0,0,1-.2-.4l.87-.62.19-.13V5.38ZM18,7.18A1.18,1.18,0,1,0,16.82,6,1.18,1.18,0,0,0,18,7.18Zm0-1.91a.73.73,0,1,1-.73.73A.73.73,0,0,1,18,5.27Z"/></svg>