<svg id="Layer_1" data-name="Layer 1" xmlns="http://www.w3.org/2000/svg" viewBox="0 0 24 24"><title>iconoteka_phone_message_b_s</title><path d="M16.21,13.2,14,15.4A12.62,12.62,0,0,1,8.6,10l2.21-2.2-3-6-2.51.83a4.91,4.91,0,0,0-3.18,5.5A17.65,17.65,0,0,0,15.85,21.87a4.41,4.41,0,0,0,.89.09,4.94,4.94,0,0,0,4.61-3.27l.83-2.51Zm3.24,4.86a2.9,2.9,0,0,1-3.2,1.85A15.66,15.66,0,0,1,4.09,7.75a2.9,2.9,0,0,1,1.85-3.2l.87-.29L8.37,7.39,6.2,9.57l.28.63a14.66,14.66,0,0,0,7.32,7.32l.63.28,2.18-2.17,3.13,1.56ZM22,6.5v-3A1.5,1.5,0,0,0,20.5,2h-5A1.5,1.5,0,0,0,14,3.5v7.31L16.81,8H20.5A1.5,1.5,0,0,0,22,6.5ZM16,4h4V6H16Z"/></svg>