<svg id="Layer_1" data-name="Layer 1" xmlns="http://www.w3.org/2000/svg" viewBox="0 0 24 24"><title>iconoteka_voice_message_l_s</title><path d="M19,2H5A3,3,0,0,0,2,5V24l6-6H19a3,3,0,0,0,3-3V5A3,3,0,0,0,19,2Zm2.5,13A2.5,2.5,0,0,1,19,17.5H7.79L2.5,22.79V5A2.5,2.5,0,0,1,5,2.5H19A2.5,2.5,0,0,1,21.5,5ZM12,11.74A2.56,2.56,0,0,1,9.44,9.18h-.5a3,3,0,0,0,2.81,3V14h.5V12.21a3,3,0,0,0,2.81-3h-.5A2.56,2.56,0,0,1,12,11.74Zm0-1.14a1.42,1.42,0,0,0,1.42-1.42V6.94a1.42,1.42,0,1,0-2.84,0V9.18A1.42,1.42,0,0,0,12,10.6Zm-.92-3.66a.92.92,0,1,1,1.84,0V9.18a.92.92,0,0,1-1.84,0Z"/></svg>