<svg id="Layer_1" data-name="Layer 1" xmlns="http://www.w3.org/2000/svg" viewBox="0 0 24 24"><title>iconoteka_chat__question_answer_l_s</title><path d="M16,6.5v-3A2.5,2.5,0,0,0,13.5,1h-9A2.5,2.5,0,0,0,2,3.5v9.56L6.06,9H13.5A2.5,2.5,0,0,0,16,6.5ZM5.85,8.5l-.15.15-3.2,3.2V3.5a2,2,0,0,1,2-2h9a2,2,0,0,1,2,2v3a2,2,0,0,1-2,2ZM19.5,11h-9A2.5,2.5,0,0,0,8,13.5v3A2.5,2.5,0,0,0,10.5,19h7.44L22,23.06V13.5A2.5,2.5,0,0,0,19.5,11Zm2,10.85-3.2-3.2-.15-.15H10.5a2,2,0,0,1-2-2v-3a2,2,0,0,1,2-2h9a2,2,0,0,1,2,2Z"/></svg>