<svg id="Layer_1" data-name="Layer 1" xmlns="http://www.w3.org/2000/svg" viewBox="0 0 24 24"><title>iconoteka_cake__birthday_r_f</title><path d="M18,9H12.9V6H11.1V9H6a4,4,0,0,0-4,4v1.33h.45a3.89,3.89,0,0,0,2.12-.67,4.65,4.65,0,0,1,5.31,0,3.7,3.7,0,0,0,4.24,0,4.65,4.65,0,0,1,5.31,0,3.89,3.89,0,0,0,2.12.67H22V13A4,4,0,0,0,18,9ZM12,4.59a1.23,1.23,0,0,0,1.24-1.24A8,8,0,0,0,12,.48a8,8,0,0,0-1.24,2.87A1.23,1.23,0,0,0,12,4.59Zm6.89,9.91a3.65,3.65,0,0,0-4.23,0,4.67,4.67,0,0,1-5.32,0,3.65,3.65,0,0,0-4.23,0,4.89,4.89,0,0,1-2.66.83H2V22H22V15.33h-.45A4.89,4.89,0,0,1,18.89,14.5Z"/></svg>