<svg id="Layer_1" data-name="Layer 1" xmlns="http://www.w3.org/2000/svg" viewBox="0 0 24 24"><title>iconoteka_hourglass_start_m_s</title><path d="M19,5.64V2H5V5.64a4.62,4.62,0,0,0,1.19,3.1l3,3.26-3,3.26A4.62,4.62,0,0,0,5,18.36V22H19V18.36a4.62,4.62,0,0,0-1.19-3.1l-3-3.26,3-3.26A4.62,4.62,0,0,0,19,5.64ZM6.5,3.5h11V5.64c0,.12,0,.24,0,.36H6.53c0-.12,0-.24,0-.36ZM16.67,16.23a3.16,3.16,0,0,1,.83,2.13V20.5H6.5V18.36a3.16,3.16,0,0,1,.83-2.13l3-3.26.19-.22h2.9l.19.22Zm-3-5.2-.19.22h-2.9L10.36,11l-3-3.26a2.34,2.34,0,0,1-.2-.27h9.74a2.34,2.34,0,0,1-.2.27Z"/></svg>