<svg id="Layer_1" data-name="Layer 1" xmlns="http://www.w3.org/2000/svg" viewBox="0 0 24 24"><title>iconoteka_cake__birthday_l_s</title><path d="M18,9H13V5.56H11V9H6a4,4,0,0,0-4,4v9H22V13A4,4,0,0,0,18,9ZM11.49,6.06h1V9h-1Zm10,15.43h-19V14.75h.15A4.44,4.44,0,0,0,5.13,14a3.75,3.75,0,0,1,4.4,0,4.23,4.23,0,0,0,4.94,0,3.75,3.75,0,0,1,4.4,0,4.44,4.44,0,0,0,2.47.8h.17Zm0-7.24h-.17a4,4,0,0,1-2.19-.71,4.25,4.25,0,0,0-4.95,0,3.79,3.79,0,0,1-4.4,0,4.25,4.25,0,0,0-5,0,4,4,0,0,1-2.19.71H2.51V13A3.5,3.5,0,0,1,6,9.49H18a3.5,3.5,0,0,1,3.5,3.5ZM12,4.59a1.38,1.38,0,0,0,1.39-1.38C13.39,2.1,12,0,12,0s-1.39,2.1-1.39,3.21A1.38,1.38,0,0,0,12,4.59ZM12,1a6.12,6.12,0,0,1,.89,2.25.89.89,0,0,1-1.78,0A6.12,6.12,0,0,1,12,1Z"/></svg>