<svg id="Layer_1" data-name="Layer 1" xmlns="http://www.w3.org/2000/svg" viewBox="0 0 24 24"><title>iconoteka_cake__birthday_r_s</title><path d="M18,9H13.35V5.56H10.68V9H6a4,4,0,0,0-4,4v9H22V13A4,4,0,0,0,18,9ZM11.53,6.41h1V9h-1ZM21,21H3V15.5h.23a4.22,4.22,0,0,0,2.48-.85,3.05,3.05,0,0,1,3.81,0,4.05,4.05,0,0,0,5,0,3.05,3.05,0,0,1,3.81,0,4.22,4.22,0,0,0,2.48.85H21Zm0-6.5h-.23a3.32,3.32,0,0,1-1.91-.66,4.05,4.05,0,0,0-5,0,3,3,0,0,1-3.8,0,4.05,4.05,0,0,0-5,0,3.32,3.32,0,0,1-1.91.66H3V13a3,3,0,0,1,3-3H18a3,3,0,0,1,3,3ZM12,4.59a1.38,1.38,0,0,0,1.39-1.38C13.39,2.1,12,0,12,0s-1.39,2.1-1.39,3.21A1.38,1.38,0,0,0,12,4.59ZM12,1.7a4.32,4.32,0,0,1,.54,1.51.54.54,0,0,1-1.08,0A4.32,4.32,0,0,1,12,1.7Z"/></svg>