<svg id="Layer_1" data-name="Layer 1" xmlns="http://www.w3.org/2000/svg" viewBox="0 0 24 24"><title>iconoteka_cake__birthday_b_f</title><path d="M12,4.19a1.55,1.55,0,0,0,1.55-1.55C13.55,1.4,12,0,12,0s-1.55,1.4-1.55,2.64A1.55,1.55,0,0,0,12,4.19ZM18,8H13V5H11V8H6a4,4,0,0,0-4,4v2h.22A2.81,2.81,0,0,0,4,13.23a4.5,4.5,0,0,1,6.17,0,2.47,2.47,0,0,0,3.6,0,4.5,4.5,0,0,1,6.17,0,2.81,2.81,0,0,0,1.81.77H22V12A4,4,0,0,0,18,8Zm.69,6.77a2.48,2.48,0,0,0-3.61,0,4.5,4.5,0,0,1-6.17,0,2.47,2.47,0,0,0-3.6,0A4.83,4.83,0,0,1,2.22,16H2v5H22V16h-.22A4.83,4.83,0,0,1,18.69,14.77Z"/></svg>