<svg id="Layer_1" data-name="Layer 1" xmlns="http://www.w3.org/2000/svg" viewBox="0 0 24 24"><title>iconoteka_cake__birthday_l_f</title><path d="M12,4.59a1.23,1.23,0,0,0,1.24-1.24A8,8,0,0,0,12,.48a8,8,0,0,0-1.24,2.87A1.23,1.23,0,0,0,12,4.59ZM18,9H12.9V6H11.1V9H6a4,4,0,0,0-4,4v1.26h.5a4.13,4.13,0,0,0,2.24-.71,4.36,4.36,0,0,1,5,0,3.91,3.91,0,0,0,4.48,0,4.38,4.38,0,0,1,5,0,4.11,4.11,0,0,0,2.24.71H22V13A4,4,0,0,0,18,9Zm1,5a3.86,3.86,0,0,0-4.48,0,4.41,4.41,0,0,1-5,0A3.86,3.86,0,0,0,5,14a4.63,4.63,0,0,1-2.51.79H2V22H22V14.75h-.49A4.63,4.63,0,0,1,19,14Z"/></svg>