<svg id="Layer_1" data-name="Layer 1" xmlns="http://www.w3.org/2000/svg" viewBox="0 0 24 24"><title>iconoteka_hourglass_start_r_s</title><path d="M19,5.32V2H5V5.32a4.32,4.32,0,0,0,1.23,3L9.94,12,6.23,15.66a4.32,4.32,0,0,0-1.23,3V22H19V18.68a4.32,4.32,0,0,0-1.23-3L14.06,12l3.71-3.66A4.32,4.32,0,0,0,19,5.32ZM6,3H18V5H6ZM17,16.33a3.33,3.33,0,0,1,1,2.35V21H6V18.68a3.33,3.33,0,0,1,1-2.35l3.71-3.66.15-.17h2.34l.15.17Zm-3.71-5-.15.17H10.83l-.15-.17L7,7.67A3.38,3.38,0,0,1,6.07,6H17.93A3.38,3.38,0,0,1,17,7.67Z"/></svg>