<svg id="Layer_1" data-name="Layer 1" xmlns="http://www.w3.org/2000/svg" viewBox="0 0 24 24"><title>iconoteka_hourglass_start_l_s</title><path d="M19,5V2H5V5A4,4,0,0,0,6.28,7.94L10.65,12,6.28,16.06A4,4,0,0,0,5,19v3H19V19a4,4,0,0,0-1.28-2.93L13.35,12l4.37-4.06A4,4,0,0,0,19,5ZM18.5,2.5V5H5.5V2.5ZM17.38,16.43A3.5,3.5,0,0,1,18.5,19V21.5H5.5V19a3.5,3.5,0,0,1,1.12-2.56L11,12.37l.13-.12h1.76l.13.12ZM13,11.63l-.13.12H11.12L11,11.63,6.62,7.57A3.53,3.53,0,0,1,5.55,5.5h12.9a3.53,3.53,0,0,1-1.07,2.07Z"/></svg>