<svg id="Layer_1" data-name="Layer 1" xmlns="http://www.w3.org/2000/svg" viewBox="0 0 24 24"><title>iconoteka_cake__birthday_m_f</title><path d="M12,4.59a1.23,1.23,0,0,0,1.24-1.24A8,8,0,0,0,12,.48a8,8,0,0,0-1.24,2.87A1.23,1.23,0,0,0,12,4.59ZM18,9H12.9V6H11.1V9H6a4,4,0,0,0-4,4v1.42h.4a3.63,3.63,0,0,0,2-.64,5,5,0,0,1,5.61,0,3.39,3.39,0,0,0,4,0,5,5,0,0,1,5.61,0,3.63,3.63,0,0,0,2,.64H22V13A4,4,0,0,0,18,9Zm.79,6a3.44,3.44,0,0,0-4,0,4.94,4.94,0,0,1-5.6,0,3.44,3.44,0,0,0-4,0,5.16,5.16,0,0,1-2.81.88H2V22H22V15.92h-.4A5.16,5.16,0,0,1,18.79,15Z"/></svg>