<svg id="Layer_1" data-name="Layer 1" xmlns="http://www.w3.org/2000/svg" viewBox="0 0 24 24"><title>iconoteka_cake__birthday_b_f</title><path d="M12,4.59a1.38,1.38,0,0,0,1.39-1.38C13.39,2.1,12,0,12,0s-1.39,2.1-1.39,3.21A1.38,1.38,0,0,0,12,4.59Zm6.69,11a3.18,3.18,0,0,0-3.74,0,5.25,5.25,0,0,1-5.9,0,3.18,3.18,0,0,0-3.74,0,5.48,5.48,0,0,1-2.95.91H2V22H22V16.5h-.36A5.48,5.48,0,0,1,18.69,15.59ZM18,9H13V6H11V9H6a4,4,0,0,0-4,4v1.5h.36a3.44,3.44,0,0,0,1.87-.6,5.25,5.25,0,0,1,5.9,0,3.18,3.18,0,0,0,3.74,0,5.25,5.25,0,0,1,5.9,0,3.44,3.44,0,0,0,1.87.6H22V13A4,4,0,0,0,18,9Z"/></svg>