<svg id="Layer_1" data-name="Layer 1" xmlns="http://www.w3.org/2000/svg" viewBox="0 0 24 24"><title>iconoteka_cake__birthday_m_s</title><path d="M12,4.59a1,1,0,0,0,1.05-1A10.25,10.25,0,0,0,12,.69,10.25,10.25,0,0,0,11,3.54,1,1,0,0,0,12,4.59ZM18,9H12.75V6h-1.5V9H6a4,4,0,0,0-4,4v9H22V13A4,4,0,0,0,18,9Zm2.5,11.5H3.5V16.25h.31a4.08,4.08,0,0,0,2.5-.91,2.4,2.4,0,0,1,3.19,0,3.9,3.9,0,0,0,5,0,2.4,2.4,0,0,1,3.19,0,4.08,4.08,0,0,0,2.5.91h.31Zm0-5.75h-.31a2.66,2.66,0,0,1-1.6-.6,3.9,3.9,0,0,0-5,0,2.4,2.4,0,0,1-3.19,0,3.91,3.91,0,0,0-5,0,2.66,2.66,0,0,1-1.6.6H3.5V13A2.5,2.5,0,0,1,6,10.5H18A2.5,2.5,0,0,1,20.5,13Z"/></svg>