<svg id="Layer_1" data-name="Layer 1" xmlns="http://www.w3.org/2000/svg" viewBox="0 0 24 24"><title>iconoteka_paw__pets__animals__pet_r_s</title><path d="M14.83,8.22a2.22,2.22,0,0,0,.51.06A2.94,2.94,0,0,0,18,5.87,2.85,2.85,0,0,0,16.2,2.34a2.22,2.22,0,0,0-.51-.06A3,3,0,0,0,13,4.69,2.83,2.83,0,0,0,14.83,8.22ZM14,4.92a2,2,0,0,1,1.72-1.64.86.86,0,0,1,.28,0,1.83,1.83,0,0,1,1.09,2.32,2,2,0,0,1-1.72,1.64,1.27,1.27,0,0,1-.28,0A1.84,1.84,0,0,1,14,4.92ZM8.66,8.28a2.22,2.22,0,0,0,.51-.06A2.83,2.83,0,0,0,11,4.69a3,3,0,0,0-2.7-2.41,2.22,2.22,0,0,0-.51.06A2.85,2.85,0,0,0,6,5.87,2.94,2.94,0,0,0,8.66,8.28ZM8,3.32a.86.86,0,0,1,.28,0A2,2,0,0,1,10,4.92,1.84,1.84,0,0,1,8.94,7.25a1.27,1.27,0,0,1-.28,0A2,2,0,0,1,6.94,5.64,1.83,1.83,0,0,1,8,3.32ZM21.51,8.08a2.34,2.34,0,0,0-.86-.16,3.06,3.06,0,0,0-2.71,2,2.86,2.86,0,0,0,1.28,3.81,2.16,2.16,0,0,0,.86.17,3.06,3.06,0,0,0,2.72-2A2.88,2.88,0,0,0,21.51,8.08Zm.36,3.45a2.09,2.09,0,0,1-1.79,1.39,1.28,1.28,0,0,1-.48-.09,1.88,1.88,0,0,1-.73-2.52,2.08,2.08,0,0,1,1.78-1.39,1.33,1.33,0,0,1,.49.09,1.47,1.47,0,0,1,.81.92A2.34,2.34,0,0,1,21.87,11.53ZM6.06,9.94a3.06,3.06,0,0,0-2.71-2,2.34,2.34,0,0,0-.86.16A2.88,2.88,0,0,0,1.2,11.9a3.06,3.06,0,0,0,2.72,2,2.16,2.16,0,0,0,.86-.17A2.86,2.86,0,0,0,6.06,9.94ZM4.4,12.83a1.28,1.28,0,0,1-.48.09,2.09,2.09,0,0,1-1.79-1.39,2.34,2.34,0,0,1-.08-1.6A1.47,1.47,0,0,1,2.86,9a1.33,1.33,0,0,1,.49-.09,2.08,2.08,0,0,1,1.78,1.39A1.88,1.88,0,0,1,4.4,12.83Zm12.49,1a5.64,5.64,0,0,0-9.78,0l-1.48,2.6a3.6,3.6,0,0,0,5,4.89,2.64,2.64,0,0,1,2.76,0,3.72,3.72,0,0,0,1.87.53,3.63,3.63,0,0,0,3.12-5.42Zm.63,5.67a2.7,2.7,0,0,1-2.27,1.35,2.57,2.57,0,0,1-1.35-.39,3.67,3.67,0,0,0-3.8,0,2.57,2.57,0,0,1-1.35.39A2.7,2.7,0,0,1,6.48,19.5a2.5,2.5,0,0,1,0-2.57L8,14.33a4.63,4.63,0,0,1,8,0l1.48,2.6A2.5,2.5,0,0,1,17.52,19.5Z"/></svg>