<svg id="Layer_1" data-name="Layer 1" xmlns="http://www.w3.org/2000/svg" viewBox="0 0 24 24"><defs><style>.cls-1{fill:none;}</style></defs><title>iconoteka_bug_b_s</title><path d="M18,14h4V12H18V10a3,3,0,0,0,3-3V5H19V7a1,1,0,0,1-1,1H16V7A4,4,0,0,0,8,7V8H6A1,1,0,0,1,5,7V5H3V7a3,3,0,0,0,3,3v2H2v2H6v1a6.64,6.64,0,0,0,.09,1H6a3,3,0,0,0-3,3v2H5V19a1,1,0,0,1,1-1h.81a6,6,0,0,0,10.38,0H18a1,1,0,0,1,1,1v2h2V19a3,3,0,0,0-3-3h-.09A6.64,6.64,0,0,0,18,15ZM10,7a2,2,0,0,1,4,0V8H10ZM8,15V10h3v8.86A4,4,0,0,1,8,15Zm8,0a4,4,0,0,1-3,3.86V10h3Z"/><rect class="cls-1" width="24" height="24"/></svg>