<svg id="Layer_1" data-name="Layer 1" xmlns="http://www.w3.org/2000/svg" viewBox="0 0 24 24"><defs><style>.cls-1{fill:none;}</style></defs><title>iconoteka_fire__hot_b_s</title><rect class="cls-1" width="24" height="24"/><path d="M12.43,2.1,11,1.41V3A13.53,13.53,0,0,1,9.58,9.79,12.27,12.27,0,0,1,8.93,7L8.74,4.76,7.21,6.38a10.74,10.74,0,0,0-3.2,7v.32a8,8,0,0,0,16,0C20,8.4,17.45,4.5,12.43,2.1ZM12,19.66a6,6,0,0,1-6-5.81v-.16A7.92,7.92,0,0,1,7.36,9.4,17,17,0,0,0,8.5,12.34l.72,1.38,1-1.23A13.12,13.12,0,0,0,13,4.65a9.87,9.87,0,0,1,5.05,9A6,6,0,0,1,12,19.66Z"/></svg>