<svg id="Layer_1" data-name="Layer 1" xmlns="http://www.w3.org/2000/svg" viewBox="0 0 24 24"><title>iconoteka_paw__pets__animals__pet_m_s</title><path d="M14.77,8.47a2.08,2.08,0,0,0,.55.07,3.2,3.2,0,0,0,2.93-2.62,3.07,3.07,0,0,0-2-3.83A2.64,2.64,0,0,0,15.71,2a3.19,3.19,0,0,0-2.93,2.61A3.07,3.07,0,0,0,14.77,8.47ZM14.24,5a1.72,1.72,0,0,1,1.47-1.46l.21,0a1.14,1.14,0,0,1,.72.62,2.1,2.1,0,0,1,.15,1.41A1.74,1.74,0,0,1,15.32,7a.76.76,0,0,1-.21,0,1.15,1.15,0,0,1-.73-.61A2.1,2.1,0,0,1,14.24,5ZM8.68,8.54a2.08,2.08,0,0,0,.55-.07,3.07,3.07,0,0,0,2-3.83A3.19,3.19,0,0,0,8.29,2a2.64,2.64,0,0,0-.55.06,3.07,3.07,0,0,0-2,3.83A3.2,3.2,0,0,0,8.68,8.54ZM7.36,4.17a1.14,1.14,0,0,1,.72-.62l.22,0A1.72,1.72,0,0,1,9.76,5,2.1,2.1,0,0,1,9.62,6.4,1.15,1.15,0,0,1,8.89,7a.76.76,0,0,1-.21,0A1.74,1.74,0,0,1,7.21,5.58,2.1,2.1,0,0,1,7.36,4.17ZM21.6,7.88a2.47,2.47,0,0,0-.92-.18,3.3,3.3,0,0,0-2.92,2.17A3.08,3.08,0,0,0,19.14,14a2.46,2.46,0,0,0,.92.17A3.27,3.27,0,0,0,23,12,3.07,3.07,0,0,0,21.6,7.88Zm0,3.53a1.81,1.81,0,0,1-1.52,1.22,1.09,1.09,0,0,1-.36-.06,1.62,1.62,0,0,1-.55-2.14A1.83,1.83,0,0,1,20.68,9.2a1,1,0,0,1,.35.07,1.17,1.17,0,0,1,.63.72A2.12,2.12,0,0,1,21.58,11.41ZM6.24,9.87A3.3,3.3,0,0,0,3.32,7.7a2.47,2.47,0,0,0-.92.18A3.07,3.07,0,0,0,1,12a3.27,3.27,0,0,0,2.91,2.16A2.46,2.46,0,0,0,4.86,14,3.08,3.08,0,0,0,6.24,9.87ZM4.3,12.57a1.09,1.09,0,0,1-.36.06,1.81,1.81,0,0,1-1.52-1.22A2.12,2.12,0,0,1,2.34,10,1.17,1.17,0,0,1,3,9.27a1,1,0,0,1,.35-.07,1.83,1.83,0,0,1,1.53,1.23A1.62,1.62,0,0,1,4.3,12.57Zm12.59,1.26a5.64,5.64,0,0,0-9.78,0l-1.48,2.6a3.6,3.6,0,0,0,5,4.89,2.64,2.64,0,0,1,2.76,0,3.72,3.72,0,0,0,1.87.53,3.63,3.63,0,0,0,3.12-5.42Zm.19,5.41a2.06,2.06,0,0,1-2.93.79,4.15,4.15,0,0,0-4.3,0,2.18,2.18,0,0,1-1.1.32,2.17,2.17,0,0,1-1.83-1.11,2,2,0,0,1,0-2.06l1.48-2.6a4.12,4.12,0,0,1,7.16,0l1.48,2.6A2,2,0,0,1,17.08,19.24Z"/></svg>