<svg id="Layer_1" data-name="Layer 1" xmlns="http://www.w3.org/2000/svg" viewBox="0 0 24 24"><title>iconoteka_paw__pets__animals__pet_b_s</title><path d="M14.77,8.47a2.08,2.08,0,0,0,.55.07,3.2,3.2,0,0,0,2.93-2.62,3.07,3.07,0,0,0-2-3.83A2.64,2.64,0,0,0,15.71,2a3.19,3.19,0,0,0-2.93,2.61A3.07,3.07,0,0,0,14.77,8.47Zm-.24-3.42a1.45,1.45,0,0,1,1.18-1.22h.14a.86.86,0,0,1,.53.47,1.79,1.79,0,0,1,.12,1.2,1.45,1.45,0,0,1-1.18,1.23l-.14,0a.85.85,0,0,1-.53-.46A1.83,1.83,0,0,1,14.53,5.05ZM8.68,8.54a2.08,2.08,0,0,0,.55-.07,3.07,3.07,0,0,0,2-3.83A3.19,3.19,0,0,0,8.29,2a2.64,2.64,0,0,0-.55.06,3.07,3.07,0,0,0-2,3.83A3.2,3.2,0,0,0,8.68,8.54ZM7.62,4.31a.86.86,0,0,1,.53-.47H8.3A1.45,1.45,0,0,1,9.47,5.05a1.83,1.83,0,0,1-.12,1.21.85.85,0,0,1-.53.46l-.14,0A1.45,1.45,0,0,1,7.5,5.51,1.79,1.79,0,0,1,7.62,4.31Zm14,3.57a2.47,2.47,0,0,0-.92-.18,3.3,3.3,0,0,0-2.92,2.17A3.08,3.08,0,0,0,19.14,14a2.46,2.46,0,0,0,.92.17A3.27,3.27,0,0,0,23,12,3.07,3.07,0,0,0,21.6,7.88Zm-.3,3.42a1.5,1.5,0,0,1-1.24,1,.69.69,0,0,1-.25,0,1.35,1.35,0,0,1-.38-1.75,1.54,1.54,0,0,1,1.25-1,.69.69,0,0,1,.24.05.82.82,0,0,1,.45.54A1.76,1.76,0,0,1,21.3,11.3ZM6.24,9.87A3.3,3.3,0,0,0,3.32,7.7a2.47,2.47,0,0,0-.92.18A3.07,3.07,0,0,0,1,12a3.27,3.27,0,0,0,2.91,2.16A2.46,2.46,0,0,0,4.86,14,3.08,3.08,0,0,0,6.24,9.87Zm-2,2.42a.69.69,0,0,1-.25,0,1.5,1.5,0,0,1-1.24-1,1.76,1.76,0,0,1-.07-1.21.82.82,0,0,1,.45-.54.69.69,0,0,1,.24-.05,1.54,1.54,0,0,1,1.25,1A1.35,1.35,0,0,1,4.19,12.29Zm12.7,1.54a5.64,5.64,0,0,0-9.78,0l-1.48,2.6a3.6,3.6,0,0,0,5,4.89,2.64,2.64,0,0,1,2.76,0,3.72,3.72,0,0,0,1.87.53,3.63,3.63,0,0,0,3.12-5.42ZM16.65,19a1.67,1.67,0,0,1-1.4.86,1.7,1.7,0,0,1-.84-.25,4.67,4.67,0,0,0-4.82,0,1.7,1.7,0,0,1-.84.25A1.67,1.67,0,0,1,7.35,19a1.5,1.5,0,0,1,0-1.57l1.48-2.6a3.64,3.64,0,0,1,6.3,0l1.48,2.6A1.5,1.5,0,0,1,16.65,19Z"/></svg>