<svg id="Layer_1" data-name="Layer 1" xmlns="http://www.w3.org/2000/svg" viewBox="0 0 24 24"><title>iconoteka_paw__pets__animals__pet_a_f</title><path d="M14.83,8.22A2.82,2.82,0,0,0,18,5.87,2.85,2.85,0,0,0,16.2,2.34,2.84,2.84,0,0,0,13,4.69,2.83,2.83,0,0,0,14.83,8.22Zm-5.66,0A2.83,2.83,0,0,0,11,4.69,2.84,2.84,0,0,0,7.8,2.34,2.85,2.85,0,0,0,6,5.87,2.82,2.82,0,0,0,9.17,8.22Zm12.34-.14a2.86,2.86,0,0,0-3.57,1.86,2.86,2.86,0,0,0,1.28,3.81A2.87,2.87,0,0,0,22.8,11.9,2.88,2.88,0,0,0,21.51,8.08ZM6.06,9.94A2.86,2.86,0,0,0,2.49,8.08,2.88,2.88,0,0,0,1.2,11.9a2.87,2.87,0,0,0,3.58,1.85A2.86,2.86,0,0,0,6.06,9.94Zm10.83,3.89a5.63,5.63,0,0,0-9.78,0l-1.48,2.6a3.61,3.61,0,0,0,5,4.89h0a2.68,2.68,0,0,1,2.76,0,3.61,3.61,0,0,0,5-4.89Z"/></svg>