<svg id="Layer_1" data-name="Layer 1" xmlns="http://www.w3.org/2000/svg" viewBox="0 0 24 24"><title>iconoteka_paw__pets__animals__pet_l_s</title><path d="M14.83,8.22a2.22,2.22,0,0,0,.51.06A2.94,2.94,0,0,0,18,5.87,2.85,2.85,0,0,0,16.2,2.34a2.22,2.22,0,0,0-.51-.06A3,3,0,0,0,13,4.69,2.83,2.83,0,0,0,14.83,8.22ZM13.48,4.81a2.44,2.44,0,0,1,2.21-2,1.83,1.83,0,0,1,.4.05,2.34,2.34,0,0,1,1.46,2.93,2.45,2.45,0,0,1-2.21,2,1.81,1.81,0,0,1-.4,0A2.34,2.34,0,0,1,13.48,4.81ZM8.66,8.28a2.22,2.22,0,0,0,.51-.06A2.83,2.83,0,0,0,11,4.69a3,3,0,0,0-2.7-2.41,2.22,2.22,0,0,0-.51.06A2.85,2.85,0,0,0,6,5.87,2.94,2.94,0,0,0,8.66,8.28ZM7.91,2.83a1.83,1.83,0,0,1,.4-.05,2.44,2.44,0,0,1,2.21,2A2.34,2.34,0,0,1,9.06,7.74a1.81,1.81,0,0,1-.4,0,2.45,2.45,0,0,1-2.21-2A2.34,2.34,0,0,1,7.91,2.83Zm13.6,5.25a2.34,2.34,0,0,0-.86-.16,3.06,3.06,0,0,0-2.71,2,2.86,2.86,0,0,0,1.28,3.81,2.16,2.16,0,0,0,.86.17,3.06,3.06,0,0,0,2.72-2A2.88,2.88,0,0,0,21.51,8.08Zm.82,3.63a2.56,2.56,0,0,1-2.25,1.71,1.7,1.7,0,0,1-.67-.13,2.38,2.38,0,0,1-1-3.17,2.56,2.56,0,0,1,2.25-1.7,1.75,1.75,0,0,1,.68.13A2.37,2.37,0,0,1,22.33,11.71ZM6.06,9.94a3.06,3.06,0,0,0-2.71-2,2.34,2.34,0,0,0-.86.16A2.88,2.88,0,0,0,1.2,11.9a3.06,3.06,0,0,0,2.72,2,2.16,2.16,0,0,0,.86-.17A2.86,2.86,0,0,0,6.06,9.94ZM4.59,13.29a1.7,1.7,0,0,1-.67.13,2.56,2.56,0,0,1-2.25-1.71,2.37,2.37,0,0,1,1-3.16,1.75,1.75,0,0,1,.68-.13,2.56,2.56,0,0,1,2.25,1.7A2.38,2.38,0,0,1,4.59,13.29Zm12.3.54a5.64,5.64,0,0,0-9.78,0l-1.48,2.6a3.6,3.6,0,0,0,5,4.89,2.64,2.64,0,0,1,2.76,0,3.72,3.72,0,0,0,1.87.53,3.63,3.63,0,0,0,3.12-5.42ZM18,19.75a3.18,3.18,0,0,1-2.7,1.6,3.15,3.15,0,0,1-1.61-.46,3.15,3.15,0,0,0-3.28,0,3.15,3.15,0,0,1-1.61.46,3.18,3.18,0,0,1-2.7-1.6,3,3,0,0,1,0-3.07l1.48-2.6a5.13,5.13,0,0,1,8.9,0l1.48,2.6A3,3,0,0,1,18,19.75Z"/></svg>