<svg id="Layer_1" data-name="Layer 1" xmlns="http://www.w3.org/2000/svg" viewBox="0 0 24 24"><defs><style>.cls-1{fill:none;}</style></defs><title>iconoteka_flover_florist_b_s</title><path d="M20.85,14A9.83,9.83,0,0,0,13,17.92V14.86a3.6,3.6,0,0,0,2.41-2.14,3.75,3.75,0,0,0,.29-1.53h.08a3.67,3.67,0,0,0,1.44-.29A3.63,3.63,0,0,0,19.5,7.5a3.63,3.63,0,0,0-2.28-3.41A3.73,3.73,0,0,0,15.7,3.8a3.73,3.73,0,0,0-.29-1.52,3.69,3.69,0,0,0-6.82,0A3.73,3.73,0,0,0,8.3,3.8a3.73,3.73,0,0,0-1.52.29A3.63,3.63,0,0,0,4.5,7.5a3.63,3.63,0,0,0,2.28,3.41,3.67,3.67,0,0,0,1.44.29H8.3a3.75,3.75,0,0,0,.29,1.53A3.6,3.6,0,0,0,11,14.86v2.82A10,10,0,0,0,3.26,14H2.15l.11,1.1A9.84,9.84,0,0,0,12.05,24h0a9.84,9.84,0,0,0,9.79-8.89L22,14ZM16.46,5.94a1.69,1.69,0,0,1,0,3.12,1.64,1.64,0,0,1-1.59-.17,3.09,3.09,0,0,0,0-2.78A1.64,1.64,0,0,1,16.46,5.94Zm-7.33,3A1.68,1.68,0,0,1,6.5,7.5,1.72,1.72,0,0,1,8.21,5.8a1.59,1.59,0,0,1,.93.3A3.11,3.11,0,0,0,8.8,7.5,3.23,3.23,0,0,0,9.13,8.89ZM10.44,3a1.69,1.69,0,0,1,3.12,0,1.64,1.64,0,0,1-.17,1.59,3.09,3.09,0,0,0-2.78,0A1.64,1.64,0,0,1,10.44,3ZM13.5,7.5A1.49,1.49,0,0,1,12.08,9h-.16a1.49,1.49,0,0,1,0-3h.16A1.49,1.49,0,0,1,13.5,7.5ZM10.44,12a1.64,1.64,0,0,1,.17-1.59,3.09,3.09,0,0,0,2.78,0,1.68,1.68,0,1,1-3,1.59Zm-6,4.14a7.84,7.84,0,0,1,6.39,5.79A7.84,7.84,0,0,1,4.46,16.1Zm8.8,5.79a7.84,7.84,0,0,1,6.39-5.79A7.84,7.84,0,0,1,13.26,21.89Z"/><rect class="cls-1" width="24" height="24"/></svg>