<svg id="Layer_1" data-name="Layer 1" xmlns="http://www.w3.org/2000/svg" viewBox="0 0 24 24"><title>iconoteka_5_circles__group_m_s</title><path d="M15.22,4.88A3.22,3.22,0,1,0,12,8.1,3.22,3.22,0,0,0,15.22,4.88ZM12,6.6a1.72,1.72,0,1,1,1.72-1.72A1.72,1.72,0,0,1,12,6.6ZM8.29,10.8A3.22,3.22,0,0,0,6.22,6.73a3.4,3.4,0,0,0-1-.15,3.22,3.22,0,0,0-1,6.29,3.46,3.46,0,0,0,1,.15A3.21,3.21,0,0,0,8.29,10.8ZM3.59,9.27A1.71,1.71,0,0,1,5.23,8.08a1.59,1.59,0,0,1,.53.08,1.72,1.72,0,0,1-.53,3.36,1.59,1.59,0,0,1-.53-.08A1.72,1.72,0,0,1,3.59,9.27Zm6.12,5.88a3.25,3.25,0,0,0-1.89-.61,3.22,3.22,0,0,0-1.9,5.83,3.23,3.23,0,0,0,3.79-5.22Zm-.5,3.62a1.73,1.73,0,0,1-2.41.38,1.72,1.72,0,0,1,1-3.11,1.69,1.69,0,0,1,1,.33,1.71,1.71,0,0,1,.38,2.4Zm7-4.23a3.22,3.22,0,1,0,2.61,1.33A3.21,3.21,0,0,0,16.18,14.54Zm1,4.61a1.73,1.73,0,0,1-2.72-1.66,1.71,1.71,0,0,1,.69-1.12,1.69,1.69,0,0,1,1-.33,1.72,1.72,0,0,1,1,3.11ZM21.84,8.8a3.23,3.23,0,0,0-3.07-2.22,3.4,3.4,0,0,0-1,.15,3.22,3.22,0,0,0,1,6.29,3.46,3.46,0,0,0,1-.15A3.23,3.23,0,0,0,21.84,8.8ZM19.3,11.44a1.59,1.59,0,0,1-.53.08,1.72,1.72,0,0,1-.53-3.36,1.59,1.59,0,0,1,.53-.08,1.72,1.72,0,0,1,.53,3.36Z"/></svg>