<svg id="Layer_1" data-name="Layer 1" xmlns="http://www.w3.org/2000/svg" viewBox="0 0 24 24"><title>iconoteka_5_circles__group_l_s</title><path d="M15,4.66a3,3,0,1,0-3,3A3,3,0,0,0,15,4.66Zm-3,2.5a2.5,2.5,0,1,1,2.5-2.5A2.51,2.51,0,0,1,12,7.16Zm-4.13,3.5A3,3,0,1,0,5,12.73,3,3,0,0,0,7.87,10.66ZM2.64,9A2.48,2.48,0,0,1,5,7.23a2.53,2.53,0,0,1,.77.12A2.49,2.49,0,0,1,7.24,8.6a2.42,2.42,0,0,1,.15,1.9A2.48,2.48,0,0,1,5,12.23a2.54,2.54,0,0,1-.78-.12A2.5,2.5,0,0,1,2.64,9Zm6.81,6.55a3,3,0,0,0-1.76-.57,3,3,0,1,0,1.76.57Zm.26,3.9a2.51,2.51,0,0,1-2,1A2.44,2.44,0,0,1,6.21,20a2.5,2.5,0,0,1-.55-3.49,2.53,2.53,0,0,1,2-1,2.51,2.51,0,0,1,2,4Zm6.6-4.47a3,3,0,0,0-1.76.57,3,3,0,0,0,1.77,5.43,3,3,0,0,0,1.76-.57,3,3,0,0,0-1.77-5.43Zm1.48,5a2.44,2.44,0,0,1-1.47.48,2.51,2.51,0,0,1-2-1,2.51,2.51,0,0,1,2-4,2.53,2.53,0,0,1,2,1A2.5,2.5,0,0,1,17.79,20ZM21.84,8.8a3,3,0,1,0-1.93,3.78A3,3,0,0,0,21.84,8.8Zm-2.08,3.31a2.54,2.54,0,0,1-.78.12,2.48,2.48,0,0,1-2.37-1.73,2.42,2.42,0,0,1,.15-1.9,2.49,2.49,0,0,1,1.45-1.25A2.54,2.54,0,0,1,19,7.23a2.5,2.5,0,0,1,.77,4.88Z"/></svg>