<svg id="Layer_1" data-name="Layer 1" xmlns="http://www.w3.org/2000/svg" viewBox="0 0 24 24"><title>iconoteka_5_circles__group_b_s</title><path d="M15.22,4.88A3.22,3.22,0,1,0,12,8.1,3.22,3.22,0,0,0,15.22,4.88ZM12,6.1a1.22,1.22,0,1,1,1.22-1.22A1.22,1.22,0,0,1,12,6.1ZM8.29,10.8A3.22,3.22,0,0,0,6.22,6.73a3.4,3.4,0,0,0-1-.15,3.22,3.22,0,0,0-1,6.29,3.46,3.46,0,0,0,1,.15A3.21,3.21,0,0,0,8.29,10.8ZM4.06,9.42a1.24,1.24,0,0,1,1.17-.84,1.31,1.31,0,0,1,.38.06,1.21,1.21,0,0,1,.71.6,1.23,1.23,0,0,1,.07.94A1.22,1.22,0,0,1,4.85,11,1.24,1.24,0,0,1,4.06,9.42Zm5.65,5.73a3.25,3.25,0,0,0-1.89-.61,3.22,3.22,0,0,0-1.9,5.83,3.23,3.23,0,0,0,3.79-5.22ZM8.8,18.48A1.22,1.22,0,0,1,6.61,18a1.2,1.2,0,0,1,1.21-1.41,1.22,1.22,0,0,1,1.2,1A1.18,1.18,0,0,1,8.8,18.48Zm7.38-3.94a3.22,3.22,0,1,0,2.61,1.33A3.21,3.21,0,0,0,16.18,14.54Zm.72,4.21a1.22,1.22,0,0,1-1.7-.27,1.22,1.22,0,0,1,.27-1.71,1.2,1.2,0,0,1,.71-.23A1.2,1.2,0,0,1,17.39,18,1.2,1.2,0,0,1,16.9,18.75ZM21.84,8.8a3.23,3.23,0,0,0-3.07-2.22,3.4,3.4,0,0,0-1,.15,3.22,3.22,0,0,0,1,6.29,3.46,3.46,0,0,0,1-.15A3.23,3.23,0,0,0,21.84,8.8ZM19.15,11a1.22,1.22,0,0,1-1.54-.78,1.23,1.23,0,0,1,.07-.94,1.21,1.21,0,0,1,.71-.6,1.31,1.31,0,0,1,.38-.06A1.22,1.22,0,0,1,19.15,11Z"/></svg>