<svg xmlns="http://www.w3.org/2000/svg" viewBox="0 0 24 24"><title>iconoteka_application_settings__options_r_s</title><g id="Clear_3" data-name="Clear 3"><path d="M16,3H8A5,5,0,0,0,3,8v8a5,5,0,0,0,5,5h8a5,5,0,0,0,5-5V8A5,5,0,0,0,16,3Zm4,13a4,4,0,0,1-4,4H8a4,4,0,0,1-4-4V8A4,4,0,0,1,8,4h8a4,4,0,0,1,4,4Zm-3.15-5.11a5,5,0,0,0-.52-1.39,4.86,4.86,0,0,0-.95-1.15l-1.71.78h0l-.19-1.88A5.14,5.14,0,0,0,12,7a5.14,5.14,0,0,0-1.47.24l-.19,1.88h0L8.62,8.35A4.86,4.86,0,0,0,7.67,9.5a5,5,0,0,0-.52,1.39L8.68,12v0l-1.53,1.1a5,5,0,0,0,.52,1.39,4.86,4.86,0,0,0,.95,1.15l1.71-.78h0l.19,1.88A5.14,5.14,0,0,0,12,17a5.14,5.14,0,0,0,1.47-.24l.19-1.88h0l1.71.78a4.86,4.86,0,0,0,.95-1.15,5,5,0,0,0,.52-1.39L15.32,12v0Zm-2,1.77,1.07.77a3.75,3.75,0,0,1-.29.67,3.84,3.84,0,0,1-.43.59L14,14.15,13.61,14l-.35.2-.36.2,0,.41-.13,1.32a3.37,3.37,0,0,1-1.46,0l-.13-1.32-.05-.41-.36-.21-.36-.2-.37.17-1.21.54a3.84,3.84,0,0,1-.43-.59,3.75,3.75,0,0,1-.29-.67l1.07-.77.34-.26v-.82l-.34-.24-1.07-.77a3.75,3.75,0,0,1,.29-.67,3.84,3.84,0,0,1,.43-.59L10,9.85l.39.17.36-.21.35-.21,0-.4.13-1.32a3.37,3.37,0,0,1,1.46,0l.13,1.32.05.41.36.21.36.2L14,9.85l1.21-.54a3.84,3.84,0,0,1,.43.59,3.75,3.75,0,0,1,.29.67l-1.07.77-.34.26v.82ZM12,10.6A1.4,1.4,0,1,0,13.4,12,1.4,1.4,0,0,0,12,10.6Zm0,2a.6.6,0,1,1,.6-.6A.6.6,0,0,1,12,12.6Z"/></g></svg>