<svg xmlns="http://www.w3.org/2000/svg" viewBox="0 0 24 24"><defs><style>.cls-1{fill:none;}</style></defs><title>iconoteka_brightness_high_b_s</title><g id="Clear_3" data-name="Clear 3"><rect class="cls-1" width="24" height="24"/><path d="M20,8.69V4H15.31L12,.69,8.69,4H4V8.69L.69,12,4,15.31V20H8.69L12,23.31,15.31,20H20V15.31L23.31,12Zm-2,5.8V18H14.49L12,20.49,9.51,18H6V14.49L3.51,12,6,9.51V6H9.51L12,3.51,14.49,6H18V9.51L20.49,12Z"/><path d="M12,7a5,5,0,1,0,5,5A5,5,0,0,0,12,7Zm0,8a3,3,0,1,1,3-3A3,3,0,0,1,12,15Z"/></g></svg>