<svg xmlns="http://www.w3.org/2000/svg" viewBox="0 0 24 24"><title>iconoteka_border_top_r_a</title><g id="Clear_3" data-name="Clear 3"><path d="M20,15.33h1v-1H20Zm0-8.5h1v-1H20Zm0,11.34h1v-1H20Zm0-8.5h1v-1H20ZM3,15.33H4v-1H3Zm0-8.5H4v-1H3ZM3,18.17H4v-1H3Zm0-8.5H4v-1H3Zm8.5,5.66h1v-1h-1Zm0-8.5h1v-1h-1Zm0,11.34h1v-1h-1Zm0-8.5h1v-1h-1ZM3,3V4H21V3Zm8.5,18h1V20h-1Zm2.83,0h1V20h-1Zm-8.5,0h1V20h-1Zm11.34,0h1V20h-1Zm-8.5,0h1V20h-1ZM3,21H4V20H3Zm17,0h1V20H20Zm-8.5-8.5h1v-1h-1Zm2.83,0h1v-1h-1Zm-8.5,0h1v-1h-1Zm11.34,0h1v-1h-1Zm-8.5,0h1v-1h-1ZM3,12.5H4v-1H3Zm17,0h1v-1H20Z"/></g></svg>