<svg xmlns="http://www.w3.org/2000/svg" viewBox="0 0 24 24"><title>iconoteka_notification_off_r_s</title><g id="Clear_3" data-name="Clear 3"><path d="M20.87,16A3,3,0,0,1,20,13.89V9A8,8,0,0,0,4,9v4.89A3,3,0,0,1,3.13,16L2,17.14V20H8.67a3.47,3.47,0,0,0,6.66,0H22V17.14ZM12,21.5A2.49,2.49,0,0,1,9.72,20h4.56A2.49,2.49,0,0,1,12,21.5ZM21,19H3V17.55l.83-.84A3.94,3.94,0,0,0,5,13.89V9A7,7,0,0,1,19,9v4.89a3.92,3.92,0,0,0,1.17,2.82l.83.84ZM14.08,8.21,12,10.29,9.92,8.21l-.71.71L11.29,11,9.21,13.08l.71.71L12,11.71l2.08,2.08.71-.71L12.71,11l2.08-2.08Z"/></g></svg>