<svg xmlns="http://www.w3.org/2000/svg" viewBox="0 0 24 24"><title>iconoteka_applications__apps_m_s</title><g id="Clear_3" data-name="Clear 3"><path d="M18.75,4.5a.76.76,0,0,1,.75.75v3.5a.76.76,0,0,1-.75.75h-3.5a.76.76,0,0,1-.75-.75V5.25a.76.76,0,0,1,.75-.75h3.5m-10,0a.76.76,0,0,1,.75.75v3.5a.76.76,0,0,1-.75.75H5.25a.76.76,0,0,1-.75-.75V5.25a.76.76,0,0,1,.75-.75h3.5m10,10a.76.76,0,0,1,.75.75v3.5a.76.76,0,0,1-.75.75h-3.5a.76.76,0,0,1-.75-.75v-3.5a.76.76,0,0,1,.75-.75h3.5m-10,0a.76.76,0,0,1,.75.75v3.5a.76.76,0,0,1-.75.75H5.25a.76.76,0,0,1-.75-.75v-3.5a.76.76,0,0,1,.75-.75h3.5M18.75,3h-3.5A2.25,2.25,0,0,0,13,5.25v3.5A2.25,2.25,0,0,0,15.25,11h3.5A2.25,2.25,0,0,0,21,8.75V5.25A2.25,2.25,0,0,0,18.75,3Zm-10,0H5.25A2.25,2.25,0,0,0,3,5.25v3.5A2.25,2.25,0,0,0,5.25,11h3.5A2.25,2.25,0,0,0,11,8.75V5.25A2.25,2.25,0,0,0,8.75,3Zm10,10h-3.5A2.25,2.25,0,0,0,13,15.25v3.5A2.25,2.25,0,0,0,15.25,21h3.5A2.25,2.25,0,0,0,21,18.75v-3.5A2.25,2.25,0,0,0,18.75,13Zm-10,0H5.25A2.25,2.25,0,0,0,3,15.25v3.5A2.25,2.25,0,0,0,5.25,21h3.5A2.25,2.25,0,0,0,11,18.75v-3.5A2.25,2.25,0,0,0,8.75,13Z"/></g></svg>