<svg id="Layer_1" data-name="Layer 1" xmlns="http://www.w3.org/2000/svg" viewBox="0 0 24 24"><defs><style>.cls-1{fill:none;}</style></defs><title>iconoteka_signal_wifi_3_alert_b_s</title><rect class="cls-1" width="24" height="24"/><path d="M6.66,15.66l1.42,1.42a5.53,5.53,0,0,1,7.84,0l1.42-1.42a7.56,7.56,0,0,0-10.68,0Z"/><path d="M9.68,18.68,12,21l2.32-2.32a3.28,3.28,0,0,0-4.64,0Z"/><path d="M15,11.69V9.62a11.54,11.54,0,0,0-3-.4,11.73,11.73,0,0,0-8.33,3.45l1.41,1.41A9.76,9.76,0,0,1,12,11.22,10.06,10.06,0,0,1,15,11.69Z"/><path d="M19.59,12H15.83a9.79,9.79,0,0,1,3.09,2.08l1.41-1.41C20.09,12.43,19.84,12.21,19.59,12Z"/><polygon points="19.76 7 20.22 2 17.78 2 18.24 7 19.76 7"/><circle cx="19" cy="9" r="1"/></svg>