<svg xmlns="http://www.w3.org/2000/svg" viewBox="0 0 24 24"><title>iconoteka_border_bottom_r_a</title><g id="Clear_3" data-name="Clear 3"><path d="M3,21H21V20H3ZM4,8.67H3v1H4Zm0,8.5H3v1H4ZM4,5.83H3v1H4Zm0,8.5H3v1H4ZM20,9.67h1v-1H20Zm0,8.5h1v-1H20ZM20,6.83h1v-1H20Zm0,8.5h1v-1H20ZM12.5,8.67h-1v1h1Zm0,8.5h-1v1h1Zm0-11.34h-1v1h1Zm0,8.5h-1v1h1ZM12.5,3h-1V4h1ZM9.67,3h-1V4h1Zm8.5,0h-1V4h1ZM6.83,3h-1V4h1Zm8.5,0h-1V4h1ZM20,3V4h1V3ZM4,3H3V4H4Zm8.5,8.5h-1v1h1Zm-2.83,0h-1v1h1Zm8.5,0h-1v1h1Zm-11.34,0h-1v1h1Zm8.5,0h-1v1h1Zm4.67,1h1v-1H20Zm-16-1H3v1H4Z"/></g></svg>