<svg xmlns="http://www.w3.org/2000/svg" viewBox="0 0 24 24"><defs><style>.cls-1{fill:none;}</style></defs><title>iconoteka_border_clear_b_s</title><g id="Clear_3" data-name="Clear 3"><rect class="cls-1" width="24" height="24"/><rect x="3" y="3" width="2" height="2"/><rect x="19" y="3" width="2" height="2"/><rect x="15" y="3" width="2" height="2"/><rect x="7" y="3" width="2" height="2"/><rect x="3" y="11" width="2" height="2"/><rect x="19" y="11" width="2" height="2"/><rect x="11" y="11" width="2" height="2"/><rect x="15" y="11" width="2" height="2"/><rect x="7" y="11" width="2" height="2"/><rect x="3" y="19" width="2" height="2"/><rect x="19" y="19" width="2" height="2"/><rect x="11" y="19" width="2" height="2"/><rect x="15" y="19" width="2" height="2"/><rect x="7" y="19" width="2" height="2"/><rect x="19" y="7" width="2" height="2"/><rect x="19" y="15" width="2" height="2"/><rect x="11" y="3" width="2" height="2"/><rect x="11" y="7" width="2" height="2"/><rect x="11" y="15" width="2" height="2"/><rect x="3" y="7" width="2" height="2"/><rect x="3" y="15" width="2" height="2"/></g></svg>