<svg xmlns="http://www.w3.org/2000/svg" viewBox="0 0 24 24"><title>iconoteka_bluetooth_settings_m_a</title><g id="Clear_3" data-name="Clear 3"><path d="M21.5,11.36l1.22-.8a4,4,0,0,0-.26-.56,3.52,3.52,0,0,0-.36-.5l-1.29.65L19.7,9.51l-.09-1.45a3.13,3.13,0,0,0-1.22,0L18.3,9.51l-1.11.64L15.9,9.5a3.52,3.52,0,0,0-.36.5,4,4,0,0,0-.26.56l1.22.8v1.28l-1.22.8a4,4,0,0,0,.26.56,3.52,3.52,0,0,0,.36.5l1.29-.65,1.11.64.09,1.45a3.13,3.13,0,0,0,1.22,0l.09-1.45,1.11-.64,1.29.65a3.52,3.52,0,0,0,.36-.5,4,4,0,0,0,.26-.56l-1.22-.8ZM19,13.21A1.21,1.21,0,1,1,20.21,12,1.21,1.21,0,0,1,19,13.21ZM15.39,7.48,6.62,1.54v9.05L1.68,7.25.84,8.49,6,12,.84,15.51l.84,1.24,4.94-3.34v9.05l8.77-5.94L8.7,12ZM8.12,4.37l4.59,3.11L8.12,10.59Zm4.59,12.15L8.12,19.63V13.41Z"/></g></svg>