<svg xmlns="http://www.w3.org/2000/svg" viewBox="0 0 24 24"><title>iconoteka_border_center_horizontal_l_a</title><g id="Clear_3" data-name="Clear 3"><path d="M3.5,7.38H3v.5h.5Zm0,2.18H3v.5h.5ZM3,18.81h.5v-.5H3Zm0-2.19h.5v-.5H3Zm0-2.18h.5v-.5H3Zm.5-9.25H3v.5h.5Zm17,2.69H21v-.5h-.5Zm0,2.18H21v-.5h-.5Zm0,8.75H21v-.5h-.5Zm0-2.19H21v-.5h-.5Zm0-2.18H21v-.5h-.5Zm0-8.75H21v-.5h-.5ZM12.25,7.38h-.5v.5h.5Zm0,2.18h-.5v.5h.5Zm-.5,9.25h.5v-.5h-.5Zm0-2.19h.5v-.5h-.5Zm0-2.18h.5v-.5h-.5Zm.5-9.25h-.5v.5h.5ZM7.38,21h.5v-.5h-.5Zm2.18,0h.5v-.5h-.5Zm8.75,0h.5v-.5h-.5Zm-2.19,0h.5v-.5h-.5Zm-2.18,0h.5v-.5h-.5ZM5.19,21h.5v-.5h-.5ZM20.5,21H21v-.5h-.5Zm-8.75,0h.5v-.5h-.5ZM3,21h.5v-.5H3ZM7.88,3h-.5v.5h.5Zm2.18,0h-.5v.5h.5Zm8.75,0h-.5v.5h.5ZM16.62,3h-.5v.5h.5ZM14.44,3h-.5v.5h.5ZM5.69,3h-.5v.5h.5ZM20.5,3v.5H21V3ZM12.25,3h-.5v.5h.5ZM3.5,3H3v.5h.5ZM3,12.25H21v-.5H3Z"/></g></svg>