<svg xmlns="http://www.w3.org/2000/svg" viewBox="0 0 24 24"><title>iconoteka_bluetooth_settings_b_a</title><g id="Clear_3" data-name="Clear 3"><path d="M21.5,11.51l1.24-.9a4.13,4.13,0,0,0-.67-1.15l-1.4.62-.84-.49-.17-1.52a3.15,3.15,0,0,0-1.32,0l-.17,1.52-.84.49-1.4-.62a4.13,4.13,0,0,0-.67,1.15l1.24.9v1l-1.24.9a4.13,4.13,0,0,0,.67,1.15l1.4-.62.84.49.17,1.52a3.15,3.15,0,0,0,1.32,0l.17-1.52.84-.49,1.4.62a4.13,4.13,0,0,0,.67-1.15l-1.24-.9ZM19,13a1,1,0,1,1,1-1A1,1,0,0,1,19,13ZM15.75,7.75,6.68,1.61v8.51L2,6.92.83,8.58,5.89,12,.83,15.42,2,17.08l4.73-3.2v8.51l9.07-6.14L9.46,12ZM8.68,5.38l3.5,2.37-3.5,2.37Zm3.5,10.87-3.5,2.37V13.88Z"/></g></svg>