<svg xmlns="http://www.w3.org/2000/svg" viewBox="0 0 24 24"><defs><style>.cls-1{fill:none;}</style></defs><title>iconoteka_box_add_b_s</title><g id="Clear_3" data-name="Clear 3"><rect class="cls-1" width="24" height="24"/><polygon points="12.8 9 11.2 9 11.2 11.2 9 11.2 9 12.8 11.2 12.8 11.2 15 12.8 15 12.8 12.8 15 12.8 15 11.2 12.8 11.2 12.8 9"/><path d="M17,3H7A4,4,0,0,0,3,7V17a4,4,0,0,0,4,4H17a4,4,0,0,0,4-4V7A4,4,0,0,0,17,3Zm2,14a2,2,0,0,1-2,2H7a2,2,0,0,1-2-2V7A2,2,0,0,1,7,5H17a2,2,0,0,1,2,2Z"/></g></svg>