<svg id="Layer_1" data-name="Layer 1" xmlns="http://www.w3.org/2000/svg" viewBox="0 0 24 24"><title>iconoteka_network_settings__mobile_data_settings_m_a</title><path d="M8.83,20h1.5V12.7l-1.5,1.35ZM4,20H5.5V17.05L4,18.4ZM20,4,18.5,5.34V20H20V4ZM13.67,20h1.5V8.34l-1.5,1.35ZM10.72,5.56A4,4,0,0,0,10.46,5a3.52,3.52,0,0,0-.36-.5l-1.29.65L7.7,4.51,7.61,3.06A4.07,4.07,0,0,0,7,3a4.07,4.07,0,0,0-.61.06L6.3,4.51l-1.11.64L3.9,4.5a3.52,3.52,0,0,0-.36.5,4,4,0,0,0-.26.56l1.22.8V7.64l-1.22.8A4,4,0,0,0,3.54,9a3.52,3.52,0,0,0,.36.5l1.29-.65,1.11.64.09,1.45A4.07,4.07,0,0,0,7,11a4.07,4.07,0,0,0,.61-.06L7.7,9.49l1.11-.64,1.29.65a3.52,3.52,0,0,0,.36-.5,4,4,0,0,0,.26-.56L9.5,7.64V6.36ZM7,8.21A1.21,1.21,0,1,1,8.21,7,1.21,1.21,0,0,1,7,8.21Z"/></svg>