<svg xmlns="http://www.w3.org/2000/svg" viewBox="0 0 24 24"><title>iconoteka_border_right_r_a</title><g id="Clear_3" data-name="Clear 3"><path d="M8.67,21h1V20h-1Zm8.5,0h1V20h-1ZM5.83,21h1V20h-1Zm8.5,0h1V20h-1ZM8.67,4h1V3h-1Zm8.5,0h1V3h-1ZM5.83,4h1V3h-1Zm8.5,0h1V3h-1ZM8.67,12.5h1v-1h-1Zm8.5,0h1v-1h-1Zm-11.34,0h1v-1h-1Zm8.5,0h1v-1h-1ZM20,3V21h1V3ZM3,12.5H4v-1H3Zm0,2.83H4v-1H3Zm0-8.5H4v-1H3ZM3,18.17H4v-1H3Zm0-8.5H4v-1H3ZM3,4H4V3H3ZM3,21H4V20H3Zm8.5-8.5h1v-1h-1Zm0,2.83h1v-1h-1Zm0-8.5h1v-1h-1Zm0,11.34h1v-1h-1Zm0-8.5h1v-1h-1ZM11.5,4h1V3h-1Zm0,17h1V20h-1Z"/></g></svg>