<svg id="Layer_1" data-name="Layer 1" xmlns="http://www.w3.org/2000/svg" viewBox="0 0 24 24"><defs><style>.cls-1{fill:none;}</style></defs><title>iconoteka_delete_forever_b_s</title><rect class="cls-1" width="24" height="24"/><path d="M20,5H15V4a2,2,0,0,0-2-2H11A2,2,0,0,0,9,4V5H4A1,1,0,0,0,4,7H5.06l.85,15H18.09l.85-15H20a1,1,0,0,0,0-2ZM11,4h2V5H11Zm5.2,16H7.8L7.06,7h9.88Z"/><polygon points="10.13 16 12 14.13 13.87 16 15 14.87 13.13 13 15 11.13 13.87 10 12 11.87 10.13 10 9 11.13 10.87 13 9 14.87 10.13 16"/></svg>