<svg id="Layer_1" data-name="Layer 1" xmlns="http://www.w3.org/2000/svg" viewBox="0 0 24 24"><title>iconoteka_share_microsoft_m_s</title><path d="M21.05,8.57l-1.38.59a7.24,7.24,0,0,1-1,7.34A3.06,3.06,0,0,0,17,16a3,3,0,1,0,3,3,3.05,3.05,0,0,0-.34-1.37A8.72,8.72,0,0,0,21.05,8.57ZM17,20.5A1.5,1.5,0,1,1,18.5,19,1.5,1.5,0,0,1,17,20.5Zm-2.54-14A3,3,0,0,0,17.06,8a2.92,2.92,0,0,0,1.5-.41,3,3,0,1,0-4-4.21A8.71,8.71,0,0,0,6,6.74l1.2.9a7.2,7.2,0,0,1,6.86-2.79A3,3,0,0,0,14.46,6.54Zm1.15-1.89a1.53,1.53,0,0,1,.7-.91,1.43,1.43,0,0,1,.75-.2,1.49,1.49,0,0,1,.75,2.79,1.42,1.42,0,0,1-.75.21,1.5,1.5,0,0,1-1.45-1.89Zm-9.34,10a3,3,0,0,0,.17-5.27A2.92,2.92,0,0,0,4.94,9a3,3,0,0,0-1.5,5.6A3,3,0,0,0,4.79,15a8.74,8.74,0,0,0,7.15,5.74l.18-1.49A7.21,7.21,0,0,1,6.27,14.64ZM4.94,13.46a1.41,1.41,0,0,1-.75-.2,1.5,1.5,0,0,1,.75-2.8,1.44,1.44,0,0,1,.75.21,1.53,1.53,0,0,1,.7.91,1.5,1.5,0,0,1-1.45,1.88Z"/></svg>