<svg xmlns="http://www.w3.org/2000/svg" viewBox="0 0 24 24"><title>iconoteka_line_style_m_a</title><g id="Clear_3" data-name="Clear 3"><path d="M3,20.75H5v-1.5H3Zm16,0h2v-1.5H19Zm-4,0h2v-1.5H15Zm-4,0h2v-1.5H11Zm-4,0H9v-1.5H7Zm4-6.5H3v1.5h8Zm2,1.5h8v-1.5H13Zm-10-5H21V9.25H3ZM18.27,4.33a2.48,2.48,0,0,1-3.54,0,4,4,0,0,0-5.46,0,2.79,2.79,0,0,1-1.77.73,2.79,2.79,0,0,1-1.77-.73A4.25,4.25,0,0,0,3,3.25v1.5a2.75,2.75,0,0,1,1.77.74A4.29,4.29,0,0,0,7.5,6.56a4.29,4.29,0,0,0,2.73-1.07,2.48,2.48,0,0,1,3.54,0A4.29,4.29,0,0,0,16.5,6.56a4.29,4.29,0,0,0,2.73-1.07A2.75,2.75,0,0,1,21,4.75V3.25A4.25,4.25,0,0,0,18.27,4.33Z"/></g></svg>