<svg xmlns="http://www.w3.org/2000/svg" viewBox="0 0 24 24"><title>iconoteka_border_top_l_a</title><g id="Clear_3" data-name="Clear 3"><path d="M20.5,16.62H21v-.5h-.5Zm0-2.18H21v-.5h-.5Zm0-8.75H21v-.5h-.5Zm0,2.19H21v-.5h-.5Zm0,2.18H21v-.5h-.5Zm0,8.75H21v-.5h-.5ZM3,16.62h.5v-.5H3Zm0-2.18h.5v-.5H3ZM3,5.69h.5v-.5H3ZM3,7.88h.5v-.5H3Zm0,2.18h.5v-.5H3Zm0,8.75h.5v-.5H3Zm8.75-2.19h.5v-.5h-.5Zm0-2.18h.5v-.5h-.5Zm0-8.75h.5v-.5h-.5Zm0,2.19h.5v-.5h-.5Zm0,2.18h.5v-.5h-.5Zm0,8.75h.5v-.5h-.5ZM3,3v.5H21V3ZM16.12,21h.5v-.5h-.5Zm-2.18,0h.5v-.5h-.5ZM5.19,21h.5v-.5h-.5Zm2.19,0h.5v-.5h-.5Zm2.18,0h.5v-.5h-.5Zm8.75,0h.5v-.5h-.5ZM3,21h.5v-.5H3Zm8.75,0h.5v-.5h-.5Zm8.75,0H21v-.5h-.5Zm-4.38-8.75h.5v-.5h-.5Zm-2.18,0h.5v-.5h-.5Zm-8.75,0h.5v-.5h-.5Zm2.19,0h.5v-.5h-.5Zm2.18,0h.5v-.5h-.5Zm8.75,0h.5v-.5h-.5ZM3,12.25h.5v-.5H3Zm8.75,0h.5v-.5h-.5Zm8.75,0H21v-.5h-.5Z"/></g></svg>