<svg id="Layer_1" data-name="Layer 1" xmlns="http://www.w3.org/2000/svg" viewBox="0 0 24 24"><title>iconoteka_wifi_lock_r_a</title><path d="M12,9.08a11.83,11.83,0,0,0-8.41,3.51l.71.71A10.84,10.84,0,0,1,12,10.08ZM12,5A15.91,15.91,0,0,0,.69,9.69l.72.72A14.9,14.9,0,0,1,12,6ZM6.47,15.47l.72.72a6.74,6.74,0,0,1,9.62,0l.72-.72a7.8,7.8,0,0,0-11.06,0Zm2.89,2.89.7.7a2.73,2.73,0,0,1,3.88,0l.7-.7a3.69,3.69,0,0,0-5.28,0ZM20,6V5a2,2,0,0,0-4,0V6H15v4h6V6ZM16.9,5a1.1,1.1,0,0,1,2.2,0V6H16.9ZM20,9H16V7h4Z"/></svg>