<svg xmlns="http://www.w3.org/2000/svg" viewBox="0 0 24 24"><title>iconoteka_line_style_b_a</title><g id="Clear_3" data-name="Clear 3"><path d="M3,21H5V19H3Zm16,0h2V19H19Zm-4,0h2V19H15Zm-4,0h2V19H11ZM7,21H9V19H7Zm4-7H3v2h8Zm2,2h8V14H13ZM3,11H21V9H3ZM18.12,4.13a2.25,2.25,0,0,1-3.24,0,4.25,4.25,0,0,0-5.76,0,2.55,2.55,0,0,1-1.62.68,2.55,2.55,0,0,1-1.62-.68A4.49,4.49,0,0,0,3,3V5a2.55,2.55,0,0,1,1.62.68A4.49,4.49,0,0,0,7.5,6.81a4.49,4.49,0,0,0,2.88-1.13,2.26,2.26,0,0,1,3.24,0A4.49,4.49,0,0,0,16.5,6.81a4.49,4.49,0,0,0,2.88-1.13A2.55,2.55,0,0,1,21,5V3A4.49,4.49,0,0,0,18.12,4.13Z"/></g></svg>