<svg xmlns="http://www.w3.org/2000/svg" viewBox="0 0 24 24"><title>iconoteka_opacity_l_s</title><g id="Clear_3" data-name="Clear 3"><path d="M16.68,7.32a7.5,7.5,0,1,0-9.36,9.36,7.5,7.5,0,1,0,9.36-9.36ZM2.5,9.5A7,7,0,0,1,16.09,7.17a7.5,7.5,0,0,0-8.92,8.92A7,7,0,0,1,2.5,9.5Zm14,0a6.93,6.93,0,0,1-.32,2.1L12.4,7.82a6.93,6.93,0,0,1,2.1-.32,7.4,7.4,0,0,1,1.77.23A7.4,7.4,0,0,1,16.5,9.5Zm-9,5a6.93,6.93,0,0,1,.32-2.1l3.78,3.78a6.93,6.93,0,0,1-2.1.32,7.4,7.4,0,0,1-1.77-.23A7.4,7.4,0,0,1,7.5,14.5ZM12.12,16,8,11.88A7.25,7.25,0,0,1,9.38,9.74l4.88,4.88A7.25,7.25,0,0,1,12.12,16Zm2.5-1.73L9.74,9.38A7.25,7.25,0,0,1,11.88,8L16,12.12A7.25,7.25,0,0,1,14.62,14.26ZM14.5,21.5a7,7,0,0,1-6.59-4.67,7.5,7.5,0,0,0,8.92-8.92A7,7,0,0,1,14.5,21.5Z"/></g></svg>