<svg xmlns="http://www.w3.org/2000/svg" viewBox="0 0 24 24"><defs><style>.cls-1{fill:none;}</style></defs><title>iconoteka_apps_b_s</title><g id="Clear_3" data-name="Clear 3"><rect class="cls-1" width="24" height="24"/><path d="M18.5,3h-3A2.5,2.5,0,0,0,13,5.5v3A2.5,2.5,0,0,0,15.5,11h3A2.5,2.5,0,0,0,21,8.5v-3A2.5,2.5,0,0,0,18.5,3ZM19,8.5a.5.5,0,0,1-.5.5h-3a.5.5,0,0,1-.5-.5v-3a.5.5,0,0,1,.5-.5h3a.5.5,0,0,1,.5.5Z"/><path d="M8.5,3h-3A2.5,2.5,0,0,0,3,5.5v3A2.5,2.5,0,0,0,5.5,11h3A2.5,2.5,0,0,0,11,8.5v-3A2.5,2.5,0,0,0,8.5,3ZM9,8.5a.5.5,0,0,1-.5.5h-3A.5.5,0,0,1,5,8.5v-3A.5.5,0,0,1,5.5,5h3a.5.5,0,0,1,.5.5Z"/><path d="M18.5,13h-3A2.5,2.5,0,0,0,13,15.5v3A2.5,2.5,0,0,0,15.5,21h3A2.5,2.5,0,0,0,21,18.5v-3A2.5,2.5,0,0,0,18.5,13Zm.5,5.5a.5.5,0,0,1-.5.5h-3a.5.5,0,0,1-.5-.5v-3a.5.5,0,0,1,.5-.5h3a.5.5,0,0,1,.5.5Z"/><path d="M8.5,13h-3A2.5,2.5,0,0,0,3,15.5v3A2.5,2.5,0,0,0,5.5,21h3A2.5,2.5,0,0,0,11,18.5v-3A2.5,2.5,0,0,0,8.5,13ZM9,18.5a.5.5,0,0,1-.5.5h-3a.5.5,0,0,1-.5-.5v-3a.5.5,0,0,1,.5-.5h3a.5.5,0,0,1,.5.5Z"/></g></svg>