<svg id="Layer_1" data-name="Layer 1" xmlns="http://www.w3.org/2000/svg" viewBox="0 0 24 24"><defs><style>.cls-1{fill:none;}</style></defs><title>iconoteka_wireless_nfc_b_s</title><rect class="cls-1" width="24" height="24"/><path d="M12,6A15.86,15.86,0,0,0,.69,10.69L2.1,12.1a14,14,0,0,1,19.8,0l1.41-1.41A15.86,15.86,0,0,0,12,6Z"/><path d="M4.2,14.2l1.42,1.42a9,9,0,0,1,12.76,0L19.8,14.2a11,11,0,0,0-15.6,0Z"/><path d="M7.73,17.73l1.41,1.41a4.06,4.06,0,0,1,5.72,0l1.41-1.41A6,6,0,0,0,7.73,17.73Z"/></svg>