<svg id="Layer_1" data-name="Layer 1" xmlns="http://www.w3.org/2000/svg" viewBox="0 0 24 24"><defs><style>.cls-1{fill:none;}</style></defs><title>iconoteka_network_cell_lock_b_s</title><rect class="cls-1" width="24" height="24"/><path d="M10,6H9V5A2,2,0,0,0,5,5V6H4v4h6ZM6.2,5A.8.8,0,0,1,7.8,5V6H6.2Z"/><polygon points="9 19 11 19 11 12.47 9 14.33 9 19"/><polygon points="7 19 7 16.2 4 19 7 19"/><polygon points="13 19 15 19 15 8.73 13 10.6 13 19"/><polygon points="17 6.87 17 19 19 19 19 5 17 6.87"/></svg>