<svg xmlns="http://www.w3.org/2000/svg" viewBox="0 0 24 24"><defs><style>.cls-1{fill:none;}</style></defs><title>iconoteka_bluetooth_settings_b_s</title><g id="Clear_3" data-name="Clear 3"><rect class="cls-1" width="24" height="24"/><path d="M7,0V9.59L3.93,6.51,2.51,7.93,6.59,12,2.51,16.07l1.42,1.42L7,14.41V24l7.19-7.19L9.41,12l4.78-4.78Zm4.37,16.75L9,19.14V14.41ZM9,9.59V4.86l2.37,2.36Z"/><path d="M21.5,12a2.35,2.35,0,0,0-.06-.54l1.4-.81-.75-1.3-1.41.81a2.45,2.45,0,0,0-.93-.53V8h-1.5V9.63a2.45,2.45,0,0,0-.93.53l-1.41-.81-.75,1.3,1.4.81a2.46,2.46,0,0,0,0,1.08l-1.4.81.75,1.3,1.41-.81a2.45,2.45,0,0,0,.93.53V16h1.5V14.37a2.45,2.45,0,0,0,.93-.53l1.41.81.75-1.3-1.4-.81A2.35,2.35,0,0,0,21.5,12ZM19,13a1,1,0,1,1,1-1A1,1,0,0,1,19,13Z"/></g></svg>