<svg id="Layer_1" data-name="Layer 1" xmlns="http://www.w3.org/2000/svg" viewBox="0 0 24 24"><defs><style>.cls-1{fill:none;}</style></defs><title>iconoteka_settings_applications_b_s</title><rect class="cls-1" width="24" height="24"/><path d="M18,3H6A3,3,0,0,0,3,6V18a3,3,0,0,0,3,3H18a3,3,0,0,0,3-3V6A3,3,0,0,0,18,3Zm1,15a1,1,0,0,1-1,1H6a1,1,0,0,1-1-1V6A1,1,0,0,1,6,5H18a1,1,0,0,1,1,1Z"/><path d="M16.71,10.15,16,8.85l-1.69.7L13,8.82,12.75,7h-1.5L11,8.82l-1.27.73-1.69-.7-.76,1.3,1.46,1.12v1.46L7.29,13.85l.76,1.3,1.69-.7,1.27.73L11.25,17h1.5L13,15.18l1.27-.73,1.69.7.76-1.3-1.46-1.12V11.27ZM12,13.5A1.5,1.5,0,1,1,13.5,12,1.5,1.5,0,0,1,12,13.5Z"/></svg>