<svg xmlns="http://www.w3.org/2000/svg" viewBox="0 0 24 24"><defs><style>.cls-1{fill:none;}</style></defs><title>iconoteka_bluetooth_off_b_s</title><g id="Clear_3" data-name="Clear 3"><rect class="cls-1" width="24" height="24"/><path d="M7,0V9.59L3.93,6.51,2.51,7.93,6.59,12,2.51,16.07l1.42,1.42L7,14.41V24l7.19-7.19L9.41,12l4.78-4.78ZM9,19.14V14.41l2.37,2.37ZM9,4.86l2.37,2.36L9,9.59Z"/><polygon points="22 10.13 20.87 9 19 10.87 17.13 9 16 10.13 17.87 12 16 13.87 17.13 15 19 13.13 20.87 15 22 13.87 20.13 12 22 10.13"/></g></svg>