<svg xmlns="http://www.w3.org/2000/svg" viewBox="0 0 24 24"><title>iconoteka_notification_off_b_s</title><g id="Clear_3" data-name="Clear 3"><path d="M20.87,15A3,3,0,0,1,20,12.89V9A8,8,0,0,0,4,9v3.89A3,3,0,0,1,3.13,15L2,16.14V20H8.05A4,4,0,0,0,16,20H22V16.14ZM12,21.5A2,2,0,0,1,10.06,20h3.88A2,2,0,0,1,12,21.5ZM20,18H4V17l.54-.54A5,5,0,0,0,6,12.89V9A6,6,0,0,1,18,9v3.89a5,5,0,0,0,1.46,3.53L20,17ZM13.87,8,12,9.87,10.13,8,9,9.13,10.87,11,9,12.87,10.13,14,12,12.13,13.87,14,15,12.87,13.13,11,15,9.13Z"/></g></svg>