<svg id="Layer_1" data-name="Layer 1" xmlns="http://www.w3.org/2000/svg" viewBox="0 0 24 24"><defs><style>.cls-1{fill:none;}</style></defs><title>iconoteka_heart_like_love_favorite_b_s</title><rect class="cls-1" width="24" height="24"/><path d="M16.08,3A6,6,0,0,0,12,4.68,6,6,0,0,0,7.92,3a5.9,5.9,0,0,0-6,6.2c0,5.18,7.05,11,9.52,12.64l.55.37.55-.37C15,20.2,22.07,14.37,22.07,9.19A5.9,5.9,0,0,0,16.08,3ZM12,19.79C8.56,17.34,3.93,12.6,3.93,9.19a3.92,3.92,0,0,1,4-4.2,4.42,4.42,0,0,1,3.31,1.77l.77.92.77-.92A4.42,4.42,0,0,1,16.08,5a3.92,3.92,0,0,1,4,4.2C20.07,12.6,15.44,17.34,12,19.79Z"/></svg>