<svg id="Layer_1" data-name="Layer 1" xmlns="http://www.w3.org/2000/svg" viewBox="0 0 24 24"><title>iconoteka_share_microsoft_b_s</title><path d="M21.28,8.47l-1.84.79a7,7,0,0,1-1,7.12A3.06,3.06,0,0,0,17,16a3,3,0,1,0,2.78,1.89A9,9,0,0,0,21.28,8.47ZM17,20.2A1.2,1.2,0,1,1,18.2,19,1.2,1.2,0,0,1,17,20.2ZM14.46,6.54A3,3,0,0,0,17.06,8a2.92,2.92,0,0,0,1.5-.41,3,3,0,0,0-3-5.19,3.12,3.12,0,0,0-.86.75,9,9,0,0,0-8.89,3.4l1.6,1.2A7,7,0,0,1,14.08,5.1,3,3,0,0,0,14.46,6.54ZM15.9,4.73A1.21,1.21,0,0,1,16.46,4a1.17,1.17,0,0,1,.6-.16,1.2,1.2,0,0,1,.6,2.24A1.2,1.2,0,0,1,15.9,4.73ZM6.49,14.52a3,3,0,0,0,1-1.06,3,3,0,0,0-1.1-4.09A2.92,2.92,0,0,0,4.94,9a3,3,0,0,0-1.5,5.6,2.81,2.81,0,0,0,1.07.35,9,9,0,0,0,7.4,6l.24-2A7,7,0,0,1,6.49,14.52Zm-.51-2a1.22,1.22,0,0,1-1,.6,1.12,1.12,0,0,1-.6-.16,1.2,1.2,0,0,1,.6-2.24,1.28,1.28,0,0,1,.6.16,1.24,1.24,0,0,1,.56.73A1.2,1.2,0,0,1,6,12.56Z"/></svg>