<svg xmlns="http://www.w3.org/2000/svg" viewBox="0 0 24 24"><defs><style>.cls-1{fill:none;}</style></defs><title>iconoteka_line_style_b_s</title><g id="Clear_3" data-name="Clear 3"><rect class="cls-1" width="24" height="24"/><rect x="3" y="19" width="2" height="2"/><rect x="19" y="19" width="2" height="2"/><rect x="15" y="19" width="2" height="2"/><rect x="11" y="19" width="2" height="2"/><rect x="7" y="19" width="2" height="2"/><rect x="3" y="14" width="8" height="2"/><rect x="13" y="14" width="8" height="2"/><rect x="3" y="9" width="18" height="2"/><path d="M18.12,4.13a2.25,2.25,0,0,1-3.24,0,4.25,4.25,0,0,0-5.76,0,2.55,2.55,0,0,1-1.62.68,2.55,2.55,0,0,1-1.62-.68A4.49,4.49,0,0,0,3,3V5a2.55,2.55,0,0,1,1.62.68A4.49,4.49,0,0,0,7.5,6.81a4.49,4.49,0,0,0,2.88-1.13,2.26,2.26,0,0,1,3.24,0A4.49,4.49,0,0,0,16.5,6.81a4.49,4.49,0,0,0,2.88-1.13A2.55,2.55,0,0,1,21,5V3A4.49,4.49,0,0,0,18.12,4.13Z"/></g></svg>