<svg id="Layer_1" data-name="Layer 1" xmlns="http://www.w3.org/2000/svg" viewBox="0 0 24 24"><title>iconoteka_network_settings__mobile_data_settings_b_a</title><path d="M4,20H6V16.6L4,18.4Zm4.67,0h2V12.4l-2,1.8Zm4.66,0h2V8.19l-2,1.8ZM20,4,18,5.79V20h2V4ZM10.74,5.61a4.13,4.13,0,0,0-.67-1.15l-1.4.62-.84-.49L7.66,3.07A3.51,3.51,0,0,0,7,3a3.51,3.51,0,0,0-.66.07L6.17,4.59l-.84.49-1.4-.62a4.13,4.13,0,0,0-.67,1.15l1.24.9v1l-1.24.9a4.13,4.13,0,0,0,.67,1.15l1.4-.62.84.49.17,1.52A3.51,3.51,0,0,0,7,11a3.51,3.51,0,0,0,.66-.07l.17-1.52.84-.49,1.4.62a4.13,4.13,0,0,0,.67-1.15L9.5,7.49v-1ZM7,8A1,1,0,1,1,8,7,1,1,0,0,1,7,8Z"/></svg>