<svg xmlns="http://www.w3.org/2000/svg" viewBox="0 0 24 24"><title>iconoteka_rounded_corner_l_a</title><g id="Clear_3" data-name="Clear 3"><path d="M5.19,3.5h.5V3h-.5Zm2.19,0h.5V3h-.5Zm2.18,0h.5V3h-.5ZM16.12,21h.5v-.5h-.5Zm-2.18,0h.5v-.5h-.5ZM5.19,21h.5v-.5h-.5Zm2.19,0h.5v-.5h-.5Zm2.18,0h.5v-.5h-.5Zm8.75,0h.5v-.5h-.5ZM3,7.88h.5v-.5H3Zm0,2.18h.5v-.5H3Zm0,8.75h.5v-.5H3Zm0-2.19h.5v-.5H3Zm0-2.18h.5v-.5H3ZM3,5.69h.5v-.5H3ZM3,21h.5v-.5H3Zm0-8.75h.5v-.5H3ZM3,3.5h.5V3H3ZM20.5,18.81H21v-.5h-.5Zm0-2.19H21v-.5h-.5Zm0-2.18H21v-.5h-.5Zm0,6.56H21v-.5h-.5Zm-8.75,0h.5v-.5h-.5ZM15,3H11.75v.5H15A5.5,5.5,0,0,1,20.5,9v3.25H21V9A6,6,0,0,0,15,3Z"/></g></svg>