<svg xmlns="http://www.w3.org/2000/svg" viewBox="0 0 24 24"><defs><style>.cls-1{fill:none;}</style></defs><title>iconoteka_border_style_b_s</title><g id="Clear_3" data-name="Clear 3"><rect class="cls-1" width="24" height="24"/><polygon points="19 3 19 19 3 19 3 21 19 21 21 21 21 19 21 3 19 3"/><rect x="3" y="3" width="2" height="2"/><rect x="15" y="3" width="2" height="2"/><rect x="7" y="3" width="2" height="2"/><rect x="3" y="11" width="2" height="2"/><rect x="11" y="3" width="2" height="2"/><rect x="3" y="7" width="2" height="2"/><rect x="3" y="15" width="2" height="2"/><polygon points="9 13.48 9 15 10.52 15 13.45 12.07 11.93 10.55 9 13.48"/><path d="M14.33,11.2l.74-.75a.6.6,0,0,0,0-.86l-.66-.66a.6.6,0,0,0-.86,0l-.75.74Z"/></g></svg>