<svg id="Layer_1" data-name="Layer 1" xmlns="http://www.w3.org/2000/svg" viewBox="0 0 24 24"><title>iconoteka_trash_full_m_f</title><path d="M16,5V3a2,2,0,0,0-2-2H10A2,2,0,0,0,8,3V5H3V6.5H21V5ZM14.5,5h-5V3a.5.5,0,0,1,.5-.5h4a.5.5,0,0,1,.5.5ZM6.26,22H17.74L19,8H5ZM14.35,9.82a1.2,1.2,0,1,1-1.2,1.2A1.2,1.2,0,0,1,14.35,9.82Zm0,4a1.2,1.2,0,1,1-1.2,1.2A1.2,1.2,0,0,1,14.35,13.78Zm0,4a1.2,1.2,0,1,1-1.2,1.2A1.2,1.2,0,0,1,14.35,17.73ZM9.65,9.82A1.2,1.2,0,1,1,8.45,11,1.2,1.2,0,0,1,9.65,9.82Zm0,4A1.2,1.2,0,1,1,8.45,15,1.2,1.2,0,0,1,9.65,13.78Zm0,4a1.2,1.2,0,1,1-1.2,1.2A1.2,1.2,0,0,1,9.65,17.73Z"/></svg>