<svg xmlns="http://www.w3.org/2000/svg" viewBox="0 0 24 24"><title>iconoteka_border_center_horizontal_r_a</title><g id="Clear_3" data-name="Clear 3"><path d="M4,8.67H3v1H4Zm-1,9.5H4v-1H3ZM4,5.83H3v1H4Zm-1,9.5H4v-1H3ZM20,9.67h1v-1H20Zm0,8.5h1v-1H20ZM20,6.83h1v-1H20Zm0,8.5h1v-1H20ZM12.5,8.67h-1v1h1Zm-1,9.5h1v-1h-1Zm1-12.34h-1v1h1Zm-1,9.5h1v-1h-1Zm0,5.67h1V20h-1ZM8.67,21h1V20h-1Zm8.5,0h1V20h-1ZM5.83,21h1V20h-1Zm8.5,0h1V20h-1ZM20,21h1V20H20ZM3,21H4V20H3ZM12.5,3h-1V4h1ZM9.67,3h-1V4h1Zm8.5,0h-1V4h1ZM6.83,3h-1V4h1Zm8.5,0h-1V4h1ZM20,3V4h1V3ZM4,3H3V4H4ZM3,12.5H21v-1H3Z"/></g></svg>