<svg id="Layer_1" data-name="Layer 1" xmlns="http://www.w3.org/2000/svg" viewBox="0 0 24 24"><title>iconoteka_share_microsoft_b_f</title><path d="M6.47,14.53a3,3,0,0,0,1.07-1.07,3,3,0,1,0-4.1,1.1,2.92,2.92,0,0,0,1.06.37,9,9,0,0,0,7.41,6l.24-2A7,7,0,0,1,6.47,14.53ZM21.28,8.47l-1.84.79a7,7,0,0,1-1,7.13A3,3,0,0,0,17,16a3,3,0,1,0,3,3,3.07,3.07,0,0,0-.21-1.1A9,9,0,0,0,21.28,8.47ZM14.46,6.54a3,3,0,1,0,1.1-4.1,3.12,3.12,0,0,0-.84.73A9,9,0,0,0,5.81,6.59l1.6,1.2a7,7,0,0,1,6.67-2.71A3,3,0,0,0,14.46,6.54Z"/></svg>