<svg id="Layer_1" data-name="Layer 1" xmlns="http://www.w3.org/2000/svg" viewBox="0 0 24 24"><title>iconoteka_trash_full_l_f</title><path d="M15,5V4a2,2,0,0,0-2-2H11A2,2,0,0,0,9,4V5H3v.5H21V5Zm-.5,0h-5V4A1.5,1.5,0,0,1,11,2.5h2A1.5,1.5,0,0,1,14.5,4ZM6.26,22H17.74L19.09,7H4.91ZM14.35,9.21a1.2,1.2,0,1,1-1.2,1.2A1.2,1.2,0,0,1,14.35,9.21Zm0,4a1.2,1.2,0,1,1-1.2,1.2A1.2,1.2,0,0,1,14.35,13.2Zm0,4a1.2,1.2,0,1,1-1.2,1.2A1.2,1.2,0,0,1,14.35,17.18Zm-4.7-8a1.2,1.2,0,1,1-1.2,1.2A1.2,1.2,0,0,1,9.65,9.21Zm0,4a1.2,1.2,0,1,1-1.2,1.2A1.2,1.2,0,0,1,9.65,13.2Zm0,4a1.2,1.2,0,1,1-1.2,1.2A1.2,1.2,0,0,1,9.65,17.18Z"/></svg>