<svg xmlns="http://www.w3.org/2000/svg" viewBox="0 0 24 24"><title>iconoteka_line_style_r_a</title><g id="Clear_3" data-name="Clear 3"><path d="M3,20.5H5v-1H3Zm16,0h2v-1H19Zm-4,0h2v-1H15Zm-4,0h2v-1H11Zm-4,0H9v-1H7Zm4-6H3v1h8Zm2,1h8v-1H13Zm-10-5H21v-1H3Zm15.43-6a2.72,2.72,0,0,1-3.86,0,3.77,3.77,0,0,0-5.14,0,3,3,0,0,1-1.93.79,3,3,0,0,1-1.93-.79A4,4,0,0,0,3,3.5v1a3,3,0,0,1,1.93.79,4,4,0,0,0,2.57,1,4,4,0,0,0,2.57-1,2.74,2.74,0,0,1,3.86,0,4,4,0,0,0,2.57,1,4,4,0,0,0,2.57-1A3,3,0,0,1,21,4.5v-1A4,4,0,0,0,18.43,4.52Z"/></g></svg>