<svg id="Layer_1" data-name="Layer 1" xmlns="http://www.w3.org/2000/svg" viewBox="0 0 24 24"><title>iconoteka_gear__settings__maintenance_l_s</title><path d="M19.64,10.71l2.81-2.16a11.71,11.71,0,0,0-.92-2.05,11.6,11.6,0,0,0-1.32-1.82L16.94,6,14.7,4.74l-.46-3.51a11,11,0,0,0-4.48,0L9.3,4.74,7.06,6,3.79,4.68A11.6,11.6,0,0,0,2.47,6.5a11.71,11.71,0,0,0-.92,2.05l2.81,2.16v2.58L1.55,15.45a11.71,11.71,0,0,0,.92,2.05,11.6,11.6,0,0,0,1.32,1.82L7.06,18,9.3,19.26l.46,3.51a11,11,0,0,0,4.48,0l.46-3.51L16.94,18l3.27,1.35a11.6,11.6,0,0,0,1.32-1.82,11.71,11.71,0,0,0,.92-2.05l-2.81-2.16Zm2.22,4.91a10.56,10.56,0,0,1-.77,1.63,10.7,10.7,0,0,1-1,1.47l-2.94-1.21-.23-.1-.21.13-2.24,1.29-.21.12,0,.24-.42,3.16a10.76,10.76,0,0,1-3.58,0l-.42-3.16,0-.24-.21-.12L7.31,17.54l-.21-.13-.23.1L3.93,18.72a10.7,10.7,0,0,1-1-1.47,10.56,10.56,0,0,1-.77-1.63l2.53-1.93.19-.15V10.46l-.19-.15L2.14,8.38a10.56,10.56,0,0,1,.77-1.63,10.7,10.7,0,0,1,1-1.47L6.87,6.49l.23.1.21-.13L9.55,5.17l.21-.12,0-.24.42-3.16a10.76,10.76,0,0,1,3.58,0l.42,3.16,0,.24.21.12,2.24,1.29.21.13.23-.1,2.94-1.21a10.7,10.7,0,0,1,1,1.47,10.56,10.56,0,0,1,.77,1.63l-2.53,1.93-.19.15v3.08l.19.15ZM12,8.5A3.5,3.5,0,1,0,15.5,12,3.5,3.5,0,0,0,12,8.5ZM12,15a3,3,0,1,1,3-3A3,3,0,0,1,12,15Z"/></svg>