<svg id="Layer_1" data-name="Layer 1" xmlns="http://www.w3.org/2000/svg" viewBox="0 0 24 24"><defs><style>.cls-1{fill:none;}</style></defs><title>iconoteka_settings_b_s</title><rect class="cls-1" width="24" height="24"/><path d="M12,8.2A3.8,3.8,0,1,0,15.8,12,3.8,3.8,0,0,0,12,8.2ZM12,14a2,2,0,1,1,2-2A2,2,0,0,1,12,14Z"/><path d="M20.29,11.16l2.37-2-.21-.65a11.78,11.78,0,0,0-.92-2.05,11.26,11.26,0,0,0-1.32-1.82l-.46-.51L16.88,5.24,15.41,4.4l-.5-3-.67-.14a11,11,0,0,0-4.48,0l-.67.14-.5,3-1.47.84L4.25,4.17l-.46.51A11.26,11.26,0,0,0,2.47,6.5a11.78,11.78,0,0,0-.92,2.05l-.21.65,2.37,2v1.68l-2.37,2,.21.65a11.78,11.78,0,0,0,.92,2.05,11.26,11.26,0,0,0,1.32,1.82l.46.51,2.87-1.07,1.47.84.5,3,.67.14a11,11,0,0,0,4.48,0l.67-.14.5-3,1.47-.84,2.87,1.07.46-.51a11.26,11.26,0,0,0,1.32-1.82,11.78,11.78,0,0,0,.92-2.05l.21-.65-2.37-2Zm0,4.29a8.53,8.53,0,0,1-.52,1.05,9,9,0,0,1-.64,1l-2.46-.92L13.6,18.34l-.43,2.58a8.6,8.6,0,0,1-2.34,0l-.43-2.58L7.31,16.55l-2.46.92a9,9,0,0,1-.64-1,8.53,8.53,0,0,1-.52-1.05l2-1.66V10.21l-2-1.66A8.53,8.53,0,0,1,4.21,7.5a9,9,0,0,1,.64-1l2.46.92L10.4,5.66l.43-2.58a8.6,8.6,0,0,1,2.34,0l.43,2.58,3.09,1.79,2.46-.92a9,9,0,0,1,.64,1,8.53,8.53,0,0,1,.52,1.05l-2,1.66v3.58Z"/></svg>