<svg id="Layer_1" data-name="Layer 1" xmlns="http://www.w3.org/2000/svg" viewBox="0 0 24 24"><title>iconoteka_network_settings__mobile_data_settings_l_a</title><path d="M9.17,20h.5V13.3l-.5.45ZM4,20h.5V18L4,18.4Zm10.33,0h.5V8.64l-.5.45ZM20,4l-.49.44V20H20V4ZM10.81,5.81A3.81,3.81,0,0,0,9.94,4.3l-1.28.59L8,4.51,7.87,3.1A4.14,4.14,0,0,0,7,3a4.14,4.14,0,0,0-.87.1L6,4.51l-.66.38L4.06,4.3a3.81,3.81,0,0,0-.87,1.51l1.15.81v.76l-1.15.81A3.81,3.81,0,0,0,4.06,9.7l1.28-.59L6,9.49l.13,1.41A4.14,4.14,0,0,0,7,11a4.14,4.14,0,0,0,.87-.1L8,9.49l.66-.38,1.28.59a3.81,3.81,0,0,0,.87-1.51L9.66,7.38V6.62ZM9.4,7.75l.87.62a3.11,3.11,0,0,1-.2.41,2.68,2.68,0,0,1-.25.37l-1-.45-.21-.09-.2.11-.67.38-.2.12,0,.23-.1,1.07-.45,0-.45,0-.1-1.07,0-.23-.2-.12-.67-.38-.2-.11-.21.09-1,.45a2.26,2.26,0,0,1-.25-.38,2.49,2.49,0,0,1-.2-.4l.87-.62.19-.13V6.38L4.6,6.25l-.87-.62a3.11,3.11,0,0,1,.2-.41,2.68,2.68,0,0,1,.25-.37l1,.45.21.09.2-.11.67-.38.2-.12,0-.23.1-1.07a3.39,3.39,0,0,1,.9,0l.1,1.07,0,.23.2.12.67.38.2.11.21-.09,1-.45a2.26,2.26,0,0,1,.25.38,2.49,2.49,0,0,1,.2.4l-.87.62-.19.13V7.62ZM7,5.82A1.18,1.18,0,1,0,8.18,7,1.18,1.18,0,0,0,7,5.82ZM7,7.73A.73.73,0,1,1,7.73,7,.73.73,0,0,1,7,7.73Z"/></svg>