<svg xmlns="http://www.w3.org/2000/svg" viewBox="0 0 24 24"><title>iconoteka_notification_off_l_s</title><g id="Clear_3" data-name="Clear 3"><path d="M20.87,16A3,3,0,0,1,20,13.89V9A8,8,0,0,0,4,9v4.89A3,3,0,0,1,3.13,16L2,17.14V20H8.66a3.48,3.48,0,0,0,6.68,0H22V17.14ZM12,22a3,3,0,0,1-2.81-2h5.62A3,3,0,0,1,12,22Zm9.5-2.5H2.5V17.35l1-1a3.47,3.47,0,0,0,1-2.47V9a7.5,7.5,0,0,1,15,0v4.89a3.47,3.47,0,0,0,1,2.47l1,1ZM14.26,8.39,12,10.65,9.74,8.39l-.35.35L11.65,11,9.39,13.26l.35.35L12,11.35l2.26,2.26.35-.35L12.35,11l2.26-2.26Z"/></g></svg>