<svg id="Layer_1" data-name="Layer 1" xmlns="http://www.w3.org/2000/svg" viewBox="0 0 24 24"><title>iconoteka_trash_full_l_s</title><path d="M9.85,19.25a1.46,1.46,0,1,0-1.46-1.46A1.46,1.46,0,0,0,9.85,19.25Zm0-2.42a1,1,0,1,1-1,1A1,1,0,0,1,9.85,16.83Zm4.3,2.42a1.46,1.46,0,1,0-1.46-1.46A1.46,1.46,0,0,0,14.15,19.25Zm0-2.42a1,1,0,1,1-1,1A1,1,0,0,1,14.15,16.83Zm-4.3-2A1.46,1.46,0,1,0,8.39,13.4,1.47,1.47,0,0,0,9.85,14.86Zm0-2.42a1,1,0,1,1-1,1A1,1,0,0,1,9.85,12.44Zm4.3,2.42a1.46,1.46,0,1,0-1.46-1.46A1.46,1.46,0,0,0,14.15,14.86Zm0-2.42a1,1,0,1,1-1,1A1,1,0,0,1,14.15,12.44Zm-4.3-2A1.46,1.46,0,1,0,8.39,9,1.46,1.46,0,0,0,9.85,10.46ZM9.85,8a1,1,0,1,1-1,1A1,1,0,0,1,9.85,8Zm4.3,2.42A1.46,1.46,0,1,0,12.69,9,1.46,1.46,0,0,0,14.15,10.46Zm0-2.42a1,1,0,1,1-1,1A1,1,0,0,1,14.15,8ZM15,5V4a2,2,0,0,0-2-2H11A2,2,0,0,0,9,4V5H3v.5H4.77L6.26,22H17.74L19.23,5.5H21V5ZM9.5,4A1.5,1.5,0,0,1,11,2.5h2A1.5,1.5,0,0,1,14.5,4V5h-5Zm7.78,17.5H6.72L5.28,5.5H18.72Z"/></svg>