<svg id="Layer_1" data-name="Layer 1" xmlns="http://www.w3.org/2000/svg" viewBox="0 0 24 24"><defs><style>.cls-1{fill:none;}</style></defs><title>iconoteka_celular_off_b_s</title><rect class="cls-1" width="24" height="24"/><polygon points="9 19 11 19 11 12.47 9 14.33 9 19"/><polygon points="7 19 7 16.2 4 19 7 19"/><polygon points="13 19 15 19 15 8.73 13 10.6 13 19"/><polygon points="17 6.87 17 19 19 19 19 5 17 6.87"/><polygon points="4.82 10.32 7 8.13 9.18 10.32 10.32 9.18 8.13 7 10.32 4.82 9.18 3.68 7 5.87 4.82 3.68 3.68 4.82 5.87 7 3.68 9.18 4.82 10.32"/></svg>