<svg xmlns="http://www.w3.org/2000/svg" viewBox="0 0 24 24"><title>iconoteka_line_style_l_a</title><g id="Clear_3" data-name="Clear 3"><path d="M3,20.25H5v-.5H3Zm16,0h2v-.5H19Zm-4,0h2v-.5H15Zm-4,0h2v-.5H11Zm-4,0H9v-.5H7Zm4-5.5H3v.5h8Zm2,.5h8v-.5H13Zm-10-5H21v-.5H3ZM18.59,4.71a3,3,0,0,1-4.18,0,3.53,3.53,0,0,0-4.82,0,3.26,3.26,0,0,1-2.09.85,3.26,3.26,0,0,1-2.09-.85A3.78,3.78,0,0,0,3,3.75v.5a3.31,3.31,0,0,1,2.09.85,3.78,3.78,0,0,0,2.41,1,3.78,3.78,0,0,0,2.41-1,3,3,0,0,1,4.18,0,3.78,3.78,0,0,0,2.41,1,3.78,3.78,0,0,0,2.41-1A3.31,3.31,0,0,1,21,4.25v-.5A3.78,3.78,0,0,0,18.59,4.71Z"/></g></svg>