<svg xmlns="http://www.w3.org/2000/svg" viewBox="0 0 24 24"><title>iconoteka_notification_off_m_s</title><g id="Clear_3" data-name="Clear 3"><path d="M20.87,15A3,3,0,0,1,20,12.89V9A8,8,0,0,0,4,9v3.89A3,3,0,0,1,3.13,15L2,16.14V20H8.15a4,4,0,0,0,7.7,0H22V16.14ZM12,21.5A2.49,2.49,0,0,1,9.72,20h4.56A2.49,2.49,0,0,1,12,21.5Zm8.5-3H3.5V16.76l.69-.7A4.46,4.46,0,0,0,5.5,12.89V9a6.5,6.5,0,0,1,13,0v3.89a4.46,4.46,0,0,0,1.31,3.17l.69.7ZM13.94,8.07,12,10,10.06,8.07l-1,1L11,11,9.07,12.94l1,1L12,12l1.94,1.94,1-1L13,11l1.94-1.94Z"/></g></svg>