<svg xmlns="http://www.w3.org/2000/svg" viewBox="0 0 24 24"><title>iconoteka_bluetooth_settings_r_a</title><g id="Clear_3" data-name="Clear 3"><path d="M21.66,12l1.22-.87A3.63,3.63,0,0,0,22.46,10a4,4,0,0,0-.75-.92l-1.38.62h0L20.18,8.2a3.58,3.58,0,0,0-2.36,0l-.14,1.49h0l-1.38-.62a4,4,0,0,0-.75.92,3.63,3.63,0,0,0-.42,1.12l1.22.87v0l-1.22.87A3.63,3.63,0,0,0,15.54,14a4,4,0,0,0,.75.92l1.38-.62h0l.14,1.49a3.58,3.58,0,0,0,2.36,0l.14-1.49h0l1.38.62a4,4,0,0,0,.75-.92,3.63,3.63,0,0,0,.42-1.12L21.66,12Zm.36,1.2a2.46,2.46,0,0,1-.21.43,2,2,0,0,1-.27.4l-.9-.4-.36-.16-.33.2-.33.19,0,.38-.1,1a2.9,2.9,0,0,1-1,0l-.1-1-.05-.39L18,13.65l-.33-.19-.35.16-.9.4a2,2,0,0,1-.27-.4,2.46,2.46,0,0,1-.21-.43l.8-.57.31-.24v-.77l-.31-.23-.8-.57a2.46,2.46,0,0,1,.21-.43,2,2,0,0,1,.27-.4l.9.4.36.16.33-.2.33-.19,0-.38.1-1a2.9,2.9,0,0,1,1,0l.1,1,.05.39.33.19.33.19.35-.16.9-.4a2,2,0,0,1,.27.4,2.46,2.46,0,0,1,.21.43l-.8.57-.31.24v.77l.31.23Zm-3-1.94a.75.75,0,1,0,.75.75A.76.76,0,0,0,19,11.25ZM6.55,1.48v9.58L1.41,7.58l-.56.83L6.16,12,.85,15.59l.56.83,5.14-3.48v9.58L15,16.79,7.94,12,15,7.21Zm6.69,15.31L7.55,20.64v-7.7ZM7.55,11.06V3.36l5.69,3.85Z"/></g></svg>