<svg xmlns="http://www.w3.org/2000/svg" viewBox="0 0 24 24"><title>iconoteka_border_left_l_a</title><g id="Clear_3" data-name="Clear 3"><path d="M16.12,3.5h.5V3h-.5Zm-2.18,0h.5V3h-.5Zm-8.75,0h.5V3h-.5Zm2.19,0h.5V3h-.5Zm2.18,0h.5V3h-.5Zm8.75,0h.5V3h-.5ZM16.12,21h.5v-.5h-.5Zm-2.18,0h.5v-.5h-.5ZM5.19,21h.5v-.5h-.5Zm2.19,0h.5v-.5h-.5Zm2.18,0h.5v-.5h-.5Zm8.75,0h.5v-.5h-.5Zm-2.19-8.75h.5v-.5h-.5Zm-2.18,0h.5v-.5h-.5Zm-8.75,0h.5v-.5h-.5Zm2.19,0h.5v-.5h-.5Zm2.18,0h.5v-.5h-.5Zm8.75,0h.5v-.5h-.5ZM3,21h.5V3H3ZM20.5,7.88H21v-.5h-.5Zm0,2.18H21v-.5h-.5Zm0,8.75H21v-.5h-.5Zm0-2.19H21v-.5h-.5Zm0-2.18H21v-.5h-.5Zm0-8.75H21v-.5h-.5ZM20.5,21H21v-.5h-.5Zm0-8.75H21v-.5h-.5ZM20.5,3v.5H21V3ZM11.75,7.88h.5v-.5h-.5Zm0,2.18h.5v-.5h-.5Zm0,8.75h.5v-.5h-.5Zm0-2.19h.5v-.5h-.5Zm0-2.18h.5v-.5h-.5Zm0-8.75h.5v-.5h-.5Zm0,15.31h.5v-.5h-.5Zm0-8.75h.5v-.5h-.5Zm0-8.75h.5V3h-.5Z"/></g></svg>