<svg id="Layer_1" data-name="Layer 1" xmlns="http://www.w3.org/2000/svg" viewBox="0 0 24 24"><title>iconoteka_network_check_r_a</title><path d="M22.29,8.52,11.37,19.44a.51.51,0,0,0,0,.71.5.5,0,0,0,.71,0L23,9.23Zm-2.51-.31.74-.74A16,16,0,0,0,.69,9.69l.72.72a14.87,14.87,0,0,1,18.37-2.2Zm-3.25,3.25.74-.75A11.46,11.46,0,0,0,3.83,12.83l.71.71A10.49,10.49,0,0,1,12,10.42,10.6,10.6,0,0,1,16.53,11.46ZM13,15l.84-.84A6.88,6.88,0,0,0,12,13.85,7.08,7.08,0,0,0,7,16l.72.72A6.11,6.11,0,0,1,12,14.85,5.91,5.91,0,0,1,13,15Z"/></svg>