<svg id="Layer_1" data-name="Layer 1" xmlns="http://www.w3.org/2000/svg" viewBox="0 0 24 24"><defs><style>.cls-1{fill:none;}</style></defs><title>iconoteka_signal_wifi_3_b_s</title><rect class="cls-1" width="24" height="24"/><path d="M12,9.22a11.73,11.73,0,0,0-8.33,3.45l1.41,1.41a9.8,9.8,0,0,1,13.84,0l1.41-1.41A11.73,11.73,0,0,0,12,9.22Z"/><path d="M6.66,15.66l1.42,1.42a5.53,5.53,0,0,1,7.84,0l1.42-1.42a7.56,7.56,0,0,0-10.68,0Z"/><path d="M9.68,18.68,12,21l2.32-2.32a3.28,3.28,0,0,0-4.64,0Z"/></svg>