<svg xmlns="http://www.w3.org/2000/svg" viewBox="0 0 24 24"><defs><style>.cls-1{fill:none;}</style></defs><title>iconoteka_control_point_duplicate_b_s</title><g id="Clear_3" data-name="Clear 3"><rect class="cls-1" width="24" height="24"/><path d="M13.14,17.8A5,5,0,1,1,6.2,10.86,8.76,8.76,0,0,1,6,9c0-.11,0-.21,0-.32a7,7,0,1,0,9.3,9.3L15,18A8.76,8.76,0,0,1,13.14,17.8Z"/><path d="M15,2a7,7,0,1,0,7,7A7,7,0,0,0,15,2Zm0,12a5,5,0,1,1,5-5A5,5,0,0,1,15,14Z"/><polygon points="15.8 6 14.2 6 14.2 8.2 12 8.2 12 9.8 14.2 9.8 14.2 12 15.8 12 15.8 9.8 18 9.8 18 8.2 15.8 8.2 15.8 6"/></g></svg>