<svg id="Layer_1" data-name="Layer 1" xmlns="http://www.w3.org/2000/svg" viewBox="0 0 24 24"><title>iconoteka_search_edit_l_a</title><path d="M15.83,15.47a8,8,0,1,0-.36.36l5.85,5.85.36-.36ZM10,17.5A7.5,7.5,0,1,1,17.5,10,7.5,7.5,0,0,1,10,17.5ZM12.58,6.92a.73.73,0,0,0-.52-.21.77.77,0,0,0-.53.21L7,11.46V13H8.54l4.54-4.53a.76.76,0,0,0,0-1.05ZM8.33,12.5H7.5v-.83l3.39-3.39.83.83Zm4.39-4.39-.65.65-.83-.83.65-.65a.24.24,0,0,1,.17-.07.25.25,0,0,1,.17.07l.49.49a.25.25,0,0,1,.07.17A.24.24,0,0,1,12.72,8.11Z"/></svg>