<svg xmlns="http://www.w3.org/2000/svg" viewBox="0 0 24 24"><title>iconoteka_applications__apps_a_f</title><g id="Clear_3" data-name="Clear 3"><path d="M19.2,3H14.8A1.81,1.81,0,0,0,13,4.8V9.2A1.81,1.81,0,0,0,14.8,11h4.4A1.81,1.81,0,0,0,21,9.2V4.8A1.81,1.81,0,0,0,19.2,3ZM9.2,3H4.8A1.81,1.81,0,0,0,3,4.8V9.2A1.81,1.81,0,0,0,4.8,11H9.2A1.81,1.81,0,0,0,11,9.2V4.8A1.81,1.81,0,0,0,9.2,3Zm10,10H14.8A1.81,1.81,0,0,0,13,14.8v4.4A1.81,1.81,0,0,0,14.8,21h4.4A1.81,1.81,0,0,0,21,19.2V14.8A1.81,1.81,0,0,0,19.2,13Zm-10,0H4.8A1.81,1.81,0,0,0,3,14.8v4.4A1.81,1.81,0,0,0,4.8,21H9.2A1.81,1.81,0,0,0,11,19.2V14.8A1.81,1.81,0,0,0,9.2,13Z"/></g></svg>