<svg id="Layer_1" data-name="Layer 1" xmlns="http://www.w3.org/2000/svg" viewBox="0 0 24 24"><title>iconoteka_gear__settings__maintenance_a_f</title><path d="M19.64,10.71l2.81-2.16a11.71,11.71,0,0,0-.92-2.05,11.6,11.6,0,0,0-1.32-1.82L16.94,6,14.7,4.74l-.46-3.51a11,11,0,0,0-4.48,0L9.3,4.74,7.06,6,3.79,4.68A11.6,11.6,0,0,0,2.47,6.5a11.71,11.71,0,0,0-.92,2.05l2.81,2.16v2.58L1.55,15.45a11.71,11.71,0,0,0,.92,2.05,11.6,11.6,0,0,0,1.32,1.82L7.06,18,9.3,19.26l.46,3.51a11,11,0,0,0,4.48,0l.46-3.51L16.94,18l3.27,1.35a11.6,11.6,0,0,0,1.32-1.82,11.71,11.71,0,0,0,.92-2.05l-2.81-2.16ZM12,15.5A3.5,3.5,0,1,1,15.5,12,3.5,3.5,0,0,1,12,15.5Z"/></svg>