<svg xmlns="http://www.w3.org/2000/svg" viewBox="0 0 24 24"><title>iconoteka_border_right_m_a</title><g id="Clear_3" data-name="Clear 3"><path d="M15.38,21h1.5V19.5h-1.5ZM7.12,21h1.5V19.5H7.12Zm8.26-8.25h1.5v-1.5h-1.5Zm-8.26,0h1.5v-1.5H7.12ZM15.38,4.5h1.5V3h-1.5Zm-8.26,0h1.5V3H7.12ZM19.5,3V21H21V3ZM11.25,4.5h1.5V3h-1.5Zm0,4.12h1.5V7.12h-1.5Zm0,4.13h1.5v-1.5h-1.5Zm0,4.13h1.5v-1.5h-1.5Zm0,4.12h1.5V19.5h-1.5ZM3,4.5H4.5V3H3ZM3,8.62H4.5V7.12H3Zm0,4.13H4.5v-1.5H3Zm0,4.13H4.5v-1.5H3ZM3,21H4.5V19.5H3Z"/></g></svg>