<svg id="Layer_1" data-name="Layer 1" xmlns="http://www.w3.org/2000/svg" viewBox="0 0 24 24"><defs><style>.cls-1{fill:none;}</style></defs><title>iconoteka_search_edit_b_s</title><rect class="cls-1" width="24" height="24"/><polygon points="8 12.48 8 14 9.52 14 12.45 11.07 10.93 9.55 8 12.48"/><path d="M13.41,7.93a.6.6,0,0,0-.86,0l-.75.74,1.53,1.53.74-.75a.6.6,0,0,0,0-.86Z"/><path d="M22.71,21.29l-5.4-5.39A7.92,7.92,0,0,0,19,11a8,8,0,1,0-8,8,7.92,7.92,0,0,0,4.9-1.69l5.39,5.4ZM11,17a6,6,0,1,1,6-6A6,6,0,0,1,11,17Z"/></svg>