<svg xmlns="http://www.w3.org/2000/svg" viewBox="0 0 24 24"><defs><style>.cls-1{fill:none;}</style></defs><title>iconoteka_chart_multiple_b_s</title><g id="Clear_3" data-name="Clear 3"><rect class="cls-1" width="24" height="24"/><rect x="19" y="12" width="2" height="9"/><rect x="15" y="14" width="2" height="7"/><path d="M7.5,12A4.5,4.5,0,1,0,12,16.5,4.51,4.51,0,0,0,7.5,12Zm0,7a2.5,2.5,0,0,1,0-5v2.54H10A2.51,2.51,0,0,1,7.5,19Z"/><polygon points="20.12 3.07 14.9 6.9 9.68 3.06 2.69 8.19 3.87 9.81 9.68 5.54 14.9 9.39 21.31 4.68 20.12 3.07"/></g></svg>