<svg id="Layer_1" data-name="Layer 1" xmlns="http://www.w3.org/2000/svg" viewBox="0 0 24 24"><title>iconoteka_wifi_lock_l_a</title><path d="M12,9.08a11.91,11.91,0,0,0-8.42,3.5l.36.36A11.34,11.34,0,0,1,12,9.58ZM12,5A15.91,15.91,0,0,0,.69,9.69l.36.36A15.44,15.44,0,0,1,12,5.5ZM9.36,18.36l.35.35a3.21,3.21,0,0,1,4.58,0l.35-.35a3.69,3.69,0,0,0-5.28,0ZM6.47,15.47l.35.35a7.32,7.32,0,0,1,10.36,0l.35-.35a7.8,7.8,0,0,0-11.06,0ZM20,6V5a2,2,0,0,0-4,0V6H15v4h6V6ZM16.5,5a1.5,1.5,0,0,1,3,0V6h-3Zm4,4.5h-5v-3h5Z"/></svg>