<svg xmlns="http://www.w3.org/2000/svg" viewBox="0 0 24 24"><title>iconoteka_border_bottom_m_a</title><g id="Clear_3" data-name="Clear 3"><path d="M3,21H21V19.5H3Zm1.5-5.62H3v1.5H4.5Zm0-8.26H3v1.5H4.5Zm8.25,8.26h-1.5v1.5h1.5Zm0-8.26h-1.5v1.5h1.5Zm6.75,9.76H21v-1.5H19.5Zm0-8.26H21V7.12H19.5Zm0,4.13H21v-1.5H19.5Zm-2.62-1.5h-1.5v1.5h1.5Zm-4.13,0h-1.5v1.5h1.5Zm-4.13,0H7.12v1.5h1.5Zm-4.12,0H3v1.5H4.5ZM19.5,3V4.5H21V3ZM16.88,3h-1.5V4.5h1.5ZM12.75,3h-1.5V4.5h1.5ZM8.62,3H7.12V4.5h1.5ZM4.5,3H3V4.5H4.5Z"/></g></svg>