<svg xmlns="http://www.w3.org/2000/svg" viewBox="0 0 24 24"><title>iconoteka_opacity_m_s</title><g id="Clear_3" data-name="Clear 3"><path d="M16.68,7.32a7.5,7.5,0,1,0-9.36,9.36,7.5,7.5,0,1,0,9.36-9.36ZM3.5,9.5A6,6,0,0,1,15,7L14.5,7A7.5,7.5,0,0,0,7,14.5c0,.15,0,.31,0,.46A6,6,0,0,1,3.5,9.5Zm5,5a5.94,5.94,0,0,1,.39-2.11l2.72,2.72a5.94,5.94,0,0,1-2.11.39,5.62,5.62,0,0,1-.92-.08A5.62,5.62,0,0,1,8.5,14.5ZM13,14.37,9.63,11A6,6,0,0,1,11,9.63L14.37,13A6,6,0,0,1,13,14.37ZM15.5,9.5a5.94,5.94,0,0,1-.39,2.11L12.39,8.89A5.94,5.94,0,0,1,14.5,8.5a5.62,5.62,0,0,1,.92.08A5.62,5.62,0,0,1,15.5,9.5Zm-1,11A6,6,0,0,1,9,17l.46,0A7.5,7.5,0,0,0,17,9.5c0-.15,0-.31,0-.46A6,6,0,0,1,14.5,20.5Z"/></g></svg>