<svg id="Layer_1" data-name="Layer 1" xmlns="http://www.w3.org/2000/svg" viewBox="0 0 24 24"><title>iconoteka_trash_partly_full_b_s</title><path d="M19.27,5H16V3a2,2,0,0,0-2-2H10A2,2,0,0,0,8,3V5H3V7H4.91L6.26,22H17.74L19.09,7H21V5ZM10,3h4V5H10Zm5.91,17H8.09L6.92,7H17.08Zm-5.68-4.19a1.2,1.2,0,1,0,1.2,1.2A1.2,1.2,0,0,0,10.23,15.81Zm3.54,0A1.2,1.2,0,1,0,15,17,1.2,1.2,0,0,0,13.77,15.81ZM10.23,12.2a1.2,1.2,0,1,0,1.2,1.2A1.2,1.2,0,0,0,10.23,12.2Zm3.54,0A1.2,1.2,0,1,0,15,13.4,1.2,1.2,0,0,0,13.77,12.2Z"/></svg>