<svg id="Layer_1" data-name="Layer 1" xmlns="http://www.w3.org/2000/svg" viewBox="0 0 24 24"><title>iconoteka_trash_full_m_s</title><path d="M10.23,18.21A1.2,1.2,0,1,0,9,17,1.2,1.2,0,0,0,10.23,18.21Zm3.54,0a1.2,1.2,0,1,0-1.2-1.2A1.2,1.2,0,0,0,13.77,18.21ZM10.23,14.6A1.2,1.2,0,1,0,9,13.4,1.2,1.2,0,0,0,10.23,14.6Zm3.54,0a1.2,1.2,0,1,0-1.2-1.2A1.2,1.2,0,0,0,13.77,14.6ZM10.23,11A1.2,1.2,0,1,0,9,9.78,1.2,1.2,0,0,0,10.23,11Zm3.54,0a1.2,1.2,0,1,0-1.2-1.2A1.2,1.2,0,0,0,13.77,11ZM16,5V3a2,2,0,0,0-2-2H10A2,2,0,0,0,8,3V5H3V6.5H4.86L6.26,22H17.74l1.4-15.5H21V5ZM9.5,3a.5.5,0,0,1,.5-.5h4a.5.5,0,0,1,.5.5V5h-5Zm6.86,17.5H7.64L6.37,6.5H17.63Z"/></svg>