<svg id="Layer_1" data-name="Layer 1" xmlns="http://www.w3.org/2000/svg" viewBox="0 0 24 24"><title>iconoteka_gear__settings__maintenance_r_s</title><path d="M19.64,10.71l2.81-2.16a11.71,11.71,0,0,0-.92-2.05,11.6,11.6,0,0,0-1.32-1.82L16.94,6,14.7,4.74l-.46-3.51a11,11,0,0,0-4.48,0L9.3,4.74,7.06,6,3.79,4.68A11.6,11.6,0,0,0,2.47,6.5a11.71,11.71,0,0,0-.92,2.05l2.81,2.16v2.58L1.55,15.45a11.71,11.71,0,0,0,.92,2.05,11.6,11.6,0,0,0,1.32,1.82L7.06,18,9.3,19.26l.46,3.51a11,11,0,0,0,4.48,0l.46-3.51L16.94,18l3.27,1.35a11.6,11.6,0,0,0,1.32-1.82,11.71,11.71,0,0,0,.92-2.05l-2.81-2.16Zm1.61,5.08A10.41,10.41,0,0,1,20.66,17a9.11,9.11,0,0,1-.75,1.12l-2.59-1.07-.46-.19-.42.24L14.2,18.39l-.43.25-.06.49-.37,2.78a10,10,0,0,1-2.68,0l-.37-2.78-.06-.49-.43-.25L7.56,17.1l-.42-.24-.46.19L4.09,18.12A9.11,9.11,0,0,1,3.34,17a10.41,10.41,0,0,1-.59-1.21L5,14.08l.39-.3V10.22L5,9.92,2.75,8.21A10.41,10.41,0,0,1,3.34,7a9.11,9.11,0,0,1,.75-1.12L6.68,7l.46.19.42-.24L9.8,5.61l.43-.25.06-.49.37-2.78a10,10,0,0,1,2.68,0l.37,2.78.06.49.43.25L16.44,6.9l.42.24L17.32,7l2.59-1.07A9.11,9.11,0,0,1,20.66,7a10.41,10.41,0,0,1,.59,1.21L19,9.92l-.39.3v3.56l.39.3ZM12,8.5A3.5,3.5,0,1,0,15.5,12,3.5,3.5,0,0,0,12,8.5Zm0,6A2.5,2.5,0,1,1,14.5,12,2.5,2.5,0,0,1,12,14.5Z"/></svg>