<svg id="Layer_1" data-name="Layer 1" xmlns="http://www.w3.org/2000/svg" viewBox="0 0 24 24"><defs><style>.cls-1{fill:none;}</style></defs><title>iconoteka_network_settings__mobile_data_settings_b_s</title><rect class="cls-1" width="24" height="24"/><path d="M8.68,8.84l1.41.81.75-1.3-1.4-.81a2.46,2.46,0,0,0,0-1.08l1.4-.81-.75-1.3-1.41.81a2.45,2.45,0,0,0-.93-.53V3H6.25V4.63a2.45,2.45,0,0,0-.93.53L3.91,4.35l-.75,1.3,1.4.81a2.46,2.46,0,0,0,0,1.08l-1.4.81.75,1.3,1.41-.81a2.45,2.45,0,0,0,.93.53V11h1.5V9.37A2.45,2.45,0,0,0,8.68,8.84ZM7,6A1,1,0,1,1,6,7,1,1,0,0,1,7,6Z"/><polygon points="9 19 11 19 11 12.47 9 14.33 9 19"/><polygon points="7 19 7 16.2 4 19 7 19"/><polygon points="13 19 15 19 15 8.73 13 10.6 13 19"/><polygon points="17 6.87 17 19 19 19 19 5 17 6.87"/></svg>