<svg xmlns="http://www.w3.org/2000/svg" viewBox="0 0 24 24"><title>iconoteka_border_style_l_a</title><g id="Clear_3" data-name="Clear 3"><path d="M7.88,3h-.5v.5h.5Zm2.18,0h-.5v.5h.5Zm8.75,0h-.5v.5h.5ZM16.62,3h-.5v.5h.5ZM14.44,3h-.5v.5h.5ZM5.69,3h-.5v.5h.5ZM3.5,16.12H3v.5h.5Zm0-2.18H3v.5h.5Zm0-8.75H3v.5h.5Zm0,2.19H3v.5h.5Zm0,2.18H3v.5h.5Zm0,8.75H3v.5h.5ZM3.5,3H3v.5h.5Zm0,8.75H3v.5h.5ZM12.25,3h-.5v.5h.5ZM20.5,3V20.5H3V21H21V3Zm-5.42,7.47a.76.76,0,0,0,0-1.05l-.5-.5a.73.73,0,0,0-.52-.21.77.77,0,0,0-.53.21L9,13.46V15h1.54ZM13.89,9.28a.24.24,0,0,1,.17-.07.25.25,0,0,1,.17.07l.49.49a.25.25,0,0,1,.07.17.24.24,0,0,1-.07.17l-.65.65-.83-.83ZM9.5,14.5v-.83l3.39-3.39.83.83L10.33,14.5Z"/></g></svg>