<svg id="Layer_1" data-name="Layer 1" xmlns="http://www.w3.org/2000/svg" viewBox="0 0 24 24"><title>iconoteka_trash_full_r_f</title><path d="M15,5V4a2,2,0,0,0-2-2H11A2,2,0,0,0,9,4V5H3V6H21V5ZM14,5H10V4a1,1,0,0,1,1-1h2a1,1,0,0,1,1,1ZM6.24,21.84H17.49L18.83,7H4.9ZM14.35,9.21a1.2,1.2,0,1,1-1.2,1.2A1.2,1.2,0,0,1,14.35,9.21Zm0,4a1.2,1.2,0,1,1-1.2,1.2A1.2,1.2,0,0,1,14.35,13.2Zm0,4a1.2,1.2,0,1,1-1.2,1.2A1.2,1.2,0,0,1,14.35,17.18Zm-4.7-8a1.2,1.2,0,1,1-1.2,1.2A1.2,1.2,0,0,1,9.65,9.21Zm0,4a1.2,1.2,0,1,1-1.2,1.2A1.2,1.2,0,0,1,9.65,13.2Zm0,4a1.2,1.2,0,1,1-1.2,1.2A1.2,1.2,0,0,1,9.65,17.18Z"/></svg>