<svg xmlns="http://www.w3.org/2000/svg" viewBox="0 0 24 24"><title>iconoteka_border_clear_m_a</title><g id="Clear_3" data-name="Clear 3"><path d="M7.12,4.5h1.5V3H7.12Zm8.26,0h1.5V3h-1.5ZM7.12,12.75h1.5v-1.5H7.12Zm8.26,0h1.5v-1.5h-1.5ZM7.12,21h1.5V19.5H7.12Zm8.26,0h1.5V19.5h-1.5ZM3,21H4.5V19.5H3Zm0-4.12H4.5v-1.5H3Zm0-4.13H4.5v-1.5H3ZM3,8.62H4.5V7.12H3ZM3,4.5H4.5V3H3ZM11.25,21h1.5V19.5h-1.5Zm0-4.12h1.5v-1.5h-1.5Zm0-4.13h1.5v-1.5h-1.5Zm0-4.13h1.5V7.12h-1.5Zm0-4.12h1.5V3h-1.5ZM19.5,21H21V19.5H19.5Zm0-4.12H21v-1.5H19.5Zm0-4.13H21v-1.5H19.5Zm0-4.13H21V7.12H19.5ZM19.5,3V4.5H21V3Z"/></g></svg>