<svg id="Layer_1" data-name="Layer 1" xmlns="http://www.w3.org/2000/svg" viewBox="0 0 24 24"><title>iconoteka_share_microsoft_l_s</title><path d="M14.46,6.54A3,3,0,0,0,17.06,8a2.92,2.92,0,0,0,1.5-.41,3,3,0,0,0-3-5.19,2.91,2.91,0,0,0-1.25,1.44A8.2,8.2,0,0,0,6.41,7l.4.3a7.74,7.74,0,0,1,7.34-3A3,3,0,0,0,14.46,6.54Zm.19-2.15a2.44,2.44,0,0,1,1.16-1.52,2.5,2.5,0,1,1-.91,3.42A2.44,2.44,0,0,1,14.65,4.39ZM5.8,14.82a3,3,0,0,0,1.74-1.36,3,3,0,0,0-1.1-4.09A2.92,2.92,0,0,0,4.94,9a3,3,0,1,0,0,6c.12,0,.24,0,.37,0A8.24,8.24,0,0,0,12,20.19l.06-.5A7.74,7.74,0,0,1,5.8,14.82Zm-.86-.36a2.5,2.5,0,0,1-2.17-3.75A2.52,2.52,0,0,1,4.94,9.46a2.5,2.5,0,0,1,1.25.34,2.44,2.44,0,0,1,1.16,1.52,2.41,2.41,0,0,1-.25,1.89A2.47,2.47,0,0,1,4.94,14.46ZM20.59,8.77,20.13,9a7.75,7.75,0,0,1-1.08,7.86A3,3,0,1,0,20,19a3,3,0,0,0-.62-1.81A8.2,8.2,0,0,0,20.59,8.77ZM19.5,19A2.5,2.5,0,1,1,17,16.5,2.5,2.5,0,0,1,19.5,19Z"/></svg>