<svg xmlns="http://www.w3.org/2000/svg" viewBox="0 0 24 24"><title>iconoteka_application_settings__options_b_s</title><g id="Clear_3" data-name="Clear 3"><path d="M16,3H8A5,5,0,0,0,3,8v8a5,5,0,0,0,5,5h8a5,5,0,0,0,5-5V8A5,5,0,0,0,16,3Zm3,13a3,3,0,0,1-3,3H8a3,3,0,0,1-3-3V8A3,3,0,0,1,8,5h8a3,3,0,0,1,3,3Zm-2.33-5.74a4.77,4.77,0,0,0-.84-1.43l-1.74.76L13,9l-.21-1.91A5.69,5.69,0,0,0,12,7a5.69,5.69,0,0,0-.83.08L11,9l-1.05.6L8.17,8.83a4.77,4.77,0,0,0-.84,1.43l1.54,1.13v1.22L7.33,13.74a4.77,4.77,0,0,0,.84,1.43l1.74-.76L11,15l.21,1.91A5.69,5.69,0,0,0,12,17a5.69,5.69,0,0,0,.83-.08L13,15l1.05-.6,1.74.76a4.77,4.77,0,0,0,.84-1.43l-1.54-1.13V11.39Zm-4.67,3A1.25,1.25,0,1,1,13.25,12,1.25,1.25,0,0,1,12,13.25Z"/></g></svg>