<svg xmlns="http://www.w3.org/2000/svg" viewBox="0 0 24 24"><title>iconoteka_opacity_b_s</title><g id="Clear_3" data-name="Clear 3"><path d="M16.68,7.32a7.5,7.5,0,1,0-9.36,9.36,7.5,7.5,0,1,0,9.36-9.36ZM3.9,9.5A5.59,5.59,0,0,1,14.5,7h0A7.5,7.5,0,0,0,7,14.5H7A5.6,5.6,0,0,1,3.9,9.5Zm5,5a5.49,5.49,0,0,1,.36-1.95l2.19,2.19a5.49,5.49,0,0,1-1.95.36l-.57,0A5.44,5.44,0,0,1,8.9,14.5Zm4-.56L10.06,11.1a5.69,5.69,0,0,1,1-1l2.84,2.84A5.69,5.69,0,0,1,12.9,13.94ZM15.1,9.5a5.53,5.53,0,0,1-.36,1.95L12.55,9.26A5.53,5.53,0,0,1,14.5,8.9l.57,0A5.44,5.44,0,0,1,15.1,9.5Zm-.6,10.6a5.6,5.6,0,0,1-5-3.1h0A7.5,7.5,0,0,0,17,9.5h0a5.59,5.59,0,0,1-2.5,10.6Z"/></g></svg>