<svg xmlns="http://www.w3.org/2000/svg" viewBox="0 0 24 24"><title>iconoteka_border_center_horizontal_m_a</title><g id="Clear_3" data-name="Clear 3"><path d="M3,16.88H4.5v-1.5H3ZM4.5,7.12H3v1.5H4.5Zm6.75,9.76h1.5v-1.5h-1.5Zm1.5-9.76h-1.5v1.5h1.5Zm6.75,9.76H21v-1.5H19.5Zm0-8.26H21V7.12H19.5ZM19.5,21H21V19.5H19.5Zm-4.12,0h1.5V19.5h-1.5Zm-4.13,0h1.5V19.5h-1.5ZM7.12,21h1.5V19.5H7.12ZM3,21H4.5V19.5H3Zm0-8.25H21v-1.5H3ZM19.5,3V4.5H21V3ZM16.88,3h-1.5V4.5h1.5ZM12.75,3h-1.5V4.5h1.5ZM8.62,3H7.12V4.5h1.5ZM4.5,3H3V4.5H4.5Z"/></g></svg>