<svg id="Layer_1" data-name="Layer 1" xmlns="http://www.w3.org/2000/svg" viewBox="0 0 24 24"><title>iconoteka_gear__settings__maintenance_b_s</title><path d="M12,8.2A3.8,3.8,0,1,0,15.8,12,3.8,3.8,0,0,0,12,8.2Zm0,5.6A1.8,1.8,0,1,1,13.8,12,1.81,1.81,0,0,1,12,13.8Zm8.29-2.64,2.37-2-.21-.65a11.78,11.78,0,0,0-.92-2.05,11.26,11.26,0,0,0-1.32-1.82l-.46-.51L16.88,5.24,15.41,4.4l-.5-3-.67-.14a11,11,0,0,0-4.48,0l-.67.14-.5,3-1.47.84L4.25,4.17l-.46.51A11.26,11.26,0,0,0,2.47,6.5a11.78,11.78,0,0,0-.92,2.05l-.21.65,2.37,2v1.68l-2.37,2,.21.65a11.78,11.78,0,0,0,.92,2.05,11.26,11.26,0,0,0,1.32,1.82l.46.51,2.87-1.07,1.47.84.5,3,.67.14a11,11,0,0,0,4.48,0l.67-.14.5-3,1.47-.84,2.87,1.07.46-.51a11.26,11.26,0,0,0,1.32-1.82,11.78,11.78,0,0,0,.92-2.05l.21-.65-2.37-2Zm0,4.29a8.53,8.53,0,0,1-.52,1.05,9,9,0,0,1-.64,1l-1.57-.59-.89-.33-.81.47-1.47.85-.81.47-.16.93-.27,1.65a8.6,8.6,0,0,1-2.34,0l-.27-1.65-.16-.93-.81-.47L8.12,17l-.81-.47-.89.33-1.57.59a9,9,0,0,1-.64-1,8.53,8.53,0,0,1-.52-1.05L5,14.39l.73-.6V10.21L5,9.61,3.69,8.55A8.53,8.53,0,0,1,4.21,7.5a9,9,0,0,1,.64-1l1.57.59.89.33L8.12,7l1.47-.85.81-.47.16-.93.27-1.65a8.6,8.6,0,0,1,2.34,0l.27,1.65.16.93.81.47L15.88,7l.81.47.89-.33,1.57-.59a9,9,0,0,1,.64,1,8.53,8.53,0,0,1,.52,1.05L19,9.61l-.73.6v3.58l.73.6Z"/></svg>