<svg xmlns="http://www.w3.org/2000/svg" viewBox="0 0 24 24"><defs><style>.cls-1{fill:none;}</style></defs><title>iconoteka_invert_colors_b_s</title><g id="Clear_3" data-name="Clear 3"><rect class="cls-1" width="24" height="24"/><path d="M20,18A9.91,9.91,0,0,0,20,6V6h0a10,10,0,0,0-7-3.95V0H11V2.05A10,10,0,0,0,11,22V24h2V22A10,10,0,0,0,20,18h0Zm-7-2V13h6.93a8.08,8.08,0,0,1-1,3Zm5.92-8a8.08,8.08,0,0,1,1,3H13V8ZM17.27,6H13V4.07A7.91,7.91,0,0,1,17.27,6ZM4,12a8,8,0,0,1,7-7.93V19.93A8,8,0,0,1,4,12Zm9,7.93V18h4.27A7.91,7.91,0,0,1,13,19.93Z"/></g></svg>