<svg xmlns="http://www.w3.org/2000/svg" viewBox="0 0 24 24"><defs><style>.cls-1{fill:none;}</style></defs><title>iconoteka_bluetooth_signal_b_s</title><g id="Clear_3" data-name="Clear 3"><rect class="cls-1" width="24" height="24"/><path d="M7,0V9.59L3.93,6.51,2.51,7.93,6.59,12,2.51,16.07l1.42,1.42L7,14.41V24l7.19-7.19L9.41,12l4.78-4.78ZM9,19.14V14.41l2.37,2.37ZM9,4.86l2.37,2.36L9,9.59Z"/><path d="M15,12l2.12,2.12a3,3,0,0,0,0-4.24Z"/><path d="M20,7.05,18.54,8.46a5,5,0,0,1,0,7.08L20,17A7,7,0,0,0,20,7.05Z"/></g></svg>