<svg id="Layer_1" data-name="Layer 1" xmlns="http://www.w3.org/2000/svg" viewBox="0 0 24 24"><title>iconoteka_trash_partly_full_l_s</title><path d="M9.85,16.33a1.46,1.46,0,1,0,1.46,1.46A1.46,1.46,0,0,0,9.85,16.33Zm0,2.42a1,1,0,1,1,1-1A1,1,0,0,1,9.85,18.75Zm4.3-2.42a1.46,1.46,0,1,0,1.46,1.46A1.46,1.46,0,0,0,14.15,16.33Zm0,2.42a1,1,0,1,1,1-1A1,1,0,0,1,14.15,18.75Zm-4.3-6.81a1.46,1.46,0,1,0,1.46,1.46A1.46,1.46,0,0,0,9.85,11.94Zm0,2.42a1,1,0,1,1,1-1A1,1,0,0,1,9.85,14.36Zm2.84-1a1.46,1.46,0,1,0,1.46-1.46A1.47,1.47,0,0,0,12.69,13.4Zm2.42,0a1,1,0,1,1-1-1A1,1,0,0,1,15.11,13.4ZM19.27,5H15V4a2,2,0,0,0-2-2H11A2,2,0,0,0,9,4V5H3v.5H4.77L6.26,22H17.74L19.23,5.5H21V5ZM9.5,4A1.5,1.5,0,0,1,11,2.5h2A1.5,1.5,0,0,1,14.5,4V5h-5Zm7.78,17.5H6.72L5.28,5.5H18.72Z"/></svg>