<svg id="Layer_1" data-name="Layer 1" xmlns="http://www.w3.org/2000/svg" viewBox="0 0 24 24"><title>iconoteka_gear__settings__maintenance_m_s</title><path d="M12,8.2A3.8,3.8,0,1,0,15.8,12,3.8,3.8,0,0,0,12,8.2Zm0,6.1A2.3,2.3,0,1,1,14.3,12,2.3,2.3,0,0,1,12,14.3Zm8.29-3.14,2.37-2-.21-.65a11.78,11.78,0,0,0-.92-2.05,11.26,11.26,0,0,0-1.32-1.82l-.46-.51L16.88,5.24,15.41,4.4l-.5-3-.67-.14a11,11,0,0,0-4.48,0l-.67.14-.5,3-1.47.84L4.25,4.17l-.46.51A11.26,11.26,0,0,0,2.47,6.5a11.78,11.78,0,0,0-.92,2.05l-.21.65,2.37,2v1.68l-2.37,2,.21.65a11.78,11.78,0,0,0,.92,2.05,11.26,11.26,0,0,0,1.32,1.82l.46.51,2.87-1.07,1.47.84.5,3,.67.14a11,11,0,0,0,4.48,0l.67-.14.5-3,1.47-.84,2.87,1.07.46-.51a11.26,11.26,0,0,0,1.32-1.82,11.78,11.78,0,0,0,.92-2.05l.21-.65-2.37-2Zm.62,4.14a10.65,10.65,0,0,1-.68,1.45,10,10,0,0,1-.92,1.32l-1.91-.72-.66-.25-.61.36-1.47.84-.61.35-.12.7-.33,2a10.79,10.79,0,0,1-1.6.13,10.79,10.79,0,0,1-1.6-.13l-.33-2-.12-.7-.61-.35-1.47-.84-.61-.36-.66.25-1.91.72a10,10,0,0,1-.92-1.32,10.65,10.65,0,0,1-.68-1.45L4.66,14l.55-.45v-3.1L4.66,10,3.09,8.7a10.65,10.65,0,0,1,.68-1.45,10,10,0,0,1,.92-1.32l1.91.72.66.25.61-.36L9.34,5.7,10,5.35l.12-.7.33-2A10.79,10.79,0,0,1,12,2.5a10.79,10.79,0,0,1,1.6.13l.33,2,.12.7.61.35,1.47.84.61.36.66-.25,1.91-.72a10.76,10.76,0,0,1,.92,1.32,10.65,10.65,0,0,1,.68,1.45L19.34,10l-.55.45v3.1l.55.45Z"/></svg>