<svg xmlns="http://www.w3.org/2000/svg" viewBox="0 0 24 24"><title>iconoteka_border_style_r_a</title><g id="Clear_3" data-name="Clear 3"><path d="M9.67,3h-1V4h1Zm8.5,0h-1V4h1ZM6.83,3h-1V4h1Zm8.5,0h-1V4h1ZM4,11.5H3v1H4Zm0,2.83H3v1H4Zm0-8.5H3v1H4ZM4,17.17H3v1H4Zm0-8.5H3v1H4ZM4,3H3V4H4ZM20,3V20H3v1H21V3ZM12.5,3h-1V4h1ZM9,15h1.92l4.23-4.24a.89.89,0,0,0,0-1.26l-.65-.65a.87.87,0,0,0-1.26,0L9,13.08Zm4.8-5.59a.1.1,0,0,1,.14,0l.65.65a.12.12,0,0,1,0,.14l-.56.56L13.24,10Zm-4,4,2.88-2.87.78.78L10.59,14.2H9.8Z"/></g></svg>