<svg id="Layer_1" data-name="Layer 1" xmlns="http://www.w3.org/2000/svg" viewBox="0 0 24 24"><defs><style>.cls-1{fill:none;}</style></defs><title>iconoteka_flip_to_back_b_s</title><rect class="cls-1" width="24" height="24"/><polygon points="5 7 3 7 3 21 17 21 17 19 5 19 5 7"/><rect x="7" y="3" width="2" height="2"/><rect x="11" y="3" width="2" height="2"/><rect x="15" y="3" width="2" height="2"/><rect x="11" y="15" width="2" height="2"/><rect x="15" y="15" width="2" height="2"/><rect x="19" y="15" width="2" height="2"/><rect x="19" y="3" width="2" height="2"/><rect x="7" y="15" width="2" height="2"/><rect x="7" y="11" width="2" height="2"/><rect x="7" y="7" width="2" height="2"/><rect x="19" y="11" width="2" height="2"/><rect x="19" y="7" width="2" height="2"/></svg>