<svg xmlns="http://www.w3.org/2000/svg" viewBox="0 0 24 24"><title>iconoteka_border_left_r_a</title><g id="Clear_3" data-name="Clear 3"><path d="M14.33,4h1V3h-1ZM5.83,4h1V3h-1ZM17.17,4h1V3h-1ZM8.67,4h1V3h-1Zm5.66,17h1V20h-1Zm-8.5,0h1V20h-1Zm11.34,0h1V20h-1Zm-8.5,0h1V20h-1Zm5.66-8.5h1v-1h-1Zm-8.5,0h1v-1h-1Zm11.34,0h1v-1h-1Zm-8.5,0h1v-1h-1ZM3,21H4V3H3Zm17-8.5h1v-1H20Zm0-2.83h1v-1H20Zm0,8.5h1v-1H20ZM20,6.83h1v-1H20Zm0,8.5h1v-1H20ZM20,21h1V20H20ZM20,3V4h1V3Zm-8.5,9.5h1v-1h-1Zm0-2.83h1v-1h-1Zm0,8.5h1v-1h-1Zm0-11.34h1v-1h-1Zm0,8.5h1v-1h-1Zm0,5.67h1V20h-1Zm0-17h1V3h-1Z"/></g></svg>