<svg xmlns="http://www.w3.org/2000/svg" viewBox="0 0 24 24"><title>iconoteka_application_settings__options_m_s</title><g id="Clear_3" data-name="Clear 3"><path d="M16,3H8A5,5,0,0,0,3,8v8a5,5,0,0,0,5,5h8a5,5,0,0,0,5-5V8A5,5,0,0,0,16,3Zm3.5,13A3.5,3.5,0,0,1,16,19.5H8A3.5,3.5,0,0,1,4.5,16V8A3.5,3.5,0,0,1,8,4.5h8A3.5,3.5,0,0,1,19.5,8Zm-2.85-5.8a6.29,6.29,0,0,0-.32-.7,4.1,4.1,0,0,0-.45-.62l-1.62.81-1.39-.8-.11-1.81A4.78,4.78,0,0,0,12,7a4.78,4.78,0,0,0-.76.08l-.11,1.81-1.39.8L8.12,8.88a4.1,4.1,0,0,0-.45.62,6.29,6.29,0,0,0-.32.7l1.52,1v1.6l-1.52,1a6.29,6.29,0,0,0,.32.7,4.1,4.1,0,0,0,.45.62l1.62-.81,1.39.8.11,1.81A4.78,4.78,0,0,0,12,17a4.78,4.78,0,0,0,.76-.08l.11-1.81,1.39-.8,1.62.81a4.1,4.1,0,0,0,.45-.62,6.29,6.29,0,0,0,.32-.7l-1.52-1V11.2ZM12,13.51A1.51,1.51,0,1,1,13.51,12,1.5,1.5,0,0,1,12,13.51Z"/></g></svg>