<svg id="Layer_1" data-name="Layer 1" xmlns="http://www.w3.org/2000/svg" viewBox="0 0 24 24"><title>iconoteka_network_settings__mobile_data_settings_r_a</title><path d="M9,20h1V13l-1,.9ZM4,20H5V17.5l-1,.9ZM20,4l-1,.89V20h1V4ZM14,20h1V8.49l-1,.9ZM10.88,6.12A3.63,3.63,0,0,0,10.46,5a4,4,0,0,0-.75-.92L8.33,4.7h0L8.18,3.2A3.89,3.89,0,0,0,7,3a3.89,3.89,0,0,0-1.18.2L5.68,4.69h0L4.29,4.08A4,4,0,0,0,3.54,5a3.63,3.63,0,0,0-.42,1.12L4.34,7V7l-1.22.87A3.63,3.63,0,0,0,3.54,9a4,4,0,0,0,.75.92L5.67,9.3h0l.14,1.49A3.89,3.89,0,0,0,7,11a3.89,3.89,0,0,0,1.18-.2l.14-1.49h0l1.38.62A4,4,0,0,0,10.46,9a3.63,3.63,0,0,0,.42-1.12L9.66,7V7ZM9.22,7.62l.8.57a2.46,2.46,0,0,1-.21.43,2,2,0,0,1-.27.4l-.9-.4-.36-.16L8,8.66l-.33.19,0,.38-.1,1a2.9,2.9,0,0,1-1,0l-.1-1,0-.39L6,8.65l-.33-.19-.35.16-.9.4a2,2,0,0,1-.27-.4A2.46,2.46,0,0,1,4,8.19l.8-.57.31-.24V6.61l-.31-.23L4,5.81a2.46,2.46,0,0,1,.21-.43A2,2,0,0,1,4.46,5l.9.4.36.16.33-.2.33-.19,0-.38.1-1a2.9,2.9,0,0,1,1,0l.1,1,0,.39L8,5.35l.33.19.35-.16.9-.4a2,2,0,0,1,.27.4,2.46,2.46,0,0,1,.21.43l-.8.57-.31.24v.77ZM7,6.25A.75.75,0,1,0,7.75,7,.76.76,0,0,0,7,6.25Z"/></svg>