<svg xmlns="http://www.w3.org/2000/svg" viewBox="0 0 24 24"><title>iconoteka_border_top_m_a</title><g id="Clear_3" data-name="Clear 3"><path d="M19.5,8.62H21V7.12H19.5Zm0,8.26H21v-1.5H19.5ZM11.25,8.62h1.5V7.12h-1.5Zm0,8.26h1.5v-1.5h-1.5ZM3,8.62H4.5V7.12H3Zm0,8.26H4.5v-1.5H3ZM3,3V4.5H21V3Zm0,9.75H4.5v-1.5H3Zm4.12,0h1.5v-1.5H7.12Zm4.13,0h1.5v-1.5h-1.5Zm4.13,0h1.5v-1.5h-1.5Zm4.12,0H21v-1.5H19.5ZM3,21H4.5V19.5H3Zm4.12,0h1.5V19.5H7.12Zm4.13,0h1.5V19.5h-1.5Zm4.13,0h1.5V19.5h-1.5Zm4.12,0H21V19.5H19.5Z"/></g></svg>