<svg id="Layer_1" data-name="Layer 1" xmlns="http://www.w3.org/2000/svg" viewBox="0 0 24 24"><title>iconoteka_trash_full_r_s</title><path d="M9.85,19.25a1.46,1.46,0,1,0-1.46-1.46A1.46,1.46,0,0,0,9.85,19.25Zm0-2.07a.61.61,0,0,1,0,1.22.61.61,0,0,1,0-1.22Zm4.3,2.07a1.46,1.46,0,1,0-1.46-1.46A1.46,1.46,0,0,0,14.15,19.25Zm0-2.07a.61.61,0,0,1,0,1.22.61.61,0,1,1,0-1.22Zm-4.3-2.32A1.46,1.46,0,1,0,8.39,13.4,1.47,1.47,0,0,0,9.85,14.86Zm0-2.07a.61.61,0,0,1,.61.61.62.62,0,0,1-.61.61.61.61,0,0,1-.61-.61A.61.61,0,0,1,9.85,12.79Zm4.3,2.07a1.46,1.46,0,1,0-1.46-1.46A1.46,1.46,0,0,0,14.15,14.86Zm0-2.07a.61.61,0,0,1,.61.61.61.61,0,0,1-.61.61.62.62,0,0,1-.61-.61A.61.61,0,0,1,14.15,12.79Zm-4.3-2.33A1.46,1.46,0,1,0,8.39,9,1.46,1.46,0,0,0,9.85,10.46Zm0-2.07a.62.62,0,0,1,.61.61.61.61,0,0,1-.61.61A.61.61,0,0,1,9.24,9,.61.61,0,0,1,9.85,8.39Zm4.3,2.07A1.46,1.46,0,1,0,12.69,9,1.46,1.46,0,0,0,14.15,10.46Zm0-2.07a.61.61,0,0,1,.61.61.61.61,0,0,1-.61.61A.61.61,0,0,1,13.54,9,.62.62,0,0,1,14.15,8.39ZM15,5V4a2,2,0,0,0-2-2H11A2,2,0,0,0,9,4V5H3V6H4.82L6.26,22H17.74L19.18,6H21V5ZM10,4a1,1,0,0,1,1-1h2a1,1,0,0,1,1,1V5H10Zm6.82,17H7.18L5.82,6H18.18Z"/></svg>