<svg xmlns="http://www.w3.org/2000/svg" viewBox="0 0 24 24"><title>iconoteka_application_settings__options_l_s</title><g id="Clear_3" data-name="Clear 3"><path d="M16,3H8A5,5,0,0,0,3,8v8a5,5,0,0,0,5,5h8a5,5,0,0,0,5-5V8A5,5,0,0,0,16,3Zm4.5,13A4.51,4.51,0,0,1,16,20.5H8A4.51,4.51,0,0,1,3.5,16V8A4.51,4.51,0,0,1,8,3.5h8A4.51,4.51,0,0,1,20.5,8Zm-3.73-5.49a5,5,0,0,0-.44-1,5.72,5.72,0,0,0-.65-.88l-1.6.74-.83-.48-.16-1.75a4.63,4.63,0,0,0-2.18,0l-.16,1.75-.83.48-1.6-.74a5.27,5.27,0,0,0-.65.88,4.27,4.27,0,0,0-.43,1l1.44,1v1l-1.45,1a5,5,0,0,0,.44,1,5.72,5.72,0,0,0,.65.88l1.6-.74.83.48.16,1.75a4.63,4.63,0,0,0,2.18,0l.16-1.75.83-.48,1.6.74a5.27,5.27,0,0,0,.65-.88,4.27,4.27,0,0,0,.43-1l-1.44-1v-1ZM15,12.89l1.13.79a4.29,4.29,0,0,1-.27.57,3.46,3.46,0,0,1-.36.52l-1.25-.58-.24-.11-.22.13-.83.47-.23.13,0,.26-.12,1.38a4,4,0,0,1-1.26,0l-.12-1.38,0-.26L11,14.68l-.83-.47L10,14.08l-.24.11-1.25.58a3.46,3.46,0,0,1-.36-.52,4.29,4.29,0,0,1-.27-.57L9,12.89l.22-.15V11.26L9,11.11l-1.13-.79a4.29,4.29,0,0,1,.27-.57,3.46,3.46,0,0,1,.36-.52l1.25.58.24.11.22-.13L11,9.32l.23-.13,0-.26.12-1.38a4,4,0,0,1,1.26,0l.12,1.38,0,.26.23.13.83.47.22.13.24-.11,1.25-.58a3.46,3.46,0,0,1,.36.52,4.29,4.29,0,0,1,.27.57L15,11.11l-.22.15v1.48ZM12,10.5A1.5,1.5,0,1,0,13.5,12,1.5,1.5,0,0,0,12,10.5ZM12,13a1,1,0,1,1,1-1A1,1,0,0,1,12,13Z"/></g></svg>