<svg xmlns="http://www.w3.org/2000/svg" viewBox="0 0 24 24"><title>iconoteka_opacity_r_s</title><g id="Clear_3" data-name="Clear 3"><path d="M16.68,7.32a7.5,7.5,0,1,0-9.36,9.36,7.5,7.5,0,1,0,9.36-9.36ZM3,9.5A6.5,6.5,0,0,1,15.53,7.08a7,7,0,0,0-1-.08A7.5,7.5,0,0,0,7,14.5a7,7,0,0,0,.08,1A6.51,6.51,0,0,1,3,9.5Zm5,5a6.64,6.64,0,0,1,.16-1.42l2.76,2.76A6.64,6.64,0,0,1,9.5,16a6.75,6.75,0,0,1-1.36-.14A6.75,6.75,0,0,1,8,14.5Zm4,1L8.5,12a6.27,6.27,0,0,1,1.07-1.73l4.15,4.15A6.27,6.27,0,0,1,12,15.5Zm2.44-1.78L10.28,9.57A6.27,6.27,0,0,1,12,8.5L15.5,12A6.27,6.27,0,0,1,14.43,13.72ZM16,9.5a6.48,6.48,0,0,1-.16,1.41L13.09,8.16A6.48,6.48,0,0,1,14.5,8a6.75,6.75,0,0,1,1.36.14A6.75,6.75,0,0,1,16,9.5ZM14.5,21a6.51,6.51,0,0,1-6-4.08,7,7,0,0,0,1,.08A7.5,7.5,0,0,0,17,9.5a7,7,0,0,0-.08-1A6.5,6.5,0,0,1,14.5,21Z"/></g></svg>