<svg xmlns="http://www.w3.org/2000/svg" viewBox="0 0 24 24"><title>iconoteka_bluetooth_settings_l_a</title><g id="Clear_3" data-name="Clear 3"><path d="M21.66,11.62l1.15-.81a3.81,3.81,0,0,0-.87-1.51l-1.28.59L20,9.51,19.87,8.1a3.83,3.83,0,0,0-1.74,0L18,9.51l-.66.38L16.06,9.3a3.81,3.81,0,0,0-.87,1.51l1.15.81v.76l-1.15.81a3.81,3.81,0,0,0,.87,1.51l1.28-.59.66.38.13,1.41a3.83,3.83,0,0,0,1.74,0L20,14.49l.66-.38,1.28.59a3.81,3.81,0,0,0,.87-1.51l-1.15-.81Zm.61,1.75a3.11,3.11,0,0,1-.2.41,2.68,2.68,0,0,1-.25.37l-1-.45-.21-.09-.2.11-.67.38-.2.12,0,.23-.1,1.07-.45,0-.45,0-.1-1.07,0-.23-.2-.12-.67-.38-.2-.11-.21.09-1,.45a2.26,2.26,0,0,1-.25-.38,2.49,2.49,0,0,1-.2-.4l.87-.62.19-.13V11.38l-.19-.13-.87-.62a3.11,3.11,0,0,1,.2-.41,2.68,2.68,0,0,1,.25-.37l1,.45.21.09.2-.11.67-.38.2-.12,0-.23.1-1.07.45,0,.45,0,.1,1.07,0,.23.2.12.67.38.2.11.21-.09,1-.45a2.26,2.26,0,0,1,.25.38,2.49,2.49,0,0,1,.2.4l-.87.62-.19.13v1.24l.19.13ZM19,10.82A1.18,1.18,0,1,0,20.18,12,1.18,1.18,0,0,0,19,10.82Zm0,1.91a.73.73,0,1,1,.73-.73A.73.73,0,0,1,19,12.73ZM6.49,1.41V11.53L1.14,7.91l-.28.41L6.29,12,.86,15.68l.28.41,5.35-3.62V22.59l8.17-5.53L7.18,12l7.48-5.06Zm7.28,15.65L7,21.65V12.47ZM7,11.53V2.35l6.78,4.59Z"/></g></svg>