<svg xmlns="http://www.w3.org/2000/svg" viewBox="0 0 24 24"><title>iconoteka_applications__apps_r_s</title><g id="Clear_3" data-name="Clear 3"><path d="M19,4a1,1,0,0,1,1,1V9a1,1,0,0,1-1,1H15a1,1,0,0,1-1-1V5a1,1,0,0,1,1-1h4M9,4a1,1,0,0,1,1,1V9a1,1,0,0,1-1,1H5A1,1,0,0,1,4,9V5A1,1,0,0,1,5,4H9M19,14a1,1,0,0,1,1,1v4a1,1,0,0,1-1,1H15a1,1,0,0,1-1-1V15a1,1,0,0,1,1-1h4M9,14a1,1,0,0,1,1,1v4a1,1,0,0,1-1,1H5a1,1,0,0,1-1-1V15a1,1,0,0,1,1-1H9M19,3H15a2,2,0,0,0-2,2V9a2,2,0,0,0,2,2h4a2,2,0,0,0,2-2V5a2,2,0,0,0-2-2ZM9,3H5A2,2,0,0,0,3,5V9a2,2,0,0,0,2,2H9a2,2,0,0,0,2-2V5A2,2,0,0,0,9,3ZM19,13H15a2,2,0,0,0-2,2v4a2,2,0,0,0,2,2h4a2,2,0,0,0,2-2V15a2,2,0,0,0-2-2ZM9,13H5a2,2,0,0,0-2,2v4a2,2,0,0,0,2,2H9a2,2,0,0,0,2-2V15a2,2,0,0,0-2-2Z"/></g></svg>