<svg id="Layer_1" data-name="Layer 1" xmlns="http://www.w3.org/2000/svg" viewBox="0 0 24 24"><defs><style>.cls-1{fill:none;}</style></defs><title>iconoteka_network_check_b_s</title><rect class="cls-1" width="24" height="24"/><path d="M18.62,8.68l1.45-1.46A16,16,0,0,0,.65,9.69L2.06,11.1A14,14,0,0,1,18.62,8.68Z"/><path d="M23.28,9.69c-.22-.22-.45-.41-.68-.61l.64.64Z"/><path d="M13.32,14a7.14,7.14,0,0,0-6.41,2l1.41,1.42a5.14,5.14,0,0,1,3.07-1.46Z"/><path d="M15.35,12l1.53-1.53A11.66,11.66,0,0,0,3.71,12.75l1.41,1.41A9.65,9.65,0,0,1,15.35,12Z"/><path d="M11.26,18.87a1,1,0,0,0-.3.71,1,1,0,0,0,1.71.7h0L23.24,9.71l-.64-.63-.77-.78Z"/></svg>