<svg xmlns="http://www.w3.org/2000/svg" viewBox="0 0 24 24"><defs><style>.cls-1{fill:none;}</style></defs><title>iconoteka_rounded_corner_b_s</title><g id="Clear_3" data-name="Clear 3"><rect class="cls-1" width="24" height="24"/><rect x="3" y="3" width="2" height="2"/><rect x="7" y="3" width="2" height="2"/><rect x="3" y="11" width="2" height="2"/><rect x="3" y="19" width="2" height="2"/><rect x="19" y="19" width="2" height="2"/><rect x="11" y="19" width="2" height="2"/><rect x="15" y="19" width="2" height="2"/><rect x="7" y="19" width="2" height="2"/><rect x="3" y="7" width="2" height="2"/><rect x="3" y="15" width="2" height="2"/><rect x="19" y="15" width="2" height="2"/><path d="M14,3H11V5h3a5,5,0,0,1,5,5v3h2V10A7,7,0,0,0,14,3Z"/></g></svg>