<svg xmlns="http://www.w3.org/2000/svg" viewBox="0 0 24 24"><defs><style>.cls-1{fill:none;}</style></defs><title>iconoteka_alert_add_b_s</title><g id="Clear_3" data-name="Clear 3"><rect class="cls-1" width="24" height="24"/><path d="M20.87,15A3,3,0,0,1,20,12.89V9A8,8,0,0,0,4,9v3.89A3,3,0,0,1,3.13,15L2,16.14V20H22V16.14ZM20,18H4V17l.54-.54A5,5,0,0,0,6,12.89V9A6,6,0,0,1,18,9v3.89a5,5,0,0,0,1.46,3.53L20,17Z"/><path d="M12,24a2.57,2.57,0,0,0,2.5-2h-5A2.57,2.57,0,0,0,12,24Z"/><polygon points="12.8 8 11.2 8 11.2 10.2 9 10.2 9 11.8 11.2 11.8 11.2 14 12.8 14 12.8 11.8 15 11.8 15 10.2 12.8 10.2 12.8 8"/></g></svg>