<svg xmlns="http://www.w3.org/2000/svg" viewBox="0 0 24 24"><title>iconoteka_border_inner_l_a</title><g id="Clear_3" data-name="Clear 3"><path d="M7.38,21h.5v-.5h-.5Zm2.18,0h.5v-.5h-.5Zm8.75,0h.5v-.5h-.5Zm-2.19,0h.5v-.5h-.5Zm-2.18,0h.5v-.5h-.5ZM5.19,21h.5v-.5h-.5ZM7.88,3h-.5v.5h.5Zm2.18,0h-.5v.5h.5Zm8.75,0h-.5v.5h.5ZM16.62,3h-.5v.5h.5ZM14.44,3h-.5v.5h.5ZM5.69,3h-.5v.5h.5ZM20.5,16.62H21v-.5h-.5Zm0-2.18H21v-.5h-.5Zm0-8.75H21v-.5h-.5Zm0,2.19H21v-.5h-.5Zm0,2.18H21v-.5h-.5Zm0,8.75H21v-.5h-.5ZM20.5,3v.5H21V3Zm0,18H21v-.5h-.5ZM3,16.62h.5v-.5H3Zm0-2.18h.5v-.5H3Zm.5-9.25H3v.5h.5Zm0,2.19H3v.5h.5Zm0,2.18H3v.5h.5ZM3,18.81h.5v-.5H3ZM3.5,3H3v.5h.5Zm8.75,0h-.5v8.75H3v.5h8.75V21h.5V12.25H21v-.5H12.25ZM3,21h.5v-.5H3Z"/></g></svg>