<svg id="Layer_1" data-name="Layer 1" xmlns="http://www.w3.org/2000/svg" viewBox="0 0 24 24"><title>iconoteka_group__people__community_r_s</title><path d="M23.78,15.09a8.18,8.18,0,0,0-11.56,0l-.22.22-.22-.22a8.18,8.18,0,0,0-11.56,0L0,15.31V21H24V15.31ZM11.5,20H1V15.73a7.17,7.17,0,0,1,10.07.07l.43.43ZM23,20H12.5V16.23l.43-.43A7.17,7.17,0,0,1,23,15.73ZM6,11A3.5,3.5,0,1,0,2.5,7.5,3.5,3.5,0,0,0,6,11ZM6,5A2.5,2.5,0,1,1,3.5,7.5,2.5,2.5,0,0,1,6,5Zm12,6a3.5,3.5,0,1,0-3.5-3.5A3.5,3.5,0,0,0,18,11Zm0-6a2.5,2.5,0,1,1-2.5,2.5A2.5,2.5,0,0,1,18,5Z"/></svg>