<svg id="Layer_1" data-name="Layer 1" xmlns="http://www.w3.org/2000/svg" viewBox="0 0 24 24"><title>iconoteka_group__people__community_b_s</title><path d="M6.5,11A3.5,3.5,0,1,0,3,7.5,3.5,3.5,0,0,0,6.5,11Zm0-5A1.5,1.5,0,1,1,5,7.5,1.5,1.5,0,0,1,6.5,6Zm11,5A3.5,3.5,0,1,0,14,7.5,3.5,3.5,0,0,0,17.5,11Zm0-5A1.5,1.5,0,1,1,16,7.5,1.5,1.5,0,0,1,17.5,6Zm6.26,9.29A8.85,8.85,0,0,0,12,14.62a8.85,8.85,0,0,0-11.76.67L0,15.53V21H24V15.53ZM11,19H2V16.38a6.87,6.87,0,0,1,9,0Zm11,0H13V16.38a6.87,6.87,0,0,1,9,0Z"/></svg>