<svg id="Layer_1" data-name="Layer 1" xmlns="http://www.w3.org/2000/svg" viewBox="0 0 24 24"><title>iconoteka_group__people__community_l_s</title><path d="M6,11A3.5,3.5,0,1,0,2.5,7.5,3.5,3.5,0,0,0,6,11ZM6,4.5a3,3,0,1,1-3,3A3,3,0,0,1,6,4.5ZM18,11a3.5,3.5,0,1,0-3.5-3.5A3.5,3.5,0,0,0,18,11Zm0-6.5a3,3,0,1,1-3,3A3,3,0,0,1,18,4.5Zm5.78,10.59a8.18,8.18,0,0,0-11.56,0l-.22.22-.22-.22a8.18,8.18,0,0,0-11.56,0L0,15.31V21H24V15.31Zm-12,5.41H.5v-5l.07-.07a7.68,7.68,0,0,1,10.86,0l.22.21.1.11Zm11.75,0H12.25V15.77l.1-.11.22-.21a7.68,7.68,0,0,1,10.86,0l.07.07Z"/></svg>