<svg id="Layer_1" data-name="Layer 1" xmlns="http://www.w3.org/2000/svg" viewBox="0 0 24 24"><defs><style>.cls-1{fill:none;}</style></defs><title>iconoteka_touch_b_s</title><rect class="cls-1" width="24" height="24"/><path d="M18.78,9.64,14,8.36V4A3,3,0,0,0,8,4v9.2l-.75-.92A3.62,3.62,0,0,0,4.61,11,3.69,3.69,0,0,0,1.85,12l-1,1,3.71,5.63A9.73,9.73,0,0,0,12.71,23,8.3,8.3,0,0,0,21,14.71V12.53A3,3,0,0,0,18.78,9.64ZM19,14.71A6.29,6.29,0,0,1,12.71,21a7.74,7.74,0,0,1-6.47-3.48l-2.8-4.25a1.61,1.61,0,0,1,1.07-.33,1.64,1.64,0,0,1,1.19.61l1.64,2a1.5,1.5,0,0,0,2.66-1V4a1,1,0,0,1,2,0V9.89l6.26,1.68a1,1,0,0,1,.74,1Z"/></svg>