<svg id="Layer_1" data-name="Layer 1" xmlns="http://www.w3.org/2000/svg" viewBox="0 0 24 24"><defs><style>.cls-1{fill:none;}</style></defs><title>iconoteka_tub_cold_b_s</title><rect class="cls-1" width="24" height="24"/><circle cx="6.5" cy="4.74" r="1.75"/><path d="M10.54,11,9.43,9.34A3,3,0,0,0,6.93,8H5.5A1.5,1.5,0,0,0,4,9.5V11H2v7a3.13,3.13,0,0,0,3.22,3H18.78A3.13,3.13,0,0,0,22,18V11ZM6,10h.93a1,1,0,0,1,.83.45l.37.55H6Zm14,8a1.13,1.13,0,0,1-1.22,1H5.22A1.13,1.13,0,0,1,4,18V13H20Z"/><polygon points="15.38 7.38 17.25 6.3 17.25 8.45 18.75 8.45 18.75 6.3 20.61 7.38 21.36 6.08 19.5 5 21.36 3.92 20.61 2.62 18.75 3.7 18.75 1.55 17.25 1.55 17.25 3.7 15.38 2.62 14.63 3.92 16.5 5 14.63 6.08 15.38 7.38"/></svg>