<svg id="Layer_1" data-name="Layer 1" xmlns="http://www.w3.org/2000/svg" viewBox="0 0 24 24"><title>iconoteka_face_child__child_care__babysitter_r_s</title><path d="M12,18.31A3.76,3.76,0,0,0,15.5,16h-7A3.76,3.76,0,0,0,12,18.31ZM14,16.8a3,3,0,0,1-3.9,0ZM15,12.25a.75.75,0,1,0,.75.75A.76.76,0,0,0,15,12.25ZM9.75,13a.75.75,0,1,0-.75.75A.76.76,0,0,0,9.75,13Zm10.19-3A8,8,0,0,0,4.06,10,3,3,0,0,0,4.26,16a8,8,0,0,0,15.48,0,3,3,0,0,0,.2-5.94ZM19.66,15,19,15l-.18.69a7,7,0,0,1-13.54,0L5.05,15,4.34,15a2,2,0,0,1-.13-4L5,10.92l.1-.76A7,7,0,0,1,9.42,4.5,2.94,2.94,0,0,0,9,6a3,3,0,0,0,5.12,2.12l-.71-.71A2,2,0,0,1,12,8a2,2,0,0,1,0-4,7,7,0,0,1,6.94,6.16l.1.76.75.11a2,2,0,0,1-.13,4Z"/></svg>