<svg id="Layer_1" data-name="Layer 1" xmlns="http://www.w3.org/2000/svg" viewBox="0 0 24 24"><title>iconoteka_face_child__child_care__babysitter_l_f</title><path d="M19.94,10A8,8,0,0,0,12,3h-.11A2.39,2.39,0,0,0,9.57,5.38a2.33,2.33,0,0,0,.7,1.67,2.42,2.42,0,0,0,3.35,0l.36.36A2.88,2.88,0,0,1,9.91,3.34L10,3.26a8,8,0,0,0-6,6.78A3,3,0,0,0,4.26,16a8,8,0,0,0,15.48,0,3,3,0,0,0,.2-5.94ZM7.75,13A1.25,1.25,0,1,1,9,14.25,1.25,1.25,0,0,1,7.75,13ZM9,17h6A3.26,3.26,0,0,1,9,17Zm6-2.75A1.25,1.25,0,1,1,16.25,13,1.25,1.25,0,0,1,15,14.25Z"/></svg>