<svg id="Layer_1" data-name="Layer 1" xmlns="http://www.w3.org/2000/svg" viewBox="0 0 24 24"><defs><style>.cls-1{fill:none;}</style></defs><title>iconoteka_face_adult_female_b_s</title><rect class="cls-1" width="24" height="24"/><path d="M14,17H10A2.08,2.08,0,0,0,14,17Z"/><path d="M12,16a1,1,0,0,0,1-1H11A1,1,0,0,0,12,16Z"/><path d="M21.46,17.1l-.72-2.3a1.66,1.66,0,0,0,.06-.21l.44-2.2A2,2,0,0,0,20,10.15,8.1,8.1,0,1,0,4,10.15a2,2,0,0,0-1.21,2.24l.44,2.2a1.66,1.66,0,0,0,.06.21l-.72,2.31A3,3,0,0,0,5.4,21H7.78a8.61,8.61,0,0,0,1.57,1.23,5.17,5.17,0,0,0,5.3,0A9,9,0,0,0,16.23,21H18.6a3,3,0,0,0,2.86-3.9ZM16.76,5.28A6.1,6.1,0,0,1,18,10h0a2,2,0,0,1-2-2V4.5A7,7,0,0,1,16.76,5.28Zm-9.52,0A6.08,6.08,0,0,1,12,3a6.21,6.21,0,0,1,2.19.41L11.86,7.48A5,5,0,0,1,7.52,10H6A6.1,6.1,0,0,1,7.24,5.28ZM5.4,19a1,1,0,0,1-1-1.3l.33-1a3,3,0,0,0,.67.26A8.5,8.5,0,0,0,6.26,19Zm8.23,1.51a3.18,3.18,0,0,1-3.26,0,6.52,6.52,0,0,1-3-4.19L7.06,15H6.14a1,1,0,0,1-1-.8L4.72,12h2.8L8,12v0a1.25,1.25,0,1,0,2.32-.6A7,7,0,0,0,13.6,8.47l.4-.7V8a4,4,0,0,0,1.19,2.84,1.28,1.28,0,0,0-.44-.09A1.25,1.25,0,1,0,16,12a1.22,1.22,0,0,0-.22-.68,4,4,0,0,0,1.83.64v0h1.68l-.44,2.2a1,1,0,0,1-1,.8h-.92l-.3,1.32A6.52,6.52,0,0,1,13.63,20.51Zm5.78-1.92a1,1,0,0,1-.81.41h-.86a8.5,8.5,0,0,0,.82-2.08,3.21,3.21,0,0,0,.67-.26l.33,1A1,1,0,0,1,19.41,18.59Z"/></svg>