<svg id="Layer_1" data-name="Layer 1" xmlns="http://www.w3.org/2000/svg" viewBox="0 0 24 24"><defs><style>.cls-1{fill:none;}</style></defs><title>iconoteka_airline_seat__recline_normal__legroom_extra_b_s</title><rect class="cls-1" width="24" height="24"/><path d="M9,18a2,2,0,0,1-2-2V8A1,1,0,0,0,5,8v8a4,4,0,0,0,4,4h5.91l-.53-2Z"/><circle cx="11.5" cy="3.74" r="1.75"/><path d="M17.76,15.48A2,2,0,0,0,15.83,14H14V9.5A2.5,2.5,0,0,0,11.5,7h-1A1.5,1.5,0,0,0,9,8.5V16h6.83l1.7,6.33,1.93-.52ZM12,14H11V9h.5a.5.5,0,0,1,.5.5Z"/></svg>