<svg id="Layer_1" data-name="Layer 1" xmlns="http://www.w3.org/2000/svg" viewBox="0 0 24 24"><defs><style>.cls-1{fill:none;}</style></defs><title>iconoteka_ear_hearing_b_s</title><rect class="cls-1" width="24" height="24"/><path d="M12.6,1h-.3A7.32,7.32,0,0,0,5,8.31H7A5.31,5.31,0,0,1,12.3,3h.3A5.38,5.38,0,0,1,18,8.34a10.21,10.21,0,0,1-3,7.25l-4.88,4.87A1.82,1.82,0,0,1,7,19.17V17H5v2.17a3.83,3.83,0,0,0,6.54,2.71L16.41,17A12.14,12.14,0,0,0,20,8.34,7.38,7.38,0,0,0,12.6,1Z"/><path d="M9.29,15.29l1.42,1.42,3.23-3.24A7,7,0,0,0,16,8.5a3.5,3.5,0,0,0-7,0h2a1.5,1.5,0,0,1,3,0,5,5,0,0,1-1.47,3.56Z"/></svg>