<svg id="Layer_1" data-name="Layer 1" xmlns="http://www.w3.org/2000/svg" viewBox="0 0 24 24"><defs><style>.cls-1{fill:none;}</style></defs><title>iconoteka_vote_b_s</title><rect class="cls-1" width="24" height="24"/><path d="M16.55,1.43A2.47,2.47,0,0,0,15,4.37L15.44,6,14,6a2,2,0,0,0-1.53.71A2,2,0,0,0,12,8.33l.67,4a2,2,0,0,0,2,1.67H21l.11-7.9L19,.52ZM19,12H14.67L14,8l2.52-.09a1.14,1.14,0,0,0,.89-.47,1.17,1.17,0,0,0,.19-1L17,3.86a.48.48,0,0,1,.29-.56l.56-.2,1.28,3.36Z"/><rect x="22" y="6" width="2" height="8"/><path d="M11.3,11.67a2,2,0,0,0-2-1.67H3L2.9,17.9,5,23.48l2.42-.91A2.47,2.47,0,0,0,9,19.63l-.41-1.58L10,18a2,2,0,0,0,1.53-.71A2,2,0,0,0,12,15.67ZM7.44,16.09a1.14,1.14,0,0,0-.89.47,1.17,1.17,0,0,0-.19,1L7,20.14a.48.48,0,0,1-.29.56l-.56.2L4.91,17.54,5,12H9.33L10,16Z"/><rect y="10" width="2" height="8"/></svg>