<svg id="Layer_1" data-name="Layer 1" xmlns="http://www.w3.org/2000/svg" viewBox="0 0 24 24"><defs><style>.cls-1{fill:none;}</style></defs><title>iconoteka_face_adult_male_b_s</title><rect class="cls-1" width="24" height="24"/><path d="M20.69,10.84a2.29,2.29,0,0,0-.68-.56A8.1,8.1,0,0,0,5.68,4,8,8,0,0,0,4,10.28a2.29,2.29,0,0,0-.68.56,2.33,2.33,0,0,0-.48,1.92l.29,1.43A3.46,3.46,0,0,0,5.41,16.8a8.59,8.59,0,0,0,3.94,5.43,5.17,5.17,0,0,0,5.3,0,8.59,8.59,0,0,0,3.94-5.43,3.46,3.46,0,0,0,2.29-2.61l.29-1.43A2.33,2.33,0,0,0,20.69,10.84ZM16.76,5.28A6.16,6.16,0,0,1,18,8a2,2,0,0,1-2-2V4.5A7,7,0,0,1,16.76,5.28Zm-9.52,0a6,6,0,0,1,6-2.15L11.86,5.48A5,5,0,0,1,7.52,8H6A6.16,6.16,0,0,1,7.24,5.28Zm11.68,8.51A1.49,1.49,0,0,1,17.63,15l-.71.08-.28,1.26a6.52,6.52,0,0,1-3,4.19,3.18,3.18,0,0,1-3.26,0,6.52,6.52,0,0,1-3-4.19l-.28-1.26L6.37,15a1.49,1.49,0,0,1-1.29-1.19l-.29-1.42a.3.3,0,0,1,.07-.26A.34.34,0,0,1,5.15,12H6.4L6,10.42c0-.14,0-.28-.07-.42H7.52A7,7,0,0,0,13.6,6.47l.4-.7V6a4,4,0,0,0,4,4h0c0,.14,0,.28-.07.42L17.6,12h1.31a.29.29,0,0,1,.23.11.29.29,0,0,1,.07.25Z"/><path d="M14,17H10A2.08,2.08,0,0,0,14,17Z"/><path d="M12,16a1,1,0,0,0,1-1H11A1,1,0,0,0,12,16Z"/><circle cx="14.75" cy="12" r="1.25"/><circle cx="9.25" cy="12" r="1.25"/></svg>