<svg id="Layer_1" data-name="Layer 1" xmlns="http://www.w3.org/2000/svg" viewBox="0 0 24 24"><title>iconoteka_face_child__child_care__babysitter_b_b</title><path d="M15,16H9A3.26,3.26,0,0,0,15,16Zm0-4.25A1.25,1.25,0,1,0,16.25,13,1.25,1.25,0,0,0,15,11.75ZM10.25,13A1.25,1.25,0,1,0,9,14.25,1.25,1.25,0,0,0,10.25,13ZM19.8,9.23a8,8,0,0,0-15.6,0,4,4,0,0,0,.34,7.64,8,8,0,0,0,14.92,0,4,4,0,0,0,.34-7.64ZM19,14.93l-1,.25-.38,1a6,6,0,0,1-11.18,0l-.38-1-1-.25a2,2,0,0,1-.17-3.81l1.06-.36.24-1.09A6,6,0,0,1,8.54,6.11a2.58,2.58,0,0,0,0,.39,3.49,3.49,0,0,0,6.2,2.2L13.28,7.28A1.5,1.5,0,1,1,12,5a6,6,0,0,1,5.85,4.67l.24,1.09,1.06.36A2,2,0,0,1,19,14.93Z"/></svg>