<svg id="Layer_1" data-name="Layer 1" xmlns="http://www.w3.org/2000/svg" viewBox="0 0 24 24"><title>iconoteka_face_child__child_care__babysitter_l_s</title><path d="M12,18.31A3.76,3.76,0,0,0,15.5,16h-7A3.76,3.76,0,0,0,12,18.31Zm2.64-1.81a3.32,3.32,0,0,1-5.28,0Zm.61-4a.5.5,0,1,0,.5.5A.5.5,0,0,0,15.25,12.5Zm-6,.5a.5.5,0,1,0-.5.5A.5.5,0,0,0,9.25,13Zm10.69-3A8,8,0,0,0,4.06,10,3,3,0,0,0,4.26,16a8,8,0,0,0,15.48,0,3,3,0,0,0,.2-5.94Zm-.24,5.44-.35,0-.09.34a7.49,7.49,0,0,1-14.52,0l-.09-.34-.35,0a2.49,2.49,0,0,1-.16-4.94l.37-.06,0-.38A7.5,7.5,0,0,1,10,3.77,3,3,0,0,0,9,6a3,3,0,0,0,5.12,2.12l-.35-.35A2.5,2.5,0,1,1,12,3.5a7.5,7.5,0,0,1,7.44,6.6l0,.38.37.06a2.49,2.49,0,0,1-.16,4.94Z"/></svg>