<svg id="Layer_1" data-name="Layer 1" xmlns="http://www.w3.org/2000/svg" viewBox="0 0 24 24"><defs><style>.cls-1{fill:none;}</style></defs><title>iconoteka_fingerprint__touch_id_b_s</title><rect class="cls-1" width="24" height="24"/><path d="M14,22a8.94,8.94,0,0,1-5-1.54,1,1,0,0,0-1.38.27,1,1,0,0,0,.26,1.39A11,11,0,0,0,14,24a1,1,0,0,0,0-2Z"/><path d="M5,13V10a7,7,0,0,1,5.37-6.81A1,1,0,0,0,11.11,2,1,1,0,0,0,9.9,1.25,9,9,0,0,0,3,10v3a10.92,10.92,0,0,0,1.93,6.22,1,1,0,0,0,1.39.26,1,1,0,0,0,.26-1.39A8.88,8.88,0,0,1,5,13Z"/><path d="M14.32,1.3l-.23-.05a1,1,0,1,0-.46,1.94l.18,0A7,7,0,0,1,19,10v3a5,5,0,0,1-.56,2.31,1,1,0,0,0,.42,1.35,1,1,0,0,0,.46.11,1,1,0,0,0,.89-.53A7,7,0,0,0,21,13V10A9,9,0,0,0,14.32,1.3Z"/><path d="M16.26,17.46A4.89,4.89,0,0,1,14,18a5,5,0,0,1-5-5V10a3,3,0,0,1,6,0v3a1,1,0,0,1-2,0V10a1,1,0,0,0-2,0v3a3,3,0,0,0,6,0V10A5,5,0,0,0,7,10v3a7,7,0,0,0,10.17,6.24,1,1,0,1,0-.91-1.78Z"/></svg>