<svg id="Layer_1" data-name="Layer 1" xmlns="http://www.w3.org/2000/svg" viewBox="0 0 24 24"><defs><style>.cls-1{fill:none;}</style></defs><title>iconoteka_voice_b_s</title><rect class="cls-1" width="24" height="24"/><path d="M9.5,11A3.5,3.5,0,1,0,6,7.5,3.5,3.5,0,0,0,9.5,11Zm0-5A1.5,1.5,0,1,1,8,7.5,1.5,1.5,0,0,1,9.5,6Z"/><path d="M15.13,4.25a6.51,6.51,0,0,1,0,6.5l1.73,1a8.49,8.49,0,0,0,0-8.5Z"/><path d="M20.33,1.25l-1.73,1a10.54,10.54,0,0,1,0,10.5l1.73,1a12.53,12.53,0,0,0,0-12.5Z"/><path d="M9.5,12.62A8.74,8.74,0,0,0,3.29,15.2L3,15.49V21H16V15.49l-.29-.29A8.74,8.74,0,0,0,9.5,12.62ZM14,19H5V16.33a6.78,6.78,0,0,1,9,0Z"/></svg>