<svg id="Layer_1" data-name="Layer 1" xmlns="http://www.w3.org/2000/svg" viewBox="0 0 24 24"><defs><style>.cls-1{fill:none;}</style></defs><title>iconoteka_directions_bike_b_s</title><rect class="cls-1" width="24" height="24"/><path d="M16.14,4.54a1.75,1.75,0,1,0-1.75-1.75A1.75,1.75,0,0,0,16.14,4.54ZM19,13a5,5,0,1,0,5,5A5,5,0,0,0,19,13Zm0,8a3,3,0,1,1,3-3A3,3,0,0,1,19,21ZM5,13a5,5,0,1,0,5,5A5,5,0,0,0,5,13Zm0,8a3,3,0,1,1,3-3A3,3,0,0,1,5,21ZM19.71,10.29,15.12,5.71a3,3,0,0,0-4.24,0L8,8.59a2,2,0,0,0,0,2.82l3,3V20h2V14.41A2,2,0,0,0,12.41,13l-3-3,2.88-2.88a1,1,0,0,1,1.42,0l4.58,4.59Z"/></svg>