<svg id="Layer_1" data-name="Layer 1" xmlns="http://www.w3.org/2000/svg" viewBox="0 0 24 24"><defs><style>.cls-1{fill:none;}</style></defs><title>iconoteka_airline_seat_recline_extra_b_s</title><rect class="cls-1" width="24" height="24"/><path d="M10.08,18a2,2,0,0,1-1.94-1.48L5.8,7.74a1,1,0,1,0-1.93.52L6.21,17a4,4,0,0,0,3.87,3h5.83l-.53-2Z"/><circle cx="10" cy="3.74" r="1.75"/><path d="M18.76,15.48A2,2,0,0,0,16.83,14H14.92L13.54,8.85A2.51,2.51,0,0,0,11.12,7H9.77a1.46,1.46,0,0,0-1.19.59,1.48,1.48,0,0,0-.26,1.3L10.23,16h6.6l1.7,6.33,1.93-.52Zm-7-1.48L10.42,9h.7a.49.49,0,0,1,.48.37L12.85,14Z"/></svg>