<svg id="Layer_1" data-name="Layer 1" xmlns="http://www.w3.org/2000/svg" viewBox="0 0 24 24"><defs><style>.cls-1{fill:none;}</style></defs><title>iconoteka_thumb_down_b_s</title><rect class="cls-1" width="24" height="24"/><path d="M21.5,11.41l-1.2-6A3,3,0,0,0,17.36,3H7V14.85l4.52,8.36,1.5-.5a3.53,3.53,0,0,0,2.28-4.32l-1-3.39h4.23a3,3,0,0,0,2.94-3.59Zm-2.17,1.22a1,1,0,0,1-.77.37h-4.9a1.51,1.51,0,0,0-1.44,1.91l1.15,4a1.52,1.52,0,0,1-.89,1.84L9,14.34V5h8.36a1,1,0,0,1,1,.8l1.2,6A1,1,0,0,1,19.33,12.63Z"/><rect x="3" y="3" width="2" height="12"/></svg>