<svg id="Layer_1" data-name="Layer 1" xmlns="http://www.w3.org/2000/svg" viewBox="0 0 24 24"><defs><style>.cls-1{fill:none;}</style></defs><title>iconoteka_streetview_b_s</title><rect class="cls-1" width="24" height="24"/><path d="M17,9.79v2.15c1.91.79,3.17,2,3.17,3.38,0,2.34-3.74,4.32-8.17,4.32s-8.17-2-8.17-4.32C3.83,14,5.09,12.73,7,11.94V9.79c-3.11,1.07-5.17,3.12-5.17,5.53,0,3.54,4.47,6.32,10.17,6.32s10.17-2.78,10.17-6.32C22.17,12.91,20.11,10.86,17,9.79Z"/><circle cx="12" cy="3.23" r="1.5"/><path d="M10.75,16h2.5V12.34H15V7.07l-.29-.29a3.92,3.92,0,0,0-5.42,0L9,7.07v5.27h1.75ZM11,8a1.86,1.86,0,0,1,2,0v2.38H11Z"/></svg>