<svg id="Layer_1" data-name="Layer 1" xmlns="http://www.w3.org/2000/svg" viewBox="0 0 24 24"><title>iconoteka_face_child__child_care__babysitter_m_s</title><path d="M14.5,16h-5A2.72,2.72,0,0,0,14.5,16Zm.75-4a1,1,0,1,0,1,1A1,1,0,0,0,15.25,12Zm-6.5,0a1,1,0,1,0,1,1A1,1,0,0,0,8.75,12ZM19.8,9.23a8,8,0,0,0-15.6,0,4,4,0,0,0,.34,7.64,8,8,0,0,0,14.92,0,4,4,0,0,0,.34-7.64Zm-.7,6.18-.76.19-.28.73a6.49,6.49,0,0,1-12.12,0l-.28-.73-.76-.19a2.48,2.48,0,0,1-.21-4.76l.79-.27.19-.82a6.44,6.44,0,0,1,3-4.15A3.56,3.56,0,0,0,8.5,6.5a3.49,3.49,0,0,0,6.2,2.2L13.64,7.64A2,2,0,1,1,12,4.5a6.45,6.45,0,0,1,6.33,5.06l.19.82.79.27a2.48,2.48,0,0,1-.21,4.76Z"/></svg>