<svg id="Layer_1" data-name="Layer 1" xmlns="http://www.w3.org/2000/svg" viewBox="0 0 24 24"><title>iconoteka_group__people__community_m_s</title><path d="M6.5,11A3.5,3.5,0,1,0,3,7.5,3.5,3.5,0,0,0,6.5,11Zm0-5.5a2,2,0,1,1-2,2A2,2,0,0,1,6.5,5.5Zm11,5.5A3.5,3.5,0,1,0,14,7.5,3.5,3.5,0,0,0,17.5,11Zm0-5.5a2,2,0,1,1-2,2A2,2,0,0,1,17.5,5.5Zm6.26,9.79A8.85,8.85,0,0,0,12,14.62a8.85,8.85,0,0,0-11.76.67L0,15.53V21H24V15.53ZM11.25,19.5H1.5V16.16a7.28,7.28,0,0,1,5-2,7.42,7.42,0,0,1,4.57,1.59l.18.15Zm11.25,0H12.75V15.94l.18-.15A7.42,7.42,0,0,1,17.5,14.2a7.28,7.28,0,0,1,5,2Z"/></svg>