<svg id="Layer_1" data-name="Layer 1" xmlns="http://www.w3.org/2000/svg" viewBox="0 0 24 24"><defs><style>.cls-1{fill:none;}</style></defs><title>iconoteka_hand__pan_tool_b_s</title><rect class="cls-1" width="24" height="24"/><path d="M19.5,4a2.42,2.42,0,0,0-.54.06A2.5,2.5,0,0,0,16.5,2a2.42,2.42,0,0,0-.54.06,2.5,2.5,0,0,0-4.92,0A2.42,2.42,0,0,0,10.5,2,2.5,2.5,0,0,0,8,4.5v8.09l-1-.94a3.44,3.44,0,0,0-4.85,0l-1,1,4,6A9.69,9.69,0,0,0,13.27,23H14a8,8,0,0,0,8-8V6.5A2.5,2.5,0,0,0,19.5,4ZM20,15a6,6,0,0,1-6,6h-.73a7.7,7.7,0,0,1-6.4-3.41L3.76,12.94a1.45,1.45,0,0,1,1.88.13L8,15.37A1.2,1.2,0,0,0,10,14.52V4.5a.5.5,0,0,1,1,0v6.62h0a1,1,0,0,0,1.94,0h0V2.5a.5.5,0,0,1,1,0V11a1,1,0,0,0,2,0V4.5a.5.5,0,0,1,1,0V12a1,1,0,0,0,2,0V6.5a.5.5,0,0,1,1,0Z"/></svg>