<svg id="Layer_1" data-name="Layer 1" xmlns="http://www.w3.org/2000/svg" viewBox="0 0 24 24"><defs><style>.cls-1{fill:none;}</style></defs><title>iconoteka_add_group_b_s</title><rect class="cls-1" width="24" height="24"/><path d="M13,11a3,3,0,1,0-3-3A3,3,0,0,0,13,11Zm0-4.3A1.3,1.3,0,1,1,11.7,8,1.3,1.3,0,0,1,13,6.7Z"/><path d="M5,11A3,3,0,1,0,2,8,3,3,0,0,0,5,11ZM5,6.7A1.3,1.3,0,1,1,3.7,8,1.3,1.3,0,0,1,5,6.7Z"/><path d="M13,12.36a6.61,6.61,0,0,0-4,1.35,6.64,6.64,0,0,0-8.71.6l-.29.3V20H18V14.61l-.29-.3A6.65,6.65,0,0,0,13,12.36ZM8,18H2V15.46a4.76,4.76,0,0,1,6,0Zm8,0H10V15.46a4.76,4.76,0,0,1,6,0Z"/><polygon points="24 10.2 21.8 10.2 21.8 8 20.2 8 20.2 10.2 18 10.2 18 11.8 20.2 11.8 20.2 14 21.8 14 21.8 11.8 24 11.8 24 10.2"/></svg>