<svg id="Layer_1" data-name="Layer 1" xmlns="http://www.w3.org/2000/svg" viewBox="0 0 24 24"><defs><style>.cls-1{fill:none;}</style></defs><title>iconoteka_visibility_off_b_s</title><rect class="cls-1" width="24" height="24"/><path d="M12,5.06A13.86,13.86,0,0,0,0,12a13.84,13.84,0,0,0,24,0A13.86,13.86,0,0,0,12,5.06Zm0,11.88A11.92,11.92,0,0,1,2.38,12a11.84,11.84,0,0,1,19.24,0A11.92,11.92,0,0,1,12,16.94Z"/><polygon points="13.79 9.08 12 10.87 10.21 9.08 9.08 10.21 10.87 12 9.08 13.79 10.21 14.92 12 13.13 13.79 14.92 14.92 13.79 13.13 12 14.92 10.21 13.79 9.08"/></svg>