<svg id="Layer_1" data-name="Layer 1" xmlns="http://www.w3.org/2000/svg" viewBox="0 0 24 24"><defs><style>.cls-1{fill:none;}</style></defs><title>iconoteka_group_work_b_s</title><rect class="cls-1" width="24" height="24"/><path d="M6.5,11A3.5,3.5,0,1,0,3,7.5,3.5,3.5,0,0,0,6.5,11Zm0-5A1.5,1.5,0,1,1,5,7.5,1.5,1.5,0,0,1,6.5,6Z"/><path d="M17.5,11A3.5,3.5,0,1,0,14,7.5,3.5,3.5,0,0,0,17.5,11Zm0-5A1.5,1.5,0,1,1,16,7.5,1.5,1.5,0,0,1,17.5,6Z"/><path d="M23.71,15.2A8.76,8.76,0,0,0,12,14.56,8.76,8.76,0,0,0,.29,15.2L0,15.49V21H24V15.49ZM11,19H2V16.33a6.71,6.71,0,0,1,3.19-1.57L6.5,17l1.31-2.24A6.71,6.71,0,0,1,11,16.33Zm11,0H13V16.33a6.71,6.71,0,0,1,3.19-1.57L17.5,17l1.31-2.24A6.71,6.71,0,0,1,22,16.33Z"/></svg>