<svg id="Layer_1" data-name="Layer 1" xmlns="http://www.w3.org/2000/svg" viewBox="0 0 24 24"><defs><style>.cls-1{fill:none;}</style></defs><title>iconoteka_walk_b_s</title><rect class="cls-1" width="24" height="24"/><circle cx="13.46" cy="3.38" r="1.75"/><path d="M11.52,12.26l.87-3.16,1,1.8a1.56,1.56,0,0,0,.16.2l2.74,2.74,1.41-1.42L15.09,9.78,13.42,6.89a2,2,0,0,0-2.73-.73L7.58,8a2,2,0,0,0-.93,1.2l-1,3.59,1.93.53,1-3.59,1.87-1.08L8.11,17.14,5.3,22H7.61L9.9,18h0A1,1,0,0,0,10,17.8l.8-2.9L14.89,22H17.2l-5.51-9.54A.82.82,0,0,0,11.52,12.26Z"/></svg>