<svg id="Layer_1" data-name="Layer 1" xmlns="http://www.w3.org/2000/svg" viewBox="0 0 24 24"><defs><style>.cls-1{fill:none;}</style></defs><title>iconoteka_transfer_within_a_station_b_s</title><rect class="cls-1" width="24" height="24"/><polygon points="20.31 11 23.42 11 19 6.58 19 9 15 9 15 11 19 11 20.31 11"/><polygon points="17.69 13 14.58 13 19 17.42 19 15 23 15 23 13 19 13 17.69 13"/><circle cx="9.46" cy="3.38" r="1.75"/><path d="M9.42,10.9a1.56,1.56,0,0,0,.16.2l2.74,2.74,1.41-1.42L11.09,9.78,9.42,6.89a2,2,0,0,0-2.73-.73L3.58,8a2,2,0,0,0-.93,1.2l-1,3.59,1.93.53,1-3.59L6.45,8.61,4.11,17.14,1.3,22H3.61L5.9,18h0A1,1,0,0,0,6,17.8l.8-2.9L10.89,22H13.2L7.69,12.46a.82.82,0,0,0-.17-.2L8.39,9.1Z"/></svg>