<svg id="Layer_1" data-name="Layer 1" xmlns="http://www.w3.org/2000/svg" viewBox="0 0 24 24"><defs><style>.cls-1{fill:none;}</style></defs><title>iconoteka_wc__toilet_b_s</title><rect class="cls-1" width="24" height="24"/><circle cx="7" cy="3.75" r="1.75"/><circle cx="17" cy="3.75" r="1.75"/><path d="M7,7A5.19,5.19,0,0,0,3.3,8.53L3,8.82V16H5.65v6h2.7V16H11V8.82l-.29-.29A5.19,5.19,0,0,0,7,7Zm2,7H5V9.69a3.3,3.3,0,0,1,4,0Z"/><path d="M22.18,18,19.6,8.19,19.41,8a3.41,3.41,0,0,0-4.82,0l-.19.19L11.82,18h3.83v4h2.7V18Zm-6-8.74a1.41,1.41,0,0,1,1.64,0L19.59,16H14.41Z"/></svg>