<svg id="Layer_1" data-name="Layer 1" xmlns="http://www.w3.org/2000/svg" viewBox="0 0 24 24"><defs><style>.cls-1{fill:none;}</style></defs><title>iconoteka_supervisor_b_s</title><rect class="cls-1" width="24" height="24"/><path d="M12,6.85A3.35,3.35,0,1,0,8.65,3.5,3.35,3.35,0,0,0,12,6.85Zm0-5A1.65,1.65,0,1,1,10.35,3.5,1.65,1.65,0,0,1,12,1.85Z"/><path d="M17,10.17l-.29-.29a6.66,6.66,0,0,0-9.42,0L7,10.17V14H17ZM15,12H9V11a4.66,4.66,0,0,1,6,0Z"/><circle cx="12" cy="17.5" r="1.5"/><path d="M9,21.21V23h6V21.21a5.35,5.35,0,0,0-6,0Z"/><circle cx="20" cy="17.5" r="1.5"/><path d="M20,20.29a5.34,5.34,0,0,0-3,.92V23h6V21.21A5.34,5.34,0,0,0,20,20.29Z"/><circle cx="4" cy="17.5" r="1.5"/><path d="M1,21.21V23H7V21.21a5.35,5.35,0,0,0-6,0Z"/></svg>