<svg id="Layer_1" data-name="Layer 1" xmlns="http://www.w3.org/2000/svg" viewBox="0 0 24 24"><defs><style>.cls-1{fill:none;}</style></defs><title>iconoteka_rowing_b_s</title><rect class="cls-1" width="24" height="24"/><circle cx="14.57" cy="3.75" r="1.75"/><path d="M18.77,15,17.22,9.22A3,3,0,0,0,14.32,7H6.69a1,1,0,0,0-1,.8A.8.8,0,0,0,5.7,8s0,0,0,0,0,.06,0,.1v.09L7.54,15H0l1,2H8.07l.51,1.89a1.67,1.67,0,0,0-.53,1.72l.67,2.51L12,22.25l-.68-2.52A1.68,1.68,0,0,0,10,18.52L9.63,17H23l1-2ZM15.29,9.74l.85,3.19L13.6,10.39a1,1,0,0,0-1.41,0L8.77,13.8,7.48,9h6.84A1,1,0,0,1,15.29,9.74Zm.1,5.26h-5l2.5-2.49Z"/></svg>