<svg id="Layer_1" data-name="Layer 1" xmlns="http://www.w3.org/2000/svg" viewBox="0 0 24 24"><defs><style>.cls-1{fill:none;}</style></defs><title>iconoteka_airline_seat_flat_angled_b_s</title><rect class="cls-1" width="24" height="24"/><path d="M22.88,14.88,21,14.36h0a5,5,0,0,0-3.53-6.12l-5.8-1.55A2,2,0,0,0,9.17,8.1L8.4,11,1.63,9.19l-.51,1.93L6,12.43V19H18V15.64l4.37,1.17ZM11.1,8.62l5.8,1.55A3,3,0,0,1,19,13.85h0l-8.69-2.33ZM16,17H8V13l.84.23h0L16,15.11Z"/><path d="M5.4,8.64A1.75,1.75,0,1,0,4.17,6.5,1.75,1.75,0,0,0,5.4,8.64Z"/></svg>