<svg id="Layer_1" data-name="Layer 1" xmlns="http://www.w3.org/2000/svg" viewBox="0 0 24 24"><defs><style>.cls-1{fill:none;}</style></defs><title>iconoteka_thumb_up_b_s</title><rect class="cls-1" width="24" height="24"/><path d="M20.88,10.1A3,3,0,0,0,18.56,9H14.33l1-3.39A3.54,3.54,0,0,0,13,1.28L11.52.79,7,9.15V21H17.36a3,3,0,0,0,2.94-2.41l1.2-6A3,3,0,0,0,20.88,10.1Zm-2.54,8.1a1,1,0,0,1-1,.8H9V9.66l3.48-6.44a1.52,1.52,0,0,1,.89,1.84l-1.15,4A1.51,1.51,0,0,0,13.66,11h4.9a1,1,0,0,1,.77.37,1,1,0,0,1,.21.83Z"/><rect x="3" y="9" width="2" height="12"/></svg>