<svg id="Layer_1" data-name="Layer 1" xmlns="http://www.w3.org/2000/svg" viewBox="0 0 24 24"><defs><style>.cls-1{fill:none;}</style></defs><title>iconoteka_airline_seat__recline_normal__legroom_reduced_b_s</title><rect class="cls-1" width="24" height="24"/><path d="M7,16V8A1,1,0,0,0,5,8v8a4,4,0,0,0,4,4h3.92l.54-2H9A2,2,0,0,1,7,16Z"/><circle cx="11.5" cy="3.74" r="1.75"/><path d="M17.65,14.78A2,2,0,0,0,16.06,14H14V9.5A2.5,2.5,0,0,0,11.5,7h-1A1.5,1.5,0,0,0,9,8.5V16h7.06L14.6,21.47l1.93.52L18,16.52A2,2,0,0,0,17.65,14.78ZM12,14H11V9h.5a.5.5,0,0,1,.5.5Z"/></svg>