<svg id="Layer_1" data-name="Layer 1" xmlns="http://www.w3.org/2000/svg" viewBox="0 0 24 24"><defs><style>.cls-1{fill:none;}</style></defs><title>iconoteka_add_user__add_identity__add_person_b_s</title><rect class="cls-1" width="24" height="24"/><path d="M10,10A4,4,0,1,0,6,6,4,4,0,0,0,10,10Zm0-6A2,2,0,1,1,8,6,2,2,0,0,1,10,4Z"/><path d="M2.29,15.2,2,15.5V21H18V15.5l-.29-.3A10.92,10.92,0,0,0,2.29,15.2ZM16,19H4V16.34a8.9,8.9,0,0,1,12,0Z"/><polygon points="22.77 8.65 20.35 8.65 20.35 6.23 18.65 6.23 18.65 8.65 16.23 8.65 16.23 10.35 18.65 10.35 18.65 12.77 20.35 12.77 20.35 10.35 22.77 10.35 22.77 8.65"/></svg>