<svg id="Layer_1" data-name="Layer 1" xmlns="http://www.w3.org/2000/svg" viewBox="0 0 24 24"><defs><style>.cls-1{fill:none;}</style></defs><title>iconoteka_tub_hot_b_s</title><rect class="cls-1" width="24" height="24"/><circle cx="6.5" cy="4.74" r="1.75"/><path d="M10.54,11,9.43,9.34A3,3,0,0,0,6.93,8H5.5A1.5,1.5,0,0,0,4,9.5V11H2v7a3.13,3.13,0,0,0,3.22,3H18.78A3.13,3.13,0,0,0,22,18V11ZM6,10h.93a1,1,0,0,1,.83.45l.37.55H6Zm14,8a1.13,1.13,0,0,1-1.22,1H5.22A1.13,1.13,0,0,1,4,18V13H20Z"/><path d="M15.85,7.41A2.56,2.56,0,0,1,16.6,5.6a4.2,4.2,0,0,0,1.25-3V2h-1.7v.59A2.56,2.56,0,0,1,15.4,4.4a4.2,4.2,0,0,0-1.25,3V8h1.7Z"/><path d="M19.85,7.41A2.56,2.56,0,0,1,20.6,5.6a4.2,4.2,0,0,0,1.25-3V2h-1.7v.59A2.56,2.56,0,0,1,19.4,4.4a4.2,4.2,0,0,0-1.25,3V8h1.7Z"/></svg>