<svg id="Layer_1" data-name="Layer 1" xmlns="http://www.w3.org/2000/svg" viewBox="0 0 24 24"><title>iconoteka_chair_modern_m_s</title><path d="M15.71,13.3,18.93,13l-.43-2.37a1.6,1.6,0,0,0-1.57-1.32H9.72L7.81,2.19A1.61,1.61,0,0,0,6.26,1H3.78L5.63,11.5a2.93,2.93,0,0,0,2.44,2.38,2.39,2.39,0,0,0-.18.44L5.83,22H7.25l2-7.32a1.2,1.2,0,0,1,1.07-.9l3.15-.28a1.24,1.24,0,0,1,1.29.9l2,7.6h1.42L16,14A2.92,2.92,0,0,0,15.71,13.3Zm-8.6-2.06L5.56,2.5h.7a.1.1,0,0,1,.1.07l2.21,8.26h8.36a.11.11,0,0,1,.1.09l.13.75-8.51.75H8.52A1.43,1.43,0,0,1,7.11,11.24Z"/></svg>