<svg id="Layer_1" data-name="Layer 1" xmlns="http://www.w3.org/2000/svg" viewBox="0 0 24 24"><title>iconoteka_king_size_bed_r_s</title><path d="M22,13V8a2,2,0,0,0-2-2H4A2,2,0,0,0,2,8v5H0v7H1V18H23v2h1V13ZM3,8A1,1,0,0,1,4,7H20a1,1,0,0,1,1,1v5H19.07l-.53-1.06A1.7,1.7,0,0,0,17,11h-1.7a1.7,1.7,0,0,0-1.52.94L13.27,13H10.73l-.53-1.06A1.7,1.7,0,0,0,8.68,11H7a1.7,1.7,0,0,0-1.52.94L4.93,13H3Zm15,5H14.39l.31-.61a.67.67,0,0,1,.62-.39H17a.7.7,0,0,1,.62.39ZM9.61,13H6.05l.31-.61A.7.7,0,0,1,7,12h1.7a.67.67,0,0,1,.62.39ZM1,17V14H23v3Z"/></svg>