<svg id="Layer_1" data-name="Layer 1" xmlns="http://www.w3.org/2000/svg" viewBox="0 0 24 24"><defs><style>.cls-1{fill:#fff;}</style></defs><title>iconoteka_computer_table_l_f</title><rect x="10.5" y="2.5" width="3" height="18" transform="translate(23.5 -0.5) rotate(90)"/><polygon points="3.5 10 3 10 3 21 3.5 21 3.5 10 3.5 10"/><polygon points="21 10 20.5 10 20.5 21 21 21 21 10 21 10"/><rect class="cls-1" x="7.25" y="2.25" width="9.5" height="5.5" rx="0.25"/><path d="M16.5,2.5v5h-9v-5h9m0-.5h-9a.5.5,0,0,0-.5.5v5a.5.5,0,0,0,.5.5h9a.5.5,0,0,0,.5-.5v-5a.5.5,0,0,0-.5-.5Z"/><rect x="11" y="8" width="2" height="2"/><rect x="10" y="9.5" width="4" height="0.5"/></svg>