<svg id="Layer_1" data-name="Layer 1" xmlns="http://www.w3.org/2000/svg" viewBox="0 0 24 24"><title>iconoteka_rocking_chair_l_s</title><path d="M22.14,17.7a15.56,15.56,0,0,1-5.09,2.93L15.27,14H19V11.6A1.6,1.6,0,0,0,17.4,10H15V8a2,2,0,0,0-2-2H8.09l-1-3.81A1.59,1.59,0,0,0,5.53,1H3.44L5.22,11.11A3.51,3.51,0,0,0,8.67,14h.15L7,20.66a15.55,15.55,0,0,1-5.17-3l-.33.38a15.94,15.94,0,0,0,20.94,0ZM13,6.5A1.5,1.5,0,0,1,14.48,8v2H9.17L8.23,6.5Zm-7.45-5a1.11,1.11,0,0,1,1.06.82L7.58,6H4.83L4,1.5ZM5.72,11,4.92,6.5H7.71l1,3.63.1.37H17.4a1.1,1.1,0,0,1,1.1,1.1v1.9H8.67A3,3,0,0,1,5.72,11Zm1.79,9.8L9.34,14h5.42l1.82,6.79A15.4,15.4,0,0,1,12,21.5,15.16,15.16,0,0,1,7.51,20.82Z"/></svg>