<svg id="Layer_1" data-name="Layer 1" xmlns="http://www.w3.org/2000/svg" viewBox="0 0 24 24"><defs><style>.cls-1{fill:#fff;}</style></defs><title>iconoteka_computer_table_r_f</title><rect x="10.5" y="2.5" width="3" height="18" transform="translate(23.5 -0.5) rotate(90)"/><polygon points="4 10 3 10 3 21 4 21 4 10 4 10"/><polygon points="21 10 20 10 20 21 21 21 21 10 21 10"/><rect class="cls-1" x="7.5" y="2.5" width="9" height="5" rx="0.5"/><path d="M16,3V7H8V3h8m0-1H8A1,1,0,0,0,7,3V7A1,1,0,0,0,8,8h8a1,1,0,0,0,1-1V3a1,1,0,0,0-1-1Z"/><rect x="11" y="8" width="2" height="2"/><rect x="10" y="9" width="4" height="1"/></svg>