<svg id="Layer_1" data-name="Layer 1" xmlns="http://www.w3.org/2000/svg" viewBox="0 0 24 24"><title>iconoteka_stove_l_f</title><path d="M8.22,6.22a2,2,0,1,0,2,2A2,2,0,0,0,8.22,6.22Zm7.56,7.56a2,2,0,1,0,2,2A2,2,0,0,0,15.78,13.78Zm-7.56,0a2,2,0,1,0,2,2A2,2,0,0,0,8.22,13.78ZM3,3V21H21V3ZM8.22,18.28a2.5,2.5,0,1,1,2.5-2.5A2.5,2.5,0,0,1,8.22,18.28Zm0-7.56a2.5,2.5,0,1,1,2.5-2.5A2.5,2.5,0,0,1,8.22,10.72Zm7.56,7.56a2.5,2.5,0,1,1,2.5-2.5A2.5,2.5,0,0,1,15.78,18.28Zm0-7.56a2.5,2.5,0,1,1,2.5-2.5A2.5,2.5,0,0,1,15.78,10.72Z"/></svg>