<svg id="Layer_1" data-name="Layer 1" xmlns="http://www.w3.org/2000/svg" viewBox="0 0 24 24"><title>iconoteka_utilities_m_s</title><path d="M6.5,13.8a3.7,3.7,0,1,0,3.7,3.7A3.7,3.7,0,0,0,6.5,13.8Zm0,5.95A2.25,2.25,0,1,1,8.75,17.5,2.25,2.25,0,0,1,6.5,19.75Zm11-9.07a3.1,3.1,0,0,0,3.1-3.1c0-2.48-3.1-5.66-3.1-5.66S14.4,5.1,14.4,7.58A3.1,3.1,0,0,0,17.5,10.68Zm0-6.53a7.07,7.07,0,0,1,1.65,3.43,1.65,1.65,0,0,1-3.3,0A7,7,0,0,1,17.5,4.15ZM14,14v7h7V14Zm5.55,5.55h-4.1v-4.1h4.1ZM9.16,10l1-7H2.84l1,7ZM8.48,4.45,7.9,8.55H5.1l-.58-4.1Z"/></svg>