<svg id="Layer_1" data-name="Layer 1" xmlns="http://www.w3.org/2000/svg" viewBox="0 0 24 24"><title>iconoteka_stove_r_f</title><path d="M15.81,14.1a1.72,1.72,0,1,0,1.72,1.71A1.72,1.72,0,0,0,15.81,14.1Zm-7.62,0A1.72,1.72,0,1,0,9.9,15.81,1.72,1.72,0,0,0,8.19,14.1Zm0-7.63A1.72,1.72,0,1,0,9.9,8.19,1.72,1.72,0,0,0,8.19,6.47ZM3,3V21H21V3ZM8.19,18.4a2.59,2.59,0,1,1,2.58-2.59A2.59,2.59,0,0,1,8.19,18.4Zm0-7.63a2.59,2.59,0,1,1,2.58-2.58A2.59,2.59,0,0,1,8.19,10.77Zm7.62,7.63a2.59,2.59,0,1,1,2.59-2.59A2.59,2.59,0,0,1,15.81,18.4Zm0-7.63A2.59,2.59,0,1,1,18.4,8.19,2.59,2.59,0,0,1,15.81,10.77Z"/></svg>