<svg id="Layer_1" data-name="Layer 1" xmlns="http://www.w3.org/2000/svg" viewBox="0 0 24 24"><title>iconoteka_sofa__event_seat_l_s</title><path d="M20,9.05V6a3,3,0,0,0-3-3H7A3,3,0,0,0,4,6V9.05a2.49,2.49,0,0,0-2,2.44V17a2,2,0,0,0,2,2v2h.5V19h15v2H20V19a2,2,0,0,0,2-2V11.49A2.49,2.49,0,0,0,20,9.05ZM7,3.5H17A2.5,2.5,0,0,1,19.5,6V9h0A2.48,2.48,0,0,0,17,11.49V13H7V11.49A2.49,2.49,0,0,0,4.5,9V6A2.5,2.5,0,0,1,7,3.5ZM21.5,17A1.5,1.5,0,0,1,20,18.5H4A1.5,1.5,0,0,1,2.5,17V11.49a2,2,0,1,1,4,0v2h11v-2a2,2,0,0,1,2-2h0a2,2,0,0,1,2,2Z"/></svg>