<svg id="Layer_1" data-name="Layer 1" xmlns="http://www.w3.org/2000/svg" viewBox="0 0 24 24"><title>iconoteka_stove_m_f</title><path d="M15.84,14.41a1.44,1.44,0,0,0,0,2.87,1.44,1.44,0,1,0,0-2.87ZM8.16,6.72a1.44,1.44,0,1,0,0,2.87,1.44,1.44,0,0,0,0-2.87ZM3,3V21H21V3ZM8.16,18.51a2.67,2.67,0,1,1,2.66-2.67A2.66,2.66,0,0,1,8.16,18.51Zm0-7.69a2.67,2.67,0,1,1,2.66-2.66A2.66,2.66,0,0,1,8.16,10.82Zm7.68,7.69a2.67,2.67,0,1,1,2.67-2.67A2.66,2.66,0,0,1,15.84,18.51Zm0-7.69a2.67,2.67,0,1,1,2.67-2.66A2.66,2.66,0,0,1,15.84,10.82ZM8.16,14.41a1.44,1.44,0,1,0,1.43,1.43A1.44,1.44,0,0,0,8.16,14.41Z"/></svg>