<svg id="Layer_1" data-name="Layer 1" xmlns="http://www.w3.org/2000/svg" viewBox="0 0 24 24"><title>iconoteka_stove_b_s</title><path d="M3,3V21H21V3ZM19,19H5V5H19Zm-3.88-7.62a2.5,2.5,0,1,0-2.5-2.5A2.49,2.49,0,0,0,15.12,11.38Zm0-3.41a.91.91,0,0,1,.91.91A.91.91,0,1,1,15.12,8ZM8.88,11.38a2.5,2.5,0,1,0-2.5-2.5A2.5,2.5,0,0,0,8.88,11.38ZM8.88,8a.91.91,0,0,1,.9.91A.91.91,0,0,1,8,8.88.91.91,0,0,1,8.88,8Zm0,9.65a2.5,2.5,0,1,0-2.5-2.5A2.49,2.49,0,0,0,8.88,17.62Zm0-3.4a.9.9,0,1,1-.91.9A.91.91,0,0,1,8.88,14.22Zm6.24,3.4a2.5,2.5,0,1,0-2.5-2.5A2.49,2.49,0,0,0,15.12,17.62Zm0-3.4a.9.9,0,1,1-.9.9A.91.91,0,0,1,15.12,14.22Z"/></svg>