<svg id="Layer_1" data-name="Layer 1" xmlns="http://www.w3.org/2000/svg" viewBox="0 0 24 24"><title>iconoteka_utilities_l_s</title><path d="M6.5,13.8a3.7,3.7,0,1,0,3.7,3.7A3.7,3.7,0,0,0,6.5,13.8Zm0,6.9a3.2,3.2,0,1,1,3.2-3.2A3.21,3.21,0,0,1,6.5,20.7Zm11-10a3.1,3.1,0,0,0,3.1-3.1c0-2.48-3.1-5.66-3.1-5.66S14.4,5.1,14.4,7.58A3.1,3.1,0,0,0,17.5,10.68Zm0-8c1,1.08,2.6,3.28,2.6,4.92a2.6,2.6,0,0,1-5.2,0C14.9,5.81,16.72,3.55,17.5,2.66ZM14,14v7h7V14Zm6.5,6.5h-6v-6h6ZM9.16,10l1-7H2.84l1,7Zm.42-6.5-.86,6H4.28l-.86-6Z"/></svg>