<svg id="Layer_1" data-name="Layer 1" xmlns="http://www.w3.org/2000/svg" viewBox="0 0 24 24"><title>iconoteka_rocking_chair_l_f</title><path d="M22.14,17.7a15.56,15.56,0,0,1-5.09,2.93L15.27,14H19V12.36A1.36,1.36,0,0,0,17.64,11H14V9a2,2,0,0,0-2-2H7.25L5.88,1.89A1.21,1.21,0,0,0,4.71,1H3.44L5.73,14H8.82L7,20.66a15.55,15.55,0,0,1-5.17-3l-.33.38a15.94,15.94,0,0,0,20.94,0ZM12,7.5A1.5,1.5,0,0,1,13.48,9v2H8.32L7.38,7.5ZM7.51,20.82,9.34,14h5.42l1.82,6.79A15.4,15.4,0,0,1,12,21.5,15.16,15.16,0,0,1,7.51,20.82Z"/></svg>