<svg id="Layer_1" data-name="Layer 1" xmlns="http://www.w3.org/2000/svg" viewBox="0 0 24 24"><defs><style>.cls-1{fill:none;}</style></defs><title>iconoteka_convenience_store_b_s</title><rect class="cls-1" width="24" height="24"/><path d="M2,10V22H22V10Zm18,2v2H4V12ZM4,20V16H9v4Zm7,0V16h2v4Zm4,0V16h5v4Z"/><polygon points="15.97 5.6 15.97 8 17.43 8 17.43 5.6 17.43 4.4 17.43 2 15.97 2 15.97 4.4 14.03 4.4 14.03 2 12.57 2 12.57 4.4 12.57 5.6 14.03 5.6 15.97 5.6"/><path d="M11.31,8V6.6H8v-1h2a1.52,1.52,0,0,0,1.51-1.51V3.51A1.52,1.52,0,0,0,10.07,2H6.58V3.4h3.53v1H6.58V8h4.73Z"/></svg>