<svg id="Layer_1" data-name="Layer 1" xmlns="http://www.w3.org/2000/svg" viewBox="0 0 24 24"><title>iconoteka_chair_modern_cross_struts_r_s</title><path d="M18.88,12.68l-.35-1.87a1.39,1.39,0,0,0-1.37-1.14H9.47L7.42,2A1.39,1.39,0,0,0,6.07,1h-2L5.92,11.21a2.86,2.86,0,0,0,2.4,2.32L6.05,22H7l.87-3.23L12,16.38l4.07,2.35L17,22h1l-2.41-9ZM6.91,11,5.31,2h.76a.41.41,0,0,1,.39.3L8.7,10.67h8.46a.4.4,0,0,1,.39.32l.15.8-8.79.77H8.74A1.85,1.85,0,0,1,6.91,11ZM8.2,17.59l.8-3,2.17,1.25Zm1-3.83.06-.22,5.29-.47.2.72L12,15.38Zm6.55,3.78L12.9,15.88,15,14.66Z"/></svg>