<svg id="Layer_1" data-name="Layer 1" xmlns="http://www.w3.org/2000/svg" viewBox="0 0 24 24"><title>iconoteka_office_chair_l_f</title><path d="M18.28,19.8a1.1,1.1,0,1,0,1.1,1.1A1.11,1.11,0,0,0,18.28,19.8Zm-10.56,0a1.1,1.1,0,1,0,1.11,1.1A1.1,1.1,0,0,0,7.72,19.8Zm2.7-6.74,2.33-.21V18.5H7.25a.25.25,0,0,0-.25.25V19H19v-.25a.25.25,0,0,0-.25-.25h-5.5V12.81l6.43-.56-.17-.89a.86.86,0,0,0-.84-.69H15.24L15.84,9a1.5,1.5,0,0,0-1.41-2H9.23L8,2.41a1,1,0,0,0-1-.74H6.27L8,11.16A2.3,2.3,0,0,0,10.42,13.06Zm4-5.56a1,1,0,0,1,.82.43,1,1,0,0,1,.12.91l-.67,1.83H10.21L9.36,7.5Z"/></svg>