<svg id="Layer_1" data-name="Layer 1" xmlns="http://www.w3.org/2000/svg" viewBox="0 0 24 24"><defs><style>.cls-1{fill:#fff;}</style></defs><title>iconoteka_work_table_l_f</title><rect x="13.25" y="10.25" width="10.5" height="7" transform="translate(32.25 -4.75) rotate(90)"/><polygon points="2.5 6 2 6 2 19 2.5 19 2.5 6 2.5 6"/><rect class="cls-1" x="15" y="14" width="7" height="0.5"/><rect x="10.5" y="-2.5" width="3" height="20" transform="translate(19.5 -4.5) rotate(90)"/><rect class="cls-1" x="13.2" y="9" width="10.59" height="0.5"/><path class="cls-1" d="M19,10H18a.5.5,0,0,1-.5-.5h2A.5.5,0,0,1,19,10Z"/><path class="cls-1" d="M19,15H18a.5.5,0,0,1-.5-.5h2A.5.5,0,0,1,19,15Z"/></svg>