<svg id="Layer_1" data-name="Layer 1" xmlns="http://www.w3.org/2000/svg" viewBox="0 0 24 24"><title>iconoteka_bunk_bed_l_s</title><path d="M20.5,4V8h-5V4H15V8H11.21l-.78-1.56A1.7,1.7,0,0,0,8.91,5.5H7.21a1.7,1.7,0,0,0-1.52.94L4.91,8H3.5V4H3V20h.5V16.5H15V20h.5V16.5h5V20H21V4ZM6.14,6.66A1.18,1.18,0,0,1,7.21,6h1.7A1.19,1.19,0,0,1,10,6.66L10.65,8H5.47ZM5.47,16l.67-1.34A1.18,1.18,0,0,1,7.21,14h1.7a1.19,1.19,0,0,1,1.07.66L10.65,16Zm5.74,0-.78-1.56a1.7,1.7,0,0,0-1.52-.94H7.21a1.7,1.7,0,0,0-1.52.94L4.91,16H3.5V8.5H15V16Zm9.29,0h-5V12.75h5Zm0-3.75h-5V8.5h5Z"/></svg>