<svg id="Layer_1" data-name="Layer 1" xmlns="http://www.w3.org/2000/svg" viewBox="0 0 24 24"><title>iconoteka_rocking_chair_b_f</title><path d="M21.16,16.57a14.46,14.46,0,0,1-3.73,2.31L16,14h3V11.6A1.6,1.6,0,0,0,17.4,10H16V8a3,3,0,0,0-3-3H7.83L7.07,2.19A1.59,1.59,0,0,0,5.53,1H3.44L5.73,14H8.15L6.81,19a14.24,14.24,0,0,1-4-2.42L1.53,18.08a15.94,15.94,0,0,0,20.94,0ZM13,6.8A1.2,1.2,0,0,1,14.18,8v2h-5L8.31,6.8ZM8.52,19.55,10,14H14.1l1.63,5.49A13.94,13.94,0,0,1,12,20,13.77,13.77,0,0,1,8.52,19.55Z"/></svg>