<svg id="Layer_1" data-name="Layer 1" xmlns="http://www.w3.org/2000/svg" viewBox="0 0 24 24"><title>iconoteka_stove_r_s</title><path d="M3,3V21H21V3ZM20,20H4V4H20Zm-4.45-9a2.5,2.5,0,1,0-2.5-2.5A2.49,2.49,0,0,0,15.55,11Zm0-4.13a1.64,1.64,0,1,1-1.64,1.63A1.63,1.63,0,0,1,15.55,6.82ZM8.45,11A2.5,2.5,0,1,0,6,8.45,2.49,2.49,0,0,0,8.45,11Zm0-4.13A1.64,1.64,0,1,1,6.82,8.45,1.63,1.63,0,0,1,8.45,6.82Zm0,11.23A2.5,2.5,0,1,0,6,15.55,2.49,2.49,0,0,0,8.45,18.05Zm0-4.14a1.64,1.64,0,1,1-1.63,1.64A1.63,1.63,0,0,1,8.45,13.91Zm7.1,4.14a2.5,2.5,0,1,0-2.5-2.5A2.5,2.5,0,0,0,15.55,18.05Zm0-4.14a1.64,1.64,0,1,1-1.64,1.64A1.63,1.63,0,0,1,15.55,13.91Z"/></svg>