<svg id="Layer_1" data-name="Layer 1" xmlns="http://www.w3.org/2000/svg" viewBox="0 0 24 24"><defs><style>.cls-1{fill:#fff;}</style></defs><title>iconoteka_work_table_m_f</title><rect x="10.5" y="-2.5" width="3" height="20" transform="translate(19.5 -4.5) rotate(90)"/><polygon points="3.5 6 2 6 2 19 3.5 19 3.5 6 3.5 6"/><rect x="13.5" y="10.5" width="10" height="7" transform="translate(32.5 -4.5) rotate(90)"/><rect class="cls-1" x="12" y="9" width="11" height="1.5"/><rect class="cls-1" x="12" y="14" width="11" height="1.5"/><path class="cls-1" d="M17.5,9.5h2a0,0,0,0,1,0,0V11a.5.5,0,0,1-.5.5H18a.5.5,0,0,1-.5-.5V9.5A0,0,0,0,1,17.5,9.5Z"/><path class="cls-1" d="M17.5,14.5h2a0,0,0,0,1,0,0V16a.5.5,0,0,1-.5.5H18a.5.5,0,0,1-.5-.5V14.5A0,0,0,0,1,17.5,14.5Z"/></svg>