<svg id="Layer_1" data-name="Layer 1" xmlns="http://www.w3.org/2000/svg" viewBox="0 0 24 24"><title>iconoteka_couch__sofa__weekend_r_s</title><path d="M21,10.05V8a3,3,0,0,0-3-3H6A3,3,0,0,0,3,8v2.05a2.49,2.49,0,0,0-2,2.44V17a2,2,0,0,0,2,2v2H4V19H20v2h1V19a2,2,0,0,0,2-2V12.49A2.49,2.49,0,0,0,21,10.05ZM6,6H18a2,2,0,0,1,2,2v2.05a2.49,2.49,0,0,0-2,2.44V14H6V12.49a2.5,2.5,0,0,0-2-2.44V8A2,2,0,0,1,6,6ZM22,17a1,1,0,0,1-1,1H3a1,1,0,0,1-1-1V12.49a1.49,1.49,0,0,1,3,0V15H19V12.49A1.49,1.49,0,0,1,20.49,11h0A1.49,1.49,0,0,1,22,12.49Z"/></svg>