<svg id="Layer_1" data-name="Layer 1" xmlns="http://www.w3.org/2000/svg" viewBox="0 0 24 24"><title>iconoteka_water_bed_l_s</title><path d="M20,12.5V7a2,2,0,0,0-2-2H6A2,2,0,0,0,4,7v5.5H2V20H22V12.5ZM4.5,7A1.5,1.5,0,0,1,6,5.5H18A1.5,1.5,0,0,1,19.5,7v5.5h-.77L18,10.94A1.7,1.7,0,0,0,16.43,10h-1.7a1.7,1.7,0,0,0-1.52.94l-.78,1.56h-.86l-.78-1.56A1.7,1.7,0,0,0,9.27,10H7.57a1.7,1.7,0,0,0-1.52.94L5.27,12.5H4.5Zm13.67,5.5H13l.67-1.34a1.2,1.2,0,0,1,1.07-.66h1.7a1.18,1.18,0,0,1,1.07.66ZM11,12.5H5.83l.67-1.34a1.18,1.18,0,0,1,1.07-.66h1.7a1.2,1.2,0,0,1,1.07.66Zm10.49,7H2.5V13h19Zm-11.27-3a2.95,2.95,0,0,0,3.54,0,2.4,2.4,0,0,1,3,0,3.12,3.12,0,0,0,1.77.59v-.5A2.55,2.55,0,0,1,17,16a2.95,2.95,0,0,0-3.54,0,2.4,2.4,0,0,1-3,0A3,3,0,0,0,7,16a2.55,2.55,0,0,1-1.48.51v.5a3.12,3.12,0,0,0,1.77-.59A2.4,2.4,0,0,1,10.23,16.46Z"/></svg>