<svg id="Layer_1" data-name="Layer 1" xmlns="http://www.w3.org/2000/svg" viewBox="0 0 24 24"><defs><style>.cls-1{fill:none;}</style></defs><title>iconoteka_library_b_s</title><rect class="cls-1" width="24" height="24"/><path d="M12,2.53,3,7.73V22H21V7.73ZM19,20H5V8.88l7-4,7,4Z"/><path d="M7,10v7.79H8a7.59,7.59,0,0,1,3.34.79l.66.33.66-.33A7.59,7.59,0,0,1,16,17.79h1V10H15.77a9.43,9.43,0,0,0-3.77.78A9.43,9.43,0,0,0,8.23,10Zm8,5.85a9.17,9.17,0,0,0-2,.44V12.55A7.36,7.36,0,0,1,15,12ZM9,12a7.36,7.36,0,0,1,2,.51v3.74a9.17,9.17,0,0,0-2-.44Z"/></svg>