<svg id="Layer_1" data-name="Layer 1" xmlns="http://www.w3.org/2000/svg" viewBox="0 0 24 24"><title>iconoteka_couch__sofa__weekend_m_s</title><path d="M21,10.18V8a3,3,0,0,0-3-3H6A3,3,0,0,0,3,8v2.18A3,3,0,0,0,1,13v4a2,2,0,0,0,2,2v2H4.5V19h15v2H21V19a2,2,0,0,0,2-2V13A3,3,0,0,0,21,10.18ZM6,6.5H18A1.5,1.5,0,0,1,19.5,8v2.05A3,3,0,0,0,17,13H7A3,3,0,0,0,4.5,10.05V8A1.5,1.5,0,0,1,6,6.5ZM21.5,17a.5.5,0,0,1-.5.5H3a.5.5,0,0,1-.5-.5V13a1.49,1.49,0,1,1,3,0v1.5h13V13A1.49,1.49,0,0,1,20,11.5h0A1.49,1.49,0,0,1,21.5,13Z"/></svg>