<svg id="Layer_1" data-name="Layer 1" xmlns="http://www.w3.org/2000/svg" viewBox="0 0 24 24"><title>iconoteka_office_chair_l_s</title><path d="M18.12,19.5H13.25V13.94l6.57-.59L19.56,12a1.2,1.2,0,0,0-1.18-1H15.11l.73-2a1.5,1.5,0,0,0-1.41-2H9.14L8,2.89A1.2,1.2,0,0,0,6.88,2H5.45l1.76,9.91A2.8,2.8,0,0,0,10,14.22h.25L12.75,14V19.5H7.88a1.25,1.25,0,1,0,1.24,1.25A1.23,1.23,0,0,0,8.85,20h8.3a1.23,1.23,0,0,0-.27.75,1.25,1.25,0,1,0,1.24-1.25Zm-3.69-12a1,1,0,0,1,.82.43,1,1,0,0,1,.12.91L14.58,11H10.21L9.27,7.5Zm-7.55-5A.71.71,0,0,1,7.56,3L8.62,7H6.85l-.8-4.5Zm3.29,11.21H10a2.3,2.3,0,0,1-2.26-1.9L6.93,7.5H8.76l1,3.63.1.37h8.55a.7.7,0,0,1,.69.57l.16.83Zm-1.55,7a.75.75,0,0,1-.74.75.75.75,0,1,1,0-1.5A.75.75,0,0,1,8.62,20.75Zm9.5.75a.75.75,0,0,1,0-1.5.75.75,0,1,1,0,1.5Z"/></svg>