<svg id="Layer_1" data-name="Layer 1" xmlns="http://www.w3.org/2000/svg" viewBox="0 0 24 24"><title>iconoteka_rocking_chair_m_f</title><path d="M21.48,16.94a14.49,14.49,0,0,1-4.21,2.56L15.79,14H19V11.85a1.52,1.52,0,0,0-1.52-1.52H16V8a3,3,0,0,0-3-3H7.45L6.67,2.09A1.46,1.46,0,0,0,5.26,1H3.44L5.73,14H8.3L6.82,19.53a14.35,14.35,0,0,1-4.3-2.59l-1,1.14a15.94,15.94,0,0,0,20.94,0ZM13,6.5A1.51,1.51,0,0,1,14.47,8v2.35H8.88l-1-3.83ZM8.25,20l1.6-6h4.39l1.6,6A14.3,14.3,0,0,1,12,20.5,14.44,14.44,0,0,1,8.25,20Z"/></svg>