<svg id="Layer_1" data-name="Layer 1" xmlns="http://www.w3.org/2000/svg" viewBox="0 0 24 24"><title>iconoteka_sofa__event_seat_r_s</title><path d="M20,9.05V6a3,3,0,0,0-3-3H7A3,3,0,0,0,4,6V9.05a2.49,2.49,0,0,0-2,2.44V17a2,2,0,0,0,2,2v2H5V19H19v2h1V19a2,2,0,0,0,2-2V11.49A2.49,2.49,0,0,0,20,9.05ZM7,4H17a2,2,0,0,1,2,2V9.05a2.49,2.49,0,0,0-2,2.44V13H7V11.49A2.5,2.5,0,0,0,5,9.05V6A2,2,0,0,1,7,4ZM21,17a1,1,0,0,1-1,1H4a1,1,0,0,1-1-1V11.49a1.49,1.49,0,1,1,3,0V14H18V11.49A1.49,1.49,0,0,1,19.49,10h0A1.49,1.49,0,0,1,21,11.49Z"/></svg>