<svg id="Layer_1" data-name="Layer 1" xmlns="http://www.w3.org/2000/svg" viewBox="0 0 24 24"><title>iconoteka_rocking_chair_r_s</title><path d="M21.81,17.32a14.94,14.94,0,0,1-4.65,2.75L15.53,14H19V11.33a1.66,1.66,0,0,0-1.67-1.66H15V8a2,2,0,0,0-2-2H8.46l-1-3.76A1.68,1.68,0,0,0,5.84,1H3.44L5.22,11.11A3.5,3.5,0,0,0,8.56,14L6.92,20.1a15.1,15.1,0,0,1-4.73-2.78l-.66.76a15.94,15.94,0,0,0,20.94,0ZM13,7a1,1,0,0,1,1,1V9.67H9.44L8.72,7ZM5.84,2a.66.66,0,0,1,.64.49L7.42,6H5.34L4.63,2Zm.37,8.94L5.51,7H7.69l.78,2.93.2.74h8.66a.67.67,0,0,1,.67.66V13H8.67A2.5,2.5,0,0,1,6.21,10.94Zm1.67,9.48L9.59,14H14.5l1.71,6.39A15,15,0,0,1,12,21,15.13,15.13,0,0,1,7.88,20.42Z"/></svg>