<svg id="Layer_1" data-name="Layer 1" xmlns="http://www.w3.org/2000/svg" viewBox="0 0 24 24"><title>iconoteka_chair_modern_cross_struts_l_s</title><path d="M18.82,12.35,18.56,11a1.2,1.2,0,0,0-1.18-1H9.21L7,1.89A1.2,1.2,0,0,0,5.88,1H4.45l1.76,9.91a2.79,2.79,0,0,0,2.43,2.28L6.28,22H6.8l1-3.6,4.3-2.48,4.16,2.4,1,3.68h.52l-2.5-9.33ZM6.7,10.82,5.05,1.5h.83A.71.71,0,0,1,6.56,2L8.83,10.5h8.55a.7.7,0,0,1,.69.57l.16.83L9,12.72A2.3,2.3,0,0,1,6.7,10.82Zm1.24,6.9,1-3.62,2.65,1.53Zm4.62-2.09,2.54-1.47L16,17.64Zm2.15-2.91.26.94-2.91,1.68-3-1.74.1-.38Z"/></svg>