<svg id="Layer_1" data-name="Layer 1" xmlns="http://www.w3.org/2000/svg" viewBox="0 0 24 24"><title>iconoteka_queen_size_bed_r_s</title><path d="M21,13V8a2,2,0,0,0-2-2H5A2,2,0,0,0,3,8v5H1v7H2V18H22v2h1V13ZM4,8A1,1,0,0,1,5,7H19a1,1,0,0,1,1,1v5H18.43l-.53-1.06A1.69,1.69,0,0,0,16.38,11H14.69a1.68,1.68,0,0,0-1.52.94L12.64,13H11.36l-.53-1.06A1.68,1.68,0,0,0,9.31,11H7.62a1.69,1.69,0,0,0-1.52.94L5.57,13H4Zm13.31,5H13.75l.31-.61a.7.7,0,0,1,.63-.39h1.69a.7.7,0,0,1,.63.39Zm-7.06,0H6.69l.3-.61A.7.7,0,0,1,7.62,12H9.31a.7.7,0,0,1,.63.39ZM2,17V14H22v3Z"/></svg>