<svg id="Layer_1" data-name="Layer 1" xmlns="http://www.w3.org/2000/svg" viewBox="0 0 24 24"><title>iconoteka_bunk_bed_r_s</title><path d="M20,4V8H16V4H15V8H11.21l-.53-1.06A1.7,1.7,0,0,0,9.16,6H7.46a1.7,1.7,0,0,0-1.52.94L5.41,8H4V4H3V20H4V17H15v3h1V17h4v3h1V4ZM6.84,7.39A.7.7,0,0,1,7.46,7h1.7a.7.7,0,0,1,.63.39l.3.61H6.53ZM6.53,16l.31-.61A.7.7,0,0,1,7.46,15h1.7a.7.7,0,0,1,.63.39l.3.61Zm4.68,0-.53-1.06A1.7,1.7,0,0,0,9.16,14H7.46a1.7,1.7,0,0,0-1.52.94L5.41,16H4V9H15v7ZM20,16H16V13h4Zm0-4H16V9h4Z"/></svg>