<svg id="Layer_1" data-name="Layer 1" xmlns="http://www.w3.org/2000/svg" viewBox="0 0 24 24"><title>iconoteka_water_bed_m_f</title><path d="M2,13v7H22V13Zm17,4.8a3.88,3.88,0,0,1-2.15-.67,2.31,2.31,0,0,0-2.7,0,3.8,3.8,0,0,1-4.3,0A2.49,2.49,0,0,0,8.5,16.7a2.49,2.49,0,0,0-1.35.43A3.88,3.88,0,0,1,5,17.8V16.3a2.49,2.49,0,0,0,1.35-.43,3.78,3.78,0,0,1,4.3,0,2.31,2.31,0,0,0,2.7,0,3.8,3.8,0,0,1,4.3,0A2.49,2.49,0,0,0,19,16.3ZM6.64,10.47a1.74,1.74,0,0,1,1.57-1H9.27a1.73,1.73,0,0,1,1.56,1l.52,1h1.3l.52-1a1.73,1.73,0,0,1,1.56-1h1.06a1.74,1.74,0,0,1,1.57,1l.52,1H20V7a2,2,0,0,0-2-2H6A2,2,0,0,0,4,7v4.5H6.12Z"/></svg>