<svg id="Layer_1" data-name="Layer 1" xmlns="http://www.w3.org/2000/svg" viewBox="0 0 24 24"><defs><style>.cls-1{fill:#fff;}</style></defs><title>iconoteka_workspace_b_f</title><rect x="14" y="13" width="10" height="6" transform="translate(35 -3) rotate(90)"/><polygon points="4 8 2 8 2 21 4 21 4 8 4 8"/><polygon points="22 8 20 8 20 21 22 21 22 8 22 8"/><rect class="cls-1" x="13" y="11" width="9.6" height="2"/><rect class="cls-1" x="13" y="16" width="9.6" height="2"/><rect x="10.5" y="-0.5" width="3" height="20" transform="translate(21.5 -2.5) rotate(90)"/><path d="M8,5h4a2,2,0,0,1,2,2v8a0,0,0,0,1,0,0H6a0,0,0,0,1,0,0V7A2,2,0,0,1,8,5Z"/><rect class="cls-1" x="6.9" y="15.9" width="0.2" height="4.2"/><polygon points="8 15 6 15 6 21 8 21 8 15 8 15"/><rect class="cls-1" x="12.9" y="15.9" width="0.2" height="4.2"/><polygon points="14 15 12 15 12 21 14 21 14 15 14 15"/><path class="cls-1" d="M18,12h2a0,0,0,0,1,0,0v1.5a.5.5,0,0,1-.5.5h-1a.5.5,0,0,1-.5-.5V12A0,0,0,0,1,18,12Z"/><path class="cls-1" d="M18,17h2a0,0,0,0,1,0,0v1.5a.5.5,0,0,1-.5.5h-1a.5.5,0,0,1-.5-.5V17A0,0,0,0,1,18,17Z"/></svg>