<svg id="Layer_1" data-name="Layer 1" xmlns="http://www.w3.org/2000/svg" viewBox="0 0 24 24"><defs><style>.cls-1{fill:#fff;}</style></defs><title>iconoteka_workspace_l_s</title><path d="M21.5,11v9.5h-5V11h5m.5-.5H16V21h6V10.5Z"/><polygon points="2.5 8 2 8 2 21 2.5 21 2.5 8 2.5 8"/><rect x="16" y="15.5" width="6" height="0.5"/><rect class="cls-1" x="2.25" y="8.25" width="19.5" height="2.5"/><path d="M21.5,8.5v2H2.5v-2h19M22,8H2v3H22V8Z"/><path class="cls-1" d="M5.25,14.75V7A1.76,1.76,0,0,1,7,5.25h5A1.76,1.76,0,0,1,13.75,7v7.75Z"/><path d="M12,5.5A1.5,1.5,0,0,1,13.5,7v7.5h-8V7A1.5,1.5,0,0,1,7,5.5h5M12,5H7A2,2,0,0,0,5,7v8h9V7a2,2,0,0,0-2-2Z"/><rect class="cls-1" x="5" y="15" width="0.5" height="6"/><polygon points="5.5 15 5 15 5 21 5.5 21 5.5 15 5.5 15"/><rect class="cls-1" x="13.5" y="15" width="0.5" height="6"/><polygon points="14 15 13.5 15 13.5 21 14 21 14 15 14 15"/><path d="M19.5,11.5h-1A.5.5,0,0,1,18,11h2A.5.5,0,0,1,19.5,11.5Z"/><path d="M19.5,16.5h-1A.5.5,0,0,1,18,16h2A.5.5,0,0,1,19.5,16.5Z"/></svg>