<svg id="Layer_1" data-name="Layer 1" xmlns="http://www.w3.org/2000/svg" viewBox="0 0 24 24"><title>iconoteka_water_bed_b_f</title><path d="M2,13v7H22V13ZM19,18a4.11,4.11,0,0,1-2.24-.69,2.13,2.13,0,0,0-2.52,0,4,4,0,0,1-4.48,0,2.14,2.14,0,0,0-2.52,0A4.11,4.11,0,0,1,5,18v-1.8a2.24,2.24,0,0,0,1.26-.41,4,4,0,0,1,4.48,0,2.13,2.13,0,0,0,2.52,0,4,4,0,0,1,4.48,0,2.24,2.24,0,0,0,1.26.41ZM6.64,10A1.74,1.74,0,0,1,8.21,9H9.27a1.73,1.73,0,0,1,1.56,1l.52,1h1.3l.52-1a1.73,1.73,0,0,1,1.56-1h1.06a1.74,1.74,0,0,1,1.57,1l.52,1H20V7a2,2,0,0,0-2-2H6A2,2,0,0,0,4,7v4H6.12Z"/></svg>