<svg id="Layer_1" data-name="Layer 1" xmlns="http://www.w3.org/2000/svg" viewBox="0 0 24 24"><defs><style>.cls-1{fill:#fff;}</style></defs><title>iconoteka_workspace_l_f</title><rect x="13.75" y="12.75" width="10.5" height="6" transform="translate(34.75 -3.25) rotate(90)"/><polygon points="2.5 8 2 8 2 21 2.5 21 2.5 8 2.5 8"/><rect class="cls-1" x="15" y="16" width="7" height="0.5"/><rect x="10.5" y="-0.5" width="3" height="20" transform="translate(21.5 -2.5) rotate(90)"/><rect x="10.5" y="-0.5" width="3" height="20" transform="translate(21.5 -2.5) rotate(90)"/><rect class="cls-1" x="13.2" y="11" width="10.59" height="0.5"/><path d="M7,5h5a2,2,0,0,1,2,2v8a0,0,0,0,1,0,0H5a0,0,0,0,1,0,0V7A2,2,0,0,1,7,5Z"/><rect class="cls-1" x="5" y="15" width="0.5" height="6"/><polygon points="5.5 15 5 15 5 21 5.5 21 5.5 15 5.5 15"/><rect class="cls-1" x="13.5" y="15" width="0.5" height="6"/><polygon points="14 15 13.5 15 13.5 21 14 21 14 15 14 15"/><path class="cls-1" d="M19.5,12h-1a.5.5,0,0,1-.5-.5h2A.5.5,0,0,1,19.5,12Z"/><path class="cls-1" d="M19.5,17h-1a.5.5,0,0,1-.5-.5h2A.5.5,0,0,1,19.5,17Z"/></svg>