<svg id="Layer_1" data-name="Layer 1" xmlns="http://www.w3.org/2000/svg" viewBox="0 0 24 24"><title>iconoteka_chair_modern_cross_struts_b_s</title><path d="M19,13.35l-.5-2.86A1.81,1.81,0,0,0,16.7,9H10L8.19,2.33A1.8,1.8,0,0,0,6.45,1h-3l1.9,10.79A3,3,0,0,0,7.7,14.21L5.61,22H7.47l.66-2.47L12,17.3l3.89,2.25L16.53,22h1.86l-2.25-8.4ZM7.12,11.48,5.58,2.8h.87L8.24,9.47,8.6,10.8h8.1l.17.93-8.47.74H8.3A1.18,1.18,0,0,1,7.12,11.48Zm1.6,5.86.45-1.67,1.22.71Zm4.86-1,1.25-.72.46,1.7Zm.82-2.32L12,15.45,9.74,14.16l4.58-.4Z"/></svg>