<svg id="Layer_1" data-name="Layer 1" xmlns="http://www.w3.org/2000/svg" viewBox="0 0 24 24"><title>iconoteka_utilities_b_s</title><path d="M6.5,13.8a3.7,3.7,0,1,0,3.7,3.7A3.7,3.7,0,0,0,6.5,13.8Zm0,5.55A1.85,1.85,0,1,1,8.35,17.5,1.85,1.85,0,0,1,6.5,19.35Zm11-8.67a3.1,3.1,0,0,0,3.1-3.1c0-2.48-3.1-5.66-3.1-5.66S14.4,5.1,14.4,7.58A3.1,3.1,0,0,0,17.5,10.68Zm0-5.85a5.86,5.86,0,0,1,1.25,2.75,1.25,1.25,0,0,1-2.5,0A5.86,5.86,0,0,1,17.5,4.83ZM14,14v7h7V14Zm5.15,5.15h-3.3v-3.3h3.3ZM9.16,10l1-7H2.84l1,7ZM8,4.85l-.47,3.3H5.45L5,4.85Z"/></svg>