<svg id="Layer_1" data-name="Layer 1" xmlns="http://www.w3.org/2000/svg" viewBox="0 0 24 24"><title>iconoteka_couch__sofa__weekend_l_s</title><path d="M21,10.05V8a3,3,0,0,0-3-3H6A3,3,0,0,0,3,8v2.05a2.49,2.49,0,0,0-2,2.44V17a2,2,0,0,0,2,2v2h.5V19h17v2H21V19a2,2,0,0,0,2-2V12.49A2.49,2.49,0,0,0,21,10.05ZM6,5.5H18A2.5,2.5,0,0,1,20.5,8v2h0A2.48,2.48,0,0,0,18,12.49V14H6V12.49A2.49,2.49,0,0,0,3.5,10V8A2.5,2.5,0,0,1,6,5.5ZM22.5,17A1.5,1.5,0,0,1,21,18.5H3A1.5,1.5,0,0,1,1.5,17V12.49a2,2,0,0,1,4,0v2h13v-2a2,2,0,0,1,2-2h0a2,2,0,0,1,2,2Z"/></svg>