<svg id="Layer_1" data-name="Layer 1" xmlns="http://www.w3.org/2000/svg" viewBox="0 0 24 24"><title>iconoteka_double_bed__bedroom_l_s</title><path d="M20,13.5V8a2,2,0,0,0-2-2H6A2,2,0,0,0,4,8v5.5H2V20h.5V18h19v2H22V13.5ZM4.5,8A1.5,1.5,0,0,1,6,6.5H18A1.5,1.5,0,0,1,19.5,8v5.5h-.77L18,11.94A1.7,1.7,0,0,0,16.43,11h-1.7a1.7,1.7,0,0,0-1.52.94l-.78,1.56h-.86l-.78-1.56A1.7,1.7,0,0,0,9.27,11H7.57a1.7,1.7,0,0,0-1.52.94L5.27,13.5H4.5Zm13.67,5.5H13l.67-1.34a1.2,1.2,0,0,1,1.07-.66h1.7a1.18,1.18,0,0,1,1.07.66ZM11,13.5H5.83l.67-1.34a1.18,1.18,0,0,1,1.07-.66h1.7a1.2,1.2,0,0,1,1.07.66Zm-8.51,4V14h19v3.5Z"/></svg>