<svg id="Layer_1" data-name="Layer 1" xmlns="http://www.w3.org/2000/svg" viewBox="0 0 24 24"><title>iconoteka_office_chair_b_s</title><path d="M18.28,19.8a1.1,1.1,0,1,0,1.1,1.1A1.11,1.11,0,0,0,18.28,19.8Zm-10.56,0a1.1,1.1,0,1,0,1.11,1.1A1.1,1.1,0,0,0,7.72,19.8ZM9.3,15.27h.26L12,15.05V17H8a1,1,0,0,0-1,1v1H19V18a1,1,0,0,0-1-1H14V14.87l6-.52-.5-2.86A1.81,1.81,0,0,0,17.7,10H15.48l.57-1.58A1.8,1.8,0,0,0,14.36,6H9.91L9.19,3.33A1.8,1.8,0,0,0,7.45,2h-3l1.9,10.79A3,3,0,0,0,9.3,15.27ZM14.36,7.8l-.8,2.2H11l-.59-2.2ZM9.24,10.47,9.6,11.8h8.1l.17.93-8.47.74H9.3a1.18,1.18,0,0,1-1.18-1L7.29,7.8H8.53ZM6.58,3.8h.87L8,6H7Z"/></svg>