<svg id="Layer_1" data-name="Layer 1" xmlns="http://www.w3.org/2000/svg" viewBox="0 0 24 24"><defs><style>.cls-1{fill:#fff;}</style></defs><title>iconoteka_workspace_r_f</title><rect x="13.5" y="12.5" width="11" height="6" transform="translate(34.5 -3.5) rotate(90)"/><polygon points="3 8 2 8 2 21 3 21 3 8 3 8"/><rect x="10.5" y="-0.5" width="3" height="20" transform="translate(21.5 -2.5) rotate(90)"/><rect class="cls-1" x="13" y="11" width="10" height="1"/><rect class="cls-1" x="13" y="16" width="10" height="1"/><path d="M7,5h5a2,2,0,0,1,2,2v8a0,0,0,0,1,0,0H5a0,0,0,0,1,0,0V7A2,2,0,0,1,7,5Z"/><rect class="cls-1" x="5" y="15" width="1" height="6"/><polygon points="6 15 5 15 5 21 6 21 6 15 6 15"/><rect class="cls-1" x="13" y="15" width="1" height="6"/><polygon points="14 15 13 15 13 21 14 21 14 15 14 15"/><path class="cls-1" d="M18,11h2a0,0,0,0,1,0,0v1.5a.5.5,0,0,1-.5.5h-1a.5.5,0,0,1-.5-.5V11A0,0,0,0,1,18,11Z"/><path class="cls-1" d="M18,16h2a0,0,0,0,1,0,0v1.5a.5.5,0,0,1-.5.5h-1a.5.5,0,0,1-.5-.5V16A0,0,0,0,1,18,16Z"/></svg>