<svg id="Layer_1" data-name="Layer 1" xmlns="http://www.w3.org/2000/svg" viewBox="0 0 24 24"><defs><style>.cls-1{fill:#fff;}</style></defs><title>iconoteka_work_table_b_s</title><path d="M20,11v6H17V11h3m2-2H15V19h7V9Z"/><rect class="cls-1" x="2.9" y="6.9" width="18.2" height="3.2"/><path d="M20.2,7.8V9.2H3.8V7.8H20.2M22,6H2v5H22V6Z"/><polygon points="4 6 2 6 2 19 4 19 4 6 4 6"/><polygon points="22 6 20.25 6 20.25 19 22 19 22 6 22 6"/><polygon points="22 13 15.88 13 15.88 15 22 15 22 13 22 13"/></svg>