<svg id="Layer_1" data-name="Layer 1" xmlns="http://www.w3.org/2000/svg" viewBox="0 0 24 24"><title>iconoteka_stove_b_f</title><path d="M15.88,14.72a1.15,1.15,0,1,0,0,2.3,1.15,1.15,0,1,0,0-2.3ZM8.12,7A1.15,1.15,0,1,0,9.28,8.12,1.16,1.16,0,0,0,8.12,7Zm0,7.75a1.15,1.15,0,1,0,1.16,1.16A1.16,1.16,0,0,0,8.12,14.72ZM3,3V21H21V3ZM8.12,18.62a2.75,2.75,0,1,1,2.76-2.74A2.74,2.74,0,0,1,8.12,18.62Zm0-7.74a2.75,2.75,0,1,1,2.76-2.76A2.75,2.75,0,0,1,8.12,10.88Zm7.76,7.74a2.75,2.75,0,1,1,2.74-2.74A2.75,2.75,0,0,1,15.88,18.62Zm0-7.74a2.75,2.75,0,1,1,2.74-2.76A2.77,2.77,0,0,1,15.88,10.88Z"/></svg>