<svg id="Layer_1" data-name="Layer 1" xmlns="http://www.w3.org/2000/svg" viewBox="0 0 24 24"><title>iconoteka_office_chair_b_f</title><path d="M18.28,19.8a1.1,1.1,0,1,0,1.1,1.1A1.11,1.11,0,0,0,18.28,19.8Zm-10.56,0a1.1,1.1,0,1,0,1.11,1.1A1.1,1.1,0,0,0,7.72,19.8ZM10,14.23l2-.18V17H8a1,1,0,0,0-1,1v1H19V18a1,1,0,0,0-1-1H14V13.87l5.88-.52-.35-1.87a1.4,1.4,0,0,0-1.37-1.15h-2.8l.69-1.91A1.8,1.8,0,0,0,14.36,6h-5L8.42,2.7a1.38,1.38,0,0,0-1.35-1h-2L6.19,7.73V7.8h0l.72,4.07A2.86,2.86,0,0,0,10,14.23ZM9.8,7.8h4.56l-.87,2.4H10.43L9.8,7.84Z"/></svg>