<svg id="Layer_1" data-name="Layer 1" xmlns="http://www.w3.org/2000/svg" viewBox="0 0 24 24"><title>iconoteka_water_bed_r_f</title><path d="M2,13v7H22V13Zm17,4.55a3.69,3.69,0,0,1-2-.63,2.59,2.59,0,0,0-3,0,3.59,3.59,0,0,1-4,0,2.74,2.74,0,0,0-1.48-.47A2.74,2.74,0,0,0,7,16.92a3.69,3.69,0,0,1-2,.63v-1a2.74,2.74,0,0,0,1.48-.47,3.55,3.55,0,0,1,4,0,2.59,2.59,0,0,0,3,0,3.59,3.59,0,0,1,4,0,2.74,2.74,0,0,0,1.48.47ZM6.64,11a1.74,1.74,0,0,1,1.57-1H9.27a1.73,1.73,0,0,1,1.56,1l.52,1h1.3l.52-1a1.73,1.73,0,0,1,1.56-1h1.06a1.74,1.74,0,0,1,1.57,1l.52,1H20V8a2,2,0,0,0-2-2H6A2,2,0,0,0,4,8v4H6.12Z"/></svg>