<svg id="Layer_1" data-name="Layer 1" xmlns="http://www.w3.org/2000/svg" viewBox="0 0 24 24"><defs><style>.cls-1{fill:#fff;}</style></defs><title>iconoteka_work_table_r_f</title><rect x="13" y="10" width="11" height="7" transform="translate(32 -5) rotate(90)"/><polygon points="3 6 2 6 2 19 3 19 3 6 3 6"/><rect x="10.5" y="-2.5" width="3" height="20" transform="translate(19.5 -4.5) rotate(90)"/><rect class="cls-1" x="13" y="9" width="10" height="1"/><rect class="cls-1" x="13" y="14" width="10" height="1"/><path class="cls-1" d="M17.5,9h2a0,0,0,0,1,0,0v1.5a.5.5,0,0,1-.5.5H18a.5.5,0,0,1-.5-.5V9A0,0,0,0,1,17.5,9Z"/><path class="cls-1" d="M17.5,14h2a0,0,0,0,1,0,0v1.5a.5.5,0,0,1-.5.5H18a.5.5,0,0,1-.5-.5V14A0,0,0,0,1,17.5,14Z"/></svg>