<svg id="Layer_1" data-name="Layer 1" xmlns="http://www.w3.org/2000/svg" viewBox="0 0 24 24"><defs><style>.cls-1{fill:none;}</style></defs><title>iconoteka_sofa__weekend_b_s</title><rect class="cls-1" width="24" height="24"/><path d="M21,9.18V8a3,3,0,0,0-3-3H6A3,3,0,0,0,3,8V9.18A3,3,0,0,0,1,12v6a2,2,0,0,0,2,2v1H5V20H19v1h2V20a2,2,0,0,0,2-2V12A3,3,0,0,0,21,9.18ZM6,7H18a1,1,0,0,1,1,1V9.18A3,3,0,0,0,17,12v1H7V12A3,3,0,0,0,5,9.18V8A1,1,0,0,1,6,7ZM3,18V12a1,1,0,0,1,2,0v3H19V12a1,1,0,0,1,2,0v6Z"/></svg>