<svg id="Layer_1" data-name="Layer 1" xmlns="http://www.w3.org/2000/svg" viewBox="0 0 24 24"><defs><style>.cls-1{fill:#fff;}</style></defs><title>iconoteka_work_table_r_s</title><path d="M21,9v9H16V9h5m1-1H15V19h7V8Z"/><polygon points="3 6 2 6 2 19 3 19 3 6 3 6"/><rect x="15" y="13" width="7" height="1"/><rect class="cls-1" x="2.5" y="6.5" width="19" height="2"/><path d="M21,7V8H3V7H21m1-1H2V9H22V6Z"/><path d="M17.5,8h2a0,0,0,0,1,0,0V9.5a.5.5,0,0,1-.5.5H18a.5.5,0,0,1-.5-.5V8A0,0,0,0,1,17.5,8Z"/><path d="M17.5,13h2a0,0,0,0,1,0,0v1.5a.5.5,0,0,1-.5.5H18a.5.5,0,0,1-.5-.5V13A0,0,0,0,1,17.5,13Z"/></svg>