<svg id="Layer_1" data-name="Layer 1" xmlns="http://www.w3.org/2000/svg" viewBox="0 0 24 24"><title>iconoteka_water_bed_r_s</title><path d="M20,12V7a2,2,0,0,0-2-2H6A2,2,0,0,0,4,7v5H2v8H22V12ZM5,7A1,1,0,0,1,6,6H18a1,1,0,0,1,1,1v5h-.78l-.53-1.06A1.7,1.7,0,0,0,16.17,10h-1.7a1.7,1.7,0,0,0-1.52.94L12.42,12h-.84l-.53-1.06A1.7,1.7,0,0,0,9.53,10H7.83a1.7,1.7,0,0,0-1.52.94L5.78,12H5Zm12.1,5H13.54l.31-.61a.7.7,0,0,1,.62-.39h1.7a.67.67,0,0,1,.62.39Zm-6.64,0H6.9l.31-.61A.67.67,0,0,1,7.83,11h1.7a.7.7,0,0,1,.62.39ZM21,19H3V13H21ZM10.09,16.41a3.36,3.36,0,0,0,1.91.64,3.36,3.36,0,0,0,1.91-.64,2.18,2.18,0,0,1,2.68,0,3.36,3.36,0,0,0,1.91.64v-1a2.33,2.33,0,0,1-1.34-.46,3.17,3.17,0,0,0-3.82,0,2.16,2.16,0,0,1-2.68,0,3.18,3.18,0,0,0-3.82,0,2.33,2.33,0,0,1-1.34.46v1a3.36,3.36,0,0,0,1.91-.64A2.16,2.16,0,0,1,10.09,16.41Z"/></svg>