<svg id="Layer_1" data-name="Layer 1" xmlns="http://www.w3.org/2000/svg" viewBox="0 0 24 24"><title>iconoteka_rocking_chair_m_s</title><path d="M21.48,16.94a14.49,14.49,0,0,1-4.21,2.56L15.79,14H19V11.07a1.74,1.74,0,0,0-1.73-1.74H16V8a3,3,0,0,0-3-3H8.55L7.82,2.28A1.73,1.73,0,0,0,6.15,1H3.44L5.22,11.11A3.5,3.5,0,0,0,8.31,14L6.82,19.53a14.35,14.35,0,0,1-4.3-2.59l-1,1.14a15.94,15.94,0,0,0,20.94,0ZM13,6.5A1.51,1.51,0,0,1,14.47,8V9.33H9.71L9,6.5Zm-6.82-4a.23.23,0,0,1,.22.17L7,5H5.67L5.23,2.5Zm.55,8.35L5.93,6.5H7.4l.86,3.22.3,1.11h8.71a.23.23,0,0,1,.23.24V12.5H8.67A2,2,0,0,1,6.7,10.85ZM8.25,20l1.6-6h4.39l1.6,6A14.3,14.3,0,0,1,12,20.5,14.44,14.44,0,0,1,8.25,20Z"/></svg>