<svg id="Layer_1" data-name="Layer 1" xmlns="http://www.w3.org/2000/svg" viewBox="0 0 24 24"><title>iconoteka_rocking_chair_b_s</title><path d="M21.16,16.57a14.46,14.46,0,0,1-3.73,2.31L16,14h3V10.8A1.81,1.81,0,0,0,17.2,9H16V8a3,3,0,0,0-3-3H8.91L8.19,2.33A1.8,1.8,0,0,0,6.45,1h-3L5.22,11.11A3.49,3.49,0,0,0,8.16,14L6.81,19a14.24,14.24,0,0,1-4-2.42L1.53,18.08a15.94,15.94,0,0,0,20.94,0ZM14.17,8V9H10L9.39,6.8H13A1.21,1.21,0,0,1,14.17,8ZM6.45,2.8,7,5H6L5.58,2.8Zm.55,8-.71-4H7.53l.71,2.67L8.6,10.8h8.6v1.4H8.67A1.69,1.69,0,0,1,7,10.8Zm1.52,8.75L10,14H14.1l1.63,5.49A13.94,13.94,0,0,1,12,20,13.77,13.77,0,0,1,8.52,19.55Z"/></svg>