<svg id="Layer_1" data-name="Layer 1" xmlns="http://www.w3.org/2000/svg" viewBox="0 0 24 24"><defs><style>.cls-1{fill:none;}</style></defs><title>iconoteka_lightbulb_b_s</title><rect class="cls-1" width="24" height="24"/><path d="M17.61,3.3A8,8,0,0,0,11.86,1,8.09,8.09,0,0,0,4,8.71,7.94,7.94,0,0,0,6.72,15,4,4,0,0,1,8,18v2A3,3,0,0,0,11,23h2a3,3,0,0,0,3-3V18.19a4.46,4.46,0,0,1,1.39-3.29,8,8,0,0,0,.22-11.6ZM13,21H11a1,1,0,0,1-1-1.08V19h4v1A1,1,0,0,1,13,21Zm3.05-7.58A6.33,6.33,0,0,0,14.11,17H9.92A5.87,5.87,0,0,0,8,13.5,6,6,0,0,1,6,8.78,6.07,6.07,0,0,1,11.9,3H12a6,6,0,0,1,4.05,10.42Z"/></svg>