<svg id="Layer_1" data-name="Layer 1" xmlns="http://www.w3.org/2000/svg" viewBox="0 0 24 24"><title>iconoteka_chair_modern_cross_struts_m_s</title><path d="M18.93,13l-.43-2.37a1.6,1.6,0,0,0-1.57-1.32H9.72L7.81,2.19A1.61,1.61,0,0,0,6.26,1H3.78L5.63,11.5A2.94,2.94,0,0,0,8,13.88L5.83,22H7.25L8,19.15l4-2.31,4,2.3L16.75,22h1.42l-2.34-8.71ZM7.11,11.24,5.56,2.5h.7a.1.1,0,0,1,.1.07l2.21,8.26h8.36a.11.11,0,0,1,.1.09l.13.75-8.51.75H8.52A1.43,1.43,0,0,1,7.11,11.24Zm1.35,6.22.62-2.31,1.7,1Zm.95-3.54,0-.07,5-.44.14.52L12,15.42Zm3.83,2.21,1.68-1,.61,2.29Z"/></svg>