<svg id="Layer_1" data-name="Layer 1" xmlns="http://www.w3.org/2000/svg" viewBox="0 0 24 24"><defs><style>.cls-1{fill:#fff;}</style></defs><title>iconoteka_work_table_b_f</title><rect x="13.5" y="10.5" width="10" height="7" transform="translate(32.5 -4.5) rotate(90)"/><polygon points="4 6 2 6 2 19 4 19 4 6 4 6"/><polygon points="22 6 20 6 20 19 22 19 22 6 22 6"/><rect class="cls-1" x="13" y="9" width="9.6" height="2"/><rect class="cls-1" x="13" y="14" width="9.6" height="2"/><rect x="10.5" y="-2.5" width="3" height="20" transform="translate(19.5 -4.5) rotate(90)"/><path class="cls-1" d="M17.5,10h2a0,0,0,0,1,0,0v1.5a.5.5,0,0,1-.5.5H18a.5.5,0,0,1-.5-.5V10A0,0,0,0,1,17.5,10Z"/><path class="cls-1" d="M17.5,15h2a0,0,0,0,1,0,0v1.5a.5.5,0,0,1-.5.5H18a.5.5,0,0,1-.5-.5V15A0,0,0,0,1,17.5,15Z"/></svg>