<svg id="Layer_1" data-name="Layer 1" xmlns="http://www.w3.org/2000/svg" viewBox="0 0 24 24"><defs><style>.cls-1{fill:#fff;}</style></defs><title>iconoteka_workspace_b_s</title><polygon points="22 8 20 8 20 21 22 21 22 8 22 8"/><path d="M20,13v6H18V13h2m2-2H16V21h6V11Z"/><polygon points="22 15 16.75 15 16.75 17 22 17 22 15 22 15"/><rect class="cls-1" x="2.9" y="8.9" width="18.2" height="3.2"/><path d="M20.2,9.8v1.4H3.8V9.8H20.2M22,8H2v5H22V8Z"/><polygon points="4 8 2 8 2 21 4 21 4 8 4 8"/><path class="cls-1" d="M7,14V7A1,1,0,0,1,8,6h4a1,1,0,0,1,1,1v7Z"/><path d="M12,7v6H8V7h4m0-2H8A2,2,0,0,0,6,7v8h8V7a2,2,0,0,0-2-2Z"/><rect class="cls-1" x="6.9" y="15.9" width="0.2" height="4.2"/><polygon points="8 15 6 15 6 21 8 21 8 15 8 15"/><rect class="cls-1" x="12.9" y="15.9" width="0.2" height="4.2"/><polygon points="14 15 12 15 12 21 14 21 14 15 14 15"/></svg>