<svg id="Layer_1" data-name="Layer 1" xmlns="http://www.w3.org/2000/svg" viewBox="0 0 24 24"><title>iconoteka_sofa_bed_l_s</title><path d="M21.75,11a1.18,1.18,0,0,0-.75.28V8a3,3,0,0,0-3-3H6A3,3,0,0,0,3,8v3.28A1.18,1.18,0,0,0,2.25,11,1.25,1.25,0,0,0,1,12.25V20h.5V18h21v2H23V12.25A1.25,1.25,0,0,0,21.75,11ZM3.5,8A2.5,2.5,0,0,1,6,5.5H18A2.5,2.5,0,0,1,20.5,8v5.5H19l-.78-1.56A1.7,1.7,0,0,0,16.66,11H15a1.7,1.7,0,0,0-1.52.94l-.78,1.56H11.34l-.78-1.56A1.7,1.7,0,0,0,9,11H7.34a1.7,1.7,0,0,0-1.52.94L5,13.5H3.5Zm14.9,5.5H13.22l.67-1.34A1.19,1.19,0,0,1,15,11.5h1.7a1.18,1.18,0,0,1,1.07.66Zm-7.62,0H5.6l.67-1.34a1.18,1.18,0,0,1,1.07-.66H9a1.19,1.19,0,0,1,1.07.66Zm-9.28,4V12.25a.75.75,0,0,1,1.5,0V14H21V12.25a.75.75,0,0,1,1.5,0V17.5Z"/></svg>