<svg id="Layer_1" data-name="Layer 1" xmlns="http://www.w3.org/2000/svg" viewBox="0 0 24 24"><title>iconoteka_sofa_bed_m_s</title><path d="M21,10.05V8a3,3,0,0,0-3-3H6A3,3,0,0,0,3,8v2.05A2.5,2.5,0,0,0,1,12.5V20H2.5V18H21v2h2V12.5A2.5,2.5,0,0,0,21,10.05ZM6,6.5H18A1.5,1.5,0,0,1,19.5,8v2.21A2.51,2.51,0,0,0,18,12.5h-.83l-.33-.67A1.51,1.51,0,0,0,15.49,11H14.12a1.51,1.51,0,0,0-1.34.83l-.33.67h-.9l-.33-.67A1.51,1.51,0,0,0,9.88,11H8.51a1.51,1.51,0,0,0-1.35.83l-.33.67H6a2.51,2.51,0,0,0-1.5-2.29V8A1.5,1.5,0,0,1,6,6.5Zm-3.5,10v-4a1,1,0,0,1,2,0V14h15V12.5a1,1,0,0,1,2,0v4Z"/></svg>