<svg id="Layer_1" data-name="Layer 1" xmlns="http://www.w3.org/2000/svg" viewBox="0 0 24 24"><title>iconoteka_utilities_r_s</title><path d="M6.5,13.8a3.7,3.7,0,1,0,3.7,3.7A3.7,3.7,0,0,0,6.5,13.8Zm0,6.4a2.7,2.7,0,1,1,2.7-2.7A2.7,2.7,0,0,1,6.5,20.2Zm11-9.52a3.1,3.1,0,0,0,3.1-3.1c0-2.48-3.1-5.66-3.1-5.66S14.4,5.1,14.4,7.58A3.1,3.1,0,0,0,17.5,10.68Zm0-7.25c.9,1.1,2.1,2.86,2.1,4.15a2.1,2.1,0,0,1-4.2,0C15.4,6.28,16.59,4.54,17.5,3.43ZM14,14v7h7V14Zm6,6H15V15h5ZM9.16,10l1-7H2.84l1,7ZM9,4,8.29,9H4.71L4,4Z"/></svg>