<svg id="Layer_1" data-name="Layer 1" xmlns="http://www.w3.org/2000/svg" viewBox="0 0 24 24"><defs><style>.cls-1{fill:#fff;}</style></defs><title>iconoteka_workspace_m_s</title><polygon points="3.5 8 2 8 2 21 3.5 21 3.5 8 3.5 8"/><path d="M20.5,12.5v7h-3v-7h3M22,11H16V21h6V11Z"/><rect x="16" y="15.49" width="6" height="1.5"/><rect class="cls-1" x="2.75" y="8.75" width="18.5" height="3.5"/><path d="M20.5,9.5v2H3.5v-2h17M22,8H2v5H22V8Z"/><path class="cls-1" d="M6.75,14.25V7A1.25,1.25,0,0,1,8,5.75h4A1.25,1.25,0,0,1,13.25,7v7.25Z"/><path d="M12,6.5a.5.5,0,0,1,.5.5v6.5h-5V7A.5.5,0,0,1,8,6.5h4M12,5H8A2,2,0,0,0,6,7v8h8V7a2,2,0,0,0-2-2Z"/><rect class="cls-1" x="6" y="15" width="1.5" height="6"/><polygon points="7.5 15 6 15 6 21 7.5 21 7.5 15 7.5 15"/><rect class="cls-1" x="12.5" y="15" width="1.5" height="6"/><polygon points="14 15 12.5 15 12.5 21 14 21 14 15 14 15"/></svg>