<svg id="Layer_1" data-name="Layer 1" xmlns="http://www.w3.org/2000/svg" viewBox="0 0 24 24"><defs><style>.cls-1{fill:none;}</style></defs><title>iconoteka_sofa__event_seat_b_s</title><rect class="cls-1" width="24" height="24"/><path d="M19,9.18V6a3,3,0,0,0-3-3H8A3,3,0,0,0,5,6V9.18A3,3,0,0,0,3,12v6a2,2,0,0,0,2,2v2H7V20H17v2h2V20a2,2,0,0,0,2-2V12A3,3,0,0,0,19,9.18ZM8,5h8a1,1,0,0,1,1,1V9.18A3,3,0,0,0,15,12v1H9V12A3,3,0,0,0,7,9.18V6A1,1,0,0,1,8,5ZM5,18V12a1,1,0,0,1,2,0v3H17V12a1,1,0,0,1,2,0v6Z"/></svg>