<svg id="Layer_1" data-name="Layer 1" xmlns="http://www.w3.org/2000/svg" viewBox="0 0 24 24"><title>iconoteka_king_size_bed_l_s</title><path d="M22,13.5V8a2,2,0,0,0-2-2H4A2,2,0,0,0,2,8v5.5H0V20H.5V18h23v2H24V13.5ZM2.5,8A1.5,1.5,0,0,1,4,6.5H20A1.5,1.5,0,0,1,21.5,8v5.5h-2l-.78-1.56A1.7,1.7,0,0,0,17.17,11h-1.7a1.7,1.7,0,0,0-1.52.94l-.78,1.56H10.83l-.78-1.56A1.7,1.7,0,0,0,8.53,11H6.83a1.7,1.7,0,0,0-1.52.94L4.53,13.5h-2Zm16.41,5.5H13.73l.67-1.34a1.18,1.18,0,0,1,1.07-.66h1.7a1.19,1.19,0,0,1,1.07.66Zm-8.64,0H5.09l.67-1.34a1.19,1.19,0,0,1,1.07-.66h1.7a1.18,1.18,0,0,1,1.07.66ZM.5,17.5V14h23v3.5Z"/></svg>