<svg id="Layer_1" data-name="Layer 1" xmlns="http://www.w3.org/2000/svg" viewBox="0 0 24 24"><title>iconoteka_water_bed_l_f</title><path d="M2,13v7H22V13Zm17,4.3a3.46,3.46,0,0,1-1.88-.59,2.83,2.83,0,0,0-3.24,0,3.31,3.31,0,0,1-3.76,0A3,3,0,0,0,8.5,16.2a3,3,0,0,0-1.62.51A3.46,3.46,0,0,1,5,17.3v-.5a3,3,0,0,0,1.62-.51A3.46,3.46,0,0,1,8.5,15.7a3.46,3.46,0,0,1,1.88.59,2.83,2.83,0,0,0,3.24,0,3.31,3.31,0,0,1,3.76,0A3,3,0,0,0,19,16.8ZM6.64,11.47a1.74,1.74,0,0,1,1.57-1H9.27a1.73,1.73,0,0,1,1.56,1l.52,1h1.3l.52-1a1.73,1.73,0,0,1,1.56-1h1.06a1.74,1.74,0,0,1,1.57,1l.52,1H20V8a2,2,0,0,0-2-2H6A2,2,0,0,0,4,8v4.5H6.12Z"/></svg>