<svg id="Layer_1" data-name="Layer 1" xmlns="http://www.w3.org/2000/svg" viewBox="0 0 24 24"><title>iconoteka_chair_modern_l_s</title><path d="M14.8,12.71l4-.36L18.56,11a1.2,1.2,0,0,0-1.18-1H9.21L7,1.89A1.2,1.2,0,0,0,5.88,1H4.45l1.76,9.91a2.8,2.8,0,0,0,2.7,2.31,1.79,1.79,0,0,0-.5.85L6.28,22H6.8l2.09-7.8a1.45,1.45,0,0,1,1.27-1.07l3.34-.3A1.46,1.46,0,0,1,15,13.9L17.2,22h.52l-2.21-8.23A1.92,1.92,0,0,0,14.8,12.71ZM6.7,10.82,5.05,1.5h.83A.71.71,0,0,1,6.56,2l2.17,8.11.1.37h8.55a.7.7,0,0,1,.69.57l.16.83-9.06.81H9A2.3,2.3,0,0,1,6.7,10.82Z"/></svg>