<svg id="Layer_1" data-name="Layer 1" xmlns="http://www.w3.org/2000/svg" viewBox="0 0 24 24"><title>iconoteka_air_mattress_l_s</title><path d="M20,10H11.63l-.78-1.56A1.7,1.7,0,0,0,9.33,7.5H7.63a1.7,1.7,0,0,0-1.52.94L5.33,10H4a2,2,0,0,0-2,2v2a2,2,0,0,0,2,2H20a2,2,0,0,0,2-2V12A2,2,0,0,0,20,10ZM6.56,8.66A1.18,1.18,0,0,1,7.63,8h1.7a1.19,1.19,0,0,1,1.07.66L11.07,10H5.89ZM21.5,14A1.5,1.5,0,0,1,20,15.5H4A1.5,1.5,0,0,1,2.5,14V12A1.5,1.5,0,0,1,4,10.5H20A1.5,1.5,0,0,1,21.5,12Zm-3-2a1,1,0,1,0,1,1A1,1,0,0,0,18.5,12Zm0,1.5A.5.5,0,1,1,19,13,.5.5,0,0,1,18.5,13.5Z"/></svg>