<svg id="Layer_1" data-name="Layer 1" xmlns="http://www.w3.org/2000/svg" viewBox="0 0 24 24"><title>iconoteka_water_bed_m_s</title><path d="M20,11.5V6a2,2,0,0,0-2-2H6A2,2,0,0,0,4,6v5.5H2V20H22V11.5ZM5.5,6A.5.5,0,0,1,6,5.5H18a.5.5,0,0,1,.5.5v5.5H16.9l-.34-.67A1.49,1.49,0,0,0,15.22,10h-.78a1.49,1.49,0,0,0-1.34.83l-.34.67H11.24l-.34-.67A1.49,1.49,0,0,0,9.56,10H8.78a1.49,1.49,0,0,0-1.34.83l-.34.67H5.5Zm15,12.5H3.5V13h17ZM10,16.37a3.43,3.43,0,0,0,4.1,0,1.92,1.92,0,0,1,2.4,0,3.57,3.57,0,0,0,2.05.68v-1.5a2.11,2.11,0,0,1-1.2-.42,3.43,3.43,0,0,0-4.1,0,1.92,1.92,0,0,1-2.4,0,3.45,3.45,0,0,0-4.1,0,2.11,2.11,0,0,1-1.2.42v1.5a3.57,3.57,0,0,0,2.05-.68A1.92,1.92,0,0,1,10,16.37Z"/></svg>