<svg id="Layer_1" data-name="Layer 1" xmlns="http://www.w3.org/2000/svg" viewBox="0 0 24 24"><title>iconoteka_chair_modern_b_s</title><path d="M16.07,13.6,19,13.35l-.5-2.86A1.81,1.81,0,0,0,16.7,9H10L8.19,2.33A1.8,1.8,0,0,0,6.45,1h-3l1.9,10.79a3,3,0,0,0,2.38,2.42,2.34,2.34,0,0,0-.09.24L5.61,22H7.47l1.9-7.08a1.09,1.09,0,0,1,1-.81L11.82,14l1.58-.14a1.09,1.09,0,0,1,1.16.81l2,7.35h1.86L16.3,14.18A4.12,4.12,0,0,0,16.07,13.6ZM7.12,11.48,5.58,2.8h.87L8.24,9.47,8.6,10.8h8.1l.17.93-8.47.74H8.3A1.18,1.18,0,0,1,7.12,11.48Z"/></svg>