<svg id="Layer_1" data-name="Layer 1" xmlns="http://www.w3.org/2000/svg" viewBox="0 0 24 24"><title>iconoteka_office_chair_r_s</title><path d="M17.88,19H13.5V14.25l6.38-.57-.35-1.87a1.39,1.39,0,0,0-1.37-1.14H15.24L15.84,9a1.5,1.5,0,0,0-1.41-2H9.49L8.42,3A1.39,1.39,0,0,0,7.07,2h-2L6.92,12.21a2.86,2.86,0,0,0,2.82,2.36H10l2.51-.22V19H8.12a1.5,1.5,0,1,0,1.5,1.5,1.39,1.39,0,0,0-.09-.5h6.94a1.39,1.39,0,0,0-.09.5,1.5,1.5,0,1,0,1.5-1.5ZM14.43,8a.5.5,0,0,1,.41.21.54.54,0,0,1,.06.46l-.73,2h-3.7L9.75,8ZM7.07,3a.41.41,0,0,1,.39.3l1,3.7H7l-.7-4ZM9.91,13.56H9.74A1.85,1.85,0,0,1,7.91,12L7.19,8H8.72l.78,2.93.2.74h8.46a.4.4,0,0,1,.39.32l.15.8ZM8.62,20.5a.5.5,0,0,1-.5.5.5.5,0,1,1,0-1A.5.5,0,0,1,8.62,20.5Zm9.26.5a.5.5,0,1,1,0-1,.5.5,0,0,1,0,1Z"/></svg>