<svg id="Layer_1" data-name="Layer 1" xmlns="http://www.w3.org/2000/svg" viewBox="0 0 24 24"><defs><style>.cls-1{fill:#fff;}</style></defs><title>iconoteka_computer_table_m_s</title><path d="M19.5,11.5v2H4.5v-2h15M21,10H3v5H21V10Z"/><polygon points="4.5 10 3 10 3 21 4.5 21 4.5 10 4.5 10"/><polygon points="21 10 19.5 10 19.5 21 21 21 21 10 21 10"/><rect class="cls-1" x="7.75" y="2.75" width="8.5" height="4.5" rx="0.25"/><path d="M15.5,3.5v3h-7v-3h7M16,2H8A1,1,0,0,0,7,3V7A1,1,0,0,0,8,8h8a1,1,0,0,0,1-1V3a1,1,0,0,0-1-1Z"/><rect x="11.25" y="8" width="1.5" height="2"/></svg>