<svg id="Layer_1" data-name="Layer 1" xmlns="http://www.w3.org/2000/svg" viewBox="0 0 24 24"><defs><style>.cls-1{fill:#fff;}</style></defs><title>iconoteka_workspace_r_s</title><path d="M21,11v9H17V11h4m1-1H16V21h6V10Z"/><polygon points="3 8 2 8 2 21 3 21 3 8 3 8"/><rect x="16" y="15" width="6" height="1"/><rect class="cls-1" x="2.5" y="8.5" width="19" height="2"/><path d="M21,9v1H3V9H21m1-1H2v3H22V8Z"/><path class="cls-1" d="M5.5,14.5V7A1.5,1.5,0,0,1,7,5.5h5A1.5,1.5,0,0,1,13.5,7v7.5Z"/><path d="M12,6a1,1,0,0,1,1,1v7H6V7A1,1,0,0,1,7,6h5m0-1H7A2,2,0,0,0,5,7v8h9V7a2,2,0,0,0-2-2Z"/><rect class="cls-1" x="5" y="15" width="1" height="6"/><polygon points="6 15 5 15 5 21 6 21 6 15 6 15"/><rect class="cls-1" x="13" y="15" width="1" height="6"/><polygon points="14 15 13 15 13 21 14 21 14 15 14 15"/><path d="M18,10h2a0,0,0,0,1,0,0v1.5a.5.5,0,0,1-.5.5h-1a.5.5,0,0,1-.5-.5V10A0,0,0,0,1,18,10Z"/><path d="M18,15h2a0,0,0,0,1,0,0v1.5a.5.5,0,0,1-.5.5h-1a.5.5,0,0,1-.5-.5V15A0,0,0,0,1,18,15Z"/></svg>