<svg id="Layer_1" data-name="Layer 1" xmlns="http://www.w3.org/2000/svg" viewBox="0 0 24 24"><title>iconoteka_chair_modern_r_s</title><path d="M15.28,13l3.6-.32-.35-1.87a1.39,1.39,0,0,0-1.37-1.14H9.47L7.42,2A1.39,1.39,0,0,0,6.07,1h-2L5.92,11.21a2.88,2.88,0,0,0,2.52,2.34,2.07,2.07,0,0,0-.29.64L6.05,22H7l2-7.56a1.33,1.33,0,0,1,1.17-1l3.25-.28a1.31,1.31,0,0,1,1.4,1L17,22h1l-2.16-8.09A2.31,2.31,0,0,0,15.28,13ZM6.91,11,5.31,2h.76a.41.41,0,0,1,.39.3L8.7,10.67h8.46a.4.4,0,0,1,.39.32l.15.8-8.79.77H8.74A1.85,1.85,0,0,1,6.91,11Z"/></svg>