<svg id="Layer_1" data-name="Layer 1" xmlns="http://www.w3.org/2000/svg" viewBox="0 0 24 24"><title>iconoteka_double_bed__bedroom_r_s</title><path d="M20,13V8a2,2,0,0,0-2-2H6A2,2,0,0,0,4,8v5H2v7H3V18H21v2h1V13ZM5,8A1,1,0,0,1,6,7H18a1,1,0,0,1,1,1v5h-.78l-.53-1.06A1.7,1.7,0,0,0,16.17,11h-1.7a1.7,1.7,0,0,0-1.52.94L12.42,13h-.84l-.53-1.06A1.7,1.7,0,0,0,9.53,11H7.83a1.7,1.7,0,0,0-1.52.94L5.78,13H5Zm12.1,5H13.54l.31-.61a.7.7,0,0,1,.62-.39h1.7a.67.67,0,0,1,.62.39Zm-6.64,0H6.9l.31-.61A.67.67,0,0,1,7.83,12h1.7a.7.7,0,0,1,.62.39ZM3,17V14H21v3Z"/></svg>