<svg id="Layer_1" data-name="Layer 1" xmlns="http://www.w3.org/2000/svg" viewBox="0 0 24 24"><defs><style>.cls-1{fill:#fff;}</style></defs><title>iconoteka_work_table_l_s</title><path d="M21.5,9v9.5h-6V9h6m.5-.5H15V19h7V8.5Z"/><polygon points="2.5 6 2 6 2 19 2.5 19 2.5 6 2.5 6"/><rect x="15" y="13.5" width="7" height="0.5"/><rect class="cls-1" x="2.25" y="6.25" width="19.5" height="2.5"/><path d="M21.5,6.5v2H2.5v-2h19M22,6H2V9H22V6Z"/><path d="M19,9.5H18a.5.5,0,0,1-.5-.5h2A.5.5,0,0,1,19,9.5Z"/><path d="M19,14.5H18a.5.5,0,0,1-.5-.5h2A.5.5,0,0,1,19,14.5Z"/></svg>