<svg id="Layer_1" data-name="Layer 1" xmlns="http://www.w3.org/2000/svg" viewBox="0 0 24 24"><title>iconoteka_office_chair_m_s</title><path d="M18.28,19.8a1.1,1.1,0,1,0,1.1,1.1A1.11,1.11,0,0,0,18.28,19.8Zm-10.56,0a1.1,1.1,0,1,0,1.11,1.1A1.1,1.1,0,0,0,7.72,19.8Zm1.8-4.88h.26l2.47-.22V17.5H7.83a.83.83,0,0,0-.83.83V19H19v-.67a.83.83,0,0,0-.83-.83H13.75V14.56L19.93,14l-.43-2.37a1.6,1.6,0,0,0-1.57-1.32H15.36l.69-1.91A1.8,1.8,0,0,0,14.36,6H9.56L8.81,3.19A1.61,1.61,0,0,0,7.26,2H4.78L6.63,12.5A2.94,2.94,0,0,0,9.52,14.92ZM14.36,7.5a.3.3,0,0,1,.29.4l-.89,2.43h-3L10,7.5Zm-5.95,0,1.16,4.33h8.36a.11.11,0,0,1,.1.09l.13.75-8.51.75H9.52a1.43,1.43,0,0,1-1.41-1.18L7.27,7.5Zm-1.15-4a.1.1,0,0,1,.1.07L8,6H7L6.56,3.5Z"/></svg>