<svg id="Layer_1" data-name="Layer 1" xmlns="http://www.w3.org/2000/svg" viewBox="0 0 24 24"><defs><style>.cls-1{fill:#fff;}</style></defs><title>iconoteka_computer_table_b_s</title><rect class="cls-1" x="3.9" y="10.9" width="16.2" height="3.2"/><path d="M19.2,11.8v1.4H4.8V11.8H19.2M21,10H3v5H21V10Z"/><polygon points="5 10 3 10 3 21 5 21 5 10 5 10"/><polygon points="21 10 19 10 19 21 21 21 21 10 21 10"/><rect class="cls-1" x="7.9" y="2.9" width="8.2" height="4.2" rx="0.1"/><path d="M15.2,3.8V6.2H8.8V3.8h6.4M16,2H8A1,1,0,0,0,7,3V7A1,1,0,0,0,8,8h8a1,1,0,0,0,1-1V3a1,1,0,0,0-1-1Z"/><rect x="11" y="8" width="2" height="2"/></svg>