<svg id="Layer_1" data-name="Layer 1" xmlns="http://www.w3.org/2000/svg" viewBox="0 0 24 24"><title>iconoteka_stove_l_s</title><path d="M3,3V21H21V3ZM20.5,20.5H3.5V3.5h17Zm-4.74-9.76a2.5,2.5,0,1,0-2.5-2.5A2.49,2.49,0,0,0,15.76,10.74Zm0-4.5a2,2,0,1,1-2,2A2,2,0,0,1,15.76,6.24Zm-7.52,4.5a2.5,2.5,0,1,0-2.5-2.5A2.49,2.49,0,0,0,8.24,10.74Zm0-4.5a2,2,0,1,1-2,2A2,2,0,0,1,8.24,6.24Zm0,12a2.5,2.5,0,1,0-2.5-2.5A2.49,2.49,0,0,0,8.24,18.26Zm0-4.5a2,2,0,1,1-2,2A2,2,0,0,1,8.24,13.76Zm7.52,4.5a2.5,2.5,0,1,0-2.5-2.5A2.5,2.5,0,0,0,15.76,18.26Zm0-4.5a2,2,0,1,1-2,2A2,2,0,0,1,15.76,13.76Z"/></svg>