<svg id="Layer_1" data-name="Layer 1" xmlns="http://www.w3.org/2000/svg" viewBox="0 0 24 24"><title>iconoteka_sofa__event_seat_m_s</title><path d="M20,9.18V6a3,3,0,0,0-3-3H7A3,3,0,0,0,4,6V9.18A3,3,0,0,0,2,12v6a2,2,0,0,0,2,2v2H5.5V20h13v2H20V20a2,2,0,0,0,2-2V12A3,3,0,0,0,20,9.18ZM7,4.5H17A1.5,1.5,0,0,1,18.5,6V9.05A3,3,0,0,0,16,12v1H8V12A3,3,0,0,0,5.5,9.05V6A1.5,1.5,0,0,1,7,4.5ZM20.5,18a.5.5,0,0,1-.5.5H4a.5.5,0,0,1-.5-.5V12a1.49,1.49,0,1,1,3,0V14.5h11V12A1.49,1.49,0,0,1,19,10.5h0A1.49,1.49,0,0,1,20.5,12Z"/></svg>