<svg id="Layer_1" data-name="Layer 1" xmlns="http://www.w3.org/2000/svg" viewBox="0 0 24 24"><title>iconoteka_office_chair_r_f</title><path d="M18.28,19.8a1.1,1.1,0,1,0,1.1,1.1A1.11,1.11,0,0,0,18.28,19.8Zm-10.56,0a1.1,1.1,0,1,0,1.11,1.1A1.1,1.1,0,0,0,7.72,19.8Zm2.56-6.35,2.22-.2V18h-5a.54.54,0,0,0-.54.54V19H19v-.46a.54.54,0,0,0-.54-.54h-5V13.16l6.24-.55-.22-1.21a1,1,0,0,0-1-.84H15.28L15.84,9a1.5,1.5,0,0,0-1.41-2H9.34L8.14,2.51a1.12,1.12,0,0,0-1.09-.84H5.89L7.6,11.4A2.51,2.51,0,0,0,10.28,13.45ZM14.43,8a.5.5,0,0,1,.41.21.54.54,0,0,1,.06.46l-.69,1.89H10.3L9.61,8Z"/></svg>