<svg id="Layer_1" data-name="Layer 1" xmlns="http://www.w3.org/2000/svg" viewBox="0 0 24 24"><title>iconoteka_water_bed_b_s</title><path d="M20,11V6a2,2,0,0,0-2-2H6A2,2,0,0,0,4,6v5H2v9H22V11ZM6,6H18v5h-.85l-.52-1a1.73,1.73,0,0,0-1.56-1H14.6A1.74,1.74,0,0,0,13,10l-.52,1h-1L11,10A1.74,1.74,0,0,0,9.4,9H8.93a1.73,1.73,0,0,0-1.56,1l-.52,1H6ZM20,18H4V13H20ZM8.75,15.84a1.89,1.89,0,0,1,1.11.4,3.6,3.6,0,0,0,4.28,0,1.75,1.75,0,0,1,2.22,0A3.73,3.73,0,0,0,18.5,17V15.14a1.88,1.88,0,0,1-1.11-.39,3.6,3.6,0,0,0-4.28,0,1.75,1.75,0,0,1-2.22,0A3.73,3.73,0,0,0,8.75,14a3.73,3.73,0,0,0-2.14.71,1.88,1.88,0,0,1-1.11.39V17a3.73,3.73,0,0,0,2.14-.71A1.89,1.89,0,0,1,8.75,15.84Z"/></svg>