<svg id="Layer_1" data-name="Layer 1" xmlns="http://www.w3.org/2000/svg" viewBox="0 0 24 24"><defs><style>.cls-1{fill:#fff;}</style></defs><title>iconoteka_workspace_m_f</title><rect x="10.5" y="-0.5" width="3" height="20" transform="translate(21.5 -2.5) rotate(90)"/><polygon points="3.5 8 2 8 2 21 3.5 21 3.5 8 3.5 8"/><rect x="14" y="13" width="10" height="6" transform="translate(35 -3) rotate(90)"/><rect class="cls-1" x="12" y="11" width="11" height="1.5"/><rect class="cls-1" x="12" y="16" width="11" height="1.5"/><path d="M8,5h4a2,2,0,0,1,2,2v8a0,0,0,0,1,0,0H6a0,0,0,0,1,0,0V7A2,2,0,0,1,8,5Z"/><rect class="cls-1" x="6" y="15" width="1.5" height="6"/><polygon points="7.5 15 6 15 6 21 7.5 21 7.5 15 7.5 15"/><rect class="cls-1" x="12.5" y="15" width="1.5" height="6"/><polygon points="14 15 12.5 15 12.5 21 14 21 14 15 14 15"/><path class="cls-1" d="M18,11.5h2a0,0,0,0,1,0,0V13a.5.5,0,0,1-.5.5h-1A.5.5,0,0,1,18,13V11.5A0,0,0,0,1,18,11.5Z"/><path class="cls-1" d="M18,16.5h2a0,0,0,0,1,0,0V18a.5.5,0,0,1-.5.5h-1A.5.5,0,0,1,18,18V16.5A0,0,0,0,1,18,16.5Z"/></svg>