<svg id="Layer_1" data-name="Layer 1" xmlns="http://www.w3.org/2000/svg" viewBox="0 0 24 24"><title>iconoteka_plastic_bottle__recycling_l_s</title><path d="M17,8.37h0a5.85,5.85,0,0,0-1.42-3.83L13.67,2.3V.75A.76.76,0,0,0,12.92,0H11.08a.76.76,0,0,0-.75.75V2.29L8.4,4.56A5.89,5.89,0,0,0,7,8.37a2.06,2.06,0,0,0,.36,1.15L7.7,10l-.34.48A2.06,2.06,0,0,0,7,11.63V15.3a2.06,2.06,0,0,0,.36,1.15l.34.48-.34.48A2.06,2.06,0,0,0,7,18.56v2A2.43,2.43,0,0,0,9.43,23a2.39,2.39,0,0,0,1.08-.26,3.35,3.35,0,0,1,3,0,2.39,2.39,0,0,0,1.08.26A2.43,2.43,0,0,0,17,20.57v-2a2.06,2.06,0,0,0-.36-1.15l-.34-.48.34-.48A2.06,2.06,0,0,0,17,15.3V11.63a2.06,2.06,0,0,0-.36-1.15L16.3,10l.34-.48A2.06,2.06,0,0,0,17,8.37ZM11.08.5h1.84a.25.25,0,0,1,.25.25V2H10.83V.75A.25.25,0,0,1,11.08.5ZM16.5,18.56v2a1.92,1.92,0,0,1-1.93,1.93,2,2,0,0,1-.86-.2,3.77,3.77,0,0,0-3.42,0,2,2,0,0,1-.86.2A1.92,1.92,0,0,1,7.5,20.57v-2a1.49,1.49,0,0,1,.27-.86l.3-.42h7.86l.3.42A1.49,1.49,0,0,1,16.5,18.56Zm0-6.93V15.3a1.46,1.46,0,0,1-.27.86l-.34.48-.1.14H8.21l-.1-.14-.34-.48a1.46,1.46,0,0,1-.27-.86V11.63a1.46,1.46,0,0,1,.27-.86l.34-.48h7.78l.34.48A1.46,1.46,0,0,1,16.5,11.63Zm-.27-2.4-.34.48-.05.07H8.16l-.05-.07-.34-.48a1.46,1.46,0,0,1-.27-.86A5.42,5.42,0,0,1,8.78,4.88l1.93-2.26.11-.12h2.36l.11.12L15.2,4.86a5.34,5.34,0,0,1,1.3,3.51A1.46,1.46,0,0,1,16.23,9.23Z"/></svg>