<svg id="Layer_1" data-name="Layer 1" xmlns="http://www.w3.org/2000/svg" viewBox="0 0 24 24"><title>iconoteka_glass__recycled__bottle_m_s</title><path d="M9.67,7V1H5.33V7l-1,.82a4,4,0,0,0-1.37,3V20a1,1,0,0,0,1,1h7a1,1,0,0,0,1-1V10.82a3.94,3.94,0,0,0-1.38-3Zm.9,12.57H4.43V10.82a2.51,2.51,0,0,1,.93-2l1-.83.45-.42V2.43H8.23V7.61L8.68,8l1,.83a2.51,2.51,0,0,1,.93,2Zm8.11-3.64A3.59,3.59,0,0,0,21.56,12L21,7H15l-.56,5a3.59,3.59,0,0,0,2.88,3.91v3.81L15,20.25V21h6v-.75l-2.32-.51Zm-2.23-2.12a2.1,2.1,0,0,1-.52-1.62l.41-3.69h3.32l.41,3.69a2.1,2.1,0,0,1-.52,1.62,2.09,2.09,0,0,1-3.1,0Z"/></svg>