<svg id="Layer_1" data-name="Layer 1" xmlns="http://www.w3.org/2000/svg" viewBox="0 0 24 24"><title>iconoteka_glass_of_sparkling_water_l_f</title><path d="M4,2,6.08,20.23a2,2,0,0,0,2,1.77h7.86a2,2,0,0,0,2-1.77L20,2Zm6.45,17.77a1.2,1.2,0,1,1,1.2-1.2A1.2,1.2,0,0,1,10.45,19.77Zm0-7.23a1.2,1.2,0,1,1,1.2-1.2A1.2,1.2,0,0,1,10.45,12.54Zm3.67,3.62a1.2,1.2,0,1,1,1.2-1.2A1.2,1.2,0,0,1,14.12,16.16ZM16.65,7a4.24,4.24,0,0,0-2.32.74A4.2,4.2,0,0,1,12,8.48a4.2,4.2,0,0,1-2.33-.75A4.24,4.24,0,0,0,7.35,7a4.18,4.18,0,0,0-2.2.67L4.56,2.5H19.44l-.59,5.16A4.18,4.18,0,0,0,16.65,7Z"/></svg>