<svg id="Layer_1" data-name="Layer 1" xmlns="http://www.w3.org/2000/svg" viewBox="0 0 24 24"><title>iconoteka_glass_of_sparkling_water_r_f</title><path d="M4,2,6.08,20.23a2,2,0,0,0,2,1.77h7.86a2,2,0,0,0,2-1.77L20,2Zm6.45,17.77a1.2,1.2,0,1,1,1.2-1.2A1.2,1.2,0,0,1,10.45,19.77Zm0-7.23a1.2,1.2,0,1,1,1.2-1.2A1.2,1.2,0,0,1,10.45,12.54Zm3.67,3.62a1.2,1.2,0,1,1,1.2-1.2A1.2,1.2,0,0,1,14.12,16.16ZM16.27,7a3.91,3.91,0,0,0-2.14.68,3.63,3.63,0,0,1-4.26,0A3.91,3.91,0,0,0,7.73,7a3.87,3.87,0,0,0-2.08.65L5.12,3H18.88l-.53,4.64A3.87,3.87,0,0,0,16.27,7Z"/></svg>