<svg id="Layer_1" data-name="Layer 1" xmlns="http://www.w3.org/2000/svg" viewBox="0 0 24 24"><title>iconoteka_can_m_s</title><path d="M17.67,7.61l-.45-.89a2.4,2.4,0,0,0,.35-1.22c0-2-2.34-3.38-5.57-3.38S6.43,3.54,6.43,5.5a2.4,2.4,0,0,0,.35,1.22l-.45.89A3.18,3.18,0,0,0,6,9v9.35C6,20.48,8.52,22,12,22s6-1.52,6-3.62V9A3.18,3.18,0,0,0,17.67,7.61ZM12,3.55c2.29,0,4.14.88,4.14,2s-1.85,2-4.14,2S7.86,6.58,7.86,5.5,9.71,3.55,12,3.55Zm4.5,14.83c0,1.17-2,2.12-4.5,2.12s-4.5-.95-4.5-2.12V9a1.71,1.71,0,0,1,.17-.74l.22-.45a7.61,7.61,0,0,0,4.11,1,7.61,7.61,0,0,0,4.11-1l.22.45A1.71,1.71,0,0,1,16.5,9ZM13.17,6.09h1.17a.51.51,0,0,0,.51-.51V5.43a.51.51,0,0,0-.51-.52H13.17c-.65,0-1.17.27-1.17.59S12.52,6.09,13.17,6.09Z"/></svg>