<svg id="Layer_1" data-name="Layer 1" xmlns="http://www.w3.org/2000/svg" viewBox="0 0 24 24"><title>iconoteka_can_r_s</title><path d="M17.66,7.59l-.45-.91a2.27,2.27,0,0,0,.36-1.18c0-1.86-2.39-3.25-5.57-3.25S6.43,3.64,6.43,5.5a2.27,2.27,0,0,0,.36,1.18l-.45.91A3.33,3.33,0,0,0,6,9.08v9.43C6,20.5,8.57,22,12,22s6-1.5,6-3.49V9.08A3.33,3.33,0,0,0,17.66,7.59ZM12,3.22c2.54,0,4.61,1,4.61,2.28S14.54,7.79,12,7.79s-4.61-1-4.61-2.29S9.46,3.22,12,3.22Zm5,15.29C17,19.89,14.77,21,12,21s-5-1.11-5-2.49V9.08A2.26,2.26,0,0,1,7.24,8l.28-.56A7.39,7.39,0,0,0,12,8.75a7.39,7.39,0,0,0,4.48-1.28l.28.56A2.26,2.26,0,0,1,17,9.08ZM13.49,6.65h.71a1.11,1.11,0,0,0,1.11-1.1V5.46A1.11,1.11,0,0,0,14.2,4.35h-.71c-.87,0-1.5.48-1.5,1.15S12.62,6.65,13.49,6.65Zm0-1.5h.71a.31.31,0,0,1,.31.31v.09a.31.31,0,0,1-.31.3h-.71c-.39,0-.7-.16-.7-.35S13.1,5.15,13.49,5.15Z"/></svg>