<svg id="Layer_1" data-name="Layer 1" xmlns="http://www.w3.org/2000/svg" viewBox="0 0 24 24"><title>iconoteka_can_b_s</title><path d="M17.68,7.64l-.44-.88a2.64,2.64,0,0,0,.34-1.26C17.58,3.44,15.28,2,12,2S6.42,3.44,6.42,5.5a2.64,2.64,0,0,0,.34,1.26l-.44.88A3,3,0,0,0,6,9v9.26C6,20.46,8.47,22,12,22s6-1.54,6-3.75V9A3,3,0,0,0,17.68,7.64ZM12,3.89c2,0,3.68.72,3.68,1.61S14,7.11,12,7.11,8.32,6.39,8.32,5.5,10,3.89,12,3.89Zm4,14.36c0,1-1.79,1.75-4,1.75s-4-.78-4-1.75V9a1,1,0,0,1,.11-.45l.17-.36A7.84,7.84,0,0,0,12,9a7.84,7.84,0,0,0,3.72-.83l.17.36A1,1,0,0,1,16,9ZM13.17,6.12h.66a.51.51,0,0,0,.51-.51V5.39a.51.51,0,0,0-.51-.51h-.66c-.65,0-1.17.28-1.17.62S12.52,6.12,13.17,6.12Z"/></svg>