<svg id="Layer_1" data-name="Layer 1" xmlns="http://www.w3.org/2000/svg" viewBox="0 0 24 24"><title>iconoteka_glass_of_sparkling_water_b_s</title><path d="M4,2,6.08,20.23a2,2,0,0,0,2,1.77h7.86a2,2,0,0,0,2-1.77L20,2ZM15.93,20H12a.88.88,0,0,0,.06-.28,1.28,1.28,0,0,0-2.56,0,.88.88,0,0,0,.06.28H8.07L6.85,9.3a2.38,2.38,0,0,1,2.6.17,4.67,4.67,0,0,0,2.55.8,4.67,4.67,0,0,0,2.55-.8A2.61,2.61,0,0,1,16,9a2.34,2.34,0,0,1,1.15.31ZM17.39,7.23A4.19,4.19,0,0,0,16,7a4.67,4.67,0,0,0-2.55.8,2.4,2.4,0,0,1-2.9,0,4.44,4.44,0,0,0-3.94-.56L6.24,4H17.76Zm-3.71,7.84A1.28,1.28,0,1,0,15,16.35,1.28,1.28,0,0,0,13.68,15.07ZM10.62,11.7A1.28,1.28,0,1,0,11.9,13,1.28,1.28,0,0,0,10.62,11.7Z"/></svg>