<svg id="Layer_1" data-name="Layer 1" xmlns="http://www.w3.org/2000/svg" viewBox="0 0 24 24"><defs><style>.cls-1{fill:#231f20;}</style></defs><title>iconoteka_menu_r_s</title><path class="cls-1" d="M7,2A3,3,0,0,0,4,5V19a3,3,0,0,0,3,3H20V2ZM19,21H7a2,2,0,0,1-2-2V5A2,2,0,0,1,7,3H19Zm-4.82-8.2,1,.61-.4,2.9a.61.61,0,1,0,1.21.08V8a1,1,0,0,0-1.92-.27l-.8,2.81A2,2,0,0,0,14.18,12.8Zm.06-2L15,8.12v4L14.7,12A1,1,0,0,1,14.24,10.79ZM9,11.21l.51.3-.3,4.79a.65.65,0,1,0,1.3,0l-.3-4.79.51-.3a2,2,0,0,0,1-2.12l-.12-.66a1.75,1.75,0,0,0-3.44,0L8,9.09A2,2,0,0,0,9,11.21ZM9,9.27l.13-.66a.74.74,0,0,1,1.46,0l.13.66a1,1,0,0,1-.5,1.08l-.36.2-.36-.2A1,1,0,0,1,9,9.27Z"/></svg>