<svg id="Layer_1" data-name="Layer 1" xmlns="http://www.w3.org/2000/svg" viewBox="0 0 24 24"><title>iconoteka_pizza__slice_b_s</title><path d="M9.69,9.32a1.26,1.26,0,1,0,1,2.31,1.26,1.26,0,0,0-1-2.31ZM22.2,5l-.86-.5a18.53,18.53,0,0,0-18.59,0L1.88,5,12,22.6h0L20.23,8.42h0ZM16,11.71a1.24,1.24,0,0,0-.5-.82,1.27,1.27,0,1,0-1.5,2,1.25,1.25,0,0,0,1.22.13L12,18.6,10.7,16.28a1.4,1.4,0,0,0,.41.13A1.27,1.27,0,1,0,10,15v0L6.62,9.2a12.86,12.86,0,0,1,10.85,0Zm2.45-4.24a14.8,14.8,0,0,0-12.86,0l-1-1.71a16.5,16.5,0,0,1,14.83,0Z"/></svg>