<svg id="Layer_1" data-name="Layer 1" xmlns="http://www.w3.org/2000/svg" viewBox="0 0 24 24"><title>iconoteka_glass__recycled__bottle_b_s</title><path d="M10,7V1H5V7l-.83.83A4,4,0,0,0,3,10.66V20a1,1,0,0,0,1,1h7a1,1,0,0,0,1-1V10.66a4,4,0,0,0-1.17-2.83Zm.1,12.1H4.9V10.66a2.1,2.1,0,0,1,.62-1.49L6.9,7.79V2.9H8.1V7.79l.56.55.82.83a2.1,2.1,0,0,1,.62,1.49Zm8.8-3.23A3.57,3.57,0,0,0,21.56,12L21,7H15l-.56,5a3.57,3.57,0,0,0,2.66,3.85V19.4L15,20v1h6V20l-2.1-.6Zm-2.08-2.4a1.56,1.56,0,0,1-.39-1.22L16.79,9h2.42l.36,3.25a1.58,1.58,0,0,1-2.75,1.22Z"/></svg>