<svg id="Layer_1" data-name="Layer 1" xmlns="http://www.w3.org/2000/svg" viewBox="0 0 24 24"><title>iconoteka_glass__recycled__bottle_l_s</title><path d="M10.22,7.81,9,7V1H6V7l-1.22.81A4,4,0,0,0,3,11.14V20.5a.5.5,0,0,0,.5.5h8a.5.5,0,0,0,.5-.5V11.14A4,4,0,0,0,10.22,7.81ZM11.5,20.5h-8V11.14A3.48,3.48,0,0,1,5.06,8.23l1.22-.81.22-.15V1.5h2V7.27l.22.15,1.22.81a3.48,3.48,0,0,1,1.56,2.91ZM18.25,16a3.57,3.57,0,0,0,3.31-4L21,7H15l-.56,5a3.57,3.57,0,0,0,3.31,4v4.55L15,20.75V21h6v-.25l-2.75-.23Zm-2.55-1.5a3.07,3.07,0,0,1-.76-2.39l.51-4.58h5.1l.51,4.58a3.08,3.08,0,0,1-5.36,2.39Z"/></svg>