<svg id="Layer_1" data-name="Layer 1" xmlns="http://www.w3.org/2000/svg" viewBox="0 0 24 24"><title>iconoteka_plastic_bottle__recycling_r_s</title><path d="M17,8.37h0a6.46,6.46,0,0,0-1.48-4.12l-1.41-1.7V1a1,1,0,0,0-1-1H10.89a1,1,0,0,0-1,1V2.54L8.47,4.27A6.46,6.46,0,0,0,7,8.37a2.06,2.06,0,0,0,.36,1.15L7.7,10l-.34.48A2.06,2.06,0,0,0,7,11.63V15.3a2.06,2.06,0,0,0,.36,1.15l.34.48-.15.22A3,3,0,0,0,7,18.88v1.69A2.43,2.43,0,0,0,9.43,23a2.39,2.39,0,0,0,1.08-.26,3.35,3.35,0,0,1,3,0,2.39,2.39,0,0,0,1.08.26A2.43,2.43,0,0,0,17,20.57v-2a2.06,2.06,0,0,0-.36-1.15l-.34-.48.34-.48A2.06,2.06,0,0,0,17,15.3V11.63a2.06,2.06,0,0,0-.36-1.15L16.3,10l.34-.48A2.06,2.06,0,0,0,17,8.37ZM13.11,1V2H10.89V1ZM9.24,4.91l1.42-1.74L10.8,3h2.4l.14.17,1.41,1.71A5.47,5.47,0,0,1,16,8.37a1,1,0,0,1-.18.57l-.34.48-.08.11H8.6l-.08-.11-.34-.48A1,1,0,0,1,8,8.37,5.45,5.45,0,0,1,9.24,4.91Zm6.24,5.67.34.48a1,1,0,0,1,.18.57V15.3a1,1,0,0,1-.18.57l-.34.49-.12.17H8.64l-.12-.17-.34-.49A1,1,0,0,1,8,15.3V11.63a1,1,0,0,1,.18-.57l.34-.48,0-.05h6.9Zm.52,10a1.43,1.43,0,0,1-2.07,1.28,4.28,4.28,0,0,0-3.86,0A1.43,1.43,0,0,1,8,20.57V18.88a2.06,2.06,0,0,1,.36-1.15l.14-.2h7l.32.46a1,1,0,0,1,.18.57Z"/></svg>