<svg id="Layer_1" data-name="Layer 1" xmlns="http://www.w3.org/2000/svg" viewBox="0 0 24 24"><title>iconoteka_glass_of_sparkling_water_r_s</title><path d="M4,2,6.08,20.23a2,2,0,0,0,2,1.77h7.86a2,2,0,0,0,2-1.77L20,2ZM16.92,20.11a1,1,0,0,1-1,.89H8.07a1,1,0,0,1-1-.89L5.81,9a3.25,3.25,0,0,1,3.73.06,4.27,4.27,0,0,0,4.92,0,3.44,3.44,0,0,1,1.92-.62A3.39,3.39,0,0,1,18.19,9ZM16.38,7.43a4.44,4.44,0,0,0-2.46.78,3.29,3.29,0,0,1-3.84,0,4.26,4.26,0,0,0-4.4-.3L5.12,3H18.88l-.56,4.91A4.25,4.25,0,0,0,16.38,7.43Zm-2.15,6.42a1.5,1.5,0,1,0,1.5,1.5A1.5,1.5,0,0,0,14.23,13.85Zm0,2.15a.65.65,0,1,1,.65-.65A.66.66,0,0,1,14.23,16Zm-3.82-2.12a1.5,1.5,0,1,0-1.5-1.5A1.5,1.5,0,0,0,10.41,13.88Zm0-2.15a.66.66,0,0,1,.65.65.65.65,0,1,1-.65-.65Zm.18,5.09a1.5,1.5,0,1,0,1.5,1.5A1.5,1.5,0,0,0,10.59,16.82Zm0,2.15a.65.65,0,1,1,.65-.65A.65.65,0,0,1,10.59,19Z"/></svg>