<svg id="Layer_1" data-name="Layer 1" xmlns="http://www.w3.org/2000/svg" viewBox="0 0 24 24"><title>iconoteka_cup__coffee_tea_cafe__caffee__teahouse_l_s</title><path d="M0,20v.25c2,.17,4.07.25,6.16.25H17.84c2.09,0,4.17-.08,6.16-.25V20Zm9.66-2h4.68a4.5,4.5,0,0,0,4.47-4l.11-1h.4a4,4,0,0,0,4-3.57l.18-1.66A2.5,2.5,0,0,0,21,5H19.78L20,3H4L5.19,14A4.5,4.5,0,0,0,9.66,18ZM21,5.5a2,2,0,0,1,1.48.66A2,2,0,0,1,23,7.71L22.8,9.37a3.49,3.49,0,0,1-3.48,3.13H19l.75-7Zm-1.55-2L18.31,13.93a4,4,0,0,1-4,3.57H9.66a4,4,0,0,1-4-3.57L4.56,3.5Z"/></svg>