<svg id="Layer_1" data-name="Layer 1" xmlns="http://www.w3.org/2000/svg" viewBox="0 0 24 24"><title>iconoteka_plastic_bottle__recycling_r_f</title><path d="M7.56,11A1.92,1.92,0,0,0,7,12.36v2.28A1.92,1.92,0,0,0,7.56,16h8.88A1.92,1.92,0,0,0,17,14.64V12.36A1.92,1.92,0,0,0,16.44,11ZM13.67.7A.7.7,0,0,0,13,0H11a.7.7,0,0,0-.7.7V2h3.34Zm1.76,3.83L13.67,3H10.33L8.55,4.56A4.54,4.54,0,0,0,7,8v.67A1.92,1.92,0,0,0,7.56,10h8.88A1.92,1.92,0,0,0,17,8.64V8A4.52,4.52,0,0,0,15.43,4.53ZM7.56,17A1.92,1.92,0,0,0,7,18.36v2.21A2.43,2.43,0,0,0,9.43,23a2.39,2.39,0,0,0,1.08-.26,3.39,3.39,0,0,1,3,0,2.39,2.39,0,0,0,1.08.26A2.43,2.43,0,0,0,17,20.57V18.36A1.92,1.92,0,0,0,16.44,17Z"/></svg>