<svg id="Layer_1" data-name="Layer 1" xmlns="http://www.w3.org/2000/svg" viewBox="0 0 24 24"><title>iconoteka_glass_of_sparkling_water_b_f</title><path d="M4,2,6.08,20.23a2,2,0,0,0,2,1.77h7.86a2,2,0,0,0,2-1.77L20,2Zm6.45,17.77a1.2,1.2,0,1,1,1.2-1.2A1.2,1.2,0,0,1,10.45,19.77Zm0-7.23a1.2,1.2,0,1,1,1.2-1.2A1.2,1.2,0,0,1,10.45,12.54Zm3.67,3.62a1.2,1.2,0,1,1,1.2-1.2A1.2,1.2,0,0,1,14.12,16.16Zm3.24-8.69A3.34,3.34,0,0,0,15.7,7a3.39,3.39,0,0,0-1.85.59,3.15,3.15,0,0,1-3.7,0A3.39,3.39,0,0,0,8.3,7a3.34,3.34,0,0,0-1.66.48L6.24,4H17.76Z"/></svg>