<svg id="Layer_1" data-name="Layer 1" xmlns="http://www.w3.org/2000/svg" viewBox="0 0 24 24"><title>iconoteka_glass_of_water__drink__hydration_m_s</title><path d="M4,2,6.08,20.23a2,2,0,0,0,2,1.77h7.86a2,2,0,0,0,2-1.77L20,2ZM18.32,3.5l-.45,4a4.42,4.42,0,0,0-1.5-.28,4.77,4.77,0,0,0-2.6.82,3,3,0,0,1-3.54,0,4.52,4.52,0,0,0-4.1-.54l-.45-4ZM16.43,20.06a.51.51,0,0,1-.5.44H8.07a.51.51,0,0,1-.5-.44L6.31,9a2.94,2.94,0,0,1,3.1.26,4.71,4.71,0,0,0,2.59.82,4.71,4.71,0,0,0,2.59-.82,3.21,3.21,0,0,1,1.78-.58A3,3,0,0,1,17.69,9Z"/></svg>