<svg id="Layer_1" data-name="Layer 1" xmlns="http://www.w3.org/2000/svg" viewBox="0 0 24 24"><title>iconoteka_sparkling_water_b_s</title><path d="M3.88,2,6,20.93A1.19,1.19,0,0,0,7.18,22h9.64A1.19,1.19,0,0,0,18,20.93L20.12,2ZM16.1,20H12a.88.88,0,0,0,.06-.28,1.28,1.28,0,0,0-2.56,0,.88.88,0,0,0,.06.28H7.9L6.71,9.37a2.4,2.4,0,0,1,2.74.1,4.67,4.67,0,0,0,2.55.8,4.67,4.67,0,0,0,2.55-.8A2.61,2.61,0,0,1,16,9a2.58,2.58,0,0,1,1.29.38ZM17.52,7.28A4.27,4.27,0,0,0,16,7a4.64,4.64,0,0,0-2.55.8,2.4,2.4,0,0,1-2.9,0,4.45,4.45,0,0,0-4.07-.51L6.12,4H17.88Zm-3.84,7.79A1.28,1.28,0,1,0,15,16.35,1.28,1.28,0,0,0,13.68,15.07ZM10.62,11.7A1.28,1.28,0,1,0,11.9,13,1.28,1.28,0,0,0,10.62,11.7Z"/></svg>