<svg id="Layer_1" data-name="Layer 1" xmlns="http://www.w3.org/2000/svg" viewBox="0 0 24 24"><title>iconoteka_sparkling_water_b_f</title><path d="M3.88,2,6,20.67A1.49,1.49,0,0,0,7.45,22h9.1A1.49,1.49,0,0,0,18,20.67L20.12,2Zm7.8,17.85H9.23a1.27,1.27,0,0,1-.06-.28,1.29,1.29,0,0,1,2.57,0A1.27,1.27,0,0,1,11.68,19.85Zm-1.23-6.23a1.28,1.28,0,1,1,1.29-1.28A1.28,1.28,0,0,1,10.45,13.62Zm3.67,3.62A1.28,1.28,0,1,1,15.4,16,1.28,1.28,0,0,1,14.12,17.24Zm3.26-8.72A3.27,3.27,0,0,0,15.65,8a3.32,3.32,0,0,0-1.83.58,3.1,3.1,0,0,1-3.64,0A3.32,3.32,0,0,0,8.35,8a3.27,3.27,0,0,0-1.73.53L6.12,4H17.88Z"/></svg>