<svg id="Layer_1" data-name="Layer 1" xmlns="http://www.w3.org/2000/svg" viewBox="0 0 24 24"><title>iconoteka_plastic_bottle__recycling_b_f</title><path d="M7.56,12A1.92,1.92,0,0,0,7,13.36v1.28A1.92,1.92,0,0,0,7.56,16h8.88A1.92,1.92,0,0,0,17,14.64V13.36A1.92,1.92,0,0,0,16.44,12ZM13.67.7A.7.7,0,0,0,13,0H11a.7.7,0,0,0-.7.7V2h3.34ZM7.56,18A1.92,1.92,0,0,0,7,19.36v1.21A2.43,2.43,0,0,0,9.43,23a2.39,2.39,0,0,0,1.08-.26,3.39,3.39,0,0,1,3,0,2.39,2.39,0,0,0,1.08.26A2.43,2.43,0,0,0,17,20.57V19.36A1.92,1.92,0,0,0,16.44,18ZM15.44,5.21,14,4H10L8.55,5.23A4.54,4.54,0,0,0,7,8.64,1.92,1.92,0,0,0,7.56,10h8.88A1.92,1.92,0,0,0,17,8.64h0A4.54,4.54,0,0,0,15.44,5.21Z"/></svg>