<svg id="Layer_1" data-name="Layer 1" xmlns="http://www.w3.org/2000/svg" viewBox="0 0 24 24"><title>iconoteka_can_l_s</title><path d="M17.64,7.56l-.45-.91a2.05,2.05,0,0,0,.38-1.15c0-1.75-2.45-3.12-5.57-3.12S6.43,3.75,6.43,5.5a2.05,2.05,0,0,0,.38,1.15l-.45.91A3.38,3.38,0,0,0,6,9.12v9.53C6,20.53,8.63,22,12,22s6-1.47,6-3.35V9.12A3.38,3.38,0,0,0,17.64,7.56ZM12,2.88c2.8,0,5.07,1.17,5.07,2.62S14.8,8.13,12,8.13,6.93,7,6.93,5.5,9.2,2.88,12,2.88Zm5.51,15.77c0,1.57-2.46,2.85-5.51,2.85s-5.51-1.28-5.51-2.85V9.12A3,3,0,0,1,6.8,7.78l.36-.71A7.1,7.1,0,0,0,12,8.63a7.1,7.1,0,0,0,4.84-1.56l.36.71a3,3,0,0,1,.31,1.34Zm-4-12.3h1.17a.8.8,0,0,0,.81-.8V5.46a.81.81,0,0,0-.81-.81H13.49c-.7,0-1.2.36-1.2.85S12.79,6.35,13.49,6.35Zm0-1.2h1.17a.31.31,0,0,1,.31.31v.09a.31.31,0,0,1-.31.3H13.49c-.39,0-.7-.16-.7-.35S13.1,5.15,13.49,5.15Z"/></svg>