<svg id="Layer_1" data-name="Layer 1" xmlns="http://www.w3.org/2000/svg" viewBox="0 0 24 24"><title>iconoteka_glass_of_sparkling_water_m_s</title><path d="M4,2,6.08,20.23a2,2,0,0,0,2,1.77h7.86a2,2,0,0,0,2-1.77L20,2ZM16.43,20.06a.51.51,0,0,1-.5.44H11.57a1.06,1.06,0,0,0,.33-.78A1.1,1.1,0,1,0,10,20.5h-2a.51.51,0,0,1-.5-.44L6.31,9a2.94,2.94,0,0,1,3.1.26,4.71,4.71,0,0,0,2.59.82,4.71,4.71,0,0,0,2.59-.82,3.21,3.21,0,0,1,1.78-.58A3,3,0,0,1,17.69,9Zm1.44-12.6a4.42,4.42,0,0,0-1.5-.28,4.77,4.77,0,0,0-2.6.82,3,3,0,0,1-3.54,0,4.52,4.52,0,0,0-4.1-.54l-.45-4H18.32Zm-4.19,7.79a1.1,1.1,0,1,0,1.1,1.1A1.1,1.1,0,0,0,13.68,15.25Zm-3.06-3.37a1.1,1.1,0,1,0,1.1,1.1A1.1,1.1,0,0,0,10.62,11.88Z"/></svg>