<svg id="Layer_1" data-name="Layer 1" xmlns="http://www.w3.org/2000/svg" viewBox="0 0 24 24"><title>iconoteka_plastic_bottle__recycling_l_f</title><path d="M7.56,10.5A1.92,1.92,0,0,0,7,11.86v2.78A1.92,1.92,0,0,0,7.56,16h8.88A1.92,1.92,0,0,0,17,14.64V11.86a1.92,1.92,0,0,0-.56-1.36ZM13.67.7A.7.7,0,0,0,13,0H11a.7.7,0,0,0-.7.7V2h3.34ZM15.43,4,13.67,2.5H10.33L8.55,4.06A4.54,4.54,0,0,0,7,7.47V8.64A1.92,1.92,0,0,0,7.56,10h8.88A1.92,1.92,0,0,0,17,8.64V7.46A4.52,4.52,0,0,0,15.43,4ZM7.56,16.5A1.92,1.92,0,0,0,7,17.86v2.71A2.43,2.43,0,0,0,9.43,23a2.39,2.39,0,0,0,1.08-.26,3.39,3.39,0,0,1,3,0,2.39,2.39,0,0,0,1.08.26A2.43,2.43,0,0,0,17,20.57V17.86a1.92,1.92,0,0,0-.56-1.36Z"/></svg>