<svg id="Layer_1" data-name="Layer 1" xmlns="http://www.w3.org/2000/svg" viewBox="0 0 24 24"><title>iconoteka_cup__coffee_tea_cafe__caffee__teahouse_b_s</title><path d="M0,20v1a19.57,19.57,0,0,0,6.16,1H17.84A19.57,19.57,0,0,0,24,21V20Zm9.66-2h4.68a4.5,4.5,0,0,0,4.47-4l.11-1h.4a4,4,0,0,0,4-3.57l.18-1.66A2.5,2.5,0,0,0,21,5H19.78L20,3H4L5.19,14A4.5,4.5,0,0,0,9.66,18Zm9.9-11H21a.48.48,0,0,1,.37.17.46.46,0,0,1,.12.38l-.17,1.66a2,2,0,0,1-2,1.79h-.19ZM17.77,5l-.95,8.77A2.49,2.49,0,0,1,14.34,16H9.66a2.49,2.49,0,0,1-2.48-2.23L6.23,5Z"/></svg>