<svg id="Layer_1" data-name="Layer 1" xmlns="http://www.w3.org/2000/svg" viewBox="0 0 24 24"><title>iconoteka_glass_of_sparkling_water_m_f</title><path d="M4,2,6.08,20.23a2,2,0,0,0,2,1.77h7.86a2,2,0,0,0,2-1.77L20,2Zm6.45,17.77a1.2,1.2,0,1,1,1.2-1.2A1.2,1.2,0,0,1,10.45,19.77Zm0-7.23a1.2,1.2,0,1,1,1.2-1.2A1.2,1.2,0,0,1,10.45,12.54Zm3.67,3.62a1.2,1.2,0,1,1,1.2-1.2A1.2,1.2,0,0,1,14.12,16.16Zm3.73-8.59A3.38,3.38,0,0,0,14,7.63a3.43,3.43,0,0,1-4,0A3.55,3.55,0,0,0,8,7a3.54,3.54,0,0,0-1.88.58L5.68,3.5H18.32Z"/></svg>