<svg id="Layer_1" data-name="Layer 1" xmlns="http://www.w3.org/2000/svg" viewBox="0 0 24 24"><title>iconoteka_glass__recycled__bottle_r_s</title><path d="M10.42,7.82,9.33,7V1H5.67V7l-1.09.82A3.92,3.92,0,0,0,3,11v9.27a.76.76,0,0,0,.75.75h7.5a.76.76,0,0,0,.75-.75V11A3.92,3.92,0,0,0,10.42,7.82ZM11,20H4V11A3,3,0,0,1,5.21,8.54L6.3,7.73l.33-.29V2H8.37V7.44l.33.29,1.09.81A3,3,0,0,1,11,11ZM18.47,16A3.56,3.56,0,0,0,21.56,12L21,7H15l-.56,5A3.56,3.56,0,0,0,17.53,16v4.17L15,20.5V21h6v-.5l-2.53-.38Zm-2.39-1.81a2.54,2.54,0,0,1-.64-2L15.9,8h4.2l.46,4.13a2.58,2.58,0,0,1-4.48,2Z"/></svg>