<svg id="Layer_1" data-name="Layer 1" xmlns="http://www.w3.org/2000/svg" viewBox="0 0 24 24"><title>iconoteka_plastic_bottle__recycling_m_s</title><path d="M17.3,11l.15-.22A3,3,0,0,0,18,9.05a5.52,5.52,0,0,0-1.84-4.11L14.63,3.58V1.5A1.5,1.5,0,0,0,13.13,0H10.87a1.5,1.5,0,0,0-1.5,1.5V3.58L7.84,4.94A5.52,5.52,0,0,0,6,9.05a3,3,0,0,0,.55,1.73L6.7,11l-.15.22A3,3,0,0,0,6,13v2a3,3,0,0,0,.55,1.73l.15.22-.15.22A3,3,0,0,0,6,18.88v1.69A2.43,2.43,0,0,0,8.43,23h1a2.39,2.39,0,0,0,1.08-.26,3.35,3.35,0,0,1,3,0,2.39,2.39,0,0,0,1.08.26h1A2.43,2.43,0,0,0,18,20.57V18.88a3,3,0,0,0-.55-1.73l-.15-.22.15-.22A3,3,0,0,0,18,15V13a3,3,0,0,0-.55-1.73ZM10.87,1.5h2.26v2H10.87ZM16.5,20.57a.93.93,0,0,1-.93.93h-1a.86.86,0,0,1-.41-.1,4.83,4.83,0,0,0-4.32,0,.86.86,0,0,1-.41.1h-1a.93.93,0,0,1-.93-.93V18.88A1.46,1.46,0,0,1,7.77,18l.16-.23h8.14l.16.23a1.46,1.46,0,0,1,.27.86Zm0-5.59a1.46,1.46,0,0,1-.27.86l-.16.23-.15.21H8.08l-.15-.21-.16-.23A1.46,1.46,0,0,1,7.5,15V13a1.46,1.46,0,0,1,.27-.86l.16-.23L8,11.78h8l.06.08.16.23a1.46,1.46,0,0,1,.27.86Zm-.27-5.07-.16.23-.1.14H8l-.1-.14-.16-.23a1.46,1.46,0,0,1-.27-.86,4,4,0,0,1,1.34-3L10,5H14l1.19,1.06a4,4,0,0,1,1.34,3A1.46,1.46,0,0,1,16.23,9.91Z"/></svg>