<svg id="Layer_1" data-name="Layer 1" xmlns="http://www.w3.org/2000/svg" viewBox="0 0 24 24"><title>iconoteka_pizza__slice_l_s</title><path d="M10.62,11.07A1.53,1.53,0,0,0,10,8.14a1.5,1.5,0,0,0-.62.13A1.53,1.53,0,0,0,10,11.2,1.5,1.5,0,0,0,10.62,11.07Zm-1.56-1a1,1,0,0,1,.52-1.36A1,1,0,0,1,10,8.64a1,1,0,0,1,.42,2,1.06,1.06,0,0,1-.42.09A1,1,0,0,1,9.06,10.09Zm6.59-.16a1.54,1.54,0,0,0-.9-.3,1.51,1.51,0,0,0-1.24.64,1.53,1.53,0,0,0,.33,2.14,1.6,1.6,0,0,0,.9.29,1.53,1.53,0,0,0,.91-2.77Zm-.07,1.84a1,1,0,0,1-1.44.23,1,1,0,0,1-.41-.67,1,1,0,0,1,.18-.77,1,1,0,0,1,.84-.43,1,1,0,0,1,.6.2A1,1,0,0,1,15.58,11.77ZM12,13.29a1.51,1.51,0,0,0-.9-.29,1.53,1.53,0,0,0-.9,2.77,1.49,1.49,0,0,0,.9.29,1.53,1.53,0,0,0,.9-2.77Zm-.07,1.85a1,1,0,0,1-1.67-1.22,1.07,1.07,0,0,1,.84-.42,1,1,0,0,1,.6.2,1,1,0,0,1,.42.67A1.07,1.07,0,0,1,11.91,15.14ZM22.2,5l-.86-.5a18.53,18.53,0,0,0-18.59,0L1.88,5,12,22.6h0L20.23,8.42h0ZM12,21.6l-7.5-13,.26-.15a14.42,14.42,0,0,1,14.48,0l.27.15ZM19.53,8a14.9,14.9,0,0,0-15,0l-.26.15-1.72-3L3,4.94a18,18,0,0,1,18.09,0l.43.25-1.72,3Z"/></svg>