<svg id="Layer_1" data-name="Layer 1" xmlns="http://www.w3.org/2000/svg" viewBox="0 0 24 24"><title>iconoteka_pizza_b_s</title><path d="M21.3,4.49a18.61,18.61,0,0,0-18.6,0L1.83,5,12,22.6,22.17,5ZM19.42,5.75,18.34,7.62a13.72,13.72,0,0,0-12.68,0L4.58,5.75A16.82,16.82,0,0,1,19.42,5.75ZM9.1,9.58a1.3,1.3,0,0,0,2.45-.85A1.24,1.24,0,0,0,11,8.08a11.55,11.55,0,0,1,5.85,1L16,10.51A1.36,1.36,0,0,0,15.7,10,1.29,1.29,0,1,0,15,12.28L12,17.5l-1.29-2.24h0a1.29,1.29,0,1,0-1-1.64L7.14,9.09a10.87,10.87,0,0,1,2.21-.75A1.27,1.27,0,0,0,9.1,9.58Z"/></svg>