<svg id="Layer_1" data-name="Layer 1" xmlns="http://www.w3.org/2000/svg" viewBox="0 0 24 24"><title>iconoteka_pizza__slice_r_s</title><path d="M10.7,11.08a1.42,1.42,0,0,0-.58-2.72,1.28,1.28,0,0,0-.57.13,1.42,1.42,0,0,0,.57,2.71A1.47,1.47,0,0,0,10.7,11.08ZM9.56,10a.62.62,0,0,1,.31-.82.57.57,0,0,1,.25-.06.63.63,0,0,1,.57.37.62.62,0,0,1-.32.82.53.53,0,0,1-.25.05A.62.62,0,0,1,9.56,10Zm5,2.55A1.42,1.42,0,0,0,15.36,10a1.45,1.45,0,0,0-.84-.27,1.42,1.42,0,0,0,0,2.84ZM14,10.81a.6.6,0,0,1,.5-.26.63.63,0,0,1,.37.12.6.6,0,0,1,.24.4.57.57,0,0,1-.11.46.59.59,0,0,1-.5.26.58.58,0,0,1-.36-.12.62.62,0,0,1-.25-.4A.57.57,0,0,1,14,10.81Zm-2.9,2.06a1.41,1.41,0,1,0,.84.27A1.45,1.45,0,0,0,11.12,12.87Zm.5,1.78a.61.61,0,0,1-.5.26.58.58,0,0,1-.36-.12.61.61,0,0,1-.25-.41.59.59,0,0,1,.11-.46.62.62,0,0,1,.5-.25.63.63,0,0,1,.37.12.62.62,0,0,1,.13.86ZM22.2,5l-.86-.5a18.53,18.53,0,0,0-18.59,0L1.88,5,12,22.6h0L20.23,8.42h0ZM12,20.6,5.22,8.79a13.89,13.89,0,0,1,13.64,0ZM12,6A14.9,14.9,0,0,0,4.73,7.93L3.25,5.37a17.5,17.5,0,0,1,17.59,0L19.36,7.93A14.94,14.94,0,0,0,12,6Z"/></svg>