<svg id="Layer_1" data-name="Layer 1" xmlns="http://www.w3.org/2000/svg" viewBox="0 0 24 24"><title>iconoteka_glass_of_sparkling_water_l_s</title><path d="M4,2,6.08,20.23a2,2,0,0,0,2,1.77h7.86a2,2,0,0,0,2-1.77L20,2ZM17.42,20.17a1.5,1.5,0,0,1-1.49,1.33H8.07a1.5,1.5,0,0,1-1.49-1.33L5.28,8.76a3.75,3.75,0,0,1,4.25.08A4.51,4.51,0,0,0,12,9.63a4.51,4.51,0,0,0,2.47-.79,4,4,0,0,1,2.2-.71,3.92,3.92,0,0,1,2,.63ZM16.67,7.63a4.51,4.51,0,0,0-2.47.79,3.79,3.79,0,0,1-4.4,0,4.25,4.25,0,0,0-4.59-.2L4.56,2.5H19.44l-.65,5.72A4.38,4.38,0,0,0,16.67,7.63Zm-2.44,6.22a1.5,1.5,0,1,0,1.5,1.5A1.5,1.5,0,0,0,14.23,13.85Zm0,2.5a1,1,0,1,1,1-1A1,1,0,0,1,14.23,16.35Zm-3.82-2.47a1.5,1.5,0,1,0-1.5-1.5A1.5,1.5,0,0,0,10.41,13.88Zm0-2.5a1,1,0,1,1-1,1A1,1,0,0,1,10.41,11.38Zm.18,5.44a1.5,1.5,0,1,0,1.5,1.5A1.5,1.5,0,0,0,10.59,16.82Zm0,2.5a1,1,0,1,1,1-1A1,1,0,0,1,10.59,19.32Z"/></svg>