<svg id="Layer_1" data-name="Layer 1" xmlns="http://www.w3.org/2000/svg" viewBox="0 0 24 24"><title>iconoteka_vpn_b_s</title><path d="M20,12a8.24,8.24,0,0,1-.25,2h-3.1c.06-.65.1-1.31.1-2h-2c0,.69,0,1.36-.09,2H9.34c-.06-.64-.09-1.31-.09-2s0-1.36.09-2H12V8H9.62C10.1,5.61,11,4,12,4V2A10,10,0,1,0,22,12ZM4.25,14a8.13,8.13,0,0,1,0-4h3.1c-.06.65-.1,1.31-.1,2s0,1.35.1,2ZM5,16H7.67a11.57,11.57,0,0,0,1.41,3.67A8,8,0,0,1,5,16ZM7.67,8H5A8,8,0,0,1,9.08,4.33,11.57,11.57,0,0,0,7.67,8ZM12,20c-1,0-1.9-1.61-2.38-4h4.76C13.9,18.39,13,20,12,20Zm2.92-.33A11.57,11.57,0,0,0,16.33,16H19A8,8,0,0,1,14.92,19.67ZM21,5H20V4a2,2,0,0,0-4,0V5H15V9h6ZM18.7,5H17.3V4a.7.7,0,1,1,1.4,0Z"/></svg>