<svg id="Layer_1" data-name="Layer 1" xmlns="http://www.w3.org/2000/svg" viewBox="0 0 24 24"><title>iconoteka_phone_missed_b_s</title><path d="M19.89,14.3a14.68,14.68,0,0,0-15.78,0,3.53,3.53,0,0,0-1.17,4.59l1.22,2.38L9,19.76v-2.1a9.8,9.8,0,0,1,6.06,0v2.1l4.81,1.51,1.22-2.38A3.53,3.53,0,0,0,19.89,14.3Zm-.43,3.77-.53,1-2.1-.65V16.35l-1.24-.41a11.79,11.79,0,0,0-7.18,0l-1.24.41v2.09l-2.1.65-.53-1a1.72,1.72,0,0,1,.54-2.25,12.86,12.86,0,0,1,13.84,0A1.72,1.72,0,0,1,19.46,18.07ZM12,10.41l6.78-6.78L17.37,2.22,12,7.59,8.54,4.12,10.66,2H5V7.66L7.12,5.54Z"/></svg>