<svg id="Layer_1" data-name="Layer 1" xmlns="http://www.w3.org/2000/svg" viewBox="0 0 24 24"><title>iconoteka_planet__earth__internet__public_b_s</title><path d="M12,2A10,10,0,1,0,22,12,10,10,0,0,0,12,2Zm7,6H16.33a11.57,11.57,0,0,0-1.41-3.67A8,8,0,0,1,19,8Zm1,4a8.24,8.24,0,0,1-.25,2h-3.1c.06-.65.1-1.31.1-2s0-1.35-.1-2h3.1A8.24,8.24,0,0,1,20,12Zm-8,8c-1,0-1.9-1.61-2.38-4h4.76C13.9,18.39,13,20,12,20ZM9.34,14c-.06-.64-.09-1.31-.09-2s0-1.36.09-2h5.32c.06.64.09,1.31.09,2s0,1.36-.09,2ZM4,12a8.24,8.24,0,0,1,.25-2h3.1c-.06.65-.1,1.31-.1,2s0,1.35.1,2H4.25A8.24,8.24,0,0,1,4,12Zm8-8c1,0,1.9,1.61,2.38,4H9.62C10.1,5.61,11,4,12,4Zm-2.92.33A11.57,11.57,0,0,0,7.67,8H5A8,8,0,0,1,9.08,4.33ZM5,16H7.67a11.57,11.57,0,0,0,1.41,3.67A8,8,0,0,1,5,16Zm9.91,3.67A11.57,11.57,0,0,0,16.33,16H19A8,8,0,0,1,14.92,19.67Z"/></svg>