<svg id="Layer_1" data-name="Layer 1" xmlns="http://www.w3.org/2000/svg" viewBox="0 0 24 24"><title>iconoteka_phone_settings_b_s</title><path d="M14.26,7.39a4.13,4.13,0,0,0,.67,1.15l1.4-.62.84.49.17,1.52a3.15,3.15,0,0,0,1.32,0l.17-1.52.84-.49,1.4.62a4.13,4.13,0,0,0,.67-1.15l-1.24-.9v-1l1.24-.9a4.13,4.13,0,0,0-.67-1.15l-1.4.62-.84-.49-.17-1.52a3.15,3.15,0,0,0-1.32,0l-.17,1.52-.84.49-1.4-.62a4.13,4.13,0,0,0-.67,1.15l1.24.9v1ZM18,5a1,1,0,1,1-1,1A1,1,0,0,1,18,5Zm-1.46,7.87-2.25,2.25A12.47,12.47,0,0,1,8.88,9.71l2.25-2.25L8.19,1.83,5,2.86A4.44,4.44,0,0,0,1.93,8a18.45,18.45,0,0,0,5,9.09,18.45,18.45,0,0,0,9.09,5A4.44,4.44,0,0,0,21.14,19l1-3.21Zm2.7,5.54a2.46,2.46,0,0,1-2.81,1.7A16.48,16.48,0,0,1,3.89,7.57a2.46,2.46,0,0,1,1.7-2.81l1.6-.51L8.68,7.09,7.46,8.3l-1,1,.67,1.29a14.48,14.48,0,0,0,2.64,3.64,14.48,14.48,0,0,0,3.64,2.64l1.29.67,1-1,1.21-1.22,2.84,1.49Z"/></svg>