<svg id="Layer_1" data-name="Layer 1" xmlns="http://www.w3.org/2000/svg" viewBox="0 0 24 24"><title>iconoteka_thunderstorm_with_snow_b_s</title><path d="M20.89,18.77l-1.34.78V18h-1.1v1.55l-1.34-.78-.55,1,1.34.77-1.34.77.55,1,1.34-.78V23h1.1V21.45l1.34.78.55-1L20.1,20.5l1.34-.77Zm-14,0-1.34.78V18H4.45v1.55l-1.34-.78-.55,1,1.34.77-1.34.77.55,1,1.34-.78V23h1.1V21.45l1.34.78.55-1L6.1,20.5l1.34-.77ZM20.64,8.36c0-.1,0-.2,0-.3a5,5,0,0,0-4.94-5,4.87,4.87,0,0,0-2.4.65A5.67,5.67,0,0,0,3.56,7.67q0,.3,0,.6A4,4,0,0,0,5,16h5.82l-1,4h2l-.91,3.51,4-5.51H12.3l.52-2H19a4,4,0,0,0,1.64-7.64ZM19,14H5a2,2,0,0,1-2-2,2,2,0,0,1,1.3-1.86l1.44-.55L5.58,8.06c0-.13,0-.26,0-.39A3.68,3.68,0,0,1,9.23,4a3.61,3.61,0,0,1,2.65,1.14L13,6.26,14.3,5.5A2.91,2.91,0,0,1,18.67,8a2.28,2.28,0,0,0,0,.26l-.09,1.37,1.26.57A2,2,0,0,1,19,14Z"/></svg>