<svg id="Layer_1" data-name="Layer 1" xmlns="http://www.w3.org/2000/svg" viewBox="0 0 24 24"><title>iconoteka_cake__birthday_b_s</title><path d="M12,4.59a1.38,1.38,0,0,0,1.39-1.38C13.39,2.1,12,0,12,0s-1.39,2.1-1.39,3.21A1.38,1.38,0,0,0,12,4.59ZM18,9H13V6H11V9H6a4,4,0,0,0-4,4v9H22V13A4,4,0,0,0,18,9Zm2.1,11.1H3.9V16.45h.41a4,4,0,0,0,2.51-1,1.87,1.87,0,0,1,2.66,0,3.8,3.8,0,0,0,5,0,1.87,1.87,0,0,1,2.66,0,4,4,0,0,0,2.51,1h.41Zm0-5.55h-.41A2.09,2.09,0,0,1,18.37,14a3.8,3.8,0,0,0-5,0,1.87,1.87,0,0,1-2.66,0,3.79,3.79,0,0,0-5,0,2.14,2.14,0,0,1-1.33.55H3.9V13A2.1,2.1,0,0,1,6,10.9H18A2.1,2.1,0,0,1,20.1,13Z"/></svg>